%TF.GenerationSoftware,KiCad,Pcbnew,(5.1.9-0-10_14)*%
%TF.CreationDate,2022-05-15T18:46:11-07:00*%
%TF.ProjectId,PROTO_PCB_2022,50524f54-4f5f-4504-9342-5f323032322e,rev?*%
%TF.SameCoordinates,Original*%
%TF.FileFunction,Copper,L1,Top*%
%TF.FilePolarity,Positive*%
%FSLAX46Y46*%
G04 Gerber Fmt 4.6, Leading zero omitted, Abs format (unit mm)*
G04 Created by KiCad (PCBNEW (5.1.9-0-10_14)) date 2022-05-15 18:46:11*
%MOMM*%
%LPD*%
G01*
G04 APERTURE LIST*
%TA.AperFunction,SMDPad,CuDef*%
%ADD10R,5.800000X6.400000*%
%TD*%
%TA.AperFunction,SMDPad,CuDef*%
%ADD11R,1.200000X2.200000*%
%TD*%
%TA.AperFunction,SMDPad,CuDef*%
%ADD12R,6.400000X5.800000*%
%TD*%
%TA.AperFunction,SMDPad,CuDef*%
%ADD13R,2.200000X1.200000*%
%TD*%
%TA.AperFunction,ComponentPad*%
%ADD14O,1.500000X2.020000*%
%TD*%
%TA.AperFunction,ComponentPad*%
%ADD15C,2.300000*%
%TD*%
%TA.AperFunction,ComponentPad*%
%ADD16R,2.300000X2.300000*%
%TD*%
%TA.AperFunction,ComponentPad*%
%ADD17C,2.780000*%
%TD*%
%TA.AperFunction,ComponentPad*%
%ADD18C,4.000000*%
%TD*%
%TA.AperFunction,SMDPad,CuDef*%
%ADD19R,1.800000X3.400000*%
%TD*%
%TA.AperFunction,ViaPad*%
%ADD20C,0.800000*%
%TD*%
%TA.AperFunction,ViaPad*%
%ADD21C,1.400000*%
%TD*%
%TA.AperFunction,Conductor*%
%ADD22C,1.570000*%
%TD*%
%TA.AperFunction,Conductor*%
%ADD23C,3.140000*%
%TD*%
%TA.AperFunction,Conductor*%
%ADD24C,1.000000*%
%TD*%
%TA.AperFunction,Conductor*%
%ADD25C,2.500000*%
%TD*%
%TA.AperFunction,Conductor*%
%ADD26C,0.500000*%
%TD*%
%TA.AperFunction,Conductor*%
%ADD27C,1.300000*%
%TD*%
%TA.AperFunction,Conductor*%
%ADD28C,0.254000*%
%TD*%
%TA.AperFunction,Conductor*%
%ADD29C,0.100000*%
%TD*%
G04 APERTURE END LIST*
D10*
%TO.P,Q2,2*%
%TO.N,Net-(J9-Pad1)*%
X117602000Y-118296000D03*
D11*
%TO.P,Q2,3*%
%TO.N,GND*%
X119882000Y-124596000D03*
%TO.P,Q2,2*%
%TO.N,Net-(J9-Pad1)*%
X117602000Y-124596000D03*
%TO.P,Q2,1*%
%TO.N,Net-(J7-Pad2)*%
X115322000Y-124596000D03*
%TD*%
D12*
%TO.P,Q1,2*%
%TO.N,Net-(J5-Pad1)*%
X46541000Y-135890000D03*
D13*
%TO.P,Q1,3*%
%TO.N,GND*%
X52841000Y-133610000D03*
%TO.P,Q1,2*%
%TO.N,Net-(J5-Pad1)*%
X52841000Y-135890000D03*
%TO.P,Q1,1*%
%TO.N,Net-(J4-Pad2)*%
X52841000Y-138170000D03*
%TD*%
%TO.P,R1,2*%
%TO.N,Net-(L2-Pad1)*%
%TA.AperFunction,SMDPad,CuDef*%
G36*
G01*
X43697999Y-111517000D02*
X44948001Y-111517000D01*
G75*
G02*
X45198000Y-111766999I0J-249999D01*
G01*
X45198000Y-112392001D01*
G75*
G02*
X44948001Y-112642000I-249999J0D01*
G01*
X43697999Y-112642000D01*
G75*
G02*
X43448000Y-112392001I0J249999D01*
G01*
X43448000Y-111766999D01*
G75*
G02*
X43697999Y-111517000I249999J0D01*
G01*
G37*
%TD.AperFunction*%
%TO.P,R1,1*%
%TO.N,GND*%
%TA.AperFunction,SMDPad,CuDef*%
G36*
G01*
X43697999Y-108592000D02*
X44948001Y-108592000D01*
G75*
G02*
X45198000Y-108841999I0J-249999D01*
G01*
X45198000Y-109467001D01*
G75*
G02*
X44948001Y-109717000I-249999J0D01*
G01*
X43697999Y-109717000D01*
G75*
G02*
X43448000Y-109467001I0J249999D01*
G01*
X43448000Y-108841999D01*
G75*
G02*
X43697999Y-108592000I249999J0D01*
G01*
G37*
%TD.AperFunction*%
%TD*%
%TO.P,L2,2*%
%TO.N,+12V*%
%TA.AperFunction,SMDPad,CuDef*%
G36*
G01*
X48758000Y-109842000D02*
X47508000Y-109842000D01*
G75*
G02*
X47258000Y-109592000I0J250000D01*
G01*
X47258000Y-108842000D01*
G75*
G02*
X47508000Y-108592000I250000J0D01*
G01*
X48758000Y-108592000D01*
G75*
G02*
X49008000Y-108842000I0J-250000D01*
G01*
X49008000Y-109592000D01*
G75*
G02*
X48758000Y-109842000I-250000J0D01*
G01*
G37*
%TD.AperFunction*%
%TO.P,L2,1*%
%TO.N,Net-(L2-Pad1)*%
%TA.AperFunction,SMDPad,CuDef*%
G36*
G01*
X48758000Y-112642000D02*
X47508000Y-112642000D01*
G75*
G02*
X47258000Y-112392000I0J250000D01*
G01*
X47258000Y-111642000D01*
G75*
G02*
X47508000Y-111392000I250000J0D01*
G01*
X48758000Y-111392000D01*
G75*
G02*
X49008000Y-111642000I0J-250000D01*
G01*
X49008000Y-112392000D01*
G75*
G02*
X48758000Y-112642000I-250000J0D01*
G01*
G37*
%TD.AperFunction*%
%TD*%
D14*
%TO.P,J10,2*%
%TO.N,Net-(F5-Pad1)*%
X74271000Y-109476000D03*
%TO.P,J10,1*%
%TO.N,GND*%
%TA.AperFunction,ComponentPad*%
G36*
G01*
X70521000Y-110236000D02*
X70521000Y-108716000D01*
G75*
G02*
X70771000Y-108466000I250000J0D01*
G01*
X71771000Y-108466000D01*
G75*
G02*
X72021000Y-108716000I0J-250000D01*
G01*
X72021000Y-110236000D01*
G75*
G02*
X71771000Y-110486000I-250000J0D01*
G01*
X70771000Y-110486000D01*
G75*
G02*
X70521000Y-110236000I0J250000D01*
G01*
G37*
%TD.AperFunction*%
%TD*%
D15*
%TO.P,J1,2*%
%TO.N,GND*%
X61341000Y-120665000D03*
D16*
%TO.P,J1,1*%
%TO.N,+12V*%
X61341000Y-126365000D03*
%TD*%
D17*
%TO.P,F5,2*%
%TO.N,+12V*%
X78515000Y-128665000D03*
X81915000Y-128665000D03*
%TO.P,F5,1*%
%TO.N,Net-(F5-Pad1)*%
X78515000Y-118745000D03*
X81915000Y-118745000D03*
%TD*%
%TO.P,R6,2*%
%TO.N,Net-(J12-Pad1)*%
%TA.AperFunction,SMDPad,CuDef*%
G36*
G01*
X124577001Y-133974000D02*
X123326999Y-133974000D01*
G75*
G02*
X123077000Y-133724001I0J249999D01*
G01*
X123077000Y-133098999D01*
G75*
G02*
X123326999Y-132849000I249999J0D01*
G01*
X124577001Y-132849000D01*
G75*
G02*
X124827000Y-133098999I0J-249999D01*
G01*
X124827000Y-133724001D01*
G75*
G02*
X124577001Y-133974000I-249999J0D01*
G01*
G37*
%TD.AperFunction*%
%TO.P,R6,1*%
%TO.N,Net-(L4-Pad1)*%
%TA.AperFunction,SMDPad,CuDef*%
G36*
G01*
X124577001Y-136899000D02*
X123326999Y-136899000D01*
G75*
G02*
X123077000Y-136649001I0J249999D01*
G01*
X123077000Y-136023999D01*
G75*
G02*
X123326999Y-135774000I249999J0D01*
G01*
X124577001Y-135774000D01*
G75*
G02*
X124827000Y-136023999I0J-249999D01*
G01*
X124827000Y-136649001D01*
G75*
G02*
X124577001Y-136899000I-249999J0D01*
G01*
G37*
%TD.AperFunction*%
%TD*%
%TO.P,L4,2*%
%TO.N,Net-(J11-Pad2)*%
%TA.AperFunction,SMDPad,CuDef*%
G36*
G01*
X118631000Y-135753000D02*
X118631000Y-134503000D01*
G75*
G02*
X118881000Y-134253000I250000J0D01*
G01*
X119631000Y-134253000D01*
G75*
G02*
X119881000Y-134503000I0J-250000D01*
G01*
X119881000Y-135753000D01*
G75*
G02*
X119631000Y-136003000I-250000J0D01*
G01*
X118881000Y-136003000D01*
G75*
G02*
X118631000Y-135753000I0J250000D01*
G01*
G37*
%TD.AperFunction*%
%TO.P,L4,1*%
%TO.N,Net-(L4-Pad1)*%
%TA.AperFunction,SMDPad,CuDef*%
G36*
G01*
X115831000Y-135753000D02*
X115831000Y-134503000D01*
G75*
G02*
X116081000Y-134253000I250000J0D01*
G01*
X116831000Y-134253000D01*
G75*
G02*
X117081000Y-134503000I0J-250000D01*
G01*
X117081000Y-135753000D01*
G75*
G02*
X116831000Y-136003000I-250000J0D01*
G01*
X116081000Y-136003000D01*
G75*
G02*
X115831000Y-135753000I0J250000D01*
G01*
G37*
%TD.AperFunction*%
%TD*%
%TO.P,F3,2*%
%TO.N,+12V*%
X96295000Y-128665000D03*
X99695000Y-128665000D03*
%TO.P,F3,1*%
%TO.N,Net-(F3-Pad1)*%
X96295000Y-118745000D03*
X99695000Y-118745000D03*
%TD*%
D14*
%TO.P,J12,2*%
%TO.N,Net-(J11-Pad1)*%
X119991000Y-109476000D03*
%TO.P,J12,1*%
%TO.N,Net-(J12-Pad1)*%
%TA.AperFunction,ComponentPad*%
G36*
G01*
X116241000Y-110236000D02*
X116241000Y-108716000D01*
G75*
G02*
X116491000Y-108466000I250000J0D01*
G01*
X117491000Y-108466000D01*
G75*
G02*
X117741000Y-108716000I0J-250000D01*
G01*
X117741000Y-110236000D01*
G75*
G02*
X117491000Y-110486000I-250000J0D01*
G01*
X116491000Y-110486000D01*
G75*
G02*
X116241000Y-110236000I0J250000D01*
G01*
G37*
%TD.AperFunction*%
%TD*%
%TO.P,J11,2*%
%TO.N,Net-(J11-Pad2)*%
X116126000Y-140208000D03*
%TO.P,J11,1*%
%TO.N,Net-(J11-Pad1)*%
%TA.AperFunction,ComponentPad*%
G36*
G01*
X119876000Y-139448000D02*
X119876000Y-140968000D01*
G75*
G02*
X119626000Y-141218000I-250000J0D01*
G01*
X118626000Y-141218000D01*
G75*
G02*
X118376000Y-140968000I0J250000D01*
G01*
X118376000Y-139448000D01*
G75*
G02*
X118626000Y-139198000I250000J0D01*
G01*
X119626000Y-139198000D01*
G75*
G02*
X119876000Y-139448000I0J-250000D01*
G01*
G37*
%TD.AperFunction*%
%TD*%
%TO.P,J8,2*%
%TO.N,Net-(F3-Pad1)*%
X97131000Y-109476000D03*
%TO.P,J8,1*%
%TO.N,GND*%
%TA.AperFunction,ComponentPad*%
G36*
G01*
X93381000Y-110236000D02*
X93381000Y-108716000D01*
G75*
G02*
X93631000Y-108466000I250000J0D01*
G01*
X94631000Y-108466000D01*
G75*
G02*
X94881000Y-108716000I0J-250000D01*
G01*
X94881000Y-110236000D01*
G75*
G02*
X94631000Y-110486000I-250000J0D01*
G01*
X93631000Y-110486000D01*
G75*
G02*
X93381000Y-110236000I0J250000D01*
G01*
G37*
%TD.AperFunction*%
%TD*%
%TO.P,J9,2*%
%TO.N,Net-(F4-Pad1)*%
X108561000Y-109476000D03*
%TO.P,J9,1*%
%TO.N,Net-(J9-Pad1)*%
%TA.AperFunction,ComponentPad*%
G36*
G01*
X104811000Y-110236000D02*
X104811000Y-108716000D01*
G75*
G02*
X105061000Y-108466000I250000J0D01*
G01*
X106061000Y-108466000D01*
G75*
G02*
X106311000Y-108716000I0J-250000D01*
G01*
X106311000Y-110236000D01*
G75*
G02*
X106061000Y-110486000I-250000J0D01*
G01*
X105061000Y-110486000D01*
G75*
G02*
X104811000Y-110236000I0J250000D01*
G01*
G37*
%TD.AperFunction*%
%TD*%
%TO.P,J6,2*%
%TO.N,Net-(F2-Pad1)*%
X85701000Y-109476000D03*
%TO.P,J6,1*%
%TO.N,GND*%
%TA.AperFunction,ComponentPad*%
G36*
G01*
X81951000Y-110236000D02*
X81951000Y-108716000D01*
G75*
G02*
X82201000Y-108466000I250000J0D01*
G01*
X83201000Y-108466000D01*
G75*
G02*
X83451000Y-108716000I0J-250000D01*
G01*
X83451000Y-110236000D01*
G75*
G02*
X83201000Y-110486000I-250000J0D01*
G01*
X82201000Y-110486000D01*
G75*
G02*
X81951000Y-110236000I0J250000D01*
G01*
G37*
%TD.AperFunction*%
%TD*%
%TO.P,J7,2*%
%TO.N,Net-(J7-Pad2)*%
X104188000Y-140208000D03*
%TO.P,J7,1*%
%TO.N,+12V*%
%TA.AperFunction,ComponentPad*%
G36*
G01*
X107938000Y-139448000D02*
X107938000Y-140968000D01*
G75*
G02*
X107688000Y-141218000I-250000J0D01*
G01*
X106688000Y-141218000D01*
G75*
G02*
X106438000Y-140968000I0J250000D01*
G01*
X106438000Y-139448000D01*
G75*
G02*
X106688000Y-139198000I250000J0D01*
G01*
X107688000Y-139198000D01*
G75*
G02*
X107938000Y-139448000I0J-250000D01*
G01*
G37*
%TD.AperFunction*%
%TD*%
%TO.P,J5,2*%
%TO.N,Net-(F1-Pad1)*%
X62841000Y-109476000D03*
%TO.P,J5,1*%
%TO.N,Net-(J5-Pad1)*%
%TA.AperFunction,ComponentPad*%
G36*
G01*
X59091000Y-110236000D02*
X59091000Y-108716000D01*
G75*
G02*
X59341000Y-108466000I250000J0D01*
G01*
X60341000Y-108466000D01*
G75*
G02*
X60591000Y-108716000I0J-250000D01*
G01*
X60591000Y-110236000D01*
G75*
G02*
X60341000Y-110486000I-250000J0D01*
G01*
X59341000Y-110486000D01*
G75*
G02*
X59091000Y-110236000I0J250000D01*
G01*
G37*
%TD.AperFunction*%
%TD*%
%TO.P,J4,2*%
%TO.N,Net-(J4-Pad2)*%
X67231000Y-140208000D03*
%TO.P,J4,1*%
%TO.N,Net-(J3-Pad2)*%
%TA.AperFunction,ComponentPad*%
G36*
G01*
X70981000Y-139448000D02*
X70981000Y-140968000D01*
G75*
G02*
X70731000Y-141218000I-250000J0D01*
G01*
X69731000Y-141218000D01*
G75*
G02*
X69481000Y-140968000I0J250000D01*
G01*
X69481000Y-139448000D01*
G75*
G02*
X69731000Y-139198000I250000J0D01*
G01*
X70731000Y-139198000D01*
G75*
G02*
X70981000Y-139448000I0J-250000D01*
G01*
G37*
%TD.AperFunction*%
%TD*%
%TO.P,J3,2*%
%TO.N,Net-(J3-Pad2)*%
X78891000Y-140208000D03*
%TO.P,J3,1*%
%TO.N,Net-(J2-Pad2)*%
%TA.AperFunction,ComponentPad*%
G36*
G01*
X82641000Y-139448000D02*
X82641000Y-140968000D01*
G75*
G02*
X82391000Y-141218000I-250000J0D01*
G01*
X81391000Y-141218000D01*
G75*
G02*
X81141000Y-140968000I0J250000D01*
G01*
X81141000Y-139448000D01*
G75*
G02*
X81391000Y-139198000I250000J0D01*
G01*
X82391000Y-139198000D01*
G75*
G02*
X82641000Y-139448000I0J-250000D01*
G01*
G37*
%TD.AperFunction*%
%TD*%
%TO.P,J2,2*%
%TO.N,Net-(J2-Pad2)*%
X90345000Y-140208000D03*
%TO.P,J2,1*%
%TO.N,+12V*%
%TA.AperFunction,ComponentPad*%
G36*
G01*
X94095000Y-139448000D02*
X94095000Y-140968000D01*
G75*
G02*
X93845000Y-141218000I-250000J0D01*
G01*
X92845000Y-141218000D01*
G75*
G02*
X92595000Y-140968000I0J250000D01*
G01*
X92595000Y-139448000D01*
G75*
G02*
X92845000Y-139198000I250000J0D01*
G01*
X93845000Y-139198000D01*
G75*
G02*
X94095000Y-139448000I0J-250000D01*
G01*
G37*
%TD.AperFunction*%
%TD*%
D18*
%TO.P,H4,1*%
%TO.N,N/C*%
X128016000Y-145415000D03*
%TD*%
%TO.P,H3,1*%
%TO.N,N/C*%
X128016000Y-104140000D03*
%TD*%
%TO.P,H2,1*%
%TO.N,N/C*%
X46101000Y-145415000D03*
%TD*%
%TO.P,H1,1*%
%TO.N,N/C*%
X46101000Y-104140000D03*
%TD*%
D17*
%TO.P,F4,2*%
%TO.N,+12V*%
X105185000Y-128665000D03*
X108585000Y-128665000D03*
%TO.P,F4,1*%
%TO.N,Net-(F4-Pad1)*%
X105185000Y-118745000D03*
X108585000Y-118745000D03*
%TD*%
%TO.P,F2,2*%
%TO.N,+12V*%
X87405000Y-128792000D03*
X90805000Y-128792000D03*
%TO.P,F2,1*%
%TO.N,Net-(F2-Pad1)*%
X87405000Y-118872000D03*
X90805000Y-118872000D03*
%TD*%
%TO.P,F1,2*%
%TO.N,+12V*%
X69625000Y-128665000D03*
X73025000Y-128665000D03*
%TO.P,F1,1*%
%TO.N,Net-(F1-Pad1)*%
X69625000Y-118745000D03*
X73025000Y-118745000D03*
%TD*%
%TO.P,L3,2*%
%TO.N,Net-(J7-Pad2)*%
%TA.AperFunction,SMDPad,CuDef*%
G36*
G01*
X105397000Y-134757000D02*
X105397000Y-136007000D01*
G75*
G02*
X105147000Y-136257000I-250000J0D01*
G01*
X104397000Y-136257000D01*
G75*
G02*
X104147000Y-136007000I0J250000D01*
G01*
X104147000Y-134757000D01*
G75*
G02*
X104397000Y-134507000I250000J0D01*
G01*
X105147000Y-134507000D01*
G75*
G02*
X105397000Y-134757000I0J-250000D01*
G01*
G37*
%TD.AperFunction*%
%TO.P,L3,1*%
%TO.N,Net-(L3-Pad1)*%
%TA.AperFunction,SMDPad,CuDef*%
G36*
G01*
X108197000Y-134757000D02*
X108197000Y-136007000D01*
G75*
G02*
X107947000Y-136257000I-250000J0D01*
G01*
X107197000Y-136257000D01*
G75*
G02*
X106947000Y-136007000I0J250000D01*
G01*
X106947000Y-134757000D01*
G75*
G02*
X107197000Y-134507000I250000J0D01*
G01*
X107947000Y-134507000D01*
G75*
G02*
X108197000Y-134757000I0J-250000D01*
G01*
G37*
%TD.AperFunction*%
%TD*%
%TO.P,L1,2*%
%TO.N,Net-(J4-Pad2)*%
%TA.AperFunction,SMDPad,CuDef*%
G36*
G01*
X81163000Y-136007000D02*
X81163000Y-134757000D01*
G75*
G02*
X81413000Y-134507000I250000J0D01*
G01*
X82163000Y-134507000D01*
G75*
G02*
X82413000Y-134757000I0J-250000D01*
G01*
X82413000Y-136007000D01*
G75*
G02*
X82163000Y-136257000I-250000J0D01*
G01*
X81413000Y-136257000D01*
G75*
G02*
X81163000Y-136007000I0J250000D01*
G01*
G37*
%TD.AperFunction*%
%TO.P,L1,1*%
%TO.N,Net-(L1-Pad1)*%
%TA.AperFunction,SMDPad,CuDef*%
G36*
G01*
X78363000Y-136007000D02*
X78363000Y-134757000D01*
G75*
G02*
X78613000Y-134507000I250000J0D01*
G01*
X79363000Y-134507000D01*
G75*
G02*
X79613000Y-134757000I0J-250000D01*
G01*
X79613000Y-136007000D01*
G75*
G02*
X79363000Y-136257000I-250000J0D01*
G01*
X78613000Y-136257000D01*
G75*
G02*
X78363000Y-136007000I0J250000D01*
G01*
G37*
%TD.AperFunction*%
%TD*%
%TO.P,R5,2*%
%TO.N,GND*%
%TA.AperFunction,SMDPad,CuDef*%
G36*
G01*
X118246999Y-129743500D02*
X119497001Y-129743500D01*
G75*
G02*
X119747000Y-129993499I0J-249999D01*
G01*
X119747000Y-130618501D01*
G75*
G02*
X119497001Y-130868500I-249999J0D01*
G01*
X118246999Y-130868500D01*
G75*
G02*
X117997000Y-130618501I0J249999D01*
G01*
X117997000Y-129993499D01*
G75*
G02*
X118246999Y-129743500I249999J0D01*
G01*
G37*
%TD.AperFunction*%
%TO.P,R5,1*%
%TO.N,Net-(J7-Pad2)*%
%TA.AperFunction,SMDPad,CuDef*%
G36*
G01*
X118246999Y-126818500D02*
X119497001Y-126818500D01*
G75*
G02*
X119747000Y-127068499I0J-249999D01*
G01*
X119747000Y-127693501D01*
G75*
G02*
X119497001Y-127943500I-249999J0D01*
G01*
X118246999Y-127943500D01*
G75*
G02*
X117997000Y-127693501I0J249999D01*
G01*
X117997000Y-127068499D01*
G75*
G02*
X118246999Y-126818500I249999J0D01*
G01*
G37*
%TD.AperFunction*%
%TD*%
%TO.P,R4,2*%
%TO.N,GND*%
%TA.AperFunction,SMDPad,CuDef*%
G36*
G01*
X116195001Y-128132000D02*
X114944999Y-128132000D01*
G75*
G02*
X114695000Y-127882001I0J249999D01*
G01*
X114695000Y-127256999D01*
G75*
G02*
X114944999Y-127007000I249999J0D01*
G01*
X116195001Y-127007000D01*
G75*
G02*
X116445000Y-127256999I0J-249999D01*
G01*
X116445000Y-127882001D01*
G75*
G02*
X116195001Y-128132000I-249999J0D01*
G01*
G37*
%TD.AperFunction*%
%TO.P,R4,1*%
%TO.N,Net-(L3-Pad1)*%
%TA.AperFunction,SMDPad,CuDef*%
G36*
G01*
X116195001Y-131057000D02*
X114944999Y-131057000D01*
G75*
G02*
X114695000Y-130807001I0J249999D01*
G01*
X114695000Y-130181999D01*
G75*
G02*
X114944999Y-129932000I249999J0D01*
G01*
X116195001Y-129932000D01*
G75*
G02*
X116445000Y-130181999I0J-249999D01*
G01*
X116445000Y-130807001D01*
G75*
G02*
X116195001Y-131057000I-249999J0D01*
G01*
G37*
%TD.AperFunction*%
%TD*%
%TO.P,R3,2*%
%TO.N,GND*%
%TA.AperFunction,SMDPad,CuDef*%
G36*
G01*
X57988500Y-135245001D02*
X57988500Y-133994999D01*
G75*
G02*
X58238499Y-133745000I249999J0D01*
G01*
X58863501Y-133745000D01*
G75*
G02*
X59113500Y-133994999I0J-249999D01*
G01*
X59113500Y-135245001D01*
G75*
G02*
X58863501Y-135495000I-249999J0D01*
G01*
X58238499Y-135495000D01*
G75*
G02*
X57988500Y-135245001I0J249999D01*
G01*
G37*
%TD.AperFunction*%
%TO.P,R3,1*%
%TO.N,Net-(J4-Pad2)*%
%TA.AperFunction,SMDPad,CuDef*%
G36*
G01*
X55063500Y-135245001D02*
X55063500Y-133994999D01*
G75*
G02*
X55313499Y-133745000I249999J0D01*
G01*
X55938501Y-133745000D01*
G75*
G02*
X56188500Y-133994999I0J-249999D01*
G01*
X56188500Y-135245001D01*
G75*
G02*
X55938501Y-135495000I-249999J0D01*
G01*
X55313499Y-135495000D01*
G75*
G02*
X55063500Y-135245001I0J249999D01*
G01*
G37*
%TD.AperFunction*%
%TD*%
%TO.P,R2,2*%
%TO.N,GND*%
%TA.AperFunction,SMDPad,CuDef*%
G36*
G01*
X56250000Y-136788999D02*
X56250000Y-138039001D01*
G75*
G02*
X56000001Y-138289000I-249999J0D01*
G01*
X55374999Y-138289000D01*
G75*
G02*
X55125000Y-138039001I0J249999D01*
G01*
X55125000Y-136788999D01*
G75*
G02*
X55374999Y-136539000I249999J0D01*
G01*
X56000001Y-136539000D01*
G75*
G02*
X56250000Y-136788999I0J-249999D01*
G01*
G37*
%TD.AperFunction*%
%TO.P,R2,1*%
%TO.N,Net-(L1-Pad1)*%
%TA.AperFunction,SMDPad,CuDef*%
G36*
G01*
X59175000Y-136788999D02*
X59175000Y-138039001D01*
G75*
G02*
X58925001Y-138289000I-249999J0D01*
G01*
X58299999Y-138289000D01*
G75*
G02*
X58050000Y-138039001I0J249999D01*
G01*
X58050000Y-136788999D01*
G75*
G02*
X58299999Y-136539000I249999J0D01*
G01*
X58925001Y-136539000D01*
G75*
G02*
X59175000Y-136788999I0J-249999D01*
G01*
G37*
%TD.AperFunction*%
%TD*%
D19*
%TO.P,TP2,1*%
%TO.N,GND*%
X52832000Y-104140000D03*
%TD*%
%TO.P,TP1,1*%
%TO.N,+12V*%
X52832000Y-110490000D03*
%TD*%
D20*
%TO.N,GND*%
X54991000Y-130175000D03*
X54991000Y-128270000D03*
X55633500Y-126372500D03*
X121412000Y-127381000D03*
X121412000Y-128651000D03*
X121404500Y-126118500D03*
X59443500Y-122562500D03*
X58173500Y-123832500D03*
X56903500Y-125102500D03*
D21*
X57404000Y-104140000D03*
%TO.N,+12V*%
X55880000Y-108966000D03*
%TD*%
D22*
%TO.N,GND*%
X58551000Y-133735000D02*
X58551000Y-134620000D01*
X56261000Y-131445000D02*
X58551000Y-133735000D01*
X54991000Y-127015000D02*
X54991000Y-128270000D01*
X61341000Y-120665000D02*
X59443500Y-122562500D01*
X54991000Y-131445000D02*
X56261000Y-131445000D01*
X54991000Y-130175000D02*
X54991000Y-131445000D01*
X54991000Y-128270000D02*
X54991000Y-130175000D01*
X55633500Y-126372500D02*
X54991000Y-127015000D01*
X119882000Y-124596000D02*
X121404500Y-126118500D01*
X121412000Y-126126000D02*
X121412000Y-127381000D01*
X121412000Y-127381000D02*
X121412000Y-128651000D01*
X121404500Y-126118500D02*
X121412000Y-126126000D01*
X59443500Y-122562500D02*
X58173500Y-123832500D01*
X58173500Y-123832500D02*
X56903500Y-125102500D01*
X56903500Y-125102500D02*
X55633500Y-126372500D01*
X54356000Y-131445000D02*
X54991000Y-131445000D01*
X52841000Y-132960000D02*
X54356000Y-131445000D01*
D23*
X54991000Y-127478602D02*
X54991000Y-130175000D01*
X57361001Y-125108601D02*
X54991000Y-127478602D01*
X57361001Y-124644999D02*
X57361001Y-125108601D01*
X61341000Y-120665000D02*
X57361001Y-124644999D01*
X54991000Y-130175000D02*
X54991000Y-131184990D01*
X53215990Y-132960000D02*
X52841000Y-132960000D01*
X54991000Y-131184990D02*
X53215990Y-132960000D01*
D24*
X55687500Y-137414000D02*
X55757000Y-137414000D01*
X55757000Y-137414000D02*
X58551000Y-134620000D01*
X116135500Y-127569500D02*
X118872000Y-130306000D01*
X115570000Y-127569500D02*
X116135500Y-127569500D01*
X119757000Y-130306000D02*
X121412000Y-128651000D01*
X118872000Y-130306000D02*
X119757000Y-130306000D01*
D25*
X52832000Y-104140000D02*
X57404000Y-104140000D01*
D26*
X50212500Y-104140000D02*
X45198000Y-109154500D01*
X52832000Y-104140000D02*
X50212500Y-104140000D01*
X45198000Y-109154500D02*
X44323000Y-109154500D01*
%TO.N,+12V*%
X51559000Y-109217000D02*
X52832000Y-110490000D01*
X48133000Y-109217000D02*
X51559000Y-109217000D01*
D25*
X54356000Y-110490000D02*
X55880000Y-108966000D01*
X52832000Y-110490000D02*
X54356000Y-110490000D01*
D24*
%TO.N,Net-(J2-Pad2)*%
X81891000Y-140208000D02*
X90345000Y-140208000D01*
%TO.N,Net-(J3-Pad2)*%
X70231000Y-140208000D02*
X78891000Y-140208000D01*
D22*
%TO.N,Net-(J5-Pad1)*%
X46541000Y-135890000D02*
X52841000Y-135890000D01*
D23*
X46541000Y-135890000D02*
X47371000Y-135890000D01*
X46541000Y-122776000D02*
X46541000Y-135890000D01*
X59841000Y-109476000D02*
X46541000Y-122776000D01*
D24*
%TO.N,Net-(J11-Pad1)*%
X125527010Y-115012010D02*
X119991000Y-109476000D01*
X125527010Y-137042510D02*
X125527010Y-115012010D01*
X122361520Y-140208000D02*
X125527010Y-137042510D01*
X119126000Y-140208000D02*
X122361520Y-140208000D01*
%TO.N,Net-(J12-Pad1)*%
X117680377Y-109476000D02*
X116991000Y-109476000D01*
X123952000Y-115747623D02*
X117680377Y-109476000D01*
X123952000Y-133411500D02*
X123952000Y-115747623D01*
%TO.N,Net-(J4-Pad2)*%
X52841000Y-138170000D02*
X54879000Y-140208000D01*
X54879000Y-140208000D02*
X67231000Y-140208000D01*
D26*
X54391001Y-136850001D02*
X53071002Y-138170000D01*
X54391001Y-135854999D02*
X54391001Y-136850001D01*
X55626000Y-134620000D02*
X54391001Y-135854999D01*
X53071002Y-138170000D02*
X52841000Y-138170000D01*
D24*
X80341010Y-136828990D02*
X81788000Y-135382000D01*
X80341010Y-141068613D02*
X80341010Y-136828990D01*
X79491613Y-141918010D02*
X80341010Y-141068613D01*
X68941010Y-141918010D02*
X79491613Y-141918010D01*
X67231000Y-140208000D02*
X68941010Y-141918010D01*
%TO.N,Net-(J7-Pad2)*%
X104188000Y-140208000D02*
X104188000Y-135966000D01*
X104188000Y-135966000D02*
X104772000Y-135382000D01*
X104961202Y-135382000D02*
X115322000Y-125021202D01*
X115322000Y-125021202D02*
X115322000Y-124596000D01*
X104772000Y-135382000D02*
X104961202Y-135382000D01*
X117662520Y-127381000D02*
X118872000Y-127381000D01*
X115322000Y-125040480D02*
X117662520Y-127381000D01*
X115322000Y-124596000D02*
X115322000Y-125040480D01*
D27*
%TO.N,Net-(J9-Pad1)*%
X117602000Y-124596000D02*
X117602000Y-118296000D01*
D24*
X115697000Y-116391000D02*
X117602000Y-118296000D01*
D22*
X114381000Y-118296000D02*
X117602000Y-118296000D01*
X105561000Y-109476000D02*
X114381000Y-118296000D01*
D24*
%TO.N,Net-(J11-Pad2)*%
X116126000Y-140208000D02*
X116126000Y-138258000D01*
X116126000Y-138258000D02*
X119256000Y-135128000D01*
%TO.N,Net-(L1-Pad1)*%
X77831000Y-137414000D02*
X58612500Y-137414000D01*
X78988000Y-136257000D02*
X77831000Y-137414000D01*
X78988000Y-135382000D02*
X78988000Y-136257000D01*
D26*
%TO.N,Net-(L2-Pad1)*%
X48070500Y-112079500D02*
X48133000Y-112017000D01*
X44323000Y-112079500D02*
X48070500Y-112079500D01*
D24*
%TO.N,Net-(L3-Pad1)*%
X107572000Y-135382000D02*
X110682500Y-135382000D01*
X110682500Y-135382000D02*
X115570000Y-130494500D01*
%TO.N,Net-(L4-Pad1)*%
X118031010Y-133552990D02*
X116456000Y-135128000D01*
X121168490Y-133552990D02*
X118031010Y-133552990D01*
X123952000Y-136336500D02*
X121168490Y-133552990D01*
%TD*%
D28*
%TO.N,Net-(F2-Pad1)*%
X92964000Y-108135606D02*
X92892595Y-108222614D01*
X92810528Y-108376150D01*
X92759992Y-108542746D01*
X92742928Y-108716000D01*
X92742928Y-110236000D01*
X92759992Y-110409254D01*
X92810528Y-110575850D01*
X92892595Y-110729386D01*
X92964000Y-110816394D01*
X92964000Y-122428000D01*
X84328000Y-122428000D01*
X84328000Y-120285325D01*
X86171280Y-120285325D01*
X86314052Y-120589625D01*
X86670107Y-120769455D01*
X87054402Y-120876366D01*
X87452171Y-120906251D01*
X87848128Y-120857961D01*
X88227055Y-120733352D01*
X88495948Y-120589625D01*
X88638720Y-120285325D01*
X89571280Y-120285325D01*
X89714052Y-120589625D01*
X90070107Y-120769455D01*
X90454402Y-120876366D01*
X90852171Y-120906251D01*
X91248128Y-120857961D01*
X91627055Y-120733352D01*
X91895948Y-120589625D01*
X92038720Y-120285325D01*
X90805000Y-119051605D01*
X89571280Y-120285325D01*
X88638720Y-120285325D01*
X87405000Y-119051605D01*
X86171280Y-120285325D01*
X84328000Y-120285325D01*
X84328000Y-118919171D01*
X85370749Y-118919171D01*
X85419039Y-119315128D01*
X85543648Y-119694055D01*
X85687375Y-119962948D01*
X85991675Y-120105720D01*
X87225395Y-118872000D01*
X87584605Y-118872000D01*
X88818325Y-120105720D01*
X89105000Y-119971217D01*
X89391675Y-120105720D01*
X90625395Y-118872000D01*
X90984605Y-118872000D01*
X92218325Y-120105720D01*
X92522625Y-119962948D01*
X92702455Y-119606893D01*
X92809366Y-119222598D01*
X92839251Y-118824829D01*
X92790961Y-118428872D01*
X92666352Y-118049945D01*
X92522625Y-117781052D01*
X92218325Y-117638280D01*
X90984605Y-118872000D01*
X90625395Y-118872000D01*
X89391675Y-117638280D01*
X89105000Y-117772783D01*
X88818325Y-117638280D01*
X87584605Y-118872000D01*
X87225395Y-118872000D01*
X85991675Y-117638280D01*
X85687375Y-117781052D01*
X85507545Y-118137107D01*
X85400634Y-118521402D01*
X85370749Y-118919171D01*
X84328000Y-118919171D01*
X84328000Y-117458675D01*
X86171280Y-117458675D01*
X87405000Y-118692395D01*
X88638720Y-117458675D01*
X89571280Y-117458675D01*
X90805000Y-118692395D01*
X92038720Y-117458675D01*
X91895948Y-117154375D01*
X91539893Y-116974545D01*
X91155598Y-116867634D01*
X90757829Y-116837749D01*
X90361872Y-116886039D01*
X89982945Y-117010648D01*
X89714052Y-117154375D01*
X89571280Y-117458675D01*
X88638720Y-117458675D01*
X88495948Y-117154375D01*
X88139893Y-116974545D01*
X87755598Y-116867634D01*
X87357829Y-116837749D01*
X86961872Y-116886039D01*
X86582945Y-117010648D01*
X86314052Y-117154375D01*
X86171280Y-117458675D01*
X84328000Y-117458675D01*
X84328000Y-109925525D01*
X84367389Y-110130760D01*
X84470028Y-110383349D01*
X84619972Y-110611061D01*
X84811460Y-110805145D01*
X85037132Y-110958142D01*
X85288316Y-111064173D01*
X85359815Y-111078318D01*
X85574000Y-110955656D01*
X85574000Y-109603000D01*
X85828000Y-109603000D01*
X85828000Y-110955656D01*
X86042185Y-111078318D01*
X86113684Y-111064173D01*
X86364868Y-110958142D01*
X86590540Y-110805145D01*
X86782028Y-110611061D01*
X86931972Y-110383349D01*
X87034611Y-110130760D01*
X87086000Y-109863000D01*
X87086000Y-109603000D01*
X85828000Y-109603000D01*
X85574000Y-109603000D01*
X85554000Y-109603000D01*
X85554000Y-109349000D01*
X85574000Y-109349000D01*
X85574000Y-107996344D01*
X85828000Y-107996344D01*
X85828000Y-109349000D01*
X87086000Y-109349000D01*
X87086000Y-109089000D01*
X87034611Y-108821240D01*
X86931972Y-108568651D01*
X86782028Y-108340939D01*
X86590540Y-108146855D01*
X86364868Y-107993858D01*
X86113684Y-107887827D01*
X86042185Y-107873682D01*
X85828000Y-107996344D01*
X85574000Y-107996344D01*
X85359815Y-107873682D01*
X85288316Y-107887827D01*
X85037132Y-107993858D01*
X84811460Y-108146855D01*
X84619972Y-108340939D01*
X84470028Y-108568651D01*
X84367389Y-108821240D01*
X84328000Y-109026475D01*
X84328000Y-107291000D01*
X84411279Y-107291000D01*
X84823756Y-107208953D01*
X85212302Y-107048012D01*
X85561983Y-106814363D01*
X85859363Y-106516983D01*
X86093012Y-106167302D01*
X86253953Y-105778756D01*
X86336000Y-105366279D01*
X86336000Y-104945721D01*
X86253953Y-104533244D01*
X86093012Y-104144698D01*
X85859363Y-103795017D01*
X85561983Y-103497637D01*
X85212302Y-103263988D01*
X84823756Y-103103047D01*
X84411279Y-103021000D01*
X84328000Y-103021000D01*
X84328000Y-100380000D01*
X92964000Y-100380000D01*
X92964000Y-108135606D01*
%TA.AperFunction,Conductor*%
D29*
G36*
X92964000Y-108135606D02*
G01*
X92892595Y-108222614D01*
X92810528Y-108376150D01*
X92759992Y-108542746D01*
X92742928Y-108716000D01*
X92742928Y-110236000D01*
X92759992Y-110409254D01*
X92810528Y-110575850D01*
X92892595Y-110729386D01*
X92964000Y-110816394D01*
X92964000Y-122428000D01*
X84328000Y-122428000D01*
X84328000Y-120285325D01*
X86171280Y-120285325D01*
X86314052Y-120589625D01*
X86670107Y-120769455D01*
X87054402Y-120876366D01*
X87452171Y-120906251D01*
X87848128Y-120857961D01*
X88227055Y-120733352D01*
X88495948Y-120589625D01*
X88638720Y-120285325D01*
X89571280Y-120285325D01*
X89714052Y-120589625D01*
X90070107Y-120769455D01*
X90454402Y-120876366D01*
X90852171Y-120906251D01*
X91248128Y-120857961D01*
X91627055Y-120733352D01*
X91895948Y-120589625D01*
X92038720Y-120285325D01*
X90805000Y-119051605D01*
X89571280Y-120285325D01*
X88638720Y-120285325D01*
X87405000Y-119051605D01*
X86171280Y-120285325D01*
X84328000Y-120285325D01*
X84328000Y-118919171D01*
X85370749Y-118919171D01*
X85419039Y-119315128D01*
X85543648Y-119694055D01*
X85687375Y-119962948D01*
X85991675Y-120105720D01*
X87225395Y-118872000D01*
X87584605Y-118872000D01*
X88818325Y-120105720D01*
X89105000Y-119971217D01*
X89391675Y-120105720D01*
X90625395Y-118872000D01*
X90984605Y-118872000D01*
X92218325Y-120105720D01*
X92522625Y-119962948D01*
X92702455Y-119606893D01*
X92809366Y-119222598D01*
X92839251Y-118824829D01*
X92790961Y-118428872D01*
X92666352Y-118049945D01*
X92522625Y-117781052D01*
X92218325Y-117638280D01*
X90984605Y-118872000D01*
X90625395Y-118872000D01*
X89391675Y-117638280D01*
X89105000Y-117772783D01*
X88818325Y-117638280D01*
X87584605Y-118872000D01*
X87225395Y-118872000D01*
X85991675Y-117638280D01*
X85687375Y-117781052D01*
X85507545Y-118137107D01*
X85400634Y-118521402D01*
X85370749Y-118919171D01*
X84328000Y-118919171D01*
X84328000Y-117458675D01*
X86171280Y-117458675D01*
X87405000Y-118692395D01*
X88638720Y-117458675D01*
X89571280Y-117458675D01*
X90805000Y-118692395D01*
X92038720Y-117458675D01*
X91895948Y-117154375D01*
X91539893Y-116974545D01*
X91155598Y-116867634D01*
X90757829Y-116837749D01*
X90361872Y-116886039D01*
X89982945Y-117010648D01*
X89714052Y-117154375D01*
X89571280Y-117458675D01*
X88638720Y-117458675D01*
X88495948Y-117154375D01*
X88139893Y-116974545D01*
X87755598Y-116867634D01*
X87357829Y-116837749D01*
X86961872Y-116886039D01*
X86582945Y-117010648D01*
X86314052Y-117154375D01*
X86171280Y-117458675D01*
X84328000Y-117458675D01*
X84328000Y-109925525D01*
X84367389Y-110130760D01*
X84470028Y-110383349D01*
X84619972Y-110611061D01*
X84811460Y-110805145D01*
X85037132Y-110958142D01*
X85288316Y-111064173D01*
X85359815Y-111078318D01*
X85574000Y-110955656D01*
X85574000Y-109603000D01*
X85828000Y-109603000D01*
X85828000Y-110955656D01*
X86042185Y-111078318D01*
X86113684Y-111064173D01*
X86364868Y-110958142D01*
X86590540Y-110805145D01*
X86782028Y-110611061D01*
X86931972Y-110383349D01*
X87034611Y-110130760D01*
X87086000Y-109863000D01*
X87086000Y-109603000D01*
X85828000Y-109603000D01*
X85574000Y-109603000D01*
X85554000Y-109603000D01*
X85554000Y-109349000D01*
X85574000Y-109349000D01*
X85574000Y-107996344D01*
X85828000Y-107996344D01*
X85828000Y-109349000D01*
X87086000Y-109349000D01*
X87086000Y-109089000D01*
X87034611Y-108821240D01*
X86931972Y-108568651D01*
X86782028Y-108340939D01*
X86590540Y-108146855D01*
X86364868Y-107993858D01*
X86113684Y-107887827D01*
X86042185Y-107873682D01*
X85828000Y-107996344D01*
X85574000Y-107996344D01*
X85359815Y-107873682D01*
X85288316Y-107887827D01*
X85037132Y-107993858D01*
X84811460Y-108146855D01*
X84619972Y-108340939D01*
X84470028Y-108568651D01*
X84367389Y-108821240D01*
X84328000Y-109026475D01*
X84328000Y-107291000D01*
X84411279Y-107291000D01*
X84823756Y-107208953D01*
X85212302Y-107048012D01*
X85561983Y-106814363D01*
X85859363Y-106516983D01*
X86093012Y-106167302D01*
X86253953Y-105778756D01*
X86336000Y-105366279D01*
X86336000Y-104945721D01*
X86253953Y-104533244D01*
X86093012Y-104144698D01*
X85859363Y-103795017D01*
X85561983Y-103497637D01*
X85212302Y-103263988D01*
X84823756Y-103103047D01*
X84411279Y-103021000D01*
X84328000Y-103021000D01*
X84328000Y-100380000D01*
X92964000Y-100380000D01*
X92964000Y-108135606D01*
G37*
%TD.AperFunction*%
%TD*%
D28*
%TO.N,Net-(F3-Pad1)*%
X101854000Y-122428000D02*
X93853000Y-122428000D01*
X93853000Y-120158325D01*
X95061280Y-120158325D01*
X95204052Y-120462625D01*
X95560107Y-120642455D01*
X95944402Y-120749366D01*
X96342171Y-120779251D01*
X96738128Y-120730961D01*
X97117055Y-120606352D01*
X97385948Y-120462625D01*
X97528720Y-120158325D01*
X98461280Y-120158325D01*
X98604052Y-120462625D01*
X98960107Y-120642455D01*
X99344402Y-120749366D01*
X99742171Y-120779251D01*
X100138128Y-120730961D01*
X100517055Y-120606352D01*
X100785948Y-120462625D01*
X100928720Y-120158325D01*
X99695000Y-118924605D01*
X98461280Y-120158325D01*
X97528720Y-120158325D01*
X96295000Y-118924605D01*
X95061280Y-120158325D01*
X93853000Y-120158325D01*
X93853000Y-118792171D01*
X94260749Y-118792171D01*
X94309039Y-119188128D01*
X94433648Y-119567055D01*
X94577375Y-119835948D01*
X94881675Y-119978720D01*
X96115395Y-118745000D01*
X96474605Y-118745000D01*
X97708325Y-119978720D01*
X97995000Y-119844217D01*
X98281675Y-119978720D01*
X99515395Y-118745000D01*
X99874605Y-118745000D01*
X101108325Y-119978720D01*
X101412625Y-119835948D01*
X101592455Y-119479893D01*
X101699366Y-119095598D01*
X101729251Y-118697829D01*
X101680961Y-118301872D01*
X101556352Y-117922945D01*
X101412625Y-117654052D01*
X101108325Y-117511280D01*
X99874605Y-118745000D01*
X99515395Y-118745000D01*
X98281675Y-117511280D01*
X97995000Y-117645783D01*
X97708325Y-117511280D01*
X96474605Y-118745000D01*
X96115395Y-118745000D01*
X94881675Y-117511280D01*
X94577375Y-117654052D01*
X94397545Y-118010107D01*
X94290634Y-118394402D01*
X94260749Y-118792171D01*
X93853000Y-118792171D01*
X93853000Y-117331675D01*
X95061280Y-117331675D01*
X96295000Y-118565395D01*
X97528720Y-117331675D01*
X98461280Y-117331675D01*
X99695000Y-118565395D01*
X100928720Y-117331675D01*
X100785948Y-117027375D01*
X100429893Y-116847545D01*
X100045598Y-116740634D01*
X99647829Y-116710749D01*
X99251872Y-116759039D01*
X98872945Y-116883648D01*
X98604052Y-117027375D01*
X98461280Y-117331675D01*
X97528720Y-117331675D01*
X97385948Y-117027375D01*
X97029893Y-116847545D01*
X96645598Y-116740634D01*
X96247829Y-116710749D01*
X95851872Y-116759039D01*
X95472945Y-116883648D01*
X95204052Y-117027375D01*
X95061280Y-117331675D01*
X93853000Y-117331675D01*
X93853000Y-111124072D01*
X94631000Y-111124072D01*
X94804254Y-111107008D01*
X94970850Y-111056472D01*
X95124386Y-110974405D01*
X95258962Y-110863962D01*
X95369405Y-110729386D01*
X95451472Y-110575850D01*
X95502008Y-110409254D01*
X95519072Y-110236000D01*
X95519072Y-109603000D01*
X95746000Y-109603000D01*
X95746000Y-109863000D01*
X95797389Y-110130760D01*
X95900028Y-110383349D01*
X96049972Y-110611061D01*
X96241460Y-110805145D01*
X96467132Y-110958142D01*
X96718316Y-111064173D01*
X96789815Y-111078318D01*
X97004000Y-110955656D01*
X97004000Y-109603000D01*
X97258000Y-109603000D01*
X97258000Y-110955656D01*
X97472185Y-111078318D01*
X97543684Y-111064173D01*
X97794868Y-110958142D01*
X98020540Y-110805145D01*
X98212028Y-110611061D01*
X98361972Y-110383349D01*
X98464611Y-110130760D01*
X98516000Y-109863000D01*
X98516000Y-109603000D01*
X97258000Y-109603000D01*
X97004000Y-109603000D01*
X95746000Y-109603000D01*
X95519072Y-109603000D01*
X95519072Y-109089000D01*
X95746000Y-109089000D01*
X95746000Y-109349000D01*
X97004000Y-109349000D01*
X97004000Y-107996344D01*
X97258000Y-107996344D01*
X97258000Y-109349000D01*
X98516000Y-109349000D01*
X98516000Y-109089000D01*
X98464611Y-108821240D01*
X98361972Y-108568651D01*
X98212028Y-108340939D01*
X98020540Y-108146855D01*
X97794868Y-107993858D01*
X97543684Y-107887827D01*
X97472185Y-107873682D01*
X97258000Y-107996344D01*
X97004000Y-107996344D01*
X96789815Y-107873682D01*
X96718316Y-107887827D01*
X96467132Y-107993858D01*
X96241460Y-108146855D01*
X96049972Y-108340939D01*
X95900028Y-108568651D01*
X95797389Y-108821240D01*
X95746000Y-109089000D01*
X95519072Y-109089000D01*
X95519072Y-108716000D01*
X95502008Y-108542746D01*
X95451472Y-108376150D01*
X95369405Y-108222614D01*
X95258962Y-108088038D01*
X95124386Y-107977595D01*
X94970850Y-107895528D01*
X94804254Y-107844992D01*
X94631000Y-107827928D01*
X93853000Y-107827928D01*
X93853000Y-106337933D01*
X93972637Y-106516983D01*
X94270017Y-106814363D01*
X94619698Y-107048012D01*
X95008244Y-107208953D01*
X95420721Y-107291000D01*
X95841279Y-107291000D01*
X96253756Y-107208953D01*
X96642302Y-107048012D01*
X96991983Y-106814363D01*
X97289363Y-106516983D01*
X97523012Y-106167302D01*
X97683953Y-105778756D01*
X97766000Y-105366279D01*
X97766000Y-104945721D01*
X97683953Y-104533244D01*
X97523012Y-104144698D01*
X97289363Y-103795017D01*
X96991983Y-103497637D01*
X96642302Y-103263988D01*
X96253756Y-103103047D01*
X95841279Y-103021000D01*
X95420721Y-103021000D01*
X95008244Y-103103047D01*
X94619698Y-103263988D01*
X94270017Y-103497637D01*
X93972637Y-103795017D01*
X93853000Y-103974067D01*
X93853000Y-100380000D01*
X101854000Y-100380000D01*
X101854000Y-122428000D01*
%TA.AperFunction,Conductor*%
D29*
G36*
X101854000Y-122428000D02*
G01*
X93853000Y-122428000D01*
X93853000Y-120158325D01*
X95061280Y-120158325D01*
X95204052Y-120462625D01*
X95560107Y-120642455D01*
X95944402Y-120749366D01*
X96342171Y-120779251D01*
X96738128Y-120730961D01*
X97117055Y-120606352D01*
X97385948Y-120462625D01*
X97528720Y-120158325D01*
X98461280Y-120158325D01*
X98604052Y-120462625D01*
X98960107Y-120642455D01*
X99344402Y-120749366D01*
X99742171Y-120779251D01*
X100138128Y-120730961D01*
X100517055Y-120606352D01*
X100785948Y-120462625D01*
X100928720Y-120158325D01*
X99695000Y-118924605D01*
X98461280Y-120158325D01*
X97528720Y-120158325D01*
X96295000Y-118924605D01*
X95061280Y-120158325D01*
X93853000Y-120158325D01*
X93853000Y-118792171D01*
X94260749Y-118792171D01*
X94309039Y-119188128D01*
X94433648Y-119567055D01*
X94577375Y-119835948D01*
X94881675Y-119978720D01*
X96115395Y-118745000D01*
X96474605Y-118745000D01*
X97708325Y-119978720D01*
X97995000Y-119844217D01*
X98281675Y-119978720D01*
X99515395Y-118745000D01*
X99874605Y-118745000D01*
X101108325Y-119978720D01*
X101412625Y-119835948D01*
X101592455Y-119479893D01*
X101699366Y-119095598D01*
X101729251Y-118697829D01*
X101680961Y-118301872D01*
X101556352Y-117922945D01*
X101412625Y-117654052D01*
X101108325Y-117511280D01*
X99874605Y-118745000D01*
X99515395Y-118745000D01*
X98281675Y-117511280D01*
X97995000Y-117645783D01*
X97708325Y-117511280D01*
X96474605Y-118745000D01*
X96115395Y-118745000D01*
X94881675Y-117511280D01*
X94577375Y-117654052D01*
X94397545Y-118010107D01*
X94290634Y-118394402D01*
X94260749Y-118792171D01*
X93853000Y-118792171D01*
X93853000Y-117331675D01*
X95061280Y-117331675D01*
X96295000Y-118565395D01*
X97528720Y-117331675D01*
X98461280Y-117331675D01*
X99695000Y-118565395D01*
X100928720Y-117331675D01*
X100785948Y-117027375D01*
X100429893Y-116847545D01*
X100045598Y-116740634D01*
X99647829Y-116710749D01*
X99251872Y-116759039D01*
X98872945Y-116883648D01*
X98604052Y-117027375D01*
X98461280Y-117331675D01*
X97528720Y-117331675D01*
X97385948Y-117027375D01*
X97029893Y-116847545D01*
X96645598Y-116740634D01*
X96247829Y-116710749D01*
X95851872Y-116759039D01*
X95472945Y-116883648D01*
X95204052Y-117027375D01*
X95061280Y-117331675D01*
X93853000Y-117331675D01*
X93853000Y-111124072D01*
X94631000Y-111124072D01*
X94804254Y-111107008D01*
X94970850Y-111056472D01*
X95124386Y-110974405D01*
X95258962Y-110863962D01*
X95369405Y-110729386D01*
X95451472Y-110575850D01*
X95502008Y-110409254D01*
X95519072Y-110236000D01*
X95519072Y-109603000D01*
X95746000Y-109603000D01*
X95746000Y-109863000D01*
X95797389Y-110130760D01*
X95900028Y-110383349D01*
X96049972Y-110611061D01*
X96241460Y-110805145D01*
X96467132Y-110958142D01*
X96718316Y-111064173D01*
X96789815Y-111078318D01*
X97004000Y-110955656D01*
X97004000Y-109603000D01*
X97258000Y-109603000D01*
X97258000Y-110955656D01*
X97472185Y-111078318D01*
X97543684Y-111064173D01*
X97794868Y-110958142D01*
X98020540Y-110805145D01*
X98212028Y-110611061D01*
X98361972Y-110383349D01*
X98464611Y-110130760D01*
X98516000Y-109863000D01*
X98516000Y-109603000D01*
X97258000Y-109603000D01*
X97004000Y-109603000D01*
X95746000Y-109603000D01*
X95519072Y-109603000D01*
X95519072Y-109089000D01*
X95746000Y-109089000D01*
X95746000Y-109349000D01*
X97004000Y-109349000D01*
X97004000Y-107996344D01*
X97258000Y-107996344D01*
X97258000Y-109349000D01*
X98516000Y-109349000D01*
X98516000Y-109089000D01*
X98464611Y-108821240D01*
X98361972Y-108568651D01*
X98212028Y-108340939D01*
X98020540Y-108146855D01*
X97794868Y-107993858D01*
X97543684Y-107887827D01*
X97472185Y-107873682D01*
X97258000Y-107996344D01*
X97004000Y-107996344D01*
X96789815Y-107873682D01*
X96718316Y-107887827D01*
X96467132Y-107993858D01*
X96241460Y-108146855D01*
X96049972Y-108340939D01*
X95900028Y-108568651D01*
X95797389Y-108821240D01*
X95746000Y-109089000D01*
X95519072Y-109089000D01*
X95519072Y-108716000D01*
X95502008Y-108542746D01*
X95451472Y-108376150D01*
X95369405Y-108222614D01*
X95258962Y-108088038D01*
X95124386Y-107977595D01*
X94970850Y-107895528D01*
X94804254Y-107844992D01*
X94631000Y-107827928D01*
X93853000Y-107827928D01*
X93853000Y-106337933D01*
X93972637Y-106516983D01*
X94270017Y-106814363D01*
X94619698Y-107048012D01*
X95008244Y-107208953D01*
X95420721Y-107291000D01*
X95841279Y-107291000D01*
X96253756Y-107208953D01*
X96642302Y-107048012D01*
X96991983Y-106814363D01*
X97289363Y-106516983D01*
X97523012Y-106167302D01*
X97683953Y-105778756D01*
X97766000Y-105366279D01*
X97766000Y-104945721D01*
X97683953Y-104533244D01*
X97523012Y-104144698D01*
X97289363Y-103795017D01*
X96991983Y-103497637D01*
X96642302Y-103263988D01*
X96253756Y-103103047D01*
X95841279Y-103021000D01*
X95420721Y-103021000D01*
X95008244Y-103103047D01*
X94619698Y-103263988D01*
X94270017Y-103497637D01*
X93972637Y-103795017D01*
X93853000Y-103974067D01*
X93853000Y-100380000D01*
X101854000Y-100380000D01*
X101854000Y-122428000D01*
G37*
%TD.AperFunction*%
%TD*%
D28*
%TO.N,Net-(F4-Pad1)*%
X112649000Y-114555816D02*
X109102837Y-111009654D01*
X109224868Y-110958142D01*
X109450540Y-110805145D01*
X109642028Y-110611061D01*
X109791972Y-110383349D01*
X109894611Y-110130760D01*
X109946000Y-109863000D01*
X109946000Y-109603000D01*
X108688000Y-109603000D01*
X108688000Y-109623000D01*
X108434000Y-109623000D01*
X108434000Y-109603000D01*
X108414000Y-109603000D01*
X108414000Y-109349000D01*
X108434000Y-109349000D01*
X108434000Y-107996344D01*
X108688000Y-107996344D01*
X108688000Y-109349000D01*
X109946000Y-109349000D01*
X109946000Y-109089000D01*
X109894611Y-108821240D01*
X109791972Y-108568651D01*
X109642028Y-108340939D01*
X109450540Y-108146855D01*
X109224868Y-107993858D01*
X108973684Y-107887827D01*
X108902185Y-107873682D01*
X108688000Y-107996344D01*
X108434000Y-107996344D01*
X108219815Y-107873682D01*
X108148316Y-107887827D01*
X107897132Y-107993858D01*
X107671460Y-108146855D01*
X107479972Y-108340939D01*
X107330028Y-108568651D01*
X107227389Y-108821240D01*
X107176995Y-109083813D01*
X106949072Y-108855890D01*
X106949072Y-108716000D01*
X106932008Y-108542746D01*
X106881472Y-108376150D01*
X106799405Y-108222614D01*
X106688962Y-108088038D01*
X106554386Y-107977595D01*
X106400850Y-107895528D01*
X106234254Y-107844992D01*
X106061000Y-107827928D01*
X105061000Y-107827928D01*
X104887746Y-107844992D01*
X104721150Y-107895528D01*
X104567614Y-107977595D01*
X104433038Y-108088038D01*
X104322595Y-108222614D01*
X104240528Y-108376150D01*
X104189992Y-108542746D01*
X104172928Y-108716000D01*
X104172928Y-109160117D01*
X104161548Y-109197632D01*
X104134131Y-109476000D01*
X104161548Y-109754368D01*
X104172928Y-109791883D01*
X104172928Y-110236000D01*
X104189992Y-110409254D01*
X104240528Y-110575850D01*
X104322595Y-110729386D01*
X104433038Y-110863962D01*
X104567614Y-110974405D01*
X104721150Y-111056472D01*
X104887746Y-111107008D01*
X105061000Y-111124072D01*
X105200890Y-111124072D01*
X112649000Y-118572184D01*
X112649000Y-122428000D01*
X103378000Y-122428000D01*
X103378000Y-120158325D01*
X103951280Y-120158325D01*
X104094052Y-120462625D01*
X104450107Y-120642455D01*
X104834402Y-120749366D01*
X105232171Y-120779251D01*
X105628128Y-120730961D01*
X106007055Y-120606352D01*
X106275948Y-120462625D01*
X106418720Y-120158325D01*
X107351280Y-120158325D01*
X107494052Y-120462625D01*
X107850107Y-120642455D01*
X108234402Y-120749366D01*
X108632171Y-120779251D01*
X109028128Y-120730961D01*
X109407055Y-120606352D01*
X109675948Y-120462625D01*
X109818720Y-120158325D01*
X108585000Y-118924605D01*
X107351280Y-120158325D01*
X106418720Y-120158325D01*
X105185000Y-118924605D01*
X103951280Y-120158325D01*
X103378000Y-120158325D01*
X103378000Y-119668740D01*
X103467375Y-119835948D01*
X103771675Y-119978720D01*
X105005395Y-118745000D01*
X105364605Y-118745000D01*
X106598325Y-119978720D01*
X106885000Y-119844217D01*
X107171675Y-119978720D01*
X108405395Y-118745000D01*
X108764605Y-118745000D01*
X109998325Y-119978720D01*
X110302625Y-119835948D01*
X110482455Y-119479893D01*
X110589366Y-119095598D01*
X110619251Y-118697829D01*
X110570961Y-118301872D01*
X110446352Y-117922945D01*
X110302625Y-117654052D01*
X109998325Y-117511280D01*
X108764605Y-118745000D01*
X108405395Y-118745000D01*
X107171675Y-117511280D01*
X106885000Y-117645783D01*
X106598325Y-117511280D01*
X105364605Y-118745000D01*
X105005395Y-118745000D01*
X103771675Y-117511280D01*
X103467375Y-117654052D01*
X103378000Y-117831010D01*
X103378000Y-117331675D01*
X103951280Y-117331675D01*
X105185000Y-118565395D01*
X106418720Y-117331675D01*
X107351280Y-117331675D01*
X108585000Y-118565395D01*
X109818720Y-117331675D01*
X109675948Y-117027375D01*
X109319893Y-116847545D01*
X108935598Y-116740634D01*
X108537829Y-116710749D01*
X108141872Y-116759039D01*
X107762945Y-116883648D01*
X107494052Y-117027375D01*
X107351280Y-117331675D01*
X106418720Y-117331675D01*
X106275948Y-117027375D01*
X105919893Y-116847545D01*
X105535598Y-116740634D01*
X105137829Y-116710749D01*
X104741872Y-116759039D01*
X104362945Y-116883648D01*
X104094052Y-117027375D01*
X103951280Y-117331675D01*
X103378000Y-117331675D01*
X103378000Y-104945721D01*
X104926000Y-104945721D01*
X104926000Y-105366279D01*
X105008047Y-105778756D01*
X105168988Y-106167302D01*
X105402637Y-106516983D01*
X105700017Y-106814363D01*
X106049698Y-107048012D01*
X106438244Y-107208953D01*
X106850721Y-107291000D01*
X107271279Y-107291000D01*
X107683756Y-107208953D01*
X108072302Y-107048012D01*
X108421983Y-106814363D01*
X108719363Y-106516983D01*
X108953012Y-106167302D01*
X109113953Y-105778756D01*
X109196000Y-105366279D01*
X109196000Y-104945721D01*
X109113953Y-104533244D01*
X108953012Y-104144698D01*
X108719363Y-103795017D01*
X108421983Y-103497637D01*
X108072302Y-103263988D01*
X107683756Y-103103047D01*
X107271279Y-103021000D01*
X106850721Y-103021000D01*
X106438244Y-103103047D01*
X106049698Y-103263988D01*
X105700017Y-103497637D01*
X105402637Y-103795017D01*
X105168988Y-104144698D01*
X105008047Y-104533244D01*
X104926000Y-104945721D01*
X103378000Y-104945721D01*
X103378000Y-100380000D01*
X112649000Y-100380000D01*
X112649000Y-114555816D01*
%TA.AperFunction,Conductor*%
D29*
G36*
X112649000Y-114555816D02*
G01*
X109102837Y-111009654D01*
X109224868Y-110958142D01*
X109450540Y-110805145D01*
X109642028Y-110611061D01*
X109791972Y-110383349D01*
X109894611Y-110130760D01*
X109946000Y-109863000D01*
X109946000Y-109603000D01*
X108688000Y-109603000D01*
X108688000Y-109623000D01*
X108434000Y-109623000D01*
X108434000Y-109603000D01*
X108414000Y-109603000D01*
X108414000Y-109349000D01*
X108434000Y-109349000D01*
X108434000Y-107996344D01*
X108688000Y-107996344D01*
X108688000Y-109349000D01*
X109946000Y-109349000D01*
X109946000Y-109089000D01*
X109894611Y-108821240D01*
X109791972Y-108568651D01*
X109642028Y-108340939D01*
X109450540Y-108146855D01*
X109224868Y-107993858D01*
X108973684Y-107887827D01*
X108902185Y-107873682D01*
X108688000Y-107996344D01*
X108434000Y-107996344D01*
X108219815Y-107873682D01*
X108148316Y-107887827D01*
X107897132Y-107993858D01*
X107671460Y-108146855D01*
X107479972Y-108340939D01*
X107330028Y-108568651D01*
X107227389Y-108821240D01*
X107176995Y-109083813D01*
X106949072Y-108855890D01*
X106949072Y-108716000D01*
X106932008Y-108542746D01*
X106881472Y-108376150D01*
X106799405Y-108222614D01*
X106688962Y-108088038D01*
X106554386Y-107977595D01*
X106400850Y-107895528D01*
X106234254Y-107844992D01*
X106061000Y-107827928D01*
X105061000Y-107827928D01*
X104887746Y-107844992D01*
X104721150Y-107895528D01*
X104567614Y-107977595D01*
X104433038Y-108088038D01*
X104322595Y-108222614D01*
X104240528Y-108376150D01*
X104189992Y-108542746D01*
X104172928Y-108716000D01*
X104172928Y-109160117D01*
X104161548Y-109197632D01*
X104134131Y-109476000D01*
X104161548Y-109754368D01*
X104172928Y-109791883D01*
X104172928Y-110236000D01*
X104189992Y-110409254D01*
X104240528Y-110575850D01*
X104322595Y-110729386D01*
X104433038Y-110863962D01*
X104567614Y-110974405D01*
X104721150Y-111056472D01*
X104887746Y-111107008D01*
X105061000Y-111124072D01*
X105200890Y-111124072D01*
X112649000Y-118572184D01*
X112649000Y-122428000D01*
X103378000Y-122428000D01*
X103378000Y-120158325D01*
X103951280Y-120158325D01*
X104094052Y-120462625D01*
X104450107Y-120642455D01*
X104834402Y-120749366D01*
X105232171Y-120779251D01*
X105628128Y-120730961D01*
X106007055Y-120606352D01*
X106275948Y-120462625D01*
X106418720Y-120158325D01*
X107351280Y-120158325D01*
X107494052Y-120462625D01*
X107850107Y-120642455D01*
X108234402Y-120749366D01*
X108632171Y-120779251D01*
X109028128Y-120730961D01*
X109407055Y-120606352D01*
X109675948Y-120462625D01*
X109818720Y-120158325D01*
X108585000Y-118924605D01*
X107351280Y-120158325D01*
X106418720Y-120158325D01*
X105185000Y-118924605D01*
X103951280Y-120158325D01*
X103378000Y-120158325D01*
X103378000Y-119668740D01*
X103467375Y-119835948D01*
X103771675Y-119978720D01*
X105005395Y-118745000D01*
X105364605Y-118745000D01*
X106598325Y-119978720D01*
X106885000Y-119844217D01*
X107171675Y-119978720D01*
X108405395Y-118745000D01*
X108764605Y-118745000D01*
X109998325Y-119978720D01*
X110302625Y-119835948D01*
X110482455Y-119479893D01*
X110589366Y-119095598D01*
X110619251Y-118697829D01*
X110570961Y-118301872D01*
X110446352Y-117922945D01*
X110302625Y-117654052D01*
X109998325Y-117511280D01*
X108764605Y-118745000D01*
X108405395Y-118745000D01*
X107171675Y-117511280D01*
X106885000Y-117645783D01*
X106598325Y-117511280D01*
X105364605Y-118745000D01*
X105005395Y-118745000D01*
X103771675Y-117511280D01*
X103467375Y-117654052D01*
X103378000Y-117831010D01*
X103378000Y-117331675D01*
X103951280Y-117331675D01*
X105185000Y-118565395D01*
X106418720Y-117331675D01*
X107351280Y-117331675D01*
X108585000Y-118565395D01*
X109818720Y-117331675D01*
X109675948Y-117027375D01*
X109319893Y-116847545D01*
X108935598Y-116740634D01*
X108537829Y-116710749D01*
X108141872Y-116759039D01*
X107762945Y-116883648D01*
X107494052Y-117027375D01*
X107351280Y-117331675D01*
X106418720Y-117331675D01*
X106275948Y-117027375D01*
X105919893Y-116847545D01*
X105535598Y-116740634D01*
X105137829Y-116710749D01*
X104741872Y-116759039D01*
X104362945Y-116883648D01*
X104094052Y-117027375D01*
X103951280Y-117331675D01*
X103378000Y-117331675D01*
X103378000Y-104945721D01*
X104926000Y-104945721D01*
X104926000Y-105366279D01*
X105008047Y-105778756D01*
X105168988Y-106167302D01*
X105402637Y-106516983D01*
X105700017Y-106814363D01*
X106049698Y-107048012D01*
X106438244Y-107208953D01*
X106850721Y-107291000D01*
X107271279Y-107291000D01*
X107683756Y-107208953D01*
X108072302Y-107048012D01*
X108421983Y-106814363D01*
X108719363Y-106516983D01*
X108953012Y-106167302D01*
X109113953Y-105778756D01*
X109196000Y-105366279D01*
X109196000Y-104945721D01*
X109113953Y-104533244D01*
X108953012Y-104144698D01*
X108719363Y-103795017D01*
X108421983Y-103497637D01*
X108072302Y-103263988D01*
X107683756Y-103103047D01*
X107271279Y-103021000D01*
X106850721Y-103021000D01*
X106438244Y-103103047D01*
X106049698Y-103263988D01*
X105700017Y-103497637D01*
X105402637Y-103795017D01*
X105168988Y-104144698D01*
X105008047Y-104533244D01*
X104926000Y-104945721D01*
X103378000Y-104945721D01*
X103378000Y-100380000D01*
X112649000Y-100380000D01*
X112649000Y-114555816D01*
G37*
%TD.AperFunction*%
%TD*%
D28*
%TO.N,+12V*%
X114083928Y-124654142D02*
X110557409Y-128180661D01*
X110446352Y-127842945D01*
X110302625Y-127574052D01*
X109998325Y-127431280D01*
X108764605Y-128665000D01*
X108778748Y-128679143D01*
X108599143Y-128858748D01*
X108585000Y-128844605D01*
X107351280Y-130078325D01*
X107494052Y-130382625D01*
X107850107Y-130562455D01*
X108104769Y-130633302D01*
X104869143Y-133868928D01*
X104397000Y-133868928D01*
X104223746Y-133885992D01*
X104057150Y-133936528D01*
X103903614Y-134018595D01*
X103769038Y-134129038D01*
X103658595Y-134263614D01*
X103576528Y-134417150D01*
X103525992Y-134583746D01*
X103508928Y-134757000D01*
X103508928Y-135039941D01*
X103424860Y-135124009D01*
X103381552Y-135159551D01*
X103239717Y-135332377D01*
X103213193Y-135382000D01*
X103134324Y-135529554D01*
X103069423Y-135743502D01*
X103047509Y-135966000D01*
X103053001Y-136021761D01*
X103053000Y-139147814D01*
X103030843Y-139174812D01*
X102902236Y-139415419D01*
X102823040Y-139676493D01*
X102803000Y-139879963D01*
X102803000Y-140536036D01*
X102823040Y-140739506D01*
X102902236Y-141000580D01*
X103030843Y-141241187D01*
X103203919Y-141452080D01*
X103414812Y-141625157D01*
X103655419Y-141753764D01*
X103916493Y-141832960D01*
X104188000Y-141859701D01*
X104459506Y-141832960D01*
X104720580Y-141753764D01*
X104961187Y-141625157D01*
X105172080Y-141452081D01*
X105345157Y-141241188D01*
X105357551Y-141218000D01*
X105799928Y-141218000D01*
X105812188Y-141342482D01*
X105848498Y-141462180D01*
X105907463Y-141572494D01*
X105986815Y-141669185D01*
X106083506Y-141748537D01*
X106193820Y-141807502D01*
X106313518Y-141843812D01*
X106438000Y-141856072D01*
X106902250Y-141853000D01*
X107061000Y-141694250D01*
X107061000Y-140335000D01*
X107315000Y-140335000D01*
X107315000Y-141694250D01*
X107473750Y-141853000D01*
X107938000Y-141856072D01*
X108062482Y-141843812D01*
X108182180Y-141807502D01*
X108292494Y-141748537D01*
X108389185Y-141669185D01*
X108468537Y-141572494D01*
X108527502Y-141462180D01*
X108563812Y-141342482D01*
X108576072Y-141218000D01*
X108573000Y-140493750D01*
X108414250Y-140335000D01*
X107315000Y-140335000D01*
X107061000Y-140335000D01*
X105961750Y-140335000D01*
X105803000Y-140493750D01*
X105799928Y-141218000D01*
X105357551Y-141218000D01*
X105473764Y-141000581D01*
X105552960Y-140739507D01*
X105573000Y-140536037D01*
X105573000Y-139879964D01*
X105552960Y-139676494D01*
X105473764Y-139415419D01*
X105357552Y-139198000D01*
X105799928Y-139198000D01*
X105803000Y-139922250D01*
X105961750Y-140081000D01*
X107061000Y-140081000D01*
X107061000Y-138721750D01*
X107315000Y-138721750D01*
X107315000Y-140081000D01*
X108414250Y-140081000D01*
X108573000Y-139922250D01*
X108576072Y-139198000D01*
X108563812Y-139073518D01*
X108527502Y-138953820D01*
X108468537Y-138843506D01*
X108389185Y-138746815D01*
X108292494Y-138667463D01*
X108182180Y-138608498D01*
X108062482Y-138572188D01*
X107938000Y-138559928D01*
X107473750Y-138563000D01*
X107315000Y-138721750D01*
X107061000Y-138721750D01*
X106902250Y-138563000D01*
X106438000Y-138559928D01*
X106313518Y-138572188D01*
X106193820Y-138608498D01*
X106083506Y-138667463D01*
X105986815Y-138746815D01*
X105907463Y-138843506D01*
X105848498Y-138953820D01*
X105812188Y-139073518D01*
X105799928Y-139198000D01*
X105357552Y-139198000D01*
X105345157Y-139174812D01*
X105323000Y-139147814D01*
X105323000Y-136877175D01*
X105486850Y-136827472D01*
X105640386Y-136745405D01*
X105774962Y-136634962D01*
X105885405Y-136500386D01*
X105967472Y-136346850D01*
X106018008Y-136180254D01*
X106035072Y-136007000D01*
X106035072Y-135913261D01*
X106308928Y-135639405D01*
X106308928Y-136007000D01*
X106325992Y-136180254D01*
X106376528Y-136346850D01*
X106458595Y-136500386D01*
X106569038Y-136634962D01*
X106703614Y-136745405D01*
X106857150Y-136827472D01*
X107023746Y-136878008D01*
X107197000Y-136895072D01*
X107947000Y-136895072D01*
X108120254Y-136878008D01*
X108286850Y-136827472D01*
X108440386Y-136745405D01*
X108574962Y-136634962D01*
X108671770Y-136517000D01*
X110626749Y-136517000D01*
X110682500Y-136522491D01*
X110738251Y-136517000D01*
X110738252Y-136517000D01*
X110904999Y-136500577D01*
X111118947Y-136435676D01*
X111316123Y-136330284D01*
X111488949Y-136188449D01*
X111524496Y-136145135D01*
X115974560Y-131695072D01*
X116195001Y-131695072D01*
X116368255Y-131678008D01*
X116534851Y-131627472D01*
X116688387Y-131545405D01*
X116822962Y-131434962D01*
X116933405Y-131300387D01*
X117015472Y-131146851D01*
X117066008Y-130980255D01*
X117083072Y-130807001D01*
X117083072Y-130181999D01*
X117076539Y-130115671D01*
X117358928Y-130398060D01*
X117358928Y-130618501D01*
X117375992Y-130791755D01*
X117426528Y-130958351D01*
X117508595Y-131111887D01*
X117619038Y-131246462D01*
X117753613Y-131356905D01*
X117907149Y-131438972D01*
X118073745Y-131489508D01*
X118246999Y-131506572D01*
X119497001Y-131506572D01*
X119670255Y-131489508D01*
X119836851Y-131438972D01*
X119837643Y-131438548D01*
X119979499Y-131424577D01*
X120193447Y-131359676D01*
X120390623Y-131254284D01*
X120563449Y-131112449D01*
X120598996Y-131069135D01*
X121609737Y-130058395D01*
X121690369Y-130050453D01*
X121958040Y-129969256D01*
X122204726Y-129837399D01*
X122420949Y-129659949D01*
X122598399Y-129443726D01*
X122730256Y-129197040D01*
X122811453Y-128929369D01*
X122817000Y-128873047D01*
X122817000Y-132374229D01*
X122699038Y-132471038D01*
X122588595Y-132605613D01*
X122506528Y-132759149D01*
X122455992Y-132925745D01*
X122438928Y-133098999D01*
X122438928Y-133218297D01*
X122010486Y-132789855D01*
X121974939Y-132746541D01*
X121802113Y-132604706D01*
X121604937Y-132499314D01*
X121390989Y-132434413D01*
X121224242Y-132417990D01*
X121224241Y-132417990D01*
X121168490Y-132412499D01*
X121112739Y-132417990D01*
X118086762Y-132417990D01*
X118031010Y-132412499D01*
X117808511Y-132434413D01*
X117594563Y-132499314D01*
X117397387Y-132604706D01*
X117267866Y-132711001D01*
X117267865Y-132711002D01*
X117224561Y-132746541D01*
X117189023Y-132789844D01*
X116363940Y-133614928D01*
X116081000Y-133614928D01*
X115907746Y-133631992D01*
X115741150Y-133682528D01*
X115587614Y-133764595D01*
X115453038Y-133875038D01*
X115342595Y-134009614D01*
X115260528Y-134163150D01*
X115209992Y-134329746D01*
X115192928Y-134503000D01*
X115192928Y-135753000D01*
X115209992Y-135926254D01*
X115260528Y-136092850D01*
X115342595Y-136246386D01*
X115453038Y-136380962D01*
X115587614Y-136491405D01*
X115741150Y-136573472D01*
X115907746Y-136624008D01*
X116081000Y-136641072D01*
X116137797Y-136641072D01*
X115362860Y-137416009D01*
X115319552Y-137451551D01*
X115177717Y-137624377D01*
X115150156Y-137675941D01*
X115072324Y-137821554D01*
X115007423Y-138035502D01*
X114985509Y-138258000D01*
X114991001Y-138313761D01*
X114991001Y-139147813D01*
X114968843Y-139174812D01*
X114840236Y-139415419D01*
X114761040Y-139676493D01*
X114741000Y-139879963D01*
X114741000Y-140536036D01*
X114761040Y-140739506D01*
X114840236Y-141000580D01*
X114968843Y-141241187D01*
X115141919Y-141452080D01*
X115352812Y-141625157D01*
X115593419Y-141753764D01*
X115854493Y-141832960D01*
X116126000Y-141859701D01*
X116397506Y-141832960D01*
X116658580Y-141753764D01*
X116899187Y-141625157D01*
X117110080Y-141452081D01*
X117283157Y-141241188D01*
X117411764Y-141000581D01*
X117490960Y-140739507D01*
X117511000Y-140536037D01*
X117511000Y-139879964D01*
X117490960Y-139676494D01*
X117411764Y-139415419D01*
X117283157Y-139174812D01*
X117261000Y-139147814D01*
X117261000Y-138728131D01*
X119348060Y-136641072D01*
X119631000Y-136641072D01*
X119804254Y-136624008D01*
X119970850Y-136573472D01*
X120124386Y-136491405D01*
X120258962Y-136380962D01*
X120369405Y-136246386D01*
X120451472Y-136092850D01*
X120502008Y-135926254D01*
X120519072Y-135753000D01*
X120519072Y-134687990D01*
X120698359Y-134687990D01*
X122438928Y-136428560D01*
X122438928Y-136649001D01*
X122455992Y-136822255D01*
X122506528Y-136988851D01*
X122588595Y-137142387D01*
X122699038Y-137276962D01*
X122833613Y-137387405D01*
X122987149Y-137469472D01*
X123153745Y-137520008D01*
X123326999Y-137537072D01*
X123427316Y-137537072D01*
X121891389Y-139073000D01*
X120427684Y-139073000D01*
X120364405Y-138954614D01*
X120253962Y-138820038D01*
X120119386Y-138709595D01*
X119965850Y-138627528D01*
X119799254Y-138576992D01*
X119626000Y-138559928D01*
X118626000Y-138559928D01*
X118452746Y-138576992D01*
X118286150Y-138627528D01*
X118132614Y-138709595D01*
X117998038Y-138820038D01*
X117887595Y-138954614D01*
X117805528Y-139108150D01*
X117754992Y-139274746D01*
X117737928Y-139448000D01*
X117737928Y-140968000D01*
X117754992Y-141141254D01*
X117805528Y-141307850D01*
X117887595Y-141461386D01*
X117998038Y-141595962D01*
X118132614Y-141706405D01*
X118286150Y-141788472D01*
X118452746Y-141839008D01*
X118626000Y-141856072D01*
X119626000Y-141856072D01*
X119799254Y-141839008D01*
X119965850Y-141788472D01*
X120119386Y-141706405D01*
X120253962Y-141595962D01*
X120364405Y-141461386D01*
X120427684Y-141343000D01*
X122305769Y-141343000D01*
X122361520Y-141348491D01*
X122417271Y-141343000D01*
X122417272Y-141343000D01*
X122584019Y-141326577D01*
X122797967Y-141261676D01*
X122995143Y-141156284D01*
X123167969Y-141014449D01*
X123203516Y-140971135D01*
X126290151Y-137884501D01*
X126333459Y-137848959D01*
X126475294Y-137676133D01*
X126580686Y-137478957D01*
X126645587Y-137265009D01*
X126662010Y-137098262D01*
X126662010Y-137098261D01*
X126667501Y-137042510D01*
X126662010Y-136986758D01*
X126662010Y-123952000D01*
X131776000Y-123952000D01*
X131776001Y-146016485D01*
X131713262Y-146656343D01*
X131537168Y-147239595D01*
X131251143Y-147777531D01*
X130866078Y-148249667D01*
X130396641Y-148638019D01*
X129860714Y-148927794D01*
X129278705Y-149107956D01*
X128640811Y-149175000D01*
X49403000Y-149175000D01*
X49403000Y-141657606D01*
X51660466Y-139400140D01*
X51741000Y-139408072D01*
X52473941Y-139408072D01*
X54037009Y-140971141D01*
X54072551Y-141014449D01*
X54245377Y-141156284D01*
X54442553Y-141261676D01*
X54656501Y-141326577D01*
X54823248Y-141343000D01*
X54823257Y-141343000D01*
X54878999Y-141348490D01*
X54934741Y-141343000D01*
X66157399Y-141343000D01*
X66246919Y-141452080D01*
X66457812Y-141625157D01*
X66698419Y-141753764D01*
X66959493Y-141832960D01*
X67231000Y-141859701D01*
X67273394Y-141855526D01*
X67955983Y-142538115D01*
X67719698Y-142635988D01*
X67370017Y-142869637D01*
X67072637Y-143167017D01*
X66838988Y-143516698D01*
X66678047Y-143905244D01*
X66596000Y-144317721D01*
X66596000Y-144738279D01*
X66678047Y-145150756D01*
X66838988Y-145539302D01*
X67072637Y-145888983D01*
X67370017Y-146186363D01*
X67719698Y-146420012D01*
X68108244Y-146580953D01*
X68520721Y-146663000D01*
X68941279Y-146663000D01*
X69353756Y-146580953D01*
X69742302Y-146420012D01*
X70091983Y-146186363D01*
X70389363Y-145888983D01*
X70623012Y-145539302D01*
X70783953Y-145150756D01*
X70866000Y-144738279D01*
X70866000Y-144317721D01*
X70783953Y-143905244D01*
X70623012Y-143516698D01*
X70389363Y-143167017D01*
X70275356Y-143053010D01*
X78846644Y-143053010D01*
X78732637Y-143167017D01*
X78498988Y-143516698D01*
X78338047Y-143905244D01*
X78256000Y-144317721D01*
X78256000Y-144738279D01*
X78338047Y-145150756D01*
X78498988Y-145539302D01*
X78732637Y-145888983D01*
X79030017Y-146186363D01*
X79379698Y-146420012D01*
X79768244Y-146580953D01*
X80180721Y-146663000D01*
X80601279Y-146663000D01*
X81013756Y-146580953D01*
X81402302Y-146420012D01*
X81751983Y-146186363D01*
X82049363Y-145888983D01*
X82283012Y-145539302D01*
X82443953Y-145150756D01*
X82526000Y-144738279D01*
X82526000Y-144317721D01*
X89710000Y-144317721D01*
X89710000Y-144738279D01*
X89792047Y-145150756D01*
X89952988Y-145539302D01*
X90186637Y-145888983D01*
X90484017Y-146186363D01*
X90833698Y-146420012D01*
X91222244Y-146580953D01*
X91634721Y-146663000D01*
X92055279Y-146663000D01*
X92467756Y-146580953D01*
X92856302Y-146420012D01*
X93205983Y-146186363D01*
X93503363Y-145888983D01*
X93737012Y-145539302D01*
X93897953Y-145150756D01*
X93980000Y-144738279D01*
X93980000Y-144317721D01*
X103553000Y-144317721D01*
X103553000Y-144738279D01*
X103635047Y-145150756D01*
X103795988Y-145539302D01*
X104029637Y-145888983D01*
X104327017Y-146186363D01*
X104676698Y-146420012D01*
X105065244Y-146580953D01*
X105477721Y-146663000D01*
X105898279Y-146663000D01*
X106310756Y-146580953D01*
X106699302Y-146420012D01*
X107048983Y-146186363D01*
X107346363Y-145888983D01*
X107580012Y-145539302D01*
X107740953Y-145150756D01*
X107823000Y-144738279D01*
X107823000Y-144317721D01*
X115491000Y-144317721D01*
X115491000Y-144738279D01*
X115573047Y-145150756D01*
X115733988Y-145539302D01*
X115967637Y-145888983D01*
X116265017Y-146186363D01*
X116614698Y-146420012D01*
X117003244Y-146580953D01*
X117415721Y-146663000D01*
X117836279Y-146663000D01*
X118248756Y-146580953D01*
X118637302Y-146420012D01*
X118986983Y-146186363D01*
X119284363Y-145888983D01*
X119518012Y-145539302D01*
X119676998Y-145155475D01*
X125381000Y-145155475D01*
X125381000Y-145674525D01*
X125482261Y-146183601D01*
X125680893Y-146663141D01*
X125969262Y-147094715D01*
X126336285Y-147461738D01*
X126767859Y-147750107D01*
X127247399Y-147948739D01*
X127756475Y-148050000D01*
X128275525Y-148050000D01*
X128784601Y-147948739D01*
X129264141Y-147750107D01*
X129695715Y-147461738D01*
X130062738Y-147094715D01*
X130351107Y-146663141D01*
X130549739Y-146183601D01*
X130651000Y-145674525D01*
X130651000Y-145155475D01*
X130549739Y-144646399D01*
X130351107Y-144166859D01*
X130062738Y-143735285D01*
X129695715Y-143368262D01*
X129264141Y-143079893D01*
X128784601Y-142881261D01*
X128275525Y-142780000D01*
X127756475Y-142780000D01*
X127247399Y-142881261D01*
X126767859Y-143079893D01*
X126336285Y-143368262D01*
X125969262Y-143735285D01*
X125680893Y-144166859D01*
X125482261Y-144646399D01*
X125381000Y-145155475D01*
X119676998Y-145155475D01*
X119678953Y-145150756D01*
X119761000Y-144738279D01*
X119761000Y-144317721D01*
X119678953Y-143905244D01*
X119518012Y-143516698D01*
X119284363Y-143167017D01*
X118986983Y-142869637D01*
X118637302Y-142635988D01*
X118248756Y-142475047D01*
X117836279Y-142393000D01*
X117415721Y-142393000D01*
X117003244Y-142475047D01*
X116614698Y-142635988D01*
X116265017Y-142869637D01*
X115967637Y-143167017D01*
X115733988Y-143516698D01*
X115573047Y-143905244D01*
X115491000Y-144317721D01*
X107823000Y-144317721D01*
X107740953Y-143905244D01*
X107580012Y-143516698D01*
X107346363Y-143167017D01*
X107048983Y-142869637D01*
X106699302Y-142635988D01*
X106310756Y-142475047D01*
X105898279Y-142393000D01*
X105477721Y-142393000D01*
X105065244Y-142475047D01*
X104676698Y-142635988D01*
X104327017Y-142869637D01*
X104029637Y-143167017D01*
X103795988Y-143516698D01*
X103635047Y-143905244D01*
X103553000Y-144317721D01*
X93980000Y-144317721D01*
X93897953Y-143905244D01*
X93737012Y-143516698D01*
X93503363Y-143167017D01*
X93205983Y-142869637D01*
X92856302Y-142635988D01*
X92467756Y-142475047D01*
X92055279Y-142393000D01*
X91634721Y-142393000D01*
X91222244Y-142475047D01*
X90833698Y-142635988D01*
X90484017Y-142869637D01*
X90186637Y-143167017D01*
X89952988Y-143516698D01*
X89792047Y-143905244D01*
X89710000Y-144317721D01*
X82526000Y-144317721D01*
X82443953Y-143905244D01*
X82283012Y-143516698D01*
X82049363Y-143167017D01*
X81751983Y-142869637D01*
X81402302Y-142635988D01*
X81013756Y-142475047D01*
X80618357Y-142396397D01*
X81104150Y-141910605D01*
X81147459Y-141875062D01*
X81185160Y-141829123D01*
X81217746Y-141839008D01*
X81391000Y-141856072D01*
X82391000Y-141856072D01*
X82564254Y-141839008D01*
X82730850Y-141788472D01*
X82884386Y-141706405D01*
X83018962Y-141595962D01*
X83129405Y-141461386D01*
X83192684Y-141343000D01*
X89271399Y-141343000D01*
X89360919Y-141452080D01*
X89571812Y-141625157D01*
X89812419Y-141753764D01*
X90073493Y-141832960D01*
X90345000Y-141859701D01*
X90616506Y-141832960D01*
X90877580Y-141753764D01*
X91118187Y-141625157D01*
X91329080Y-141452081D01*
X91502157Y-141241188D01*
X91514551Y-141218000D01*
X91956928Y-141218000D01*
X91969188Y-141342482D01*
X92005498Y-141462180D01*
X92064463Y-141572494D01*
X92143815Y-141669185D01*
X92240506Y-141748537D01*
X92350820Y-141807502D01*
X92470518Y-141843812D01*
X92595000Y-141856072D01*
X93059250Y-141853000D01*
X93218000Y-141694250D01*
X93218000Y-140335000D01*
X93472000Y-140335000D01*
X93472000Y-141694250D01*
X93630750Y-141853000D01*
X94095000Y-141856072D01*
X94219482Y-141843812D01*
X94339180Y-141807502D01*
X94449494Y-141748537D01*
X94546185Y-141669185D01*
X94625537Y-141572494D01*
X94684502Y-141462180D01*
X94720812Y-141342482D01*
X94733072Y-141218000D01*
X94730000Y-140493750D01*
X94571250Y-140335000D01*
X93472000Y-140335000D01*
X93218000Y-140335000D01*
X92118750Y-140335000D01*
X91960000Y-140493750D01*
X91956928Y-141218000D01*
X91514551Y-141218000D01*
X91630764Y-141000581D01*
X91709960Y-140739507D01*
X91730000Y-140536037D01*
X91730000Y-139879964D01*
X91709960Y-139676494D01*
X91630764Y-139415419D01*
X91514552Y-139198000D01*
X91956928Y-139198000D01*
X91960000Y-139922250D01*
X92118750Y-140081000D01*
X93218000Y-140081000D01*
X93218000Y-138721750D01*
X93472000Y-138721750D01*
X93472000Y-140081000D01*
X94571250Y-140081000D01*
X94730000Y-139922250D01*
X94733072Y-139198000D01*
X94720812Y-139073518D01*
X94684502Y-138953820D01*
X94625537Y-138843506D01*
X94546185Y-138746815D01*
X94449494Y-138667463D01*
X94339180Y-138608498D01*
X94219482Y-138572188D01*
X94095000Y-138559928D01*
X93630750Y-138563000D01*
X93472000Y-138721750D01*
X93218000Y-138721750D01*
X93059250Y-138563000D01*
X92595000Y-138559928D01*
X92470518Y-138572188D01*
X92350820Y-138608498D01*
X92240506Y-138667463D01*
X92143815Y-138746815D01*
X92064463Y-138843506D01*
X92005498Y-138953820D01*
X91969188Y-139073518D01*
X91956928Y-139198000D01*
X91514552Y-139198000D01*
X91502157Y-139174812D01*
X91329081Y-138963919D01*
X91118188Y-138790843D01*
X90877581Y-138662236D01*
X90616507Y-138583040D01*
X90345000Y-138556299D01*
X90073494Y-138583040D01*
X89812420Y-138662236D01*
X89571813Y-138790843D01*
X89360920Y-138963919D01*
X89271399Y-139073000D01*
X83192684Y-139073000D01*
X83129405Y-138954614D01*
X83018962Y-138820038D01*
X82884386Y-138709595D01*
X82730850Y-138627528D01*
X82564254Y-138576992D01*
X82391000Y-138559928D01*
X81476010Y-138559928D01*
X81476010Y-137299121D01*
X81880060Y-136895072D01*
X82163000Y-136895072D01*
X82336254Y-136878008D01*
X82502850Y-136827472D01*
X82656386Y-136745405D01*
X82790962Y-136634962D01*
X82901405Y-136500386D01*
X82983472Y-136346850D01*
X83034008Y-136180254D01*
X83051072Y-136007000D01*
X83051072Y-134757000D01*
X83034008Y-134583746D01*
X82983472Y-134417150D01*
X82901405Y-134263614D01*
X82790962Y-134129038D01*
X82656386Y-134018595D01*
X82502850Y-133936528D01*
X82336254Y-133885992D01*
X82163000Y-133868928D01*
X81413000Y-133868928D01*
X81239746Y-133885992D01*
X81073150Y-133936528D01*
X80919614Y-134018595D01*
X80785038Y-134129038D01*
X80674595Y-134263614D01*
X80592528Y-134417150D01*
X80541992Y-134583746D01*
X80524928Y-134757000D01*
X80524928Y-135039940D01*
X80251072Y-135313797D01*
X80251072Y-134757000D01*
X80234008Y-134583746D01*
X80183472Y-134417150D01*
X80101405Y-134263614D01*
X79990962Y-134129038D01*
X79856386Y-134018595D01*
X79702850Y-133936528D01*
X79536254Y-133885992D01*
X79363000Y-133868928D01*
X78613000Y-133868928D01*
X78439746Y-133885992D01*
X78273150Y-133936528D01*
X78119614Y-134018595D01*
X77985038Y-134129038D01*
X77874595Y-134263614D01*
X77792528Y-134417150D01*
X77741992Y-134583746D01*
X77724928Y-134757000D01*
X77724928Y-135914940D01*
X77360869Y-136279000D01*
X59649771Y-136279000D01*
X59552962Y-136161038D01*
X59418387Y-136050595D01*
X59324785Y-136000564D01*
X59356887Y-135983405D01*
X59491462Y-135872962D01*
X59601905Y-135738387D01*
X59683972Y-135584851D01*
X59734508Y-135418255D01*
X59734733Y-135415975D01*
X59737399Y-135412726D01*
X59869256Y-135166040D01*
X59950453Y-134898369D01*
X59971000Y-134689751D01*
X59971000Y-133804741D01*
X59977869Y-133734999D01*
X59971000Y-133665257D01*
X59971000Y-133665248D01*
X59950453Y-133456631D01*
X59869256Y-133188960D01*
X59821171Y-133098999D01*
X59737399Y-132942273D01*
X59604413Y-132780230D01*
X59604407Y-132780224D01*
X59559948Y-132726051D01*
X59505776Y-132681593D01*
X57314415Y-130490233D01*
X57269949Y-130436051D01*
X57196000Y-130375362D01*
X57196000Y-130078325D01*
X68391280Y-130078325D01*
X68534052Y-130382625D01*
X68890107Y-130562455D01*
X69274402Y-130669366D01*
X69672171Y-130699251D01*
X70068128Y-130650961D01*
X70447055Y-130526352D01*
X70715948Y-130382625D01*
X70858720Y-130078325D01*
X71791280Y-130078325D01*
X71934052Y-130382625D01*
X72290107Y-130562455D01*
X72674402Y-130669366D01*
X73072171Y-130699251D01*
X73468128Y-130650961D01*
X73847055Y-130526352D01*
X74115948Y-130382625D01*
X74258720Y-130078325D01*
X77281280Y-130078325D01*
X77424052Y-130382625D01*
X77780107Y-130562455D01*
X78164402Y-130669366D01*
X78562171Y-130699251D01*
X78958128Y-130650961D01*
X79337055Y-130526352D01*
X79605948Y-130382625D01*
X79748720Y-130078325D01*
X80681280Y-130078325D01*
X80824052Y-130382625D01*
X81180107Y-130562455D01*
X81564402Y-130669366D01*
X81962171Y-130699251D01*
X82358128Y-130650961D01*
X82737055Y-130526352D01*
X83005948Y-130382625D01*
X83089133Y-130205325D01*
X86171280Y-130205325D01*
X86314052Y-130509625D01*
X86670107Y-130689455D01*
X87054402Y-130796366D01*
X87452171Y-130826251D01*
X87848128Y-130777961D01*
X88227055Y-130653352D01*
X88495948Y-130509625D01*
X88638720Y-130205325D01*
X89571280Y-130205325D01*
X89714052Y-130509625D01*
X90070107Y-130689455D01*
X90454402Y-130796366D01*
X90852171Y-130826251D01*
X91248128Y-130777961D01*
X91627055Y-130653352D01*
X91895948Y-130509625D01*
X92038720Y-130205325D01*
X91911720Y-130078325D01*
X95061280Y-130078325D01*
X95204052Y-130382625D01*
X95560107Y-130562455D01*
X95944402Y-130669366D01*
X96342171Y-130699251D01*
X96738128Y-130650961D01*
X97117055Y-130526352D01*
X97385948Y-130382625D01*
X97528720Y-130078325D01*
X98461280Y-130078325D01*
X98604052Y-130382625D01*
X98960107Y-130562455D01*
X99344402Y-130669366D01*
X99742171Y-130699251D01*
X100138128Y-130650961D01*
X100517055Y-130526352D01*
X100785948Y-130382625D01*
X100928720Y-130078325D01*
X103951280Y-130078325D01*
X104094052Y-130382625D01*
X104450107Y-130562455D01*
X104834402Y-130669366D01*
X105232171Y-130699251D01*
X105628128Y-130650961D01*
X106007055Y-130526352D01*
X106275948Y-130382625D01*
X106418720Y-130078325D01*
X105185000Y-128844605D01*
X103951280Y-130078325D01*
X100928720Y-130078325D01*
X99695000Y-128844605D01*
X98461280Y-130078325D01*
X97528720Y-130078325D01*
X96295000Y-128844605D01*
X95061280Y-130078325D01*
X91911720Y-130078325D01*
X90805000Y-128971605D01*
X89571280Y-130205325D01*
X88638720Y-130205325D01*
X87405000Y-128971605D01*
X86171280Y-130205325D01*
X83089133Y-130205325D01*
X83148720Y-130078325D01*
X81915000Y-128844605D01*
X80681280Y-130078325D01*
X79748720Y-130078325D01*
X78515000Y-128844605D01*
X77281280Y-130078325D01*
X74258720Y-130078325D01*
X73025000Y-128844605D01*
X71791280Y-130078325D01*
X70858720Y-130078325D01*
X69625000Y-128844605D01*
X68391280Y-130078325D01*
X57196000Y-130078325D01*
X57196000Y-128712171D01*
X67590749Y-128712171D01*
X67639039Y-129108128D01*
X67763648Y-129487055D01*
X67907375Y-129755948D01*
X68211675Y-129898720D01*
X69445395Y-128665000D01*
X69804605Y-128665000D01*
X71038325Y-129898720D01*
X71325000Y-129764217D01*
X71611675Y-129898720D01*
X72845395Y-128665000D01*
X73204605Y-128665000D01*
X74438325Y-129898720D01*
X74742625Y-129755948D01*
X74922455Y-129399893D01*
X75029366Y-129015598D01*
X75052162Y-128712171D01*
X76480749Y-128712171D01*
X76529039Y-129108128D01*
X76653648Y-129487055D01*
X76797375Y-129755948D01*
X77101675Y-129898720D01*
X78335395Y-128665000D01*
X78694605Y-128665000D01*
X79928325Y-129898720D01*
X80215000Y-129764217D01*
X80501675Y-129898720D01*
X81735395Y-128665000D01*
X82094605Y-128665000D01*
X83328325Y-129898720D01*
X83632625Y-129755948D01*
X83812455Y-129399893D01*
X83919366Y-129015598D01*
X83932621Y-128839171D01*
X85370749Y-128839171D01*
X85419039Y-129235128D01*
X85543648Y-129614055D01*
X85687375Y-129882948D01*
X85991675Y-130025720D01*
X87225395Y-128792000D01*
X87584605Y-128792000D01*
X88818325Y-130025720D01*
X89105000Y-129891217D01*
X89391675Y-130025720D01*
X90625395Y-128792000D01*
X90984605Y-128792000D01*
X92218325Y-130025720D01*
X92522625Y-129882948D01*
X92702455Y-129526893D01*
X92809366Y-129142598D01*
X92839251Y-128744829D01*
X92835269Y-128712171D01*
X94260749Y-128712171D01*
X94309039Y-129108128D01*
X94433648Y-129487055D01*
X94577375Y-129755948D01*
X94881675Y-129898720D01*
X96115395Y-128665000D01*
X96474605Y-128665000D01*
X97708325Y-129898720D01*
X97995000Y-129764217D01*
X98281675Y-129898720D01*
X99515395Y-128665000D01*
X99874605Y-128665000D01*
X101108325Y-129898720D01*
X101412625Y-129755948D01*
X101592455Y-129399893D01*
X101699366Y-129015598D01*
X101722162Y-128712171D01*
X103150749Y-128712171D01*
X103199039Y-129108128D01*
X103323648Y-129487055D01*
X103467375Y-129755948D01*
X103771675Y-129898720D01*
X105005395Y-128665000D01*
X105364605Y-128665000D01*
X106598325Y-129898720D01*
X106885000Y-129764217D01*
X107171675Y-129898720D01*
X108405395Y-128665000D01*
X107171675Y-127431280D01*
X106885000Y-127565783D01*
X106598325Y-127431280D01*
X105364605Y-128665000D01*
X105005395Y-128665000D01*
X103771675Y-127431280D01*
X103467375Y-127574052D01*
X103287545Y-127930107D01*
X103180634Y-128314402D01*
X103150749Y-128712171D01*
X101722162Y-128712171D01*
X101729251Y-128617829D01*
X101680961Y-128221872D01*
X101556352Y-127842945D01*
X101412625Y-127574052D01*
X101108325Y-127431280D01*
X99874605Y-128665000D01*
X99515395Y-128665000D01*
X98281675Y-127431280D01*
X97995000Y-127565783D01*
X97708325Y-127431280D01*
X96474605Y-128665000D01*
X96115395Y-128665000D01*
X94881675Y-127431280D01*
X94577375Y-127574052D01*
X94397545Y-127930107D01*
X94290634Y-128314402D01*
X94260749Y-128712171D01*
X92835269Y-128712171D01*
X92790961Y-128348872D01*
X92666352Y-127969945D01*
X92522625Y-127701052D01*
X92218325Y-127558280D01*
X90984605Y-128792000D01*
X90625395Y-128792000D01*
X89391675Y-127558280D01*
X89105000Y-127692783D01*
X88818325Y-127558280D01*
X87584605Y-128792000D01*
X87225395Y-128792000D01*
X85991675Y-127558280D01*
X85687375Y-127701052D01*
X85507545Y-128057107D01*
X85400634Y-128441402D01*
X85370749Y-128839171D01*
X83932621Y-128839171D01*
X83949251Y-128617829D01*
X83900961Y-128221872D01*
X83776352Y-127842945D01*
X83632625Y-127574052D01*
X83328325Y-127431280D01*
X82094605Y-128665000D01*
X81735395Y-128665000D01*
X80501675Y-127431280D01*
X80215000Y-127565783D01*
X79928325Y-127431280D01*
X78694605Y-128665000D01*
X78335395Y-128665000D01*
X77101675Y-127431280D01*
X76797375Y-127574052D01*
X76617545Y-127930107D01*
X76510634Y-128314402D01*
X76480749Y-128712171D01*
X75052162Y-128712171D01*
X75059251Y-128617829D01*
X75010961Y-128221872D01*
X74886352Y-127842945D01*
X74742625Y-127574052D01*
X74438325Y-127431280D01*
X73204605Y-128665000D01*
X72845395Y-128665000D01*
X71611675Y-127431280D01*
X71325000Y-127565783D01*
X71038325Y-127431280D01*
X69804605Y-128665000D01*
X69445395Y-128665000D01*
X68211675Y-127431280D01*
X67907375Y-127574052D01*
X67727545Y-127930107D01*
X67620634Y-128314402D01*
X67590749Y-128712171D01*
X57196000Y-128712171D01*
X57196000Y-128391942D01*
X58072942Y-127515000D01*
X59552928Y-127515000D01*
X59565188Y-127639482D01*
X59601498Y-127759180D01*
X59660463Y-127869494D01*
X59739815Y-127966185D01*
X59836506Y-128045537D01*
X59946820Y-128104502D01*
X60066518Y-128140812D01*
X60191000Y-128153072D01*
X61055250Y-128150000D01*
X61214000Y-127991250D01*
X61214000Y-126492000D01*
X61468000Y-126492000D01*
X61468000Y-127991250D01*
X61626750Y-128150000D01*
X62491000Y-128153072D01*
X62615482Y-128140812D01*
X62735180Y-128104502D01*
X62845494Y-128045537D01*
X62942185Y-127966185D01*
X63021537Y-127869494D01*
X63080502Y-127759180D01*
X63116812Y-127639482D01*
X63129072Y-127515000D01*
X63128137Y-127251675D01*
X68391280Y-127251675D01*
X69625000Y-128485395D01*
X70858720Y-127251675D01*
X71791280Y-127251675D01*
X73025000Y-128485395D01*
X74258720Y-127251675D01*
X77281280Y-127251675D01*
X78515000Y-128485395D01*
X79748720Y-127251675D01*
X80681280Y-127251675D01*
X81915000Y-128485395D01*
X83021720Y-127378675D01*
X86171280Y-127378675D01*
X87405000Y-128612395D01*
X88638720Y-127378675D01*
X89571280Y-127378675D01*
X90805000Y-128612395D01*
X92038720Y-127378675D01*
X91979134Y-127251675D01*
X95061280Y-127251675D01*
X96295000Y-128485395D01*
X97528720Y-127251675D01*
X98461280Y-127251675D01*
X99695000Y-128485395D01*
X100928720Y-127251675D01*
X103951280Y-127251675D01*
X105185000Y-128485395D01*
X106418720Y-127251675D01*
X107351280Y-127251675D01*
X108585000Y-128485395D01*
X109818720Y-127251675D01*
X109675948Y-126947375D01*
X109319893Y-126767545D01*
X108935598Y-126660634D01*
X108537829Y-126630749D01*
X108141872Y-126679039D01*
X107762945Y-126803648D01*
X107494052Y-126947375D01*
X107351280Y-127251675D01*
X106418720Y-127251675D01*
X106275948Y-126947375D01*
X105919893Y-126767545D01*
X105535598Y-126660634D01*
X105137829Y-126630749D01*
X104741872Y-126679039D01*
X104362945Y-126803648D01*
X104094052Y-126947375D01*
X103951280Y-127251675D01*
X100928720Y-127251675D01*
X100785948Y-126947375D01*
X100429893Y-126767545D01*
X100045598Y-126660634D01*
X99647829Y-126630749D01*
X99251872Y-126679039D01*
X98872945Y-126803648D01*
X98604052Y-126947375D01*
X98461280Y-127251675D01*
X97528720Y-127251675D01*
X97385948Y-126947375D01*
X97029893Y-126767545D01*
X96645598Y-126660634D01*
X96247829Y-126630749D01*
X95851872Y-126679039D01*
X95472945Y-126803648D01*
X95204052Y-126947375D01*
X95061280Y-127251675D01*
X91979134Y-127251675D01*
X91895948Y-127074375D01*
X91539893Y-126894545D01*
X91155598Y-126787634D01*
X90757829Y-126757749D01*
X90361872Y-126806039D01*
X89982945Y-126930648D01*
X89714052Y-127074375D01*
X89571280Y-127378675D01*
X88638720Y-127378675D01*
X88495948Y-127074375D01*
X88139893Y-126894545D01*
X87755598Y-126787634D01*
X87357829Y-126757749D01*
X86961872Y-126806039D01*
X86582945Y-126930648D01*
X86314052Y-127074375D01*
X86171280Y-127378675D01*
X83021720Y-127378675D01*
X83148720Y-127251675D01*
X83005948Y-126947375D01*
X82649893Y-126767545D01*
X82265598Y-126660634D01*
X81867829Y-126630749D01*
X81471872Y-126679039D01*
X81092945Y-126803648D01*
X80824052Y-126947375D01*
X80681280Y-127251675D01*
X79748720Y-127251675D01*
X79605948Y-126947375D01*
X79249893Y-126767545D01*
X78865598Y-126660634D01*
X78467829Y-126630749D01*
X78071872Y-126679039D01*
X77692945Y-126803648D01*
X77424052Y-126947375D01*
X77281280Y-127251675D01*
X74258720Y-127251675D01*
X74115948Y-126947375D01*
X73759893Y-126767545D01*
X73375598Y-126660634D01*
X72977829Y-126630749D01*
X72581872Y-126679039D01*
X72202945Y-126803648D01*
X71934052Y-126947375D01*
X71791280Y-127251675D01*
X70858720Y-127251675D01*
X70715948Y-126947375D01*
X70359893Y-126767545D01*
X69975598Y-126660634D01*
X69577829Y-126630749D01*
X69181872Y-126679039D01*
X68802945Y-126803648D01*
X68534052Y-126947375D01*
X68391280Y-127251675D01*
X63128137Y-127251675D01*
X63126000Y-126650750D01*
X62967250Y-126492000D01*
X61468000Y-126492000D01*
X61214000Y-126492000D01*
X59714750Y-126492000D01*
X59556000Y-126650750D01*
X59552928Y-127515000D01*
X58072942Y-127515000D01*
X58843572Y-126744371D01*
X58927716Y-126675316D01*
X59097067Y-126468961D01*
X59203263Y-126339561D01*
X59408012Y-125956501D01*
X59458844Y-125788929D01*
X59512592Y-125611748D01*
X59554190Y-125570150D01*
X59556000Y-126079250D01*
X59714750Y-126238000D01*
X61214000Y-126238000D01*
X61214000Y-124738750D01*
X61468000Y-124738750D01*
X61468000Y-126238000D01*
X62967250Y-126238000D01*
X63126000Y-126079250D01*
X63129072Y-125215000D01*
X63116812Y-125090518D01*
X63080502Y-124970820D01*
X63021537Y-124860506D01*
X62942185Y-124763815D01*
X62845494Y-124684463D01*
X62735180Y-124625498D01*
X62615482Y-124589188D01*
X62491000Y-124576928D01*
X61626750Y-124580000D01*
X61468000Y-124738750D01*
X61214000Y-124738750D01*
X61055250Y-124580000D01*
X60546150Y-124578190D01*
X61172340Y-123952000D01*
X114083928Y-123952000D01*
X114083928Y-124654142D01*
%TA.AperFunction,Conductor*%
D29*
G36*
X114083928Y-124654142D02*
G01*
X110557409Y-128180661D01*
X110446352Y-127842945D01*
X110302625Y-127574052D01*
X109998325Y-127431280D01*
X108764605Y-128665000D01*
X108778748Y-128679143D01*
X108599143Y-128858748D01*
X108585000Y-128844605D01*
X107351280Y-130078325D01*
X107494052Y-130382625D01*
X107850107Y-130562455D01*
X108104769Y-130633302D01*
X104869143Y-133868928D01*
X104397000Y-133868928D01*
X104223746Y-133885992D01*
X104057150Y-133936528D01*
X103903614Y-134018595D01*
X103769038Y-134129038D01*
X103658595Y-134263614D01*
X103576528Y-134417150D01*
X103525992Y-134583746D01*
X103508928Y-134757000D01*
X103508928Y-135039941D01*
X103424860Y-135124009D01*
X103381552Y-135159551D01*
X103239717Y-135332377D01*
X103213193Y-135382000D01*
X103134324Y-135529554D01*
X103069423Y-135743502D01*
X103047509Y-135966000D01*
X103053001Y-136021761D01*
X103053000Y-139147814D01*
X103030843Y-139174812D01*
X102902236Y-139415419D01*
X102823040Y-139676493D01*
X102803000Y-139879963D01*
X102803000Y-140536036D01*
X102823040Y-140739506D01*
X102902236Y-141000580D01*
X103030843Y-141241187D01*
X103203919Y-141452080D01*
X103414812Y-141625157D01*
X103655419Y-141753764D01*
X103916493Y-141832960D01*
X104188000Y-141859701D01*
X104459506Y-141832960D01*
X104720580Y-141753764D01*
X104961187Y-141625157D01*
X105172080Y-141452081D01*
X105345157Y-141241188D01*
X105357551Y-141218000D01*
X105799928Y-141218000D01*
X105812188Y-141342482D01*
X105848498Y-141462180D01*
X105907463Y-141572494D01*
X105986815Y-141669185D01*
X106083506Y-141748537D01*
X106193820Y-141807502D01*
X106313518Y-141843812D01*
X106438000Y-141856072D01*
X106902250Y-141853000D01*
X107061000Y-141694250D01*
X107061000Y-140335000D01*
X107315000Y-140335000D01*
X107315000Y-141694250D01*
X107473750Y-141853000D01*
X107938000Y-141856072D01*
X108062482Y-141843812D01*
X108182180Y-141807502D01*
X108292494Y-141748537D01*
X108389185Y-141669185D01*
X108468537Y-141572494D01*
X108527502Y-141462180D01*
X108563812Y-141342482D01*
X108576072Y-141218000D01*
X108573000Y-140493750D01*
X108414250Y-140335000D01*
X107315000Y-140335000D01*
X107061000Y-140335000D01*
X105961750Y-140335000D01*
X105803000Y-140493750D01*
X105799928Y-141218000D01*
X105357551Y-141218000D01*
X105473764Y-141000581D01*
X105552960Y-140739507D01*
X105573000Y-140536037D01*
X105573000Y-139879964D01*
X105552960Y-139676494D01*
X105473764Y-139415419D01*
X105357552Y-139198000D01*
X105799928Y-139198000D01*
X105803000Y-139922250D01*
X105961750Y-140081000D01*
X107061000Y-140081000D01*
X107061000Y-138721750D01*
X107315000Y-138721750D01*
X107315000Y-140081000D01*
X108414250Y-140081000D01*
X108573000Y-139922250D01*
X108576072Y-139198000D01*
X108563812Y-139073518D01*
X108527502Y-138953820D01*
X108468537Y-138843506D01*
X108389185Y-138746815D01*
X108292494Y-138667463D01*
X108182180Y-138608498D01*
X108062482Y-138572188D01*
X107938000Y-138559928D01*
X107473750Y-138563000D01*
X107315000Y-138721750D01*
X107061000Y-138721750D01*
X106902250Y-138563000D01*
X106438000Y-138559928D01*
X106313518Y-138572188D01*
X106193820Y-138608498D01*
X106083506Y-138667463D01*
X105986815Y-138746815D01*
X105907463Y-138843506D01*
X105848498Y-138953820D01*
X105812188Y-139073518D01*
X105799928Y-139198000D01*
X105357552Y-139198000D01*
X105345157Y-139174812D01*
X105323000Y-139147814D01*
X105323000Y-136877175D01*
X105486850Y-136827472D01*
X105640386Y-136745405D01*
X105774962Y-136634962D01*
X105885405Y-136500386D01*
X105967472Y-136346850D01*
X106018008Y-136180254D01*
X106035072Y-136007000D01*
X106035072Y-135913261D01*
X106308928Y-135639405D01*
X106308928Y-136007000D01*
X106325992Y-136180254D01*
X106376528Y-136346850D01*
X106458595Y-136500386D01*
X106569038Y-136634962D01*
X106703614Y-136745405D01*
X106857150Y-136827472D01*
X107023746Y-136878008D01*
X107197000Y-136895072D01*
X107947000Y-136895072D01*
X108120254Y-136878008D01*
X108286850Y-136827472D01*
X108440386Y-136745405D01*
X108574962Y-136634962D01*
X108671770Y-136517000D01*
X110626749Y-136517000D01*
X110682500Y-136522491D01*
X110738251Y-136517000D01*
X110738252Y-136517000D01*
X110904999Y-136500577D01*
X111118947Y-136435676D01*
X111316123Y-136330284D01*
X111488949Y-136188449D01*
X111524496Y-136145135D01*
X115974560Y-131695072D01*
X116195001Y-131695072D01*
X116368255Y-131678008D01*
X116534851Y-131627472D01*
X116688387Y-131545405D01*
X116822962Y-131434962D01*
X116933405Y-131300387D01*
X117015472Y-131146851D01*
X117066008Y-130980255D01*
X117083072Y-130807001D01*
X117083072Y-130181999D01*
X117076539Y-130115671D01*
X117358928Y-130398060D01*
X117358928Y-130618501D01*
X117375992Y-130791755D01*
X117426528Y-130958351D01*
X117508595Y-131111887D01*
X117619038Y-131246462D01*
X117753613Y-131356905D01*
X117907149Y-131438972D01*
X118073745Y-131489508D01*
X118246999Y-131506572D01*
X119497001Y-131506572D01*
X119670255Y-131489508D01*
X119836851Y-131438972D01*
X119837643Y-131438548D01*
X119979499Y-131424577D01*
X120193447Y-131359676D01*
X120390623Y-131254284D01*
X120563449Y-131112449D01*
X120598996Y-131069135D01*
X121609737Y-130058395D01*
X121690369Y-130050453D01*
X121958040Y-129969256D01*
X122204726Y-129837399D01*
X122420949Y-129659949D01*
X122598399Y-129443726D01*
X122730256Y-129197040D01*
X122811453Y-128929369D01*
X122817000Y-128873047D01*
X122817000Y-132374229D01*
X122699038Y-132471038D01*
X122588595Y-132605613D01*
X122506528Y-132759149D01*
X122455992Y-132925745D01*
X122438928Y-133098999D01*
X122438928Y-133218297D01*
X122010486Y-132789855D01*
X121974939Y-132746541D01*
X121802113Y-132604706D01*
X121604937Y-132499314D01*
X121390989Y-132434413D01*
X121224242Y-132417990D01*
X121224241Y-132417990D01*
X121168490Y-132412499D01*
X121112739Y-132417990D01*
X118086762Y-132417990D01*
X118031010Y-132412499D01*
X117808511Y-132434413D01*
X117594563Y-132499314D01*
X117397387Y-132604706D01*
X117267866Y-132711001D01*
X117267865Y-132711002D01*
X117224561Y-132746541D01*
X117189023Y-132789844D01*
X116363940Y-133614928D01*
X116081000Y-133614928D01*
X115907746Y-133631992D01*
X115741150Y-133682528D01*
X115587614Y-133764595D01*
X115453038Y-133875038D01*
X115342595Y-134009614D01*
X115260528Y-134163150D01*
X115209992Y-134329746D01*
X115192928Y-134503000D01*
X115192928Y-135753000D01*
X115209992Y-135926254D01*
X115260528Y-136092850D01*
X115342595Y-136246386D01*
X115453038Y-136380962D01*
X115587614Y-136491405D01*
X115741150Y-136573472D01*
X115907746Y-136624008D01*
X116081000Y-136641072D01*
X116137797Y-136641072D01*
X115362860Y-137416009D01*
X115319552Y-137451551D01*
X115177717Y-137624377D01*
X115150156Y-137675941D01*
X115072324Y-137821554D01*
X115007423Y-138035502D01*
X114985509Y-138258000D01*
X114991001Y-138313761D01*
X114991001Y-139147813D01*
X114968843Y-139174812D01*
X114840236Y-139415419D01*
X114761040Y-139676493D01*
X114741000Y-139879963D01*
X114741000Y-140536036D01*
X114761040Y-140739506D01*
X114840236Y-141000580D01*
X114968843Y-141241187D01*
X115141919Y-141452080D01*
X115352812Y-141625157D01*
X115593419Y-141753764D01*
X115854493Y-141832960D01*
X116126000Y-141859701D01*
X116397506Y-141832960D01*
X116658580Y-141753764D01*
X116899187Y-141625157D01*
X117110080Y-141452081D01*
X117283157Y-141241188D01*
X117411764Y-141000581D01*
X117490960Y-140739507D01*
X117511000Y-140536037D01*
X117511000Y-139879964D01*
X117490960Y-139676494D01*
X117411764Y-139415419D01*
X117283157Y-139174812D01*
X117261000Y-139147814D01*
X117261000Y-138728131D01*
X119348060Y-136641072D01*
X119631000Y-136641072D01*
X119804254Y-136624008D01*
X119970850Y-136573472D01*
X120124386Y-136491405D01*
X120258962Y-136380962D01*
X120369405Y-136246386D01*
X120451472Y-136092850D01*
X120502008Y-135926254D01*
X120519072Y-135753000D01*
X120519072Y-134687990D01*
X120698359Y-134687990D01*
X122438928Y-136428560D01*
X122438928Y-136649001D01*
X122455992Y-136822255D01*
X122506528Y-136988851D01*
X122588595Y-137142387D01*
X122699038Y-137276962D01*
X122833613Y-137387405D01*
X122987149Y-137469472D01*
X123153745Y-137520008D01*
X123326999Y-137537072D01*
X123427316Y-137537072D01*
X121891389Y-139073000D01*
X120427684Y-139073000D01*
X120364405Y-138954614D01*
X120253962Y-138820038D01*
X120119386Y-138709595D01*
X119965850Y-138627528D01*
X119799254Y-138576992D01*
X119626000Y-138559928D01*
X118626000Y-138559928D01*
X118452746Y-138576992D01*
X118286150Y-138627528D01*
X118132614Y-138709595D01*
X117998038Y-138820038D01*
X117887595Y-138954614D01*
X117805528Y-139108150D01*
X117754992Y-139274746D01*
X117737928Y-139448000D01*
X117737928Y-140968000D01*
X117754992Y-141141254D01*
X117805528Y-141307850D01*
X117887595Y-141461386D01*
X117998038Y-141595962D01*
X118132614Y-141706405D01*
X118286150Y-141788472D01*
X118452746Y-141839008D01*
X118626000Y-141856072D01*
X119626000Y-141856072D01*
X119799254Y-141839008D01*
X119965850Y-141788472D01*
X120119386Y-141706405D01*
X120253962Y-141595962D01*
X120364405Y-141461386D01*
X120427684Y-141343000D01*
X122305769Y-141343000D01*
X122361520Y-141348491D01*
X122417271Y-141343000D01*
X122417272Y-141343000D01*
X122584019Y-141326577D01*
X122797967Y-141261676D01*
X122995143Y-141156284D01*
X123167969Y-141014449D01*
X123203516Y-140971135D01*
X126290151Y-137884501D01*
X126333459Y-137848959D01*
X126475294Y-137676133D01*
X126580686Y-137478957D01*
X126645587Y-137265009D01*
X126662010Y-137098262D01*
X126662010Y-137098261D01*
X126667501Y-137042510D01*
X126662010Y-136986758D01*
X126662010Y-123952000D01*
X131776000Y-123952000D01*
X131776001Y-146016485D01*
X131713262Y-146656343D01*
X131537168Y-147239595D01*
X131251143Y-147777531D01*
X130866078Y-148249667D01*
X130396641Y-148638019D01*
X129860714Y-148927794D01*
X129278705Y-149107956D01*
X128640811Y-149175000D01*
X49403000Y-149175000D01*
X49403000Y-141657606D01*
X51660466Y-139400140D01*
X51741000Y-139408072D01*
X52473941Y-139408072D01*
X54037009Y-140971141D01*
X54072551Y-141014449D01*
X54245377Y-141156284D01*
X54442553Y-141261676D01*
X54656501Y-141326577D01*
X54823248Y-141343000D01*
X54823257Y-141343000D01*
X54878999Y-141348490D01*
X54934741Y-141343000D01*
X66157399Y-141343000D01*
X66246919Y-141452080D01*
X66457812Y-141625157D01*
X66698419Y-141753764D01*
X66959493Y-141832960D01*
X67231000Y-141859701D01*
X67273394Y-141855526D01*
X67955983Y-142538115D01*
X67719698Y-142635988D01*
X67370017Y-142869637D01*
X67072637Y-143167017D01*
X66838988Y-143516698D01*
X66678047Y-143905244D01*
X66596000Y-144317721D01*
X66596000Y-144738279D01*
X66678047Y-145150756D01*
X66838988Y-145539302D01*
X67072637Y-145888983D01*
X67370017Y-146186363D01*
X67719698Y-146420012D01*
X68108244Y-146580953D01*
X68520721Y-146663000D01*
X68941279Y-146663000D01*
X69353756Y-146580953D01*
X69742302Y-146420012D01*
X70091983Y-146186363D01*
X70389363Y-145888983D01*
X70623012Y-145539302D01*
X70783953Y-145150756D01*
X70866000Y-144738279D01*
X70866000Y-144317721D01*
X70783953Y-143905244D01*
X70623012Y-143516698D01*
X70389363Y-143167017D01*
X70275356Y-143053010D01*
X78846644Y-143053010D01*
X78732637Y-143167017D01*
X78498988Y-143516698D01*
X78338047Y-143905244D01*
X78256000Y-144317721D01*
X78256000Y-144738279D01*
X78338047Y-145150756D01*
X78498988Y-145539302D01*
X78732637Y-145888983D01*
X79030017Y-146186363D01*
X79379698Y-146420012D01*
X79768244Y-146580953D01*
X80180721Y-146663000D01*
X80601279Y-146663000D01*
X81013756Y-146580953D01*
X81402302Y-146420012D01*
X81751983Y-146186363D01*
X82049363Y-145888983D01*
X82283012Y-145539302D01*
X82443953Y-145150756D01*
X82526000Y-144738279D01*
X82526000Y-144317721D01*
X89710000Y-144317721D01*
X89710000Y-144738279D01*
X89792047Y-145150756D01*
X89952988Y-145539302D01*
X90186637Y-145888983D01*
X90484017Y-146186363D01*
X90833698Y-146420012D01*
X91222244Y-146580953D01*
X91634721Y-146663000D01*
X92055279Y-146663000D01*
X92467756Y-146580953D01*
X92856302Y-146420012D01*
X93205983Y-146186363D01*
X93503363Y-145888983D01*
X93737012Y-145539302D01*
X93897953Y-145150756D01*
X93980000Y-144738279D01*
X93980000Y-144317721D01*
X103553000Y-144317721D01*
X103553000Y-144738279D01*
X103635047Y-145150756D01*
X103795988Y-145539302D01*
X104029637Y-145888983D01*
X104327017Y-146186363D01*
X104676698Y-146420012D01*
X105065244Y-146580953D01*
X105477721Y-146663000D01*
X105898279Y-146663000D01*
X106310756Y-146580953D01*
X106699302Y-146420012D01*
X107048983Y-146186363D01*
X107346363Y-145888983D01*
X107580012Y-145539302D01*
X107740953Y-145150756D01*
X107823000Y-144738279D01*
X107823000Y-144317721D01*
X115491000Y-144317721D01*
X115491000Y-144738279D01*
X115573047Y-145150756D01*
X115733988Y-145539302D01*
X115967637Y-145888983D01*
X116265017Y-146186363D01*
X116614698Y-146420012D01*
X117003244Y-146580953D01*
X117415721Y-146663000D01*
X117836279Y-146663000D01*
X118248756Y-146580953D01*
X118637302Y-146420012D01*
X118986983Y-146186363D01*
X119284363Y-145888983D01*
X119518012Y-145539302D01*
X119676998Y-145155475D01*
X125381000Y-145155475D01*
X125381000Y-145674525D01*
X125482261Y-146183601D01*
X125680893Y-146663141D01*
X125969262Y-147094715D01*
X126336285Y-147461738D01*
X126767859Y-147750107D01*
X127247399Y-147948739D01*
X127756475Y-148050000D01*
X128275525Y-148050000D01*
X128784601Y-147948739D01*
X129264141Y-147750107D01*
X129695715Y-147461738D01*
X130062738Y-147094715D01*
X130351107Y-146663141D01*
X130549739Y-146183601D01*
X130651000Y-145674525D01*
X130651000Y-145155475D01*
X130549739Y-144646399D01*
X130351107Y-144166859D01*
X130062738Y-143735285D01*
X129695715Y-143368262D01*
X129264141Y-143079893D01*
X128784601Y-142881261D01*
X128275525Y-142780000D01*
X127756475Y-142780000D01*
X127247399Y-142881261D01*
X126767859Y-143079893D01*
X126336285Y-143368262D01*
X125969262Y-143735285D01*
X125680893Y-144166859D01*
X125482261Y-144646399D01*
X125381000Y-145155475D01*
X119676998Y-145155475D01*
X119678953Y-145150756D01*
X119761000Y-144738279D01*
X119761000Y-144317721D01*
X119678953Y-143905244D01*
X119518012Y-143516698D01*
X119284363Y-143167017D01*
X118986983Y-142869637D01*
X118637302Y-142635988D01*
X118248756Y-142475047D01*
X117836279Y-142393000D01*
X117415721Y-142393000D01*
X117003244Y-142475047D01*
X116614698Y-142635988D01*
X116265017Y-142869637D01*
X115967637Y-143167017D01*
X115733988Y-143516698D01*
X115573047Y-143905244D01*
X115491000Y-144317721D01*
X107823000Y-144317721D01*
X107740953Y-143905244D01*
X107580012Y-143516698D01*
X107346363Y-143167017D01*
X107048983Y-142869637D01*
X106699302Y-142635988D01*
X106310756Y-142475047D01*
X105898279Y-142393000D01*
X105477721Y-142393000D01*
X105065244Y-142475047D01*
X104676698Y-142635988D01*
X104327017Y-142869637D01*
X104029637Y-143167017D01*
X103795988Y-143516698D01*
X103635047Y-143905244D01*
X103553000Y-144317721D01*
X93980000Y-144317721D01*
X93897953Y-143905244D01*
X93737012Y-143516698D01*
X93503363Y-143167017D01*
X93205983Y-142869637D01*
X92856302Y-142635988D01*
X92467756Y-142475047D01*
X92055279Y-142393000D01*
X91634721Y-142393000D01*
X91222244Y-142475047D01*
X90833698Y-142635988D01*
X90484017Y-142869637D01*
X90186637Y-143167017D01*
X89952988Y-143516698D01*
X89792047Y-143905244D01*
X89710000Y-144317721D01*
X82526000Y-144317721D01*
X82443953Y-143905244D01*
X82283012Y-143516698D01*
X82049363Y-143167017D01*
X81751983Y-142869637D01*
X81402302Y-142635988D01*
X81013756Y-142475047D01*
X80618357Y-142396397D01*
X81104150Y-141910605D01*
X81147459Y-141875062D01*
X81185160Y-141829123D01*
X81217746Y-141839008D01*
X81391000Y-141856072D01*
X82391000Y-141856072D01*
X82564254Y-141839008D01*
X82730850Y-141788472D01*
X82884386Y-141706405D01*
X83018962Y-141595962D01*
X83129405Y-141461386D01*
X83192684Y-141343000D01*
X89271399Y-141343000D01*
X89360919Y-141452080D01*
X89571812Y-141625157D01*
X89812419Y-141753764D01*
X90073493Y-141832960D01*
X90345000Y-141859701D01*
X90616506Y-141832960D01*
X90877580Y-141753764D01*
X91118187Y-141625157D01*
X91329080Y-141452081D01*
X91502157Y-141241188D01*
X91514551Y-141218000D01*
X91956928Y-141218000D01*
X91969188Y-141342482D01*
X92005498Y-141462180D01*
X92064463Y-141572494D01*
X92143815Y-141669185D01*
X92240506Y-141748537D01*
X92350820Y-141807502D01*
X92470518Y-141843812D01*
X92595000Y-141856072D01*
X93059250Y-141853000D01*
X93218000Y-141694250D01*
X93218000Y-140335000D01*
X93472000Y-140335000D01*
X93472000Y-141694250D01*
X93630750Y-141853000D01*
X94095000Y-141856072D01*
X94219482Y-141843812D01*
X94339180Y-141807502D01*
X94449494Y-141748537D01*
X94546185Y-141669185D01*
X94625537Y-141572494D01*
X94684502Y-141462180D01*
X94720812Y-141342482D01*
X94733072Y-141218000D01*
X94730000Y-140493750D01*
X94571250Y-140335000D01*
X93472000Y-140335000D01*
X93218000Y-140335000D01*
X92118750Y-140335000D01*
X91960000Y-140493750D01*
X91956928Y-141218000D01*
X91514551Y-141218000D01*
X91630764Y-141000581D01*
X91709960Y-140739507D01*
X91730000Y-140536037D01*
X91730000Y-139879964D01*
X91709960Y-139676494D01*
X91630764Y-139415419D01*
X91514552Y-139198000D01*
X91956928Y-139198000D01*
X91960000Y-139922250D01*
X92118750Y-140081000D01*
X93218000Y-140081000D01*
X93218000Y-138721750D01*
X93472000Y-138721750D01*
X93472000Y-140081000D01*
X94571250Y-140081000D01*
X94730000Y-139922250D01*
X94733072Y-139198000D01*
X94720812Y-139073518D01*
X94684502Y-138953820D01*
X94625537Y-138843506D01*
X94546185Y-138746815D01*
X94449494Y-138667463D01*
X94339180Y-138608498D01*
X94219482Y-138572188D01*
X94095000Y-138559928D01*
X93630750Y-138563000D01*
X93472000Y-138721750D01*
X93218000Y-138721750D01*
X93059250Y-138563000D01*
X92595000Y-138559928D01*
X92470518Y-138572188D01*
X92350820Y-138608498D01*
X92240506Y-138667463D01*
X92143815Y-138746815D01*
X92064463Y-138843506D01*
X92005498Y-138953820D01*
X91969188Y-139073518D01*
X91956928Y-139198000D01*
X91514552Y-139198000D01*
X91502157Y-139174812D01*
X91329081Y-138963919D01*
X91118188Y-138790843D01*
X90877581Y-138662236D01*
X90616507Y-138583040D01*
X90345000Y-138556299D01*
X90073494Y-138583040D01*
X89812420Y-138662236D01*
X89571813Y-138790843D01*
X89360920Y-138963919D01*
X89271399Y-139073000D01*
X83192684Y-139073000D01*
X83129405Y-138954614D01*
X83018962Y-138820038D01*
X82884386Y-138709595D01*
X82730850Y-138627528D01*
X82564254Y-138576992D01*
X82391000Y-138559928D01*
X81476010Y-138559928D01*
X81476010Y-137299121D01*
X81880060Y-136895072D01*
X82163000Y-136895072D01*
X82336254Y-136878008D01*
X82502850Y-136827472D01*
X82656386Y-136745405D01*
X82790962Y-136634962D01*
X82901405Y-136500386D01*
X82983472Y-136346850D01*
X83034008Y-136180254D01*
X83051072Y-136007000D01*
X83051072Y-134757000D01*
X83034008Y-134583746D01*
X82983472Y-134417150D01*
X82901405Y-134263614D01*
X82790962Y-134129038D01*
X82656386Y-134018595D01*
X82502850Y-133936528D01*
X82336254Y-133885992D01*
X82163000Y-133868928D01*
X81413000Y-133868928D01*
X81239746Y-133885992D01*
X81073150Y-133936528D01*
X80919614Y-134018595D01*
X80785038Y-134129038D01*
X80674595Y-134263614D01*
X80592528Y-134417150D01*
X80541992Y-134583746D01*
X80524928Y-134757000D01*
X80524928Y-135039940D01*
X80251072Y-135313797D01*
X80251072Y-134757000D01*
X80234008Y-134583746D01*
X80183472Y-134417150D01*
X80101405Y-134263614D01*
X79990962Y-134129038D01*
X79856386Y-134018595D01*
X79702850Y-133936528D01*
X79536254Y-133885992D01*
X79363000Y-133868928D01*
X78613000Y-133868928D01*
X78439746Y-133885992D01*
X78273150Y-133936528D01*
X78119614Y-134018595D01*
X77985038Y-134129038D01*
X77874595Y-134263614D01*
X77792528Y-134417150D01*
X77741992Y-134583746D01*
X77724928Y-134757000D01*
X77724928Y-135914940D01*
X77360869Y-136279000D01*
X59649771Y-136279000D01*
X59552962Y-136161038D01*
X59418387Y-136050595D01*
X59324785Y-136000564D01*
X59356887Y-135983405D01*
X59491462Y-135872962D01*
X59601905Y-135738387D01*
X59683972Y-135584851D01*
X59734508Y-135418255D01*
X59734733Y-135415975D01*
X59737399Y-135412726D01*
X59869256Y-135166040D01*
X59950453Y-134898369D01*
X59971000Y-134689751D01*
X59971000Y-133804741D01*
X59977869Y-133734999D01*
X59971000Y-133665257D01*
X59971000Y-133665248D01*
X59950453Y-133456631D01*
X59869256Y-133188960D01*
X59821171Y-133098999D01*
X59737399Y-132942273D01*
X59604413Y-132780230D01*
X59604407Y-132780224D01*
X59559948Y-132726051D01*
X59505776Y-132681593D01*
X57314415Y-130490233D01*
X57269949Y-130436051D01*
X57196000Y-130375362D01*
X57196000Y-130078325D01*
X68391280Y-130078325D01*
X68534052Y-130382625D01*
X68890107Y-130562455D01*
X69274402Y-130669366D01*
X69672171Y-130699251D01*
X70068128Y-130650961D01*
X70447055Y-130526352D01*
X70715948Y-130382625D01*
X70858720Y-130078325D01*
X71791280Y-130078325D01*
X71934052Y-130382625D01*
X72290107Y-130562455D01*
X72674402Y-130669366D01*
X73072171Y-130699251D01*
X73468128Y-130650961D01*
X73847055Y-130526352D01*
X74115948Y-130382625D01*
X74258720Y-130078325D01*
X77281280Y-130078325D01*
X77424052Y-130382625D01*
X77780107Y-130562455D01*
X78164402Y-130669366D01*
X78562171Y-130699251D01*
X78958128Y-130650961D01*
X79337055Y-130526352D01*
X79605948Y-130382625D01*
X79748720Y-130078325D01*
X80681280Y-130078325D01*
X80824052Y-130382625D01*
X81180107Y-130562455D01*
X81564402Y-130669366D01*
X81962171Y-130699251D01*
X82358128Y-130650961D01*
X82737055Y-130526352D01*
X83005948Y-130382625D01*
X83089133Y-130205325D01*
X86171280Y-130205325D01*
X86314052Y-130509625D01*
X86670107Y-130689455D01*
X87054402Y-130796366D01*
X87452171Y-130826251D01*
X87848128Y-130777961D01*
X88227055Y-130653352D01*
X88495948Y-130509625D01*
X88638720Y-130205325D01*
X89571280Y-130205325D01*
X89714052Y-130509625D01*
X90070107Y-130689455D01*
X90454402Y-130796366D01*
X90852171Y-130826251D01*
X91248128Y-130777961D01*
X91627055Y-130653352D01*
X91895948Y-130509625D01*
X92038720Y-130205325D01*
X91911720Y-130078325D01*
X95061280Y-130078325D01*
X95204052Y-130382625D01*
X95560107Y-130562455D01*
X95944402Y-130669366D01*
X96342171Y-130699251D01*
X96738128Y-130650961D01*
X97117055Y-130526352D01*
X97385948Y-130382625D01*
X97528720Y-130078325D01*
X98461280Y-130078325D01*
X98604052Y-130382625D01*
X98960107Y-130562455D01*
X99344402Y-130669366D01*
X99742171Y-130699251D01*
X100138128Y-130650961D01*
X100517055Y-130526352D01*
X100785948Y-130382625D01*
X100928720Y-130078325D01*
X103951280Y-130078325D01*
X104094052Y-130382625D01*
X104450107Y-130562455D01*
X104834402Y-130669366D01*
X105232171Y-130699251D01*
X105628128Y-130650961D01*
X106007055Y-130526352D01*
X106275948Y-130382625D01*
X106418720Y-130078325D01*
X105185000Y-128844605D01*
X103951280Y-130078325D01*
X100928720Y-130078325D01*
X99695000Y-128844605D01*
X98461280Y-130078325D01*
X97528720Y-130078325D01*
X96295000Y-128844605D01*
X95061280Y-130078325D01*
X91911720Y-130078325D01*
X90805000Y-128971605D01*
X89571280Y-130205325D01*
X88638720Y-130205325D01*
X87405000Y-128971605D01*
X86171280Y-130205325D01*
X83089133Y-130205325D01*
X83148720Y-130078325D01*
X81915000Y-128844605D01*
X80681280Y-130078325D01*
X79748720Y-130078325D01*
X78515000Y-128844605D01*
X77281280Y-130078325D01*
X74258720Y-130078325D01*
X73025000Y-128844605D01*
X71791280Y-130078325D01*
X70858720Y-130078325D01*
X69625000Y-128844605D01*
X68391280Y-130078325D01*
X57196000Y-130078325D01*
X57196000Y-128712171D01*
X67590749Y-128712171D01*
X67639039Y-129108128D01*
X67763648Y-129487055D01*
X67907375Y-129755948D01*
X68211675Y-129898720D01*
X69445395Y-128665000D01*
X69804605Y-128665000D01*
X71038325Y-129898720D01*
X71325000Y-129764217D01*
X71611675Y-129898720D01*
X72845395Y-128665000D01*
X73204605Y-128665000D01*
X74438325Y-129898720D01*
X74742625Y-129755948D01*
X74922455Y-129399893D01*
X75029366Y-129015598D01*
X75052162Y-128712171D01*
X76480749Y-128712171D01*
X76529039Y-129108128D01*
X76653648Y-129487055D01*
X76797375Y-129755948D01*
X77101675Y-129898720D01*
X78335395Y-128665000D01*
X78694605Y-128665000D01*
X79928325Y-129898720D01*
X80215000Y-129764217D01*
X80501675Y-129898720D01*
X81735395Y-128665000D01*
X82094605Y-128665000D01*
X83328325Y-129898720D01*
X83632625Y-129755948D01*
X83812455Y-129399893D01*
X83919366Y-129015598D01*
X83932621Y-128839171D01*
X85370749Y-128839171D01*
X85419039Y-129235128D01*
X85543648Y-129614055D01*
X85687375Y-129882948D01*
X85991675Y-130025720D01*
X87225395Y-128792000D01*
X87584605Y-128792000D01*
X88818325Y-130025720D01*
X89105000Y-129891217D01*
X89391675Y-130025720D01*
X90625395Y-128792000D01*
X90984605Y-128792000D01*
X92218325Y-130025720D01*
X92522625Y-129882948D01*
X92702455Y-129526893D01*
X92809366Y-129142598D01*
X92839251Y-128744829D01*
X92835269Y-128712171D01*
X94260749Y-128712171D01*
X94309039Y-129108128D01*
X94433648Y-129487055D01*
X94577375Y-129755948D01*
X94881675Y-129898720D01*
X96115395Y-128665000D01*
X96474605Y-128665000D01*
X97708325Y-129898720D01*
X97995000Y-129764217D01*
X98281675Y-129898720D01*
X99515395Y-128665000D01*
X99874605Y-128665000D01*
X101108325Y-129898720D01*
X101412625Y-129755948D01*
X101592455Y-129399893D01*
X101699366Y-129015598D01*
X101722162Y-128712171D01*
X103150749Y-128712171D01*
X103199039Y-129108128D01*
X103323648Y-129487055D01*
X103467375Y-129755948D01*
X103771675Y-129898720D01*
X105005395Y-128665000D01*
X105364605Y-128665000D01*
X106598325Y-129898720D01*
X106885000Y-129764217D01*
X107171675Y-129898720D01*
X108405395Y-128665000D01*
X107171675Y-127431280D01*
X106885000Y-127565783D01*
X106598325Y-127431280D01*
X105364605Y-128665000D01*
X105005395Y-128665000D01*
X103771675Y-127431280D01*
X103467375Y-127574052D01*
X103287545Y-127930107D01*
X103180634Y-128314402D01*
X103150749Y-128712171D01*
X101722162Y-128712171D01*
X101729251Y-128617829D01*
X101680961Y-128221872D01*
X101556352Y-127842945D01*
X101412625Y-127574052D01*
X101108325Y-127431280D01*
X99874605Y-128665000D01*
X99515395Y-128665000D01*
X98281675Y-127431280D01*
X97995000Y-127565783D01*
X97708325Y-127431280D01*
X96474605Y-128665000D01*
X96115395Y-128665000D01*
X94881675Y-127431280D01*
X94577375Y-127574052D01*
X94397545Y-127930107D01*
X94290634Y-128314402D01*
X94260749Y-128712171D01*
X92835269Y-128712171D01*
X92790961Y-128348872D01*
X92666352Y-127969945D01*
X92522625Y-127701052D01*
X92218325Y-127558280D01*
X90984605Y-128792000D01*
X90625395Y-128792000D01*
X89391675Y-127558280D01*
X89105000Y-127692783D01*
X88818325Y-127558280D01*
X87584605Y-128792000D01*
X87225395Y-128792000D01*
X85991675Y-127558280D01*
X85687375Y-127701052D01*
X85507545Y-128057107D01*
X85400634Y-128441402D01*
X85370749Y-128839171D01*
X83932621Y-128839171D01*
X83949251Y-128617829D01*
X83900961Y-128221872D01*
X83776352Y-127842945D01*
X83632625Y-127574052D01*
X83328325Y-127431280D01*
X82094605Y-128665000D01*
X81735395Y-128665000D01*
X80501675Y-127431280D01*
X80215000Y-127565783D01*
X79928325Y-127431280D01*
X78694605Y-128665000D01*
X78335395Y-128665000D01*
X77101675Y-127431280D01*
X76797375Y-127574052D01*
X76617545Y-127930107D01*
X76510634Y-128314402D01*
X76480749Y-128712171D01*
X75052162Y-128712171D01*
X75059251Y-128617829D01*
X75010961Y-128221872D01*
X74886352Y-127842945D01*
X74742625Y-127574052D01*
X74438325Y-127431280D01*
X73204605Y-128665000D01*
X72845395Y-128665000D01*
X71611675Y-127431280D01*
X71325000Y-127565783D01*
X71038325Y-127431280D01*
X69804605Y-128665000D01*
X69445395Y-128665000D01*
X68211675Y-127431280D01*
X67907375Y-127574052D01*
X67727545Y-127930107D01*
X67620634Y-128314402D01*
X67590749Y-128712171D01*
X57196000Y-128712171D01*
X57196000Y-128391942D01*
X58072942Y-127515000D01*
X59552928Y-127515000D01*
X59565188Y-127639482D01*
X59601498Y-127759180D01*
X59660463Y-127869494D01*
X59739815Y-127966185D01*
X59836506Y-128045537D01*
X59946820Y-128104502D01*
X60066518Y-128140812D01*
X60191000Y-128153072D01*
X61055250Y-128150000D01*
X61214000Y-127991250D01*
X61214000Y-126492000D01*
X61468000Y-126492000D01*
X61468000Y-127991250D01*
X61626750Y-128150000D01*
X62491000Y-128153072D01*
X62615482Y-128140812D01*
X62735180Y-128104502D01*
X62845494Y-128045537D01*
X62942185Y-127966185D01*
X63021537Y-127869494D01*
X63080502Y-127759180D01*
X63116812Y-127639482D01*
X63129072Y-127515000D01*
X63128137Y-127251675D01*
X68391280Y-127251675D01*
X69625000Y-128485395D01*
X70858720Y-127251675D01*
X71791280Y-127251675D01*
X73025000Y-128485395D01*
X74258720Y-127251675D01*
X77281280Y-127251675D01*
X78515000Y-128485395D01*
X79748720Y-127251675D01*
X80681280Y-127251675D01*
X81915000Y-128485395D01*
X83021720Y-127378675D01*
X86171280Y-127378675D01*
X87405000Y-128612395D01*
X88638720Y-127378675D01*
X89571280Y-127378675D01*
X90805000Y-128612395D01*
X92038720Y-127378675D01*
X91979134Y-127251675D01*
X95061280Y-127251675D01*
X96295000Y-128485395D01*
X97528720Y-127251675D01*
X98461280Y-127251675D01*
X99695000Y-128485395D01*
X100928720Y-127251675D01*
X103951280Y-127251675D01*
X105185000Y-128485395D01*
X106418720Y-127251675D01*
X107351280Y-127251675D01*
X108585000Y-128485395D01*
X109818720Y-127251675D01*
X109675948Y-126947375D01*
X109319893Y-126767545D01*
X108935598Y-126660634D01*
X108537829Y-126630749D01*
X108141872Y-126679039D01*
X107762945Y-126803648D01*
X107494052Y-126947375D01*
X107351280Y-127251675D01*
X106418720Y-127251675D01*
X106275948Y-126947375D01*
X105919893Y-126767545D01*
X105535598Y-126660634D01*
X105137829Y-126630749D01*
X104741872Y-126679039D01*
X104362945Y-126803648D01*
X104094052Y-126947375D01*
X103951280Y-127251675D01*
X100928720Y-127251675D01*
X100785948Y-126947375D01*
X100429893Y-126767545D01*
X100045598Y-126660634D01*
X99647829Y-126630749D01*
X99251872Y-126679039D01*
X98872945Y-126803648D01*
X98604052Y-126947375D01*
X98461280Y-127251675D01*
X97528720Y-127251675D01*
X97385948Y-126947375D01*
X97029893Y-126767545D01*
X96645598Y-126660634D01*
X96247829Y-126630749D01*
X95851872Y-126679039D01*
X95472945Y-126803648D01*
X95204052Y-126947375D01*
X95061280Y-127251675D01*
X91979134Y-127251675D01*
X91895948Y-127074375D01*
X91539893Y-126894545D01*
X91155598Y-126787634D01*
X90757829Y-126757749D01*
X90361872Y-126806039D01*
X89982945Y-126930648D01*
X89714052Y-127074375D01*
X89571280Y-127378675D01*
X88638720Y-127378675D01*
X88495948Y-127074375D01*
X88139893Y-126894545D01*
X87755598Y-126787634D01*
X87357829Y-126757749D01*
X86961872Y-126806039D01*
X86582945Y-126930648D01*
X86314052Y-127074375D01*
X86171280Y-127378675D01*
X83021720Y-127378675D01*
X83148720Y-127251675D01*
X83005948Y-126947375D01*
X82649893Y-126767545D01*
X82265598Y-126660634D01*
X81867829Y-126630749D01*
X81471872Y-126679039D01*
X81092945Y-126803648D01*
X80824052Y-126947375D01*
X80681280Y-127251675D01*
X79748720Y-127251675D01*
X79605948Y-126947375D01*
X79249893Y-126767545D01*
X78865598Y-126660634D01*
X78467829Y-126630749D01*
X78071872Y-126679039D01*
X77692945Y-126803648D01*
X77424052Y-126947375D01*
X77281280Y-127251675D01*
X74258720Y-127251675D01*
X74115948Y-126947375D01*
X73759893Y-126767545D01*
X73375598Y-126660634D01*
X72977829Y-126630749D01*
X72581872Y-126679039D01*
X72202945Y-126803648D01*
X71934052Y-126947375D01*
X71791280Y-127251675D01*
X70858720Y-127251675D01*
X70715948Y-126947375D01*
X70359893Y-126767545D01*
X69975598Y-126660634D01*
X69577829Y-126630749D01*
X69181872Y-126679039D01*
X68802945Y-126803648D01*
X68534052Y-126947375D01*
X68391280Y-127251675D01*
X63128137Y-127251675D01*
X63126000Y-126650750D01*
X62967250Y-126492000D01*
X61468000Y-126492000D01*
X61214000Y-126492000D01*
X59714750Y-126492000D01*
X59556000Y-126650750D01*
X59552928Y-127515000D01*
X58072942Y-127515000D01*
X58843572Y-126744371D01*
X58927716Y-126675316D01*
X59097067Y-126468961D01*
X59203263Y-126339561D01*
X59408012Y-125956501D01*
X59458844Y-125788929D01*
X59512592Y-125611748D01*
X59554190Y-125570150D01*
X59556000Y-126079250D01*
X59714750Y-126238000D01*
X61214000Y-126238000D01*
X61214000Y-124738750D01*
X61468000Y-124738750D01*
X61468000Y-126238000D01*
X62967250Y-126238000D01*
X63126000Y-126079250D01*
X63129072Y-125215000D01*
X63116812Y-125090518D01*
X63080502Y-124970820D01*
X63021537Y-124860506D01*
X62942185Y-124763815D01*
X62845494Y-124684463D01*
X62735180Y-124625498D01*
X62615482Y-124589188D01*
X62491000Y-124576928D01*
X61626750Y-124580000D01*
X61468000Y-124738750D01*
X61214000Y-124738750D01*
X61055250Y-124580000D01*
X60546150Y-124578190D01*
X61172340Y-123952000D01*
X114083928Y-123952000D01*
X114083928Y-124654142D01*
G37*
%TD.AperFunction*%
%TD*%
D28*
%TO.N,Net-(F5-Pad1)*%
X83439000Y-103160724D02*
X83189698Y-103263988D01*
X82840017Y-103497637D01*
X82542637Y-103795017D01*
X82308988Y-104144698D01*
X82148047Y-104533244D01*
X82066000Y-104945721D01*
X82066000Y-105366279D01*
X82148047Y-105778756D01*
X82308988Y-106167302D01*
X82542637Y-106516983D01*
X82840017Y-106814363D01*
X83189698Y-107048012D01*
X83439000Y-107151276D01*
X83439000Y-107864632D01*
X83374254Y-107844992D01*
X83201000Y-107827928D01*
X82201000Y-107827928D01*
X82027746Y-107844992D01*
X81861150Y-107895528D01*
X81707614Y-107977595D01*
X81573038Y-108088038D01*
X81462595Y-108222614D01*
X81380528Y-108376150D01*
X81329992Y-108542746D01*
X81312928Y-108716000D01*
X81312928Y-110236000D01*
X81329992Y-110409254D01*
X81380528Y-110575850D01*
X81462595Y-110729386D01*
X81573038Y-110863962D01*
X81707614Y-110974405D01*
X81861150Y-111056472D01*
X82027746Y-111107008D01*
X82201000Y-111124072D01*
X83201000Y-111124072D01*
X83374254Y-111107008D01*
X83439000Y-111087368D01*
X83439000Y-117563207D01*
X83328325Y-117511280D01*
X82094605Y-118745000D01*
X83328325Y-119978720D01*
X83439000Y-119926793D01*
X83439000Y-122428000D01*
X76073000Y-122428000D01*
X76073000Y-120158325D01*
X77281280Y-120158325D01*
X77424052Y-120462625D01*
X77780107Y-120642455D01*
X78164402Y-120749366D01*
X78562171Y-120779251D01*
X78958128Y-120730961D01*
X79337055Y-120606352D01*
X79605948Y-120462625D01*
X79748720Y-120158325D01*
X80681280Y-120158325D01*
X80824052Y-120462625D01*
X81180107Y-120642455D01*
X81564402Y-120749366D01*
X81962171Y-120779251D01*
X82358128Y-120730961D01*
X82737055Y-120606352D01*
X83005948Y-120462625D01*
X83148720Y-120158325D01*
X81915000Y-118924605D01*
X80681280Y-120158325D01*
X79748720Y-120158325D01*
X78515000Y-118924605D01*
X77281280Y-120158325D01*
X76073000Y-120158325D01*
X76073000Y-118792171D01*
X76480749Y-118792171D01*
X76529039Y-119188128D01*
X76653648Y-119567055D01*
X76797375Y-119835948D01*
X77101675Y-119978720D01*
X78335395Y-118745000D01*
X78694605Y-118745000D01*
X79928325Y-119978720D01*
X80215000Y-119844217D01*
X80501675Y-119978720D01*
X81735395Y-118745000D01*
X80501675Y-117511280D01*
X80215000Y-117645783D01*
X79928325Y-117511280D01*
X78694605Y-118745000D01*
X78335395Y-118745000D01*
X77101675Y-117511280D01*
X76797375Y-117654052D01*
X76617545Y-118010107D01*
X76510634Y-118394402D01*
X76480749Y-118792171D01*
X76073000Y-118792171D01*
X76073000Y-117331675D01*
X77281280Y-117331675D01*
X78515000Y-118565395D01*
X79748720Y-117331675D01*
X80681280Y-117331675D01*
X81915000Y-118565395D01*
X83148720Y-117331675D01*
X83005948Y-117027375D01*
X82649893Y-116847545D01*
X82265598Y-116740634D01*
X81867829Y-116710749D01*
X81471872Y-116759039D01*
X81092945Y-116883648D01*
X80824052Y-117027375D01*
X80681280Y-117331675D01*
X79748720Y-117331675D01*
X79605948Y-117027375D01*
X79249893Y-116847545D01*
X78865598Y-116740634D01*
X78467829Y-116710749D01*
X78071872Y-116759039D01*
X77692945Y-116883648D01*
X77424052Y-117027375D01*
X77281280Y-117331675D01*
X76073000Y-117331675D01*
X76073000Y-115570000D01*
X76070560Y-115545224D01*
X76063333Y-115521399D01*
X76051597Y-115499443D01*
X76041577Y-115486370D01*
X72148028Y-111036600D01*
X72264386Y-110974405D01*
X72398962Y-110863962D01*
X72509405Y-110729386D01*
X72591472Y-110575850D01*
X72642008Y-110409254D01*
X72659072Y-110236000D01*
X72659072Y-109603000D01*
X72886000Y-109603000D01*
X72886000Y-109863000D01*
X72937389Y-110130760D01*
X73040028Y-110383349D01*
X73189972Y-110611061D01*
X73381460Y-110805145D01*
X73607132Y-110958142D01*
X73858316Y-111064173D01*
X73929815Y-111078318D01*
X74144000Y-110955656D01*
X74144000Y-109603000D01*
X74398000Y-109603000D01*
X74398000Y-110955656D01*
X74612185Y-111078318D01*
X74683684Y-111064173D01*
X74934868Y-110958142D01*
X75160540Y-110805145D01*
X75352028Y-110611061D01*
X75501972Y-110383349D01*
X75604611Y-110130760D01*
X75656000Y-109863000D01*
X75656000Y-109603000D01*
X74398000Y-109603000D01*
X74144000Y-109603000D01*
X72886000Y-109603000D01*
X72659072Y-109603000D01*
X72659072Y-109089000D01*
X72886000Y-109089000D01*
X72886000Y-109349000D01*
X74144000Y-109349000D01*
X74144000Y-107996344D01*
X74398000Y-107996344D01*
X74398000Y-109349000D01*
X75656000Y-109349000D01*
X75656000Y-109089000D01*
X75604611Y-108821240D01*
X75501972Y-108568651D01*
X75352028Y-108340939D01*
X75160540Y-108146855D01*
X74934868Y-107993858D01*
X74683684Y-107887827D01*
X74612185Y-107873682D01*
X74398000Y-107996344D01*
X74144000Y-107996344D01*
X73929815Y-107873682D01*
X73858316Y-107887827D01*
X73607132Y-107993858D01*
X73381460Y-108146855D01*
X73189972Y-108340939D01*
X73040028Y-108568651D01*
X72937389Y-108821240D01*
X72886000Y-109089000D01*
X72659072Y-109089000D01*
X72659072Y-108716000D01*
X72642008Y-108542746D01*
X72591472Y-108376150D01*
X72509405Y-108222614D01*
X72398962Y-108088038D01*
X72264386Y-107977595D01*
X72110850Y-107895528D01*
X71944254Y-107844992D01*
X71771000Y-107827928D01*
X71628000Y-107827928D01*
X71628000Y-106960014D01*
X71759698Y-107048012D01*
X72148244Y-107208953D01*
X72560721Y-107291000D01*
X72981279Y-107291000D01*
X73393756Y-107208953D01*
X73782302Y-107048012D01*
X74131983Y-106814363D01*
X74429363Y-106516983D01*
X74663012Y-106167302D01*
X74823953Y-105778756D01*
X74906000Y-105366279D01*
X74906000Y-104945721D01*
X74823953Y-104533244D01*
X74663012Y-104144698D01*
X74429363Y-103795017D01*
X74131983Y-103497637D01*
X73782302Y-103263988D01*
X73393756Y-103103047D01*
X72981279Y-103021000D01*
X72560721Y-103021000D01*
X72148244Y-103103047D01*
X71759698Y-103263988D01*
X71628000Y-103351986D01*
X71628000Y-100380000D01*
X83439000Y-100380000D01*
X83439000Y-103160724D01*
%TA.AperFunction,Conductor*%
D29*
G36*
X83439000Y-103160724D02*
G01*
X83189698Y-103263988D01*
X82840017Y-103497637D01*
X82542637Y-103795017D01*
X82308988Y-104144698D01*
X82148047Y-104533244D01*
X82066000Y-104945721D01*
X82066000Y-105366279D01*
X82148047Y-105778756D01*
X82308988Y-106167302D01*
X82542637Y-106516983D01*
X82840017Y-106814363D01*
X83189698Y-107048012D01*
X83439000Y-107151276D01*
X83439000Y-107864632D01*
X83374254Y-107844992D01*
X83201000Y-107827928D01*
X82201000Y-107827928D01*
X82027746Y-107844992D01*
X81861150Y-107895528D01*
X81707614Y-107977595D01*
X81573038Y-108088038D01*
X81462595Y-108222614D01*
X81380528Y-108376150D01*
X81329992Y-108542746D01*
X81312928Y-108716000D01*
X81312928Y-110236000D01*
X81329992Y-110409254D01*
X81380528Y-110575850D01*
X81462595Y-110729386D01*
X81573038Y-110863962D01*
X81707614Y-110974405D01*
X81861150Y-111056472D01*
X82027746Y-111107008D01*
X82201000Y-111124072D01*
X83201000Y-111124072D01*
X83374254Y-111107008D01*
X83439000Y-111087368D01*
X83439000Y-117563207D01*
X83328325Y-117511280D01*
X82094605Y-118745000D01*
X83328325Y-119978720D01*
X83439000Y-119926793D01*
X83439000Y-122428000D01*
X76073000Y-122428000D01*
X76073000Y-120158325D01*
X77281280Y-120158325D01*
X77424052Y-120462625D01*
X77780107Y-120642455D01*
X78164402Y-120749366D01*
X78562171Y-120779251D01*
X78958128Y-120730961D01*
X79337055Y-120606352D01*
X79605948Y-120462625D01*
X79748720Y-120158325D01*
X80681280Y-120158325D01*
X80824052Y-120462625D01*
X81180107Y-120642455D01*
X81564402Y-120749366D01*
X81962171Y-120779251D01*
X82358128Y-120730961D01*
X82737055Y-120606352D01*
X83005948Y-120462625D01*
X83148720Y-120158325D01*
X81915000Y-118924605D01*
X80681280Y-120158325D01*
X79748720Y-120158325D01*
X78515000Y-118924605D01*
X77281280Y-120158325D01*
X76073000Y-120158325D01*
X76073000Y-118792171D01*
X76480749Y-118792171D01*
X76529039Y-119188128D01*
X76653648Y-119567055D01*
X76797375Y-119835948D01*
X77101675Y-119978720D01*
X78335395Y-118745000D01*
X78694605Y-118745000D01*
X79928325Y-119978720D01*
X80215000Y-119844217D01*
X80501675Y-119978720D01*
X81735395Y-118745000D01*
X80501675Y-117511280D01*
X80215000Y-117645783D01*
X79928325Y-117511280D01*
X78694605Y-118745000D01*
X78335395Y-118745000D01*
X77101675Y-117511280D01*
X76797375Y-117654052D01*
X76617545Y-118010107D01*
X76510634Y-118394402D01*
X76480749Y-118792171D01*
X76073000Y-118792171D01*
X76073000Y-117331675D01*
X77281280Y-117331675D01*
X78515000Y-118565395D01*
X79748720Y-117331675D01*
X80681280Y-117331675D01*
X81915000Y-118565395D01*
X83148720Y-117331675D01*
X83005948Y-117027375D01*
X82649893Y-116847545D01*
X82265598Y-116740634D01*
X81867829Y-116710749D01*
X81471872Y-116759039D01*
X81092945Y-116883648D01*
X80824052Y-117027375D01*
X80681280Y-117331675D01*
X79748720Y-117331675D01*
X79605948Y-117027375D01*
X79249893Y-116847545D01*
X78865598Y-116740634D01*
X78467829Y-116710749D01*
X78071872Y-116759039D01*
X77692945Y-116883648D01*
X77424052Y-117027375D01*
X77281280Y-117331675D01*
X76073000Y-117331675D01*
X76073000Y-115570000D01*
X76070560Y-115545224D01*
X76063333Y-115521399D01*
X76051597Y-115499443D01*
X76041577Y-115486370D01*
X72148028Y-111036600D01*
X72264386Y-110974405D01*
X72398962Y-110863962D01*
X72509405Y-110729386D01*
X72591472Y-110575850D01*
X72642008Y-110409254D01*
X72659072Y-110236000D01*
X72659072Y-109603000D01*
X72886000Y-109603000D01*
X72886000Y-109863000D01*
X72937389Y-110130760D01*
X73040028Y-110383349D01*
X73189972Y-110611061D01*
X73381460Y-110805145D01*
X73607132Y-110958142D01*
X73858316Y-111064173D01*
X73929815Y-111078318D01*
X74144000Y-110955656D01*
X74144000Y-109603000D01*
X74398000Y-109603000D01*
X74398000Y-110955656D01*
X74612185Y-111078318D01*
X74683684Y-111064173D01*
X74934868Y-110958142D01*
X75160540Y-110805145D01*
X75352028Y-110611061D01*
X75501972Y-110383349D01*
X75604611Y-110130760D01*
X75656000Y-109863000D01*
X75656000Y-109603000D01*
X74398000Y-109603000D01*
X74144000Y-109603000D01*
X72886000Y-109603000D01*
X72659072Y-109603000D01*
X72659072Y-109089000D01*
X72886000Y-109089000D01*
X72886000Y-109349000D01*
X74144000Y-109349000D01*
X74144000Y-107996344D01*
X74398000Y-107996344D01*
X74398000Y-109349000D01*
X75656000Y-109349000D01*
X75656000Y-109089000D01*
X75604611Y-108821240D01*
X75501972Y-108568651D01*
X75352028Y-108340939D01*
X75160540Y-108146855D01*
X74934868Y-107993858D01*
X74683684Y-107887827D01*
X74612185Y-107873682D01*
X74398000Y-107996344D01*
X74144000Y-107996344D01*
X73929815Y-107873682D01*
X73858316Y-107887827D01*
X73607132Y-107993858D01*
X73381460Y-108146855D01*
X73189972Y-108340939D01*
X73040028Y-108568651D01*
X72937389Y-108821240D01*
X72886000Y-109089000D01*
X72659072Y-109089000D01*
X72659072Y-108716000D01*
X72642008Y-108542746D01*
X72591472Y-108376150D01*
X72509405Y-108222614D01*
X72398962Y-108088038D01*
X72264386Y-107977595D01*
X72110850Y-107895528D01*
X71944254Y-107844992D01*
X71771000Y-107827928D01*
X71628000Y-107827928D01*
X71628000Y-106960014D01*
X71759698Y-107048012D01*
X72148244Y-107208953D01*
X72560721Y-107291000D01*
X72981279Y-107291000D01*
X73393756Y-107208953D01*
X73782302Y-107048012D01*
X74131983Y-106814363D01*
X74429363Y-106516983D01*
X74663012Y-106167302D01*
X74823953Y-105778756D01*
X74906000Y-105366279D01*
X74906000Y-104945721D01*
X74823953Y-104533244D01*
X74663012Y-104144698D01*
X74429363Y-103795017D01*
X74131983Y-103497637D01*
X73782302Y-103263988D01*
X73393756Y-103103047D01*
X72981279Y-103021000D01*
X72560721Y-103021000D01*
X72148244Y-103103047D01*
X71759698Y-103263988D01*
X71628000Y-103351986D01*
X71628000Y-100380000D01*
X83439000Y-100380000D01*
X83439000Y-103160724D01*
G37*
%TD.AperFunction*%
%TD*%
D28*
%TO.N,Net-(F1-Pad1)*%
X69469000Y-110490000D02*
X69471440Y-110514776D01*
X69478667Y-110538601D01*
X69490403Y-110560557D01*
X69501079Y-110574374D01*
X74549000Y-116253285D01*
X74549000Y-117563207D01*
X74438325Y-117511280D01*
X73204605Y-118745000D01*
X74438325Y-119978720D01*
X74549000Y-119926793D01*
X74549000Y-122428000D01*
X65869060Y-122428000D01*
X64876078Y-120158325D01*
X68391280Y-120158325D01*
X68534052Y-120462625D01*
X68890107Y-120642455D01*
X69274402Y-120749366D01*
X69672171Y-120779251D01*
X70068128Y-120730961D01*
X70447055Y-120606352D01*
X70715948Y-120462625D01*
X70858720Y-120158325D01*
X71791280Y-120158325D01*
X71934052Y-120462625D01*
X72290107Y-120642455D01*
X72674402Y-120749366D01*
X73072171Y-120779251D01*
X73468128Y-120730961D01*
X73847055Y-120606352D01*
X74115948Y-120462625D01*
X74258720Y-120158325D01*
X73025000Y-118924605D01*
X71791280Y-120158325D01*
X70858720Y-120158325D01*
X69625000Y-118924605D01*
X68391280Y-120158325D01*
X64876078Y-120158325D01*
X64278385Y-118792171D01*
X67590749Y-118792171D01*
X67639039Y-119188128D01*
X67763648Y-119567055D01*
X67907375Y-119835948D01*
X68211675Y-119978720D01*
X69445395Y-118745000D01*
X69804605Y-118745000D01*
X71038325Y-119978720D01*
X71325000Y-119844217D01*
X71611675Y-119978720D01*
X72845395Y-118745000D01*
X71611675Y-117511280D01*
X71325000Y-117645783D01*
X71038325Y-117511280D01*
X69804605Y-118745000D01*
X69445395Y-118745000D01*
X68211675Y-117511280D01*
X67907375Y-117654052D01*
X67727545Y-118010107D01*
X67620634Y-118394402D01*
X67590749Y-118792171D01*
X64278385Y-118792171D01*
X63639418Y-117331675D01*
X68391280Y-117331675D01*
X69625000Y-118565395D01*
X70858720Y-117331675D01*
X71791280Y-117331675D01*
X73025000Y-118565395D01*
X74258720Y-117331675D01*
X74115948Y-117027375D01*
X73759893Y-116847545D01*
X73375598Y-116740634D01*
X72977829Y-116710749D01*
X72581872Y-116759039D01*
X72202945Y-116883648D01*
X71934052Y-117027375D01*
X71791280Y-117331675D01*
X70858720Y-117331675D01*
X70715948Y-117027375D01*
X70359893Y-116847545D01*
X69975598Y-116740634D01*
X69577829Y-116710749D01*
X69181872Y-116759039D01*
X68802945Y-116883648D01*
X68534052Y-117027375D01*
X68391280Y-117331675D01*
X63639418Y-117331675D01*
X61468000Y-112368434D01*
X61468000Y-110967341D01*
X61476767Y-110958574D01*
X61683261Y-110706961D01*
X61745924Y-110589727D01*
X61759972Y-110611061D01*
X61951460Y-110805145D01*
X62177132Y-110958142D01*
X62428316Y-111064173D01*
X62499815Y-111078318D01*
X62714000Y-110955656D01*
X62714000Y-109603000D01*
X62968000Y-109603000D01*
X62968000Y-110955656D01*
X63182185Y-111078318D01*
X63253684Y-111064173D01*
X63504868Y-110958142D01*
X63730540Y-110805145D01*
X63922028Y-110611061D01*
X64071972Y-110383349D01*
X64174611Y-110130760D01*
X64226000Y-109863000D01*
X64226000Y-109603000D01*
X62968000Y-109603000D01*
X62714000Y-109603000D01*
X62694000Y-109603000D01*
X62694000Y-109349000D01*
X62714000Y-109349000D01*
X62714000Y-107996344D01*
X62968000Y-107996344D01*
X62968000Y-109349000D01*
X64226000Y-109349000D01*
X64226000Y-109089000D01*
X64174611Y-108821240D01*
X64071972Y-108568651D01*
X63922028Y-108340939D01*
X63730540Y-108146855D01*
X63504868Y-107993858D01*
X63253684Y-107887827D01*
X63182185Y-107873682D01*
X62968000Y-107996344D01*
X62714000Y-107996344D01*
X62499815Y-107873682D01*
X62428316Y-107887827D01*
X62177132Y-107993858D01*
X61951460Y-108146855D01*
X61759972Y-108340939D01*
X61745923Y-108362274D01*
X61683261Y-108245041D01*
X61468000Y-107982745D01*
X61468000Y-107291000D01*
X61551279Y-107291000D01*
X61963756Y-107208953D01*
X62352302Y-107048012D01*
X62701983Y-106814363D01*
X62999363Y-106516983D01*
X63233012Y-106167302D01*
X63393953Y-105778756D01*
X63476000Y-105366279D01*
X63476000Y-104945721D01*
X63393953Y-104533244D01*
X63233012Y-104144698D01*
X62999363Y-103795017D01*
X62701983Y-103497637D01*
X62352302Y-103263988D01*
X61963756Y-103103047D01*
X61551279Y-103021000D01*
X61468000Y-103021000D01*
X61468000Y-100380000D01*
X69469000Y-100380000D01*
X69469000Y-110490000D01*
%TA.AperFunction,Conductor*%
D29*
G36*
X69469000Y-110490000D02*
G01*
X69471440Y-110514776D01*
X69478667Y-110538601D01*
X69490403Y-110560557D01*
X69501079Y-110574374D01*
X74549000Y-116253285D01*
X74549000Y-117563207D01*
X74438325Y-117511280D01*
X73204605Y-118745000D01*
X74438325Y-119978720D01*
X74549000Y-119926793D01*
X74549000Y-122428000D01*
X65869060Y-122428000D01*
X64876078Y-120158325D01*
X68391280Y-120158325D01*
X68534052Y-120462625D01*
X68890107Y-120642455D01*
X69274402Y-120749366D01*
X69672171Y-120779251D01*
X70068128Y-120730961D01*
X70447055Y-120606352D01*
X70715948Y-120462625D01*
X70858720Y-120158325D01*
X71791280Y-120158325D01*
X71934052Y-120462625D01*
X72290107Y-120642455D01*
X72674402Y-120749366D01*
X73072171Y-120779251D01*
X73468128Y-120730961D01*
X73847055Y-120606352D01*
X74115948Y-120462625D01*
X74258720Y-120158325D01*
X73025000Y-118924605D01*
X71791280Y-120158325D01*
X70858720Y-120158325D01*
X69625000Y-118924605D01*
X68391280Y-120158325D01*
X64876078Y-120158325D01*
X64278385Y-118792171D01*
X67590749Y-118792171D01*
X67639039Y-119188128D01*
X67763648Y-119567055D01*
X67907375Y-119835948D01*
X68211675Y-119978720D01*
X69445395Y-118745000D01*
X69804605Y-118745000D01*
X71038325Y-119978720D01*
X71325000Y-119844217D01*
X71611675Y-119978720D01*
X72845395Y-118745000D01*
X71611675Y-117511280D01*
X71325000Y-117645783D01*
X71038325Y-117511280D01*
X69804605Y-118745000D01*
X69445395Y-118745000D01*
X68211675Y-117511280D01*
X67907375Y-117654052D01*
X67727545Y-118010107D01*
X67620634Y-118394402D01*
X67590749Y-118792171D01*
X64278385Y-118792171D01*
X63639418Y-117331675D01*
X68391280Y-117331675D01*
X69625000Y-118565395D01*
X70858720Y-117331675D01*
X71791280Y-117331675D01*
X73025000Y-118565395D01*
X74258720Y-117331675D01*
X74115948Y-117027375D01*
X73759893Y-116847545D01*
X73375598Y-116740634D01*
X72977829Y-116710749D01*
X72581872Y-116759039D01*
X72202945Y-116883648D01*
X71934052Y-117027375D01*
X71791280Y-117331675D01*
X70858720Y-117331675D01*
X70715948Y-117027375D01*
X70359893Y-116847545D01*
X69975598Y-116740634D01*
X69577829Y-116710749D01*
X69181872Y-116759039D01*
X68802945Y-116883648D01*
X68534052Y-117027375D01*
X68391280Y-117331675D01*
X63639418Y-117331675D01*
X61468000Y-112368434D01*
X61468000Y-110967341D01*
X61476767Y-110958574D01*
X61683261Y-110706961D01*
X61745924Y-110589727D01*
X61759972Y-110611061D01*
X61951460Y-110805145D01*
X62177132Y-110958142D01*
X62428316Y-111064173D01*
X62499815Y-111078318D01*
X62714000Y-110955656D01*
X62714000Y-109603000D01*
X62968000Y-109603000D01*
X62968000Y-110955656D01*
X63182185Y-111078318D01*
X63253684Y-111064173D01*
X63504868Y-110958142D01*
X63730540Y-110805145D01*
X63922028Y-110611061D01*
X64071972Y-110383349D01*
X64174611Y-110130760D01*
X64226000Y-109863000D01*
X64226000Y-109603000D01*
X62968000Y-109603000D01*
X62714000Y-109603000D01*
X62694000Y-109603000D01*
X62694000Y-109349000D01*
X62714000Y-109349000D01*
X62714000Y-107996344D01*
X62968000Y-107996344D01*
X62968000Y-109349000D01*
X64226000Y-109349000D01*
X64226000Y-109089000D01*
X64174611Y-108821240D01*
X64071972Y-108568651D01*
X63922028Y-108340939D01*
X63730540Y-108146855D01*
X63504868Y-107993858D01*
X63253684Y-107887827D01*
X63182185Y-107873682D01*
X62968000Y-107996344D01*
X62714000Y-107996344D01*
X62499815Y-107873682D01*
X62428316Y-107887827D01*
X62177132Y-107993858D01*
X61951460Y-108146855D01*
X61759972Y-108340939D01*
X61745923Y-108362274D01*
X61683261Y-108245041D01*
X61468000Y-107982745D01*
X61468000Y-107291000D01*
X61551279Y-107291000D01*
X61963756Y-107208953D01*
X62352302Y-107048012D01*
X62701983Y-106814363D01*
X62999363Y-106516983D01*
X63233012Y-106167302D01*
X63393953Y-105778756D01*
X63476000Y-105366279D01*
X63476000Y-104945721D01*
X63393953Y-104533244D01*
X63233012Y-104144698D01*
X62999363Y-103795017D01*
X62701983Y-103497637D01*
X62352302Y-103263988D01*
X61963756Y-103103047D01*
X61551279Y-103021000D01*
X61468000Y-103021000D01*
X61468000Y-100380000D01*
X69469000Y-100380000D01*
X69469000Y-110490000D01*
G37*
%TD.AperFunction*%
%TD*%
M02*
