%TF.GenerationSoftware,KiCad,Pcbnew,(5.1.9-0-10_14)*%
%TF.CreationDate,2022-05-15T18:46:11-07:00*%
%TF.ProjectId,PROTO_PCB_2022,50524f54-4f5f-4504-9342-5f323032322e,rev?*%
%TF.SameCoordinates,Original*%
%TF.FileFunction,Soldermask,Top*%
%TF.FilePolarity,Negative*%
%FSLAX46Y46*%
G04 Gerber Fmt 4.6, Leading zero omitted, Abs format (unit mm)*
G04 Created by KiCad (PCBNEW (5.1.9-0-10_14)) date 2022-05-15 18:46:11*
%MOMM*%
%LPD*%
G01*
G04 APERTURE LIST*
%ADD10C,0.010000*%
%ADD11C,1.226200*%
%ADD12C,1.626200*%
%ADD13R,5.800000X6.400000*%
%ADD14R,1.200000X2.200000*%
%ADD15R,6.400000X5.800000*%
%ADD16R,2.200000X1.200000*%
%ADD17O,1.500000X2.020000*%
%ADD18C,3.000000*%
%ADD19C,3.100000*%
%ADD20C,2.780000*%
%ADD21C,4.000000*%
%ADD22R,1.800000X3.400000*%
G04 APERTURE END LIST*
D10*
%TO.C,J1*%
G36*
X62567200Y-125138800D02*
G01*
X62567200Y-127591200D01*
X60114800Y-127591200D01*
X60114800Y-125138800D01*
X62567200Y-125138800D01*
G37*
X62567200Y-125138800D02*
X62567200Y-127591200D01*
X60114800Y-127591200D01*
X60114800Y-125138800D01*
X62567200Y-125138800D01*
D11*
X61954100Y-120665000D02*
G75*
G03*
X61954100Y-120665000I-613100J0D01*
G01*
D12*
X54854100Y-123515000D02*
G75*
G03*
X54854100Y-123515000I-813100J0D01*
G01*
%TD*%
D13*
%TO.C,Q2*%
X117602000Y-118296000D03*
D14*
X119882000Y-124596000D03*
X117602000Y-124596000D03*
X115322000Y-124596000D03*
%TD*%
D15*
%TO.C,Q1*%
X46541000Y-135890000D03*
D16*
X52841000Y-133610000D03*
X52841000Y-135890000D03*
X52841000Y-138170000D03*
%TD*%
%TO.C,R1*%
G36*
G01*
X43697999Y-111517000D02*
X44948001Y-111517000D01*
G75*
G02*
X45198000Y-111766999I0J-249999D01*
G01*
X45198000Y-112392001D01*
G75*
G02*
X44948001Y-112642000I-249999J0D01*
G01*
X43697999Y-112642000D01*
G75*
G02*
X43448000Y-112392001I0J249999D01*
G01*
X43448000Y-111766999D01*
G75*
G02*
X43697999Y-111517000I249999J0D01*
G01*
G37*
G36*
G01*
X43697999Y-108592000D02*
X44948001Y-108592000D01*
G75*
G02*
X45198000Y-108841999I0J-249999D01*
G01*
X45198000Y-109467001D01*
G75*
G02*
X44948001Y-109717000I-249999J0D01*
G01*
X43697999Y-109717000D01*
G75*
G02*
X43448000Y-109467001I0J249999D01*
G01*
X43448000Y-108841999D01*
G75*
G02*
X43697999Y-108592000I249999J0D01*
G01*
G37*
%TD*%
%TO.C,L2*%
G36*
G01*
X48758000Y-109842000D02*
X47508000Y-109842000D01*
G75*
G02*
X47258000Y-109592000I0J250000D01*
G01*
X47258000Y-108842000D01*
G75*
G02*
X47508000Y-108592000I250000J0D01*
G01*
X48758000Y-108592000D01*
G75*
G02*
X49008000Y-108842000I0J-250000D01*
G01*
X49008000Y-109592000D01*
G75*
G02*
X48758000Y-109842000I-250000J0D01*
G01*
G37*
G36*
G01*
X48758000Y-112642000D02*
X47508000Y-112642000D01*
G75*
G02*
X47258000Y-112392000I0J250000D01*
G01*
X47258000Y-111642000D01*
G75*
G02*
X47508000Y-111392000I250000J0D01*
G01*
X48758000Y-111392000D01*
G75*
G02*
X49008000Y-111642000I0J-250000D01*
G01*
X49008000Y-112392000D01*
G75*
G02*
X48758000Y-112642000I-250000J0D01*
G01*
G37*
%TD*%
D17*
%TO.C,J10*%
X74271000Y-109476000D03*
G36*
G01*
X70521000Y-110236000D02*
X70521000Y-108716000D01*
G75*
G02*
X70771000Y-108466000I250000J0D01*
G01*
X71771000Y-108466000D01*
G75*
G02*
X72021000Y-108716000I0J-250000D01*
G01*
X72021000Y-110236000D01*
G75*
G02*
X71771000Y-110486000I-250000J0D01*
G01*
X70771000Y-110486000D01*
G75*
G02*
X70521000Y-110236000I0J250000D01*
G01*
G37*
D18*
X72771000Y-105156000D03*
%TD*%
D19*
%TO.C,J1*%
X54041000Y-123515000D03*
%TD*%
D20*
%TO.C,F5*%
X78515000Y-128665000D03*
X81915000Y-128665000D03*
X78515000Y-118745000D03*
X81915000Y-118745000D03*
%TD*%
%TO.C,R6*%
G36*
G01*
X124577001Y-133974000D02*
X123326999Y-133974000D01*
G75*
G02*
X123077000Y-133724001I0J249999D01*
G01*
X123077000Y-133098999D01*
G75*
G02*
X123326999Y-132849000I249999J0D01*
G01*
X124577001Y-132849000D01*
G75*
G02*
X124827000Y-133098999I0J-249999D01*
G01*
X124827000Y-133724001D01*
G75*
G02*
X124577001Y-133974000I-249999J0D01*
G01*
G37*
G36*
G01*
X124577001Y-136899000D02*
X123326999Y-136899000D01*
G75*
G02*
X123077000Y-136649001I0J249999D01*
G01*
X123077000Y-136023999D01*
G75*
G02*
X123326999Y-135774000I249999J0D01*
G01*
X124577001Y-135774000D01*
G75*
G02*
X124827000Y-136023999I0J-249999D01*
G01*
X124827000Y-136649001D01*
G75*
G02*
X124577001Y-136899000I-249999J0D01*
G01*
G37*
%TD*%
%TO.C,L4*%
G36*
G01*
X118631000Y-135753000D02*
X118631000Y-134503000D01*
G75*
G02*
X118881000Y-134253000I250000J0D01*
G01*
X119631000Y-134253000D01*
G75*
G02*
X119881000Y-134503000I0J-250000D01*
G01*
X119881000Y-135753000D01*
G75*
G02*
X119631000Y-136003000I-250000J0D01*
G01*
X118881000Y-136003000D01*
G75*
G02*
X118631000Y-135753000I0J250000D01*
G01*
G37*
G36*
G01*
X115831000Y-135753000D02*
X115831000Y-134503000D01*
G75*
G02*
X116081000Y-134253000I250000J0D01*
G01*
X116831000Y-134253000D01*
G75*
G02*
X117081000Y-134503000I0J-250000D01*
G01*
X117081000Y-135753000D01*
G75*
G02*
X116831000Y-136003000I-250000J0D01*
G01*
X116081000Y-136003000D01*
G75*
G02*
X115831000Y-135753000I0J250000D01*
G01*
G37*
%TD*%
%TO.C,F3*%
X96295000Y-128665000D03*
X99695000Y-128665000D03*
X96295000Y-118745000D03*
X99695000Y-118745000D03*
%TD*%
D17*
%TO.C,J12*%
X119991000Y-109476000D03*
G36*
G01*
X116241000Y-110236000D02*
X116241000Y-108716000D01*
G75*
G02*
X116491000Y-108466000I250000J0D01*
G01*
X117491000Y-108466000D01*
G75*
G02*
X117741000Y-108716000I0J-250000D01*
G01*
X117741000Y-110236000D01*
G75*
G02*
X117491000Y-110486000I-250000J0D01*
G01*
X116491000Y-110486000D01*
G75*
G02*
X116241000Y-110236000I0J250000D01*
G01*
G37*
D18*
X118491000Y-105156000D03*
%TD*%
D17*
%TO.C,J11*%
X116126000Y-140208000D03*
G36*
G01*
X119876000Y-139448000D02*
X119876000Y-140968000D01*
G75*
G02*
X119626000Y-141218000I-250000J0D01*
G01*
X118626000Y-141218000D01*
G75*
G02*
X118376000Y-140968000I0J250000D01*
G01*
X118376000Y-139448000D01*
G75*
G02*
X118626000Y-139198000I250000J0D01*
G01*
X119626000Y-139198000D01*
G75*
G02*
X119876000Y-139448000I0J-250000D01*
G01*
G37*
D18*
X117626000Y-144528000D03*
%TD*%
D17*
%TO.C,J8*%
X97131000Y-109476000D03*
G36*
G01*
X93381000Y-110236000D02*
X93381000Y-108716000D01*
G75*
G02*
X93631000Y-108466000I250000J0D01*
G01*
X94631000Y-108466000D01*
G75*
G02*
X94881000Y-108716000I0J-250000D01*
G01*
X94881000Y-110236000D01*
G75*
G02*
X94631000Y-110486000I-250000J0D01*
G01*
X93631000Y-110486000D01*
G75*
G02*
X93381000Y-110236000I0J250000D01*
G01*
G37*
D18*
X95631000Y-105156000D03*
%TD*%
D17*
%TO.C,J9*%
X108561000Y-109476000D03*
G36*
G01*
X104811000Y-110236000D02*
X104811000Y-108716000D01*
G75*
G02*
X105061000Y-108466000I250000J0D01*
G01*
X106061000Y-108466000D01*
G75*
G02*
X106311000Y-108716000I0J-250000D01*
G01*
X106311000Y-110236000D01*
G75*
G02*
X106061000Y-110486000I-250000J0D01*
G01*
X105061000Y-110486000D01*
G75*
G02*
X104811000Y-110236000I0J250000D01*
G01*
G37*
D18*
X107061000Y-105156000D03*
%TD*%
D17*
%TO.C,J6*%
X85701000Y-109476000D03*
G36*
G01*
X81951000Y-110236000D02*
X81951000Y-108716000D01*
G75*
G02*
X82201000Y-108466000I250000J0D01*
G01*
X83201000Y-108466000D01*
G75*
G02*
X83451000Y-108716000I0J-250000D01*
G01*
X83451000Y-110236000D01*
G75*
G02*
X83201000Y-110486000I-250000J0D01*
G01*
X82201000Y-110486000D01*
G75*
G02*
X81951000Y-110236000I0J250000D01*
G01*
G37*
D18*
X84201000Y-105156000D03*
%TD*%
D17*
%TO.C,J7*%
X104188000Y-140208000D03*
G36*
G01*
X107938000Y-139448000D02*
X107938000Y-140968000D01*
G75*
G02*
X107688000Y-141218000I-250000J0D01*
G01*
X106688000Y-141218000D01*
G75*
G02*
X106438000Y-140968000I0J250000D01*
G01*
X106438000Y-139448000D01*
G75*
G02*
X106688000Y-139198000I250000J0D01*
G01*
X107688000Y-139198000D01*
G75*
G02*
X107938000Y-139448000I0J-250000D01*
G01*
G37*
D18*
X105688000Y-144528000D03*
%TD*%
D17*
%TO.C,J5*%
X62841000Y-109476000D03*
G36*
G01*
X59091000Y-110236000D02*
X59091000Y-108716000D01*
G75*
G02*
X59341000Y-108466000I250000J0D01*
G01*
X60341000Y-108466000D01*
G75*
G02*
X60591000Y-108716000I0J-250000D01*
G01*
X60591000Y-110236000D01*
G75*
G02*
X60341000Y-110486000I-250000J0D01*
G01*
X59341000Y-110486000D01*
G75*
G02*
X59091000Y-110236000I0J250000D01*
G01*
G37*
D18*
X61341000Y-105156000D03*
%TD*%
D17*
%TO.C,J4*%
X67231000Y-140208000D03*
G36*
G01*
X70981000Y-139448000D02*
X70981000Y-140968000D01*
G75*
G02*
X70731000Y-141218000I-250000J0D01*
G01*
X69731000Y-141218000D01*
G75*
G02*
X69481000Y-140968000I0J250000D01*
G01*
X69481000Y-139448000D01*
G75*
G02*
X69731000Y-139198000I250000J0D01*
G01*
X70731000Y-139198000D01*
G75*
G02*
X70981000Y-139448000I0J-250000D01*
G01*
G37*
D18*
X68731000Y-144528000D03*
%TD*%
D17*
%TO.C,J3*%
X78891000Y-140208000D03*
G36*
G01*
X82641000Y-139448000D02*
X82641000Y-140968000D01*
G75*
G02*
X82391000Y-141218000I-250000J0D01*
G01*
X81391000Y-141218000D01*
G75*
G02*
X81141000Y-140968000I0J250000D01*
G01*
X81141000Y-139448000D01*
G75*
G02*
X81391000Y-139198000I250000J0D01*
G01*
X82391000Y-139198000D01*
G75*
G02*
X82641000Y-139448000I0J-250000D01*
G01*
G37*
D18*
X80391000Y-144528000D03*
%TD*%
D17*
%TO.C,J2*%
X90345000Y-140208000D03*
G36*
G01*
X94095000Y-139448000D02*
X94095000Y-140968000D01*
G75*
G02*
X93845000Y-141218000I-250000J0D01*
G01*
X92845000Y-141218000D01*
G75*
G02*
X92595000Y-140968000I0J250000D01*
G01*
X92595000Y-139448000D01*
G75*
G02*
X92845000Y-139198000I250000J0D01*
G01*
X93845000Y-139198000D01*
G75*
G02*
X94095000Y-139448000I0J-250000D01*
G01*
G37*
D18*
X91845000Y-144528000D03*
%TD*%
D21*
%TO.C,H4*%
X128016000Y-145415000D03*
%TD*%
%TO.C,H3*%
X128016000Y-104140000D03*
%TD*%
%TO.C,H2*%
X46101000Y-145415000D03*
%TD*%
%TO.C,H1*%
X46101000Y-104140000D03*
%TD*%
D20*
%TO.C,F4*%
X105185000Y-128665000D03*
X108585000Y-128665000D03*
X105185000Y-118745000D03*
X108585000Y-118745000D03*
%TD*%
%TO.C,F2*%
X87405000Y-128792000D03*
X90805000Y-128792000D03*
X87405000Y-118872000D03*
X90805000Y-118872000D03*
%TD*%
%TO.C,F1*%
X69625000Y-128665000D03*
X73025000Y-128665000D03*
X69625000Y-118745000D03*
X73025000Y-118745000D03*
%TD*%
%TO.C,L3*%
G36*
G01*
X105397000Y-134757000D02*
X105397000Y-136007000D01*
G75*
G02*
X105147000Y-136257000I-250000J0D01*
G01*
X104397000Y-136257000D01*
G75*
G02*
X104147000Y-136007000I0J250000D01*
G01*
X104147000Y-134757000D01*
G75*
G02*
X104397000Y-134507000I250000J0D01*
G01*
X105147000Y-134507000D01*
G75*
G02*
X105397000Y-134757000I0J-250000D01*
G01*
G37*
G36*
G01*
X108197000Y-134757000D02*
X108197000Y-136007000D01*
G75*
G02*
X107947000Y-136257000I-250000J0D01*
G01*
X107197000Y-136257000D01*
G75*
G02*
X106947000Y-136007000I0J250000D01*
G01*
X106947000Y-134757000D01*
G75*
G02*
X107197000Y-134507000I250000J0D01*
G01*
X107947000Y-134507000D01*
G75*
G02*
X108197000Y-134757000I0J-250000D01*
G01*
G37*
%TD*%
%TO.C,L1*%
G36*
G01*
X81163000Y-136007000D02*
X81163000Y-134757000D01*
G75*
G02*
X81413000Y-134507000I250000J0D01*
G01*
X82163000Y-134507000D01*
G75*
G02*
X82413000Y-134757000I0J-250000D01*
G01*
X82413000Y-136007000D01*
G75*
G02*
X82163000Y-136257000I-250000J0D01*
G01*
X81413000Y-136257000D01*
G75*
G02*
X81163000Y-136007000I0J250000D01*
G01*
G37*
G36*
G01*
X78363000Y-136007000D02*
X78363000Y-134757000D01*
G75*
G02*
X78613000Y-134507000I250000J0D01*
G01*
X79363000Y-134507000D01*
G75*
G02*
X79613000Y-134757000I0J-250000D01*
G01*
X79613000Y-136007000D01*
G75*
G02*
X79363000Y-136257000I-250000J0D01*
G01*
X78613000Y-136257000D01*
G75*
G02*
X78363000Y-136007000I0J250000D01*
G01*
G37*
%TD*%
%TO.C,R5*%
G36*
G01*
X118246999Y-129743500D02*
X119497001Y-129743500D01*
G75*
G02*
X119747000Y-129993499I0J-249999D01*
G01*
X119747000Y-130618501D01*
G75*
G02*
X119497001Y-130868500I-249999J0D01*
G01*
X118246999Y-130868500D01*
G75*
G02*
X117997000Y-130618501I0J249999D01*
G01*
X117997000Y-129993499D01*
G75*
G02*
X118246999Y-129743500I249999J0D01*
G01*
G37*
G36*
G01*
X118246999Y-126818500D02*
X119497001Y-126818500D01*
G75*
G02*
X119747000Y-127068499I0J-249999D01*
G01*
X119747000Y-127693501D01*
G75*
G02*
X119497001Y-127943500I-249999J0D01*
G01*
X118246999Y-127943500D01*
G75*
G02*
X117997000Y-127693501I0J249999D01*
G01*
X117997000Y-127068499D01*
G75*
G02*
X118246999Y-126818500I249999J0D01*
G01*
G37*
%TD*%
%TO.C,R4*%
G36*
G01*
X116195001Y-128132000D02*
X114944999Y-128132000D01*
G75*
G02*
X114695000Y-127882001I0J249999D01*
G01*
X114695000Y-127256999D01*
G75*
G02*
X114944999Y-127007000I249999J0D01*
G01*
X116195001Y-127007000D01*
G75*
G02*
X116445000Y-127256999I0J-249999D01*
G01*
X116445000Y-127882001D01*
G75*
G02*
X116195001Y-128132000I-249999J0D01*
G01*
G37*
G36*
G01*
X116195001Y-131057000D02*
X114944999Y-131057000D01*
G75*
G02*
X114695000Y-130807001I0J249999D01*
G01*
X114695000Y-130181999D01*
G75*
G02*
X114944999Y-129932000I249999J0D01*
G01*
X116195001Y-129932000D01*
G75*
G02*
X116445000Y-130181999I0J-249999D01*
G01*
X116445000Y-130807001D01*
G75*
G02*
X116195001Y-131057000I-249999J0D01*
G01*
G37*
%TD*%
%TO.C,R3*%
G36*
G01*
X57988500Y-135245001D02*
X57988500Y-133994999D01*
G75*
G02*
X58238499Y-133745000I249999J0D01*
G01*
X58863501Y-133745000D01*
G75*
G02*
X59113500Y-133994999I0J-249999D01*
G01*
X59113500Y-135245001D01*
G75*
G02*
X58863501Y-135495000I-249999J0D01*
G01*
X58238499Y-135495000D01*
G75*
G02*
X57988500Y-135245001I0J249999D01*
G01*
G37*
G36*
G01*
X55063500Y-135245001D02*
X55063500Y-133994999D01*
G75*
G02*
X55313499Y-133745000I249999J0D01*
G01*
X55938501Y-133745000D01*
G75*
G02*
X56188500Y-133994999I0J-249999D01*
G01*
X56188500Y-135245001D01*
G75*
G02*
X55938501Y-135495000I-249999J0D01*
G01*
X55313499Y-135495000D01*
G75*
G02*
X55063500Y-135245001I0J249999D01*
G01*
G37*
%TD*%
%TO.C,R2*%
G36*
G01*
X56250000Y-136788999D02*
X56250000Y-138039001D01*
G75*
G02*
X56000001Y-138289000I-249999J0D01*
G01*
X55374999Y-138289000D01*
G75*
G02*
X55125000Y-138039001I0J249999D01*
G01*
X55125000Y-136788999D01*
G75*
G02*
X55374999Y-136539000I249999J0D01*
G01*
X56000001Y-136539000D01*
G75*
G02*
X56250000Y-136788999I0J-249999D01*
G01*
G37*
G36*
G01*
X59175000Y-136788999D02*
X59175000Y-138039001D01*
G75*
G02*
X58925001Y-138289000I-249999J0D01*
G01*
X58299999Y-138289000D01*
G75*
G02*
X58050000Y-138039001I0J249999D01*
G01*
X58050000Y-136788999D01*
G75*
G02*
X58299999Y-136539000I249999J0D01*
G01*
X58925001Y-136539000D01*
G75*
G02*
X59175000Y-136788999I0J-249999D01*
G01*
G37*
%TD*%
D22*
%TO.C,TP2*%
X52832000Y-104140000D03*
%TD*%
%TO.C,TP1*%
X52832000Y-110490000D03*
%TD*%
M02*
