M48
; DRILL file {KiCad (6.0.4)} date Tue May 16 23:10:00 2023
; FORMAT={-:-/ absolute / metric / decimal}
; #@! TF.CreationDate,2023-05-16T23:10:00-04:00
; #@! TF.GenerationSoftware,Kicad,Pcbnew,(6.0.4)
; #@! TF.FileFunction,Plated,1,2,PTH
FMAT,2
METRIC
; #@! TA.AperFunction,Plated,PTH,ComponentDrill
T1C0.890
; #@! TA.AperFunction,Plated,PTH,ComponentDrill
T2C1.000
; #@! TA.AperFunction,Plated,PTH,ComponentDrill
T3C1.020
; #@! TA.AperFunction,Plated,PTH,ViaDrill
T4C1.100
; #@! TA.AperFunction,Plated,PTH,ComponentDrill
T5C1.570
; #@! TA.AperFunction,Plated,PTH,ComponentDrill
T6C1.780
; #@! TA.AperFunction,Plated,PTH,ComponentDrill
T7C1.800
; #@! TA.AperFunction,Plated,PTH,ComponentDrill
T8C3.200
%
G90
G05
T1
X98.679Y-139.19
X99.695Y-140.97
X100.711Y-139.19
X101.727Y-140.97
X102.743Y-139.19
X103.759Y-140.97
X104.775Y-139.19
X105.791Y-140.97
T2
X118.491Y-116.84
X118.491Y-119.38
T3
X59.841Y-109.476
X62.841Y-109.476
X67.231Y-140.208
X70.231Y-140.208
X71.271Y-109.476
X74.271Y-109.476
X78.891Y-140.208
X81.891Y-140.208
X85.876Y-109.38
X88.876Y-109.38
X97.687Y-109.476
X100.687Y-109.476
X109.371Y-109.38
X112.371Y-109.38
T4
X55.88Y-108.966
X57.404Y-104.14
T5
X94.101Y-140.08
X110.361Y-140.08
T6
X69.625Y-117.475
X69.625Y-127.395
X73.025Y-117.475
X73.025Y-127.395
X78.515Y-117.475
X78.515Y-127.395
X81.915Y-117.475
X81.915Y-127.395
X88.057Y-117.475
X88.057Y-127.395
X91.457Y-117.475
X91.457Y-127.395
X97.311Y-117.475
X97.311Y-127.395
X100.711Y-117.475
X100.711Y-127.395
T7
X61.341Y-120.665
X61.341Y-126.365
T8
X46.101Y-104.14
X46.101Y-145.415
X120.396Y-104.775
X120.396Y-145.415
T0
M30
