%FSLAX45Y45*%
G04 Gerber Fmt 4.5, Leading zero omitted, Abs format (unit mm)*
G04 Created by KiCad (PCBNEW (6.0.4)) date 2023-05-16 23:10:23*
%MOMM*%
%LPD*%
G01*
G04 APERTURE LIST*
%TA.AperFunction,Profile*%
%ADD10C,0.100000*%
%TD*%
%ADD11C,0.200000*%
%ADD12C,0.089000*%
%ADD13C,0.100000*%
%ADD14C,0.102000*%
%ADD15C,0.110000*%
%ADD16C,0.157000*%
%ADD17C,0.178000*%
%ADD18C,0.180000*%
%ADD19C,0.320000*%
G04 APERTURE END LIST*
D10*
X4165600Y-10350500D02*
X4165600Y-14605000D01*
X4546600Y-9969500D02*
X12166600Y-9969500D01*
X12547600Y-10350500D02*
G75*
G03*
X12166600Y-9969500I-381000J0D01*
G01*
X4546600Y-9969500D02*
G75*
G03*
X4165600Y-10350500I0J-381000D01*
G01*
X4546600Y-14986000D02*
X12166600Y-14986000D01*
X12166600Y-14986000D02*
G75*
G03*
X12547600Y-14605000I0J381000D01*
G01*
X4165600Y-14605000D02*
G75*
G03*
X4546600Y-14986000I381000J0D01*
G01*
X12547600Y-10350500D02*
X12547600Y-14605000D01*
D11*
D12*
X9823400Y-13874500D02*
X9912400Y-13963500D01*
X9912400Y-13874500D02*
X9823400Y-13963500D01*
X9925000Y-14052500D02*
X10014000Y-14141500D01*
X10014000Y-14052500D02*
X9925000Y-14141500D01*
X10026600Y-13874500D02*
X10115600Y-13963500D01*
X10115600Y-13874500D02*
X10026600Y-13963500D01*
X10128200Y-14052500D02*
X10217200Y-14141500D01*
X10217200Y-14052500D02*
X10128200Y-14141500D01*
X10229800Y-13874500D02*
X10318800Y-13963500D01*
X10318800Y-13874500D02*
X10229800Y-13963500D01*
X10331400Y-14052500D02*
X10420400Y-14141500D01*
X10420400Y-14052500D02*
X10331400Y-14141500D01*
X10433000Y-13874500D02*
X10522000Y-13963500D01*
X10522000Y-13874500D02*
X10433000Y-13963500D01*
X10534600Y-14052500D02*
X10623600Y-14141500D01*
X10623600Y-14052500D02*
X10534600Y-14141500D01*
D13*
X11899100Y-11684000D02*
G75*
G03*
X11899100Y-11684000I-50000J0D01*
G01*
X11899100Y-11938000D02*
G75*
G03*
X11899100Y-11938000I-50000J0D01*
G01*
D14*
X5984100Y-10896600D02*
X5984100Y-10998600D01*
X5933100Y-10947600D02*
X6035100Y-10947600D01*
X6284100Y-10896600D02*
X6284100Y-10998600D01*
X6233100Y-10947600D02*
X6335100Y-10947600D01*
X6723100Y-13969800D02*
X6723100Y-14071800D01*
X6672100Y-14020800D02*
X6774100Y-14020800D01*
X7023100Y-13969800D02*
X7023100Y-14071800D01*
X6972100Y-14020800D02*
X7074100Y-14020800D01*
X7127100Y-10896600D02*
X7127100Y-10998600D01*
X7076100Y-10947600D02*
X7178100Y-10947600D01*
X7427100Y-10896600D02*
X7427100Y-10998600D01*
X7376100Y-10947600D02*
X7478100Y-10947600D01*
X7889100Y-13969800D02*
X7889100Y-14071800D01*
X7838100Y-14020800D02*
X7940100Y-14020800D01*
X8189100Y-13969800D02*
X8189100Y-14071800D01*
X8138100Y-14020800D02*
X8240100Y-14020800D01*
X8587600Y-10887000D02*
X8587600Y-10989000D01*
X8536600Y-10938000D02*
X8638600Y-10938000D01*
X8887600Y-10887000D02*
X8887600Y-10989000D01*
X8836600Y-10938000D02*
X8938600Y-10938000D01*
X9768700Y-10896600D02*
X9768700Y-10998600D01*
X9717700Y-10947600D02*
X9819700Y-10947600D01*
X10068700Y-10896600D02*
X10068700Y-10998600D01*
X10017700Y-10947600D02*
X10119700Y-10947600D01*
X10937100Y-10887000D02*
X10937100Y-10989000D01*
X10886100Y-10938000D02*
X10988100Y-10938000D01*
X11237100Y-10887000D02*
X11237100Y-10989000D01*
X11186100Y-10938000D02*
X11288100Y-10938000D01*
D15*
X5626891Y-10935491D02*
X5626891Y-10857709D01*
X5549109Y-10857709D01*
X5549109Y-10935491D01*
X5626891Y-10935491D01*
X5779291Y-10452891D02*
X5779291Y-10375109D01*
X5701509Y-10375109D01*
X5701509Y-10452891D01*
X5779291Y-10452891D01*
D16*
X9410100Y-14086500D02*
X9488600Y-14008000D01*
X9410100Y-13929500D01*
X9331600Y-14008000D01*
X9410100Y-14086500D01*
X11036100Y-14086500D02*
X11114600Y-14008000D01*
X11036100Y-13929500D01*
X10957600Y-14008000D01*
X11036100Y-14086500D01*
D17*
X6873500Y-11658500D02*
X7051500Y-11836500D01*
X7051500Y-11658500D02*
X6873500Y-11836500D01*
X7051500Y-11747500D02*
G75*
G03*
X7051500Y-11747500I-89000J0D01*
G01*
X6873500Y-12650500D02*
X7051500Y-12828500D01*
X7051500Y-12650500D02*
X6873500Y-12828500D01*
X7051500Y-12739500D02*
G75*
G03*
X7051500Y-12739500I-89000J0D01*
G01*
X7213500Y-11658500D02*
X7391500Y-11836500D01*
X7391500Y-11658500D02*
X7213500Y-11836500D01*
X7391500Y-11747500D02*
G75*
G03*
X7391500Y-11747500I-89000J0D01*
G01*
X7213500Y-12650500D02*
X7391500Y-12828500D01*
X7391500Y-12650500D02*
X7213500Y-12828500D01*
X7391500Y-12739500D02*
G75*
G03*
X7391500Y-12739500I-89000J0D01*
G01*
X7762500Y-11658500D02*
X7940500Y-11836500D01*
X7940500Y-11658500D02*
X7762500Y-11836500D01*
X7940500Y-11747500D02*
G75*
G03*
X7940500Y-11747500I-89000J0D01*
G01*
X7762500Y-12650500D02*
X7940500Y-12828500D01*
X7940500Y-12650500D02*
X7762500Y-12828500D01*
X7940500Y-12739500D02*
G75*
G03*
X7940500Y-12739500I-89000J0D01*
G01*
X8102500Y-11658500D02*
X8280500Y-11836500D01*
X8280500Y-11658500D02*
X8102500Y-11836500D01*
X8280500Y-11747500D02*
G75*
G03*
X8280500Y-11747500I-89000J0D01*
G01*
X8102500Y-12650500D02*
X8280500Y-12828500D01*
X8280500Y-12650500D02*
X8102500Y-12828500D01*
X8280500Y-12739500D02*
G75*
G03*
X8280500Y-12739500I-89000J0D01*
G01*
X8716677Y-11658500D02*
X8894677Y-11836500D01*
X8894677Y-11658500D02*
X8716677Y-11836500D01*
X8894677Y-11747500D02*
G75*
G03*
X8894677Y-11747500I-89000J0D01*
G01*
X8716677Y-12650500D02*
X8894677Y-12828500D01*
X8894677Y-12650500D02*
X8716677Y-12828500D01*
X8894677Y-12739500D02*
G75*
G03*
X8894677Y-12739500I-89000J0D01*
G01*
X9056677Y-11658500D02*
X9234677Y-11836500D01*
X9234677Y-11658500D02*
X9056677Y-11836500D01*
X9234677Y-11747500D02*
G75*
G03*
X9234677Y-11747500I-89000J0D01*
G01*
X9056677Y-12650500D02*
X9234677Y-12828500D01*
X9234677Y-12650500D02*
X9056677Y-12828500D01*
X9234677Y-12739500D02*
G75*
G03*
X9234677Y-12739500I-89000J0D01*
G01*
X9642100Y-11658500D02*
X9820100Y-11836500D01*
X9820100Y-11658500D02*
X9642100Y-11836500D01*
X9820100Y-11747500D02*
G75*
G03*
X9820100Y-11747500I-89000J0D01*
G01*
X9642100Y-12650500D02*
X9820100Y-12828500D01*
X9820100Y-12650500D02*
X9642100Y-12828500D01*
X9820100Y-12739500D02*
G75*
G03*
X9820100Y-12739500I-89000J0D01*
G01*
X9982100Y-11658500D02*
X10160100Y-11836500D01*
X10160100Y-11658500D02*
X9982100Y-11836500D01*
X10160100Y-11747500D02*
G75*
G03*
X10160100Y-11747500I-89000J0D01*
G01*
X9982100Y-12650500D02*
X10160100Y-12828500D01*
X10160100Y-12650500D02*
X9982100Y-12828500D01*
X10160100Y-12739500D02*
G75*
G03*
X10160100Y-12739500I-89000J0D01*
G01*
D18*
X6044100Y-11976500D02*
X6224100Y-12156500D01*
X6224100Y-11976500D02*
X6044100Y-12156500D01*
X6134100Y-11976500D02*
X6134100Y-12156500D01*
X6044100Y-12066500D02*
X6224100Y-12066500D01*
X6044100Y-12546500D02*
X6224100Y-12726500D01*
X6224100Y-12546500D02*
X6044100Y-12726500D01*
X6134100Y-12546500D02*
X6134100Y-12726500D01*
X6044100Y-12636500D02*
X6224100Y-12636500D01*
D19*
X4450100Y-10254000D02*
X4770100Y-10574000D01*
X4770100Y-10254000D02*
X4450100Y-10574000D01*
X4723238Y-10527138D02*
X4723238Y-10300862D01*
X4496962Y-10300862D01*
X4496962Y-10527138D01*
X4723238Y-10527138D01*
X4450100Y-14381500D02*
X4770100Y-14701500D01*
X4770100Y-14381500D02*
X4450100Y-14701500D01*
X4723238Y-14654638D02*
X4723238Y-14428362D01*
X4496962Y-14428362D01*
X4496962Y-14654638D01*
X4723238Y-14654638D01*
X11879600Y-10317500D02*
X12199600Y-10637500D01*
X12199600Y-10317500D02*
X11879600Y-10637500D01*
X12152738Y-10590638D02*
X12152738Y-10364362D01*
X11926462Y-10364362D01*
X11926462Y-10590638D01*
X12152738Y-10590638D01*
X11879600Y-14381500D02*
X12199600Y-14701500D01*
X12199600Y-14381500D02*
X11879600Y-14701500D01*
X12152738Y-14654638D02*
X12152738Y-14428362D01*
X11926462Y-14428362D01*
X11926462Y-14654638D01*
X12152738Y-14654638D01*
D11*
X4418219Y-15301476D02*
X4418219Y-15101476D01*
X4465838Y-15101476D01*
X4494410Y-15111000D01*
X4513457Y-15130048D01*
X4522981Y-15149095D01*
X4532505Y-15187190D01*
X4532505Y-15215762D01*
X4522981Y-15253857D01*
X4513457Y-15272905D01*
X4494410Y-15291952D01*
X4465838Y-15301476D01*
X4418219Y-15301476D01*
X4618219Y-15301476D02*
X4618219Y-15168143D01*
X4618219Y-15206238D02*
X4627743Y-15187190D01*
X4637267Y-15177667D01*
X4656314Y-15168143D01*
X4675362Y-15168143D01*
X4742029Y-15301476D02*
X4742029Y-15168143D01*
X4742029Y-15101476D02*
X4732505Y-15111000D01*
X4742029Y-15120524D01*
X4751552Y-15111000D01*
X4742029Y-15101476D01*
X4742029Y-15120524D01*
X4865838Y-15301476D02*
X4846790Y-15291952D01*
X4837267Y-15272905D01*
X4837267Y-15101476D01*
X4970600Y-15301476D02*
X4951552Y-15291952D01*
X4942029Y-15272905D01*
X4942029Y-15101476D01*
X5199171Y-15301476D02*
X5199171Y-15101476D01*
X5265838Y-15244333D01*
X5332505Y-15101476D01*
X5332505Y-15301476D01*
X5513457Y-15301476D02*
X5513457Y-15196714D01*
X5503933Y-15177667D01*
X5484886Y-15168143D01*
X5446790Y-15168143D01*
X5427743Y-15177667D01*
X5513457Y-15291952D02*
X5494410Y-15301476D01*
X5446790Y-15301476D01*
X5427743Y-15291952D01*
X5418219Y-15272905D01*
X5418219Y-15253857D01*
X5427743Y-15234809D01*
X5446790Y-15225286D01*
X5494410Y-15225286D01*
X5513457Y-15215762D01*
X5608695Y-15168143D02*
X5608695Y-15368143D01*
X5608695Y-15177667D02*
X5627743Y-15168143D01*
X5665838Y-15168143D01*
X5684886Y-15177667D01*
X5694409Y-15187190D01*
X5703933Y-15206238D01*
X5703933Y-15263381D01*
X5694409Y-15282428D01*
X5684886Y-15291952D01*
X5665838Y-15301476D01*
X5627743Y-15301476D01*
X5608695Y-15291952D01*
X5789648Y-15282428D02*
X5799171Y-15291952D01*
X5789648Y-15301476D01*
X5780124Y-15291952D01*
X5789648Y-15282428D01*
X5789648Y-15301476D01*
X5789648Y-15177667D02*
X5799171Y-15187190D01*
X5789648Y-15196714D01*
X5780124Y-15187190D01*
X5789648Y-15177667D01*
X5789648Y-15196714D01*
D12*
X4071600Y-15586500D02*
X4160600Y-15675500D01*
X4160600Y-15586500D02*
X4071600Y-15675500D01*
D11*
X4456314Y-15521476D02*
X4475362Y-15521476D01*
X4494410Y-15531000D01*
X4503933Y-15540524D01*
X4513457Y-15559571D01*
X4522981Y-15597667D01*
X4522981Y-15645286D01*
X4513457Y-15683381D01*
X4503933Y-15702428D01*
X4494410Y-15711952D01*
X4475362Y-15721476D01*
X4456314Y-15721476D01*
X4437267Y-15711952D01*
X4427743Y-15702428D01*
X4418219Y-15683381D01*
X4408695Y-15645286D01*
X4408695Y-15597667D01*
X4418219Y-15559571D01*
X4427743Y-15540524D01*
X4437267Y-15531000D01*
X4456314Y-15521476D01*
X4608695Y-15702428D02*
X4618219Y-15711952D01*
X4608695Y-15721476D01*
X4599171Y-15711952D01*
X4608695Y-15702428D01*
X4608695Y-15721476D01*
X4732505Y-15607190D02*
X4713457Y-15597667D01*
X4703933Y-15588143D01*
X4694410Y-15569095D01*
X4694410Y-15559571D01*
X4703933Y-15540524D01*
X4713457Y-15531000D01*
X4732505Y-15521476D01*
X4770600Y-15521476D01*
X4789648Y-15531000D01*
X4799171Y-15540524D01*
X4808695Y-15559571D01*
X4808695Y-15569095D01*
X4799171Y-15588143D01*
X4789648Y-15597667D01*
X4770600Y-15607190D01*
X4732505Y-15607190D01*
X4713457Y-15616714D01*
X4703933Y-15626238D01*
X4694410Y-15645286D01*
X4694410Y-15683381D01*
X4703933Y-15702428D01*
X4713457Y-15711952D01*
X4732505Y-15721476D01*
X4770600Y-15721476D01*
X4789648Y-15711952D01*
X4799171Y-15702428D01*
X4808695Y-15683381D01*
X4808695Y-15645286D01*
X4799171Y-15626238D01*
X4789648Y-15616714D01*
X4770600Y-15607190D01*
X4903933Y-15721476D02*
X4942029Y-15721476D01*
X4961076Y-15711952D01*
X4970600Y-15702428D01*
X4989648Y-15673857D01*
X4999171Y-15635762D01*
X4999171Y-15559571D01*
X4989648Y-15540524D01*
X4980124Y-15531000D01*
X4961076Y-15521476D01*
X4922981Y-15521476D01*
X4903933Y-15531000D01*
X4894410Y-15540524D01*
X4884886Y-15559571D01*
X4884886Y-15607190D01*
X4894410Y-15626238D01*
X4903933Y-15635762D01*
X4922981Y-15645286D01*
X4961076Y-15645286D01*
X4980124Y-15635762D01*
X4989648Y-15626238D01*
X4999171Y-15607190D01*
X5122981Y-15521476D02*
X5142029Y-15521476D01*
X5161076Y-15531000D01*
X5170600Y-15540524D01*
X5180124Y-15559571D01*
X5189648Y-15597667D01*
X5189648Y-15645286D01*
X5180124Y-15683381D01*
X5170600Y-15702428D01*
X5161076Y-15711952D01*
X5142029Y-15721476D01*
X5122981Y-15721476D01*
X5103933Y-15711952D01*
X5094410Y-15702428D01*
X5084886Y-15683381D01*
X5075362Y-15645286D01*
X5075362Y-15597667D01*
X5084886Y-15559571D01*
X5094410Y-15540524D01*
X5103933Y-15531000D01*
X5122981Y-15521476D01*
X5275362Y-15721476D02*
X5275362Y-15588143D01*
X5275362Y-15607190D02*
X5284886Y-15597667D01*
X5303933Y-15588143D01*
X5332505Y-15588143D01*
X5351552Y-15597667D01*
X5361076Y-15616714D01*
X5361076Y-15721476D01*
X5361076Y-15616714D02*
X5370600Y-15597667D01*
X5389648Y-15588143D01*
X5418219Y-15588143D01*
X5437267Y-15597667D01*
X5446790Y-15616714D01*
X5446790Y-15721476D01*
X5542029Y-15721476D02*
X5542029Y-15588143D01*
X5542029Y-15607190D02*
X5551552Y-15597667D01*
X5570600Y-15588143D01*
X5599171Y-15588143D01*
X5618219Y-15597667D01*
X5627743Y-15616714D01*
X5627743Y-15721476D01*
X5627743Y-15616714D02*
X5637267Y-15597667D01*
X5656314Y-15588143D01*
X5684886Y-15588143D01*
X5703933Y-15597667D01*
X5713457Y-15616714D01*
X5713457Y-15721476D01*
X6103933Y-15511952D02*
X5932505Y-15769095D01*
X6361076Y-15521476D02*
X6380124Y-15521476D01*
X6399171Y-15531000D01*
X6408695Y-15540524D01*
X6418219Y-15559571D01*
X6427743Y-15597667D01*
X6427743Y-15645286D01*
X6418219Y-15683381D01*
X6408695Y-15702428D01*
X6399171Y-15711952D01*
X6380124Y-15721476D01*
X6361076Y-15721476D01*
X6342028Y-15711952D01*
X6332505Y-15702428D01*
X6322981Y-15683381D01*
X6313457Y-15645286D01*
X6313457Y-15597667D01*
X6322981Y-15559571D01*
X6332505Y-15540524D01*
X6342028Y-15531000D01*
X6361076Y-15521476D01*
X6513457Y-15702428D02*
X6522981Y-15711952D01*
X6513457Y-15721476D01*
X6503933Y-15711952D01*
X6513457Y-15702428D01*
X6513457Y-15721476D01*
X6646790Y-15521476D02*
X6665838Y-15521476D01*
X6684886Y-15531000D01*
X6694409Y-15540524D01*
X6703933Y-15559571D01*
X6713457Y-15597667D01*
X6713457Y-15645286D01*
X6703933Y-15683381D01*
X6694409Y-15702428D01*
X6684886Y-15711952D01*
X6665838Y-15721476D01*
X6646790Y-15721476D01*
X6627743Y-15711952D01*
X6618219Y-15702428D01*
X6608695Y-15683381D01*
X6599171Y-15645286D01*
X6599171Y-15597667D01*
X6608695Y-15559571D01*
X6618219Y-15540524D01*
X6627743Y-15531000D01*
X6646790Y-15521476D01*
X6780124Y-15521476D02*
X6903933Y-15521476D01*
X6837267Y-15597667D01*
X6865838Y-15597667D01*
X6884886Y-15607190D01*
X6894409Y-15616714D01*
X6903933Y-15635762D01*
X6903933Y-15683381D01*
X6894409Y-15702428D01*
X6884886Y-15711952D01*
X6865838Y-15721476D01*
X6808695Y-15721476D01*
X6789648Y-15711952D01*
X6780124Y-15702428D01*
X7084886Y-15521476D02*
X6989648Y-15521476D01*
X6980124Y-15616714D01*
X6989648Y-15607190D01*
X7008695Y-15597667D01*
X7056314Y-15597667D01*
X7075362Y-15607190D01*
X7084886Y-15616714D01*
X7094409Y-15635762D01*
X7094409Y-15683381D01*
X7084886Y-15702428D01*
X7075362Y-15711952D01*
X7056314Y-15721476D01*
X7008695Y-15721476D01*
X6989648Y-15711952D01*
X6980124Y-15702428D01*
X7218219Y-15521476D02*
X7237267Y-15521476D01*
X7256314Y-15531000D01*
X7265838Y-15540524D01*
X7275362Y-15559571D01*
X7284886Y-15597667D01*
X7284886Y-15645286D01*
X7275362Y-15683381D01*
X7265838Y-15702428D01*
X7256314Y-15711952D01*
X7237267Y-15721476D01*
X7218219Y-15721476D01*
X7199171Y-15711952D01*
X7189648Y-15702428D01*
X7180124Y-15683381D01*
X7170600Y-15645286D01*
X7170600Y-15597667D01*
X7180124Y-15559571D01*
X7189648Y-15540524D01*
X7199171Y-15531000D01*
X7218219Y-15521476D01*
X7361076Y-15521476D02*
X7361076Y-15559571D01*
X7437267Y-15521476D02*
X7437267Y-15559571D01*
X7732505Y-15797667D02*
X7722981Y-15788143D01*
X7703933Y-15759571D01*
X7694409Y-15740524D01*
X7684886Y-15711952D01*
X7675362Y-15664333D01*
X7675362Y-15626238D01*
X7684886Y-15578619D01*
X7694409Y-15550048D01*
X7703933Y-15531000D01*
X7722981Y-15502428D01*
X7732505Y-15492905D01*
X7837267Y-15607190D02*
X7818219Y-15597667D01*
X7808695Y-15588143D01*
X7799171Y-15569095D01*
X7799171Y-15559571D01*
X7808695Y-15540524D01*
X7818219Y-15531000D01*
X7837267Y-15521476D01*
X7875362Y-15521476D01*
X7894409Y-15531000D01*
X7903933Y-15540524D01*
X7913457Y-15559571D01*
X7913457Y-15569095D01*
X7903933Y-15588143D01*
X7894409Y-15597667D01*
X7875362Y-15607190D01*
X7837267Y-15607190D01*
X7818219Y-15616714D01*
X7808695Y-15626238D01*
X7799171Y-15645286D01*
X7799171Y-15683381D01*
X7808695Y-15702428D01*
X7818219Y-15711952D01*
X7837267Y-15721476D01*
X7875362Y-15721476D01*
X7894409Y-15711952D01*
X7903933Y-15702428D01*
X7913457Y-15683381D01*
X7913457Y-15645286D01*
X7903933Y-15626238D01*
X7894409Y-15616714D01*
X7875362Y-15607190D01*
X8151552Y-15721476D02*
X8151552Y-15521476D01*
X8237267Y-15721476D02*
X8237267Y-15616714D01*
X8227743Y-15597667D01*
X8208695Y-15588143D01*
X8180124Y-15588143D01*
X8161076Y-15597667D01*
X8151552Y-15607190D01*
X8361076Y-15721476D02*
X8342028Y-15711952D01*
X8332505Y-15702428D01*
X8322981Y-15683381D01*
X8322981Y-15626238D01*
X8332505Y-15607190D01*
X8342028Y-15597667D01*
X8361076Y-15588143D01*
X8389648Y-15588143D01*
X8408695Y-15597667D01*
X8418219Y-15607190D01*
X8427743Y-15626238D01*
X8427743Y-15683381D01*
X8418219Y-15702428D01*
X8408695Y-15711952D01*
X8389648Y-15721476D01*
X8361076Y-15721476D01*
X8542029Y-15721476D02*
X8522981Y-15711952D01*
X8513457Y-15692905D01*
X8513457Y-15521476D01*
X8694410Y-15711952D02*
X8675362Y-15721476D01*
X8637267Y-15721476D01*
X8618219Y-15711952D01*
X8608695Y-15692905D01*
X8608695Y-15616714D01*
X8618219Y-15597667D01*
X8637267Y-15588143D01*
X8675362Y-15588143D01*
X8694410Y-15597667D01*
X8703933Y-15616714D01*
X8703933Y-15635762D01*
X8608695Y-15654809D01*
X8780124Y-15711952D02*
X8799171Y-15721476D01*
X8837267Y-15721476D01*
X8856314Y-15711952D01*
X8865838Y-15692905D01*
X8865838Y-15683381D01*
X8856314Y-15664333D01*
X8837267Y-15654809D01*
X8808695Y-15654809D01*
X8789648Y-15645286D01*
X8780124Y-15626238D01*
X8780124Y-15616714D01*
X8789648Y-15597667D01*
X8808695Y-15588143D01*
X8837267Y-15588143D01*
X8856314Y-15597667D01*
X8932505Y-15797667D02*
X8942029Y-15788143D01*
X8961076Y-15759571D01*
X8970600Y-15740524D01*
X8980124Y-15711952D01*
X8989648Y-15664333D01*
X8989648Y-15626238D01*
X8980124Y-15578619D01*
X8970600Y-15550048D01*
X8961076Y-15531000D01*
X8942029Y-15502428D01*
X8932505Y-15492905D01*
D13*
X4160600Y-15895000D02*
G75*
G03*
X4160600Y-15895000I-50000J0D01*
G01*
D11*
X4522981Y-15985476D02*
X4408695Y-15985476D01*
X4465838Y-15985476D02*
X4465838Y-15785476D01*
X4446790Y-15814048D01*
X4427743Y-15833095D01*
X4408695Y-15842619D01*
X4608695Y-15966428D02*
X4618219Y-15975952D01*
X4608695Y-15985476D01*
X4599171Y-15975952D01*
X4608695Y-15966428D01*
X4608695Y-15985476D01*
X4742029Y-15785476D02*
X4761076Y-15785476D01*
X4780124Y-15795000D01*
X4789648Y-15804524D01*
X4799171Y-15823571D01*
X4808695Y-15861667D01*
X4808695Y-15909286D01*
X4799171Y-15947381D01*
X4789648Y-15966428D01*
X4780124Y-15975952D01*
X4761076Y-15985476D01*
X4742029Y-15985476D01*
X4722981Y-15975952D01*
X4713457Y-15966428D01*
X4703933Y-15947381D01*
X4694410Y-15909286D01*
X4694410Y-15861667D01*
X4703933Y-15823571D01*
X4713457Y-15804524D01*
X4722981Y-15795000D01*
X4742029Y-15785476D01*
X4932505Y-15785476D02*
X4951552Y-15785476D01*
X4970600Y-15795000D01*
X4980124Y-15804524D01*
X4989648Y-15823571D01*
X4999171Y-15861667D01*
X4999171Y-15909286D01*
X4989648Y-15947381D01*
X4980124Y-15966428D01*
X4970600Y-15975952D01*
X4951552Y-15985476D01*
X4932505Y-15985476D01*
X4913457Y-15975952D01*
X4903933Y-15966428D01*
X4894410Y-15947381D01*
X4884886Y-15909286D01*
X4884886Y-15861667D01*
X4894410Y-15823571D01*
X4903933Y-15804524D01*
X4913457Y-15795000D01*
X4932505Y-15785476D01*
X5122981Y-15785476D02*
X5142029Y-15785476D01*
X5161076Y-15795000D01*
X5170600Y-15804524D01*
X5180124Y-15823571D01*
X5189648Y-15861667D01*
X5189648Y-15909286D01*
X5180124Y-15947381D01*
X5170600Y-15966428D01*
X5161076Y-15975952D01*
X5142029Y-15985476D01*
X5122981Y-15985476D01*
X5103933Y-15975952D01*
X5094410Y-15966428D01*
X5084886Y-15947381D01*
X5075362Y-15909286D01*
X5075362Y-15861667D01*
X5084886Y-15823571D01*
X5094410Y-15804524D01*
X5103933Y-15795000D01*
X5122981Y-15785476D01*
X5275362Y-15985476D02*
X5275362Y-15852143D01*
X5275362Y-15871190D02*
X5284886Y-15861667D01*
X5303933Y-15852143D01*
X5332505Y-15852143D01*
X5351552Y-15861667D01*
X5361076Y-15880714D01*
X5361076Y-15985476D01*
X5361076Y-15880714D02*
X5370600Y-15861667D01*
X5389648Y-15852143D01*
X5418219Y-15852143D01*
X5437267Y-15861667D01*
X5446790Y-15880714D01*
X5446790Y-15985476D01*
X5542029Y-15985476D02*
X5542029Y-15852143D01*
X5542029Y-15871190D02*
X5551552Y-15861667D01*
X5570600Y-15852143D01*
X5599171Y-15852143D01*
X5618219Y-15861667D01*
X5627743Y-15880714D01*
X5627743Y-15985476D01*
X5627743Y-15880714D02*
X5637267Y-15861667D01*
X5656314Y-15852143D01*
X5684886Y-15852143D01*
X5703933Y-15861667D01*
X5713457Y-15880714D01*
X5713457Y-15985476D01*
X6103933Y-15775952D02*
X5932505Y-16033095D01*
X6361076Y-15785476D02*
X6380124Y-15785476D01*
X6399171Y-15795000D01*
X6408695Y-15804524D01*
X6418219Y-15823571D01*
X6427743Y-15861667D01*
X6427743Y-15909286D01*
X6418219Y-15947381D01*
X6408695Y-15966428D01*
X6399171Y-15975952D01*
X6380124Y-15985476D01*
X6361076Y-15985476D01*
X6342028Y-15975952D01*
X6332505Y-15966428D01*
X6322981Y-15947381D01*
X6313457Y-15909286D01*
X6313457Y-15861667D01*
X6322981Y-15823571D01*
X6332505Y-15804524D01*
X6342028Y-15795000D01*
X6361076Y-15785476D01*
X6513457Y-15966428D02*
X6522981Y-15975952D01*
X6513457Y-15985476D01*
X6503933Y-15975952D01*
X6513457Y-15966428D01*
X6513457Y-15985476D01*
X6646790Y-15785476D02*
X6665838Y-15785476D01*
X6684886Y-15795000D01*
X6694409Y-15804524D01*
X6703933Y-15823571D01*
X6713457Y-15861667D01*
X6713457Y-15909286D01*
X6703933Y-15947381D01*
X6694409Y-15966428D01*
X6684886Y-15975952D01*
X6665838Y-15985476D01*
X6646790Y-15985476D01*
X6627743Y-15975952D01*
X6618219Y-15966428D01*
X6608695Y-15947381D01*
X6599171Y-15909286D01*
X6599171Y-15861667D01*
X6608695Y-15823571D01*
X6618219Y-15804524D01*
X6627743Y-15795000D01*
X6646790Y-15785476D01*
X6780124Y-15785476D02*
X6903933Y-15785476D01*
X6837267Y-15861667D01*
X6865838Y-15861667D01*
X6884886Y-15871190D01*
X6894409Y-15880714D01*
X6903933Y-15899762D01*
X6903933Y-15947381D01*
X6894409Y-15966428D01*
X6884886Y-15975952D01*
X6865838Y-15985476D01*
X6808695Y-15985476D01*
X6789648Y-15975952D01*
X6780124Y-15966428D01*
X6999171Y-15985476D02*
X7037267Y-15985476D01*
X7056314Y-15975952D01*
X7065838Y-15966428D01*
X7084886Y-15937857D01*
X7094409Y-15899762D01*
X7094409Y-15823571D01*
X7084886Y-15804524D01*
X7075362Y-15795000D01*
X7056314Y-15785476D01*
X7018219Y-15785476D01*
X6999171Y-15795000D01*
X6989648Y-15804524D01*
X6980124Y-15823571D01*
X6980124Y-15871190D01*
X6989648Y-15890238D01*
X6999171Y-15899762D01*
X7018219Y-15909286D01*
X7056314Y-15909286D01*
X7075362Y-15899762D01*
X7084886Y-15890238D01*
X7094409Y-15871190D01*
X7265838Y-15852143D02*
X7265838Y-15985476D01*
X7218219Y-15775952D02*
X7170600Y-15918809D01*
X7294409Y-15918809D01*
X7361076Y-15785476D02*
X7361076Y-15823571D01*
X7437267Y-15785476D02*
X7437267Y-15823571D01*
X7732505Y-16061667D02*
X7722981Y-16052143D01*
X7703933Y-16023571D01*
X7694409Y-16004524D01*
X7684886Y-15975952D01*
X7675362Y-15928333D01*
X7675362Y-15890238D01*
X7684886Y-15842619D01*
X7694409Y-15814048D01*
X7703933Y-15795000D01*
X7722981Y-15766428D01*
X7732505Y-15756905D01*
X7799171Y-15804524D02*
X7808695Y-15795000D01*
X7827743Y-15785476D01*
X7875362Y-15785476D01*
X7894409Y-15795000D01*
X7903933Y-15804524D01*
X7913457Y-15823571D01*
X7913457Y-15842619D01*
X7903933Y-15871190D01*
X7789648Y-15985476D01*
X7913457Y-15985476D01*
X8151552Y-15985476D02*
X8151552Y-15785476D01*
X8237267Y-15985476D02*
X8237267Y-15880714D01*
X8227743Y-15861667D01*
X8208695Y-15852143D01*
X8180124Y-15852143D01*
X8161076Y-15861667D01*
X8151552Y-15871190D01*
X8361076Y-15985476D02*
X8342028Y-15975952D01*
X8332505Y-15966428D01*
X8322981Y-15947381D01*
X8322981Y-15890238D01*
X8332505Y-15871190D01*
X8342028Y-15861667D01*
X8361076Y-15852143D01*
X8389648Y-15852143D01*
X8408695Y-15861667D01*
X8418219Y-15871190D01*
X8427743Y-15890238D01*
X8427743Y-15947381D01*
X8418219Y-15966428D01*
X8408695Y-15975952D01*
X8389648Y-15985476D01*
X8361076Y-15985476D01*
X8542029Y-15985476D02*
X8522981Y-15975952D01*
X8513457Y-15956905D01*
X8513457Y-15785476D01*
X8694410Y-15975952D02*
X8675362Y-15985476D01*
X8637267Y-15985476D01*
X8618219Y-15975952D01*
X8608695Y-15956905D01*
X8608695Y-15880714D01*
X8618219Y-15861667D01*
X8637267Y-15852143D01*
X8675362Y-15852143D01*
X8694410Y-15861667D01*
X8703933Y-15880714D01*
X8703933Y-15899762D01*
X8608695Y-15918809D01*
X8780124Y-15975952D02*
X8799171Y-15985476D01*
X8837267Y-15985476D01*
X8856314Y-15975952D01*
X8865838Y-15956905D01*
X8865838Y-15947381D01*
X8856314Y-15928333D01*
X8837267Y-15918809D01*
X8808695Y-15918809D01*
X8789648Y-15909286D01*
X8780124Y-15890238D01*
X8780124Y-15880714D01*
X8789648Y-15861667D01*
X8808695Y-15852143D01*
X8837267Y-15852143D01*
X8856314Y-15861667D01*
X8932505Y-16061667D02*
X8942029Y-16052143D01*
X8961076Y-16023571D01*
X8970600Y-16004524D01*
X8980124Y-15975952D01*
X8989648Y-15928333D01*
X8989648Y-15890238D01*
X8980124Y-15842619D01*
X8970600Y-15814048D01*
X8961076Y-15795000D01*
X8942029Y-15766428D01*
X8932505Y-15756905D01*
D14*
X4109600Y-16108000D02*
X4109600Y-16210000D01*
X4058600Y-16159000D02*
X4160600Y-16159000D01*
D11*
X4522981Y-16249476D02*
X4408695Y-16249476D01*
X4465838Y-16249476D02*
X4465838Y-16049476D01*
X4446790Y-16078048D01*
X4427743Y-16097095D01*
X4408695Y-16106619D01*
X4608695Y-16230428D02*
X4618219Y-16239952D01*
X4608695Y-16249476D01*
X4599171Y-16239952D01*
X4608695Y-16230428D01*
X4608695Y-16249476D01*
X4742029Y-16049476D02*
X4761076Y-16049476D01*
X4780124Y-16059000D01*
X4789648Y-16068524D01*
X4799171Y-16087571D01*
X4808695Y-16125667D01*
X4808695Y-16173286D01*
X4799171Y-16211381D01*
X4789648Y-16230428D01*
X4780124Y-16239952D01*
X4761076Y-16249476D01*
X4742029Y-16249476D01*
X4722981Y-16239952D01*
X4713457Y-16230428D01*
X4703933Y-16211381D01*
X4694410Y-16173286D01*
X4694410Y-16125667D01*
X4703933Y-16087571D01*
X4713457Y-16068524D01*
X4722981Y-16059000D01*
X4742029Y-16049476D01*
X4884886Y-16068524D02*
X4894410Y-16059000D01*
X4913457Y-16049476D01*
X4961076Y-16049476D01*
X4980124Y-16059000D01*
X4989648Y-16068524D01*
X4999171Y-16087571D01*
X4999171Y-16106619D01*
X4989648Y-16135190D01*
X4875362Y-16249476D01*
X4999171Y-16249476D01*
X5122981Y-16049476D02*
X5142029Y-16049476D01*
X5161076Y-16059000D01*
X5170600Y-16068524D01*
X5180124Y-16087571D01*
X5189648Y-16125667D01*
X5189648Y-16173286D01*
X5180124Y-16211381D01*
X5170600Y-16230428D01*
X5161076Y-16239952D01*
X5142029Y-16249476D01*
X5122981Y-16249476D01*
X5103933Y-16239952D01*
X5094410Y-16230428D01*
X5084886Y-16211381D01*
X5075362Y-16173286D01*
X5075362Y-16125667D01*
X5084886Y-16087571D01*
X5094410Y-16068524D01*
X5103933Y-16059000D01*
X5122981Y-16049476D01*
X5275362Y-16249476D02*
X5275362Y-16116143D01*
X5275362Y-16135190D02*
X5284886Y-16125667D01*
X5303933Y-16116143D01*
X5332505Y-16116143D01*
X5351552Y-16125667D01*
X5361076Y-16144714D01*
X5361076Y-16249476D01*
X5361076Y-16144714D02*
X5370600Y-16125667D01*
X5389648Y-16116143D01*
X5418219Y-16116143D01*
X5437267Y-16125667D01*
X5446790Y-16144714D01*
X5446790Y-16249476D01*
X5542029Y-16249476D02*
X5542029Y-16116143D01*
X5542029Y-16135190D02*
X5551552Y-16125667D01*
X5570600Y-16116143D01*
X5599171Y-16116143D01*
X5618219Y-16125667D01*
X5627743Y-16144714D01*
X5627743Y-16249476D01*
X5627743Y-16144714D02*
X5637267Y-16125667D01*
X5656314Y-16116143D01*
X5684886Y-16116143D01*
X5703933Y-16125667D01*
X5713457Y-16144714D01*
X5713457Y-16249476D01*
X6103933Y-16039952D02*
X5932505Y-16297095D01*
X6361076Y-16049476D02*
X6380124Y-16049476D01*
X6399171Y-16059000D01*
X6408695Y-16068524D01*
X6418219Y-16087571D01*
X6427743Y-16125667D01*
X6427743Y-16173286D01*
X6418219Y-16211381D01*
X6408695Y-16230428D01*
X6399171Y-16239952D01*
X6380124Y-16249476D01*
X6361076Y-16249476D01*
X6342028Y-16239952D01*
X6332505Y-16230428D01*
X6322981Y-16211381D01*
X6313457Y-16173286D01*
X6313457Y-16125667D01*
X6322981Y-16087571D01*
X6332505Y-16068524D01*
X6342028Y-16059000D01*
X6361076Y-16049476D01*
X6513457Y-16230428D02*
X6522981Y-16239952D01*
X6513457Y-16249476D01*
X6503933Y-16239952D01*
X6513457Y-16230428D01*
X6513457Y-16249476D01*
X6646790Y-16049476D02*
X6665838Y-16049476D01*
X6684886Y-16059000D01*
X6694409Y-16068524D01*
X6703933Y-16087571D01*
X6713457Y-16125667D01*
X6713457Y-16173286D01*
X6703933Y-16211381D01*
X6694409Y-16230428D01*
X6684886Y-16239952D01*
X6665838Y-16249476D01*
X6646790Y-16249476D01*
X6627743Y-16239952D01*
X6618219Y-16230428D01*
X6608695Y-16211381D01*
X6599171Y-16173286D01*
X6599171Y-16125667D01*
X6608695Y-16087571D01*
X6618219Y-16068524D01*
X6627743Y-16059000D01*
X6646790Y-16049476D01*
X6884886Y-16116143D02*
X6884886Y-16249476D01*
X6837267Y-16039952D02*
X6789648Y-16182809D01*
X6913457Y-16182809D01*
X7027743Y-16049476D02*
X7046790Y-16049476D01*
X7065838Y-16059000D01*
X7075362Y-16068524D01*
X7084886Y-16087571D01*
X7094409Y-16125667D01*
X7094409Y-16173286D01*
X7084886Y-16211381D01*
X7075362Y-16230428D01*
X7065838Y-16239952D01*
X7046790Y-16249476D01*
X7027743Y-16249476D01*
X7008695Y-16239952D01*
X6999171Y-16230428D01*
X6989648Y-16211381D01*
X6980124Y-16173286D01*
X6980124Y-16125667D01*
X6989648Y-16087571D01*
X6999171Y-16068524D01*
X7008695Y-16059000D01*
X7027743Y-16049476D01*
X7170600Y-16068524D02*
X7180124Y-16059000D01*
X7199171Y-16049476D01*
X7246790Y-16049476D01*
X7265838Y-16059000D01*
X7275362Y-16068524D01*
X7284886Y-16087571D01*
X7284886Y-16106619D01*
X7275362Y-16135190D01*
X7161076Y-16249476D01*
X7284886Y-16249476D01*
X7361076Y-16049476D02*
X7361076Y-16087571D01*
X7437267Y-16049476D02*
X7437267Y-16087571D01*
X7732505Y-16325667D02*
X7722981Y-16316143D01*
X7703933Y-16287571D01*
X7694409Y-16268524D01*
X7684886Y-16239952D01*
X7675362Y-16192333D01*
X7675362Y-16154238D01*
X7684886Y-16106619D01*
X7694409Y-16078048D01*
X7703933Y-16059000D01*
X7722981Y-16030428D01*
X7732505Y-16020905D01*
X7913457Y-16249476D02*
X7799171Y-16249476D01*
X7856314Y-16249476D02*
X7856314Y-16049476D01*
X7837267Y-16078048D01*
X7818219Y-16097095D01*
X7799171Y-16106619D01*
X8084886Y-16116143D02*
X8084886Y-16249476D01*
X8037267Y-16039952D02*
X7989648Y-16182809D01*
X8113457Y-16182809D01*
X8342028Y-16249476D02*
X8342028Y-16049476D01*
X8427743Y-16249476D02*
X8427743Y-16144714D01*
X8418219Y-16125667D01*
X8399171Y-16116143D01*
X8370600Y-16116143D01*
X8351552Y-16125667D01*
X8342028Y-16135190D01*
X8551552Y-16249476D02*
X8532505Y-16239952D01*
X8522981Y-16230428D01*
X8513457Y-16211381D01*
X8513457Y-16154238D01*
X8522981Y-16135190D01*
X8532505Y-16125667D01*
X8551552Y-16116143D01*
X8580124Y-16116143D01*
X8599171Y-16125667D01*
X8608695Y-16135190D01*
X8618219Y-16154238D01*
X8618219Y-16211381D01*
X8608695Y-16230428D01*
X8599171Y-16239952D01*
X8580124Y-16249476D01*
X8551552Y-16249476D01*
X8732505Y-16249476D02*
X8713457Y-16239952D01*
X8703933Y-16220905D01*
X8703933Y-16049476D01*
X8884886Y-16239952D02*
X8865838Y-16249476D01*
X8827743Y-16249476D01*
X8808695Y-16239952D01*
X8799171Y-16220905D01*
X8799171Y-16144714D01*
X8808695Y-16125667D01*
X8827743Y-16116143D01*
X8865838Y-16116143D01*
X8884886Y-16125667D01*
X8894410Y-16144714D01*
X8894410Y-16163762D01*
X8799171Y-16182809D01*
X8970600Y-16239952D02*
X8989648Y-16249476D01*
X9027743Y-16249476D01*
X9046790Y-16239952D01*
X9056314Y-16220905D01*
X9056314Y-16211381D01*
X9046790Y-16192333D01*
X9027743Y-16182809D01*
X8999171Y-16182809D01*
X8980124Y-16173286D01*
X8970600Y-16154238D01*
X8970600Y-16144714D01*
X8980124Y-16125667D01*
X8999171Y-16116143D01*
X9027743Y-16116143D01*
X9046790Y-16125667D01*
X9122981Y-16325667D02*
X9132505Y-16316143D01*
X9151552Y-16287571D01*
X9161076Y-16268524D01*
X9170600Y-16239952D01*
X9180124Y-16192333D01*
X9180124Y-16154238D01*
X9170600Y-16106619D01*
X9161076Y-16078048D01*
X9151552Y-16059000D01*
X9132505Y-16030428D01*
X9122981Y-16020905D01*
D15*
X4144491Y-16461891D02*
X4144491Y-16384109D01*
X4066709Y-16384109D01*
X4066709Y-16461891D01*
X4144491Y-16461891D01*
D11*
X4522981Y-16513476D02*
X4408695Y-16513476D01*
X4465838Y-16513476D02*
X4465838Y-16313476D01*
X4446790Y-16342048D01*
X4427743Y-16361095D01*
X4408695Y-16370619D01*
X4608695Y-16494428D02*
X4618219Y-16503952D01*
X4608695Y-16513476D01*
X4599171Y-16503952D01*
X4608695Y-16494428D01*
X4608695Y-16513476D01*
X4808695Y-16513476D02*
X4694410Y-16513476D01*
X4751552Y-16513476D02*
X4751552Y-16313476D01*
X4732505Y-16342048D01*
X4713457Y-16361095D01*
X4694410Y-16370619D01*
X4932505Y-16313476D02*
X4951552Y-16313476D01*
X4970600Y-16323000D01*
X4980124Y-16332524D01*
X4989648Y-16351571D01*
X4999171Y-16389667D01*
X4999171Y-16437286D01*
X4989648Y-16475381D01*
X4980124Y-16494428D01*
X4970600Y-16503952D01*
X4951552Y-16513476D01*
X4932505Y-16513476D01*
X4913457Y-16503952D01*
X4903933Y-16494428D01*
X4894410Y-16475381D01*
X4884886Y-16437286D01*
X4884886Y-16389667D01*
X4894410Y-16351571D01*
X4903933Y-16332524D01*
X4913457Y-16323000D01*
X4932505Y-16313476D01*
X5122981Y-16313476D02*
X5142029Y-16313476D01*
X5161076Y-16323000D01*
X5170600Y-16332524D01*
X5180124Y-16351571D01*
X5189648Y-16389667D01*
X5189648Y-16437286D01*
X5180124Y-16475381D01*
X5170600Y-16494428D01*
X5161076Y-16503952D01*
X5142029Y-16513476D01*
X5122981Y-16513476D01*
X5103933Y-16503952D01*
X5094410Y-16494428D01*
X5084886Y-16475381D01*
X5075362Y-16437286D01*
X5075362Y-16389667D01*
X5084886Y-16351571D01*
X5094410Y-16332524D01*
X5103933Y-16323000D01*
X5122981Y-16313476D01*
X5275362Y-16513476D02*
X5275362Y-16380143D01*
X5275362Y-16399190D02*
X5284886Y-16389667D01*
X5303933Y-16380143D01*
X5332505Y-16380143D01*
X5351552Y-16389667D01*
X5361076Y-16408714D01*
X5361076Y-16513476D01*
X5361076Y-16408714D02*
X5370600Y-16389667D01*
X5389648Y-16380143D01*
X5418219Y-16380143D01*
X5437267Y-16389667D01*
X5446790Y-16408714D01*
X5446790Y-16513476D01*
X5542029Y-16513476D02*
X5542029Y-16380143D01*
X5542029Y-16399190D02*
X5551552Y-16389667D01*
X5570600Y-16380143D01*
X5599171Y-16380143D01*
X5618219Y-16389667D01*
X5627743Y-16408714D01*
X5627743Y-16513476D01*
X5627743Y-16408714D02*
X5637267Y-16389667D01*
X5656314Y-16380143D01*
X5684886Y-16380143D01*
X5703933Y-16389667D01*
X5713457Y-16408714D01*
X5713457Y-16513476D01*
X6103933Y-16303952D02*
X5932505Y-16561095D01*
X6361076Y-16313476D02*
X6380124Y-16313476D01*
X6399171Y-16323000D01*
X6408695Y-16332524D01*
X6418219Y-16351571D01*
X6427743Y-16389667D01*
X6427743Y-16437286D01*
X6418219Y-16475381D01*
X6408695Y-16494428D01*
X6399171Y-16503952D01*
X6380124Y-16513476D01*
X6361076Y-16513476D01*
X6342028Y-16503952D01*
X6332505Y-16494428D01*
X6322981Y-16475381D01*
X6313457Y-16437286D01*
X6313457Y-16389667D01*
X6322981Y-16351571D01*
X6332505Y-16332524D01*
X6342028Y-16323000D01*
X6361076Y-16313476D01*
X6513457Y-16494428D02*
X6522981Y-16503952D01*
X6513457Y-16513476D01*
X6503933Y-16503952D01*
X6513457Y-16494428D01*
X6513457Y-16513476D01*
X6646790Y-16313476D02*
X6665838Y-16313476D01*
X6684886Y-16323000D01*
X6694409Y-16332524D01*
X6703933Y-16351571D01*
X6713457Y-16389667D01*
X6713457Y-16437286D01*
X6703933Y-16475381D01*
X6694409Y-16494428D01*
X6684886Y-16503952D01*
X6665838Y-16513476D01*
X6646790Y-16513476D01*
X6627743Y-16503952D01*
X6618219Y-16494428D01*
X6608695Y-16475381D01*
X6599171Y-16437286D01*
X6599171Y-16389667D01*
X6608695Y-16351571D01*
X6618219Y-16332524D01*
X6627743Y-16323000D01*
X6646790Y-16313476D01*
X6884886Y-16380143D02*
X6884886Y-16513476D01*
X6837267Y-16303952D02*
X6789648Y-16446809D01*
X6913457Y-16446809D01*
X6970600Y-16313476D02*
X7094409Y-16313476D01*
X7027743Y-16389667D01*
X7056314Y-16389667D01*
X7075362Y-16399190D01*
X7084886Y-16408714D01*
X7094409Y-16427762D01*
X7094409Y-16475381D01*
X7084886Y-16494428D01*
X7075362Y-16503952D01*
X7056314Y-16513476D01*
X6999171Y-16513476D01*
X6980124Y-16503952D01*
X6970600Y-16494428D01*
X7161076Y-16313476D02*
X7284886Y-16313476D01*
X7218219Y-16389667D01*
X7246790Y-16389667D01*
X7265838Y-16399190D01*
X7275362Y-16408714D01*
X7284886Y-16427762D01*
X7284886Y-16475381D01*
X7275362Y-16494428D01*
X7265838Y-16503952D01*
X7246790Y-16513476D01*
X7189648Y-16513476D01*
X7170600Y-16503952D01*
X7161076Y-16494428D01*
X7361076Y-16313476D02*
X7361076Y-16351571D01*
X7437267Y-16313476D02*
X7437267Y-16351571D01*
X7732505Y-16589667D02*
X7722981Y-16580143D01*
X7703933Y-16551571D01*
X7694409Y-16532524D01*
X7684886Y-16503952D01*
X7675362Y-16456333D01*
X7675362Y-16418238D01*
X7684886Y-16370619D01*
X7694409Y-16342048D01*
X7703933Y-16323000D01*
X7722981Y-16294428D01*
X7732505Y-16284905D01*
X7799171Y-16332524D02*
X7808695Y-16323000D01*
X7827743Y-16313476D01*
X7875362Y-16313476D01*
X7894409Y-16323000D01*
X7903933Y-16332524D01*
X7913457Y-16351571D01*
X7913457Y-16370619D01*
X7903933Y-16399190D01*
X7789648Y-16513476D01*
X7913457Y-16513476D01*
X8151552Y-16513476D02*
X8151552Y-16313476D01*
X8237267Y-16513476D02*
X8237267Y-16408714D01*
X8227743Y-16389667D01*
X8208695Y-16380143D01*
X8180124Y-16380143D01*
X8161076Y-16389667D01*
X8151552Y-16399190D01*
X8361076Y-16513476D02*
X8342028Y-16503952D01*
X8332505Y-16494428D01*
X8322981Y-16475381D01*
X8322981Y-16418238D01*
X8332505Y-16399190D01*
X8342028Y-16389667D01*
X8361076Y-16380143D01*
X8389648Y-16380143D01*
X8408695Y-16389667D01*
X8418219Y-16399190D01*
X8427743Y-16418238D01*
X8427743Y-16475381D01*
X8418219Y-16494428D01*
X8408695Y-16503952D01*
X8389648Y-16513476D01*
X8361076Y-16513476D01*
X8542029Y-16513476D02*
X8522981Y-16503952D01*
X8513457Y-16484905D01*
X8513457Y-16313476D01*
X8694410Y-16503952D02*
X8675362Y-16513476D01*
X8637267Y-16513476D01*
X8618219Y-16503952D01*
X8608695Y-16484905D01*
X8608695Y-16408714D01*
X8618219Y-16389667D01*
X8637267Y-16380143D01*
X8675362Y-16380143D01*
X8694410Y-16389667D01*
X8703933Y-16408714D01*
X8703933Y-16427762D01*
X8608695Y-16446809D01*
X8780124Y-16503952D02*
X8799171Y-16513476D01*
X8837267Y-16513476D01*
X8856314Y-16503952D01*
X8865838Y-16484905D01*
X8865838Y-16475381D01*
X8856314Y-16456333D01*
X8837267Y-16446809D01*
X8808695Y-16446809D01*
X8789648Y-16437286D01*
X8780124Y-16418238D01*
X8780124Y-16408714D01*
X8789648Y-16389667D01*
X8808695Y-16380143D01*
X8837267Y-16380143D01*
X8856314Y-16389667D01*
X8932505Y-16589667D02*
X8942029Y-16580143D01*
X8961076Y-16551571D01*
X8970600Y-16532524D01*
X8980124Y-16503952D01*
X8989648Y-16456333D01*
X8989648Y-16418238D01*
X8980124Y-16370619D01*
X8970600Y-16342048D01*
X8961076Y-16323000D01*
X8942029Y-16294428D01*
X8932505Y-16284905D01*
D16*
X4082100Y-16765500D02*
X4160600Y-16687000D01*
X4082100Y-16608500D01*
X4003600Y-16687000D01*
X4082100Y-16765500D01*
D11*
X4522981Y-16777476D02*
X4408695Y-16777476D01*
X4465838Y-16777476D02*
X4465838Y-16577476D01*
X4446790Y-16606048D01*
X4427743Y-16625095D01*
X4408695Y-16634619D01*
X4608695Y-16758428D02*
X4618219Y-16767952D01*
X4608695Y-16777476D01*
X4599171Y-16767952D01*
X4608695Y-16758428D01*
X4608695Y-16777476D01*
X4799171Y-16577476D02*
X4703933Y-16577476D01*
X4694410Y-16672714D01*
X4703933Y-16663190D01*
X4722981Y-16653667D01*
X4770600Y-16653667D01*
X4789648Y-16663190D01*
X4799171Y-16672714D01*
X4808695Y-16691762D01*
X4808695Y-16739381D01*
X4799171Y-16758428D01*
X4789648Y-16767952D01*
X4770600Y-16777476D01*
X4722981Y-16777476D01*
X4703933Y-16767952D01*
X4694410Y-16758428D01*
X4875362Y-16577476D02*
X5008695Y-16577476D01*
X4922981Y-16777476D01*
X5122981Y-16577476D02*
X5142029Y-16577476D01*
X5161076Y-16587000D01*
X5170600Y-16596524D01*
X5180124Y-16615571D01*
X5189648Y-16653667D01*
X5189648Y-16701286D01*
X5180124Y-16739381D01*
X5170600Y-16758428D01*
X5161076Y-16767952D01*
X5142029Y-16777476D01*
X5122981Y-16777476D01*
X5103933Y-16767952D01*
X5094410Y-16758428D01*
X5084886Y-16739381D01*
X5075362Y-16701286D01*
X5075362Y-16653667D01*
X5084886Y-16615571D01*
X5094410Y-16596524D01*
X5103933Y-16587000D01*
X5122981Y-16577476D01*
X5275362Y-16777476D02*
X5275362Y-16644143D01*
X5275362Y-16663190D02*
X5284886Y-16653667D01*
X5303933Y-16644143D01*
X5332505Y-16644143D01*
X5351552Y-16653667D01*
X5361076Y-16672714D01*
X5361076Y-16777476D01*
X5361076Y-16672714D02*
X5370600Y-16653667D01*
X5389648Y-16644143D01*
X5418219Y-16644143D01*
X5437267Y-16653667D01*
X5446790Y-16672714D01*
X5446790Y-16777476D01*
X5542029Y-16777476D02*
X5542029Y-16644143D01*
X5542029Y-16663190D02*
X5551552Y-16653667D01*
X5570600Y-16644143D01*
X5599171Y-16644143D01*
X5618219Y-16653667D01*
X5627743Y-16672714D01*
X5627743Y-16777476D01*
X5627743Y-16672714D02*
X5637267Y-16653667D01*
X5656314Y-16644143D01*
X5684886Y-16644143D01*
X5703933Y-16653667D01*
X5713457Y-16672714D01*
X5713457Y-16777476D01*
X6103933Y-16567952D02*
X5932505Y-16825095D01*
X6361076Y-16577476D02*
X6380124Y-16577476D01*
X6399171Y-16587000D01*
X6408695Y-16596524D01*
X6418219Y-16615571D01*
X6427743Y-16653667D01*
X6427743Y-16701286D01*
X6418219Y-16739381D01*
X6408695Y-16758428D01*
X6399171Y-16767952D01*
X6380124Y-16777476D01*
X6361076Y-16777476D01*
X6342028Y-16767952D01*
X6332505Y-16758428D01*
X6322981Y-16739381D01*
X6313457Y-16701286D01*
X6313457Y-16653667D01*
X6322981Y-16615571D01*
X6332505Y-16596524D01*
X6342028Y-16587000D01*
X6361076Y-16577476D01*
X6513457Y-16758428D02*
X6522981Y-16767952D01*
X6513457Y-16777476D01*
X6503933Y-16767952D01*
X6513457Y-16758428D01*
X6513457Y-16777476D01*
X6646790Y-16577476D02*
X6665838Y-16577476D01*
X6684886Y-16587000D01*
X6694409Y-16596524D01*
X6703933Y-16615571D01*
X6713457Y-16653667D01*
X6713457Y-16701286D01*
X6703933Y-16739381D01*
X6694409Y-16758428D01*
X6684886Y-16767952D01*
X6665838Y-16777476D01*
X6646790Y-16777476D01*
X6627743Y-16767952D01*
X6618219Y-16758428D01*
X6608695Y-16739381D01*
X6599171Y-16701286D01*
X6599171Y-16653667D01*
X6608695Y-16615571D01*
X6618219Y-16596524D01*
X6627743Y-16587000D01*
X6646790Y-16577476D01*
X6884886Y-16577476D02*
X6846790Y-16577476D01*
X6827743Y-16587000D01*
X6818219Y-16596524D01*
X6799171Y-16625095D01*
X6789648Y-16663190D01*
X6789648Y-16739381D01*
X6799171Y-16758428D01*
X6808695Y-16767952D01*
X6827743Y-16777476D01*
X6865838Y-16777476D01*
X6884886Y-16767952D01*
X6894409Y-16758428D01*
X6903933Y-16739381D01*
X6903933Y-16691762D01*
X6894409Y-16672714D01*
X6884886Y-16663190D01*
X6865838Y-16653667D01*
X6827743Y-16653667D01*
X6808695Y-16663190D01*
X6799171Y-16672714D01*
X6789648Y-16691762D01*
X7094409Y-16777476D02*
X6980124Y-16777476D01*
X7037267Y-16777476D02*
X7037267Y-16577476D01*
X7018219Y-16606048D01*
X6999171Y-16625095D01*
X6980124Y-16634619D01*
X7208695Y-16663190D02*
X7189648Y-16653667D01*
X7180124Y-16644143D01*
X7170600Y-16625095D01*
X7170600Y-16615571D01*
X7180124Y-16596524D01*
X7189648Y-16587000D01*
X7208695Y-16577476D01*
X7246790Y-16577476D01*
X7265838Y-16587000D01*
X7275362Y-16596524D01*
X7284886Y-16615571D01*
X7284886Y-16625095D01*
X7275362Y-16644143D01*
X7265838Y-16653667D01*
X7246790Y-16663190D01*
X7208695Y-16663190D01*
X7189648Y-16672714D01*
X7180124Y-16682238D01*
X7170600Y-16701286D01*
X7170600Y-16739381D01*
X7180124Y-16758428D01*
X7189648Y-16767952D01*
X7208695Y-16777476D01*
X7246790Y-16777476D01*
X7265838Y-16767952D01*
X7275362Y-16758428D01*
X7284886Y-16739381D01*
X7284886Y-16701286D01*
X7275362Y-16682238D01*
X7265838Y-16672714D01*
X7246790Y-16663190D01*
X7361076Y-16577476D02*
X7361076Y-16615571D01*
X7437267Y-16577476D02*
X7437267Y-16615571D01*
X7732505Y-16853667D02*
X7722981Y-16844143D01*
X7703933Y-16815571D01*
X7694409Y-16796524D01*
X7684886Y-16767952D01*
X7675362Y-16720333D01*
X7675362Y-16682238D01*
X7684886Y-16634619D01*
X7694409Y-16606048D01*
X7703933Y-16587000D01*
X7722981Y-16558428D01*
X7732505Y-16548905D01*
X7799171Y-16596524D02*
X7808695Y-16587000D01*
X7827743Y-16577476D01*
X7875362Y-16577476D01*
X7894409Y-16587000D01*
X7903933Y-16596524D01*
X7913457Y-16615571D01*
X7913457Y-16634619D01*
X7903933Y-16663190D01*
X7789648Y-16777476D01*
X7913457Y-16777476D01*
X8151552Y-16777476D02*
X8151552Y-16577476D01*
X8237267Y-16777476D02*
X8237267Y-16672714D01*
X8227743Y-16653667D01*
X8208695Y-16644143D01*
X8180124Y-16644143D01*
X8161076Y-16653667D01*
X8151552Y-16663190D01*
X8361076Y-16777476D02*
X8342028Y-16767952D01*
X8332505Y-16758428D01*
X8322981Y-16739381D01*
X8322981Y-16682238D01*
X8332505Y-16663190D01*
X8342028Y-16653667D01*
X8361076Y-16644143D01*
X8389648Y-16644143D01*
X8408695Y-16653667D01*
X8418219Y-16663190D01*
X8427743Y-16682238D01*
X8427743Y-16739381D01*
X8418219Y-16758428D01*
X8408695Y-16767952D01*
X8389648Y-16777476D01*
X8361076Y-16777476D01*
X8542029Y-16777476D02*
X8522981Y-16767952D01*
X8513457Y-16748905D01*
X8513457Y-16577476D01*
X8694410Y-16767952D02*
X8675362Y-16777476D01*
X8637267Y-16777476D01*
X8618219Y-16767952D01*
X8608695Y-16748905D01*
X8608695Y-16672714D01*
X8618219Y-16653667D01*
X8637267Y-16644143D01*
X8675362Y-16644143D01*
X8694410Y-16653667D01*
X8703933Y-16672714D01*
X8703933Y-16691762D01*
X8608695Y-16710809D01*
X8780124Y-16767952D02*
X8799171Y-16777476D01*
X8837267Y-16777476D01*
X8856314Y-16767952D01*
X8865838Y-16748905D01*
X8865838Y-16739381D01*
X8856314Y-16720333D01*
X8837267Y-16710809D01*
X8808695Y-16710809D01*
X8789648Y-16701286D01*
X8780124Y-16682238D01*
X8780124Y-16672714D01*
X8789648Y-16653667D01*
X8808695Y-16644143D01*
X8837267Y-16644143D01*
X8856314Y-16653667D01*
X8932505Y-16853667D02*
X8942029Y-16844143D01*
X8961076Y-16815571D01*
X8970600Y-16796524D01*
X8980124Y-16767952D01*
X8989648Y-16720333D01*
X8989648Y-16682238D01*
X8980124Y-16634619D01*
X8970600Y-16606048D01*
X8961076Y-16587000D01*
X8942029Y-16558428D01*
X8932505Y-16548905D01*
D17*
X3982600Y-16875000D02*
X4160600Y-17053000D01*
X4160600Y-16875000D02*
X3982600Y-17053000D01*
X4160600Y-16964000D02*
G75*
G03*
X4160600Y-16964000I-89000J0D01*
G01*
D11*
X4522981Y-17054476D02*
X4408695Y-17054476D01*
X4465838Y-17054476D02*
X4465838Y-16854476D01*
X4446790Y-16883048D01*
X4427743Y-16902095D01*
X4408695Y-16911619D01*
X4608695Y-17035429D02*
X4618219Y-17044952D01*
X4608695Y-17054476D01*
X4599171Y-17044952D01*
X4608695Y-17035429D01*
X4608695Y-17054476D01*
X4684886Y-16854476D02*
X4818219Y-16854476D01*
X4732505Y-17054476D01*
X4922981Y-16940190D02*
X4903933Y-16930667D01*
X4894410Y-16921143D01*
X4884886Y-16902095D01*
X4884886Y-16892571D01*
X4894410Y-16873524D01*
X4903933Y-16864000D01*
X4922981Y-16854476D01*
X4961076Y-16854476D01*
X4980124Y-16864000D01*
X4989648Y-16873524D01*
X4999171Y-16892571D01*
X4999171Y-16902095D01*
X4989648Y-16921143D01*
X4980124Y-16930667D01*
X4961076Y-16940190D01*
X4922981Y-16940190D01*
X4903933Y-16949714D01*
X4894410Y-16959238D01*
X4884886Y-16978286D01*
X4884886Y-17016381D01*
X4894410Y-17035429D01*
X4903933Y-17044952D01*
X4922981Y-17054476D01*
X4961076Y-17054476D01*
X4980124Y-17044952D01*
X4989648Y-17035429D01*
X4999171Y-17016381D01*
X4999171Y-16978286D01*
X4989648Y-16959238D01*
X4980124Y-16949714D01*
X4961076Y-16940190D01*
X5122981Y-16854476D02*
X5142029Y-16854476D01*
X5161076Y-16864000D01*
X5170600Y-16873524D01*
X5180124Y-16892571D01*
X5189648Y-16930667D01*
X5189648Y-16978286D01*
X5180124Y-17016381D01*
X5170600Y-17035429D01*
X5161076Y-17044952D01*
X5142029Y-17054476D01*
X5122981Y-17054476D01*
X5103933Y-17044952D01*
X5094410Y-17035429D01*
X5084886Y-17016381D01*
X5075362Y-16978286D01*
X5075362Y-16930667D01*
X5084886Y-16892571D01*
X5094410Y-16873524D01*
X5103933Y-16864000D01*
X5122981Y-16854476D01*
X5275362Y-17054476D02*
X5275362Y-16921143D01*
X5275362Y-16940190D02*
X5284886Y-16930667D01*
X5303933Y-16921143D01*
X5332505Y-16921143D01*
X5351552Y-16930667D01*
X5361076Y-16949714D01*
X5361076Y-17054476D01*
X5361076Y-16949714D02*
X5370600Y-16930667D01*
X5389648Y-16921143D01*
X5418219Y-16921143D01*
X5437267Y-16930667D01*
X5446790Y-16949714D01*
X5446790Y-17054476D01*
X5542029Y-17054476D02*
X5542029Y-16921143D01*
X5542029Y-16940190D02*
X5551552Y-16930667D01*
X5570600Y-16921143D01*
X5599171Y-16921143D01*
X5618219Y-16930667D01*
X5627743Y-16949714D01*
X5627743Y-17054476D01*
X5627743Y-16949714D02*
X5637267Y-16930667D01*
X5656314Y-16921143D01*
X5684886Y-16921143D01*
X5703933Y-16930667D01*
X5713457Y-16949714D01*
X5713457Y-17054476D01*
X6103933Y-16844952D02*
X5932505Y-17102095D01*
X6361076Y-16854476D02*
X6380124Y-16854476D01*
X6399171Y-16864000D01*
X6408695Y-16873524D01*
X6418219Y-16892571D01*
X6427743Y-16930667D01*
X6427743Y-16978286D01*
X6418219Y-17016381D01*
X6408695Y-17035429D01*
X6399171Y-17044952D01*
X6380124Y-17054476D01*
X6361076Y-17054476D01*
X6342028Y-17044952D01*
X6332505Y-17035429D01*
X6322981Y-17016381D01*
X6313457Y-16978286D01*
X6313457Y-16930667D01*
X6322981Y-16892571D01*
X6332505Y-16873524D01*
X6342028Y-16864000D01*
X6361076Y-16854476D01*
X6513457Y-17035429D02*
X6522981Y-17044952D01*
X6513457Y-17054476D01*
X6503933Y-17044952D01*
X6513457Y-17035429D01*
X6513457Y-17054476D01*
X6646790Y-16854476D02*
X6665838Y-16854476D01*
X6684886Y-16864000D01*
X6694409Y-16873524D01*
X6703933Y-16892571D01*
X6713457Y-16930667D01*
X6713457Y-16978286D01*
X6703933Y-17016381D01*
X6694409Y-17035429D01*
X6684886Y-17044952D01*
X6665838Y-17054476D01*
X6646790Y-17054476D01*
X6627743Y-17044952D01*
X6618219Y-17035429D01*
X6608695Y-17016381D01*
X6599171Y-16978286D01*
X6599171Y-16930667D01*
X6608695Y-16892571D01*
X6618219Y-16873524D01*
X6627743Y-16864000D01*
X6646790Y-16854476D01*
X6780124Y-16854476D02*
X6913457Y-16854476D01*
X6827743Y-17054476D01*
X7027743Y-16854476D02*
X7046790Y-16854476D01*
X7065838Y-16864000D01*
X7075362Y-16873524D01*
X7084886Y-16892571D01*
X7094409Y-16930667D01*
X7094409Y-16978286D01*
X7084886Y-17016381D01*
X7075362Y-17035429D01*
X7065838Y-17044952D01*
X7046790Y-17054476D01*
X7027743Y-17054476D01*
X7008695Y-17044952D01*
X6999171Y-17035429D01*
X6989648Y-17016381D01*
X6980124Y-16978286D01*
X6980124Y-16930667D01*
X6989648Y-16892571D01*
X6999171Y-16873524D01*
X7008695Y-16864000D01*
X7027743Y-16854476D01*
X7284886Y-17054476D02*
X7170600Y-17054476D01*
X7227743Y-17054476D02*
X7227743Y-16854476D01*
X7208695Y-16883048D01*
X7189648Y-16902095D01*
X7170600Y-16911619D01*
X7361076Y-16854476D02*
X7361076Y-16892571D01*
X7437267Y-16854476D02*
X7437267Y-16892571D01*
X7732505Y-17130667D02*
X7722981Y-17121143D01*
X7703933Y-17092571D01*
X7694409Y-17073524D01*
X7684886Y-17044952D01*
X7675362Y-16997333D01*
X7675362Y-16959238D01*
X7684886Y-16911619D01*
X7694409Y-16883048D01*
X7703933Y-16864000D01*
X7722981Y-16835429D01*
X7732505Y-16825905D01*
X7913457Y-17054476D02*
X7799171Y-17054476D01*
X7856314Y-17054476D02*
X7856314Y-16854476D01*
X7837267Y-16883048D01*
X7818219Y-16902095D01*
X7799171Y-16911619D01*
X8084886Y-16854476D02*
X8046790Y-16854476D01*
X8027743Y-16864000D01*
X8018219Y-16873524D01*
X7999171Y-16902095D01*
X7989648Y-16940190D01*
X7989648Y-17016381D01*
X7999171Y-17035429D01*
X8008695Y-17044952D01*
X8027743Y-17054476D01*
X8065838Y-17054476D01*
X8084886Y-17044952D01*
X8094409Y-17035429D01*
X8103933Y-17016381D01*
X8103933Y-16968762D01*
X8094409Y-16949714D01*
X8084886Y-16940190D01*
X8065838Y-16930667D01*
X8027743Y-16930667D01*
X8008695Y-16940190D01*
X7999171Y-16949714D01*
X7989648Y-16968762D01*
X8342028Y-17054476D02*
X8342028Y-16854476D01*
X8427743Y-17054476D02*
X8427743Y-16949714D01*
X8418219Y-16930667D01*
X8399171Y-16921143D01*
X8370600Y-16921143D01*
X8351552Y-16930667D01*
X8342028Y-16940190D01*
X8551552Y-17054476D02*
X8532505Y-17044952D01*
X8522981Y-17035429D01*
X8513457Y-17016381D01*
X8513457Y-16959238D01*
X8522981Y-16940190D01*
X8532505Y-16930667D01*
X8551552Y-16921143D01*
X8580124Y-16921143D01*
X8599171Y-16930667D01*
X8608695Y-16940190D01*
X8618219Y-16959238D01*
X8618219Y-17016381D01*
X8608695Y-17035429D01*
X8599171Y-17044952D01*
X8580124Y-17054476D01*
X8551552Y-17054476D01*
X8732505Y-17054476D02*
X8713457Y-17044952D01*
X8703933Y-17025905D01*
X8703933Y-16854476D01*
X8884886Y-17044952D02*
X8865838Y-17054476D01*
X8827743Y-17054476D01*
X8808695Y-17044952D01*
X8799171Y-17025905D01*
X8799171Y-16949714D01*
X8808695Y-16930667D01*
X8827743Y-16921143D01*
X8865838Y-16921143D01*
X8884886Y-16930667D01*
X8894410Y-16949714D01*
X8894410Y-16968762D01*
X8799171Y-16987810D01*
X8970600Y-17044952D02*
X8989648Y-17054476D01*
X9027743Y-17054476D01*
X9046790Y-17044952D01*
X9056314Y-17025905D01*
X9056314Y-17016381D01*
X9046790Y-16997333D01*
X9027743Y-16987810D01*
X8999171Y-16987810D01*
X8980124Y-16978286D01*
X8970600Y-16959238D01*
X8970600Y-16949714D01*
X8980124Y-16930667D01*
X8999171Y-16921143D01*
X9027743Y-16921143D01*
X9046790Y-16930667D01*
X9122981Y-17130667D02*
X9132505Y-17121143D01*
X9151552Y-17092571D01*
X9161076Y-17073524D01*
X9170600Y-17044952D01*
X9180124Y-16997333D01*
X9180124Y-16959238D01*
X9170600Y-16911619D01*
X9161076Y-16883048D01*
X9151552Y-16864000D01*
X9132505Y-16835429D01*
X9122981Y-16825905D01*
D18*
X3980600Y-17172000D02*
X4160600Y-17352000D01*
X4160600Y-17172000D02*
X3980600Y-17352000D01*
X4070600Y-17172000D02*
X4070600Y-17352000D01*
X3980600Y-17262000D02*
X4160600Y-17262000D01*
D11*
X4522981Y-17352476D02*
X4408695Y-17352476D01*
X4465838Y-17352476D02*
X4465838Y-17152476D01*
X4446790Y-17181048D01*
X4427743Y-17200095D01*
X4408695Y-17209619D01*
X4608695Y-17333429D02*
X4618219Y-17342952D01*
X4608695Y-17352476D01*
X4599171Y-17342952D01*
X4608695Y-17333429D01*
X4608695Y-17352476D01*
X4732505Y-17238190D02*
X4713457Y-17228667D01*
X4703933Y-17219143D01*
X4694410Y-17200095D01*
X4694410Y-17190571D01*
X4703933Y-17171524D01*
X4713457Y-17162000D01*
X4732505Y-17152476D01*
X4770600Y-17152476D01*
X4789648Y-17162000D01*
X4799171Y-17171524D01*
X4808695Y-17190571D01*
X4808695Y-17200095D01*
X4799171Y-17219143D01*
X4789648Y-17228667D01*
X4770600Y-17238190D01*
X4732505Y-17238190D01*
X4713457Y-17247714D01*
X4703933Y-17257238D01*
X4694410Y-17276286D01*
X4694410Y-17314381D01*
X4703933Y-17333429D01*
X4713457Y-17342952D01*
X4732505Y-17352476D01*
X4770600Y-17352476D01*
X4789648Y-17342952D01*
X4799171Y-17333429D01*
X4808695Y-17314381D01*
X4808695Y-17276286D01*
X4799171Y-17257238D01*
X4789648Y-17247714D01*
X4770600Y-17238190D01*
X4932505Y-17152476D02*
X4951552Y-17152476D01*
X4970600Y-17162000D01*
X4980124Y-17171524D01*
X4989648Y-17190571D01*
X4999171Y-17228667D01*
X4999171Y-17276286D01*
X4989648Y-17314381D01*
X4980124Y-17333429D01*
X4970600Y-17342952D01*
X4951552Y-17352476D01*
X4932505Y-17352476D01*
X4913457Y-17342952D01*
X4903933Y-17333429D01*
X4894410Y-17314381D01*
X4884886Y-17276286D01*
X4884886Y-17228667D01*
X4894410Y-17190571D01*
X4903933Y-17171524D01*
X4913457Y-17162000D01*
X4932505Y-17152476D01*
X5122981Y-17152476D02*
X5142029Y-17152476D01*
X5161076Y-17162000D01*
X5170600Y-17171524D01*
X5180124Y-17190571D01*
X5189648Y-17228667D01*
X5189648Y-17276286D01*
X5180124Y-17314381D01*
X5170600Y-17333429D01*
X5161076Y-17342952D01*
X5142029Y-17352476D01*
X5122981Y-17352476D01*
X5103933Y-17342952D01*
X5094410Y-17333429D01*
X5084886Y-17314381D01*
X5075362Y-17276286D01*
X5075362Y-17228667D01*
X5084886Y-17190571D01*
X5094410Y-17171524D01*
X5103933Y-17162000D01*
X5122981Y-17152476D01*
X5275362Y-17352476D02*
X5275362Y-17219143D01*
X5275362Y-17238190D02*
X5284886Y-17228667D01*
X5303933Y-17219143D01*
X5332505Y-17219143D01*
X5351552Y-17228667D01*
X5361076Y-17247714D01*
X5361076Y-17352476D01*
X5361076Y-17247714D02*
X5370600Y-17228667D01*
X5389648Y-17219143D01*
X5418219Y-17219143D01*
X5437267Y-17228667D01*
X5446790Y-17247714D01*
X5446790Y-17352476D01*
X5542029Y-17352476D02*
X5542029Y-17219143D01*
X5542029Y-17238190D02*
X5551552Y-17228667D01*
X5570600Y-17219143D01*
X5599171Y-17219143D01*
X5618219Y-17228667D01*
X5627743Y-17247714D01*
X5627743Y-17352476D01*
X5627743Y-17247714D02*
X5637267Y-17228667D01*
X5656314Y-17219143D01*
X5684886Y-17219143D01*
X5703933Y-17228667D01*
X5713457Y-17247714D01*
X5713457Y-17352476D01*
X6103933Y-17142952D02*
X5932505Y-17400095D01*
X6361076Y-17152476D02*
X6380124Y-17152476D01*
X6399171Y-17162000D01*
X6408695Y-17171524D01*
X6418219Y-17190571D01*
X6427743Y-17228667D01*
X6427743Y-17276286D01*
X6418219Y-17314381D01*
X6408695Y-17333429D01*
X6399171Y-17342952D01*
X6380124Y-17352476D01*
X6361076Y-17352476D01*
X6342028Y-17342952D01*
X6332505Y-17333429D01*
X6322981Y-17314381D01*
X6313457Y-17276286D01*
X6313457Y-17228667D01*
X6322981Y-17190571D01*
X6332505Y-17171524D01*
X6342028Y-17162000D01*
X6361076Y-17152476D01*
X6513457Y-17333429D02*
X6522981Y-17342952D01*
X6513457Y-17352476D01*
X6503933Y-17342952D01*
X6513457Y-17333429D01*
X6513457Y-17352476D01*
X6646790Y-17152476D02*
X6665838Y-17152476D01*
X6684886Y-17162000D01*
X6694409Y-17171524D01*
X6703933Y-17190571D01*
X6713457Y-17228667D01*
X6713457Y-17276286D01*
X6703933Y-17314381D01*
X6694409Y-17333429D01*
X6684886Y-17342952D01*
X6665838Y-17352476D01*
X6646790Y-17352476D01*
X6627743Y-17342952D01*
X6618219Y-17333429D01*
X6608695Y-17314381D01*
X6599171Y-17276286D01*
X6599171Y-17228667D01*
X6608695Y-17190571D01*
X6618219Y-17171524D01*
X6627743Y-17162000D01*
X6646790Y-17152476D01*
X6780124Y-17152476D02*
X6913457Y-17152476D01*
X6827743Y-17352476D01*
X7027743Y-17152476D02*
X7046790Y-17152476D01*
X7065838Y-17162000D01*
X7075362Y-17171524D01*
X7084886Y-17190571D01*
X7094409Y-17228667D01*
X7094409Y-17276286D01*
X7084886Y-17314381D01*
X7075362Y-17333429D01*
X7065838Y-17342952D01*
X7046790Y-17352476D01*
X7027743Y-17352476D01*
X7008695Y-17342952D01*
X6999171Y-17333429D01*
X6989648Y-17314381D01*
X6980124Y-17276286D01*
X6980124Y-17228667D01*
X6989648Y-17190571D01*
X6999171Y-17171524D01*
X7008695Y-17162000D01*
X7027743Y-17152476D01*
X7189648Y-17352476D02*
X7227743Y-17352476D01*
X7246790Y-17342952D01*
X7256314Y-17333429D01*
X7275362Y-17304857D01*
X7284886Y-17266762D01*
X7284886Y-17190571D01*
X7275362Y-17171524D01*
X7265838Y-17162000D01*
X7246790Y-17152476D01*
X7208695Y-17152476D01*
X7189648Y-17162000D01*
X7180124Y-17171524D01*
X7170600Y-17190571D01*
X7170600Y-17238190D01*
X7180124Y-17257238D01*
X7189648Y-17266762D01*
X7208695Y-17276286D01*
X7246790Y-17276286D01*
X7265838Y-17266762D01*
X7275362Y-17257238D01*
X7284886Y-17238190D01*
X7361076Y-17152476D02*
X7361076Y-17190571D01*
X7437267Y-17152476D02*
X7437267Y-17190571D01*
X7732505Y-17428667D02*
X7722981Y-17419143D01*
X7703933Y-17390571D01*
X7694409Y-17371524D01*
X7684886Y-17342952D01*
X7675362Y-17295333D01*
X7675362Y-17257238D01*
X7684886Y-17209619D01*
X7694409Y-17181048D01*
X7703933Y-17162000D01*
X7722981Y-17133429D01*
X7732505Y-17123905D01*
X7799171Y-17171524D02*
X7808695Y-17162000D01*
X7827743Y-17152476D01*
X7875362Y-17152476D01*
X7894409Y-17162000D01*
X7903933Y-17171524D01*
X7913457Y-17190571D01*
X7913457Y-17209619D01*
X7903933Y-17238190D01*
X7789648Y-17352476D01*
X7913457Y-17352476D01*
X8151552Y-17352476D02*
X8151552Y-17152476D01*
X8237267Y-17352476D02*
X8237267Y-17247714D01*
X8227743Y-17228667D01*
X8208695Y-17219143D01*
X8180124Y-17219143D01*
X8161076Y-17228667D01*
X8151552Y-17238190D01*
X8361076Y-17352476D02*
X8342028Y-17342952D01*
X8332505Y-17333429D01*
X8322981Y-17314381D01*
X8322981Y-17257238D01*
X8332505Y-17238190D01*
X8342028Y-17228667D01*
X8361076Y-17219143D01*
X8389648Y-17219143D01*
X8408695Y-17228667D01*
X8418219Y-17238190D01*
X8427743Y-17257238D01*
X8427743Y-17314381D01*
X8418219Y-17333429D01*
X8408695Y-17342952D01*
X8389648Y-17352476D01*
X8361076Y-17352476D01*
X8542029Y-17352476D02*
X8522981Y-17342952D01*
X8513457Y-17323905D01*
X8513457Y-17152476D01*
X8694410Y-17342952D02*
X8675362Y-17352476D01*
X8637267Y-17352476D01*
X8618219Y-17342952D01*
X8608695Y-17323905D01*
X8608695Y-17247714D01*
X8618219Y-17228667D01*
X8637267Y-17219143D01*
X8675362Y-17219143D01*
X8694410Y-17228667D01*
X8703933Y-17247714D01*
X8703933Y-17266762D01*
X8608695Y-17285810D01*
X8780124Y-17342952D02*
X8799171Y-17352476D01*
X8837267Y-17352476D01*
X8856314Y-17342952D01*
X8865838Y-17323905D01*
X8865838Y-17314381D01*
X8856314Y-17295333D01*
X8837267Y-17285810D01*
X8808695Y-17285810D01*
X8789648Y-17276286D01*
X8780124Y-17257238D01*
X8780124Y-17247714D01*
X8789648Y-17228667D01*
X8808695Y-17219143D01*
X8837267Y-17219143D01*
X8856314Y-17228667D01*
X8932505Y-17428667D02*
X8942029Y-17419143D01*
X8961076Y-17390571D01*
X8970600Y-17371524D01*
X8980124Y-17342952D01*
X8989648Y-17295333D01*
X8989648Y-17257238D01*
X8980124Y-17209619D01*
X8970600Y-17181048D01*
X8961076Y-17162000D01*
X8942029Y-17133429D01*
X8932505Y-17123905D01*
X3960600Y-17462000D02*
X4160600Y-17662000D01*
X4160600Y-17462000D02*
X3960600Y-17662000D01*
X4131311Y-17632711D02*
X4131311Y-17491289D01*
X3989889Y-17491289D01*
X3989889Y-17632711D01*
X4131311Y-17632711D01*
X4399171Y-17452476D02*
X4522981Y-17452476D01*
X4456314Y-17528667D01*
X4484886Y-17528667D01*
X4503933Y-17538190D01*
X4513457Y-17547714D01*
X4522981Y-17566762D01*
X4522981Y-17614381D01*
X4513457Y-17633429D01*
X4503933Y-17642952D01*
X4484886Y-17652476D01*
X4427743Y-17652476D01*
X4408695Y-17642952D01*
X4399171Y-17633429D01*
X4608695Y-17633429D02*
X4618219Y-17642952D01*
X4608695Y-17652476D01*
X4599171Y-17642952D01*
X4608695Y-17633429D01*
X4608695Y-17652476D01*
X4694410Y-17471524D02*
X4703933Y-17462000D01*
X4722981Y-17452476D01*
X4770600Y-17452476D01*
X4789648Y-17462000D01*
X4799171Y-17471524D01*
X4808695Y-17490571D01*
X4808695Y-17509619D01*
X4799171Y-17538190D01*
X4684886Y-17652476D01*
X4808695Y-17652476D01*
X4932505Y-17452476D02*
X4951552Y-17452476D01*
X4970600Y-17462000D01*
X4980124Y-17471524D01*
X4989648Y-17490571D01*
X4999171Y-17528667D01*
X4999171Y-17576286D01*
X4989648Y-17614381D01*
X4980124Y-17633429D01*
X4970600Y-17642952D01*
X4951552Y-17652476D01*
X4932505Y-17652476D01*
X4913457Y-17642952D01*
X4903933Y-17633429D01*
X4894410Y-17614381D01*
X4884886Y-17576286D01*
X4884886Y-17528667D01*
X4894410Y-17490571D01*
X4903933Y-17471524D01*
X4913457Y-17462000D01*
X4932505Y-17452476D01*
X5122981Y-17452476D02*
X5142029Y-17452476D01*
X5161076Y-17462000D01*
X5170600Y-17471524D01*
X5180124Y-17490571D01*
X5189648Y-17528667D01*
X5189648Y-17576286D01*
X5180124Y-17614381D01*
X5170600Y-17633429D01*
X5161076Y-17642952D01*
X5142029Y-17652476D01*
X5122981Y-17652476D01*
X5103933Y-17642952D01*
X5094410Y-17633429D01*
X5084886Y-17614381D01*
X5075362Y-17576286D01*
X5075362Y-17528667D01*
X5084886Y-17490571D01*
X5094410Y-17471524D01*
X5103933Y-17462000D01*
X5122981Y-17452476D01*
X5275362Y-17652476D02*
X5275362Y-17519143D01*
X5275362Y-17538190D02*
X5284886Y-17528667D01*
X5303933Y-17519143D01*
X5332505Y-17519143D01*
X5351552Y-17528667D01*
X5361076Y-17547714D01*
X5361076Y-17652476D01*
X5361076Y-17547714D02*
X5370600Y-17528667D01*
X5389648Y-17519143D01*
X5418219Y-17519143D01*
X5437267Y-17528667D01*
X5446790Y-17547714D01*
X5446790Y-17652476D01*
X5542029Y-17652476D02*
X5542029Y-17519143D01*
X5542029Y-17538190D02*
X5551552Y-17528667D01*
X5570600Y-17519143D01*
X5599171Y-17519143D01*
X5618219Y-17528667D01*
X5627743Y-17547714D01*
X5627743Y-17652476D01*
X5627743Y-17547714D02*
X5637267Y-17528667D01*
X5656314Y-17519143D01*
X5684886Y-17519143D01*
X5703933Y-17528667D01*
X5713457Y-17547714D01*
X5713457Y-17652476D01*
X6103933Y-17442952D02*
X5932505Y-17700095D01*
X6361076Y-17452476D02*
X6380124Y-17452476D01*
X6399171Y-17462000D01*
X6408695Y-17471524D01*
X6418219Y-17490571D01*
X6427743Y-17528667D01*
X6427743Y-17576286D01*
X6418219Y-17614381D01*
X6408695Y-17633429D01*
X6399171Y-17642952D01*
X6380124Y-17652476D01*
X6361076Y-17652476D01*
X6342028Y-17642952D01*
X6332505Y-17633429D01*
X6322981Y-17614381D01*
X6313457Y-17576286D01*
X6313457Y-17528667D01*
X6322981Y-17490571D01*
X6332505Y-17471524D01*
X6342028Y-17462000D01*
X6361076Y-17452476D01*
X6513457Y-17633429D02*
X6522981Y-17642952D01*
X6513457Y-17652476D01*
X6503933Y-17642952D01*
X6513457Y-17633429D01*
X6513457Y-17652476D01*
X6713457Y-17652476D02*
X6599171Y-17652476D01*
X6656314Y-17652476D02*
X6656314Y-17452476D01*
X6637267Y-17481048D01*
X6618219Y-17500095D01*
X6599171Y-17509619D01*
X6789648Y-17471524D02*
X6799171Y-17462000D01*
X6818219Y-17452476D01*
X6865838Y-17452476D01*
X6884886Y-17462000D01*
X6894409Y-17471524D01*
X6903933Y-17490571D01*
X6903933Y-17509619D01*
X6894409Y-17538190D01*
X6780124Y-17652476D01*
X6903933Y-17652476D01*
X7075362Y-17452476D02*
X7037267Y-17452476D01*
X7018219Y-17462000D01*
X7008695Y-17471524D01*
X6989648Y-17500095D01*
X6980124Y-17538190D01*
X6980124Y-17614381D01*
X6989648Y-17633429D01*
X6999171Y-17642952D01*
X7018219Y-17652476D01*
X7056314Y-17652476D01*
X7075362Y-17642952D01*
X7084886Y-17633429D01*
X7094409Y-17614381D01*
X7094409Y-17566762D01*
X7084886Y-17547714D01*
X7075362Y-17538190D01*
X7056314Y-17528667D01*
X7018219Y-17528667D01*
X6999171Y-17538190D01*
X6989648Y-17547714D01*
X6980124Y-17566762D01*
X7218219Y-17452476D02*
X7237267Y-17452476D01*
X7256314Y-17462000D01*
X7265838Y-17471524D01*
X7275362Y-17490571D01*
X7284886Y-17528667D01*
X7284886Y-17576286D01*
X7275362Y-17614381D01*
X7265838Y-17633429D01*
X7256314Y-17642952D01*
X7237267Y-17652476D01*
X7218219Y-17652476D01*
X7199171Y-17642952D01*
X7189648Y-17633429D01*
X7180124Y-17614381D01*
X7170600Y-17576286D01*
X7170600Y-17528667D01*
X7180124Y-17490571D01*
X7189648Y-17471524D01*
X7199171Y-17462000D01*
X7218219Y-17452476D01*
X7361076Y-17452476D02*
X7361076Y-17490571D01*
X7437267Y-17452476D02*
X7437267Y-17490571D01*
X7732505Y-17728667D02*
X7722981Y-17719143D01*
X7703933Y-17690571D01*
X7694409Y-17671524D01*
X7684886Y-17642952D01*
X7675362Y-17595333D01*
X7675362Y-17557238D01*
X7684886Y-17509619D01*
X7694409Y-17481048D01*
X7703933Y-17462000D01*
X7722981Y-17433429D01*
X7732505Y-17423905D01*
X7894409Y-17519143D02*
X7894409Y-17652476D01*
X7846790Y-17442952D02*
X7799171Y-17585810D01*
X7922981Y-17585810D01*
X8151552Y-17652476D02*
X8151552Y-17452476D01*
X8237267Y-17652476D02*
X8237267Y-17547714D01*
X8227743Y-17528667D01*
X8208695Y-17519143D01*
X8180124Y-17519143D01*
X8161076Y-17528667D01*
X8151552Y-17538190D01*
X8361076Y-17652476D02*
X8342028Y-17642952D01*
X8332505Y-17633429D01*
X8322981Y-17614381D01*
X8322981Y-17557238D01*
X8332505Y-17538190D01*
X8342028Y-17528667D01*
X8361076Y-17519143D01*
X8389648Y-17519143D01*
X8408695Y-17528667D01*
X8418219Y-17538190D01*
X8427743Y-17557238D01*
X8427743Y-17614381D01*
X8418219Y-17633429D01*
X8408695Y-17642952D01*
X8389648Y-17652476D01*
X8361076Y-17652476D01*
X8542029Y-17652476D02*
X8522981Y-17642952D01*
X8513457Y-17623905D01*
X8513457Y-17452476D01*
X8694410Y-17642952D02*
X8675362Y-17652476D01*
X8637267Y-17652476D01*
X8618219Y-17642952D01*
X8608695Y-17623905D01*
X8608695Y-17547714D01*
X8618219Y-17528667D01*
X8637267Y-17519143D01*
X8675362Y-17519143D01*
X8694410Y-17528667D01*
X8703933Y-17547714D01*
X8703933Y-17566762D01*
X8608695Y-17585810D01*
X8780124Y-17642952D02*
X8799171Y-17652476D01*
X8837267Y-17652476D01*
X8856314Y-17642952D01*
X8865838Y-17623905D01*
X8865838Y-17614381D01*
X8856314Y-17595333D01*
X8837267Y-17585810D01*
X8808695Y-17585810D01*
X8789648Y-17576286D01*
X8780124Y-17557238D01*
X8780124Y-17547714D01*
X8789648Y-17528667D01*
X8808695Y-17519143D01*
X8837267Y-17519143D01*
X8856314Y-17528667D01*
X8932505Y-17728667D02*
X8942029Y-17719143D01*
X8961076Y-17690571D01*
X8970600Y-17671524D01*
X8980124Y-17642952D01*
X8989648Y-17595333D01*
X8989648Y-17557238D01*
X8980124Y-17509619D01*
X8970600Y-17481048D01*
X8961076Y-17462000D01*
X8942029Y-17433429D01*
X8932505Y-17423905D01*
M02*
