%TF.GenerationSoftware,KiCad,Pcbnew,(5.1.9-0-10_14)*%
%TF.CreationDate,2022-05-15T18:46:11-07:00*%
%TF.ProjectId,PROTO_PCB_2022,50524f54-4f5f-4504-9342-5f323032322e,rev?*%
%TF.SameCoordinates,Original*%
%TF.FileFunction,Legend,Top*%
%TF.FilePolarity,Positive*%
%FSLAX46Y46*%
G04 Gerber Fmt 4.6, Leading zero omitted, Abs format (unit mm)*
G04 Created by KiCad (PCBNEW (5.1.9-0-10_14)) date 2022-05-15 18:46:11*
%MOMM*%
%LPD*%
G01*
G04 APERTURE LIST*
%ADD10C,0.150000*%
%ADD11C,0.100000*%
%ADD12C,0.200000*%
%ADD13C,0.120000*%
%ADD14C,0.127000*%
G04 APERTURE END LIST*
D10*
X106648476Y-132770571D02*
X106791333Y-132818190D01*
X106838952Y-132865809D01*
X106886571Y-132961047D01*
X106886571Y-133103904D01*
X106838952Y-133199142D01*
X106791333Y-133246761D01*
X106696095Y-133294380D01*
X106315142Y-133294380D01*
X106315142Y-132294380D01*
X106648476Y-132294380D01*
X106743714Y-132342000D01*
X106791333Y-132389619D01*
X106838952Y-132484857D01*
X106838952Y-132580095D01*
X106791333Y-132675333D01*
X106743714Y-132722952D01*
X106648476Y-132770571D01*
X106315142Y-132770571D01*
X107886571Y-133294380D02*
X107553238Y-132818190D01*
X107315142Y-133294380D02*
X107315142Y-132294380D01*
X107696095Y-132294380D01*
X107791333Y-132342000D01*
X107838952Y-132389619D01*
X107886571Y-132484857D01*
X107886571Y-132627714D01*
X107838952Y-132722952D01*
X107791333Y-132770571D01*
X107696095Y-132818190D01*
X107315142Y-132818190D01*
X108267523Y-133008666D02*
X108743714Y-133008666D01*
X108172285Y-133294380D02*
X108505619Y-132294380D01*
X108838952Y-133294380D01*
X109172285Y-133294380D02*
X109172285Y-132294380D01*
X109743714Y-133294380D02*
X109315142Y-132722952D01*
X109743714Y-132294380D02*
X109172285Y-132865809D01*
X110172285Y-132770571D02*
X110505619Y-132770571D01*
X110648476Y-133294380D02*
X110172285Y-133294380D01*
X110172285Y-132294380D01*
X110648476Y-132294380D01*
X99187142Y-132294380D02*
X99758571Y-132294380D01*
X99472857Y-133294380D02*
X99472857Y-132294380D01*
X100091904Y-132770571D02*
X100425238Y-132770571D01*
X100568095Y-133294380D02*
X100091904Y-133294380D01*
X100091904Y-132294380D01*
X100568095Y-132294380D01*
X101472857Y-133294380D02*
X100996666Y-133294380D01*
X100996666Y-132294380D01*
X88844666Y-133294380D02*
X88844666Y-132294380D01*
X88844666Y-132770571D02*
X89416095Y-132770571D01*
X89416095Y-133294380D02*
X89416095Y-132294380D01*
X90082761Y-132294380D02*
X90273238Y-132294380D01*
X90368476Y-132342000D01*
X90463714Y-132437238D01*
X90511333Y-132627714D01*
X90511333Y-132961047D01*
X90463714Y-133151523D01*
X90368476Y-133246761D01*
X90273238Y-133294380D01*
X90082761Y-133294380D01*
X89987523Y-133246761D01*
X89892285Y-133151523D01*
X89844666Y-132961047D01*
X89844666Y-132627714D01*
X89892285Y-132437238D01*
X89987523Y-132342000D01*
X90082761Y-132294380D01*
X91511333Y-133294380D02*
X91178000Y-132818190D01*
X90939904Y-133294380D02*
X90939904Y-132294380D01*
X91320857Y-132294380D01*
X91416095Y-132342000D01*
X91463714Y-132389619D01*
X91511333Y-132484857D01*
X91511333Y-132627714D01*
X91463714Y-132722952D01*
X91416095Y-132770571D01*
X91320857Y-132818190D01*
X90939904Y-132818190D01*
X91939904Y-133294380D02*
X91939904Y-132294380D01*
X92511333Y-133294380D01*
X92511333Y-132294380D01*
X81057904Y-133008666D02*
X81534095Y-133008666D01*
X80962666Y-133294380D02*
X81296000Y-132294380D01*
X81629333Y-133294380D01*
X81962666Y-132294380D02*
X81962666Y-133103904D01*
X82010285Y-133199142D01*
X82057904Y-133246761D01*
X82153142Y-133294380D01*
X82343619Y-133294380D01*
X82438857Y-133246761D01*
X82486476Y-133199142D01*
X82534095Y-133103904D01*
X82534095Y-132294380D01*
X82915047Y-132294380D02*
X83581714Y-133294380D01*
X83581714Y-132294380D02*
X82915047Y-133294380D01*
X72421904Y-132770571D02*
X72755238Y-132770571D01*
X72898095Y-133294380D02*
X72421904Y-133294380D01*
X72421904Y-132294380D01*
X72898095Y-132294380D01*
X73898095Y-133199142D02*
X73850476Y-133246761D01*
X73707619Y-133294380D01*
X73612380Y-133294380D01*
X73469523Y-133246761D01*
X73374285Y-133151523D01*
X73326666Y-133056285D01*
X73279047Y-132865809D01*
X73279047Y-132722952D01*
X73326666Y-132532476D01*
X73374285Y-132437238D01*
X73469523Y-132342000D01*
X73612380Y-132294380D01*
X73707619Y-132294380D01*
X73850476Y-132342000D01*
X73898095Y-132389619D01*
X74326666Y-132294380D02*
X74326666Y-133103904D01*
X74374285Y-133199142D01*
X74421904Y-133246761D01*
X74517142Y-133294380D01*
X74707619Y-133294380D01*
X74802857Y-133246761D01*
X74850476Y-133199142D01*
X74898095Y-133103904D01*
X74898095Y-132294380D01*
D11*
X50179190Y-143265904D02*
X50636333Y-143265904D01*
X50407761Y-144065904D02*
X50407761Y-143265904D01*
X51245857Y-144065904D02*
X51245857Y-143646857D01*
X51207761Y-143570666D01*
X51131571Y-143532571D01*
X50979190Y-143532571D01*
X50903000Y-143570666D01*
X51245857Y-144027809D02*
X51169666Y-144065904D01*
X50979190Y-144065904D01*
X50903000Y-144027809D01*
X50864904Y-143951619D01*
X50864904Y-143875428D01*
X50903000Y-143799238D01*
X50979190Y-143761142D01*
X51169666Y-143761142D01*
X51245857Y-143723047D01*
X51741095Y-144065904D02*
X51664904Y-144027809D01*
X51626809Y-143951619D01*
X51626809Y-143265904D01*
X52045857Y-144065904D02*
X52045857Y-143532571D01*
X52045857Y-143265904D02*
X52007761Y-143304000D01*
X52045857Y-143342095D01*
X52083952Y-143304000D01*
X52045857Y-143265904D01*
X52045857Y-143342095D01*
X52388714Y-144027809D02*
X52464904Y-144065904D01*
X52617285Y-144065904D01*
X52693476Y-144027809D01*
X52731571Y-143951619D01*
X52731571Y-143913523D01*
X52693476Y-143837333D01*
X52617285Y-143799238D01*
X52503000Y-143799238D01*
X52426809Y-143761142D01*
X52388714Y-143684952D01*
X52388714Y-143646857D01*
X52426809Y-143570666D01*
X52503000Y-143532571D01*
X52617285Y-143532571D01*
X52693476Y-143570666D01*
X53074428Y-144065904D02*
X53074428Y-143265904D01*
X53417285Y-144065904D02*
X53417285Y-143646857D01*
X53379190Y-143570666D01*
X53303000Y-143532571D01*
X53188714Y-143532571D01*
X53112523Y-143570666D01*
X53074428Y-143608761D01*
X54141095Y-144065904D02*
X54141095Y-143646857D01*
X54103000Y-143570666D01*
X54026809Y-143532571D01*
X53874428Y-143532571D01*
X53798238Y-143570666D01*
X54141095Y-144027809D02*
X54064904Y-144065904D01*
X53874428Y-144065904D01*
X53798238Y-144027809D01*
X53760142Y-143951619D01*
X53760142Y-143875428D01*
X53798238Y-143799238D01*
X53874428Y-143761142D01*
X54064904Y-143761142D01*
X54141095Y-143723047D01*
X55550619Y-143304000D02*
X55474428Y-143265904D01*
X55360142Y-143265904D01*
X55245857Y-143304000D01*
X55169666Y-143380190D01*
X55131571Y-143456380D01*
X55093476Y-143608761D01*
X55093476Y-143723047D01*
X55131571Y-143875428D01*
X55169666Y-143951619D01*
X55245857Y-144027809D01*
X55360142Y-144065904D01*
X55436333Y-144065904D01*
X55550619Y-144027809D01*
X55588714Y-143989714D01*
X55588714Y-143723047D01*
X55436333Y-143723047D01*
X55931571Y-144065904D02*
X55931571Y-143532571D01*
X55931571Y-143684952D02*
X55969666Y-143608761D01*
X56007761Y-143570666D01*
X56083952Y-143532571D01*
X56160142Y-143532571D01*
X56426809Y-144065904D02*
X56426809Y-143532571D01*
X56426809Y-143265904D02*
X56388714Y-143304000D01*
X56426809Y-143342095D01*
X56464904Y-143304000D01*
X56426809Y-143265904D01*
X56426809Y-143342095D01*
X57112523Y-144027809D02*
X57036333Y-144065904D01*
X56883952Y-144065904D01*
X56807761Y-144027809D01*
X56769666Y-143951619D01*
X56769666Y-143646857D01*
X56807761Y-143570666D01*
X56883952Y-143532571D01*
X57036333Y-143532571D01*
X57112523Y-143570666D01*
X57150619Y-143646857D01*
X57150619Y-143723047D01*
X56769666Y-143799238D01*
X57455380Y-144027809D02*
X57531571Y-144065904D01*
X57683952Y-144065904D01*
X57760142Y-144027809D01*
X57798238Y-143951619D01*
X57798238Y-143913523D01*
X57760142Y-143837333D01*
X57683952Y-143799238D01*
X57569666Y-143799238D01*
X57493476Y-143761142D01*
X57455380Y-143684952D01*
X57455380Y-143646857D01*
X57493476Y-143570666D01*
X57569666Y-143532571D01*
X57683952Y-143532571D01*
X57760142Y-143570666D01*
X58141095Y-144065904D02*
X58141095Y-143265904D01*
X58141095Y-143570666D02*
X58217285Y-143532571D01*
X58369666Y-143532571D01*
X58445857Y-143570666D01*
X58483952Y-143608761D01*
X58522047Y-143684952D01*
X58522047Y-143913523D01*
X58483952Y-143989714D01*
X58445857Y-144027809D01*
X58369666Y-144065904D01*
X58217285Y-144065904D01*
X58141095Y-144027809D01*
X59207761Y-144065904D02*
X59207761Y-143646857D01*
X59169666Y-143570666D01*
X59093476Y-143532571D01*
X58941095Y-143532571D01*
X58864904Y-143570666D01*
X59207761Y-144027809D02*
X59131571Y-144065904D01*
X58941095Y-144065904D01*
X58864904Y-144027809D01*
X58826809Y-143951619D01*
X58826809Y-143875428D01*
X58864904Y-143799238D01*
X58941095Y-143761142D01*
X59131571Y-143761142D01*
X59207761Y-143723047D01*
X59931571Y-144027809D02*
X59855380Y-144065904D01*
X59703000Y-144065904D01*
X59626809Y-144027809D01*
X59588714Y-143989714D01*
X59550619Y-143913523D01*
X59550619Y-143684952D01*
X59588714Y-143608761D01*
X59626809Y-143570666D01*
X59703000Y-143532571D01*
X59855380Y-143532571D01*
X59931571Y-143570666D01*
X60274428Y-144065904D02*
X60274428Y-143265904D01*
X60617285Y-144065904D02*
X60617285Y-143646857D01*
X60579190Y-143570666D01*
X60503000Y-143532571D01*
X60388714Y-143532571D01*
X60312523Y-143570666D01*
X60274428Y-143608761D01*
X50255380Y-145327809D02*
X50369666Y-145365904D01*
X50560142Y-145365904D01*
X50636333Y-145327809D01*
X50674428Y-145289714D01*
X50712523Y-145213523D01*
X50712523Y-145137333D01*
X50674428Y-145061142D01*
X50636333Y-145023047D01*
X50560142Y-144984952D01*
X50407761Y-144946857D01*
X50331571Y-144908761D01*
X50293476Y-144870666D01*
X50255380Y-144794476D01*
X50255380Y-144718285D01*
X50293476Y-144642095D01*
X50331571Y-144604000D01*
X50407761Y-144565904D01*
X50598238Y-144565904D01*
X50712523Y-144604000D01*
X51398238Y-145365904D02*
X51398238Y-144946857D01*
X51360142Y-144870666D01*
X51283952Y-144832571D01*
X51131571Y-144832571D01*
X51055380Y-144870666D01*
X51398238Y-145327809D02*
X51322047Y-145365904D01*
X51131571Y-145365904D01*
X51055380Y-145327809D01*
X51017285Y-145251619D01*
X51017285Y-145175428D01*
X51055380Y-145099238D01*
X51131571Y-145061142D01*
X51322047Y-145061142D01*
X51398238Y-145023047D01*
X51779190Y-145365904D02*
X51779190Y-144832571D01*
X51779190Y-144984952D02*
X51817285Y-144908761D01*
X51855380Y-144870666D01*
X51931571Y-144832571D01*
X52007761Y-144832571D01*
X52617285Y-145365904D02*
X52617285Y-144946857D01*
X52579190Y-144870666D01*
X52503000Y-144832571D01*
X52350619Y-144832571D01*
X52274428Y-144870666D01*
X52617285Y-145327809D02*
X52541095Y-145365904D01*
X52350619Y-145365904D01*
X52274428Y-145327809D01*
X52236333Y-145251619D01*
X52236333Y-145175428D01*
X52274428Y-145099238D01*
X52350619Y-145061142D01*
X52541095Y-145061142D01*
X52617285Y-145023047D01*
X52998238Y-145365904D02*
X52998238Y-144565904D01*
X53341095Y-145365904D02*
X53341095Y-144946857D01*
X53303000Y-144870666D01*
X53226809Y-144832571D01*
X53112523Y-144832571D01*
X53036333Y-144870666D01*
X52998238Y-144908761D01*
X54864904Y-145442095D02*
X54788714Y-145404000D01*
X54712523Y-145327809D01*
X54598238Y-145213523D01*
X54522047Y-145175428D01*
X54445857Y-145175428D01*
X54483952Y-145365904D02*
X54407761Y-145327809D01*
X54331571Y-145251619D01*
X54293476Y-145099238D01*
X54293476Y-144832571D01*
X54331571Y-144680190D01*
X54407761Y-144604000D01*
X54483952Y-144565904D01*
X54636333Y-144565904D01*
X54712523Y-144604000D01*
X54788714Y-144680190D01*
X54826809Y-144832571D01*
X54826809Y-145099238D01*
X54788714Y-145251619D01*
X54712523Y-145327809D01*
X54636333Y-145365904D01*
X54483952Y-145365904D01*
X55512523Y-145365904D02*
X55512523Y-144946857D01*
X55474428Y-144870666D01*
X55398238Y-144832571D01*
X55245857Y-144832571D01*
X55169666Y-144870666D01*
X55512523Y-145327809D02*
X55436333Y-145365904D01*
X55245857Y-145365904D01*
X55169666Y-145327809D01*
X55131571Y-145251619D01*
X55131571Y-145175428D01*
X55169666Y-145099238D01*
X55245857Y-145061142D01*
X55436333Y-145061142D01*
X55512523Y-145023047D01*
X56236333Y-145365904D02*
X56236333Y-144565904D01*
X56236333Y-145327809D02*
X56160142Y-145365904D01*
X56007761Y-145365904D01*
X55931571Y-145327809D01*
X55893476Y-145289714D01*
X55855380Y-145213523D01*
X55855380Y-144984952D01*
X55893476Y-144908761D01*
X55931571Y-144870666D01*
X56007761Y-144832571D01*
X56160142Y-144832571D01*
X56236333Y-144870666D01*
X56960142Y-145365904D02*
X56960142Y-144946857D01*
X56922047Y-144870666D01*
X56845857Y-144832571D01*
X56693476Y-144832571D01*
X56617285Y-144870666D01*
X56960142Y-145327809D02*
X56883952Y-145365904D01*
X56693476Y-145365904D01*
X56617285Y-145327809D01*
X56579190Y-145251619D01*
X56579190Y-145175428D01*
X56617285Y-145099238D01*
X56693476Y-145061142D01*
X56883952Y-145061142D01*
X56960142Y-145023047D01*
X57341095Y-145365904D02*
X57341095Y-144832571D01*
X57341095Y-144984952D02*
X57379190Y-144908761D01*
X57417285Y-144870666D01*
X57493476Y-144832571D01*
X57569666Y-144832571D01*
X50293476Y-146665904D02*
X50293476Y-145865904D01*
X50598238Y-146132571D02*
X50788714Y-146665904D01*
X50979190Y-146132571D01*
X51207761Y-146132571D02*
X51398238Y-146665904D01*
X51588714Y-146132571D02*
X51398238Y-146665904D01*
X51322047Y-146856380D01*
X51283952Y-146894476D01*
X51207761Y-146932571D01*
X52503000Y-146665904D02*
X52503000Y-145865904D01*
X52769666Y-146437333D01*
X53036333Y-145865904D01*
X53036333Y-146665904D01*
X53760142Y-146627809D02*
X53683952Y-146665904D01*
X53531571Y-146665904D01*
X53455380Y-146627809D01*
X53417285Y-146589714D01*
X53379190Y-146513523D01*
X53379190Y-146284952D01*
X53417285Y-146208761D01*
X53455380Y-146170666D01*
X53531571Y-146132571D01*
X53683952Y-146132571D01*
X53760142Y-146170666D01*
X54103000Y-146665904D02*
X54103000Y-145865904D01*
X54560142Y-146665904D02*
X54217285Y-146208761D01*
X54560142Y-145865904D02*
X54103000Y-146323047D01*
X55245857Y-146665904D02*
X55245857Y-146246857D01*
X55207761Y-146170666D01*
X55131571Y-146132571D01*
X54979190Y-146132571D01*
X54903000Y-146170666D01*
X55245857Y-146627809D02*
X55169666Y-146665904D01*
X54979190Y-146665904D01*
X54903000Y-146627809D01*
X54864904Y-146551619D01*
X54864904Y-146475428D01*
X54903000Y-146399238D01*
X54979190Y-146361142D01*
X55169666Y-146361142D01*
X55245857Y-146323047D01*
X55550619Y-146132571D02*
X55741095Y-146665904D01*
X55931571Y-146132571D02*
X55741095Y-146665904D01*
X55664904Y-146856380D01*
X55626809Y-146894476D01*
X55550619Y-146932571D01*
X50255380Y-147927809D02*
X50369666Y-147965904D01*
X50560142Y-147965904D01*
X50636333Y-147927809D01*
X50674428Y-147889714D01*
X50712523Y-147813523D01*
X50712523Y-147737333D01*
X50674428Y-147661142D01*
X50636333Y-147623047D01*
X50560142Y-147584952D01*
X50407761Y-147546857D01*
X50331571Y-147508761D01*
X50293476Y-147470666D01*
X50255380Y-147394476D01*
X50255380Y-147318285D01*
X50293476Y-147242095D01*
X50331571Y-147204000D01*
X50407761Y-147165904D01*
X50598238Y-147165904D01*
X50712523Y-147204000D01*
X51055380Y-147965904D02*
X51055380Y-147432571D01*
X51055380Y-147165904D02*
X51017285Y-147204000D01*
X51055380Y-147242095D01*
X51093476Y-147204000D01*
X51055380Y-147165904D01*
X51055380Y-147242095D01*
X51550619Y-147965904D02*
X51474428Y-147927809D01*
X51436333Y-147851619D01*
X51436333Y-147165904D01*
X51779190Y-147432571D02*
X51969666Y-147965904D01*
X52160142Y-147432571D01*
X52464904Y-147965904D02*
X52464904Y-147432571D01*
X52464904Y-147165904D02*
X52426809Y-147204000D01*
X52464904Y-147242095D01*
X52503000Y-147204000D01*
X52464904Y-147165904D01*
X52464904Y-147242095D01*
X53188714Y-147432571D02*
X53188714Y-147965904D01*
X52845857Y-147432571D02*
X52845857Y-147851619D01*
X52883952Y-147927809D01*
X52960142Y-147965904D01*
X53074428Y-147965904D01*
X53150619Y-147927809D01*
X53188714Y-147889714D01*
X54064904Y-147165904D02*
X54522047Y-147165904D01*
X54293476Y-147965904D02*
X54293476Y-147165904D01*
X54903000Y-147965904D02*
X54826809Y-147927809D01*
X54788714Y-147889714D01*
X54750619Y-147813523D01*
X54750619Y-147584952D01*
X54788714Y-147508761D01*
X54826809Y-147470666D01*
X54903000Y-147432571D01*
X55017285Y-147432571D01*
X55093476Y-147470666D01*
X55131571Y-147508761D01*
X55169666Y-147584952D01*
X55169666Y-147813523D01*
X55131571Y-147889714D01*
X55093476Y-147927809D01*
X55017285Y-147965904D01*
X54903000Y-147965904D01*
X55855380Y-147965904D02*
X55855380Y-147165904D01*
X55855380Y-147927809D02*
X55779190Y-147965904D01*
X55626809Y-147965904D01*
X55550619Y-147927809D01*
X55512523Y-147889714D01*
X55474428Y-147813523D01*
X55474428Y-147584952D01*
X55512523Y-147508761D01*
X55550619Y-147470666D01*
X55626809Y-147432571D01*
X55779190Y-147432571D01*
X55855380Y-147470666D01*
X56541095Y-147927809D02*
X56464904Y-147965904D01*
X56312523Y-147965904D01*
X56236333Y-147927809D01*
X56198238Y-147851619D01*
X56198238Y-147546857D01*
X56236333Y-147470666D01*
X56312523Y-147432571D01*
X56464904Y-147432571D01*
X56541095Y-147470666D01*
X56579190Y-147546857D01*
X56579190Y-147623047D01*
X56198238Y-147699238D01*
X56922047Y-147965904D02*
X56922047Y-147432571D01*
X56922047Y-147584952D02*
X56960142Y-147508761D01*
X56998238Y-147470666D01*
X57074428Y-147432571D01*
X57150619Y-147432571D01*
X57417285Y-147965904D02*
X57417285Y-147432571D01*
X57417285Y-147165904D02*
X57379190Y-147204000D01*
X57417285Y-147242095D01*
X57455380Y-147204000D01*
X57417285Y-147165904D01*
X57417285Y-147242095D01*
X57683952Y-147432571D02*
X57988714Y-147432571D01*
X57798238Y-147165904D02*
X57798238Y-147851619D01*
X57836333Y-147927809D01*
X57912523Y-147965904D01*
X57988714Y-147965904D01*
X58598238Y-147965904D02*
X58598238Y-147546857D01*
X58560142Y-147470666D01*
X58483952Y-147432571D01*
X58331571Y-147432571D01*
X58255380Y-147470666D01*
X58598238Y-147927809D02*
X58522047Y-147965904D01*
X58331571Y-147965904D01*
X58255380Y-147927809D01*
X58217285Y-147851619D01*
X58217285Y-147775428D01*
X58255380Y-147699238D01*
X58331571Y-147661142D01*
X58522047Y-147661142D01*
X58598238Y-147623047D01*
X50293476Y-149265904D02*
X50293476Y-148465904D01*
X50560142Y-149037333D01*
X50826809Y-148465904D01*
X50826809Y-149265904D01*
X51207761Y-149265904D02*
X51207761Y-148732571D01*
X51207761Y-148465904D02*
X51169666Y-148504000D01*
X51207761Y-148542095D01*
X51245857Y-148504000D01*
X51207761Y-148465904D01*
X51207761Y-148542095D01*
X51931571Y-149227809D02*
X51855380Y-149265904D01*
X51703000Y-149265904D01*
X51626809Y-149227809D01*
X51588714Y-149189714D01*
X51550619Y-149113523D01*
X51550619Y-148884952D01*
X51588714Y-148808761D01*
X51626809Y-148770666D01*
X51703000Y-148732571D01*
X51855380Y-148732571D01*
X51931571Y-148770666D01*
X52274428Y-149265904D02*
X52274428Y-148465904D01*
X52617285Y-149265904D02*
X52617285Y-148846857D01*
X52579190Y-148770666D01*
X52503000Y-148732571D01*
X52388714Y-148732571D01*
X52312523Y-148770666D01*
X52274428Y-148808761D01*
X53303000Y-149227809D02*
X53226809Y-149265904D01*
X53074428Y-149265904D01*
X52998238Y-149227809D01*
X52960142Y-149151619D01*
X52960142Y-148846857D01*
X52998238Y-148770666D01*
X53074428Y-148732571D01*
X53226809Y-148732571D01*
X53303000Y-148770666D01*
X53341095Y-148846857D01*
X53341095Y-148923047D01*
X52960142Y-148999238D01*
X53798238Y-149265904D02*
X53722047Y-149227809D01*
X53683952Y-149151619D01*
X53683952Y-148465904D01*
X54217285Y-149265904D02*
X54141095Y-149227809D01*
X54103000Y-149151619D01*
X54103000Y-148465904D01*
X54826809Y-149227809D02*
X54750619Y-149265904D01*
X54598238Y-149265904D01*
X54522047Y-149227809D01*
X54483952Y-149151619D01*
X54483952Y-148846857D01*
X54522047Y-148770666D01*
X54598238Y-148732571D01*
X54750619Y-148732571D01*
X54826809Y-148770666D01*
X54864904Y-148846857D01*
X54864904Y-148923047D01*
X54483952Y-148999238D01*
X56198238Y-149265904D02*
X55817285Y-149265904D01*
X55817285Y-148465904D01*
X56464904Y-149265904D02*
X56464904Y-148732571D01*
X56464904Y-148465904D02*
X56426809Y-148504000D01*
X56464904Y-148542095D01*
X56503000Y-148504000D01*
X56464904Y-148465904D01*
X56464904Y-148542095D01*
D10*
X116856095Y-111577428D02*
X117618000Y-111577428D01*
X119618000Y-111577428D02*
X120379904Y-111577428D01*
X119998952Y-111958380D02*
X119998952Y-111196476D01*
D12*
X66405142Y-119539285D02*
X66405142Y-121063095D01*
X66405142Y-126586904D02*
X66405142Y-128110714D01*
X65643238Y-127348809D02*
X67167047Y-127348809D01*
D10*
X43347047Y-115260380D02*
X42775619Y-115260380D01*
X43061333Y-115260380D02*
X43061333Y-114260380D01*
X42966095Y-114403238D01*
X42870857Y-114498476D01*
X42775619Y-114546095D01*
X43728000Y-114355619D02*
X43775619Y-114308000D01*
X43870857Y-114260380D01*
X44108952Y-114260380D01*
X44204190Y-114308000D01*
X44251809Y-114355619D01*
X44299428Y-114450857D01*
X44299428Y-114546095D01*
X44251809Y-114688952D01*
X43680380Y-115260380D01*
X44299428Y-115260380D01*
X44585142Y-114260380D02*
X44918476Y-115260380D01*
X45251809Y-114260380D01*
X46347047Y-115260380D02*
X46347047Y-114260380D01*
X46823238Y-114593714D02*
X46823238Y-115260380D01*
X46823238Y-114688952D02*
X46870857Y-114641333D01*
X46966095Y-114593714D01*
X47108952Y-114593714D01*
X47204190Y-114641333D01*
X47251809Y-114736571D01*
X47251809Y-115260380D01*
X47728000Y-114593714D02*
X47728000Y-115593714D01*
X47728000Y-114641333D02*
X47823238Y-114593714D01*
X48013714Y-114593714D01*
X48108952Y-114641333D01*
X48156571Y-114688952D01*
X48204190Y-114784190D01*
X48204190Y-115069904D01*
X48156571Y-115165142D01*
X48108952Y-115212761D01*
X48013714Y-115260380D01*
X47823238Y-115260380D01*
X47728000Y-115212761D01*
X49061333Y-114593714D02*
X49061333Y-115260380D01*
X48632761Y-114593714D02*
X48632761Y-115117523D01*
X48680380Y-115212761D01*
X48775619Y-115260380D01*
X48918476Y-115260380D01*
X49013714Y-115212761D01*
X49061333Y-115165142D01*
X49394666Y-114593714D02*
X49775619Y-114593714D01*
X49537523Y-114260380D02*
X49537523Y-115117523D01*
X49585142Y-115212761D01*
X49680380Y-115260380D01*
X49775619Y-115260380D01*
X59579095Y-111577428D02*
X60341000Y-111577428D01*
X62341000Y-111577428D02*
X63102904Y-111577428D01*
X62721952Y-111958380D02*
X62721952Y-111196476D01*
X105426095Y-111577428D02*
X106188000Y-111577428D01*
X108188000Y-111577428D02*
X108949904Y-111577428D01*
X108568952Y-111958380D02*
X108568952Y-111196476D01*
X93996095Y-111577428D02*
X94758000Y-111577428D01*
X96758000Y-111577428D02*
X97519904Y-111577428D01*
X97138952Y-111958380D02*
X97138952Y-111196476D01*
X71009095Y-111577428D02*
X71771000Y-111577428D01*
X73771000Y-111577428D02*
X74532904Y-111577428D01*
X74151952Y-111958380D02*
X74151952Y-111196476D01*
X82566095Y-111577428D02*
X83328000Y-111577428D01*
X85328000Y-111577428D02*
X86089904Y-111577428D01*
X85708952Y-111958380D02*
X85708952Y-111196476D01*
X70342428Y-113228380D02*
X69771000Y-113228380D01*
X70056714Y-113228380D02*
X70056714Y-112228380D01*
X69961476Y-112371238D01*
X69866238Y-112466476D01*
X69771000Y-112514095D01*
X70723380Y-112323619D02*
X70771000Y-112276000D01*
X70866238Y-112228380D01*
X71104333Y-112228380D01*
X71199571Y-112276000D01*
X71247190Y-112323619D01*
X71294809Y-112418857D01*
X71294809Y-112514095D01*
X71247190Y-112656952D01*
X70675761Y-113228380D01*
X71294809Y-113228380D01*
X71580523Y-112228380D02*
X71913857Y-113228380D01*
X72247190Y-112228380D01*
X72342428Y-113323619D02*
X73104333Y-113323619D01*
X73294809Y-112942666D02*
X73771000Y-112942666D01*
X73199571Y-113228380D02*
X73532904Y-112228380D01*
X73866238Y-113228380D01*
X74199571Y-112228380D02*
X74199571Y-113037904D01*
X74247190Y-113133142D01*
X74294809Y-113180761D01*
X74390047Y-113228380D01*
X74580523Y-113228380D01*
X74675761Y-113180761D01*
X74723380Y-113133142D01*
X74771000Y-113037904D01*
X74771000Y-112228380D01*
X75151952Y-112228380D02*
X75818619Y-113228380D01*
X75818619Y-112228380D02*
X75151952Y-113228380D01*
D11*
X127986000Y-134238285D02*
X127938380Y-134238285D01*
X127843142Y-134190666D01*
X127795523Y-134143047D01*
X127986000Y-134619238D02*
X127938380Y-134619238D01*
X127843142Y-134571619D01*
X127795523Y-134524000D01*
X128890761Y-133809714D02*
X128938380Y-133666857D01*
X128938380Y-133428761D01*
X128890761Y-133333523D01*
X128843142Y-133285904D01*
X128747904Y-133238285D01*
X128652666Y-133238285D01*
X128557428Y-133285904D01*
X128509809Y-133333523D01*
X128462190Y-133428761D01*
X128414571Y-133619238D01*
X128366952Y-133714476D01*
X128319333Y-133762095D01*
X128224095Y-133809714D01*
X128128857Y-133809714D01*
X128033619Y-133762095D01*
X127986000Y-133714476D01*
X127938380Y-133619238D01*
X127938380Y-133381142D01*
X127986000Y-133238285D01*
X128271714Y-132952571D02*
X128271714Y-132571619D01*
X127938380Y-132809714D02*
X128795523Y-132809714D01*
X128890761Y-132762095D01*
X128938380Y-132666857D01*
X128938380Y-132571619D01*
X128890761Y-131857333D02*
X128938380Y-131952571D01*
X128938380Y-132143047D01*
X128890761Y-132238285D01*
X128795523Y-132285904D01*
X128414571Y-132285904D01*
X128319333Y-132238285D01*
X128271714Y-132143047D01*
X128271714Y-131952571D01*
X128319333Y-131857333D01*
X128414571Y-131809714D01*
X128509809Y-131809714D01*
X128605047Y-132285904D01*
X128938380Y-130952571D02*
X128414571Y-130952571D01*
X128319333Y-131000190D01*
X128271714Y-131095428D01*
X128271714Y-131285904D01*
X128319333Y-131381142D01*
X128890761Y-130952571D02*
X128938380Y-131047809D01*
X128938380Y-131285904D01*
X128890761Y-131381142D01*
X128795523Y-131428761D01*
X128700285Y-131428761D01*
X128605047Y-131381142D01*
X128557428Y-131285904D01*
X128557428Y-131047809D01*
X128509809Y-130952571D01*
X128938380Y-130476380D02*
X127938380Y-130476380D01*
X128557428Y-130381142D02*
X128938380Y-130095428D01*
X128271714Y-130095428D02*
X128652666Y-130476380D01*
X128271714Y-128904952D02*
X128938380Y-128904952D01*
X128366952Y-128904952D02*
X128319333Y-128857333D01*
X128271714Y-128762095D01*
X128271714Y-128619238D01*
X128319333Y-128524000D01*
X128414571Y-128476380D01*
X128938380Y-128476380D01*
X128890761Y-127285904D02*
X128938380Y-127143047D01*
X128938380Y-126904952D01*
X128890761Y-126809714D01*
X128843142Y-126762095D01*
X128747904Y-126714476D01*
X128652666Y-126714476D01*
X128557428Y-126762095D01*
X128509809Y-126809714D01*
X128462190Y-126904952D01*
X128414571Y-127095428D01*
X128366952Y-127190666D01*
X128319333Y-127238285D01*
X128224095Y-127285904D01*
X128128857Y-127285904D01*
X128033619Y-127238285D01*
X127986000Y-127190666D01*
X127938380Y-127095428D01*
X127938380Y-126857333D01*
X127986000Y-126714476D01*
X128938380Y-126285904D02*
X127938380Y-126285904D01*
X128938380Y-125857333D02*
X128414571Y-125857333D01*
X128319333Y-125904952D01*
X128271714Y-126000190D01*
X128271714Y-126143047D01*
X128319333Y-126238285D01*
X128366952Y-126285904D01*
X128938380Y-124952571D02*
X128414571Y-124952571D01*
X128319333Y-125000190D01*
X128271714Y-125095428D01*
X128271714Y-125285904D01*
X128319333Y-125381142D01*
X128890761Y-124952571D02*
X128938380Y-125047809D01*
X128938380Y-125285904D01*
X128890761Y-125381142D01*
X128795523Y-125428761D01*
X128700285Y-125428761D01*
X128605047Y-125381142D01*
X128557428Y-125285904D01*
X128557428Y-125047809D01*
X128509809Y-124952571D01*
X128938380Y-124476380D02*
X127938380Y-124476380D01*
X128557428Y-124381142D02*
X128938380Y-124095428D01*
X128271714Y-124095428D02*
X128652666Y-124476380D01*
X128890761Y-123285904D02*
X128938380Y-123381142D01*
X128938380Y-123571619D01*
X128890761Y-123666857D01*
X128795523Y-123714476D01*
X128414571Y-123714476D01*
X128319333Y-123666857D01*
X128271714Y-123571619D01*
X128271714Y-123381142D01*
X128319333Y-123285904D01*
X128414571Y-123238285D01*
X128509809Y-123238285D01*
X128605047Y-123714476D01*
X127938380Y-122809714D02*
X127986000Y-122809714D01*
X128081238Y-122857333D01*
X128128857Y-122904952D01*
X127938380Y-122428761D02*
X127986000Y-122428761D01*
X128081238Y-122476380D01*
X128128857Y-122524000D01*
X130538380Y-134238285D02*
X129538380Y-134238285D01*
X130252666Y-133904952D01*
X129538380Y-133571619D01*
X130538380Y-133571619D01*
X130538380Y-132666857D02*
X130014571Y-132666857D01*
X129919333Y-132714476D01*
X129871714Y-132809714D01*
X129871714Y-133000190D01*
X129919333Y-133095428D01*
X130490761Y-132666857D02*
X130538380Y-132762095D01*
X130538380Y-133000190D01*
X130490761Y-133095428D01*
X130395523Y-133143047D01*
X130300285Y-133143047D01*
X130205047Y-133095428D01*
X130157428Y-133000190D01*
X130157428Y-132762095D01*
X130109809Y-132666857D01*
X130538380Y-132190666D02*
X129871714Y-132190666D01*
X129538380Y-132190666D02*
X129586000Y-132238285D01*
X129633619Y-132190666D01*
X129586000Y-132143047D01*
X129538380Y-132190666D01*
X129633619Y-132190666D01*
X129871714Y-131714476D02*
X130538380Y-131714476D01*
X129966952Y-131714476D02*
X129919333Y-131666857D01*
X129871714Y-131571619D01*
X129871714Y-131428761D01*
X129919333Y-131333523D01*
X130014571Y-131285904D01*
X130538380Y-131285904D01*
X130538380Y-130047809D02*
X129538380Y-130047809D01*
X129538380Y-129666857D01*
X129586000Y-129571619D01*
X129633619Y-129524000D01*
X129728857Y-129476380D01*
X129871714Y-129476380D01*
X129966952Y-129524000D01*
X130014571Y-129571619D01*
X130062190Y-129666857D01*
X130062190Y-130047809D01*
X130443142Y-128476380D02*
X130490761Y-128524000D01*
X130538380Y-128666857D01*
X130538380Y-128762095D01*
X130490761Y-128904952D01*
X130395523Y-129000190D01*
X130300285Y-129047809D01*
X130109809Y-129095428D01*
X129966952Y-129095428D01*
X129776476Y-129047809D01*
X129681238Y-129000190D01*
X129586000Y-128904952D01*
X129538380Y-128762095D01*
X129538380Y-128666857D01*
X129586000Y-128524000D01*
X129633619Y-128476380D01*
X130014571Y-127714476D02*
X130062190Y-127571619D01*
X130109809Y-127524000D01*
X130205047Y-127476380D01*
X130347904Y-127476380D01*
X130443142Y-127524000D01*
X130490761Y-127571619D01*
X130538380Y-127666857D01*
X130538380Y-128047809D01*
X129538380Y-128047809D01*
X129538380Y-127714476D01*
X129586000Y-127619238D01*
X129633619Y-127571619D01*
X129728857Y-127524000D01*
X129824095Y-127524000D01*
X129919333Y-127571619D01*
X129966952Y-127619238D01*
X130014571Y-127714476D01*
X130014571Y-128047809D01*
X130538380Y-126285904D02*
X129871714Y-126285904D01*
X130062190Y-126285904D02*
X129966952Y-126238285D01*
X129919333Y-126190666D01*
X129871714Y-126095428D01*
X129871714Y-126000190D01*
X130490761Y-125285904D02*
X130538380Y-125381142D01*
X130538380Y-125571619D01*
X130490761Y-125666857D01*
X130395523Y-125714476D01*
X130014571Y-125714476D01*
X129919333Y-125666857D01*
X129871714Y-125571619D01*
X129871714Y-125381142D01*
X129919333Y-125285904D01*
X130014571Y-125238285D01*
X130109809Y-125238285D01*
X130205047Y-125714476D01*
X129871714Y-124904952D02*
X130538380Y-124666857D01*
X129871714Y-124428761D01*
X129633619Y-123333523D02*
X129586000Y-123285904D01*
X129538380Y-123190666D01*
X129538380Y-122952571D01*
X129586000Y-122857333D01*
X129633619Y-122809714D01*
X129728857Y-122762095D01*
X129824095Y-122762095D01*
X129966952Y-122809714D01*
X130538380Y-123381142D01*
X130538380Y-122762095D01*
X127943904Y-120941428D02*
X128591523Y-120941428D01*
X128667714Y-120903333D01*
X128705809Y-120865238D01*
X128743904Y-120789047D01*
X128743904Y-120636666D01*
X128705809Y-120560476D01*
X128667714Y-120522380D01*
X128591523Y-120484285D01*
X127943904Y-120484285D01*
X128324857Y-119836666D02*
X128362952Y-119722380D01*
X128401047Y-119684285D01*
X128477238Y-119646190D01*
X128591523Y-119646190D01*
X128667714Y-119684285D01*
X128705809Y-119722380D01*
X128743904Y-119798571D01*
X128743904Y-120103333D01*
X127943904Y-120103333D01*
X127943904Y-119836666D01*
X127982000Y-119760476D01*
X128020095Y-119722380D01*
X128096285Y-119684285D01*
X128172476Y-119684285D01*
X128248666Y-119722380D01*
X128286761Y-119760476D01*
X128324857Y-119836666D01*
X128324857Y-120103333D01*
X128667714Y-118846190D02*
X128705809Y-118884285D01*
X128743904Y-118998571D01*
X128743904Y-119074761D01*
X128705809Y-119189047D01*
X128629619Y-119265238D01*
X128553428Y-119303333D01*
X128401047Y-119341428D01*
X128286761Y-119341428D01*
X128134380Y-119303333D01*
X128058190Y-119265238D01*
X127982000Y-119189047D01*
X127943904Y-119074761D01*
X127943904Y-118998571D01*
X127982000Y-118884285D01*
X128020095Y-118846190D01*
X128705809Y-117931904D02*
X128743904Y-117817619D01*
X128743904Y-117627142D01*
X128705809Y-117550952D01*
X128667714Y-117512857D01*
X128591523Y-117474761D01*
X128515333Y-117474761D01*
X128439142Y-117512857D01*
X128401047Y-117550952D01*
X128362952Y-117627142D01*
X128324857Y-117779523D01*
X128286761Y-117855714D01*
X128248666Y-117893809D01*
X128172476Y-117931904D01*
X128096285Y-117931904D01*
X128020095Y-117893809D01*
X127982000Y-117855714D01*
X127943904Y-117779523D01*
X127943904Y-117589047D01*
X127982000Y-117474761D01*
X128210571Y-116789047D02*
X128743904Y-116789047D01*
X128210571Y-117131904D02*
X128629619Y-117131904D01*
X128705809Y-117093809D01*
X128743904Y-117017619D01*
X128743904Y-116903333D01*
X128705809Y-116827142D01*
X128667714Y-116789047D01*
X128210571Y-116408095D02*
X129010571Y-116408095D01*
X128248666Y-116408095D02*
X128210571Y-116331904D01*
X128210571Y-116179523D01*
X128248666Y-116103333D01*
X128286761Y-116065238D01*
X128362952Y-116027142D01*
X128591523Y-116027142D01*
X128667714Y-116065238D01*
X128705809Y-116103333D01*
X128743904Y-116179523D01*
X128743904Y-116331904D01*
X128705809Y-116408095D01*
X128705809Y-115379523D02*
X128743904Y-115455714D01*
X128743904Y-115608095D01*
X128705809Y-115684285D01*
X128629619Y-115722380D01*
X128324857Y-115722380D01*
X128248666Y-115684285D01*
X128210571Y-115608095D01*
X128210571Y-115455714D01*
X128248666Y-115379523D01*
X128324857Y-115341428D01*
X128401047Y-115341428D01*
X128477238Y-115722380D01*
X128743904Y-114998571D02*
X128210571Y-114998571D01*
X128362952Y-114998571D02*
X128286761Y-114960476D01*
X128248666Y-114922380D01*
X128210571Y-114846190D01*
X128210571Y-114770000D01*
X128743904Y-114503333D02*
X128210571Y-114503333D01*
X128286761Y-114503333D02*
X128248666Y-114465238D01*
X128210571Y-114389047D01*
X128210571Y-114274761D01*
X128248666Y-114198571D01*
X128324857Y-114160476D01*
X128743904Y-114160476D01*
X128324857Y-114160476D02*
X128248666Y-114122380D01*
X128210571Y-114046190D01*
X128210571Y-113931904D01*
X128248666Y-113855714D01*
X128324857Y-113817619D01*
X128743904Y-113817619D01*
X128743904Y-113436666D02*
X128210571Y-113436666D01*
X127943904Y-113436666D02*
X127982000Y-113474761D01*
X128020095Y-113436666D01*
X127982000Y-113398571D01*
X127943904Y-113436666D01*
X128020095Y-113436666D01*
X128743904Y-112941428D02*
X128705809Y-113017619D01*
X128629619Y-113055714D01*
X127943904Y-113055714D01*
X128705809Y-112331904D02*
X128743904Y-112408095D01*
X128743904Y-112560476D01*
X128705809Y-112636666D01*
X128629619Y-112674761D01*
X128324857Y-112674761D01*
X128248666Y-112636666D01*
X128210571Y-112560476D01*
X128210571Y-112408095D01*
X128248666Y-112331904D01*
X128324857Y-112293809D01*
X128401047Y-112293809D01*
X128477238Y-112674761D01*
X128743904Y-111608095D02*
X128324857Y-111608095D01*
X128248666Y-111646190D01*
X128210571Y-111722380D01*
X128210571Y-111874761D01*
X128248666Y-111950952D01*
X128705809Y-111608095D02*
X128743904Y-111684285D01*
X128743904Y-111874761D01*
X128705809Y-111950952D01*
X128629619Y-111989047D01*
X128553428Y-111989047D01*
X128477238Y-111950952D01*
X128439142Y-111874761D01*
X128439142Y-111684285D01*
X128401047Y-111608095D01*
X128210571Y-110884285D02*
X128858190Y-110884285D01*
X128934380Y-110922380D01*
X128972476Y-110960476D01*
X129010571Y-111036666D01*
X129010571Y-111150952D01*
X128972476Y-111227142D01*
X128705809Y-110884285D02*
X128743904Y-110960476D01*
X128743904Y-111112857D01*
X128705809Y-111189047D01*
X128667714Y-111227142D01*
X128591523Y-111265238D01*
X128362952Y-111265238D01*
X128286761Y-111227142D01*
X128248666Y-111189047D01*
X128210571Y-111112857D01*
X128210571Y-110960476D01*
X128248666Y-110884285D01*
X128705809Y-110198571D02*
X128743904Y-110274761D01*
X128743904Y-110427142D01*
X128705809Y-110503333D01*
X128629619Y-110541428D01*
X128324857Y-110541428D01*
X128248666Y-110503333D01*
X128210571Y-110427142D01*
X128210571Y-110274761D01*
X128248666Y-110198571D01*
X128324857Y-110160476D01*
X128401047Y-110160476D01*
X128477238Y-110541428D01*
X130043904Y-120198571D02*
X129243904Y-120198571D01*
X129243904Y-119893809D01*
X129282000Y-119817619D01*
X129320095Y-119779523D01*
X129396285Y-119741428D01*
X129510571Y-119741428D01*
X129586761Y-119779523D01*
X129624857Y-119817619D01*
X129662952Y-119893809D01*
X129662952Y-120198571D01*
X130043904Y-119398571D02*
X129510571Y-119398571D01*
X129662952Y-119398571D02*
X129586761Y-119360476D01*
X129548666Y-119322380D01*
X129510571Y-119246190D01*
X129510571Y-119170000D01*
X130043904Y-118789047D02*
X130005809Y-118865238D01*
X129967714Y-118903333D01*
X129891523Y-118941428D01*
X129662952Y-118941428D01*
X129586761Y-118903333D01*
X129548666Y-118865238D01*
X129510571Y-118789047D01*
X129510571Y-118674761D01*
X129548666Y-118598571D01*
X129586761Y-118560476D01*
X129662952Y-118522380D01*
X129891523Y-118522380D01*
X129967714Y-118560476D01*
X130005809Y-118598571D01*
X130043904Y-118674761D01*
X130043904Y-118789047D01*
X129510571Y-118293809D02*
X129510571Y-117989047D01*
X129243904Y-118179523D02*
X129929619Y-118179523D01*
X130005809Y-118141428D01*
X130043904Y-118065238D01*
X130043904Y-117989047D01*
X130043904Y-117608095D02*
X130005809Y-117684285D01*
X129967714Y-117722380D01*
X129891523Y-117760476D01*
X129662952Y-117760476D01*
X129586761Y-117722380D01*
X129548666Y-117684285D01*
X129510571Y-117608095D01*
X129510571Y-117493809D01*
X129548666Y-117417619D01*
X129586761Y-117379523D01*
X129662952Y-117341428D01*
X129891523Y-117341428D01*
X129967714Y-117379523D01*
X130005809Y-117417619D01*
X130043904Y-117493809D01*
X130043904Y-117608095D01*
X130005809Y-116427142D02*
X130043904Y-116312857D01*
X130043904Y-116122380D01*
X130005809Y-116046190D01*
X129967714Y-116008095D01*
X129891523Y-115970000D01*
X129815333Y-115970000D01*
X129739142Y-116008095D01*
X129701047Y-116046190D01*
X129662952Y-116122380D01*
X129624857Y-116274761D01*
X129586761Y-116350952D01*
X129548666Y-116389047D01*
X129472476Y-116427142D01*
X129396285Y-116427142D01*
X129320095Y-116389047D01*
X129282000Y-116350952D01*
X129243904Y-116274761D01*
X129243904Y-116084285D01*
X129282000Y-115970000D01*
X129815333Y-115665238D02*
X129815333Y-115284285D01*
X130043904Y-115741428D02*
X129243904Y-115474761D01*
X130043904Y-115208095D01*
X129624857Y-114941428D02*
X129624857Y-114674761D01*
X130043904Y-114560476D02*
X130043904Y-114941428D01*
X129243904Y-114941428D01*
X129243904Y-114560476D01*
X129320095Y-113646190D02*
X129282000Y-113608095D01*
X129243904Y-113531904D01*
X129243904Y-113341428D01*
X129282000Y-113265238D01*
X129320095Y-113227142D01*
X129396285Y-113189047D01*
X129472476Y-113189047D01*
X129586761Y-113227142D01*
X130043904Y-113684285D01*
X130043904Y-113189047D01*
X129243904Y-112693809D02*
X129243904Y-112617619D01*
X129282000Y-112541428D01*
X129320095Y-112503333D01*
X129396285Y-112465238D01*
X129548666Y-112427142D01*
X129739142Y-112427142D01*
X129891523Y-112465238D01*
X129967714Y-112503333D01*
X130005809Y-112541428D01*
X130043904Y-112617619D01*
X130043904Y-112693809D01*
X130005809Y-112770000D01*
X129967714Y-112808095D01*
X129891523Y-112846190D01*
X129739142Y-112884285D01*
X129548666Y-112884285D01*
X129396285Y-112846190D01*
X129320095Y-112808095D01*
X129282000Y-112770000D01*
X129243904Y-112693809D01*
X129320095Y-112122380D02*
X129282000Y-112084285D01*
X129243904Y-112008095D01*
X129243904Y-111817619D01*
X129282000Y-111741428D01*
X129320095Y-111703333D01*
X129396285Y-111665238D01*
X129472476Y-111665238D01*
X129586761Y-111703333D01*
X130043904Y-112160476D01*
X130043904Y-111665238D01*
X129320095Y-111360476D02*
X129282000Y-111322380D01*
X129243904Y-111246190D01*
X129243904Y-111055714D01*
X129282000Y-110979523D01*
X129320095Y-110941428D01*
X129396285Y-110903333D01*
X129472476Y-110903333D01*
X129586761Y-110941428D01*
X130043904Y-111398571D01*
X130043904Y-110903333D01*
D13*
%TO.C,Q2*%
X120782000Y-122866000D02*
X120782000Y-123966000D01*
X121052000Y-122866000D02*
X120782000Y-122866000D01*
X121052000Y-121366000D02*
X121052000Y-122866000D01*
X114422000Y-122866000D02*
X114422000Y-125696000D01*
X114152000Y-122866000D02*
X114422000Y-122866000D01*
X114152000Y-121366000D02*
X114152000Y-122866000D01*
%TO.C,Q1*%
X51111000Y-132710000D02*
X52211000Y-132710000D01*
X51111000Y-132440000D02*
X51111000Y-132710000D01*
X49611000Y-132440000D02*
X51111000Y-132440000D01*
X51111000Y-139070000D02*
X53941000Y-139070000D01*
X51111000Y-139340000D02*
X51111000Y-139070000D01*
X49611000Y-139340000D02*
X51111000Y-139340000D01*
%TO.C,R1*%
X45233000Y-109889936D02*
X45233000Y-111344064D01*
X43413000Y-109889936D02*
X43413000Y-111344064D01*
%TO.C,L2*%
X46998000Y-109017000D02*
X46998000Y-112902000D01*
X46998000Y-112902000D02*
X49268000Y-112902000D01*
X49268000Y-112902000D02*
X49268000Y-109017000D01*
%TO.C,J10*%
X67836000Y-110566000D02*
X67836000Y-101446000D01*
X67836000Y-101446000D02*
X68836000Y-100446000D01*
X68836000Y-100446000D02*
X76706000Y-100446000D01*
X76706000Y-100446000D02*
X77706000Y-101446000D01*
X77706000Y-101446000D02*
X77706000Y-110566000D01*
X67836000Y-110566000D02*
X70261000Y-110566000D01*
X77706000Y-110566000D02*
X74922767Y-110566000D01*
X72281000Y-110566000D02*
X73619233Y-110566000D01*
D14*
%TO.C,J1*%
X61774000Y-131061000D02*
X60974000Y-131061000D01*
X60974000Y-131061000D02*
X61374000Y-130361000D01*
X61374000Y-130361000D02*
X61774000Y-131061000D01*
X64781000Y-116985000D02*
X64781000Y-130035000D01*
X64781000Y-130035000D02*
X44141000Y-130035000D01*
X44141000Y-130035000D02*
X44141000Y-116985000D01*
X44141000Y-116985000D02*
X64781000Y-116985000D01*
D13*
%TO.C,F5*%
X83685000Y-115605000D02*
X76745000Y-115605000D01*
X76745000Y-115605000D02*
X76745000Y-131805000D01*
X76745000Y-131805000D02*
X83685000Y-131805000D01*
X83685000Y-131805000D02*
X83685000Y-115605000D01*
X80215000Y-122955000D02*
X80215000Y-124455000D01*
X78215000Y-125305000D02*
X78215000Y-122105000D01*
X82215000Y-122105000D02*
X82215000Y-125305000D01*
%TO.C,R6*%
X124862000Y-135601064D02*
X124862000Y-134146936D01*
X123042000Y-135601064D02*
X123042000Y-134146936D01*
%TO.C,L4*%
X115571000Y-136263000D02*
X119456000Y-136263000D01*
X115571000Y-133993000D02*
X115571000Y-136263000D01*
X119456000Y-133993000D02*
X115571000Y-133993000D01*
%TO.C,F3*%
X101465000Y-115605000D02*
X94525000Y-115605000D01*
X94525000Y-115605000D02*
X94525000Y-131805000D01*
X94525000Y-131805000D02*
X101465000Y-131805000D01*
X101465000Y-131805000D02*
X101465000Y-115605000D01*
X97995000Y-122955000D02*
X97995000Y-124455000D01*
X95995000Y-125305000D02*
X95995000Y-122105000D01*
X99995000Y-122105000D02*
X99995000Y-125305000D01*
%TO.C,J12*%
X113556000Y-110566000D02*
X113556000Y-101446000D01*
X113556000Y-101446000D02*
X114556000Y-100446000D01*
X114556000Y-100446000D02*
X122426000Y-100446000D01*
X122426000Y-100446000D02*
X123426000Y-101446000D01*
X123426000Y-101446000D02*
X123426000Y-110566000D01*
X113556000Y-110566000D02*
X115981000Y-110566000D01*
X123426000Y-110566000D02*
X120642767Y-110566000D01*
X118001000Y-110566000D02*
X119339233Y-110566000D01*
%TO.C,J11*%
X122561000Y-139118000D02*
X122561000Y-148238000D01*
X122561000Y-148238000D02*
X121561000Y-149238000D01*
X121561000Y-149238000D02*
X113691000Y-149238000D01*
X113691000Y-149238000D02*
X112691000Y-148238000D01*
X112691000Y-148238000D02*
X112691000Y-139118000D01*
X122561000Y-139118000D02*
X120136000Y-139118000D01*
X112691000Y-139118000D02*
X115474233Y-139118000D01*
X118116000Y-139118000D02*
X116777767Y-139118000D01*
%TO.C,J8*%
X90696000Y-110566000D02*
X90696000Y-101446000D01*
X90696000Y-101446000D02*
X91696000Y-100446000D01*
X91696000Y-100446000D02*
X99566000Y-100446000D01*
X99566000Y-100446000D02*
X100566000Y-101446000D01*
X100566000Y-101446000D02*
X100566000Y-110566000D01*
X90696000Y-110566000D02*
X93121000Y-110566000D01*
X100566000Y-110566000D02*
X97782767Y-110566000D01*
X95141000Y-110566000D02*
X96479233Y-110566000D01*
%TO.C,J9*%
X102126000Y-110566000D02*
X102126000Y-101446000D01*
X102126000Y-101446000D02*
X103126000Y-100446000D01*
X103126000Y-100446000D02*
X110996000Y-100446000D01*
X110996000Y-100446000D02*
X111996000Y-101446000D01*
X111996000Y-101446000D02*
X111996000Y-110566000D01*
X102126000Y-110566000D02*
X104551000Y-110566000D01*
X111996000Y-110566000D02*
X109212767Y-110566000D01*
X106571000Y-110566000D02*
X107909233Y-110566000D01*
%TO.C,J6*%
X79266000Y-110566000D02*
X79266000Y-101446000D01*
X79266000Y-101446000D02*
X80266000Y-100446000D01*
X80266000Y-100446000D02*
X88136000Y-100446000D01*
X88136000Y-100446000D02*
X89136000Y-101446000D01*
X89136000Y-101446000D02*
X89136000Y-110566000D01*
X79266000Y-110566000D02*
X81691000Y-110566000D01*
X89136000Y-110566000D02*
X86352767Y-110566000D01*
X83711000Y-110566000D02*
X85049233Y-110566000D01*
%TO.C,J7*%
X110623000Y-139118000D02*
X110623000Y-148238000D01*
X110623000Y-148238000D02*
X109623000Y-149238000D01*
X109623000Y-149238000D02*
X101753000Y-149238000D01*
X101753000Y-149238000D02*
X100753000Y-148238000D01*
X100753000Y-148238000D02*
X100753000Y-139118000D01*
X110623000Y-139118000D02*
X108198000Y-139118000D01*
X100753000Y-139118000D02*
X103536233Y-139118000D01*
X106178000Y-139118000D02*
X104839767Y-139118000D01*
%TO.C,J5*%
X56406000Y-110566000D02*
X56406000Y-101446000D01*
X56406000Y-101446000D02*
X57406000Y-100446000D01*
X57406000Y-100446000D02*
X65276000Y-100446000D01*
X65276000Y-100446000D02*
X66276000Y-101446000D01*
X66276000Y-101446000D02*
X66276000Y-110566000D01*
X56406000Y-110566000D02*
X58831000Y-110566000D01*
X66276000Y-110566000D02*
X63492767Y-110566000D01*
X60851000Y-110566000D02*
X62189233Y-110566000D01*
%TO.C,J4*%
X73666000Y-139118000D02*
X73666000Y-148238000D01*
X73666000Y-148238000D02*
X72666000Y-149238000D01*
X72666000Y-149238000D02*
X64796000Y-149238000D01*
X64796000Y-149238000D02*
X63796000Y-148238000D01*
X63796000Y-148238000D02*
X63796000Y-139118000D01*
X73666000Y-139118000D02*
X71241000Y-139118000D01*
X63796000Y-139118000D02*
X66579233Y-139118000D01*
X69221000Y-139118000D02*
X67882767Y-139118000D01*
%TO.C,J3*%
X85326000Y-139118000D02*
X85326000Y-148238000D01*
X85326000Y-148238000D02*
X84326000Y-149238000D01*
X84326000Y-149238000D02*
X76456000Y-149238000D01*
X76456000Y-149238000D02*
X75456000Y-148238000D01*
X75456000Y-148238000D02*
X75456000Y-139118000D01*
X85326000Y-139118000D02*
X82901000Y-139118000D01*
X75456000Y-139118000D02*
X78239233Y-139118000D01*
X80881000Y-139118000D02*
X79542767Y-139118000D01*
%TO.C,J2*%
X96780000Y-139118000D02*
X96780000Y-148238000D01*
X96780000Y-148238000D02*
X95780000Y-149238000D01*
X95780000Y-149238000D02*
X87910000Y-149238000D01*
X87910000Y-149238000D02*
X86910000Y-148238000D01*
X86910000Y-148238000D02*
X86910000Y-139118000D01*
X96780000Y-139118000D02*
X94355000Y-139118000D01*
X86910000Y-139118000D02*
X89693233Y-139118000D01*
X92335000Y-139118000D02*
X90996767Y-139118000D01*
%TO.C,F4*%
X110355000Y-115605000D02*
X103415000Y-115605000D01*
X103415000Y-115605000D02*
X103415000Y-131805000D01*
X103415000Y-131805000D02*
X110355000Y-131805000D01*
X110355000Y-131805000D02*
X110355000Y-115605000D01*
X106885000Y-122955000D02*
X106885000Y-124455000D01*
X104885000Y-125305000D02*
X104885000Y-122105000D01*
X108885000Y-122105000D02*
X108885000Y-125305000D01*
%TO.C,F2*%
X92575000Y-115732000D02*
X85635000Y-115732000D01*
X85635000Y-115732000D02*
X85635000Y-131932000D01*
X85635000Y-131932000D02*
X92575000Y-131932000D01*
X92575000Y-131932000D02*
X92575000Y-115732000D01*
X89105000Y-123082000D02*
X89105000Y-124582000D01*
X87105000Y-125432000D02*
X87105000Y-122232000D01*
X91105000Y-122232000D02*
X91105000Y-125432000D01*
%TO.C,F1*%
X74795000Y-115605000D02*
X67855000Y-115605000D01*
X67855000Y-115605000D02*
X67855000Y-131805000D01*
X67855000Y-131805000D02*
X74795000Y-131805000D01*
X74795000Y-131805000D02*
X74795000Y-115605000D01*
X71325000Y-122955000D02*
X71325000Y-124455000D01*
X69325000Y-125305000D02*
X69325000Y-122105000D01*
X73325000Y-122105000D02*
X73325000Y-125305000D01*
%TO.C,L3*%
X104572000Y-136517000D02*
X108457000Y-136517000D01*
X108457000Y-136517000D02*
X108457000Y-134247000D01*
X108457000Y-134247000D02*
X104572000Y-134247000D01*
%TO.C,L1*%
X81988000Y-134247000D02*
X78103000Y-134247000D01*
X78103000Y-134247000D02*
X78103000Y-136517000D01*
X78103000Y-136517000D02*
X81988000Y-136517000D01*
%TO.C,R5*%
X119782000Y-128116436D02*
X119782000Y-129570564D01*
X117962000Y-128116436D02*
X117962000Y-129570564D01*
%TO.C,R4*%
X114660000Y-129759064D02*
X114660000Y-128304936D01*
X116480000Y-129759064D02*
X116480000Y-128304936D01*
%TO.C,R3*%
X56361436Y-133710000D02*
X57815564Y-133710000D01*
X56361436Y-135530000D02*
X57815564Y-135530000D01*
%TO.C,R2*%
X57877064Y-138324000D02*
X56422936Y-138324000D01*
X57877064Y-136504000D02*
X56422936Y-136504000D01*
D10*
%TO.C,TP2*%
X51732000Y-106040000D02*
X51732000Y-102240000D01*
X51732000Y-102240000D02*
X53932000Y-102240000D01*
X53932000Y-102240000D02*
X53932000Y-106040000D01*
X53932000Y-106040000D02*
X51732000Y-106040000D01*
%TO.C,TP1*%
X51732000Y-112390000D02*
X51732000Y-108590000D01*
X51732000Y-108590000D02*
X53932000Y-108590000D01*
X53932000Y-108590000D02*
X53932000Y-112390000D01*
X53932000Y-112390000D02*
X51732000Y-112390000D01*
%TO.C,*%
%TO.C,Q2*%
X113577619Y-116427238D02*
X113530000Y-116522476D01*
X113434761Y-116617714D01*
X113291904Y-116760571D01*
X113244285Y-116855809D01*
X113244285Y-116951047D01*
X113482380Y-116903428D02*
X113434761Y-116998666D01*
X113339523Y-117093904D01*
X113149047Y-117141523D01*
X112815714Y-117141523D01*
X112625238Y-117093904D01*
X112530000Y-116998666D01*
X112482380Y-116903428D01*
X112482380Y-116712952D01*
X112530000Y-116617714D01*
X112625238Y-116522476D01*
X112815714Y-116474857D01*
X113149047Y-116474857D01*
X113339523Y-116522476D01*
X113434761Y-116617714D01*
X113482380Y-116712952D01*
X113482380Y-116903428D01*
X112577619Y-116093904D02*
X112530000Y-116046285D01*
X112482380Y-115951047D01*
X112482380Y-115712952D01*
X112530000Y-115617714D01*
X112577619Y-115570095D01*
X112672857Y-115522476D01*
X112768095Y-115522476D01*
X112910952Y-115570095D01*
X113482380Y-116141523D01*
X113482380Y-115522476D01*
X113482380Y-131087142D02*
X112482380Y-131087142D01*
X113196666Y-130753809D01*
X112482380Y-130420476D01*
X113482380Y-130420476D01*
X112482380Y-129753809D02*
X112482380Y-129563333D01*
X112530000Y-129468095D01*
X112625238Y-129372857D01*
X112815714Y-129325238D01*
X113149047Y-129325238D01*
X113339523Y-129372857D01*
X113434761Y-129468095D01*
X113482380Y-129563333D01*
X113482380Y-129753809D01*
X113434761Y-129849047D01*
X113339523Y-129944285D01*
X113149047Y-129991904D01*
X112815714Y-129991904D01*
X112625238Y-129944285D01*
X112530000Y-129849047D01*
X112482380Y-129753809D01*
X113434761Y-128944285D02*
X113482380Y-128801428D01*
X113482380Y-128563333D01*
X113434761Y-128468095D01*
X113387142Y-128420476D01*
X113291904Y-128372857D01*
X113196666Y-128372857D01*
X113101428Y-128420476D01*
X113053809Y-128468095D01*
X113006190Y-128563333D01*
X112958571Y-128753809D01*
X112910952Y-128849047D01*
X112863333Y-128896666D01*
X112768095Y-128944285D01*
X112672857Y-128944285D01*
X112577619Y-128896666D01*
X112530000Y-128849047D01*
X112482380Y-128753809D01*
X112482380Y-128515714D01*
X112530000Y-128372857D01*
X112958571Y-127610952D02*
X112958571Y-127944285D01*
X113482380Y-127944285D02*
X112482380Y-127944285D01*
X112482380Y-127468095D01*
X112958571Y-127087142D02*
X112958571Y-126753809D01*
X113482380Y-126610952D02*
X113482380Y-127087142D01*
X112482380Y-127087142D01*
X112482380Y-126610952D01*
X112482380Y-126325238D02*
X112482380Y-125753809D01*
X113482380Y-126039523D02*
X112482380Y-126039523D01*
X113577619Y-125658571D02*
X113577619Y-124896666D01*
X112958571Y-124325238D02*
X113006190Y-124182380D01*
X113053809Y-124134761D01*
X113149047Y-124087142D01*
X113291904Y-124087142D01*
X113387142Y-124134761D01*
X113434761Y-124182380D01*
X113482380Y-124277619D01*
X113482380Y-124658571D01*
X112482380Y-124658571D01*
X112482380Y-124325238D01*
X112530000Y-124230000D01*
X112577619Y-124182380D01*
X112672857Y-124134761D01*
X112768095Y-124134761D01*
X112863333Y-124182380D01*
X112910952Y-124230000D01*
X112958571Y-124325238D01*
X112958571Y-124658571D01*
X113482380Y-123087142D02*
X113006190Y-123420476D01*
X113482380Y-123658571D02*
X112482380Y-123658571D01*
X112482380Y-123277619D01*
X112530000Y-123182380D01*
X112577619Y-123134761D01*
X112672857Y-123087142D01*
X112815714Y-123087142D01*
X112910952Y-123134761D01*
X112958571Y-123182380D01*
X113006190Y-123277619D01*
X113006190Y-123658571D01*
X113196666Y-122706190D02*
X113196666Y-122230000D01*
X113482380Y-122801428D02*
X112482380Y-122468095D01*
X113482380Y-122134761D01*
X113482380Y-121801428D02*
X112482380Y-121801428D01*
X113482380Y-121230000D02*
X112910952Y-121658571D01*
X112482380Y-121230000D02*
X113053809Y-121801428D01*
X112958571Y-120801428D02*
X112958571Y-120468095D01*
X113482380Y-120325238D02*
X113482380Y-120801428D01*
X112482380Y-120801428D01*
X112482380Y-120325238D01*
%TO.C,Q1*%
X44100761Y-140755619D02*
X44005523Y-140708000D01*
X43910285Y-140612761D01*
X43767428Y-140469904D01*
X43672190Y-140422285D01*
X43576952Y-140422285D01*
X43624571Y-140660380D02*
X43529333Y-140612761D01*
X43434095Y-140517523D01*
X43386476Y-140327047D01*
X43386476Y-139993714D01*
X43434095Y-139803238D01*
X43529333Y-139708000D01*
X43624571Y-139660380D01*
X43815047Y-139660380D01*
X43910285Y-139708000D01*
X44005523Y-139803238D01*
X44053142Y-139993714D01*
X44053142Y-140327047D01*
X44005523Y-140517523D01*
X43910285Y-140612761D01*
X43815047Y-140660380D01*
X43624571Y-140660380D01*
X45005523Y-140660380D02*
X44434095Y-140660380D01*
X44719809Y-140660380D02*
X44719809Y-139660380D01*
X44624571Y-139803238D01*
X44529333Y-139898476D01*
X44434095Y-139946095D01*
X46855619Y-140660380D02*
X46855619Y-139660380D01*
X47188952Y-140374666D01*
X47522285Y-139660380D01*
X47522285Y-140660380D01*
X48188952Y-139660380D02*
X48379428Y-139660380D01*
X48474666Y-139708000D01*
X48569904Y-139803238D01*
X48617523Y-139993714D01*
X48617523Y-140327047D01*
X48569904Y-140517523D01*
X48474666Y-140612761D01*
X48379428Y-140660380D01*
X48188952Y-140660380D01*
X48093714Y-140612761D01*
X47998476Y-140517523D01*
X47950857Y-140327047D01*
X47950857Y-139993714D01*
X47998476Y-139803238D01*
X48093714Y-139708000D01*
X48188952Y-139660380D01*
X48998476Y-140612761D02*
X49141333Y-140660380D01*
X49379428Y-140660380D01*
X49474666Y-140612761D01*
X49522285Y-140565142D01*
X49569904Y-140469904D01*
X49569904Y-140374666D01*
X49522285Y-140279428D01*
X49474666Y-140231809D01*
X49379428Y-140184190D01*
X49188952Y-140136571D01*
X49093714Y-140088952D01*
X49046095Y-140041333D01*
X48998476Y-139946095D01*
X48998476Y-139850857D01*
X49046095Y-139755619D01*
X49093714Y-139708000D01*
X49188952Y-139660380D01*
X49427047Y-139660380D01*
X49569904Y-139708000D01*
X50331809Y-140136571D02*
X49998476Y-140136571D01*
X49998476Y-140660380D02*
X49998476Y-139660380D01*
X50474666Y-139660380D01*
X50855619Y-140136571D02*
X51188952Y-140136571D01*
X51331809Y-140660380D02*
X50855619Y-140660380D01*
X50855619Y-139660380D01*
X51331809Y-139660380D01*
X51617523Y-139660380D02*
X52188952Y-139660380D01*
X51903238Y-140660380D02*
X51903238Y-139660380D01*
X52284190Y-140755619D02*
X53046095Y-140755619D01*
X53284190Y-140136571D02*
X53617523Y-140136571D01*
X53760380Y-140660380D02*
X53284190Y-140660380D01*
X53284190Y-139660380D01*
X53760380Y-139660380D01*
X54760380Y-140565142D02*
X54712761Y-140612761D01*
X54569904Y-140660380D01*
X54474666Y-140660380D01*
X54331809Y-140612761D01*
X54236571Y-140517523D01*
X54188952Y-140422285D01*
X54141333Y-140231809D01*
X54141333Y-140088952D01*
X54188952Y-139898476D01*
X54236571Y-139803238D01*
X54331809Y-139708000D01*
X54474666Y-139660380D01*
X54569904Y-139660380D01*
X54712761Y-139708000D01*
X54760380Y-139755619D01*
X55188952Y-139660380D02*
X55188952Y-140469904D01*
X55236571Y-140565142D01*
X55284190Y-140612761D01*
X55379428Y-140660380D01*
X55569904Y-140660380D01*
X55665142Y-140612761D01*
X55712761Y-140565142D01*
X55760380Y-140469904D01*
X55760380Y-139660380D01*
%TO.C,R1*%
X44648380Y-110783666D02*
X44172190Y-111117000D01*
X44648380Y-111355095D02*
X43648380Y-111355095D01*
X43648380Y-110974142D01*
X43696000Y-110878904D01*
X43743619Y-110831285D01*
X43838857Y-110783666D01*
X43981714Y-110783666D01*
X44076952Y-110831285D01*
X44124571Y-110878904D01*
X44172190Y-110974142D01*
X44172190Y-111355095D01*
X44648380Y-109831285D02*
X44648380Y-110402714D01*
X44648380Y-110117000D02*
X43648380Y-110117000D01*
X43791238Y-110212238D01*
X43886476Y-110307476D01*
X43934095Y-110402714D01*
%TO.C,L2*%
X48712380Y-110783666D02*
X48712380Y-111259857D01*
X47712380Y-111259857D01*
X47807619Y-110497952D02*
X47760000Y-110450333D01*
X47712380Y-110355095D01*
X47712380Y-110117000D01*
X47760000Y-110021761D01*
X47807619Y-109974142D01*
X47902857Y-109926523D01*
X47998095Y-109926523D01*
X48140952Y-109974142D01*
X48712380Y-110545571D01*
X48712380Y-109926523D01*
%TO.C,J10*%
X71961476Y-101094380D02*
X71961476Y-101808666D01*
X71913857Y-101951523D01*
X71818619Y-102046761D01*
X71675761Y-102094380D01*
X71580523Y-102094380D01*
X72961476Y-102094380D02*
X72390047Y-102094380D01*
X72675761Y-102094380D02*
X72675761Y-101094380D01*
X72580523Y-101237238D01*
X72485285Y-101332476D01*
X72390047Y-101380095D01*
X73580523Y-101094380D02*
X73675761Y-101094380D01*
X73771000Y-101142000D01*
X73818619Y-101189619D01*
X73866238Y-101284857D01*
X73913857Y-101475333D01*
X73913857Y-101713428D01*
X73866238Y-101903904D01*
X73818619Y-101999142D01*
X73771000Y-102046761D01*
X73675761Y-102094380D01*
X73580523Y-102094380D01*
X73485285Y-102046761D01*
X73437666Y-101999142D01*
X73390047Y-101903904D01*
X73342428Y-101713428D01*
X73342428Y-101475333D01*
X73390047Y-101284857D01*
X73437666Y-101189619D01*
X73485285Y-101142000D01*
X73580523Y-101094380D01*
%TO.C,J1*%
X63968380Y-132413333D02*
X64682666Y-132413333D01*
X64825523Y-132460952D01*
X64920761Y-132556190D01*
X64968380Y-132699047D01*
X64968380Y-132794285D01*
X64968380Y-131413333D02*
X64968380Y-131984761D01*
X64968380Y-131699047D02*
X63968380Y-131699047D01*
X64111238Y-131794285D01*
X64206476Y-131889523D01*
X64254095Y-131984761D01*
%TO.C,F5*%
X77136666Y-132770571D02*
X76803333Y-132770571D01*
X76803333Y-133294380D02*
X76803333Y-132294380D01*
X77279523Y-132294380D01*
X78136666Y-132294380D02*
X77660476Y-132294380D01*
X77612857Y-132770571D01*
X77660476Y-132722952D01*
X77755714Y-132675333D01*
X77993809Y-132675333D01*
X78089047Y-132722952D01*
X78136666Y-132770571D01*
X78184285Y-132865809D01*
X78184285Y-133103904D01*
X78136666Y-133199142D01*
X78089047Y-133246761D01*
X77993809Y-133294380D01*
X77755714Y-133294380D01*
X77660476Y-133246761D01*
X77612857Y-133199142D01*
%TO.C,R6*%
X124404380Y-135040666D02*
X123928190Y-135374000D01*
X124404380Y-135612095D02*
X123404380Y-135612095D01*
X123404380Y-135231142D01*
X123452000Y-135135904D01*
X123499619Y-135088285D01*
X123594857Y-135040666D01*
X123737714Y-135040666D01*
X123832952Y-135088285D01*
X123880571Y-135135904D01*
X123928190Y-135231142D01*
X123928190Y-135612095D01*
X123404380Y-134183523D02*
X123404380Y-134374000D01*
X123452000Y-134469238D01*
X123499619Y-134516857D01*
X123642476Y-134612095D01*
X123832952Y-134659714D01*
X124213904Y-134659714D01*
X124309142Y-134612095D01*
X124356761Y-134564476D01*
X124404380Y-134469238D01*
X124404380Y-134278761D01*
X124356761Y-134183523D01*
X124309142Y-134135904D01*
X124213904Y-134088285D01*
X123975809Y-134088285D01*
X123880571Y-134135904D01*
X123832952Y-134183523D01*
X123785333Y-134278761D01*
X123785333Y-134469238D01*
X123832952Y-134564476D01*
X123880571Y-134612095D01*
X123975809Y-134659714D01*
%TO.C,L4*%
X117689333Y-135580380D02*
X117213142Y-135580380D01*
X117213142Y-134580380D01*
X118451238Y-134913714D02*
X118451238Y-135580380D01*
X118213142Y-134532761D02*
X117975047Y-135247047D01*
X118594095Y-135247047D01*
%TO.C,F3*%
X94916666Y-132770571D02*
X94583333Y-132770571D01*
X94583333Y-133294380D02*
X94583333Y-132294380D01*
X95059523Y-132294380D01*
X95345238Y-132294380D02*
X95964285Y-132294380D01*
X95630952Y-132675333D01*
X95773809Y-132675333D01*
X95869047Y-132722952D01*
X95916666Y-132770571D01*
X95964285Y-132865809D01*
X95964285Y-133103904D01*
X95916666Y-133199142D01*
X95869047Y-133246761D01*
X95773809Y-133294380D01*
X95488095Y-133294380D01*
X95392857Y-133246761D01*
X95345238Y-133199142D01*
%TO.C,J12*%
X117681476Y-101094380D02*
X117681476Y-101808666D01*
X117633857Y-101951523D01*
X117538619Y-102046761D01*
X117395761Y-102094380D01*
X117300523Y-102094380D01*
X118681476Y-102094380D02*
X118110047Y-102094380D01*
X118395761Y-102094380D02*
X118395761Y-101094380D01*
X118300523Y-101237238D01*
X118205285Y-101332476D01*
X118110047Y-101380095D01*
X119062428Y-101189619D02*
X119110047Y-101142000D01*
X119205285Y-101094380D01*
X119443380Y-101094380D01*
X119538619Y-101142000D01*
X119586238Y-101189619D01*
X119633857Y-101284857D01*
X119633857Y-101380095D01*
X119586238Y-101522952D01*
X119014809Y-102094380D01*
X119633857Y-102094380D01*
X114181476Y-112228380D02*
X114514809Y-113228380D01*
X114848142Y-112228380D01*
X115181476Y-112704571D02*
X115514809Y-112704571D01*
X115657666Y-113228380D02*
X115181476Y-113228380D01*
X115181476Y-112228380D01*
X115657666Y-112228380D01*
X116038619Y-113180761D02*
X116181476Y-113228380D01*
X116419571Y-113228380D01*
X116514809Y-113180761D01*
X116562428Y-113133142D01*
X116610047Y-113037904D01*
X116610047Y-112942666D01*
X116562428Y-112847428D01*
X116514809Y-112799809D01*
X116419571Y-112752190D01*
X116229095Y-112704571D01*
X116133857Y-112656952D01*
X116086238Y-112609333D01*
X116038619Y-112514095D01*
X116038619Y-112418857D01*
X116086238Y-112323619D01*
X116133857Y-112276000D01*
X116229095Y-112228380D01*
X116467190Y-112228380D01*
X116610047Y-112276000D01*
X117610047Y-113133142D02*
X117562428Y-113180761D01*
X117419571Y-113228380D01*
X117324333Y-113228380D01*
X117181476Y-113180761D01*
X117086238Y-113085523D01*
X117038619Y-112990285D01*
X116991000Y-112799809D01*
X116991000Y-112656952D01*
X117038619Y-112466476D01*
X117086238Y-112371238D01*
X117181476Y-112276000D01*
X117324333Y-112228380D01*
X117419571Y-112228380D01*
X117562428Y-112276000D01*
X117610047Y-112323619D01*
X117800523Y-113323619D02*
X118562428Y-113323619D01*
X118752904Y-113180761D02*
X118895761Y-113228380D01*
X119133857Y-113228380D01*
X119229095Y-113180761D01*
X119276714Y-113133142D01*
X119324333Y-113037904D01*
X119324333Y-112942666D01*
X119276714Y-112847428D01*
X119229095Y-112799809D01*
X119133857Y-112752190D01*
X118943380Y-112704571D01*
X118848142Y-112656952D01*
X118800523Y-112609333D01*
X118752904Y-112514095D01*
X118752904Y-112418857D01*
X118800523Y-112323619D01*
X118848142Y-112276000D01*
X118943380Y-112228380D01*
X119181476Y-112228380D01*
X119324333Y-112276000D01*
X119610047Y-112228380D02*
X120181476Y-112228380D01*
X119895761Y-113228380D02*
X119895761Y-112228380D01*
X120467190Y-112942666D02*
X120943380Y-112942666D01*
X120371952Y-113228380D02*
X120705285Y-112228380D01*
X121038619Y-113228380D01*
X121943380Y-113228380D02*
X121610047Y-112752190D01*
X121371952Y-113228380D02*
X121371952Y-112228380D01*
X121752904Y-112228380D01*
X121848142Y-112276000D01*
X121895761Y-112323619D01*
X121943380Y-112418857D01*
X121943380Y-112561714D01*
X121895761Y-112656952D01*
X121848142Y-112704571D01*
X121752904Y-112752190D01*
X121371952Y-112752190D01*
X122229095Y-112228380D02*
X122800523Y-112228380D01*
X122514809Y-113228380D02*
X122514809Y-112228380D01*
%TO.C,J11*%
X116816476Y-147240380D02*
X116816476Y-147954666D01*
X116768857Y-148097523D01*
X116673619Y-148192761D01*
X116530761Y-148240380D01*
X116435523Y-148240380D01*
X117816476Y-148240380D02*
X117245047Y-148240380D01*
X117530761Y-148240380D02*
X117530761Y-147240380D01*
X117435523Y-147383238D01*
X117340285Y-147478476D01*
X117245047Y-147526095D01*
X118768857Y-148240380D02*
X118197428Y-148240380D01*
X118483142Y-148240380D02*
X118483142Y-147240380D01*
X118387904Y-147383238D01*
X118292666Y-147478476D01*
X118197428Y-147526095D01*
X114451238Y-138072761D02*
X114594095Y-138120380D01*
X114832190Y-138120380D01*
X114927428Y-138072761D01*
X114975047Y-138025142D01*
X115022666Y-137929904D01*
X115022666Y-137834666D01*
X114975047Y-137739428D01*
X114927428Y-137691809D01*
X114832190Y-137644190D01*
X114641714Y-137596571D01*
X114546476Y-137548952D01*
X114498857Y-137501333D01*
X114451238Y-137406095D01*
X114451238Y-137310857D01*
X114498857Y-137215619D01*
X114546476Y-137168000D01*
X114641714Y-137120380D01*
X114879809Y-137120380D01*
X115022666Y-137168000D01*
X115356000Y-137120380D02*
X115594095Y-138120380D01*
X115784571Y-137406095D01*
X115975047Y-138120380D01*
X116213142Y-137120380D01*
X116356000Y-138215619D02*
X117117904Y-138215619D01*
X117308380Y-138072761D02*
X117451238Y-138120380D01*
X117689333Y-138120380D01*
X117784571Y-138072761D01*
X117832190Y-138025142D01*
X117879809Y-137929904D01*
X117879809Y-137834666D01*
X117832190Y-137739428D01*
X117784571Y-137691809D01*
X117689333Y-137644190D01*
X117498857Y-137596571D01*
X117403619Y-137548952D01*
X117356000Y-137501333D01*
X117308380Y-137406095D01*
X117308380Y-137310857D01*
X117356000Y-137215619D01*
X117403619Y-137168000D01*
X117498857Y-137120380D01*
X117736952Y-137120380D01*
X117879809Y-137168000D01*
X118165523Y-137120380D02*
X118736952Y-137120380D01*
X118451238Y-138120380D02*
X118451238Y-137120380D01*
X119022666Y-137834666D02*
X119498857Y-137834666D01*
X118927428Y-138120380D02*
X119260761Y-137120380D01*
X119594095Y-138120380D01*
X120498857Y-138120380D02*
X120165523Y-137644190D01*
X119927428Y-138120380D02*
X119927428Y-137120380D01*
X120308380Y-137120380D01*
X120403619Y-137168000D01*
X120451238Y-137215619D01*
X120498857Y-137310857D01*
X120498857Y-137453714D01*
X120451238Y-137548952D01*
X120403619Y-137596571D01*
X120308380Y-137644190D01*
X119927428Y-137644190D01*
X120784571Y-137120380D02*
X121356000Y-137120380D01*
X121070285Y-138120380D02*
X121070285Y-137120380D01*
%TO.C,J8*%
X95297666Y-101094380D02*
X95297666Y-101808666D01*
X95250047Y-101951523D01*
X95154809Y-102046761D01*
X95011952Y-102094380D01*
X94916714Y-102094380D01*
X95916714Y-101522952D02*
X95821476Y-101475333D01*
X95773857Y-101427714D01*
X95726238Y-101332476D01*
X95726238Y-101284857D01*
X95773857Y-101189619D01*
X95821476Y-101142000D01*
X95916714Y-101094380D01*
X96107190Y-101094380D01*
X96202428Y-101142000D01*
X96250047Y-101189619D01*
X96297666Y-101284857D01*
X96297666Y-101332476D01*
X96250047Y-101427714D01*
X96202428Y-101475333D01*
X96107190Y-101522952D01*
X95916714Y-101522952D01*
X95821476Y-101570571D01*
X95773857Y-101618190D01*
X95726238Y-101713428D01*
X95726238Y-101903904D01*
X95773857Y-101999142D01*
X95821476Y-102046761D01*
X95916714Y-102094380D01*
X96107190Y-102094380D01*
X96202428Y-102046761D01*
X96250047Y-101999142D01*
X96297666Y-101903904D01*
X96297666Y-101713428D01*
X96250047Y-101618190D01*
X96202428Y-101570571D01*
X96107190Y-101522952D01*
X93392904Y-113228380D02*
X92821476Y-113228380D01*
X93107190Y-113228380D02*
X93107190Y-112228380D01*
X93011952Y-112371238D01*
X92916714Y-112466476D01*
X92821476Y-112514095D01*
X93773857Y-112323619D02*
X93821476Y-112276000D01*
X93916714Y-112228380D01*
X94154809Y-112228380D01*
X94250047Y-112276000D01*
X94297666Y-112323619D01*
X94345285Y-112418857D01*
X94345285Y-112514095D01*
X94297666Y-112656952D01*
X93726238Y-113228380D01*
X94345285Y-113228380D01*
X94631000Y-112228380D02*
X94964333Y-113228380D01*
X95297666Y-112228380D01*
X95392904Y-113323619D02*
X96154809Y-113323619D01*
X96250047Y-112228380D02*
X96821476Y-112228380D01*
X96535761Y-113228380D02*
X96535761Y-112228380D01*
X97154809Y-112704571D02*
X97488142Y-112704571D01*
X97631000Y-113228380D02*
X97154809Y-113228380D01*
X97154809Y-112228380D01*
X97631000Y-112228380D01*
X98535761Y-113228380D02*
X98059571Y-113228380D01*
X98059571Y-112228380D01*
%TO.C,J9*%
X106727666Y-101094380D02*
X106727666Y-101808666D01*
X106680047Y-101951523D01*
X106584809Y-102046761D01*
X106441952Y-102094380D01*
X106346714Y-102094380D01*
X107251476Y-102094380D02*
X107441952Y-102094380D01*
X107537190Y-102046761D01*
X107584809Y-101999142D01*
X107680047Y-101856285D01*
X107727666Y-101665809D01*
X107727666Y-101284857D01*
X107680047Y-101189619D01*
X107632428Y-101142000D01*
X107537190Y-101094380D01*
X107346714Y-101094380D01*
X107251476Y-101142000D01*
X107203857Y-101189619D01*
X107156238Y-101284857D01*
X107156238Y-101522952D01*
X107203857Y-101618190D01*
X107251476Y-101665809D01*
X107346714Y-101713428D01*
X107537190Y-101713428D01*
X107632428Y-101665809D01*
X107680047Y-101618190D01*
X107727666Y-101522952D01*
X103680047Y-113228380D02*
X103108619Y-113228380D01*
X103394333Y-113228380D02*
X103394333Y-112228380D01*
X103299095Y-112371238D01*
X103203857Y-112466476D01*
X103108619Y-112514095D01*
X104061000Y-112323619D02*
X104108619Y-112276000D01*
X104203857Y-112228380D01*
X104441952Y-112228380D01*
X104537190Y-112276000D01*
X104584809Y-112323619D01*
X104632428Y-112418857D01*
X104632428Y-112514095D01*
X104584809Y-112656952D01*
X104013380Y-113228380D01*
X104632428Y-113228380D01*
X104918142Y-112228380D02*
X105251476Y-113228380D01*
X105584809Y-112228380D01*
X105680047Y-113323619D02*
X106441952Y-113323619D01*
X107013380Y-112704571D02*
X107156238Y-112752190D01*
X107203857Y-112799809D01*
X107251476Y-112895047D01*
X107251476Y-113037904D01*
X107203857Y-113133142D01*
X107156238Y-113180761D01*
X107061000Y-113228380D01*
X106680047Y-113228380D01*
X106680047Y-112228380D01*
X107013380Y-112228380D01*
X107108619Y-112276000D01*
X107156238Y-112323619D01*
X107203857Y-112418857D01*
X107203857Y-112514095D01*
X107156238Y-112609333D01*
X107108619Y-112656952D01*
X107013380Y-112704571D01*
X106680047Y-112704571D01*
X108251476Y-113228380D02*
X107918142Y-112752190D01*
X107680047Y-113228380D02*
X107680047Y-112228380D01*
X108061000Y-112228380D01*
X108156238Y-112276000D01*
X108203857Y-112323619D01*
X108251476Y-112418857D01*
X108251476Y-112561714D01*
X108203857Y-112656952D01*
X108156238Y-112704571D01*
X108061000Y-112752190D01*
X107680047Y-112752190D01*
X108632428Y-112942666D02*
X109108619Y-112942666D01*
X108537190Y-113228380D02*
X108870523Y-112228380D01*
X109203857Y-113228380D01*
X109537190Y-113228380D02*
X109537190Y-112228380D01*
X110108619Y-113228380D02*
X109680047Y-112656952D01*
X110108619Y-112228380D02*
X109537190Y-112799809D01*
X110537190Y-112704571D02*
X110870523Y-112704571D01*
X111013380Y-113228380D02*
X110537190Y-113228380D01*
X110537190Y-112228380D01*
X111013380Y-112228380D01*
%TO.C,J6*%
X83867666Y-101094380D02*
X83867666Y-101808666D01*
X83820047Y-101951523D01*
X83724809Y-102046761D01*
X83581952Y-102094380D01*
X83486714Y-102094380D01*
X84772428Y-101094380D02*
X84581952Y-101094380D01*
X84486714Y-101142000D01*
X84439095Y-101189619D01*
X84343857Y-101332476D01*
X84296238Y-101522952D01*
X84296238Y-101903904D01*
X84343857Y-101999142D01*
X84391476Y-102046761D01*
X84486714Y-102094380D01*
X84677190Y-102094380D01*
X84772428Y-102046761D01*
X84820047Y-101999142D01*
X84867666Y-101903904D01*
X84867666Y-101665809D01*
X84820047Y-101570571D01*
X84772428Y-101522952D01*
X84677190Y-101475333D01*
X84486714Y-101475333D01*
X84391476Y-101522952D01*
X84343857Y-101570571D01*
X84296238Y-101665809D01*
X81002571Y-113228380D02*
X80431142Y-113228380D01*
X80716857Y-113228380D02*
X80716857Y-112228380D01*
X80621619Y-112371238D01*
X80526380Y-112466476D01*
X80431142Y-112514095D01*
X81383523Y-112323619D02*
X81431142Y-112276000D01*
X81526380Y-112228380D01*
X81764476Y-112228380D01*
X81859714Y-112276000D01*
X81907333Y-112323619D01*
X81954952Y-112418857D01*
X81954952Y-112514095D01*
X81907333Y-112656952D01*
X81335904Y-113228380D01*
X81954952Y-113228380D01*
X82240666Y-112228380D02*
X82574000Y-113228380D01*
X82907333Y-112228380D01*
X83002571Y-113323619D02*
X83764476Y-113323619D01*
X84002571Y-113228380D02*
X84002571Y-112228380D01*
X84002571Y-112704571D02*
X84574000Y-112704571D01*
X84574000Y-113228380D02*
X84574000Y-112228380D01*
X85240666Y-112228380D02*
X85431142Y-112228380D01*
X85526380Y-112276000D01*
X85621619Y-112371238D01*
X85669238Y-112561714D01*
X85669238Y-112895047D01*
X85621619Y-113085523D01*
X85526380Y-113180761D01*
X85431142Y-113228380D01*
X85240666Y-113228380D01*
X85145428Y-113180761D01*
X85050190Y-113085523D01*
X85002571Y-112895047D01*
X85002571Y-112561714D01*
X85050190Y-112371238D01*
X85145428Y-112276000D01*
X85240666Y-112228380D01*
X86669238Y-113228380D02*
X86335904Y-112752190D01*
X86097809Y-113228380D02*
X86097809Y-112228380D01*
X86478761Y-112228380D01*
X86574000Y-112276000D01*
X86621619Y-112323619D01*
X86669238Y-112418857D01*
X86669238Y-112561714D01*
X86621619Y-112656952D01*
X86574000Y-112704571D01*
X86478761Y-112752190D01*
X86097809Y-112752190D01*
X87097809Y-113228380D02*
X87097809Y-112228380D01*
X87669238Y-113228380D01*
X87669238Y-112228380D01*
%TO.C,J7*%
X105354666Y-147240380D02*
X105354666Y-147954666D01*
X105307047Y-148097523D01*
X105211809Y-148192761D01*
X105068952Y-148240380D01*
X104973714Y-148240380D01*
X105735619Y-147240380D02*
X106402285Y-147240380D01*
X105973714Y-148240380D01*
X102171952Y-138072761D02*
X102314809Y-138120380D01*
X102552904Y-138120380D01*
X102648142Y-138072761D01*
X102695761Y-138025142D01*
X102743380Y-137929904D01*
X102743380Y-137834666D01*
X102695761Y-137739428D01*
X102648142Y-137691809D01*
X102552904Y-137644190D01*
X102362428Y-137596571D01*
X102267190Y-137548952D01*
X102219571Y-137501333D01*
X102171952Y-137406095D01*
X102171952Y-137310857D01*
X102219571Y-137215619D01*
X102267190Y-137168000D01*
X102362428Y-137120380D01*
X102600523Y-137120380D01*
X102743380Y-137168000D01*
X103076714Y-137120380D02*
X103314809Y-138120380D01*
X103505285Y-137406095D01*
X103695761Y-138120380D01*
X103933857Y-137120380D01*
X104076714Y-138215619D02*
X104838619Y-138215619D01*
X105410047Y-137596571D02*
X105552904Y-137644190D01*
X105600523Y-137691809D01*
X105648142Y-137787047D01*
X105648142Y-137929904D01*
X105600523Y-138025142D01*
X105552904Y-138072761D01*
X105457666Y-138120380D01*
X105076714Y-138120380D01*
X105076714Y-137120380D01*
X105410047Y-137120380D01*
X105505285Y-137168000D01*
X105552904Y-137215619D01*
X105600523Y-137310857D01*
X105600523Y-137406095D01*
X105552904Y-137501333D01*
X105505285Y-137548952D01*
X105410047Y-137596571D01*
X105076714Y-137596571D01*
X106648142Y-138120380D02*
X106314809Y-137644190D01*
X106076714Y-138120380D02*
X106076714Y-137120380D01*
X106457666Y-137120380D01*
X106552904Y-137168000D01*
X106600523Y-137215619D01*
X106648142Y-137310857D01*
X106648142Y-137453714D01*
X106600523Y-137548952D01*
X106552904Y-137596571D01*
X106457666Y-137644190D01*
X106076714Y-137644190D01*
X107029095Y-137834666D02*
X107505285Y-137834666D01*
X106933857Y-138120380D02*
X107267190Y-137120380D01*
X107600523Y-138120380D01*
X107933857Y-138120380D02*
X107933857Y-137120380D01*
X108505285Y-138120380D02*
X108076714Y-137548952D01*
X108505285Y-137120380D02*
X107933857Y-137691809D01*
X108933857Y-137596571D02*
X109267190Y-137596571D01*
X109410047Y-138120380D02*
X108933857Y-138120380D01*
X108933857Y-137120380D01*
X109410047Y-137120380D01*
%TO.C,J5*%
X61007666Y-101094380D02*
X61007666Y-101808666D01*
X60960047Y-101951523D01*
X60864809Y-102046761D01*
X60721952Y-102094380D01*
X60626714Y-102094380D01*
X61960047Y-101094380D02*
X61483857Y-101094380D01*
X61436238Y-101570571D01*
X61483857Y-101522952D01*
X61579095Y-101475333D01*
X61817190Y-101475333D01*
X61912428Y-101522952D01*
X61960047Y-101570571D01*
X62007666Y-101665809D01*
X62007666Y-101903904D01*
X61960047Y-101999142D01*
X61912428Y-102046761D01*
X61817190Y-102094380D01*
X61579095Y-102094380D01*
X61483857Y-102046761D01*
X61436238Y-101999142D01*
X58737809Y-113228380D02*
X58166380Y-113228380D01*
X58452095Y-113228380D02*
X58452095Y-112228380D01*
X58356857Y-112371238D01*
X58261619Y-112466476D01*
X58166380Y-112514095D01*
X59118761Y-112323619D02*
X59166380Y-112276000D01*
X59261619Y-112228380D01*
X59499714Y-112228380D01*
X59594952Y-112276000D01*
X59642571Y-112323619D01*
X59690190Y-112418857D01*
X59690190Y-112514095D01*
X59642571Y-112656952D01*
X59071142Y-113228380D01*
X59690190Y-113228380D01*
X59975904Y-112228380D02*
X60309238Y-113228380D01*
X60642571Y-112228380D01*
X60737809Y-113323619D02*
X61499714Y-113323619D01*
X61737809Y-112704571D02*
X62071142Y-112704571D01*
X62214000Y-113228380D02*
X61737809Y-113228380D01*
X61737809Y-112228380D01*
X62214000Y-112228380D01*
X63214000Y-113133142D02*
X63166380Y-113180761D01*
X63023523Y-113228380D01*
X62928285Y-113228380D01*
X62785428Y-113180761D01*
X62690190Y-113085523D01*
X62642571Y-112990285D01*
X62594952Y-112799809D01*
X62594952Y-112656952D01*
X62642571Y-112466476D01*
X62690190Y-112371238D01*
X62785428Y-112276000D01*
X62928285Y-112228380D01*
X63023523Y-112228380D01*
X63166380Y-112276000D01*
X63214000Y-112323619D01*
X63642571Y-112228380D02*
X63642571Y-113037904D01*
X63690190Y-113133142D01*
X63737809Y-113180761D01*
X63833047Y-113228380D01*
X64023523Y-113228380D01*
X64118761Y-113180761D01*
X64166380Y-113133142D01*
X64214000Y-113037904D01*
X64214000Y-112228380D01*
%TO.C,J4*%
X68397666Y-147280380D02*
X68397666Y-147994666D01*
X68350047Y-148137523D01*
X68254809Y-148232761D01*
X68111952Y-148280380D01*
X68016714Y-148280380D01*
X69302428Y-147613714D02*
X69302428Y-148280380D01*
X69064333Y-147232761D02*
X68826238Y-147947047D01*
X69445285Y-147947047D01*
X63421476Y-138072761D02*
X63564333Y-138120380D01*
X63802428Y-138120380D01*
X63897666Y-138072761D01*
X63945285Y-138025142D01*
X63992904Y-137929904D01*
X63992904Y-137834666D01*
X63945285Y-137739428D01*
X63897666Y-137691809D01*
X63802428Y-137644190D01*
X63611952Y-137596571D01*
X63516714Y-137548952D01*
X63469095Y-137501333D01*
X63421476Y-137406095D01*
X63421476Y-137310857D01*
X63469095Y-137215619D01*
X63516714Y-137168000D01*
X63611952Y-137120380D01*
X63850047Y-137120380D01*
X63992904Y-137168000D01*
X64326238Y-137120380D02*
X64564333Y-138120380D01*
X64754809Y-137406095D01*
X64945285Y-138120380D01*
X65183380Y-137120380D01*
X65326238Y-138215619D02*
X66088142Y-138215619D01*
X66326238Y-138120380D02*
X66326238Y-137120380D01*
X66897666Y-138120380D02*
X66469095Y-137548952D01*
X66897666Y-137120380D02*
X66326238Y-137691809D01*
X67326238Y-138120380D02*
X67326238Y-137120380D01*
X68278619Y-138120380D02*
X67802428Y-138120380D01*
X67802428Y-137120380D01*
X69088142Y-138120380D02*
X68611952Y-138120380D01*
X68611952Y-137120380D01*
X69183380Y-138215619D02*
X69945285Y-138215619D01*
X70754809Y-138120380D02*
X70421476Y-137644190D01*
X70183380Y-138120380D02*
X70183380Y-137120380D01*
X70564333Y-137120380D01*
X70659571Y-137168000D01*
X70707190Y-137215619D01*
X70754809Y-137310857D01*
X70754809Y-137453714D01*
X70707190Y-137548952D01*
X70659571Y-137596571D01*
X70564333Y-137644190D01*
X70183380Y-137644190D01*
X71183380Y-138120380D02*
X71183380Y-137120380D01*
X72183380Y-137168000D02*
X72088142Y-137120380D01*
X71945285Y-137120380D01*
X71802428Y-137168000D01*
X71707190Y-137263238D01*
X71659571Y-137358476D01*
X71611952Y-137548952D01*
X71611952Y-137691809D01*
X71659571Y-137882285D01*
X71707190Y-137977523D01*
X71802428Y-138072761D01*
X71945285Y-138120380D01*
X72040523Y-138120380D01*
X72183380Y-138072761D01*
X72231000Y-138025142D01*
X72231000Y-137691809D01*
X72040523Y-137691809D01*
X72659571Y-138120380D02*
X72659571Y-137120380D01*
X72659571Y-137596571D02*
X73231000Y-137596571D01*
X73231000Y-138120380D02*
X73231000Y-137120380D01*
X73564333Y-137120380D02*
X74135761Y-137120380D01*
X73850047Y-138120380D02*
X73850047Y-137120380D01*
%TO.C,J3*%
X80057666Y-147280380D02*
X80057666Y-147994666D01*
X80010047Y-148137523D01*
X79914809Y-148232761D01*
X79771952Y-148280380D01*
X79676714Y-148280380D01*
X80438619Y-147280380D02*
X81057666Y-147280380D01*
X80724333Y-147661333D01*
X80867190Y-147661333D01*
X80962428Y-147708952D01*
X81010047Y-147756571D01*
X81057666Y-147851809D01*
X81057666Y-148089904D01*
X81010047Y-148185142D01*
X80962428Y-148232761D01*
X80867190Y-148280380D01*
X80581476Y-148280380D01*
X80486238Y-148232761D01*
X80438619Y-148185142D01*
X75557666Y-138072761D02*
X75700523Y-138120380D01*
X75938619Y-138120380D01*
X76033857Y-138072761D01*
X76081476Y-138025142D01*
X76129095Y-137929904D01*
X76129095Y-137834666D01*
X76081476Y-137739428D01*
X76033857Y-137691809D01*
X75938619Y-137644190D01*
X75748142Y-137596571D01*
X75652904Y-137548952D01*
X75605285Y-137501333D01*
X75557666Y-137406095D01*
X75557666Y-137310857D01*
X75605285Y-137215619D01*
X75652904Y-137168000D01*
X75748142Y-137120380D01*
X75986238Y-137120380D01*
X76129095Y-137168000D01*
X76462428Y-137120380D02*
X76700523Y-138120380D01*
X76891000Y-137406095D01*
X77081476Y-138120380D01*
X77319571Y-137120380D01*
X77462428Y-138215619D02*
X78224333Y-138215619D01*
X78462428Y-138120380D02*
X78462428Y-137120380D01*
X79033857Y-138120380D02*
X78605285Y-137548952D01*
X79033857Y-137120380D02*
X78462428Y-137691809D01*
X79462428Y-138120380D02*
X79462428Y-137120380D01*
X80414809Y-138120380D02*
X79938619Y-138120380D01*
X79938619Y-137120380D01*
X81224333Y-138120380D02*
X80748142Y-138120380D01*
X80748142Y-137120380D01*
X81319571Y-138215619D02*
X82081476Y-138215619D01*
X82795761Y-138120380D02*
X82319571Y-138120380D01*
X82319571Y-137120380D01*
X83129095Y-137596571D02*
X83462428Y-137596571D01*
X83605285Y-138120380D02*
X83129095Y-138120380D01*
X83129095Y-137120380D01*
X83605285Y-137120380D01*
X84367190Y-137596571D02*
X84033857Y-137596571D01*
X84033857Y-138120380D02*
X84033857Y-137120380D01*
X84510047Y-137120380D01*
X84748142Y-137120380D02*
X85319571Y-137120380D01*
X85033857Y-138120380D02*
X85033857Y-137120380D01*
%TO.C,J2*%
X91614666Y-147280380D02*
X91614666Y-147994666D01*
X91567047Y-148137523D01*
X91471809Y-148232761D01*
X91328952Y-148280380D01*
X91233714Y-148280380D01*
X92043238Y-147375619D02*
X92090857Y-147328000D01*
X92186095Y-147280380D01*
X92424190Y-147280380D01*
X92519428Y-147328000D01*
X92567047Y-147375619D01*
X92614666Y-147470857D01*
X92614666Y-147566095D01*
X92567047Y-147708952D01*
X91995619Y-148280380D01*
X92614666Y-148280380D01*
X86059285Y-138072761D02*
X86202142Y-138120380D01*
X86440238Y-138120380D01*
X86535476Y-138072761D01*
X86583095Y-138025142D01*
X86630714Y-137929904D01*
X86630714Y-137834666D01*
X86583095Y-137739428D01*
X86535476Y-137691809D01*
X86440238Y-137644190D01*
X86249761Y-137596571D01*
X86154523Y-137548952D01*
X86106904Y-137501333D01*
X86059285Y-137406095D01*
X86059285Y-137310857D01*
X86106904Y-137215619D01*
X86154523Y-137168000D01*
X86249761Y-137120380D01*
X86487857Y-137120380D01*
X86630714Y-137168000D01*
X86964047Y-137120380D02*
X87202142Y-138120380D01*
X87392619Y-137406095D01*
X87583095Y-138120380D01*
X87821190Y-137120380D01*
X87964047Y-138215619D02*
X88725952Y-138215619D01*
X88964047Y-138120380D02*
X88964047Y-137120380D01*
X89535476Y-138120380D02*
X89106904Y-137548952D01*
X89535476Y-137120380D02*
X88964047Y-137691809D01*
X89964047Y-138120380D02*
X89964047Y-137120380D01*
X90916428Y-138120380D02*
X90440238Y-138120380D01*
X90440238Y-137120380D01*
X91725952Y-138120380D02*
X91249761Y-138120380D01*
X91249761Y-137120380D01*
X91821190Y-138215619D02*
X92583095Y-138215619D01*
X92821190Y-138120380D02*
X92821190Y-137120380D01*
X93059285Y-137120380D01*
X93202142Y-137168000D01*
X93297380Y-137263238D01*
X93345000Y-137358476D01*
X93392619Y-137548952D01*
X93392619Y-137691809D01*
X93345000Y-137882285D01*
X93297380Y-137977523D01*
X93202142Y-138072761D01*
X93059285Y-138120380D01*
X92821190Y-138120380D01*
X94392619Y-138120380D02*
X94059285Y-137644190D01*
X93821190Y-138120380D02*
X93821190Y-137120380D01*
X94202142Y-137120380D01*
X94297380Y-137168000D01*
X94345000Y-137215619D01*
X94392619Y-137310857D01*
X94392619Y-137453714D01*
X94345000Y-137548952D01*
X94297380Y-137596571D01*
X94202142Y-137644190D01*
X93821190Y-137644190D01*
X94821190Y-138120380D02*
X94821190Y-137120380D01*
X95154523Y-137120380D02*
X95487857Y-138120380D01*
X95821190Y-137120380D01*
X96154523Y-137596571D02*
X96487857Y-137596571D01*
X96630714Y-138120380D02*
X96154523Y-138120380D01*
X96154523Y-137120380D01*
X96630714Y-137120380D01*
X97630714Y-138120380D02*
X97297380Y-137644190D01*
X97059285Y-138120380D02*
X97059285Y-137120380D01*
X97440238Y-137120380D01*
X97535476Y-137168000D01*
X97583095Y-137215619D01*
X97630714Y-137310857D01*
X97630714Y-137453714D01*
X97583095Y-137548952D01*
X97535476Y-137596571D01*
X97440238Y-137644190D01*
X97059285Y-137644190D01*
%TO.C,F4*%
X103806666Y-132770571D02*
X103473333Y-132770571D01*
X103473333Y-133294380D02*
X103473333Y-132294380D01*
X103949523Y-132294380D01*
X104759047Y-132627714D02*
X104759047Y-133294380D01*
X104520952Y-132246761D02*
X104282857Y-132961047D01*
X104901904Y-132961047D01*
%TO.C,F2*%
X86026666Y-132770571D02*
X85693333Y-132770571D01*
X85693333Y-133294380D02*
X85693333Y-132294380D01*
X86169523Y-132294380D01*
X86502857Y-132389619D02*
X86550476Y-132342000D01*
X86645714Y-132294380D01*
X86883809Y-132294380D01*
X86979047Y-132342000D01*
X87026666Y-132389619D01*
X87074285Y-132484857D01*
X87074285Y-132580095D01*
X87026666Y-132722952D01*
X86455238Y-133294380D01*
X87074285Y-133294380D01*
%TO.C,F1*%
X67992666Y-132770571D02*
X67659333Y-132770571D01*
X67659333Y-133294380D02*
X67659333Y-132294380D01*
X68135523Y-132294380D01*
X69040285Y-133294380D02*
X68468857Y-133294380D01*
X68754571Y-133294380D02*
X68754571Y-132294380D01*
X68659333Y-132437238D01*
X68564095Y-132532476D01*
X68468857Y-132580095D01*
%TO.C,L3*%
X106005333Y-135961380D02*
X105529142Y-135961380D01*
X105529142Y-134961380D01*
X106243428Y-134961380D02*
X106862476Y-134961380D01*
X106529142Y-135342333D01*
X106672000Y-135342333D01*
X106767238Y-135389952D01*
X106814857Y-135437571D01*
X106862476Y-135532809D01*
X106862476Y-135770904D01*
X106814857Y-135866142D01*
X106767238Y-135913761D01*
X106672000Y-135961380D01*
X106386285Y-135961380D01*
X106291047Y-135913761D01*
X106243428Y-135866142D01*
%TO.C,L1*%
X80221333Y-135707380D02*
X79745142Y-135707380D01*
X79745142Y-134707380D01*
X81078476Y-135707380D02*
X80507047Y-135707380D01*
X80792761Y-135707380D02*
X80792761Y-134707380D01*
X80697523Y-134850238D01*
X80602285Y-134945476D01*
X80507047Y-134993095D01*
%TO.C,R5*%
X121144380Y-129010166D02*
X120668190Y-129343500D01*
X121144380Y-129581595D02*
X120144380Y-129581595D01*
X120144380Y-129200642D01*
X120192000Y-129105404D01*
X120239619Y-129057785D01*
X120334857Y-129010166D01*
X120477714Y-129010166D01*
X120572952Y-129057785D01*
X120620571Y-129105404D01*
X120668190Y-129200642D01*
X120668190Y-129581595D01*
X120144380Y-128105404D02*
X120144380Y-128581595D01*
X120620571Y-128629214D01*
X120572952Y-128581595D01*
X120525333Y-128486357D01*
X120525333Y-128248261D01*
X120572952Y-128153023D01*
X120620571Y-128105404D01*
X120715809Y-128057785D01*
X120953904Y-128057785D01*
X121049142Y-128105404D01*
X121096761Y-128153023D01*
X121144380Y-128248261D01*
X121144380Y-128486357D01*
X121096761Y-128581595D01*
X121049142Y-128629214D01*
%TO.C,R4*%
X116022380Y-126023666D02*
X115546190Y-126357000D01*
X116022380Y-126595095D02*
X115022380Y-126595095D01*
X115022380Y-126214142D01*
X115070000Y-126118904D01*
X115117619Y-126071285D01*
X115212857Y-126023666D01*
X115355714Y-126023666D01*
X115450952Y-126071285D01*
X115498571Y-126118904D01*
X115546190Y-126214142D01*
X115546190Y-126595095D01*
X115355714Y-125166523D02*
X116022380Y-125166523D01*
X114974761Y-125404619D02*
X115689047Y-125642714D01*
X115689047Y-125023666D01*
%TO.C,R3*%
X57999333Y-133294380D02*
X57666000Y-132818190D01*
X57427904Y-133294380D02*
X57427904Y-132294380D01*
X57808857Y-132294380D01*
X57904095Y-132342000D01*
X57951714Y-132389619D01*
X57999333Y-132484857D01*
X57999333Y-132627714D01*
X57951714Y-132722952D01*
X57904095Y-132770571D01*
X57808857Y-132818190D01*
X57427904Y-132818190D01*
X58332666Y-132294380D02*
X58951714Y-132294380D01*
X58618380Y-132675333D01*
X58761238Y-132675333D01*
X58856476Y-132722952D01*
X58904095Y-132770571D01*
X58951714Y-132865809D01*
X58951714Y-133103904D01*
X58904095Y-133199142D01*
X58856476Y-133246761D01*
X58761238Y-133294380D01*
X58475523Y-133294380D01*
X58380285Y-133246761D01*
X58332666Y-133199142D01*
%TO.C,R2*%
X57999333Y-139898380D02*
X57666000Y-139422190D01*
X57427904Y-139898380D02*
X57427904Y-138898380D01*
X57808857Y-138898380D01*
X57904095Y-138946000D01*
X57951714Y-138993619D01*
X57999333Y-139088857D01*
X57999333Y-139231714D01*
X57951714Y-139326952D01*
X57904095Y-139374571D01*
X57808857Y-139422190D01*
X57427904Y-139422190D01*
X58380285Y-138993619D02*
X58427904Y-138946000D01*
X58523142Y-138898380D01*
X58761238Y-138898380D01*
X58856476Y-138946000D01*
X58904095Y-138993619D01*
X58951714Y-139088857D01*
X58951714Y-139184095D01*
X58904095Y-139326952D01*
X58332666Y-139898380D01*
X58951714Y-139898380D01*
%TO.C,TP2*%
X50046000Y-104901904D02*
X49998380Y-104997142D01*
X49998380Y-105140000D01*
X50046000Y-105282857D01*
X50141238Y-105378095D01*
X50236476Y-105425714D01*
X50426952Y-105473333D01*
X50569809Y-105473333D01*
X50760285Y-105425714D01*
X50855523Y-105378095D01*
X50950761Y-105282857D01*
X50998380Y-105140000D01*
X50998380Y-105044761D01*
X50950761Y-104901904D01*
X50903142Y-104854285D01*
X50569809Y-104854285D01*
X50569809Y-105044761D01*
X50998380Y-104425714D02*
X49998380Y-104425714D01*
X50998380Y-103854285D01*
X49998380Y-103854285D01*
X50998380Y-103378095D02*
X49998380Y-103378095D01*
X49998380Y-103140000D01*
X50046000Y-102997142D01*
X50141238Y-102901904D01*
X50236476Y-102854285D01*
X50426952Y-102806666D01*
X50569809Y-102806666D01*
X50760285Y-102854285D01*
X50855523Y-102901904D01*
X50950761Y-102997142D01*
X50998380Y-103140000D01*
X50998380Y-103378095D01*
%TO.C,TP1*%
X50998380Y-111363047D02*
X50998380Y-111934476D01*
X50998380Y-111648761D02*
X49998380Y-111648761D01*
X50141238Y-111744000D01*
X50236476Y-111839238D01*
X50284095Y-111934476D01*
X50093619Y-110982095D02*
X50046000Y-110934476D01*
X49998380Y-110839238D01*
X49998380Y-110601142D01*
X50046000Y-110505904D01*
X50093619Y-110458285D01*
X50188857Y-110410666D01*
X50284095Y-110410666D01*
X50426952Y-110458285D01*
X50998380Y-111029714D01*
X50998380Y-110410666D01*
X49998380Y-110124952D02*
X50998380Y-109791619D01*
X49998380Y-109458285D01*
%TD*%
M02*
