%TF.GenerationSoftware,KiCad,Pcbnew,(5.1.9-0-10_14)*%
%TF.CreationDate,2022-05-15T18:46:11-07:00*%
%TF.ProjectId,PROTO_PCB_2022,50524f54-4f5f-4504-9342-5f323032322e,rev?*%
%TF.SameCoordinates,Original*%
%TF.FileFunction,Copper,L2,Bot*%
%TF.FilePolarity,Positive*%
%FSLAX46Y46*%
G04 Gerber Fmt 4.6, Leading zero omitted, Abs format (unit mm)*
G04 Created by KiCad (PCBNEW (5.1.9-0-10_14)) date 2022-05-15 18:46:11*
%MOMM*%
%LPD*%
G01*
G04 APERTURE LIST*
%TA.AperFunction,ComponentPad*%
%ADD10O,1.500000X2.020000*%
%TD*%
%TA.AperFunction,ComponentPad*%
%ADD11C,2.300000*%
%TD*%
%TA.AperFunction,ComponentPad*%
%ADD12R,2.300000X2.300000*%
%TD*%
%TA.AperFunction,ComponentPad*%
%ADD13C,2.780000*%
%TD*%
%TA.AperFunction,ComponentPad*%
%ADD14C,4.000000*%
%TD*%
%TA.AperFunction,ViaPad*%
%ADD15C,0.800000*%
%TD*%
%TA.AperFunction,ViaPad*%
%ADD16C,1.400000*%
%TD*%
%TA.AperFunction,Conductor*%
%ADD17C,2.500000*%
%TD*%
%TA.AperFunction,Conductor*%
%ADD18C,0.254000*%
%TD*%
%TA.AperFunction,Conductor*%
%ADD19C,0.100000*%
%TD*%
G04 APERTURE END LIST*
D10*
%TO.P,J10,2*%
%TO.N,Net-(F5-Pad1)*%
X74271000Y-109476000D03*
%TO.P,J10,1*%
%TO.N,GND*%
%TA.AperFunction,ComponentPad*%
G36*
G01*
X70521000Y-110236000D02*
X70521000Y-108716000D01*
G75*
G02*
X70771000Y-108466000I250000J0D01*
G01*
X71771000Y-108466000D01*
G75*
G02*
X72021000Y-108716000I0J-250000D01*
G01*
X72021000Y-110236000D01*
G75*
G02*
X71771000Y-110486000I-250000J0D01*
G01*
X70771000Y-110486000D01*
G75*
G02*
X70521000Y-110236000I0J250000D01*
G01*
G37*
%TD.AperFunction*%
%TD*%
D11*
%TO.P,J1,2*%
%TO.N,GND*%
X61341000Y-120665000D03*
D12*
%TO.P,J1,1*%
%TO.N,+12V*%
X61341000Y-126365000D03*
%TD*%
D13*
%TO.P,F5,2*%
%TO.N,+12V*%
X78515000Y-128665000D03*
X81915000Y-128665000D03*
%TO.P,F5,1*%
%TO.N,Net-(F5-Pad1)*%
X78515000Y-118745000D03*
X81915000Y-118745000D03*
%TD*%
%TO.P,F3,2*%
%TO.N,+12V*%
X96295000Y-128665000D03*
X99695000Y-128665000D03*
%TO.P,F3,1*%
%TO.N,Net-(F3-Pad1)*%
X96295000Y-118745000D03*
X99695000Y-118745000D03*
%TD*%
D10*
%TO.P,J12,2*%
%TO.N,Net-(J11-Pad1)*%
X119991000Y-109476000D03*
%TO.P,J12,1*%
%TO.N,Net-(J12-Pad1)*%
%TA.AperFunction,ComponentPad*%
G36*
G01*
X116241000Y-110236000D02*
X116241000Y-108716000D01*
G75*
G02*
X116491000Y-108466000I250000J0D01*
G01*
X117491000Y-108466000D01*
G75*
G02*
X117741000Y-108716000I0J-250000D01*
G01*
X117741000Y-110236000D01*
G75*
G02*
X117491000Y-110486000I-250000J0D01*
G01*
X116491000Y-110486000D01*
G75*
G02*
X116241000Y-110236000I0J250000D01*
G01*
G37*
%TD.AperFunction*%
%TD*%
%TO.P,J11,2*%
%TO.N,Net-(J11-Pad2)*%
X116126000Y-140208000D03*
%TO.P,J11,1*%
%TO.N,Net-(J11-Pad1)*%
%TA.AperFunction,ComponentPad*%
G36*
G01*
X119876000Y-139448000D02*
X119876000Y-140968000D01*
G75*
G02*
X119626000Y-141218000I-250000J0D01*
G01*
X118626000Y-141218000D01*
G75*
G02*
X118376000Y-140968000I0J250000D01*
G01*
X118376000Y-139448000D01*
G75*
G02*
X118626000Y-139198000I250000J0D01*
G01*
X119626000Y-139198000D01*
G75*
G02*
X119876000Y-139448000I0J-250000D01*
G01*
G37*
%TD.AperFunction*%
%TD*%
%TO.P,J8,2*%
%TO.N,Net-(F3-Pad1)*%
X97131000Y-109476000D03*
%TO.P,J8,1*%
%TO.N,GND*%
%TA.AperFunction,ComponentPad*%
G36*
G01*
X93381000Y-110236000D02*
X93381000Y-108716000D01*
G75*
G02*
X93631000Y-108466000I250000J0D01*
G01*
X94631000Y-108466000D01*
G75*
G02*
X94881000Y-108716000I0J-250000D01*
G01*
X94881000Y-110236000D01*
G75*
G02*
X94631000Y-110486000I-250000J0D01*
G01*
X93631000Y-110486000D01*
G75*
G02*
X93381000Y-110236000I0J250000D01*
G01*
G37*
%TD.AperFunction*%
%TD*%
%TO.P,J9,2*%
%TO.N,Net-(F4-Pad1)*%
X108561000Y-109476000D03*
%TO.P,J9,1*%
%TO.N,Net-(J9-Pad1)*%
%TA.AperFunction,ComponentPad*%
G36*
G01*
X104811000Y-110236000D02*
X104811000Y-108716000D01*
G75*
G02*
X105061000Y-108466000I250000J0D01*
G01*
X106061000Y-108466000D01*
G75*
G02*
X106311000Y-108716000I0J-250000D01*
G01*
X106311000Y-110236000D01*
G75*
G02*
X106061000Y-110486000I-250000J0D01*
G01*
X105061000Y-110486000D01*
G75*
G02*
X104811000Y-110236000I0J250000D01*
G01*
G37*
%TD.AperFunction*%
%TD*%
%TO.P,J6,2*%
%TO.N,Net-(F2-Pad1)*%
X85701000Y-109476000D03*
%TO.P,J6,1*%
%TO.N,GND*%
%TA.AperFunction,ComponentPad*%
G36*
G01*
X81951000Y-110236000D02*
X81951000Y-108716000D01*
G75*
G02*
X82201000Y-108466000I250000J0D01*
G01*
X83201000Y-108466000D01*
G75*
G02*
X83451000Y-108716000I0J-250000D01*
G01*
X83451000Y-110236000D01*
G75*
G02*
X83201000Y-110486000I-250000J0D01*
G01*
X82201000Y-110486000D01*
G75*
G02*
X81951000Y-110236000I0J250000D01*
G01*
G37*
%TD.AperFunction*%
%TD*%
%TO.P,J7,2*%
%TO.N,Net-(J7-Pad2)*%
X104188000Y-140208000D03*
%TO.P,J7,1*%
%TO.N,+12V*%
%TA.AperFunction,ComponentPad*%
G36*
G01*
X107938000Y-139448000D02*
X107938000Y-140968000D01*
G75*
G02*
X107688000Y-141218000I-250000J0D01*
G01*
X106688000Y-141218000D01*
G75*
G02*
X106438000Y-140968000I0J250000D01*
G01*
X106438000Y-139448000D01*
G75*
G02*
X106688000Y-139198000I250000J0D01*
G01*
X107688000Y-139198000D01*
G75*
G02*
X107938000Y-139448000I0J-250000D01*
G01*
G37*
%TD.AperFunction*%
%TD*%
%TO.P,J5,2*%
%TO.N,Net-(F1-Pad1)*%
X62841000Y-109476000D03*
%TO.P,J5,1*%
%TO.N,Net-(J5-Pad1)*%
%TA.AperFunction,ComponentPad*%
G36*
G01*
X59091000Y-110236000D02*
X59091000Y-108716000D01*
G75*
G02*
X59341000Y-108466000I250000J0D01*
G01*
X60341000Y-108466000D01*
G75*
G02*
X60591000Y-108716000I0J-250000D01*
G01*
X60591000Y-110236000D01*
G75*
G02*
X60341000Y-110486000I-250000J0D01*
G01*
X59341000Y-110486000D01*
G75*
G02*
X59091000Y-110236000I0J250000D01*
G01*
G37*
%TD.AperFunction*%
%TD*%
%TO.P,J4,2*%
%TO.N,Net-(J4-Pad2)*%
X67231000Y-140208000D03*
%TO.P,J4,1*%
%TO.N,Net-(J3-Pad2)*%
%TA.AperFunction,ComponentPad*%
G36*
G01*
X70981000Y-139448000D02*
X70981000Y-140968000D01*
G75*
G02*
X70731000Y-141218000I-250000J0D01*
G01*
X69731000Y-141218000D01*
G75*
G02*
X69481000Y-140968000I0J250000D01*
G01*
X69481000Y-139448000D01*
G75*
G02*
X69731000Y-139198000I250000J0D01*
G01*
X70731000Y-139198000D01*
G75*
G02*
X70981000Y-139448000I0J-250000D01*
G01*
G37*
%TD.AperFunction*%
%TD*%
%TO.P,J3,2*%
%TO.N,Net-(J3-Pad2)*%
X78891000Y-140208000D03*
%TO.P,J3,1*%
%TO.N,Net-(J2-Pad2)*%
%TA.AperFunction,ComponentPad*%
G36*
G01*
X82641000Y-139448000D02*
X82641000Y-140968000D01*
G75*
G02*
X82391000Y-141218000I-250000J0D01*
G01*
X81391000Y-141218000D01*
G75*
G02*
X81141000Y-140968000I0J250000D01*
G01*
X81141000Y-139448000D01*
G75*
G02*
X81391000Y-139198000I250000J0D01*
G01*
X82391000Y-139198000D01*
G75*
G02*
X82641000Y-139448000I0J-250000D01*
G01*
G37*
%TD.AperFunction*%
%TD*%
%TO.P,J2,2*%
%TO.N,Net-(J2-Pad2)*%
X90345000Y-140208000D03*
%TO.P,J2,1*%
%TO.N,+12V*%
%TA.AperFunction,ComponentPad*%
G36*
G01*
X94095000Y-139448000D02*
X94095000Y-140968000D01*
G75*
G02*
X93845000Y-141218000I-250000J0D01*
G01*
X92845000Y-141218000D01*
G75*
G02*
X92595000Y-140968000I0J250000D01*
G01*
X92595000Y-139448000D01*
G75*
G02*
X92845000Y-139198000I250000J0D01*
G01*
X93845000Y-139198000D01*
G75*
G02*
X94095000Y-139448000I0J-250000D01*
G01*
G37*
%TD.AperFunction*%
%TD*%
D14*
%TO.P,H4,1*%
%TO.N,N/C*%
X128016000Y-145415000D03*
%TD*%
%TO.P,H3,1*%
%TO.N,N/C*%
X128016000Y-104140000D03*
%TD*%
%TO.P,H2,1*%
%TO.N,N/C*%
X46101000Y-145415000D03*
%TD*%
%TO.P,H1,1*%
%TO.N,N/C*%
X46101000Y-104140000D03*
%TD*%
D13*
%TO.P,F4,2*%
%TO.N,+12V*%
X105185000Y-128665000D03*
X108585000Y-128665000D03*
%TO.P,F4,1*%
%TO.N,Net-(F4-Pad1)*%
X105185000Y-118745000D03*
X108585000Y-118745000D03*
%TD*%
%TO.P,F2,2*%
%TO.N,+12V*%
X87405000Y-128792000D03*
X90805000Y-128792000D03*
%TO.P,F2,1*%
%TO.N,Net-(F2-Pad1)*%
X87405000Y-118872000D03*
X90805000Y-118872000D03*
%TD*%
%TO.P,F1,2*%
%TO.N,+12V*%
X69625000Y-128665000D03*
X73025000Y-128665000D03*
%TO.P,F1,1*%
%TO.N,Net-(F1-Pad1)*%
X69625000Y-118745000D03*
X73025000Y-118745000D03*
%TD*%
D15*
%TO.N,GND*%
X54991000Y-130175000D03*
X54991000Y-128270000D03*
X55633500Y-126372500D03*
X121412000Y-127381000D03*
X121412000Y-128651000D03*
X121404500Y-126118500D03*
X59443500Y-122562500D03*
X58173500Y-123832500D03*
X56903500Y-125102500D03*
D16*
X57404000Y-104140000D03*
%TO.N,+12V*%
X55880000Y-108966000D03*
%TD*%
D17*
%TO.N,+12V*%
X55880000Y-111355998D02*
X63941001Y-119416999D01*
X63941001Y-119416999D02*
X63941001Y-123764999D01*
X55880000Y-108966000D02*
X55880000Y-111355998D01*
X63941001Y-123764999D02*
X61341000Y-126365000D01*
%TD*%
D18*
%TO.N,GND*%
X129257344Y-100442738D02*
X129840595Y-100618832D01*
X130378529Y-100904856D01*
X130850667Y-101289922D01*
X131239019Y-101759359D01*
X131528794Y-102295286D01*
X131708955Y-102877291D01*
X131776000Y-103515189D01*
X131776001Y-146016485D01*
X131713262Y-146656343D01*
X131537168Y-147239595D01*
X131251143Y-147777531D01*
X130866078Y-148249667D01*
X130396641Y-148638019D01*
X129860714Y-148927794D01*
X129278705Y-149107956D01*
X128640811Y-149175000D01*
X45499505Y-149175000D01*
X44859657Y-149112262D01*
X44276405Y-148936168D01*
X43738469Y-148650143D01*
X43266333Y-148265078D01*
X42877981Y-147795641D01*
X42588206Y-147259714D01*
X42408044Y-146677705D01*
X42341000Y-146039811D01*
X42341000Y-145155475D01*
X43466000Y-145155475D01*
X43466000Y-145674525D01*
X43567261Y-146183601D01*
X43765893Y-146663141D01*
X44054262Y-147094715D01*
X44421285Y-147461738D01*
X44852859Y-147750107D01*
X45332399Y-147948739D01*
X45841475Y-148050000D01*
X46360525Y-148050000D01*
X46869601Y-147948739D01*
X47349141Y-147750107D01*
X47780715Y-147461738D01*
X48147738Y-147094715D01*
X48436107Y-146663141D01*
X48634739Y-146183601D01*
X48736000Y-145674525D01*
X48736000Y-145155475D01*
X48634739Y-144646399D01*
X48498597Y-144317721D01*
X66596000Y-144317721D01*
X66596000Y-144738279D01*
X66678047Y-145150756D01*
X66838988Y-145539302D01*
X67072637Y-145888983D01*
X67370017Y-146186363D01*
X67719698Y-146420012D01*
X68108244Y-146580953D01*
X68520721Y-146663000D01*
X68941279Y-146663000D01*
X69353756Y-146580953D01*
X69742302Y-146420012D01*
X70091983Y-146186363D01*
X70389363Y-145888983D01*
X70623012Y-145539302D01*
X70783953Y-145150756D01*
X70866000Y-144738279D01*
X70866000Y-144317721D01*
X78256000Y-144317721D01*
X78256000Y-144738279D01*
X78338047Y-145150756D01*
X78498988Y-145539302D01*
X78732637Y-145888983D01*
X79030017Y-146186363D01*
X79379698Y-146420012D01*
X79768244Y-146580953D01*
X80180721Y-146663000D01*
X80601279Y-146663000D01*
X81013756Y-146580953D01*
X81402302Y-146420012D01*
X81751983Y-146186363D01*
X82049363Y-145888983D01*
X82283012Y-145539302D01*
X82443953Y-145150756D01*
X82526000Y-144738279D01*
X82526000Y-144317721D01*
X89710000Y-144317721D01*
X89710000Y-144738279D01*
X89792047Y-145150756D01*
X89952988Y-145539302D01*
X90186637Y-145888983D01*
X90484017Y-146186363D01*
X90833698Y-146420012D01*
X91222244Y-146580953D01*
X91634721Y-146663000D01*
X92055279Y-146663000D01*
X92467756Y-146580953D01*
X92856302Y-146420012D01*
X93205983Y-146186363D01*
X93503363Y-145888983D01*
X93737012Y-145539302D01*
X93897953Y-145150756D01*
X93980000Y-144738279D01*
X93980000Y-144317721D01*
X103553000Y-144317721D01*
X103553000Y-144738279D01*
X103635047Y-145150756D01*
X103795988Y-145539302D01*
X104029637Y-145888983D01*
X104327017Y-146186363D01*
X104676698Y-146420012D01*
X105065244Y-146580953D01*
X105477721Y-146663000D01*
X105898279Y-146663000D01*
X106310756Y-146580953D01*
X106699302Y-146420012D01*
X107048983Y-146186363D01*
X107346363Y-145888983D01*
X107580012Y-145539302D01*
X107740953Y-145150756D01*
X107823000Y-144738279D01*
X107823000Y-144317721D01*
X115491000Y-144317721D01*
X115491000Y-144738279D01*
X115573047Y-145150756D01*
X115733988Y-145539302D01*
X115967637Y-145888983D01*
X116265017Y-146186363D01*
X116614698Y-146420012D01*
X117003244Y-146580953D01*
X117415721Y-146663000D01*
X117836279Y-146663000D01*
X118248756Y-146580953D01*
X118637302Y-146420012D01*
X118986983Y-146186363D01*
X119284363Y-145888983D01*
X119518012Y-145539302D01*
X119676998Y-145155475D01*
X125381000Y-145155475D01*
X125381000Y-145674525D01*
X125482261Y-146183601D01*
X125680893Y-146663141D01*
X125969262Y-147094715D01*
X126336285Y-147461738D01*
X126767859Y-147750107D01*
X127247399Y-147948739D01*
X127756475Y-148050000D01*
X128275525Y-148050000D01*
X128784601Y-147948739D01*
X129264141Y-147750107D01*
X129695715Y-147461738D01*
X130062738Y-147094715D01*
X130351107Y-146663141D01*
X130549739Y-146183601D01*
X130651000Y-145674525D01*
X130651000Y-145155475D01*
X130549739Y-144646399D01*
X130351107Y-144166859D01*
X130062738Y-143735285D01*
X129695715Y-143368262D01*
X129264141Y-143079893D01*
X128784601Y-142881261D01*
X128275525Y-142780000D01*
X127756475Y-142780000D01*
X127247399Y-142881261D01*
X126767859Y-143079893D01*
X126336285Y-143368262D01*
X125969262Y-143735285D01*
X125680893Y-144166859D01*
X125482261Y-144646399D01*
X125381000Y-145155475D01*
X119676998Y-145155475D01*
X119678953Y-145150756D01*
X119761000Y-144738279D01*
X119761000Y-144317721D01*
X119678953Y-143905244D01*
X119518012Y-143516698D01*
X119284363Y-143167017D01*
X118986983Y-142869637D01*
X118637302Y-142635988D01*
X118248756Y-142475047D01*
X117836279Y-142393000D01*
X117415721Y-142393000D01*
X117003244Y-142475047D01*
X116614698Y-142635988D01*
X116265017Y-142869637D01*
X115967637Y-143167017D01*
X115733988Y-143516698D01*
X115573047Y-143905244D01*
X115491000Y-144317721D01*
X107823000Y-144317721D01*
X107740953Y-143905244D01*
X107580012Y-143516698D01*
X107346363Y-143167017D01*
X107048983Y-142869637D01*
X106699302Y-142635988D01*
X106310756Y-142475047D01*
X105898279Y-142393000D01*
X105477721Y-142393000D01*
X105065244Y-142475047D01*
X104676698Y-142635988D01*
X104327017Y-142869637D01*
X104029637Y-143167017D01*
X103795988Y-143516698D01*
X103635047Y-143905244D01*
X103553000Y-144317721D01*
X93980000Y-144317721D01*
X93897953Y-143905244D01*
X93737012Y-143516698D01*
X93503363Y-143167017D01*
X93205983Y-142869637D01*
X92856302Y-142635988D01*
X92467756Y-142475047D01*
X92055279Y-142393000D01*
X91634721Y-142393000D01*
X91222244Y-142475047D01*
X90833698Y-142635988D01*
X90484017Y-142869637D01*
X90186637Y-143167017D01*
X89952988Y-143516698D01*
X89792047Y-143905244D01*
X89710000Y-144317721D01*
X82526000Y-144317721D01*
X82443953Y-143905244D01*
X82283012Y-143516698D01*
X82049363Y-143167017D01*
X81751983Y-142869637D01*
X81402302Y-142635988D01*
X81013756Y-142475047D01*
X80601279Y-142393000D01*
X80180721Y-142393000D01*
X79768244Y-142475047D01*
X79379698Y-142635988D01*
X79030017Y-142869637D01*
X78732637Y-143167017D01*
X78498988Y-143516698D01*
X78338047Y-143905244D01*
X78256000Y-144317721D01*
X70866000Y-144317721D01*
X70783953Y-143905244D01*
X70623012Y-143516698D01*
X70389363Y-143167017D01*
X70091983Y-142869637D01*
X69742302Y-142635988D01*
X69353756Y-142475047D01*
X68941279Y-142393000D01*
X68520721Y-142393000D01*
X68108244Y-142475047D01*
X67719698Y-142635988D01*
X67370017Y-142869637D01*
X67072637Y-143167017D01*
X66838988Y-143516698D01*
X66678047Y-143905244D01*
X66596000Y-144317721D01*
X48498597Y-144317721D01*
X48436107Y-144166859D01*
X48147738Y-143735285D01*
X47780715Y-143368262D01*
X47349141Y-143079893D01*
X46869601Y-142881261D01*
X46360525Y-142780000D01*
X45841475Y-142780000D01*
X45332399Y-142881261D01*
X44852859Y-143079893D01*
X44421285Y-143368262D01*
X44054262Y-143735285D01*
X43765893Y-144166859D01*
X43567261Y-144646399D01*
X43466000Y-145155475D01*
X42341000Y-145155475D01*
X42341000Y-139879963D01*
X65846000Y-139879963D01*
X65846000Y-140536036D01*
X65866040Y-140739506D01*
X65945236Y-141000580D01*
X66073843Y-141241187D01*
X66246919Y-141452080D01*
X66457812Y-141625157D01*
X66698419Y-141753764D01*
X66959493Y-141832960D01*
X67231000Y-141859701D01*
X67502506Y-141832960D01*
X67763580Y-141753764D01*
X68004187Y-141625157D01*
X68215080Y-141452081D01*
X68388157Y-141241188D01*
X68516764Y-141000581D01*
X68595960Y-140739507D01*
X68616000Y-140536037D01*
X68616000Y-139879964D01*
X68595960Y-139676494D01*
X68526648Y-139448000D01*
X68842928Y-139448000D01*
X68842928Y-140968000D01*
X68859992Y-141141254D01*
X68910528Y-141307850D01*
X68992595Y-141461386D01*
X69103038Y-141595962D01*
X69237614Y-141706405D01*
X69391150Y-141788472D01*
X69557746Y-141839008D01*
X69731000Y-141856072D01*
X70731000Y-141856072D01*
X70904254Y-141839008D01*
X71070850Y-141788472D01*
X71224386Y-141706405D01*
X71358962Y-141595962D01*
X71469405Y-141461386D01*
X71551472Y-141307850D01*
X71602008Y-141141254D01*
X71619072Y-140968000D01*
X71619072Y-139879963D01*
X77506000Y-139879963D01*
X77506000Y-140536036D01*
X77526040Y-140739506D01*
X77605236Y-141000580D01*
X77733843Y-141241187D01*
X77906919Y-141452080D01*
X78117812Y-141625157D01*
X78358419Y-141753764D01*
X78619493Y-141832960D01*
X78891000Y-141859701D01*
X79162506Y-141832960D01*
X79423580Y-141753764D01*
X79664187Y-141625157D01*
X79875080Y-141452081D01*
X80048157Y-141241188D01*
X80176764Y-141000581D01*
X80255960Y-140739507D01*
X80276000Y-140536037D01*
X80276000Y-139879964D01*
X80255960Y-139676494D01*
X80186648Y-139448000D01*
X80502928Y-139448000D01*
X80502928Y-140968000D01*
X80519992Y-141141254D01*
X80570528Y-141307850D01*
X80652595Y-141461386D01*
X80763038Y-141595962D01*
X80897614Y-141706405D01*
X81051150Y-141788472D01*
X81217746Y-141839008D01*
X81391000Y-141856072D01*
X82391000Y-141856072D01*
X82564254Y-141839008D01*
X82730850Y-141788472D01*
X82884386Y-141706405D01*
X83018962Y-141595962D01*
X83129405Y-141461386D01*
X83211472Y-141307850D01*
X83262008Y-141141254D01*
X83279072Y-140968000D01*
X83279072Y-139879963D01*
X88960000Y-139879963D01*
X88960000Y-140536036D01*
X88980040Y-140739506D01*
X89059236Y-141000580D01*
X89187843Y-141241187D01*
X89360919Y-141452080D01*
X89571812Y-141625157D01*
X89812419Y-141753764D01*
X90073493Y-141832960D01*
X90345000Y-141859701D01*
X90616506Y-141832960D01*
X90877580Y-141753764D01*
X91118187Y-141625157D01*
X91329080Y-141452081D01*
X91502157Y-141241188D01*
X91630764Y-141000581D01*
X91709960Y-140739507D01*
X91730000Y-140536037D01*
X91730000Y-139879964D01*
X91709960Y-139676494D01*
X91640648Y-139448000D01*
X91956928Y-139448000D01*
X91956928Y-140968000D01*
X91973992Y-141141254D01*
X92024528Y-141307850D01*
X92106595Y-141461386D01*
X92217038Y-141595962D01*
X92351614Y-141706405D01*
X92505150Y-141788472D01*
X92671746Y-141839008D01*
X92845000Y-141856072D01*
X93845000Y-141856072D01*
X94018254Y-141839008D01*
X94184850Y-141788472D01*
X94338386Y-141706405D01*
X94472962Y-141595962D01*
X94583405Y-141461386D01*
X94665472Y-141307850D01*
X94716008Y-141141254D01*
X94733072Y-140968000D01*
X94733072Y-139879963D01*
X102803000Y-139879963D01*
X102803000Y-140536036D01*
X102823040Y-140739506D01*
X102902236Y-141000580D01*
X103030843Y-141241187D01*
X103203919Y-141452080D01*
X103414812Y-141625157D01*
X103655419Y-141753764D01*
X103916493Y-141832960D01*
X104188000Y-141859701D01*
X104459506Y-141832960D01*
X104720580Y-141753764D01*
X104961187Y-141625157D01*
X105172080Y-141452081D01*
X105345157Y-141241188D01*
X105473764Y-141000581D01*
X105552960Y-140739507D01*
X105573000Y-140536037D01*
X105573000Y-139879964D01*
X105552960Y-139676494D01*
X105483648Y-139448000D01*
X105799928Y-139448000D01*
X105799928Y-140968000D01*
X105816992Y-141141254D01*
X105867528Y-141307850D01*
X105949595Y-141461386D01*
X106060038Y-141595962D01*
X106194614Y-141706405D01*
X106348150Y-141788472D01*
X106514746Y-141839008D01*
X106688000Y-141856072D01*
X107688000Y-141856072D01*
X107861254Y-141839008D01*
X108027850Y-141788472D01*
X108181386Y-141706405D01*
X108315962Y-141595962D01*
X108426405Y-141461386D01*
X108508472Y-141307850D01*
X108559008Y-141141254D01*
X108576072Y-140968000D01*
X108576072Y-139879963D01*
X114741000Y-139879963D01*
X114741000Y-140536036D01*
X114761040Y-140739506D01*
X114840236Y-141000580D01*
X114968843Y-141241187D01*
X115141919Y-141452080D01*
X115352812Y-141625157D01*
X115593419Y-141753764D01*
X115854493Y-141832960D01*
X116126000Y-141859701D01*
X116397506Y-141832960D01*
X116658580Y-141753764D01*
X116899187Y-141625157D01*
X117110080Y-141452081D01*
X117283157Y-141241188D01*
X117411764Y-141000581D01*
X117490960Y-140739507D01*
X117511000Y-140536037D01*
X117511000Y-139879964D01*
X117490960Y-139676494D01*
X117421648Y-139448000D01*
X117737928Y-139448000D01*
X117737928Y-140968000D01*
X117754992Y-141141254D01*
X117805528Y-141307850D01*
X117887595Y-141461386D01*
X117998038Y-141595962D01*
X118132614Y-141706405D01*
X118286150Y-141788472D01*
X118452746Y-141839008D01*
X118626000Y-141856072D01*
X119626000Y-141856072D01*
X119799254Y-141839008D01*
X119965850Y-141788472D01*
X120119386Y-141706405D01*
X120253962Y-141595962D01*
X120364405Y-141461386D01*
X120446472Y-141307850D01*
X120497008Y-141141254D01*
X120514072Y-140968000D01*
X120514072Y-139448000D01*
X120497008Y-139274746D01*
X120446472Y-139108150D01*
X120364405Y-138954614D01*
X120253962Y-138820038D01*
X120119386Y-138709595D01*
X119965850Y-138627528D01*
X119799254Y-138576992D01*
X119626000Y-138559928D01*
X118626000Y-138559928D01*
X118452746Y-138576992D01*
X118286150Y-138627528D01*
X118132614Y-138709595D01*
X117998038Y-138820038D01*
X117887595Y-138954614D01*
X117805528Y-139108150D01*
X117754992Y-139274746D01*
X117737928Y-139448000D01*
X117421648Y-139448000D01*
X117411764Y-139415419D01*
X117283157Y-139174812D01*
X117110081Y-138963919D01*
X116899188Y-138790843D01*
X116658581Y-138662236D01*
X116397507Y-138583040D01*
X116126000Y-138556299D01*
X115854494Y-138583040D01*
X115593420Y-138662236D01*
X115352813Y-138790843D01*
X115141920Y-138963919D01*
X114968843Y-139174812D01*
X114840236Y-139415419D01*
X114761040Y-139676493D01*
X114741000Y-139879963D01*
X108576072Y-139879963D01*
X108576072Y-139448000D01*
X108559008Y-139274746D01*
X108508472Y-139108150D01*
X108426405Y-138954614D01*
X108315962Y-138820038D01*
X108181386Y-138709595D01*
X108027850Y-138627528D01*
X107861254Y-138576992D01*
X107688000Y-138559928D01*
X106688000Y-138559928D01*
X106514746Y-138576992D01*
X106348150Y-138627528D01*
X106194614Y-138709595D01*
X106060038Y-138820038D01*
X105949595Y-138954614D01*
X105867528Y-139108150D01*
X105816992Y-139274746D01*
X105799928Y-139448000D01*
X105483648Y-139448000D01*
X105473764Y-139415419D01*
X105345157Y-139174812D01*
X105172081Y-138963919D01*
X104961188Y-138790843D01*
X104720581Y-138662236D01*
X104459507Y-138583040D01*
X104188000Y-138556299D01*
X103916494Y-138583040D01*
X103655420Y-138662236D01*
X103414813Y-138790843D01*
X103203920Y-138963919D01*
X103030843Y-139174812D01*
X102902236Y-139415419D01*
X102823040Y-139676493D01*
X102803000Y-139879963D01*
X94733072Y-139879963D01*
X94733072Y-139448000D01*
X94716008Y-139274746D01*
X94665472Y-139108150D01*
X94583405Y-138954614D01*
X94472962Y-138820038D01*
X94338386Y-138709595D01*
X94184850Y-138627528D01*
X94018254Y-138576992D01*
X93845000Y-138559928D01*
X92845000Y-138559928D01*
X92671746Y-138576992D01*
X92505150Y-138627528D01*
X92351614Y-138709595D01*
X92217038Y-138820038D01*
X92106595Y-138954614D01*
X92024528Y-139108150D01*
X91973992Y-139274746D01*
X91956928Y-139448000D01*
X91640648Y-139448000D01*
X91630764Y-139415419D01*
X91502157Y-139174812D01*
X91329081Y-138963919D01*
X91118188Y-138790843D01*
X90877581Y-138662236D01*
X90616507Y-138583040D01*
X90345000Y-138556299D01*
X90073494Y-138583040D01*
X89812420Y-138662236D01*
X89571813Y-138790843D01*
X89360920Y-138963919D01*
X89187843Y-139174812D01*
X89059236Y-139415419D01*
X88980040Y-139676493D01*
X88960000Y-139879963D01*
X83279072Y-139879963D01*
X83279072Y-139448000D01*
X83262008Y-139274746D01*
X83211472Y-139108150D01*
X83129405Y-138954614D01*
X83018962Y-138820038D01*
X82884386Y-138709595D01*
X82730850Y-138627528D01*
X82564254Y-138576992D01*
X82391000Y-138559928D01*
X81391000Y-138559928D01*
X81217746Y-138576992D01*
X81051150Y-138627528D01*
X80897614Y-138709595D01*
X80763038Y-138820038D01*
X80652595Y-138954614D01*
X80570528Y-139108150D01*
X80519992Y-139274746D01*
X80502928Y-139448000D01*
X80186648Y-139448000D01*
X80176764Y-139415419D01*
X80048157Y-139174812D01*
X79875081Y-138963919D01*
X79664188Y-138790843D01*
X79423581Y-138662236D01*
X79162507Y-138583040D01*
X78891000Y-138556299D01*
X78619494Y-138583040D01*
X78358420Y-138662236D01*
X78117813Y-138790843D01*
X77906920Y-138963919D01*
X77733843Y-139174812D01*
X77605236Y-139415419D01*
X77526040Y-139676493D01*
X77506000Y-139879963D01*
X71619072Y-139879963D01*
X71619072Y-139448000D01*
X71602008Y-139274746D01*
X71551472Y-139108150D01*
X71469405Y-138954614D01*
X71358962Y-138820038D01*
X71224386Y-138709595D01*
X71070850Y-138627528D01*
X70904254Y-138576992D01*
X70731000Y-138559928D01*
X69731000Y-138559928D01*
X69557746Y-138576992D01*
X69391150Y-138627528D01*
X69237614Y-138709595D01*
X69103038Y-138820038D01*
X68992595Y-138954614D01*
X68910528Y-139108150D01*
X68859992Y-139274746D01*
X68842928Y-139448000D01*
X68526648Y-139448000D01*
X68516764Y-139415419D01*
X68388157Y-139174812D01*
X68215081Y-138963919D01*
X68004188Y-138790843D01*
X67763581Y-138662236D01*
X67502507Y-138583040D01*
X67231000Y-138556299D01*
X66959494Y-138583040D01*
X66698420Y-138662236D01*
X66457813Y-138790843D01*
X66246920Y-138963919D01*
X66073843Y-139174812D01*
X65945236Y-139415419D01*
X65866040Y-139676493D01*
X65846000Y-139879963D01*
X42341000Y-139879963D01*
X42341000Y-128465555D01*
X67600000Y-128465555D01*
X67600000Y-128864445D01*
X67677820Y-129255671D01*
X67830468Y-129624197D01*
X68052080Y-129955862D01*
X68334138Y-130237920D01*
X68665803Y-130459532D01*
X69034329Y-130612180D01*
X69425555Y-130690000D01*
X69824445Y-130690000D01*
X70215671Y-130612180D01*
X70584197Y-130459532D01*
X70915862Y-130237920D01*
X71197920Y-129955862D01*
X71325000Y-129765674D01*
X71452080Y-129955862D01*
X71734138Y-130237920D01*
X72065803Y-130459532D01*
X72434329Y-130612180D01*
X72825555Y-130690000D01*
X73224445Y-130690000D01*
X73615671Y-130612180D01*
X73984197Y-130459532D01*
X74315862Y-130237920D01*
X74597920Y-129955862D01*
X74819532Y-129624197D01*
X74972180Y-129255671D01*
X75050000Y-128864445D01*
X75050000Y-128465555D01*
X76490000Y-128465555D01*
X76490000Y-128864445D01*
X76567820Y-129255671D01*
X76720468Y-129624197D01*
X76942080Y-129955862D01*
X77224138Y-130237920D01*
X77555803Y-130459532D01*
X77924329Y-130612180D01*
X78315555Y-130690000D01*
X78714445Y-130690000D01*
X79105671Y-130612180D01*
X79474197Y-130459532D01*
X79805862Y-130237920D01*
X80087920Y-129955862D01*
X80215000Y-129765674D01*
X80342080Y-129955862D01*
X80624138Y-130237920D01*
X80955803Y-130459532D01*
X81324329Y-130612180D01*
X81715555Y-130690000D01*
X82114445Y-130690000D01*
X82505671Y-130612180D01*
X82874197Y-130459532D01*
X83205862Y-130237920D01*
X83487920Y-129955862D01*
X83709532Y-129624197D01*
X83862180Y-129255671D01*
X83940000Y-128864445D01*
X83940000Y-128592555D01*
X85380000Y-128592555D01*
X85380000Y-128991445D01*
X85457820Y-129382671D01*
X85610468Y-129751197D01*
X85832080Y-130082862D01*
X86114138Y-130364920D01*
X86445803Y-130586532D01*
X86814329Y-130739180D01*
X87205555Y-130817000D01*
X87604445Y-130817000D01*
X87995671Y-130739180D01*
X88364197Y-130586532D01*
X88695862Y-130364920D01*
X88977920Y-130082862D01*
X89105000Y-129892674D01*
X89232080Y-130082862D01*
X89514138Y-130364920D01*
X89845803Y-130586532D01*
X90214329Y-130739180D01*
X90605555Y-130817000D01*
X91004445Y-130817000D01*
X91395671Y-130739180D01*
X91764197Y-130586532D01*
X92095862Y-130364920D01*
X92377920Y-130082862D01*
X92599532Y-129751197D01*
X92752180Y-129382671D01*
X92830000Y-128991445D01*
X92830000Y-128592555D01*
X92804739Y-128465555D01*
X94270000Y-128465555D01*
X94270000Y-128864445D01*
X94347820Y-129255671D01*
X94500468Y-129624197D01*
X94722080Y-129955862D01*
X95004138Y-130237920D01*
X95335803Y-130459532D01*
X95704329Y-130612180D01*
X96095555Y-130690000D01*
X96494445Y-130690000D01*
X96885671Y-130612180D01*
X97254197Y-130459532D01*
X97585862Y-130237920D01*
X97867920Y-129955862D01*
X97995000Y-129765674D01*
X98122080Y-129955862D01*
X98404138Y-130237920D01*
X98735803Y-130459532D01*
X99104329Y-130612180D01*
X99495555Y-130690000D01*
X99894445Y-130690000D01*
X100285671Y-130612180D01*
X100654197Y-130459532D01*
X100985862Y-130237920D01*
X101267920Y-129955862D01*
X101489532Y-129624197D01*
X101642180Y-129255671D01*
X101720000Y-128864445D01*
X101720000Y-128465555D01*
X103160000Y-128465555D01*
X103160000Y-128864445D01*
X103237820Y-129255671D01*
X103390468Y-129624197D01*
X103612080Y-129955862D01*
X103894138Y-130237920D01*
X104225803Y-130459532D01*
X104594329Y-130612180D01*
X104985555Y-130690000D01*
X105384445Y-130690000D01*
X105775671Y-130612180D01*
X106144197Y-130459532D01*
X106475862Y-130237920D01*
X106757920Y-129955862D01*
X106885000Y-129765674D01*
X107012080Y-129955862D01*
X107294138Y-130237920D01*
X107625803Y-130459532D01*
X107994329Y-130612180D01*
X108385555Y-130690000D01*
X108784445Y-130690000D01*
X109175671Y-130612180D01*
X109544197Y-130459532D01*
X109875862Y-130237920D01*
X110157920Y-129955862D01*
X110379532Y-129624197D01*
X110532180Y-129255671D01*
X110610000Y-128864445D01*
X110610000Y-128465555D01*
X110532180Y-128074329D01*
X110379532Y-127705803D01*
X110157920Y-127374138D01*
X109875862Y-127092080D01*
X109544197Y-126870468D01*
X109175671Y-126717820D01*
X108784445Y-126640000D01*
X108385555Y-126640000D01*
X107994329Y-126717820D01*
X107625803Y-126870468D01*
X107294138Y-127092080D01*
X107012080Y-127374138D01*
X106885000Y-127564326D01*
X106757920Y-127374138D01*
X106475862Y-127092080D01*
X106144197Y-126870468D01*
X105775671Y-126717820D01*
X105384445Y-126640000D01*
X104985555Y-126640000D01*
X104594329Y-126717820D01*
X104225803Y-126870468D01*
X103894138Y-127092080D01*
X103612080Y-127374138D01*
X103390468Y-127705803D01*
X103237820Y-128074329D01*
X103160000Y-128465555D01*
X101720000Y-128465555D01*
X101642180Y-128074329D01*
X101489532Y-127705803D01*
X101267920Y-127374138D01*
X100985862Y-127092080D01*
X100654197Y-126870468D01*
X100285671Y-126717820D01*
X99894445Y-126640000D01*
X99495555Y-126640000D01*
X99104329Y-126717820D01*
X98735803Y-126870468D01*
X98404138Y-127092080D01*
X98122080Y-127374138D01*
X97995000Y-127564326D01*
X97867920Y-127374138D01*
X97585862Y-127092080D01*
X97254197Y-126870468D01*
X96885671Y-126717820D01*
X96494445Y-126640000D01*
X96095555Y-126640000D01*
X95704329Y-126717820D01*
X95335803Y-126870468D01*
X95004138Y-127092080D01*
X94722080Y-127374138D01*
X94500468Y-127705803D01*
X94347820Y-128074329D01*
X94270000Y-128465555D01*
X92804739Y-128465555D01*
X92752180Y-128201329D01*
X92599532Y-127832803D01*
X92377920Y-127501138D01*
X92095862Y-127219080D01*
X91764197Y-126997468D01*
X91395671Y-126844820D01*
X91004445Y-126767000D01*
X90605555Y-126767000D01*
X90214329Y-126844820D01*
X89845803Y-126997468D01*
X89514138Y-127219080D01*
X89232080Y-127501138D01*
X89105000Y-127691326D01*
X88977920Y-127501138D01*
X88695862Y-127219080D01*
X88364197Y-126997468D01*
X87995671Y-126844820D01*
X87604445Y-126767000D01*
X87205555Y-126767000D01*
X86814329Y-126844820D01*
X86445803Y-126997468D01*
X86114138Y-127219080D01*
X85832080Y-127501138D01*
X85610468Y-127832803D01*
X85457820Y-128201329D01*
X85380000Y-128592555D01*
X83940000Y-128592555D01*
X83940000Y-128465555D01*
X83862180Y-128074329D01*
X83709532Y-127705803D01*
X83487920Y-127374138D01*
X83205862Y-127092080D01*
X82874197Y-126870468D01*
X82505671Y-126717820D01*
X82114445Y-126640000D01*
X81715555Y-126640000D01*
X81324329Y-126717820D01*
X80955803Y-126870468D01*
X80624138Y-127092080D01*
X80342080Y-127374138D01*
X80215000Y-127564326D01*
X80087920Y-127374138D01*
X79805862Y-127092080D01*
X79474197Y-126870468D01*
X79105671Y-126717820D01*
X78714445Y-126640000D01*
X78315555Y-126640000D01*
X77924329Y-126717820D01*
X77555803Y-126870468D01*
X77224138Y-127092080D01*
X76942080Y-127374138D01*
X76720468Y-127705803D01*
X76567820Y-128074329D01*
X76490000Y-128465555D01*
X75050000Y-128465555D01*
X74972180Y-128074329D01*
X74819532Y-127705803D01*
X74597920Y-127374138D01*
X74315862Y-127092080D01*
X73984197Y-126870468D01*
X73615671Y-126717820D01*
X73224445Y-126640000D01*
X72825555Y-126640000D01*
X72434329Y-126717820D01*
X72065803Y-126870468D01*
X71734138Y-127092080D01*
X71452080Y-127374138D01*
X71325000Y-127564326D01*
X71197920Y-127374138D01*
X70915862Y-127092080D01*
X70584197Y-126870468D01*
X70215671Y-126717820D01*
X69824445Y-126640000D01*
X69425555Y-126640000D01*
X69034329Y-126717820D01*
X68665803Y-126870468D01*
X68334138Y-127092080D01*
X68052080Y-127374138D01*
X67830468Y-127705803D01*
X67677820Y-128074329D01*
X67600000Y-128465555D01*
X42341000Y-128465555D01*
X42341000Y-123299796D01*
X51856000Y-123299796D01*
X51856000Y-123730204D01*
X51939969Y-124152341D01*
X52104678Y-124549985D01*
X52343800Y-124907856D01*
X52648144Y-125212200D01*
X53006015Y-125451322D01*
X53403659Y-125616031D01*
X53825796Y-125700000D01*
X54256204Y-125700000D01*
X54678341Y-125616031D01*
X55075985Y-125451322D01*
X55433856Y-125212200D01*
X55738200Y-124907856D01*
X55977322Y-124549985D01*
X56142031Y-124152341D01*
X56226000Y-123730204D01*
X56226000Y-123299796D01*
X56142031Y-122877659D01*
X55977322Y-122480015D01*
X55738200Y-122122144D01*
X55433856Y-121817800D01*
X55075985Y-121578678D01*
X54678341Y-121413969D01*
X54256204Y-121330000D01*
X53825796Y-121330000D01*
X53403659Y-121413969D01*
X53006015Y-121578678D01*
X52648144Y-121817800D01*
X52343800Y-122122144D01*
X52104678Y-122480015D01*
X51939969Y-122877659D01*
X51856000Y-123299796D01*
X42341000Y-123299796D01*
X42341000Y-120721661D01*
X59548259Y-120721661D01*
X59593760Y-121070319D01*
X59706406Y-121403400D01*
X59818910Y-121613882D01*
X60098651Y-121727744D01*
X61161395Y-120665000D01*
X60098651Y-119602256D01*
X59818910Y-119716118D01*
X59663039Y-120031296D01*
X59571651Y-120370826D01*
X59548259Y-120721661D01*
X42341000Y-120721661D01*
X42341000Y-111355998D01*
X53985881Y-111355998D01*
X54022275Y-111725522D01*
X54130062Y-112080846D01*
X54305098Y-112408315D01*
X54481628Y-112623418D01*
X54481631Y-112623421D01*
X54540656Y-112695343D01*
X54612577Y-112754367D01*
X60816332Y-118958123D01*
X60602600Y-119030406D01*
X60392118Y-119142910D01*
X60278256Y-119422651D01*
X61341000Y-120485395D01*
X61355143Y-120471253D01*
X61534748Y-120650858D01*
X61520605Y-120665000D01*
X61534748Y-120679143D01*
X61355143Y-120858748D01*
X61341000Y-120844605D01*
X60278256Y-121907349D01*
X60392118Y-122187090D01*
X60707296Y-122342961D01*
X61046826Y-122434349D01*
X61397661Y-122457741D01*
X61746319Y-122412240D01*
X62056002Y-122307507D01*
X62056002Y-122984205D01*
X60463280Y-124576928D01*
X60191000Y-124576928D01*
X60066518Y-124589188D01*
X59946820Y-124625498D01*
X59836506Y-124684463D01*
X59739815Y-124763815D01*
X59660463Y-124860506D01*
X59601498Y-124970820D01*
X59565188Y-125090518D01*
X59552928Y-125215000D01*
X59552928Y-125765862D01*
X59483275Y-125995476D01*
X59446881Y-126365000D01*
X59483275Y-126734524D01*
X59552928Y-126964138D01*
X59552928Y-127515000D01*
X59565188Y-127639482D01*
X59601498Y-127759180D01*
X59660463Y-127869494D01*
X59739815Y-127966185D01*
X59836506Y-128045537D01*
X59946820Y-128104502D01*
X60066518Y-128140812D01*
X60191000Y-128153072D01*
X60741862Y-128153072D01*
X60971476Y-128222725D01*
X61341000Y-128259119D01*
X61710524Y-128222725D01*
X61940138Y-128153072D01*
X62491000Y-128153072D01*
X62615482Y-128140812D01*
X62735180Y-128104502D01*
X62845494Y-128045537D01*
X62942185Y-127966185D01*
X63021537Y-127869494D01*
X63080502Y-127759180D01*
X63116812Y-127639482D01*
X63129072Y-127515000D01*
X63129072Y-127242720D01*
X65208424Y-125163369D01*
X65280346Y-125104344D01*
X65389927Y-124970820D01*
X65515904Y-124817316D01*
X65644394Y-124576928D01*
X65690940Y-124489847D01*
X65798726Y-124134523D01*
X65826001Y-123857596D01*
X65835121Y-123764999D01*
X65826001Y-123672402D01*
X65826001Y-119509588D01*
X65835120Y-119416999D01*
X65826001Y-119324410D01*
X65826001Y-119324402D01*
X65798726Y-119047475D01*
X65690940Y-118692151D01*
X65612583Y-118545555D01*
X67600000Y-118545555D01*
X67600000Y-118944445D01*
X67677820Y-119335671D01*
X67830468Y-119704197D01*
X68052080Y-120035862D01*
X68334138Y-120317920D01*
X68665803Y-120539532D01*
X69034329Y-120692180D01*
X69425555Y-120770000D01*
X69824445Y-120770000D01*
X70215671Y-120692180D01*
X70584197Y-120539532D01*
X70915862Y-120317920D01*
X71197920Y-120035862D01*
X71325000Y-119845674D01*
X71452080Y-120035862D01*
X71734138Y-120317920D01*
X72065803Y-120539532D01*
X72434329Y-120692180D01*
X72825555Y-120770000D01*
X73224445Y-120770000D01*
X73615671Y-120692180D01*
X73984197Y-120539532D01*
X74315862Y-120317920D01*
X74597920Y-120035862D01*
X74819532Y-119704197D01*
X74972180Y-119335671D01*
X75050000Y-118944445D01*
X75050000Y-118545555D01*
X76490000Y-118545555D01*
X76490000Y-118944445D01*
X76567820Y-119335671D01*
X76720468Y-119704197D01*
X76942080Y-120035862D01*
X77224138Y-120317920D01*
X77555803Y-120539532D01*
X77924329Y-120692180D01*
X78315555Y-120770000D01*
X78714445Y-120770000D01*
X79105671Y-120692180D01*
X79474197Y-120539532D01*
X79805862Y-120317920D01*
X80087920Y-120035862D01*
X80215000Y-119845674D01*
X80342080Y-120035862D01*
X80624138Y-120317920D01*
X80955803Y-120539532D01*
X81324329Y-120692180D01*
X81715555Y-120770000D01*
X82114445Y-120770000D01*
X82505671Y-120692180D01*
X82874197Y-120539532D01*
X83205862Y-120317920D01*
X83487920Y-120035862D01*
X83709532Y-119704197D01*
X83862180Y-119335671D01*
X83940000Y-118944445D01*
X83940000Y-118672555D01*
X85380000Y-118672555D01*
X85380000Y-119071445D01*
X85457820Y-119462671D01*
X85610468Y-119831197D01*
X85832080Y-120162862D01*
X86114138Y-120444920D01*
X86445803Y-120666532D01*
X86814329Y-120819180D01*
X87205555Y-120897000D01*
X87604445Y-120897000D01*
X87995671Y-120819180D01*
X88364197Y-120666532D01*
X88695862Y-120444920D01*
X88977920Y-120162862D01*
X89105000Y-119972674D01*
X89232080Y-120162862D01*
X89514138Y-120444920D01*
X89845803Y-120666532D01*
X90214329Y-120819180D01*
X90605555Y-120897000D01*
X91004445Y-120897000D01*
X91395671Y-120819180D01*
X91764197Y-120666532D01*
X92095862Y-120444920D01*
X92377920Y-120162862D01*
X92599532Y-119831197D01*
X92752180Y-119462671D01*
X92830000Y-119071445D01*
X92830000Y-118672555D01*
X92804739Y-118545555D01*
X94270000Y-118545555D01*
X94270000Y-118944445D01*
X94347820Y-119335671D01*
X94500468Y-119704197D01*
X94722080Y-120035862D01*
X95004138Y-120317920D01*
X95335803Y-120539532D01*
X95704329Y-120692180D01*
X96095555Y-120770000D01*
X96494445Y-120770000D01*
X96885671Y-120692180D01*
X97254197Y-120539532D01*
X97585862Y-120317920D01*
X97867920Y-120035862D01*
X97995000Y-119845674D01*
X98122080Y-120035862D01*
X98404138Y-120317920D01*
X98735803Y-120539532D01*
X99104329Y-120692180D01*
X99495555Y-120770000D01*
X99894445Y-120770000D01*
X100285671Y-120692180D01*
X100654197Y-120539532D01*
X100985862Y-120317920D01*
X101267920Y-120035862D01*
X101489532Y-119704197D01*
X101642180Y-119335671D01*
X101720000Y-118944445D01*
X101720000Y-118545555D01*
X103160000Y-118545555D01*
X103160000Y-118944445D01*
X103237820Y-119335671D01*
X103390468Y-119704197D01*
X103612080Y-120035862D01*
X103894138Y-120317920D01*
X104225803Y-120539532D01*
X104594329Y-120692180D01*
X104985555Y-120770000D01*
X105384445Y-120770000D01*
X105775671Y-120692180D01*
X106144197Y-120539532D01*
X106475862Y-120317920D01*
X106757920Y-120035862D01*
X106885000Y-119845674D01*
X107012080Y-120035862D01*
X107294138Y-120317920D01*
X107625803Y-120539532D01*
X107994329Y-120692180D01*
X108385555Y-120770000D01*
X108784445Y-120770000D01*
X109175671Y-120692180D01*
X109544197Y-120539532D01*
X109875862Y-120317920D01*
X110157920Y-120035862D01*
X110379532Y-119704197D01*
X110532180Y-119335671D01*
X110610000Y-118944445D01*
X110610000Y-118545555D01*
X110532180Y-118154329D01*
X110379532Y-117785803D01*
X110157920Y-117454138D01*
X109875862Y-117172080D01*
X109544197Y-116950468D01*
X109175671Y-116797820D01*
X108784445Y-116720000D01*
X108385555Y-116720000D01*
X107994329Y-116797820D01*
X107625803Y-116950468D01*
X107294138Y-117172080D01*
X107012080Y-117454138D01*
X106885000Y-117644326D01*
X106757920Y-117454138D01*
X106475862Y-117172080D01*
X106144197Y-116950468D01*
X105775671Y-116797820D01*
X105384445Y-116720000D01*
X104985555Y-116720000D01*
X104594329Y-116797820D01*
X104225803Y-116950468D01*
X103894138Y-117172080D01*
X103612080Y-117454138D01*
X103390468Y-117785803D01*
X103237820Y-118154329D01*
X103160000Y-118545555D01*
X101720000Y-118545555D01*
X101642180Y-118154329D01*
X101489532Y-117785803D01*
X101267920Y-117454138D01*
X100985862Y-117172080D01*
X100654197Y-116950468D01*
X100285671Y-116797820D01*
X99894445Y-116720000D01*
X99495555Y-116720000D01*
X99104329Y-116797820D01*
X98735803Y-116950468D01*
X98404138Y-117172080D01*
X98122080Y-117454138D01*
X97995000Y-117644326D01*
X97867920Y-117454138D01*
X97585862Y-117172080D01*
X97254197Y-116950468D01*
X96885671Y-116797820D01*
X96494445Y-116720000D01*
X96095555Y-116720000D01*
X95704329Y-116797820D01*
X95335803Y-116950468D01*
X95004138Y-117172080D01*
X94722080Y-117454138D01*
X94500468Y-117785803D01*
X94347820Y-118154329D01*
X94270000Y-118545555D01*
X92804739Y-118545555D01*
X92752180Y-118281329D01*
X92599532Y-117912803D01*
X92377920Y-117581138D01*
X92095862Y-117299080D01*
X91764197Y-117077468D01*
X91395671Y-116924820D01*
X91004445Y-116847000D01*
X90605555Y-116847000D01*
X90214329Y-116924820D01*
X89845803Y-117077468D01*
X89514138Y-117299080D01*
X89232080Y-117581138D01*
X89105000Y-117771326D01*
X88977920Y-117581138D01*
X88695862Y-117299080D01*
X88364197Y-117077468D01*
X87995671Y-116924820D01*
X87604445Y-116847000D01*
X87205555Y-116847000D01*
X86814329Y-116924820D01*
X86445803Y-117077468D01*
X86114138Y-117299080D01*
X85832080Y-117581138D01*
X85610468Y-117912803D01*
X85457820Y-118281329D01*
X85380000Y-118672555D01*
X83940000Y-118672555D01*
X83940000Y-118545555D01*
X83862180Y-118154329D01*
X83709532Y-117785803D01*
X83487920Y-117454138D01*
X83205862Y-117172080D01*
X82874197Y-116950468D01*
X82505671Y-116797820D01*
X82114445Y-116720000D01*
X81715555Y-116720000D01*
X81324329Y-116797820D01*
X80955803Y-116950468D01*
X80624138Y-117172080D01*
X80342080Y-117454138D01*
X80215000Y-117644326D01*
X80087920Y-117454138D01*
X79805862Y-117172080D01*
X79474197Y-116950468D01*
X79105671Y-116797820D01*
X78714445Y-116720000D01*
X78315555Y-116720000D01*
X77924329Y-116797820D01*
X77555803Y-116950468D01*
X77224138Y-117172080D01*
X76942080Y-117454138D01*
X76720468Y-117785803D01*
X76567820Y-118154329D01*
X76490000Y-118545555D01*
X75050000Y-118545555D01*
X74972180Y-118154329D01*
X74819532Y-117785803D01*
X74597920Y-117454138D01*
X74315862Y-117172080D01*
X73984197Y-116950468D01*
X73615671Y-116797820D01*
X73224445Y-116720000D01*
X72825555Y-116720000D01*
X72434329Y-116797820D01*
X72065803Y-116950468D01*
X71734138Y-117172080D01*
X71452080Y-117454138D01*
X71325000Y-117644326D01*
X71197920Y-117454138D01*
X70915862Y-117172080D01*
X70584197Y-116950468D01*
X70215671Y-116797820D01*
X69824445Y-116720000D01*
X69425555Y-116720000D01*
X69034329Y-116797820D01*
X68665803Y-116950468D01*
X68334138Y-117172080D01*
X68052080Y-117454138D01*
X67830468Y-117785803D01*
X67677820Y-118154329D01*
X67600000Y-118545555D01*
X65612583Y-118545555D01*
X65515904Y-118364682D01*
X65280346Y-118077654D01*
X65208424Y-118018629D01*
X57765000Y-110575206D01*
X57765000Y-108873403D01*
X57749498Y-108716000D01*
X58452928Y-108716000D01*
X58452928Y-110236000D01*
X58469992Y-110409254D01*
X58520528Y-110575850D01*
X58602595Y-110729386D01*
X58713038Y-110863962D01*
X58847614Y-110974405D01*
X59001150Y-111056472D01*
X59167746Y-111107008D01*
X59341000Y-111124072D01*
X60341000Y-111124072D01*
X60514254Y-111107008D01*
X60680850Y-111056472D01*
X60834386Y-110974405D01*
X60968962Y-110863962D01*
X61079405Y-110729386D01*
X61161472Y-110575850D01*
X61212008Y-110409254D01*
X61229072Y-110236000D01*
X61229072Y-109147964D01*
X61456000Y-109147964D01*
X61456000Y-109804037D01*
X61476040Y-110007507D01*
X61555236Y-110268581D01*
X61683843Y-110509188D01*
X61856920Y-110720081D01*
X62067813Y-110893157D01*
X62308420Y-111021764D01*
X62569494Y-111100960D01*
X62841000Y-111127701D01*
X63112507Y-111100960D01*
X63373581Y-111021764D01*
X63614188Y-110893157D01*
X63825081Y-110720081D01*
X63998157Y-110509188D01*
X64010551Y-110486000D01*
X69882928Y-110486000D01*
X69895188Y-110610482D01*
X69931498Y-110730180D01*
X69990463Y-110840494D01*
X70069815Y-110937185D01*
X70166506Y-111016537D01*
X70276820Y-111075502D01*
X70396518Y-111111812D01*
X70521000Y-111124072D01*
X70985250Y-111121000D01*
X71144000Y-110962250D01*
X71144000Y-109603000D01*
X71398000Y-109603000D01*
X71398000Y-110962250D01*
X71556750Y-111121000D01*
X72021000Y-111124072D01*
X72145482Y-111111812D01*
X72265180Y-111075502D01*
X72375494Y-111016537D01*
X72472185Y-110937185D01*
X72551537Y-110840494D01*
X72610502Y-110730180D01*
X72646812Y-110610482D01*
X72659072Y-110486000D01*
X72656000Y-109761750D01*
X72497250Y-109603000D01*
X71398000Y-109603000D01*
X71144000Y-109603000D01*
X70044750Y-109603000D01*
X69886000Y-109761750D01*
X69882928Y-110486000D01*
X64010551Y-110486000D01*
X64126764Y-110268581D01*
X64205960Y-110007506D01*
X64226000Y-109804036D01*
X64226000Y-109147963D01*
X64205960Y-108944493D01*
X64126764Y-108683419D01*
X64010552Y-108466000D01*
X69882928Y-108466000D01*
X69886000Y-109190250D01*
X70044750Y-109349000D01*
X71144000Y-109349000D01*
X71144000Y-107989750D01*
X71398000Y-107989750D01*
X71398000Y-109349000D01*
X72497250Y-109349000D01*
X72656000Y-109190250D01*
X72656179Y-109147964D01*
X72886000Y-109147964D01*
X72886000Y-109804037D01*
X72906040Y-110007507D01*
X72985236Y-110268581D01*
X73113843Y-110509188D01*
X73286920Y-110720081D01*
X73497813Y-110893157D01*
X73738420Y-111021764D01*
X73999494Y-111100960D01*
X74271000Y-111127701D01*
X74542507Y-111100960D01*
X74803581Y-111021764D01*
X75044188Y-110893157D01*
X75255081Y-110720081D01*
X75428157Y-110509188D01*
X75440551Y-110486000D01*
X81312928Y-110486000D01*
X81325188Y-110610482D01*
X81361498Y-110730180D01*
X81420463Y-110840494D01*
X81499815Y-110937185D01*
X81596506Y-111016537D01*
X81706820Y-111075502D01*
X81826518Y-111111812D01*
X81951000Y-111124072D01*
X82415250Y-111121000D01*
X82574000Y-110962250D01*
X82574000Y-109603000D01*
X82828000Y-109603000D01*
X82828000Y-110962250D01*
X82986750Y-111121000D01*
X83451000Y-111124072D01*
X83575482Y-111111812D01*
X83695180Y-111075502D01*
X83805494Y-111016537D01*
X83902185Y-110937185D01*
X83981537Y-110840494D01*
X84040502Y-110730180D01*
X84076812Y-110610482D01*
X84089072Y-110486000D01*
X84086000Y-109761750D01*
X83927250Y-109603000D01*
X82828000Y-109603000D01*
X82574000Y-109603000D01*
X81474750Y-109603000D01*
X81316000Y-109761750D01*
X81312928Y-110486000D01*
X75440551Y-110486000D01*
X75556764Y-110268581D01*
X75635960Y-110007506D01*
X75656000Y-109804036D01*
X75656000Y-109147963D01*
X75635960Y-108944493D01*
X75556764Y-108683419D01*
X75440552Y-108466000D01*
X81312928Y-108466000D01*
X81316000Y-109190250D01*
X81474750Y-109349000D01*
X82574000Y-109349000D01*
X82574000Y-107989750D01*
X82828000Y-107989750D01*
X82828000Y-109349000D01*
X83927250Y-109349000D01*
X84086000Y-109190250D01*
X84086179Y-109147964D01*
X84316000Y-109147964D01*
X84316000Y-109804037D01*
X84336040Y-110007507D01*
X84415236Y-110268581D01*
X84543843Y-110509188D01*
X84716920Y-110720081D01*
X84927813Y-110893157D01*
X85168420Y-111021764D01*
X85429494Y-111100960D01*
X85701000Y-111127701D01*
X85972507Y-111100960D01*
X86233581Y-111021764D01*
X86474188Y-110893157D01*
X86685081Y-110720081D01*
X86858157Y-110509188D01*
X86870551Y-110486000D01*
X92742928Y-110486000D01*
X92755188Y-110610482D01*
X92791498Y-110730180D01*
X92850463Y-110840494D01*
X92929815Y-110937185D01*
X93026506Y-111016537D01*
X93136820Y-111075502D01*
X93256518Y-111111812D01*
X93381000Y-111124072D01*
X93845250Y-111121000D01*
X94004000Y-110962250D01*
X94004000Y-109603000D01*
X94258000Y-109603000D01*
X94258000Y-110962250D01*
X94416750Y-111121000D01*
X94881000Y-111124072D01*
X95005482Y-111111812D01*
X95125180Y-111075502D01*
X95235494Y-111016537D01*
X95332185Y-110937185D01*
X95411537Y-110840494D01*
X95470502Y-110730180D01*
X95506812Y-110610482D01*
X95519072Y-110486000D01*
X95516000Y-109761750D01*
X95357250Y-109603000D01*
X94258000Y-109603000D01*
X94004000Y-109603000D01*
X92904750Y-109603000D01*
X92746000Y-109761750D01*
X92742928Y-110486000D01*
X86870551Y-110486000D01*
X86986764Y-110268581D01*
X87065960Y-110007506D01*
X87086000Y-109804036D01*
X87086000Y-109147963D01*
X87065960Y-108944493D01*
X86986764Y-108683419D01*
X86870552Y-108466000D01*
X92742928Y-108466000D01*
X92746000Y-109190250D01*
X92904750Y-109349000D01*
X94004000Y-109349000D01*
X94004000Y-107989750D01*
X94258000Y-107989750D01*
X94258000Y-109349000D01*
X95357250Y-109349000D01*
X95516000Y-109190250D01*
X95516179Y-109147964D01*
X95746000Y-109147964D01*
X95746000Y-109804037D01*
X95766040Y-110007507D01*
X95845236Y-110268581D01*
X95973843Y-110509188D01*
X96146920Y-110720081D01*
X96357813Y-110893157D01*
X96598420Y-111021764D01*
X96859494Y-111100960D01*
X97131000Y-111127701D01*
X97402507Y-111100960D01*
X97663581Y-111021764D01*
X97904188Y-110893157D01*
X98115081Y-110720081D01*
X98288157Y-110509188D01*
X98416764Y-110268581D01*
X98495960Y-110007506D01*
X98516000Y-109804036D01*
X98516000Y-109147963D01*
X98495960Y-108944493D01*
X98426648Y-108716000D01*
X104172928Y-108716000D01*
X104172928Y-110236000D01*
X104189992Y-110409254D01*
X104240528Y-110575850D01*
X104322595Y-110729386D01*
X104433038Y-110863962D01*
X104567614Y-110974405D01*
X104721150Y-111056472D01*
X104887746Y-111107008D01*
X105061000Y-111124072D01*
X106061000Y-111124072D01*
X106234254Y-111107008D01*
X106400850Y-111056472D01*
X106554386Y-110974405D01*
X106688962Y-110863962D01*
X106799405Y-110729386D01*
X106881472Y-110575850D01*
X106932008Y-110409254D01*
X106949072Y-110236000D01*
X106949072Y-109147964D01*
X107176000Y-109147964D01*
X107176000Y-109804037D01*
X107196040Y-110007507D01*
X107275236Y-110268581D01*
X107403843Y-110509188D01*
X107576920Y-110720081D01*
X107787813Y-110893157D01*
X108028420Y-111021764D01*
X108289494Y-111100960D01*
X108561000Y-111127701D01*
X108832507Y-111100960D01*
X109093581Y-111021764D01*
X109334188Y-110893157D01*
X109545081Y-110720081D01*
X109718157Y-110509188D01*
X109846764Y-110268581D01*
X109925960Y-110007506D01*
X109946000Y-109804036D01*
X109946000Y-109147963D01*
X109925960Y-108944493D01*
X109856648Y-108716000D01*
X115602928Y-108716000D01*
X115602928Y-110236000D01*
X115619992Y-110409254D01*
X115670528Y-110575850D01*
X115752595Y-110729386D01*
X115863038Y-110863962D01*
X115997614Y-110974405D01*
X116151150Y-111056472D01*
X116317746Y-111107008D01*
X116491000Y-111124072D01*
X117491000Y-111124072D01*
X117664254Y-111107008D01*
X117830850Y-111056472D01*
X117984386Y-110974405D01*
X118118962Y-110863962D01*
X118229405Y-110729386D01*
X118311472Y-110575850D01*
X118362008Y-110409254D01*
X118379072Y-110236000D01*
X118379072Y-109147964D01*
X118606000Y-109147964D01*
X118606000Y-109804037D01*
X118626040Y-110007507D01*
X118705236Y-110268581D01*
X118833843Y-110509188D01*
X119006920Y-110720081D01*
X119217813Y-110893157D01*
X119458420Y-111021764D01*
X119719494Y-111100960D01*
X119991000Y-111127701D01*
X120262507Y-111100960D01*
X120523581Y-111021764D01*
X120764188Y-110893157D01*
X120975081Y-110720081D01*
X121148157Y-110509188D01*
X121276764Y-110268581D01*
X121355960Y-110007506D01*
X121376000Y-109804036D01*
X121376000Y-109147963D01*
X121355960Y-108944493D01*
X121276764Y-108683419D01*
X121148157Y-108442812D01*
X120975080Y-108231919D01*
X120764187Y-108058843D01*
X120523580Y-107930236D01*
X120262506Y-107851040D01*
X119991000Y-107824299D01*
X119719493Y-107851040D01*
X119458419Y-107930236D01*
X119217812Y-108058843D01*
X119006919Y-108231920D01*
X118833843Y-108442813D01*
X118705236Y-108683420D01*
X118626040Y-108944494D01*
X118606000Y-109147964D01*
X118379072Y-109147964D01*
X118379072Y-108716000D01*
X118362008Y-108542746D01*
X118311472Y-108376150D01*
X118229405Y-108222614D01*
X118118962Y-108088038D01*
X117984386Y-107977595D01*
X117830850Y-107895528D01*
X117664254Y-107844992D01*
X117491000Y-107827928D01*
X116491000Y-107827928D01*
X116317746Y-107844992D01*
X116151150Y-107895528D01*
X115997614Y-107977595D01*
X115863038Y-108088038D01*
X115752595Y-108222614D01*
X115670528Y-108376150D01*
X115619992Y-108542746D01*
X115602928Y-108716000D01*
X109856648Y-108716000D01*
X109846764Y-108683419D01*
X109718157Y-108442812D01*
X109545080Y-108231919D01*
X109334187Y-108058843D01*
X109093580Y-107930236D01*
X108832506Y-107851040D01*
X108561000Y-107824299D01*
X108289493Y-107851040D01*
X108028419Y-107930236D01*
X107787812Y-108058843D01*
X107576919Y-108231920D01*
X107403843Y-108442813D01*
X107275236Y-108683420D01*
X107196040Y-108944494D01*
X107176000Y-109147964D01*
X106949072Y-109147964D01*
X106949072Y-108716000D01*
X106932008Y-108542746D01*
X106881472Y-108376150D01*
X106799405Y-108222614D01*
X106688962Y-108088038D01*
X106554386Y-107977595D01*
X106400850Y-107895528D01*
X106234254Y-107844992D01*
X106061000Y-107827928D01*
X105061000Y-107827928D01*
X104887746Y-107844992D01*
X104721150Y-107895528D01*
X104567614Y-107977595D01*
X104433038Y-108088038D01*
X104322595Y-108222614D01*
X104240528Y-108376150D01*
X104189992Y-108542746D01*
X104172928Y-108716000D01*
X98426648Y-108716000D01*
X98416764Y-108683419D01*
X98288157Y-108442812D01*
X98115080Y-108231919D01*
X97904187Y-108058843D01*
X97663580Y-107930236D01*
X97402506Y-107851040D01*
X97131000Y-107824299D01*
X96859493Y-107851040D01*
X96598419Y-107930236D01*
X96357812Y-108058843D01*
X96146919Y-108231920D01*
X95973843Y-108442813D01*
X95845236Y-108683420D01*
X95766040Y-108944494D01*
X95746000Y-109147964D01*
X95516179Y-109147964D01*
X95519072Y-108466000D01*
X95506812Y-108341518D01*
X95470502Y-108221820D01*
X95411537Y-108111506D01*
X95332185Y-108014815D01*
X95235494Y-107935463D01*
X95125180Y-107876498D01*
X95005482Y-107840188D01*
X94881000Y-107827928D01*
X94416750Y-107831000D01*
X94258000Y-107989750D01*
X94004000Y-107989750D01*
X93845250Y-107831000D01*
X93381000Y-107827928D01*
X93256518Y-107840188D01*
X93136820Y-107876498D01*
X93026506Y-107935463D01*
X92929815Y-108014815D01*
X92850463Y-108111506D01*
X92791498Y-108221820D01*
X92755188Y-108341518D01*
X92742928Y-108466000D01*
X86870552Y-108466000D01*
X86858157Y-108442812D01*
X86685080Y-108231919D01*
X86474187Y-108058843D01*
X86233580Y-107930236D01*
X85972506Y-107851040D01*
X85701000Y-107824299D01*
X85429493Y-107851040D01*
X85168419Y-107930236D01*
X84927812Y-108058843D01*
X84716919Y-108231920D01*
X84543843Y-108442813D01*
X84415236Y-108683420D01*
X84336040Y-108944494D01*
X84316000Y-109147964D01*
X84086179Y-109147964D01*
X84089072Y-108466000D01*
X84076812Y-108341518D01*
X84040502Y-108221820D01*
X83981537Y-108111506D01*
X83902185Y-108014815D01*
X83805494Y-107935463D01*
X83695180Y-107876498D01*
X83575482Y-107840188D01*
X83451000Y-107827928D01*
X82986750Y-107831000D01*
X82828000Y-107989750D01*
X82574000Y-107989750D01*
X82415250Y-107831000D01*
X81951000Y-107827928D01*
X81826518Y-107840188D01*
X81706820Y-107876498D01*
X81596506Y-107935463D01*
X81499815Y-108014815D01*
X81420463Y-108111506D01*
X81361498Y-108221820D01*
X81325188Y-108341518D01*
X81312928Y-108466000D01*
X75440552Y-108466000D01*
X75428157Y-108442812D01*
X75255080Y-108231919D01*
X75044187Y-108058843D01*
X74803580Y-107930236D01*
X74542506Y-107851040D01*
X74271000Y-107824299D01*
X73999493Y-107851040D01*
X73738419Y-107930236D01*
X73497812Y-108058843D01*
X73286919Y-108231920D01*
X73113843Y-108442813D01*
X72985236Y-108683420D01*
X72906040Y-108944494D01*
X72886000Y-109147964D01*
X72656179Y-109147964D01*
X72659072Y-108466000D01*
X72646812Y-108341518D01*
X72610502Y-108221820D01*
X72551537Y-108111506D01*
X72472185Y-108014815D01*
X72375494Y-107935463D01*
X72265180Y-107876498D01*
X72145482Y-107840188D01*
X72021000Y-107827928D01*
X71556750Y-107831000D01*
X71398000Y-107989750D01*
X71144000Y-107989750D01*
X70985250Y-107831000D01*
X70521000Y-107827928D01*
X70396518Y-107840188D01*
X70276820Y-107876498D01*
X70166506Y-107935463D01*
X70069815Y-108014815D01*
X69990463Y-108111506D01*
X69931498Y-108221820D01*
X69895188Y-108341518D01*
X69882928Y-108466000D01*
X64010552Y-108466000D01*
X63998157Y-108442812D01*
X63825080Y-108231919D01*
X63614187Y-108058843D01*
X63373580Y-107930236D01*
X63112506Y-107851040D01*
X62841000Y-107824299D01*
X62569493Y-107851040D01*
X62308419Y-107930236D01*
X62067812Y-108058843D01*
X61856919Y-108231920D01*
X61683843Y-108442813D01*
X61555236Y-108683420D01*
X61476040Y-108944494D01*
X61456000Y-109147964D01*
X61229072Y-109147964D01*
X61229072Y-108716000D01*
X61212008Y-108542746D01*
X61161472Y-108376150D01*
X61079405Y-108222614D01*
X60968962Y-108088038D01*
X60834386Y-107977595D01*
X60680850Y-107895528D01*
X60514254Y-107844992D01*
X60341000Y-107827928D01*
X59341000Y-107827928D01*
X59167746Y-107844992D01*
X59001150Y-107895528D01*
X58847614Y-107977595D01*
X58713038Y-108088038D01*
X58602595Y-108222614D01*
X58520528Y-108376150D01*
X58469992Y-108542746D01*
X58452928Y-108716000D01*
X57749498Y-108716000D01*
X57737725Y-108596476D01*
X57629939Y-108241152D01*
X57454903Y-107913683D01*
X57219345Y-107626655D01*
X56932317Y-107391097D01*
X56604847Y-107216061D01*
X56249523Y-107108275D01*
X55880000Y-107071880D01*
X55510476Y-107108275D01*
X55155152Y-107216061D01*
X54827683Y-107391097D01*
X54540655Y-107626655D01*
X54305097Y-107913683D01*
X54130061Y-108241153D01*
X54022275Y-108596477D01*
X53995000Y-108873404D01*
X53995001Y-111263399D01*
X53985881Y-111355998D01*
X42341000Y-111355998D01*
X42341000Y-103880475D01*
X43466000Y-103880475D01*
X43466000Y-104399525D01*
X43567261Y-104908601D01*
X43765893Y-105388141D01*
X44054262Y-105819715D01*
X44421285Y-106186738D01*
X44852859Y-106475107D01*
X45332399Y-106673739D01*
X45841475Y-106775000D01*
X46360525Y-106775000D01*
X46869601Y-106673739D01*
X47349141Y-106475107D01*
X47780715Y-106186738D01*
X48147738Y-105819715D01*
X48436107Y-105388141D01*
X48619363Y-104945721D01*
X59206000Y-104945721D01*
X59206000Y-105366279D01*
X59288047Y-105778756D01*
X59448988Y-106167302D01*
X59682637Y-106516983D01*
X59980017Y-106814363D01*
X60329698Y-107048012D01*
X60718244Y-107208953D01*
X61130721Y-107291000D01*
X61551279Y-107291000D01*
X61963756Y-107208953D01*
X62352302Y-107048012D01*
X62701983Y-106814363D01*
X62999363Y-106516983D01*
X63233012Y-106167302D01*
X63393953Y-105778756D01*
X63476000Y-105366279D01*
X63476000Y-104945721D01*
X70636000Y-104945721D01*
X70636000Y-105366279D01*
X70718047Y-105778756D01*
X70878988Y-106167302D01*
X71112637Y-106516983D01*
X71410017Y-106814363D01*
X71759698Y-107048012D01*
X72148244Y-107208953D01*
X72560721Y-107291000D01*
X72981279Y-107291000D01*
X73393756Y-107208953D01*
X73782302Y-107048012D01*
X74131983Y-106814363D01*
X74429363Y-106516983D01*
X74663012Y-106167302D01*
X74823953Y-105778756D01*
X74906000Y-105366279D01*
X74906000Y-104945721D01*
X82066000Y-104945721D01*
X82066000Y-105366279D01*
X82148047Y-105778756D01*
X82308988Y-106167302D01*
X82542637Y-106516983D01*
X82840017Y-106814363D01*
X83189698Y-107048012D01*
X83578244Y-107208953D01*
X83990721Y-107291000D01*
X84411279Y-107291000D01*
X84823756Y-107208953D01*
X85212302Y-107048012D01*
X85561983Y-106814363D01*
X85859363Y-106516983D01*
X86093012Y-106167302D01*
X86253953Y-105778756D01*
X86336000Y-105366279D01*
X86336000Y-104945721D01*
X93496000Y-104945721D01*
X93496000Y-105366279D01*
X93578047Y-105778756D01*
X93738988Y-106167302D01*
X93972637Y-106516983D01*
X94270017Y-106814363D01*
X94619698Y-107048012D01*
X95008244Y-107208953D01*
X95420721Y-107291000D01*
X95841279Y-107291000D01*
X96253756Y-107208953D01*
X96642302Y-107048012D01*
X96991983Y-106814363D01*
X97289363Y-106516983D01*
X97523012Y-106167302D01*
X97683953Y-105778756D01*
X97766000Y-105366279D01*
X97766000Y-104945721D01*
X104926000Y-104945721D01*
X104926000Y-105366279D01*
X105008047Y-105778756D01*
X105168988Y-106167302D01*
X105402637Y-106516983D01*
X105700017Y-106814363D01*
X106049698Y-107048012D01*
X106438244Y-107208953D01*
X106850721Y-107291000D01*
X107271279Y-107291000D01*
X107683756Y-107208953D01*
X108072302Y-107048012D01*
X108421983Y-106814363D01*
X108719363Y-106516983D01*
X108953012Y-106167302D01*
X109113953Y-105778756D01*
X109196000Y-105366279D01*
X109196000Y-104945721D01*
X116356000Y-104945721D01*
X116356000Y-105366279D01*
X116438047Y-105778756D01*
X116598988Y-106167302D01*
X116832637Y-106516983D01*
X117130017Y-106814363D01*
X117479698Y-107048012D01*
X117868244Y-107208953D01*
X118280721Y-107291000D01*
X118701279Y-107291000D01*
X119113756Y-107208953D01*
X119502302Y-107048012D01*
X119851983Y-106814363D01*
X120149363Y-106516983D01*
X120383012Y-106167302D01*
X120543953Y-105778756D01*
X120626000Y-105366279D01*
X120626000Y-104945721D01*
X120543953Y-104533244D01*
X120383012Y-104144698D01*
X120206465Y-103880475D01*
X125381000Y-103880475D01*
X125381000Y-104399525D01*
X125482261Y-104908601D01*
X125680893Y-105388141D01*
X125969262Y-105819715D01*
X126336285Y-106186738D01*
X126767859Y-106475107D01*
X127247399Y-106673739D01*
X127756475Y-106775000D01*
X128275525Y-106775000D01*
X128784601Y-106673739D01*
X129264141Y-106475107D01*
X129695715Y-106186738D01*
X130062738Y-105819715D01*
X130351107Y-105388141D01*
X130549739Y-104908601D01*
X130651000Y-104399525D01*
X130651000Y-103880475D01*
X130549739Y-103371399D01*
X130351107Y-102891859D01*
X130062738Y-102460285D01*
X129695715Y-102093262D01*
X129264141Y-101804893D01*
X128784601Y-101606261D01*
X128275525Y-101505000D01*
X127756475Y-101505000D01*
X127247399Y-101606261D01*
X126767859Y-101804893D01*
X126336285Y-102093262D01*
X125969262Y-102460285D01*
X125680893Y-102891859D01*
X125482261Y-103371399D01*
X125381000Y-103880475D01*
X120206465Y-103880475D01*
X120149363Y-103795017D01*
X119851983Y-103497637D01*
X119502302Y-103263988D01*
X119113756Y-103103047D01*
X118701279Y-103021000D01*
X118280721Y-103021000D01*
X117868244Y-103103047D01*
X117479698Y-103263988D01*
X117130017Y-103497637D01*
X116832637Y-103795017D01*
X116598988Y-104144698D01*
X116438047Y-104533244D01*
X116356000Y-104945721D01*
X109196000Y-104945721D01*
X109113953Y-104533244D01*
X108953012Y-104144698D01*
X108719363Y-103795017D01*
X108421983Y-103497637D01*
X108072302Y-103263988D01*
X107683756Y-103103047D01*
X107271279Y-103021000D01*
X106850721Y-103021000D01*
X106438244Y-103103047D01*
X106049698Y-103263988D01*
X105700017Y-103497637D01*
X105402637Y-103795017D01*
X105168988Y-104144698D01*
X105008047Y-104533244D01*
X104926000Y-104945721D01*
X97766000Y-104945721D01*
X97683953Y-104533244D01*
X97523012Y-104144698D01*
X97289363Y-103795017D01*
X96991983Y-103497637D01*
X96642302Y-103263988D01*
X96253756Y-103103047D01*
X95841279Y-103021000D01*
X95420721Y-103021000D01*
X95008244Y-103103047D01*
X94619698Y-103263988D01*
X94270017Y-103497637D01*
X93972637Y-103795017D01*
X93738988Y-104144698D01*
X93578047Y-104533244D01*
X93496000Y-104945721D01*
X86336000Y-104945721D01*
X86253953Y-104533244D01*
X86093012Y-104144698D01*
X85859363Y-103795017D01*
X85561983Y-103497637D01*
X85212302Y-103263988D01*
X84823756Y-103103047D01*
X84411279Y-103021000D01*
X83990721Y-103021000D01*
X83578244Y-103103047D01*
X83189698Y-103263988D01*
X82840017Y-103497637D01*
X82542637Y-103795017D01*
X82308988Y-104144698D01*
X82148047Y-104533244D01*
X82066000Y-104945721D01*
X74906000Y-104945721D01*
X74823953Y-104533244D01*
X74663012Y-104144698D01*
X74429363Y-103795017D01*
X74131983Y-103497637D01*
X73782302Y-103263988D01*
X73393756Y-103103047D01*
X72981279Y-103021000D01*
X72560721Y-103021000D01*
X72148244Y-103103047D01*
X71759698Y-103263988D01*
X71410017Y-103497637D01*
X71112637Y-103795017D01*
X70878988Y-104144698D01*
X70718047Y-104533244D01*
X70636000Y-104945721D01*
X63476000Y-104945721D01*
X63393953Y-104533244D01*
X63233012Y-104144698D01*
X62999363Y-103795017D01*
X62701983Y-103497637D01*
X62352302Y-103263988D01*
X61963756Y-103103047D01*
X61551279Y-103021000D01*
X61130721Y-103021000D01*
X60718244Y-103103047D01*
X60329698Y-103263988D01*
X59980017Y-103497637D01*
X59682637Y-103795017D01*
X59448988Y-104144698D01*
X59288047Y-104533244D01*
X59206000Y-104945721D01*
X48619363Y-104945721D01*
X48634739Y-104908601D01*
X48736000Y-104399525D01*
X48736000Y-103880475D01*
X48634739Y-103371399D01*
X48436107Y-102891859D01*
X48147738Y-102460285D01*
X47780715Y-102093262D01*
X47349141Y-101804893D01*
X46869601Y-101606261D01*
X46360525Y-101505000D01*
X45841475Y-101505000D01*
X45332399Y-101606261D01*
X44852859Y-101804893D01*
X44421285Y-102093262D01*
X44054262Y-102460285D01*
X43765893Y-102891859D01*
X43567261Y-103371399D01*
X43466000Y-103880475D01*
X42341000Y-103880475D01*
X42341000Y-103538504D01*
X42403738Y-102898656D01*
X42579832Y-102315405D01*
X42865856Y-101777471D01*
X43250922Y-101305333D01*
X43720359Y-100916981D01*
X44256286Y-100627206D01*
X44838291Y-100447045D01*
X45476189Y-100380000D01*
X128617496Y-100380000D01*
X129257344Y-100442738D01*
%TA.AperFunction,Conductor*%
D19*
G36*
X129257344Y-100442738D02*
G01*
X129840595Y-100618832D01*
X130378529Y-100904856D01*
X130850667Y-101289922D01*
X131239019Y-101759359D01*
X131528794Y-102295286D01*
X131708955Y-102877291D01*
X131776000Y-103515189D01*
X131776001Y-146016485D01*
X131713262Y-146656343D01*
X131537168Y-147239595D01*
X131251143Y-147777531D01*
X130866078Y-148249667D01*
X130396641Y-148638019D01*
X129860714Y-148927794D01*
X129278705Y-149107956D01*
X128640811Y-149175000D01*
X45499505Y-149175000D01*
X44859657Y-149112262D01*
X44276405Y-148936168D01*
X43738469Y-148650143D01*
X43266333Y-148265078D01*
X42877981Y-147795641D01*
X42588206Y-147259714D01*
X42408044Y-146677705D01*
X42341000Y-146039811D01*
X42341000Y-145155475D01*
X43466000Y-145155475D01*
X43466000Y-145674525D01*
X43567261Y-146183601D01*
X43765893Y-146663141D01*
X44054262Y-147094715D01*
X44421285Y-147461738D01*
X44852859Y-147750107D01*
X45332399Y-147948739D01*
X45841475Y-148050000D01*
X46360525Y-148050000D01*
X46869601Y-147948739D01*
X47349141Y-147750107D01*
X47780715Y-147461738D01*
X48147738Y-147094715D01*
X48436107Y-146663141D01*
X48634739Y-146183601D01*
X48736000Y-145674525D01*
X48736000Y-145155475D01*
X48634739Y-144646399D01*
X48498597Y-144317721D01*
X66596000Y-144317721D01*
X66596000Y-144738279D01*
X66678047Y-145150756D01*
X66838988Y-145539302D01*
X67072637Y-145888983D01*
X67370017Y-146186363D01*
X67719698Y-146420012D01*
X68108244Y-146580953D01*
X68520721Y-146663000D01*
X68941279Y-146663000D01*
X69353756Y-146580953D01*
X69742302Y-146420012D01*
X70091983Y-146186363D01*
X70389363Y-145888983D01*
X70623012Y-145539302D01*
X70783953Y-145150756D01*
X70866000Y-144738279D01*
X70866000Y-144317721D01*
X78256000Y-144317721D01*
X78256000Y-144738279D01*
X78338047Y-145150756D01*
X78498988Y-145539302D01*
X78732637Y-145888983D01*
X79030017Y-146186363D01*
X79379698Y-146420012D01*
X79768244Y-146580953D01*
X80180721Y-146663000D01*
X80601279Y-146663000D01*
X81013756Y-146580953D01*
X81402302Y-146420012D01*
X81751983Y-146186363D01*
X82049363Y-145888983D01*
X82283012Y-145539302D01*
X82443953Y-145150756D01*
X82526000Y-144738279D01*
X82526000Y-144317721D01*
X89710000Y-144317721D01*
X89710000Y-144738279D01*
X89792047Y-145150756D01*
X89952988Y-145539302D01*
X90186637Y-145888983D01*
X90484017Y-146186363D01*
X90833698Y-146420012D01*
X91222244Y-146580953D01*
X91634721Y-146663000D01*
X92055279Y-146663000D01*
X92467756Y-146580953D01*
X92856302Y-146420012D01*
X93205983Y-146186363D01*
X93503363Y-145888983D01*
X93737012Y-145539302D01*
X93897953Y-145150756D01*
X93980000Y-144738279D01*
X93980000Y-144317721D01*
X103553000Y-144317721D01*
X103553000Y-144738279D01*
X103635047Y-145150756D01*
X103795988Y-145539302D01*
X104029637Y-145888983D01*
X104327017Y-146186363D01*
X104676698Y-146420012D01*
X105065244Y-146580953D01*
X105477721Y-146663000D01*
X105898279Y-146663000D01*
X106310756Y-146580953D01*
X106699302Y-146420012D01*
X107048983Y-146186363D01*
X107346363Y-145888983D01*
X107580012Y-145539302D01*
X107740953Y-145150756D01*
X107823000Y-144738279D01*
X107823000Y-144317721D01*
X115491000Y-144317721D01*
X115491000Y-144738279D01*
X115573047Y-145150756D01*
X115733988Y-145539302D01*
X115967637Y-145888983D01*
X116265017Y-146186363D01*
X116614698Y-146420012D01*
X117003244Y-146580953D01*
X117415721Y-146663000D01*
X117836279Y-146663000D01*
X118248756Y-146580953D01*
X118637302Y-146420012D01*
X118986983Y-146186363D01*
X119284363Y-145888983D01*
X119518012Y-145539302D01*
X119676998Y-145155475D01*
X125381000Y-145155475D01*
X125381000Y-145674525D01*
X125482261Y-146183601D01*
X125680893Y-146663141D01*
X125969262Y-147094715D01*
X126336285Y-147461738D01*
X126767859Y-147750107D01*
X127247399Y-147948739D01*
X127756475Y-148050000D01*
X128275525Y-148050000D01*
X128784601Y-147948739D01*
X129264141Y-147750107D01*
X129695715Y-147461738D01*
X130062738Y-147094715D01*
X130351107Y-146663141D01*
X130549739Y-146183601D01*
X130651000Y-145674525D01*
X130651000Y-145155475D01*
X130549739Y-144646399D01*
X130351107Y-144166859D01*
X130062738Y-143735285D01*
X129695715Y-143368262D01*
X129264141Y-143079893D01*
X128784601Y-142881261D01*
X128275525Y-142780000D01*
X127756475Y-142780000D01*
X127247399Y-142881261D01*
X126767859Y-143079893D01*
X126336285Y-143368262D01*
X125969262Y-143735285D01*
X125680893Y-144166859D01*
X125482261Y-144646399D01*
X125381000Y-145155475D01*
X119676998Y-145155475D01*
X119678953Y-145150756D01*
X119761000Y-144738279D01*
X119761000Y-144317721D01*
X119678953Y-143905244D01*
X119518012Y-143516698D01*
X119284363Y-143167017D01*
X118986983Y-142869637D01*
X118637302Y-142635988D01*
X118248756Y-142475047D01*
X117836279Y-142393000D01*
X117415721Y-142393000D01*
X117003244Y-142475047D01*
X116614698Y-142635988D01*
X116265017Y-142869637D01*
X115967637Y-143167017D01*
X115733988Y-143516698D01*
X115573047Y-143905244D01*
X115491000Y-144317721D01*
X107823000Y-144317721D01*
X107740953Y-143905244D01*
X107580012Y-143516698D01*
X107346363Y-143167017D01*
X107048983Y-142869637D01*
X106699302Y-142635988D01*
X106310756Y-142475047D01*
X105898279Y-142393000D01*
X105477721Y-142393000D01*
X105065244Y-142475047D01*
X104676698Y-142635988D01*
X104327017Y-142869637D01*
X104029637Y-143167017D01*
X103795988Y-143516698D01*
X103635047Y-143905244D01*
X103553000Y-144317721D01*
X93980000Y-144317721D01*
X93897953Y-143905244D01*
X93737012Y-143516698D01*
X93503363Y-143167017D01*
X93205983Y-142869637D01*
X92856302Y-142635988D01*
X92467756Y-142475047D01*
X92055279Y-142393000D01*
X91634721Y-142393000D01*
X91222244Y-142475047D01*
X90833698Y-142635988D01*
X90484017Y-142869637D01*
X90186637Y-143167017D01*
X89952988Y-143516698D01*
X89792047Y-143905244D01*
X89710000Y-144317721D01*
X82526000Y-144317721D01*
X82443953Y-143905244D01*
X82283012Y-143516698D01*
X82049363Y-143167017D01*
X81751983Y-142869637D01*
X81402302Y-142635988D01*
X81013756Y-142475047D01*
X80601279Y-142393000D01*
X80180721Y-142393000D01*
X79768244Y-142475047D01*
X79379698Y-142635988D01*
X79030017Y-142869637D01*
X78732637Y-143167017D01*
X78498988Y-143516698D01*
X78338047Y-143905244D01*
X78256000Y-144317721D01*
X70866000Y-144317721D01*
X70783953Y-143905244D01*
X70623012Y-143516698D01*
X70389363Y-143167017D01*
X70091983Y-142869637D01*
X69742302Y-142635988D01*
X69353756Y-142475047D01*
X68941279Y-142393000D01*
X68520721Y-142393000D01*
X68108244Y-142475047D01*
X67719698Y-142635988D01*
X67370017Y-142869637D01*
X67072637Y-143167017D01*
X66838988Y-143516698D01*
X66678047Y-143905244D01*
X66596000Y-144317721D01*
X48498597Y-144317721D01*
X48436107Y-144166859D01*
X48147738Y-143735285D01*
X47780715Y-143368262D01*
X47349141Y-143079893D01*
X46869601Y-142881261D01*
X46360525Y-142780000D01*
X45841475Y-142780000D01*
X45332399Y-142881261D01*
X44852859Y-143079893D01*
X44421285Y-143368262D01*
X44054262Y-143735285D01*
X43765893Y-144166859D01*
X43567261Y-144646399D01*
X43466000Y-145155475D01*
X42341000Y-145155475D01*
X42341000Y-139879963D01*
X65846000Y-139879963D01*
X65846000Y-140536036D01*
X65866040Y-140739506D01*
X65945236Y-141000580D01*
X66073843Y-141241187D01*
X66246919Y-141452080D01*
X66457812Y-141625157D01*
X66698419Y-141753764D01*
X66959493Y-141832960D01*
X67231000Y-141859701D01*
X67502506Y-141832960D01*
X67763580Y-141753764D01*
X68004187Y-141625157D01*
X68215080Y-141452081D01*
X68388157Y-141241188D01*
X68516764Y-141000581D01*
X68595960Y-140739507D01*
X68616000Y-140536037D01*
X68616000Y-139879964D01*
X68595960Y-139676494D01*
X68526648Y-139448000D01*
X68842928Y-139448000D01*
X68842928Y-140968000D01*
X68859992Y-141141254D01*
X68910528Y-141307850D01*
X68992595Y-141461386D01*
X69103038Y-141595962D01*
X69237614Y-141706405D01*
X69391150Y-141788472D01*
X69557746Y-141839008D01*
X69731000Y-141856072D01*
X70731000Y-141856072D01*
X70904254Y-141839008D01*
X71070850Y-141788472D01*
X71224386Y-141706405D01*
X71358962Y-141595962D01*
X71469405Y-141461386D01*
X71551472Y-141307850D01*
X71602008Y-141141254D01*
X71619072Y-140968000D01*
X71619072Y-139879963D01*
X77506000Y-139879963D01*
X77506000Y-140536036D01*
X77526040Y-140739506D01*
X77605236Y-141000580D01*
X77733843Y-141241187D01*
X77906919Y-141452080D01*
X78117812Y-141625157D01*
X78358419Y-141753764D01*
X78619493Y-141832960D01*
X78891000Y-141859701D01*
X79162506Y-141832960D01*
X79423580Y-141753764D01*
X79664187Y-141625157D01*
X79875080Y-141452081D01*
X80048157Y-141241188D01*
X80176764Y-141000581D01*
X80255960Y-140739507D01*
X80276000Y-140536037D01*
X80276000Y-139879964D01*
X80255960Y-139676494D01*
X80186648Y-139448000D01*
X80502928Y-139448000D01*
X80502928Y-140968000D01*
X80519992Y-141141254D01*
X80570528Y-141307850D01*
X80652595Y-141461386D01*
X80763038Y-141595962D01*
X80897614Y-141706405D01*
X81051150Y-141788472D01*
X81217746Y-141839008D01*
X81391000Y-141856072D01*
X82391000Y-141856072D01*
X82564254Y-141839008D01*
X82730850Y-141788472D01*
X82884386Y-141706405D01*
X83018962Y-141595962D01*
X83129405Y-141461386D01*
X83211472Y-141307850D01*
X83262008Y-141141254D01*
X83279072Y-140968000D01*
X83279072Y-139879963D01*
X88960000Y-139879963D01*
X88960000Y-140536036D01*
X88980040Y-140739506D01*
X89059236Y-141000580D01*
X89187843Y-141241187D01*
X89360919Y-141452080D01*
X89571812Y-141625157D01*
X89812419Y-141753764D01*
X90073493Y-141832960D01*
X90345000Y-141859701D01*
X90616506Y-141832960D01*
X90877580Y-141753764D01*
X91118187Y-141625157D01*
X91329080Y-141452081D01*
X91502157Y-141241188D01*
X91630764Y-141000581D01*
X91709960Y-140739507D01*
X91730000Y-140536037D01*
X91730000Y-139879964D01*
X91709960Y-139676494D01*
X91640648Y-139448000D01*
X91956928Y-139448000D01*
X91956928Y-140968000D01*
X91973992Y-141141254D01*
X92024528Y-141307850D01*
X92106595Y-141461386D01*
X92217038Y-141595962D01*
X92351614Y-141706405D01*
X92505150Y-141788472D01*
X92671746Y-141839008D01*
X92845000Y-141856072D01*
X93845000Y-141856072D01*
X94018254Y-141839008D01*
X94184850Y-141788472D01*
X94338386Y-141706405D01*
X94472962Y-141595962D01*
X94583405Y-141461386D01*
X94665472Y-141307850D01*
X94716008Y-141141254D01*
X94733072Y-140968000D01*
X94733072Y-139879963D01*
X102803000Y-139879963D01*
X102803000Y-140536036D01*
X102823040Y-140739506D01*
X102902236Y-141000580D01*
X103030843Y-141241187D01*
X103203919Y-141452080D01*
X103414812Y-141625157D01*
X103655419Y-141753764D01*
X103916493Y-141832960D01*
X104188000Y-141859701D01*
X104459506Y-141832960D01*
X104720580Y-141753764D01*
X104961187Y-141625157D01*
X105172080Y-141452081D01*
X105345157Y-141241188D01*
X105473764Y-141000581D01*
X105552960Y-140739507D01*
X105573000Y-140536037D01*
X105573000Y-139879964D01*
X105552960Y-139676494D01*
X105483648Y-139448000D01*
X105799928Y-139448000D01*
X105799928Y-140968000D01*
X105816992Y-141141254D01*
X105867528Y-141307850D01*
X105949595Y-141461386D01*
X106060038Y-141595962D01*
X106194614Y-141706405D01*
X106348150Y-141788472D01*
X106514746Y-141839008D01*
X106688000Y-141856072D01*
X107688000Y-141856072D01*
X107861254Y-141839008D01*
X108027850Y-141788472D01*
X108181386Y-141706405D01*
X108315962Y-141595962D01*
X108426405Y-141461386D01*
X108508472Y-141307850D01*
X108559008Y-141141254D01*
X108576072Y-140968000D01*
X108576072Y-139879963D01*
X114741000Y-139879963D01*
X114741000Y-140536036D01*
X114761040Y-140739506D01*
X114840236Y-141000580D01*
X114968843Y-141241187D01*
X115141919Y-141452080D01*
X115352812Y-141625157D01*
X115593419Y-141753764D01*
X115854493Y-141832960D01*
X116126000Y-141859701D01*
X116397506Y-141832960D01*
X116658580Y-141753764D01*
X116899187Y-141625157D01*
X117110080Y-141452081D01*
X117283157Y-141241188D01*
X117411764Y-141000581D01*
X117490960Y-140739507D01*
X117511000Y-140536037D01*
X117511000Y-139879964D01*
X117490960Y-139676494D01*
X117421648Y-139448000D01*
X117737928Y-139448000D01*
X117737928Y-140968000D01*
X117754992Y-141141254D01*
X117805528Y-141307850D01*
X117887595Y-141461386D01*
X117998038Y-141595962D01*
X118132614Y-141706405D01*
X118286150Y-141788472D01*
X118452746Y-141839008D01*
X118626000Y-141856072D01*
X119626000Y-141856072D01*
X119799254Y-141839008D01*
X119965850Y-141788472D01*
X120119386Y-141706405D01*
X120253962Y-141595962D01*
X120364405Y-141461386D01*
X120446472Y-141307850D01*
X120497008Y-141141254D01*
X120514072Y-140968000D01*
X120514072Y-139448000D01*
X120497008Y-139274746D01*
X120446472Y-139108150D01*
X120364405Y-138954614D01*
X120253962Y-138820038D01*
X120119386Y-138709595D01*
X119965850Y-138627528D01*
X119799254Y-138576992D01*
X119626000Y-138559928D01*
X118626000Y-138559928D01*
X118452746Y-138576992D01*
X118286150Y-138627528D01*
X118132614Y-138709595D01*
X117998038Y-138820038D01*
X117887595Y-138954614D01*
X117805528Y-139108150D01*
X117754992Y-139274746D01*
X117737928Y-139448000D01*
X117421648Y-139448000D01*
X117411764Y-139415419D01*
X117283157Y-139174812D01*
X117110081Y-138963919D01*
X116899188Y-138790843D01*
X116658581Y-138662236D01*
X116397507Y-138583040D01*
X116126000Y-138556299D01*
X115854494Y-138583040D01*
X115593420Y-138662236D01*
X115352813Y-138790843D01*
X115141920Y-138963919D01*
X114968843Y-139174812D01*
X114840236Y-139415419D01*
X114761040Y-139676493D01*
X114741000Y-139879963D01*
X108576072Y-139879963D01*
X108576072Y-139448000D01*
X108559008Y-139274746D01*
X108508472Y-139108150D01*
X108426405Y-138954614D01*
X108315962Y-138820038D01*
X108181386Y-138709595D01*
X108027850Y-138627528D01*
X107861254Y-138576992D01*
X107688000Y-138559928D01*
X106688000Y-138559928D01*
X106514746Y-138576992D01*
X106348150Y-138627528D01*
X106194614Y-138709595D01*
X106060038Y-138820038D01*
X105949595Y-138954614D01*
X105867528Y-139108150D01*
X105816992Y-139274746D01*
X105799928Y-139448000D01*
X105483648Y-139448000D01*
X105473764Y-139415419D01*
X105345157Y-139174812D01*
X105172081Y-138963919D01*
X104961188Y-138790843D01*
X104720581Y-138662236D01*
X104459507Y-138583040D01*
X104188000Y-138556299D01*
X103916494Y-138583040D01*
X103655420Y-138662236D01*
X103414813Y-138790843D01*
X103203920Y-138963919D01*
X103030843Y-139174812D01*
X102902236Y-139415419D01*
X102823040Y-139676493D01*
X102803000Y-139879963D01*
X94733072Y-139879963D01*
X94733072Y-139448000D01*
X94716008Y-139274746D01*
X94665472Y-139108150D01*
X94583405Y-138954614D01*
X94472962Y-138820038D01*
X94338386Y-138709595D01*
X94184850Y-138627528D01*
X94018254Y-138576992D01*
X93845000Y-138559928D01*
X92845000Y-138559928D01*
X92671746Y-138576992D01*
X92505150Y-138627528D01*
X92351614Y-138709595D01*
X92217038Y-138820038D01*
X92106595Y-138954614D01*
X92024528Y-139108150D01*
X91973992Y-139274746D01*
X91956928Y-139448000D01*
X91640648Y-139448000D01*
X91630764Y-139415419D01*
X91502157Y-139174812D01*
X91329081Y-138963919D01*
X91118188Y-138790843D01*
X90877581Y-138662236D01*
X90616507Y-138583040D01*
X90345000Y-138556299D01*
X90073494Y-138583040D01*
X89812420Y-138662236D01*
X89571813Y-138790843D01*
X89360920Y-138963919D01*
X89187843Y-139174812D01*
X89059236Y-139415419D01*
X88980040Y-139676493D01*
X88960000Y-139879963D01*
X83279072Y-139879963D01*
X83279072Y-139448000D01*
X83262008Y-139274746D01*
X83211472Y-139108150D01*
X83129405Y-138954614D01*
X83018962Y-138820038D01*
X82884386Y-138709595D01*
X82730850Y-138627528D01*
X82564254Y-138576992D01*
X82391000Y-138559928D01*
X81391000Y-138559928D01*
X81217746Y-138576992D01*
X81051150Y-138627528D01*
X80897614Y-138709595D01*
X80763038Y-138820038D01*
X80652595Y-138954614D01*
X80570528Y-139108150D01*
X80519992Y-139274746D01*
X80502928Y-139448000D01*
X80186648Y-139448000D01*
X80176764Y-139415419D01*
X80048157Y-139174812D01*
X79875081Y-138963919D01*
X79664188Y-138790843D01*
X79423581Y-138662236D01*
X79162507Y-138583040D01*
X78891000Y-138556299D01*
X78619494Y-138583040D01*
X78358420Y-138662236D01*
X78117813Y-138790843D01*
X77906920Y-138963919D01*
X77733843Y-139174812D01*
X77605236Y-139415419D01*
X77526040Y-139676493D01*
X77506000Y-139879963D01*
X71619072Y-139879963D01*
X71619072Y-139448000D01*
X71602008Y-139274746D01*
X71551472Y-139108150D01*
X71469405Y-138954614D01*
X71358962Y-138820038D01*
X71224386Y-138709595D01*
X71070850Y-138627528D01*
X70904254Y-138576992D01*
X70731000Y-138559928D01*
X69731000Y-138559928D01*
X69557746Y-138576992D01*
X69391150Y-138627528D01*
X69237614Y-138709595D01*
X69103038Y-138820038D01*
X68992595Y-138954614D01*
X68910528Y-139108150D01*
X68859992Y-139274746D01*
X68842928Y-139448000D01*
X68526648Y-139448000D01*
X68516764Y-139415419D01*
X68388157Y-139174812D01*
X68215081Y-138963919D01*
X68004188Y-138790843D01*
X67763581Y-138662236D01*
X67502507Y-138583040D01*
X67231000Y-138556299D01*
X66959494Y-138583040D01*
X66698420Y-138662236D01*
X66457813Y-138790843D01*
X66246920Y-138963919D01*
X66073843Y-139174812D01*
X65945236Y-139415419D01*
X65866040Y-139676493D01*
X65846000Y-139879963D01*
X42341000Y-139879963D01*
X42341000Y-128465555D01*
X67600000Y-128465555D01*
X67600000Y-128864445D01*
X67677820Y-129255671D01*
X67830468Y-129624197D01*
X68052080Y-129955862D01*
X68334138Y-130237920D01*
X68665803Y-130459532D01*
X69034329Y-130612180D01*
X69425555Y-130690000D01*
X69824445Y-130690000D01*
X70215671Y-130612180D01*
X70584197Y-130459532D01*
X70915862Y-130237920D01*
X71197920Y-129955862D01*
X71325000Y-129765674D01*
X71452080Y-129955862D01*
X71734138Y-130237920D01*
X72065803Y-130459532D01*
X72434329Y-130612180D01*
X72825555Y-130690000D01*
X73224445Y-130690000D01*
X73615671Y-130612180D01*
X73984197Y-130459532D01*
X74315862Y-130237920D01*
X74597920Y-129955862D01*
X74819532Y-129624197D01*
X74972180Y-129255671D01*
X75050000Y-128864445D01*
X75050000Y-128465555D01*
X76490000Y-128465555D01*
X76490000Y-128864445D01*
X76567820Y-129255671D01*
X76720468Y-129624197D01*
X76942080Y-129955862D01*
X77224138Y-130237920D01*
X77555803Y-130459532D01*
X77924329Y-130612180D01*
X78315555Y-130690000D01*
X78714445Y-130690000D01*
X79105671Y-130612180D01*
X79474197Y-130459532D01*
X79805862Y-130237920D01*
X80087920Y-129955862D01*
X80215000Y-129765674D01*
X80342080Y-129955862D01*
X80624138Y-130237920D01*
X80955803Y-130459532D01*
X81324329Y-130612180D01*
X81715555Y-130690000D01*
X82114445Y-130690000D01*
X82505671Y-130612180D01*
X82874197Y-130459532D01*
X83205862Y-130237920D01*
X83487920Y-129955862D01*
X83709532Y-129624197D01*
X83862180Y-129255671D01*
X83940000Y-128864445D01*
X83940000Y-128592555D01*
X85380000Y-128592555D01*
X85380000Y-128991445D01*
X85457820Y-129382671D01*
X85610468Y-129751197D01*
X85832080Y-130082862D01*
X86114138Y-130364920D01*
X86445803Y-130586532D01*
X86814329Y-130739180D01*
X87205555Y-130817000D01*
X87604445Y-130817000D01*
X87995671Y-130739180D01*
X88364197Y-130586532D01*
X88695862Y-130364920D01*
X88977920Y-130082862D01*
X89105000Y-129892674D01*
X89232080Y-130082862D01*
X89514138Y-130364920D01*
X89845803Y-130586532D01*
X90214329Y-130739180D01*
X90605555Y-130817000D01*
X91004445Y-130817000D01*
X91395671Y-130739180D01*
X91764197Y-130586532D01*
X92095862Y-130364920D01*
X92377920Y-130082862D01*
X92599532Y-129751197D01*
X92752180Y-129382671D01*
X92830000Y-128991445D01*
X92830000Y-128592555D01*
X92804739Y-128465555D01*
X94270000Y-128465555D01*
X94270000Y-128864445D01*
X94347820Y-129255671D01*
X94500468Y-129624197D01*
X94722080Y-129955862D01*
X95004138Y-130237920D01*
X95335803Y-130459532D01*
X95704329Y-130612180D01*
X96095555Y-130690000D01*
X96494445Y-130690000D01*
X96885671Y-130612180D01*
X97254197Y-130459532D01*
X97585862Y-130237920D01*
X97867920Y-129955862D01*
X97995000Y-129765674D01*
X98122080Y-129955862D01*
X98404138Y-130237920D01*
X98735803Y-130459532D01*
X99104329Y-130612180D01*
X99495555Y-130690000D01*
X99894445Y-130690000D01*
X100285671Y-130612180D01*
X100654197Y-130459532D01*
X100985862Y-130237920D01*
X101267920Y-129955862D01*
X101489532Y-129624197D01*
X101642180Y-129255671D01*
X101720000Y-128864445D01*
X101720000Y-128465555D01*
X103160000Y-128465555D01*
X103160000Y-128864445D01*
X103237820Y-129255671D01*
X103390468Y-129624197D01*
X103612080Y-129955862D01*
X103894138Y-130237920D01*
X104225803Y-130459532D01*
X104594329Y-130612180D01*
X104985555Y-130690000D01*
X105384445Y-130690000D01*
X105775671Y-130612180D01*
X106144197Y-130459532D01*
X106475862Y-130237920D01*
X106757920Y-129955862D01*
X106885000Y-129765674D01*
X107012080Y-129955862D01*
X107294138Y-130237920D01*
X107625803Y-130459532D01*
X107994329Y-130612180D01*
X108385555Y-130690000D01*
X108784445Y-130690000D01*
X109175671Y-130612180D01*
X109544197Y-130459532D01*
X109875862Y-130237920D01*
X110157920Y-129955862D01*
X110379532Y-129624197D01*
X110532180Y-129255671D01*
X110610000Y-128864445D01*
X110610000Y-128465555D01*
X110532180Y-128074329D01*
X110379532Y-127705803D01*
X110157920Y-127374138D01*
X109875862Y-127092080D01*
X109544197Y-126870468D01*
X109175671Y-126717820D01*
X108784445Y-126640000D01*
X108385555Y-126640000D01*
X107994329Y-126717820D01*
X107625803Y-126870468D01*
X107294138Y-127092080D01*
X107012080Y-127374138D01*
X106885000Y-127564326D01*
X106757920Y-127374138D01*
X106475862Y-127092080D01*
X106144197Y-126870468D01*
X105775671Y-126717820D01*
X105384445Y-126640000D01*
X104985555Y-126640000D01*
X104594329Y-126717820D01*
X104225803Y-126870468D01*
X103894138Y-127092080D01*
X103612080Y-127374138D01*
X103390468Y-127705803D01*
X103237820Y-128074329D01*
X103160000Y-128465555D01*
X101720000Y-128465555D01*
X101642180Y-128074329D01*
X101489532Y-127705803D01*
X101267920Y-127374138D01*
X100985862Y-127092080D01*
X100654197Y-126870468D01*
X100285671Y-126717820D01*
X99894445Y-126640000D01*
X99495555Y-126640000D01*
X99104329Y-126717820D01*
X98735803Y-126870468D01*
X98404138Y-127092080D01*
X98122080Y-127374138D01*
X97995000Y-127564326D01*
X97867920Y-127374138D01*
X97585862Y-127092080D01*
X97254197Y-126870468D01*
X96885671Y-126717820D01*
X96494445Y-126640000D01*
X96095555Y-126640000D01*
X95704329Y-126717820D01*
X95335803Y-126870468D01*
X95004138Y-127092080D01*
X94722080Y-127374138D01*
X94500468Y-127705803D01*
X94347820Y-128074329D01*
X94270000Y-128465555D01*
X92804739Y-128465555D01*
X92752180Y-128201329D01*
X92599532Y-127832803D01*
X92377920Y-127501138D01*
X92095862Y-127219080D01*
X91764197Y-126997468D01*
X91395671Y-126844820D01*
X91004445Y-126767000D01*
X90605555Y-126767000D01*
X90214329Y-126844820D01*
X89845803Y-126997468D01*
X89514138Y-127219080D01*
X89232080Y-127501138D01*
X89105000Y-127691326D01*
X88977920Y-127501138D01*
X88695862Y-127219080D01*
X88364197Y-126997468D01*
X87995671Y-126844820D01*
X87604445Y-126767000D01*
X87205555Y-126767000D01*
X86814329Y-126844820D01*
X86445803Y-126997468D01*
X86114138Y-127219080D01*
X85832080Y-127501138D01*
X85610468Y-127832803D01*
X85457820Y-128201329D01*
X85380000Y-128592555D01*
X83940000Y-128592555D01*
X83940000Y-128465555D01*
X83862180Y-128074329D01*
X83709532Y-127705803D01*
X83487920Y-127374138D01*
X83205862Y-127092080D01*
X82874197Y-126870468D01*
X82505671Y-126717820D01*
X82114445Y-126640000D01*
X81715555Y-126640000D01*
X81324329Y-126717820D01*
X80955803Y-126870468D01*
X80624138Y-127092080D01*
X80342080Y-127374138D01*
X80215000Y-127564326D01*
X80087920Y-127374138D01*
X79805862Y-127092080D01*
X79474197Y-126870468D01*
X79105671Y-126717820D01*
X78714445Y-126640000D01*
X78315555Y-126640000D01*
X77924329Y-126717820D01*
X77555803Y-126870468D01*
X77224138Y-127092080D01*
X76942080Y-127374138D01*
X76720468Y-127705803D01*
X76567820Y-128074329D01*
X76490000Y-128465555D01*
X75050000Y-128465555D01*
X74972180Y-128074329D01*
X74819532Y-127705803D01*
X74597920Y-127374138D01*
X74315862Y-127092080D01*
X73984197Y-126870468D01*
X73615671Y-126717820D01*
X73224445Y-126640000D01*
X72825555Y-126640000D01*
X72434329Y-126717820D01*
X72065803Y-126870468D01*
X71734138Y-127092080D01*
X71452080Y-127374138D01*
X71325000Y-127564326D01*
X71197920Y-127374138D01*
X70915862Y-127092080D01*
X70584197Y-126870468D01*
X70215671Y-126717820D01*
X69824445Y-126640000D01*
X69425555Y-126640000D01*
X69034329Y-126717820D01*
X68665803Y-126870468D01*
X68334138Y-127092080D01*
X68052080Y-127374138D01*
X67830468Y-127705803D01*
X67677820Y-128074329D01*
X67600000Y-128465555D01*
X42341000Y-128465555D01*
X42341000Y-123299796D01*
X51856000Y-123299796D01*
X51856000Y-123730204D01*
X51939969Y-124152341D01*
X52104678Y-124549985D01*
X52343800Y-124907856D01*
X52648144Y-125212200D01*
X53006015Y-125451322D01*
X53403659Y-125616031D01*
X53825796Y-125700000D01*
X54256204Y-125700000D01*
X54678341Y-125616031D01*
X55075985Y-125451322D01*
X55433856Y-125212200D01*
X55738200Y-124907856D01*
X55977322Y-124549985D01*
X56142031Y-124152341D01*
X56226000Y-123730204D01*
X56226000Y-123299796D01*
X56142031Y-122877659D01*
X55977322Y-122480015D01*
X55738200Y-122122144D01*
X55433856Y-121817800D01*
X55075985Y-121578678D01*
X54678341Y-121413969D01*
X54256204Y-121330000D01*
X53825796Y-121330000D01*
X53403659Y-121413969D01*
X53006015Y-121578678D01*
X52648144Y-121817800D01*
X52343800Y-122122144D01*
X52104678Y-122480015D01*
X51939969Y-122877659D01*
X51856000Y-123299796D01*
X42341000Y-123299796D01*
X42341000Y-120721661D01*
X59548259Y-120721661D01*
X59593760Y-121070319D01*
X59706406Y-121403400D01*
X59818910Y-121613882D01*
X60098651Y-121727744D01*
X61161395Y-120665000D01*
X60098651Y-119602256D01*
X59818910Y-119716118D01*
X59663039Y-120031296D01*
X59571651Y-120370826D01*
X59548259Y-120721661D01*
X42341000Y-120721661D01*
X42341000Y-111355998D01*
X53985881Y-111355998D01*
X54022275Y-111725522D01*
X54130062Y-112080846D01*
X54305098Y-112408315D01*
X54481628Y-112623418D01*
X54481631Y-112623421D01*
X54540656Y-112695343D01*
X54612577Y-112754367D01*
X60816332Y-118958123D01*
X60602600Y-119030406D01*
X60392118Y-119142910D01*
X60278256Y-119422651D01*
X61341000Y-120485395D01*
X61355143Y-120471253D01*
X61534748Y-120650858D01*
X61520605Y-120665000D01*
X61534748Y-120679143D01*
X61355143Y-120858748D01*
X61341000Y-120844605D01*
X60278256Y-121907349D01*
X60392118Y-122187090D01*
X60707296Y-122342961D01*
X61046826Y-122434349D01*
X61397661Y-122457741D01*
X61746319Y-122412240D01*
X62056002Y-122307507D01*
X62056002Y-122984205D01*
X60463280Y-124576928D01*
X60191000Y-124576928D01*
X60066518Y-124589188D01*
X59946820Y-124625498D01*
X59836506Y-124684463D01*
X59739815Y-124763815D01*
X59660463Y-124860506D01*
X59601498Y-124970820D01*
X59565188Y-125090518D01*
X59552928Y-125215000D01*
X59552928Y-125765862D01*
X59483275Y-125995476D01*
X59446881Y-126365000D01*
X59483275Y-126734524D01*
X59552928Y-126964138D01*
X59552928Y-127515000D01*
X59565188Y-127639482D01*
X59601498Y-127759180D01*
X59660463Y-127869494D01*
X59739815Y-127966185D01*
X59836506Y-128045537D01*
X59946820Y-128104502D01*
X60066518Y-128140812D01*
X60191000Y-128153072D01*
X60741862Y-128153072D01*
X60971476Y-128222725D01*
X61341000Y-128259119D01*
X61710524Y-128222725D01*
X61940138Y-128153072D01*
X62491000Y-128153072D01*
X62615482Y-128140812D01*
X62735180Y-128104502D01*
X62845494Y-128045537D01*
X62942185Y-127966185D01*
X63021537Y-127869494D01*
X63080502Y-127759180D01*
X63116812Y-127639482D01*
X63129072Y-127515000D01*
X63129072Y-127242720D01*
X65208424Y-125163369D01*
X65280346Y-125104344D01*
X65389927Y-124970820D01*
X65515904Y-124817316D01*
X65644394Y-124576928D01*
X65690940Y-124489847D01*
X65798726Y-124134523D01*
X65826001Y-123857596D01*
X65835121Y-123764999D01*
X65826001Y-123672402D01*
X65826001Y-119509588D01*
X65835120Y-119416999D01*
X65826001Y-119324410D01*
X65826001Y-119324402D01*
X65798726Y-119047475D01*
X65690940Y-118692151D01*
X65612583Y-118545555D01*
X67600000Y-118545555D01*
X67600000Y-118944445D01*
X67677820Y-119335671D01*
X67830468Y-119704197D01*
X68052080Y-120035862D01*
X68334138Y-120317920D01*
X68665803Y-120539532D01*
X69034329Y-120692180D01*
X69425555Y-120770000D01*
X69824445Y-120770000D01*
X70215671Y-120692180D01*
X70584197Y-120539532D01*
X70915862Y-120317920D01*
X71197920Y-120035862D01*
X71325000Y-119845674D01*
X71452080Y-120035862D01*
X71734138Y-120317920D01*
X72065803Y-120539532D01*
X72434329Y-120692180D01*
X72825555Y-120770000D01*
X73224445Y-120770000D01*
X73615671Y-120692180D01*
X73984197Y-120539532D01*
X74315862Y-120317920D01*
X74597920Y-120035862D01*
X74819532Y-119704197D01*
X74972180Y-119335671D01*
X75050000Y-118944445D01*
X75050000Y-118545555D01*
X76490000Y-118545555D01*
X76490000Y-118944445D01*
X76567820Y-119335671D01*
X76720468Y-119704197D01*
X76942080Y-120035862D01*
X77224138Y-120317920D01*
X77555803Y-120539532D01*
X77924329Y-120692180D01*
X78315555Y-120770000D01*
X78714445Y-120770000D01*
X79105671Y-120692180D01*
X79474197Y-120539532D01*
X79805862Y-120317920D01*
X80087920Y-120035862D01*
X80215000Y-119845674D01*
X80342080Y-120035862D01*
X80624138Y-120317920D01*
X80955803Y-120539532D01*
X81324329Y-120692180D01*
X81715555Y-120770000D01*
X82114445Y-120770000D01*
X82505671Y-120692180D01*
X82874197Y-120539532D01*
X83205862Y-120317920D01*
X83487920Y-120035862D01*
X83709532Y-119704197D01*
X83862180Y-119335671D01*
X83940000Y-118944445D01*
X83940000Y-118672555D01*
X85380000Y-118672555D01*
X85380000Y-119071445D01*
X85457820Y-119462671D01*
X85610468Y-119831197D01*
X85832080Y-120162862D01*
X86114138Y-120444920D01*
X86445803Y-120666532D01*
X86814329Y-120819180D01*
X87205555Y-120897000D01*
X87604445Y-120897000D01*
X87995671Y-120819180D01*
X88364197Y-120666532D01*
X88695862Y-120444920D01*
X88977920Y-120162862D01*
X89105000Y-119972674D01*
X89232080Y-120162862D01*
X89514138Y-120444920D01*
X89845803Y-120666532D01*
X90214329Y-120819180D01*
X90605555Y-120897000D01*
X91004445Y-120897000D01*
X91395671Y-120819180D01*
X91764197Y-120666532D01*
X92095862Y-120444920D01*
X92377920Y-120162862D01*
X92599532Y-119831197D01*
X92752180Y-119462671D01*
X92830000Y-119071445D01*
X92830000Y-118672555D01*
X92804739Y-118545555D01*
X94270000Y-118545555D01*
X94270000Y-118944445D01*
X94347820Y-119335671D01*
X94500468Y-119704197D01*
X94722080Y-120035862D01*
X95004138Y-120317920D01*
X95335803Y-120539532D01*
X95704329Y-120692180D01*
X96095555Y-120770000D01*
X96494445Y-120770000D01*
X96885671Y-120692180D01*
X97254197Y-120539532D01*
X97585862Y-120317920D01*
X97867920Y-120035862D01*
X97995000Y-119845674D01*
X98122080Y-120035862D01*
X98404138Y-120317920D01*
X98735803Y-120539532D01*
X99104329Y-120692180D01*
X99495555Y-120770000D01*
X99894445Y-120770000D01*
X100285671Y-120692180D01*
X100654197Y-120539532D01*
X100985862Y-120317920D01*
X101267920Y-120035862D01*
X101489532Y-119704197D01*
X101642180Y-119335671D01*
X101720000Y-118944445D01*
X101720000Y-118545555D01*
X103160000Y-118545555D01*
X103160000Y-118944445D01*
X103237820Y-119335671D01*
X103390468Y-119704197D01*
X103612080Y-120035862D01*
X103894138Y-120317920D01*
X104225803Y-120539532D01*
X104594329Y-120692180D01*
X104985555Y-120770000D01*
X105384445Y-120770000D01*
X105775671Y-120692180D01*
X106144197Y-120539532D01*
X106475862Y-120317920D01*
X106757920Y-120035862D01*
X106885000Y-119845674D01*
X107012080Y-120035862D01*
X107294138Y-120317920D01*
X107625803Y-120539532D01*
X107994329Y-120692180D01*
X108385555Y-120770000D01*
X108784445Y-120770000D01*
X109175671Y-120692180D01*
X109544197Y-120539532D01*
X109875862Y-120317920D01*
X110157920Y-120035862D01*
X110379532Y-119704197D01*
X110532180Y-119335671D01*
X110610000Y-118944445D01*
X110610000Y-118545555D01*
X110532180Y-118154329D01*
X110379532Y-117785803D01*
X110157920Y-117454138D01*
X109875862Y-117172080D01*
X109544197Y-116950468D01*
X109175671Y-116797820D01*
X108784445Y-116720000D01*
X108385555Y-116720000D01*
X107994329Y-116797820D01*
X107625803Y-116950468D01*
X107294138Y-117172080D01*
X107012080Y-117454138D01*
X106885000Y-117644326D01*
X106757920Y-117454138D01*
X106475862Y-117172080D01*
X106144197Y-116950468D01*
X105775671Y-116797820D01*
X105384445Y-116720000D01*
X104985555Y-116720000D01*
X104594329Y-116797820D01*
X104225803Y-116950468D01*
X103894138Y-117172080D01*
X103612080Y-117454138D01*
X103390468Y-117785803D01*
X103237820Y-118154329D01*
X103160000Y-118545555D01*
X101720000Y-118545555D01*
X101642180Y-118154329D01*
X101489532Y-117785803D01*
X101267920Y-117454138D01*
X100985862Y-117172080D01*
X100654197Y-116950468D01*
X100285671Y-116797820D01*
X99894445Y-116720000D01*
X99495555Y-116720000D01*
X99104329Y-116797820D01*
X98735803Y-116950468D01*
X98404138Y-117172080D01*
X98122080Y-117454138D01*
X97995000Y-117644326D01*
X97867920Y-117454138D01*
X97585862Y-117172080D01*
X97254197Y-116950468D01*
X96885671Y-116797820D01*
X96494445Y-116720000D01*
X96095555Y-116720000D01*
X95704329Y-116797820D01*
X95335803Y-116950468D01*
X95004138Y-117172080D01*
X94722080Y-117454138D01*
X94500468Y-117785803D01*
X94347820Y-118154329D01*
X94270000Y-118545555D01*
X92804739Y-118545555D01*
X92752180Y-118281329D01*
X92599532Y-117912803D01*
X92377920Y-117581138D01*
X92095862Y-117299080D01*
X91764197Y-117077468D01*
X91395671Y-116924820D01*
X91004445Y-116847000D01*
X90605555Y-116847000D01*
X90214329Y-116924820D01*
X89845803Y-117077468D01*
X89514138Y-117299080D01*
X89232080Y-117581138D01*
X89105000Y-117771326D01*
X88977920Y-117581138D01*
X88695862Y-117299080D01*
X88364197Y-117077468D01*
X87995671Y-116924820D01*
X87604445Y-116847000D01*
X87205555Y-116847000D01*
X86814329Y-116924820D01*
X86445803Y-117077468D01*
X86114138Y-117299080D01*
X85832080Y-117581138D01*
X85610468Y-117912803D01*
X85457820Y-118281329D01*
X85380000Y-118672555D01*
X83940000Y-118672555D01*
X83940000Y-118545555D01*
X83862180Y-118154329D01*
X83709532Y-117785803D01*
X83487920Y-117454138D01*
X83205862Y-117172080D01*
X82874197Y-116950468D01*
X82505671Y-116797820D01*
X82114445Y-116720000D01*
X81715555Y-116720000D01*
X81324329Y-116797820D01*
X80955803Y-116950468D01*
X80624138Y-117172080D01*
X80342080Y-117454138D01*
X80215000Y-117644326D01*
X80087920Y-117454138D01*
X79805862Y-117172080D01*
X79474197Y-116950468D01*
X79105671Y-116797820D01*
X78714445Y-116720000D01*
X78315555Y-116720000D01*
X77924329Y-116797820D01*
X77555803Y-116950468D01*
X77224138Y-117172080D01*
X76942080Y-117454138D01*
X76720468Y-117785803D01*
X76567820Y-118154329D01*
X76490000Y-118545555D01*
X75050000Y-118545555D01*
X74972180Y-118154329D01*
X74819532Y-117785803D01*
X74597920Y-117454138D01*
X74315862Y-117172080D01*
X73984197Y-116950468D01*
X73615671Y-116797820D01*
X73224445Y-116720000D01*
X72825555Y-116720000D01*
X72434329Y-116797820D01*
X72065803Y-116950468D01*
X71734138Y-117172080D01*
X71452080Y-117454138D01*
X71325000Y-117644326D01*
X71197920Y-117454138D01*
X70915862Y-117172080D01*
X70584197Y-116950468D01*
X70215671Y-116797820D01*
X69824445Y-116720000D01*
X69425555Y-116720000D01*
X69034329Y-116797820D01*
X68665803Y-116950468D01*
X68334138Y-117172080D01*
X68052080Y-117454138D01*
X67830468Y-117785803D01*
X67677820Y-118154329D01*
X67600000Y-118545555D01*
X65612583Y-118545555D01*
X65515904Y-118364682D01*
X65280346Y-118077654D01*
X65208424Y-118018629D01*
X57765000Y-110575206D01*
X57765000Y-108873403D01*
X57749498Y-108716000D01*
X58452928Y-108716000D01*
X58452928Y-110236000D01*
X58469992Y-110409254D01*
X58520528Y-110575850D01*
X58602595Y-110729386D01*
X58713038Y-110863962D01*
X58847614Y-110974405D01*
X59001150Y-111056472D01*
X59167746Y-111107008D01*
X59341000Y-111124072D01*
X60341000Y-111124072D01*
X60514254Y-111107008D01*
X60680850Y-111056472D01*
X60834386Y-110974405D01*
X60968962Y-110863962D01*
X61079405Y-110729386D01*
X61161472Y-110575850D01*
X61212008Y-110409254D01*
X61229072Y-110236000D01*
X61229072Y-109147964D01*
X61456000Y-109147964D01*
X61456000Y-109804037D01*
X61476040Y-110007507D01*
X61555236Y-110268581D01*
X61683843Y-110509188D01*
X61856920Y-110720081D01*
X62067813Y-110893157D01*
X62308420Y-111021764D01*
X62569494Y-111100960D01*
X62841000Y-111127701D01*
X63112507Y-111100960D01*
X63373581Y-111021764D01*
X63614188Y-110893157D01*
X63825081Y-110720081D01*
X63998157Y-110509188D01*
X64010551Y-110486000D01*
X69882928Y-110486000D01*
X69895188Y-110610482D01*
X69931498Y-110730180D01*
X69990463Y-110840494D01*
X70069815Y-110937185D01*
X70166506Y-111016537D01*
X70276820Y-111075502D01*
X70396518Y-111111812D01*
X70521000Y-111124072D01*
X70985250Y-111121000D01*
X71144000Y-110962250D01*
X71144000Y-109603000D01*
X71398000Y-109603000D01*
X71398000Y-110962250D01*
X71556750Y-111121000D01*
X72021000Y-111124072D01*
X72145482Y-111111812D01*
X72265180Y-111075502D01*
X72375494Y-111016537D01*
X72472185Y-110937185D01*
X72551537Y-110840494D01*
X72610502Y-110730180D01*
X72646812Y-110610482D01*
X72659072Y-110486000D01*
X72656000Y-109761750D01*
X72497250Y-109603000D01*
X71398000Y-109603000D01*
X71144000Y-109603000D01*
X70044750Y-109603000D01*
X69886000Y-109761750D01*
X69882928Y-110486000D01*
X64010551Y-110486000D01*
X64126764Y-110268581D01*
X64205960Y-110007506D01*
X64226000Y-109804036D01*
X64226000Y-109147963D01*
X64205960Y-108944493D01*
X64126764Y-108683419D01*
X64010552Y-108466000D01*
X69882928Y-108466000D01*
X69886000Y-109190250D01*
X70044750Y-109349000D01*
X71144000Y-109349000D01*
X71144000Y-107989750D01*
X71398000Y-107989750D01*
X71398000Y-109349000D01*
X72497250Y-109349000D01*
X72656000Y-109190250D01*
X72656179Y-109147964D01*
X72886000Y-109147964D01*
X72886000Y-109804037D01*
X72906040Y-110007507D01*
X72985236Y-110268581D01*
X73113843Y-110509188D01*
X73286920Y-110720081D01*
X73497813Y-110893157D01*
X73738420Y-111021764D01*
X73999494Y-111100960D01*
X74271000Y-111127701D01*
X74542507Y-111100960D01*
X74803581Y-111021764D01*
X75044188Y-110893157D01*
X75255081Y-110720081D01*
X75428157Y-110509188D01*
X75440551Y-110486000D01*
X81312928Y-110486000D01*
X81325188Y-110610482D01*
X81361498Y-110730180D01*
X81420463Y-110840494D01*
X81499815Y-110937185D01*
X81596506Y-111016537D01*
X81706820Y-111075502D01*
X81826518Y-111111812D01*
X81951000Y-111124072D01*
X82415250Y-111121000D01*
X82574000Y-110962250D01*
X82574000Y-109603000D01*
X82828000Y-109603000D01*
X82828000Y-110962250D01*
X82986750Y-111121000D01*
X83451000Y-111124072D01*
X83575482Y-111111812D01*
X83695180Y-111075502D01*
X83805494Y-111016537D01*
X83902185Y-110937185D01*
X83981537Y-110840494D01*
X84040502Y-110730180D01*
X84076812Y-110610482D01*
X84089072Y-110486000D01*
X84086000Y-109761750D01*
X83927250Y-109603000D01*
X82828000Y-109603000D01*
X82574000Y-109603000D01*
X81474750Y-109603000D01*
X81316000Y-109761750D01*
X81312928Y-110486000D01*
X75440551Y-110486000D01*
X75556764Y-110268581D01*
X75635960Y-110007506D01*
X75656000Y-109804036D01*
X75656000Y-109147963D01*
X75635960Y-108944493D01*
X75556764Y-108683419D01*
X75440552Y-108466000D01*
X81312928Y-108466000D01*
X81316000Y-109190250D01*
X81474750Y-109349000D01*
X82574000Y-109349000D01*
X82574000Y-107989750D01*
X82828000Y-107989750D01*
X82828000Y-109349000D01*
X83927250Y-109349000D01*
X84086000Y-109190250D01*
X84086179Y-109147964D01*
X84316000Y-109147964D01*
X84316000Y-109804037D01*
X84336040Y-110007507D01*
X84415236Y-110268581D01*
X84543843Y-110509188D01*
X84716920Y-110720081D01*
X84927813Y-110893157D01*
X85168420Y-111021764D01*
X85429494Y-111100960D01*
X85701000Y-111127701D01*
X85972507Y-111100960D01*
X86233581Y-111021764D01*
X86474188Y-110893157D01*
X86685081Y-110720081D01*
X86858157Y-110509188D01*
X86870551Y-110486000D01*
X92742928Y-110486000D01*
X92755188Y-110610482D01*
X92791498Y-110730180D01*
X92850463Y-110840494D01*
X92929815Y-110937185D01*
X93026506Y-111016537D01*
X93136820Y-111075502D01*
X93256518Y-111111812D01*
X93381000Y-111124072D01*
X93845250Y-111121000D01*
X94004000Y-110962250D01*
X94004000Y-109603000D01*
X94258000Y-109603000D01*
X94258000Y-110962250D01*
X94416750Y-111121000D01*
X94881000Y-111124072D01*
X95005482Y-111111812D01*
X95125180Y-111075502D01*
X95235494Y-111016537D01*
X95332185Y-110937185D01*
X95411537Y-110840494D01*
X95470502Y-110730180D01*
X95506812Y-110610482D01*
X95519072Y-110486000D01*
X95516000Y-109761750D01*
X95357250Y-109603000D01*
X94258000Y-109603000D01*
X94004000Y-109603000D01*
X92904750Y-109603000D01*
X92746000Y-109761750D01*
X92742928Y-110486000D01*
X86870551Y-110486000D01*
X86986764Y-110268581D01*
X87065960Y-110007506D01*
X87086000Y-109804036D01*
X87086000Y-109147963D01*
X87065960Y-108944493D01*
X86986764Y-108683419D01*
X86870552Y-108466000D01*
X92742928Y-108466000D01*
X92746000Y-109190250D01*
X92904750Y-109349000D01*
X94004000Y-109349000D01*
X94004000Y-107989750D01*
X94258000Y-107989750D01*
X94258000Y-109349000D01*
X95357250Y-109349000D01*
X95516000Y-109190250D01*
X95516179Y-109147964D01*
X95746000Y-109147964D01*
X95746000Y-109804037D01*
X95766040Y-110007507D01*
X95845236Y-110268581D01*
X95973843Y-110509188D01*
X96146920Y-110720081D01*
X96357813Y-110893157D01*
X96598420Y-111021764D01*
X96859494Y-111100960D01*
X97131000Y-111127701D01*
X97402507Y-111100960D01*
X97663581Y-111021764D01*
X97904188Y-110893157D01*
X98115081Y-110720081D01*
X98288157Y-110509188D01*
X98416764Y-110268581D01*
X98495960Y-110007506D01*
X98516000Y-109804036D01*
X98516000Y-109147963D01*
X98495960Y-108944493D01*
X98426648Y-108716000D01*
X104172928Y-108716000D01*
X104172928Y-110236000D01*
X104189992Y-110409254D01*
X104240528Y-110575850D01*
X104322595Y-110729386D01*
X104433038Y-110863962D01*
X104567614Y-110974405D01*
X104721150Y-111056472D01*
X104887746Y-111107008D01*
X105061000Y-111124072D01*
X106061000Y-111124072D01*
X106234254Y-111107008D01*
X106400850Y-111056472D01*
X106554386Y-110974405D01*
X106688962Y-110863962D01*
X106799405Y-110729386D01*
X106881472Y-110575850D01*
X106932008Y-110409254D01*
X106949072Y-110236000D01*
X106949072Y-109147964D01*
X107176000Y-109147964D01*
X107176000Y-109804037D01*
X107196040Y-110007507D01*
X107275236Y-110268581D01*
X107403843Y-110509188D01*
X107576920Y-110720081D01*
X107787813Y-110893157D01*
X108028420Y-111021764D01*
X108289494Y-111100960D01*
X108561000Y-111127701D01*
X108832507Y-111100960D01*
X109093581Y-111021764D01*
X109334188Y-110893157D01*
X109545081Y-110720081D01*
X109718157Y-110509188D01*
X109846764Y-110268581D01*
X109925960Y-110007506D01*
X109946000Y-109804036D01*
X109946000Y-109147963D01*
X109925960Y-108944493D01*
X109856648Y-108716000D01*
X115602928Y-108716000D01*
X115602928Y-110236000D01*
X115619992Y-110409254D01*
X115670528Y-110575850D01*
X115752595Y-110729386D01*
X115863038Y-110863962D01*
X115997614Y-110974405D01*
X116151150Y-111056472D01*
X116317746Y-111107008D01*
X116491000Y-111124072D01*
X117491000Y-111124072D01*
X117664254Y-111107008D01*
X117830850Y-111056472D01*
X117984386Y-110974405D01*
X118118962Y-110863962D01*
X118229405Y-110729386D01*
X118311472Y-110575850D01*
X118362008Y-110409254D01*
X118379072Y-110236000D01*
X118379072Y-109147964D01*
X118606000Y-109147964D01*
X118606000Y-109804037D01*
X118626040Y-110007507D01*
X118705236Y-110268581D01*
X118833843Y-110509188D01*
X119006920Y-110720081D01*
X119217813Y-110893157D01*
X119458420Y-111021764D01*
X119719494Y-111100960D01*
X119991000Y-111127701D01*
X120262507Y-111100960D01*
X120523581Y-111021764D01*
X120764188Y-110893157D01*
X120975081Y-110720081D01*
X121148157Y-110509188D01*
X121276764Y-110268581D01*
X121355960Y-110007506D01*
X121376000Y-109804036D01*
X121376000Y-109147963D01*
X121355960Y-108944493D01*
X121276764Y-108683419D01*
X121148157Y-108442812D01*
X120975080Y-108231919D01*
X120764187Y-108058843D01*
X120523580Y-107930236D01*
X120262506Y-107851040D01*
X119991000Y-107824299D01*
X119719493Y-107851040D01*
X119458419Y-107930236D01*
X119217812Y-108058843D01*
X119006919Y-108231920D01*
X118833843Y-108442813D01*
X118705236Y-108683420D01*
X118626040Y-108944494D01*
X118606000Y-109147964D01*
X118379072Y-109147964D01*
X118379072Y-108716000D01*
X118362008Y-108542746D01*
X118311472Y-108376150D01*
X118229405Y-108222614D01*
X118118962Y-108088038D01*
X117984386Y-107977595D01*
X117830850Y-107895528D01*
X117664254Y-107844992D01*
X117491000Y-107827928D01*
X116491000Y-107827928D01*
X116317746Y-107844992D01*
X116151150Y-107895528D01*
X115997614Y-107977595D01*
X115863038Y-108088038D01*
X115752595Y-108222614D01*
X115670528Y-108376150D01*
X115619992Y-108542746D01*
X115602928Y-108716000D01*
X109856648Y-108716000D01*
X109846764Y-108683419D01*
X109718157Y-108442812D01*
X109545080Y-108231919D01*
X109334187Y-108058843D01*
X109093580Y-107930236D01*
X108832506Y-107851040D01*
X108561000Y-107824299D01*
X108289493Y-107851040D01*
X108028419Y-107930236D01*
X107787812Y-108058843D01*
X107576919Y-108231920D01*
X107403843Y-108442813D01*
X107275236Y-108683420D01*
X107196040Y-108944494D01*
X107176000Y-109147964D01*
X106949072Y-109147964D01*
X106949072Y-108716000D01*
X106932008Y-108542746D01*
X106881472Y-108376150D01*
X106799405Y-108222614D01*
X106688962Y-108088038D01*
X106554386Y-107977595D01*
X106400850Y-107895528D01*
X106234254Y-107844992D01*
X106061000Y-107827928D01*
X105061000Y-107827928D01*
X104887746Y-107844992D01*
X104721150Y-107895528D01*
X104567614Y-107977595D01*
X104433038Y-108088038D01*
X104322595Y-108222614D01*
X104240528Y-108376150D01*
X104189992Y-108542746D01*
X104172928Y-108716000D01*
X98426648Y-108716000D01*
X98416764Y-108683419D01*
X98288157Y-108442812D01*
X98115080Y-108231919D01*
X97904187Y-108058843D01*
X97663580Y-107930236D01*
X97402506Y-107851040D01*
X97131000Y-107824299D01*
X96859493Y-107851040D01*
X96598419Y-107930236D01*
X96357812Y-108058843D01*
X96146919Y-108231920D01*
X95973843Y-108442813D01*
X95845236Y-108683420D01*
X95766040Y-108944494D01*
X95746000Y-109147964D01*
X95516179Y-109147964D01*
X95519072Y-108466000D01*
X95506812Y-108341518D01*
X95470502Y-108221820D01*
X95411537Y-108111506D01*
X95332185Y-108014815D01*
X95235494Y-107935463D01*
X95125180Y-107876498D01*
X95005482Y-107840188D01*
X94881000Y-107827928D01*
X94416750Y-107831000D01*
X94258000Y-107989750D01*
X94004000Y-107989750D01*
X93845250Y-107831000D01*
X93381000Y-107827928D01*
X93256518Y-107840188D01*
X93136820Y-107876498D01*
X93026506Y-107935463D01*
X92929815Y-108014815D01*
X92850463Y-108111506D01*
X92791498Y-108221820D01*
X92755188Y-108341518D01*
X92742928Y-108466000D01*
X86870552Y-108466000D01*
X86858157Y-108442812D01*
X86685080Y-108231919D01*
X86474187Y-108058843D01*
X86233580Y-107930236D01*
X85972506Y-107851040D01*
X85701000Y-107824299D01*
X85429493Y-107851040D01*
X85168419Y-107930236D01*
X84927812Y-108058843D01*
X84716919Y-108231920D01*
X84543843Y-108442813D01*
X84415236Y-108683420D01*
X84336040Y-108944494D01*
X84316000Y-109147964D01*
X84086179Y-109147964D01*
X84089072Y-108466000D01*
X84076812Y-108341518D01*
X84040502Y-108221820D01*
X83981537Y-108111506D01*
X83902185Y-108014815D01*
X83805494Y-107935463D01*
X83695180Y-107876498D01*
X83575482Y-107840188D01*
X83451000Y-107827928D01*
X82986750Y-107831000D01*
X82828000Y-107989750D01*
X82574000Y-107989750D01*
X82415250Y-107831000D01*
X81951000Y-107827928D01*
X81826518Y-107840188D01*
X81706820Y-107876498D01*
X81596506Y-107935463D01*
X81499815Y-108014815D01*
X81420463Y-108111506D01*
X81361498Y-108221820D01*
X81325188Y-108341518D01*
X81312928Y-108466000D01*
X75440552Y-108466000D01*
X75428157Y-108442812D01*
X75255080Y-108231919D01*
X75044187Y-108058843D01*
X74803580Y-107930236D01*
X74542506Y-107851040D01*
X74271000Y-107824299D01*
X73999493Y-107851040D01*
X73738419Y-107930236D01*
X73497812Y-108058843D01*
X73286919Y-108231920D01*
X73113843Y-108442813D01*
X72985236Y-108683420D01*
X72906040Y-108944494D01*
X72886000Y-109147964D01*
X72656179Y-109147964D01*
X72659072Y-108466000D01*
X72646812Y-108341518D01*
X72610502Y-108221820D01*
X72551537Y-108111506D01*
X72472185Y-108014815D01*
X72375494Y-107935463D01*
X72265180Y-107876498D01*
X72145482Y-107840188D01*
X72021000Y-107827928D01*
X71556750Y-107831000D01*
X71398000Y-107989750D01*
X71144000Y-107989750D01*
X70985250Y-107831000D01*
X70521000Y-107827928D01*
X70396518Y-107840188D01*
X70276820Y-107876498D01*
X70166506Y-107935463D01*
X70069815Y-108014815D01*
X69990463Y-108111506D01*
X69931498Y-108221820D01*
X69895188Y-108341518D01*
X69882928Y-108466000D01*
X64010552Y-108466000D01*
X63998157Y-108442812D01*
X63825080Y-108231919D01*
X63614187Y-108058843D01*
X63373580Y-107930236D01*
X63112506Y-107851040D01*
X62841000Y-107824299D01*
X62569493Y-107851040D01*
X62308419Y-107930236D01*
X62067812Y-108058843D01*
X61856919Y-108231920D01*
X61683843Y-108442813D01*
X61555236Y-108683420D01*
X61476040Y-108944494D01*
X61456000Y-109147964D01*
X61229072Y-109147964D01*
X61229072Y-108716000D01*
X61212008Y-108542746D01*
X61161472Y-108376150D01*
X61079405Y-108222614D01*
X60968962Y-108088038D01*
X60834386Y-107977595D01*
X60680850Y-107895528D01*
X60514254Y-107844992D01*
X60341000Y-107827928D01*
X59341000Y-107827928D01*
X59167746Y-107844992D01*
X59001150Y-107895528D01*
X58847614Y-107977595D01*
X58713038Y-108088038D01*
X58602595Y-108222614D01*
X58520528Y-108376150D01*
X58469992Y-108542746D01*
X58452928Y-108716000D01*
X57749498Y-108716000D01*
X57737725Y-108596476D01*
X57629939Y-108241152D01*
X57454903Y-107913683D01*
X57219345Y-107626655D01*
X56932317Y-107391097D01*
X56604847Y-107216061D01*
X56249523Y-107108275D01*
X55880000Y-107071880D01*
X55510476Y-107108275D01*
X55155152Y-107216061D01*
X54827683Y-107391097D01*
X54540655Y-107626655D01*
X54305097Y-107913683D01*
X54130061Y-108241153D01*
X54022275Y-108596477D01*
X53995000Y-108873404D01*
X53995001Y-111263399D01*
X53985881Y-111355998D01*
X42341000Y-111355998D01*
X42341000Y-103880475D01*
X43466000Y-103880475D01*
X43466000Y-104399525D01*
X43567261Y-104908601D01*
X43765893Y-105388141D01*
X44054262Y-105819715D01*
X44421285Y-106186738D01*
X44852859Y-106475107D01*
X45332399Y-106673739D01*
X45841475Y-106775000D01*
X46360525Y-106775000D01*
X46869601Y-106673739D01*
X47349141Y-106475107D01*
X47780715Y-106186738D01*
X48147738Y-105819715D01*
X48436107Y-105388141D01*
X48619363Y-104945721D01*
X59206000Y-104945721D01*
X59206000Y-105366279D01*
X59288047Y-105778756D01*
X59448988Y-106167302D01*
X59682637Y-106516983D01*
X59980017Y-106814363D01*
X60329698Y-107048012D01*
X60718244Y-107208953D01*
X61130721Y-107291000D01*
X61551279Y-107291000D01*
X61963756Y-107208953D01*
X62352302Y-107048012D01*
X62701983Y-106814363D01*
X62999363Y-106516983D01*
X63233012Y-106167302D01*
X63393953Y-105778756D01*
X63476000Y-105366279D01*
X63476000Y-104945721D01*
X70636000Y-104945721D01*
X70636000Y-105366279D01*
X70718047Y-105778756D01*
X70878988Y-106167302D01*
X71112637Y-106516983D01*
X71410017Y-106814363D01*
X71759698Y-107048012D01*
X72148244Y-107208953D01*
X72560721Y-107291000D01*
X72981279Y-107291000D01*
X73393756Y-107208953D01*
X73782302Y-107048012D01*
X74131983Y-106814363D01*
X74429363Y-106516983D01*
X74663012Y-106167302D01*
X74823953Y-105778756D01*
X74906000Y-105366279D01*
X74906000Y-104945721D01*
X82066000Y-104945721D01*
X82066000Y-105366279D01*
X82148047Y-105778756D01*
X82308988Y-106167302D01*
X82542637Y-106516983D01*
X82840017Y-106814363D01*
X83189698Y-107048012D01*
X83578244Y-107208953D01*
X83990721Y-107291000D01*
X84411279Y-107291000D01*
X84823756Y-107208953D01*
X85212302Y-107048012D01*
X85561983Y-106814363D01*
X85859363Y-106516983D01*
X86093012Y-106167302D01*
X86253953Y-105778756D01*
X86336000Y-105366279D01*
X86336000Y-104945721D01*
X93496000Y-104945721D01*
X93496000Y-105366279D01*
X93578047Y-105778756D01*
X93738988Y-106167302D01*
X93972637Y-106516983D01*
X94270017Y-106814363D01*
X94619698Y-107048012D01*
X95008244Y-107208953D01*
X95420721Y-107291000D01*
X95841279Y-107291000D01*
X96253756Y-107208953D01*
X96642302Y-107048012D01*
X96991983Y-106814363D01*
X97289363Y-106516983D01*
X97523012Y-106167302D01*
X97683953Y-105778756D01*
X97766000Y-105366279D01*
X97766000Y-104945721D01*
X104926000Y-104945721D01*
X104926000Y-105366279D01*
X105008047Y-105778756D01*
X105168988Y-106167302D01*
X105402637Y-106516983D01*
X105700017Y-106814363D01*
X106049698Y-107048012D01*
X106438244Y-107208953D01*
X106850721Y-107291000D01*
X107271279Y-107291000D01*
X107683756Y-107208953D01*
X108072302Y-107048012D01*
X108421983Y-106814363D01*
X108719363Y-106516983D01*
X108953012Y-106167302D01*
X109113953Y-105778756D01*
X109196000Y-105366279D01*
X109196000Y-104945721D01*
X116356000Y-104945721D01*
X116356000Y-105366279D01*
X116438047Y-105778756D01*
X116598988Y-106167302D01*
X116832637Y-106516983D01*
X117130017Y-106814363D01*
X117479698Y-107048012D01*
X117868244Y-107208953D01*
X118280721Y-107291000D01*
X118701279Y-107291000D01*
X119113756Y-107208953D01*
X119502302Y-107048012D01*
X119851983Y-106814363D01*
X120149363Y-106516983D01*
X120383012Y-106167302D01*
X120543953Y-105778756D01*
X120626000Y-105366279D01*
X120626000Y-104945721D01*
X120543953Y-104533244D01*
X120383012Y-104144698D01*
X120206465Y-103880475D01*
X125381000Y-103880475D01*
X125381000Y-104399525D01*
X125482261Y-104908601D01*
X125680893Y-105388141D01*
X125969262Y-105819715D01*
X126336285Y-106186738D01*
X126767859Y-106475107D01*
X127247399Y-106673739D01*
X127756475Y-106775000D01*
X128275525Y-106775000D01*
X128784601Y-106673739D01*
X129264141Y-106475107D01*
X129695715Y-106186738D01*
X130062738Y-105819715D01*
X130351107Y-105388141D01*
X130549739Y-104908601D01*
X130651000Y-104399525D01*
X130651000Y-103880475D01*
X130549739Y-103371399D01*
X130351107Y-102891859D01*
X130062738Y-102460285D01*
X129695715Y-102093262D01*
X129264141Y-101804893D01*
X128784601Y-101606261D01*
X128275525Y-101505000D01*
X127756475Y-101505000D01*
X127247399Y-101606261D01*
X126767859Y-101804893D01*
X126336285Y-102093262D01*
X125969262Y-102460285D01*
X125680893Y-102891859D01*
X125482261Y-103371399D01*
X125381000Y-103880475D01*
X120206465Y-103880475D01*
X120149363Y-103795017D01*
X119851983Y-103497637D01*
X119502302Y-103263988D01*
X119113756Y-103103047D01*
X118701279Y-103021000D01*
X118280721Y-103021000D01*
X117868244Y-103103047D01*
X117479698Y-103263988D01*
X117130017Y-103497637D01*
X116832637Y-103795017D01*
X116598988Y-104144698D01*
X116438047Y-104533244D01*
X116356000Y-104945721D01*
X109196000Y-104945721D01*
X109113953Y-104533244D01*
X108953012Y-104144698D01*
X108719363Y-103795017D01*
X108421983Y-103497637D01*
X108072302Y-103263988D01*
X107683756Y-103103047D01*
X107271279Y-103021000D01*
X106850721Y-103021000D01*
X106438244Y-103103047D01*
X106049698Y-103263988D01*
X105700017Y-103497637D01*
X105402637Y-103795017D01*
X105168988Y-104144698D01*
X105008047Y-104533244D01*
X104926000Y-104945721D01*
X97766000Y-104945721D01*
X97683953Y-104533244D01*
X97523012Y-104144698D01*
X97289363Y-103795017D01*
X96991983Y-103497637D01*
X96642302Y-103263988D01*
X96253756Y-103103047D01*
X95841279Y-103021000D01*
X95420721Y-103021000D01*
X95008244Y-103103047D01*
X94619698Y-103263988D01*
X94270017Y-103497637D01*
X93972637Y-103795017D01*
X93738988Y-104144698D01*
X93578047Y-104533244D01*
X93496000Y-104945721D01*
X86336000Y-104945721D01*
X86253953Y-104533244D01*
X86093012Y-104144698D01*
X85859363Y-103795017D01*
X85561983Y-103497637D01*
X85212302Y-103263988D01*
X84823756Y-103103047D01*
X84411279Y-103021000D01*
X83990721Y-103021000D01*
X83578244Y-103103047D01*
X83189698Y-103263988D01*
X82840017Y-103497637D01*
X82542637Y-103795017D01*
X82308988Y-104144698D01*
X82148047Y-104533244D01*
X82066000Y-104945721D01*
X74906000Y-104945721D01*
X74823953Y-104533244D01*
X74663012Y-104144698D01*
X74429363Y-103795017D01*
X74131983Y-103497637D01*
X73782302Y-103263988D01*
X73393756Y-103103047D01*
X72981279Y-103021000D01*
X72560721Y-103021000D01*
X72148244Y-103103047D01*
X71759698Y-103263988D01*
X71410017Y-103497637D01*
X71112637Y-103795017D01*
X70878988Y-104144698D01*
X70718047Y-104533244D01*
X70636000Y-104945721D01*
X63476000Y-104945721D01*
X63393953Y-104533244D01*
X63233012Y-104144698D01*
X62999363Y-103795017D01*
X62701983Y-103497637D01*
X62352302Y-103263988D01*
X61963756Y-103103047D01*
X61551279Y-103021000D01*
X61130721Y-103021000D01*
X60718244Y-103103047D01*
X60329698Y-103263988D01*
X59980017Y-103497637D01*
X59682637Y-103795017D01*
X59448988Y-104144698D01*
X59288047Y-104533244D01*
X59206000Y-104945721D01*
X48619363Y-104945721D01*
X48634739Y-104908601D01*
X48736000Y-104399525D01*
X48736000Y-103880475D01*
X48634739Y-103371399D01*
X48436107Y-102891859D01*
X48147738Y-102460285D01*
X47780715Y-102093262D01*
X47349141Y-101804893D01*
X46869601Y-101606261D01*
X46360525Y-101505000D01*
X45841475Y-101505000D01*
X45332399Y-101606261D01*
X44852859Y-101804893D01*
X44421285Y-102093262D01*
X44054262Y-102460285D01*
X43765893Y-102891859D01*
X43567261Y-103371399D01*
X43466000Y-103880475D01*
X42341000Y-103880475D01*
X42341000Y-103538504D01*
X42403738Y-102898656D01*
X42579832Y-102315405D01*
X42865856Y-101777471D01*
X43250922Y-101305333D01*
X43720359Y-100916981D01*
X44256286Y-100627206D01*
X44838291Y-100447045D01*
X45476189Y-100380000D01*
X128617496Y-100380000D01*
X129257344Y-100442738D01*
G37*
%TD.AperFunction*%
%TD*%
M02*
