%TF.GenerationSoftware,KiCad,Pcbnew,(6.0.4)*%
%TF.CreationDate,2023-05-16T23:09:25-04:00*%
%TF.ProjectId,PROTO_PCB,50524f54-4f5f-4504-9342-2e6b69636164,rev?*%
%TF.SameCoordinates,Original*%
%TF.FileFunction,Soldermask,Bot*%
%TF.FilePolarity,Negative*%
%FSLAX46Y46*%
G04 Gerber Fmt 4.6, Leading zero omitted, Abs format (unit mm)*
G04 Created by KiCad (PCBNEW (6.0.4)) date 2023-05-16 23:09:25*
%MOMM*%
%LPD*%
G01*
G04 APERTURE LIST*
G04 Aperture macros list*
%AMRoundRect*
0 Rectangle with rounded corners*
0 $1 Rounding radius*
0 $2 $3 $4 $5 $6 $7 $8 $9 X,Y pos of 4 corners*
0 Add a 4 corners polygon primitive as box body*
4,1,4,$2,$3,$4,$5,$6,$7,$8,$9,$2,$3,0*
0 Add four circle primitives for the rounded corners*
1,1,$1+$1,$2,$3*
1,1,$1+$1,$4,$5*
1,1,$1+$1,$6,$7*
1,1,$1+$1,$8,$9*
0 Add four rect primitives between the rounded corners*
20,1,$1+$1,$2,$3,$4,$5,0*
20,1,$1+$1,$4,$5,$6,$7,0*
20,1,$1+$1,$6,$7,$8,$9,0*
20,1,$1+$1,$8,$9,$2,$3,0*%
G04 Aperture macros list end*
%ADD10C,1.226200*%
%ADD11C,1.626200*%
%ADD12C,0.010000*%
%ADD13C,4.000000*%
%ADD14C,2.780000*%
%ADD15C,3.000000*%
%ADD16RoundRect,0.250000X0.500000X0.760000X-0.500000X0.760000X-0.500000X-0.760000X0.500000X-0.760000X0*%
%ADD17O,1.500000X2.020000*%
%ADD18RoundRect,0.250000X-0.500000X-0.760000X0.500000X-0.760000X0.500000X0.760000X-0.500000X0.760000X0*%
%ADD19C,3.100000*%
%ADD20C,3.250000*%
%ADD21R,1.500000X1.500000*%
%ADD22C,1.500000*%
%ADD23C,2.300000*%
%ADD24R,1.700000X1.700000*%
%ADD25O,1.700000X1.700000*%
G04 APERTURE END LIST*
D10*
X61954100Y-120665000D02*
G75*
G03*
X61954100Y-120665000I-613100J0D01*
G01*
D11*
X54854100Y-123515000D02*
G75*
G03*
X54854100Y-123515000I-813100J0D01*
G01*
G36*
X62567200Y-127591200D02*
G01*
X60114800Y-127591200D01*
X60114800Y-125138800D01*
X62567200Y-125138800D01*
X62567200Y-127591200D01*
G37*
D12*
X62567200Y-127591200D02*
X60114800Y-127591200D01*
X60114800Y-125138800D01*
X62567200Y-125138800D01*
X62567200Y-127591200D01*
D13*
X46101000Y-104140000D03*
X46101000Y-145415000D03*
D14*
X73025000Y-117475000D03*
X69625000Y-117475000D03*
X69625000Y-127395000D03*
X73025000Y-127395000D03*
X100711000Y-117475000D03*
X97311000Y-117475000D03*
X100711000Y-127395000D03*
X97311000Y-127395000D03*
D13*
X120396000Y-104775000D03*
X120396000Y-145415000D03*
D15*
X80391000Y-144528000D03*
D16*
X81891000Y-140208000D03*
D17*
X78891000Y-140208000D03*
D15*
X68731000Y-144528000D03*
D16*
X70231000Y-140208000D03*
D17*
X67231000Y-140208000D03*
D15*
X61341000Y-105156000D03*
D18*
X59841000Y-109476000D03*
D17*
X62841000Y-109476000D03*
D15*
X99187000Y-105156000D03*
D18*
X97687000Y-109476000D03*
D17*
X100687000Y-109476000D03*
D15*
X87376000Y-105060000D03*
D18*
X85876000Y-109380000D03*
D17*
X88876000Y-109380000D03*
D15*
X110871000Y-105060000D03*
D18*
X109371000Y-109380000D03*
D17*
X112371000Y-109380000D03*
D14*
X91456769Y-117475000D03*
X88056769Y-117475000D03*
X88056769Y-127395000D03*
X91456769Y-127395000D03*
X81915000Y-117475000D03*
X78515000Y-117475000D03*
X78515000Y-127395000D03*
X81915000Y-127395000D03*
D19*
X54041000Y-123515000D03*
D15*
X72771000Y-105156000D03*
D18*
X71271000Y-109476000D03*
D17*
X74271000Y-109476000D03*
D20*
X108581000Y-143510000D03*
X95881000Y-143510000D03*
D21*
X105791000Y-140970000D03*
D22*
X104775000Y-139190000D03*
X103759000Y-140970000D03*
X102743000Y-139190000D03*
X101727000Y-140970000D03*
X100711000Y-139190000D03*
X99695000Y-140970000D03*
X98679000Y-139190000D03*
D23*
X110361000Y-140080000D03*
X94101000Y-140080000D03*
D24*
X118491000Y-119380000D03*
D25*
X118491000Y-116840000D03*
M02*
