%FSLAX45Y45*%
G04 Gerber Fmt 4.5, Leading zero omitted, Abs format (unit mm)*
G04 Created by KiCad (PCBNEW (6.0.4)) date 2023-05-16 23:10:23*
%MOMM*%
%LPD*%
G01*
G04 APERTURE LIST*
%TA.AperFunction,Profile*%
%ADD10C,0.100000*%
%TD*%
%ADD11C,0.200000*%
%ADD12C,0.300000*%
%ADD13C,0.310000*%
%ADD14C,0.325000*%
G04 APERTURE END LIST*
D10*
X4165600Y-10350500D02*
X4165600Y-14605000D01*
X4546600Y-9969500D02*
X12166600Y-9969500D01*
X12547600Y-10350500D02*
G75*
G03*
X12166600Y-9969500I-381000J0D01*
G01*
X4546600Y-9969500D02*
G75*
G03*
X4165600Y-10350500I0J-381000D01*
G01*
X4546600Y-14986000D02*
X12166600Y-14986000D01*
X12166600Y-14986000D02*
G75*
G03*
X12547600Y-14605000I0J381000D01*
G01*
X4165600Y-14605000D02*
G75*
G03*
X4546600Y-14986000I381000J0D01*
G01*
X12547600Y-10350500D02*
X12547600Y-14605000D01*
D11*
D12*
X5984100Y-10365600D02*
X6284100Y-10665600D01*
X6284100Y-10365600D02*
X5984100Y-10665600D01*
X6723100Y-14302800D02*
X7023100Y-14602800D01*
X7023100Y-14302800D02*
X6723100Y-14602800D01*
X7127100Y-10365600D02*
X7427100Y-10665600D01*
X7427100Y-10365600D02*
X7127100Y-10665600D01*
X7889100Y-14302800D02*
X8189100Y-14602800D01*
X8189100Y-14302800D02*
X7889100Y-14602800D01*
X8587600Y-10356000D02*
X8887600Y-10656000D01*
X8887600Y-10356000D02*
X8587600Y-10656000D01*
X9768700Y-10365600D02*
X10068700Y-10665600D01*
X10068700Y-10365600D02*
X9768700Y-10665600D01*
X10937100Y-10356000D02*
X11237100Y-10656000D01*
X11237100Y-10356000D02*
X10937100Y-10656000D01*
D13*
X5559100Y-12351500D02*
G75*
G03*
X5559100Y-12351500I-155000J0D01*
G01*
D14*
X9588100Y-14188500D02*
X9588100Y-14513500D01*
X9425600Y-14351000D02*
X9750600Y-14351000D01*
X10858100Y-14188500D02*
X10858100Y-14513500D01*
X10695600Y-14351000D02*
X11020600Y-14351000D01*
D11*
X4418219Y-15301476D02*
X4418219Y-15101476D01*
X4465838Y-15101476D01*
X4494410Y-15111000D01*
X4513457Y-15130048D01*
X4522981Y-15149095D01*
X4532505Y-15187190D01*
X4532505Y-15215762D01*
X4522981Y-15253857D01*
X4513457Y-15272905D01*
X4494410Y-15291952D01*
X4465838Y-15301476D01*
X4418219Y-15301476D01*
X4618219Y-15301476D02*
X4618219Y-15168143D01*
X4618219Y-15206238D02*
X4627743Y-15187190D01*
X4637267Y-15177667D01*
X4656314Y-15168143D01*
X4675362Y-15168143D01*
X4742029Y-15301476D02*
X4742029Y-15168143D01*
X4742029Y-15101476D02*
X4732505Y-15111000D01*
X4742029Y-15120524D01*
X4751552Y-15111000D01*
X4742029Y-15101476D01*
X4742029Y-15120524D01*
X4865838Y-15301476D02*
X4846790Y-15291952D01*
X4837267Y-15272905D01*
X4837267Y-15101476D01*
X4970600Y-15301476D02*
X4951552Y-15291952D01*
X4942029Y-15272905D01*
X4942029Y-15101476D01*
X5199171Y-15301476D02*
X5199171Y-15101476D01*
X5265838Y-15244333D01*
X5332505Y-15101476D01*
X5332505Y-15301476D01*
X5513457Y-15301476D02*
X5513457Y-15196714D01*
X5503933Y-15177667D01*
X5484886Y-15168143D01*
X5446790Y-15168143D01*
X5427743Y-15177667D01*
X5513457Y-15291952D02*
X5494410Y-15301476D01*
X5446790Y-15301476D01*
X5427743Y-15291952D01*
X5418219Y-15272905D01*
X5418219Y-15253857D01*
X5427743Y-15234809D01*
X5446790Y-15225286D01*
X5494410Y-15225286D01*
X5513457Y-15215762D01*
X5608695Y-15168143D02*
X5608695Y-15368143D01*
X5608695Y-15177667D02*
X5627743Y-15168143D01*
X5665838Y-15168143D01*
X5684886Y-15177667D01*
X5694409Y-15187190D01*
X5703933Y-15206238D01*
X5703933Y-15263381D01*
X5694409Y-15282428D01*
X5684886Y-15291952D01*
X5665838Y-15301476D01*
X5627743Y-15301476D01*
X5608695Y-15291952D01*
X5789648Y-15282428D02*
X5799171Y-15291952D01*
X5789648Y-15301476D01*
X5780124Y-15291952D01*
X5789648Y-15282428D01*
X5789648Y-15301476D01*
X5789648Y-15177667D02*
X5799171Y-15187190D01*
X5789648Y-15196714D01*
X5780124Y-15187190D01*
X5789648Y-15177667D01*
X5789648Y-15196714D01*
X3960600Y-15531000D02*
X4160600Y-15731000D01*
X4160600Y-15531000D02*
X3960600Y-15731000D01*
X4399171Y-15521476D02*
X4522981Y-15521476D01*
X4456314Y-15597667D01*
X4484886Y-15597667D01*
X4503933Y-15607190D01*
X4513457Y-15616714D01*
X4522981Y-15635762D01*
X4522981Y-15683381D01*
X4513457Y-15702428D01*
X4503933Y-15711952D01*
X4484886Y-15721476D01*
X4427743Y-15721476D01*
X4408695Y-15711952D01*
X4399171Y-15702428D01*
X4608695Y-15702428D02*
X4618219Y-15711952D01*
X4608695Y-15721476D01*
X4599171Y-15711952D01*
X4608695Y-15702428D01*
X4608695Y-15721476D01*
X4742029Y-15521476D02*
X4761076Y-15521476D01*
X4780124Y-15531000D01*
X4789648Y-15540524D01*
X4799171Y-15559571D01*
X4808695Y-15597667D01*
X4808695Y-15645286D01*
X4799171Y-15683381D01*
X4789648Y-15702428D01*
X4780124Y-15711952D01*
X4761076Y-15721476D01*
X4742029Y-15721476D01*
X4722981Y-15711952D01*
X4713457Y-15702428D01*
X4703933Y-15683381D01*
X4694410Y-15645286D01*
X4694410Y-15597667D01*
X4703933Y-15559571D01*
X4713457Y-15540524D01*
X4722981Y-15531000D01*
X4742029Y-15521476D01*
X4932505Y-15521476D02*
X4951552Y-15521476D01*
X4970600Y-15531000D01*
X4980124Y-15540524D01*
X4989648Y-15559571D01*
X4999171Y-15597667D01*
X4999171Y-15645286D01*
X4989648Y-15683381D01*
X4980124Y-15702428D01*
X4970600Y-15711952D01*
X4951552Y-15721476D01*
X4932505Y-15721476D01*
X4913457Y-15711952D01*
X4903933Y-15702428D01*
X4894410Y-15683381D01*
X4884886Y-15645286D01*
X4884886Y-15597667D01*
X4894410Y-15559571D01*
X4903933Y-15540524D01*
X4913457Y-15531000D01*
X4932505Y-15521476D01*
X5122981Y-15521476D02*
X5142029Y-15521476D01*
X5161076Y-15531000D01*
X5170600Y-15540524D01*
X5180124Y-15559571D01*
X5189648Y-15597667D01*
X5189648Y-15645286D01*
X5180124Y-15683381D01*
X5170600Y-15702428D01*
X5161076Y-15711952D01*
X5142029Y-15721476D01*
X5122981Y-15721476D01*
X5103933Y-15711952D01*
X5094410Y-15702428D01*
X5084886Y-15683381D01*
X5075362Y-15645286D01*
X5075362Y-15597667D01*
X5084886Y-15559571D01*
X5094410Y-15540524D01*
X5103933Y-15531000D01*
X5122981Y-15521476D01*
X5275362Y-15721476D02*
X5275362Y-15588143D01*
X5275362Y-15607190D02*
X5284886Y-15597667D01*
X5303933Y-15588143D01*
X5332505Y-15588143D01*
X5351552Y-15597667D01*
X5361076Y-15616714D01*
X5361076Y-15721476D01*
X5361076Y-15616714D02*
X5370600Y-15597667D01*
X5389648Y-15588143D01*
X5418219Y-15588143D01*
X5437267Y-15597667D01*
X5446790Y-15616714D01*
X5446790Y-15721476D01*
X5542029Y-15721476D02*
X5542029Y-15588143D01*
X5542029Y-15607190D02*
X5551552Y-15597667D01*
X5570600Y-15588143D01*
X5599171Y-15588143D01*
X5618219Y-15597667D01*
X5627743Y-15616714D01*
X5627743Y-15721476D01*
X5627743Y-15616714D02*
X5637267Y-15597667D01*
X5656314Y-15588143D01*
X5684886Y-15588143D01*
X5703933Y-15597667D01*
X5713457Y-15616714D01*
X5713457Y-15721476D01*
X6103933Y-15511952D02*
X5932505Y-15769095D01*
X6361076Y-15521476D02*
X6380124Y-15521476D01*
X6399171Y-15531000D01*
X6408695Y-15540524D01*
X6418219Y-15559571D01*
X6427743Y-15597667D01*
X6427743Y-15645286D01*
X6418219Y-15683381D01*
X6408695Y-15702428D01*
X6399171Y-15711952D01*
X6380124Y-15721476D01*
X6361076Y-15721476D01*
X6342028Y-15711952D01*
X6332505Y-15702428D01*
X6322981Y-15683381D01*
X6313457Y-15645286D01*
X6313457Y-15597667D01*
X6322981Y-15559571D01*
X6332505Y-15540524D01*
X6342028Y-15531000D01*
X6361076Y-15521476D01*
X6513457Y-15702428D02*
X6522981Y-15711952D01*
X6513457Y-15721476D01*
X6503933Y-15711952D01*
X6513457Y-15702428D01*
X6513457Y-15721476D01*
X6713457Y-15721476D02*
X6599171Y-15721476D01*
X6656314Y-15721476D02*
X6656314Y-15521476D01*
X6637267Y-15550048D01*
X6618219Y-15569095D01*
X6599171Y-15578619D01*
X6903933Y-15721476D02*
X6789648Y-15721476D01*
X6846790Y-15721476D02*
X6846790Y-15521476D01*
X6827743Y-15550048D01*
X6808695Y-15569095D01*
X6789648Y-15578619D01*
X7018219Y-15607190D02*
X6999171Y-15597667D01*
X6989648Y-15588143D01*
X6980124Y-15569095D01*
X6980124Y-15559571D01*
X6989648Y-15540524D01*
X6999171Y-15531000D01*
X7018219Y-15521476D01*
X7056314Y-15521476D01*
X7075362Y-15531000D01*
X7084886Y-15540524D01*
X7094409Y-15559571D01*
X7094409Y-15569095D01*
X7084886Y-15588143D01*
X7075362Y-15597667D01*
X7056314Y-15607190D01*
X7018219Y-15607190D01*
X6999171Y-15616714D01*
X6989648Y-15626238D01*
X6980124Y-15645286D01*
X6980124Y-15683381D01*
X6989648Y-15702428D01*
X6999171Y-15711952D01*
X7018219Y-15721476D01*
X7056314Y-15721476D01*
X7075362Y-15711952D01*
X7084886Y-15702428D01*
X7094409Y-15683381D01*
X7094409Y-15645286D01*
X7084886Y-15626238D01*
X7075362Y-15616714D01*
X7056314Y-15607190D01*
X7284886Y-15721476D02*
X7170600Y-15721476D01*
X7227743Y-15721476D02*
X7227743Y-15521476D01*
X7208695Y-15550048D01*
X7189648Y-15569095D01*
X7170600Y-15578619D01*
X7361076Y-15521476D02*
X7361076Y-15559571D01*
X7437267Y-15521476D02*
X7437267Y-15559571D01*
X7732505Y-15797667D02*
X7722981Y-15788143D01*
X7703933Y-15759571D01*
X7694409Y-15740524D01*
X7684886Y-15711952D01*
X7675362Y-15664333D01*
X7675362Y-15626238D01*
X7684886Y-15578619D01*
X7694409Y-15550048D01*
X7703933Y-15531000D01*
X7722981Y-15502428D01*
X7732505Y-15492905D01*
X7789648Y-15521476D02*
X7922981Y-15521476D01*
X7837267Y-15721476D01*
X8151552Y-15721476D02*
X8151552Y-15521476D01*
X8237267Y-15721476D02*
X8237267Y-15616714D01*
X8227743Y-15597667D01*
X8208695Y-15588143D01*
X8180124Y-15588143D01*
X8161076Y-15597667D01*
X8151552Y-15607190D01*
X8361076Y-15721476D02*
X8342028Y-15711952D01*
X8332505Y-15702428D01*
X8322981Y-15683381D01*
X8322981Y-15626238D01*
X8332505Y-15607190D01*
X8342028Y-15597667D01*
X8361076Y-15588143D01*
X8389648Y-15588143D01*
X8408695Y-15597667D01*
X8418219Y-15607190D01*
X8427743Y-15626238D01*
X8427743Y-15683381D01*
X8418219Y-15702428D01*
X8408695Y-15711952D01*
X8389648Y-15721476D01*
X8361076Y-15721476D01*
X8542029Y-15721476D02*
X8522981Y-15711952D01*
X8513457Y-15692905D01*
X8513457Y-15521476D01*
X8694410Y-15711952D02*
X8675362Y-15721476D01*
X8637267Y-15721476D01*
X8618219Y-15711952D01*
X8608695Y-15692905D01*
X8608695Y-15616714D01*
X8618219Y-15597667D01*
X8637267Y-15588143D01*
X8675362Y-15588143D01*
X8694410Y-15597667D01*
X8703933Y-15616714D01*
X8703933Y-15635762D01*
X8608695Y-15654809D01*
X8780124Y-15711952D02*
X8799171Y-15721476D01*
X8837267Y-15721476D01*
X8856314Y-15711952D01*
X8865838Y-15692905D01*
X8865838Y-15683381D01*
X8856314Y-15664333D01*
X8837267Y-15654809D01*
X8808695Y-15654809D01*
X8789648Y-15645286D01*
X8780124Y-15626238D01*
X8780124Y-15616714D01*
X8789648Y-15597667D01*
X8808695Y-15588143D01*
X8837267Y-15588143D01*
X8856314Y-15597667D01*
X8932505Y-15797667D02*
X8942029Y-15788143D01*
X8961076Y-15759571D01*
X8970600Y-15740524D01*
X8980124Y-15711952D01*
X8989648Y-15664333D01*
X8989648Y-15626238D01*
X8980124Y-15578619D01*
X8970600Y-15550048D01*
X8961076Y-15531000D01*
X8942029Y-15502428D01*
X8932505Y-15492905D01*
X9294410Y-15797667D02*
X9284886Y-15788143D01*
X9265838Y-15759571D01*
X9256314Y-15740524D01*
X9246790Y-15711952D01*
X9237267Y-15664333D01*
X9237267Y-15626238D01*
X9246790Y-15578619D01*
X9256314Y-15550048D01*
X9265838Y-15531000D01*
X9284886Y-15502428D01*
X9294410Y-15492905D01*
X9370600Y-15588143D02*
X9370600Y-15721476D01*
X9370600Y-15607190D02*
X9380124Y-15597667D01*
X9399171Y-15588143D01*
X9427743Y-15588143D01*
X9446790Y-15597667D01*
X9456314Y-15616714D01*
X9456314Y-15721476D01*
X9580124Y-15721476D02*
X9561076Y-15711952D01*
X9551552Y-15702428D01*
X9542029Y-15683381D01*
X9542029Y-15626238D01*
X9551552Y-15607190D01*
X9561076Y-15597667D01*
X9580124Y-15588143D01*
X9608695Y-15588143D01*
X9627743Y-15597667D01*
X9637267Y-15607190D01*
X9646790Y-15626238D01*
X9646790Y-15683381D01*
X9637267Y-15702428D01*
X9627743Y-15711952D01*
X9608695Y-15721476D01*
X9580124Y-15721476D01*
X9703933Y-15588143D02*
X9780124Y-15588143D01*
X9732505Y-15521476D02*
X9732505Y-15692905D01*
X9742029Y-15711952D01*
X9761076Y-15721476D01*
X9780124Y-15721476D01*
X9999171Y-15588143D02*
X9999171Y-15788143D01*
X9999171Y-15597667D02*
X10018219Y-15588143D01*
X10056314Y-15588143D01*
X10075362Y-15597667D01*
X10084886Y-15607190D01*
X10094410Y-15626238D01*
X10094410Y-15683381D01*
X10084886Y-15702428D01*
X10075362Y-15711952D01*
X10056314Y-15721476D01*
X10018219Y-15721476D01*
X9999171Y-15711952D01*
X10208695Y-15721476D02*
X10189648Y-15711952D01*
X10180124Y-15692905D01*
X10180124Y-15521476D01*
X10370600Y-15721476D02*
X10370600Y-15616714D01*
X10361076Y-15597667D01*
X10342029Y-15588143D01*
X10303933Y-15588143D01*
X10284886Y-15597667D01*
X10370600Y-15711952D02*
X10351552Y-15721476D01*
X10303933Y-15721476D01*
X10284886Y-15711952D01*
X10275362Y-15692905D01*
X10275362Y-15673857D01*
X10284886Y-15654809D01*
X10303933Y-15645286D01*
X10351552Y-15645286D01*
X10370600Y-15635762D01*
X10437267Y-15588143D02*
X10513457Y-15588143D01*
X10465838Y-15521476D02*
X10465838Y-15692905D01*
X10475362Y-15711952D01*
X10494410Y-15721476D01*
X10513457Y-15721476D01*
X10656314Y-15711952D02*
X10637267Y-15721476D01*
X10599171Y-15721476D01*
X10580124Y-15711952D01*
X10570600Y-15692905D01*
X10570600Y-15616714D01*
X10580124Y-15597667D01*
X10599171Y-15588143D01*
X10637267Y-15588143D01*
X10656314Y-15597667D01*
X10665838Y-15616714D01*
X10665838Y-15635762D01*
X10570600Y-15654809D01*
X10837267Y-15721476D02*
X10837267Y-15521476D01*
X10837267Y-15711952D02*
X10818219Y-15721476D01*
X10780124Y-15721476D01*
X10761076Y-15711952D01*
X10751552Y-15702428D01*
X10742029Y-15683381D01*
X10742029Y-15626238D01*
X10751552Y-15607190D01*
X10761076Y-15597667D01*
X10780124Y-15588143D01*
X10818219Y-15588143D01*
X10837267Y-15597667D01*
X10913457Y-15797667D02*
X10922981Y-15788143D01*
X10942029Y-15759571D01*
X10951552Y-15740524D01*
X10961076Y-15711952D01*
X10970600Y-15664333D01*
X10970600Y-15626238D01*
X10961076Y-15578619D01*
X10951552Y-15550048D01*
X10942029Y-15531000D01*
X10922981Y-15502428D01*
X10913457Y-15492905D01*
X4160600Y-15951000D02*
G75*
G03*
X4160600Y-15951000I-100000J0D01*
G01*
X4399171Y-15841476D02*
X4522981Y-15841476D01*
X4456314Y-15917667D01*
X4484886Y-15917667D01*
X4503933Y-15927190D01*
X4513457Y-15936714D01*
X4522981Y-15955762D01*
X4522981Y-16003381D01*
X4513457Y-16022428D01*
X4503933Y-16031952D01*
X4484886Y-16041476D01*
X4427743Y-16041476D01*
X4408695Y-16031952D01*
X4399171Y-16022428D01*
X4608695Y-16022428D02*
X4618219Y-16031952D01*
X4608695Y-16041476D01*
X4599171Y-16031952D01*
X4608695Y-16022428D01*
X4608695Y-16041476D01*
X4808695Y-16041476D02*
X4694410Y-16041476D01*
X4751552Y-16041476D02*
X4751552Y-15841476D01*
X4732505Y-15870048D01*
X4713457Y-15889095D01*
X4694410Y-15898619D01*
X4932505Y-15841476D02*
X4951552Y-15841476D01*
X4970600Y-15851000D01*
X4980124Y-15860524D01*
X4989648Y-15879571D01*
X4999171Y-15917667D01*
X4999171Y-15965286D01*
X4989648Y-16003381D01*
X4980124Y-16022428D01*
X4970600Y-16031952D01*
X4951552Y-16041476D01*
X4932505Y-16041476D01*
X4913457Y-16031952D01*
X4903933Y-16022428D01*
X4894410Y-16003381D01*
X4884886Y-15965286D01*
X4884886Y-15917667D01*
X4894410Y-15879571D01*
X4903933Y-15860524D01*
X4913457Y-15851000D01*
X4932505Y-15841476D01*
X5122981Y-15841476D02*
X5142029Y-15841476D01*
X5161076Y-15851000D01*
X5170600Y-15860524D01*
X5180124Y-15879571D01*
X5189648Y-15917667D01*
X5189648Y-15965286D01*
X5180124Y-16003381D01*
X5170600Y-16022428D01*
X5161076Y-16031952D01*
X5142029Y-16041476D01*
X5122981Y-16041476D01*
X5103933Y-16031952D01*
X5094410Y-16022428D01*
X5084886Y-16003381D01*
X5075362Y-15965286D01*
X5075362Y-15917667D01*
X5084886Y-15879571D01*
X5094410Y-15860524D01*
X5103933Y-15851000D01*
X5122981Y-15841476D01*
X5275362Y-16041476D02*
X5275362Y-15908143D01*
X5275362Y-15927190D02*
X5284886Y-15917667D01*
X5303933Y-15908143D01*
X5332505Y-15908143D01*
X5351552Y-15917667D01*
X5361076Y-15936714D01*
X5361076Y-16041476D01*
X5361076Y-15936714D02*
X5370600Y-15917667D01*
X5389648Y-15908143D01*
X5418219Y-15908143D01*
X5437267Y-15917667D01*
X5446790Y-15936714D01*
X5446790Y-16041476D01*
X5542029Y-16041476D02*
X5542029Y-15908143D01*
X5542029Y-15927190D02*
X5551552Y-15917667D01*
X5570600Y-15908143D01*
X5599171Y-15908143D01*
X5618219Y-15917667D01*
X5627743Y-15936714D01*
X5627743Y-16041476D01*
X5627743Y-15936714D02*
X5637267Y-15917667D01*
X5656314Y-15908143D01*
X5684886Y-15908143D01*
X5703933Y-15917667D01*
X5713457Y-15936714D01*
X5713457Y-16041476D01*
X6103933Y-15831952D02*
X5932505Y-16089095D01*
X6361076Y-15841476D02*
X6380124Y-15841476D01*
X6399171Y-15851000D01*
X6408695Y-15860524D01*
X6418219Y-15879571D01*
X6427743Y-15917667D01*
X6427743Y-15965286D01*
X6418219Y-16003381D01*
X6408695Y-16022428D01*
X6399171Y-16031952D01*
X6380124Y-16041476D01*
X6361076Y-16041476D01*
X6342028Y-16031952D01*
X6332505Y-16022428D01*
X6322981Y-16003381D01*
X6313457Y-15965286D01*
X6313457Y-15917667D01*
X6322981Y-15879571D01*
X6332505Y-15860524D01*
X6342028Y-15851000D01*
X6361076Y-15841476D01*
X6513457Y-16022428D02*
X6522981Y-16031952D01*
X6513457Y-16041476D01*
X6503933Y-16031952D01*
X6513457Y-16022428D01*
X6513457Y-16041476D01*
X6713457Y-16041476D02*
X6599171Y-16041476D01*
X6656314Y-16041476D02*
X6656314Y-15841476D01*
X6637267Y-15870048D01*
X6618219Y-15889095D01*
X6599171Y-15898619D01*
X6789648Y-15860524D02*
X6799171Y-15851000D01*
X6818219Y-15841476D01*
X6865838Y-15841476D01*
X6884886Y-15851000D01*
X6894409Y-15860524D01*
X6903933Y-15879571D01*
X6903933Y-15898619D01*
X6894409Y-15927190D01*
X6780124Y-16041476D01*
X6903933Y-16041476D01*
X6980124Y-15860524D02*
X6989648Y-15851000D01*
X7008695Y-15841476D01*
X7056314Y-15841476D01*
X7075362Y-15851000D01*
X7084886Y-15860524D01*
X7094409Y-15879571D01*
X7094409Y-15898619D01*
X7084886Y-15927190D01*
X6970600Y-16041476D01*
X7094409Y-16041476D01*
X7218219Y-15841476D02*
X7237267Y-15841476D01*
X7256314Y-15851000D01*
X7265838Y-15860524D01*
X7275362Y-15879571D01*
X7284886Y-15917667D01*
X7284886Y-15965286D01*
X7275362Y-16003381D01*
X7265838Y-16022428D01*
X7256314Y-16031952D01*
X7237267Y-16041476D01*
X7218219Y-16041476D01*
X7199171Y-16031952D01*
X7189648Y-16022428D01*
X7180124Y-16003381D01*
X7170600Y-15965286D01*
X7170600Y-15917667D01*
X7180124Y-15879571D01*
X7189648Y-15860524D01*
X7199171Y-15851000D01*
X7218219Y-15841476D01*
X7361076Y-15841476D02*
X7361076Y-15879571D01*
X7437267Y-15841476D02*
X7437267Y-15879571D01*
X7732505Y-16117667D02*
X7722981Y-16108143D01*
X7703933Y-16079571D01*
X7694409Y-16060524D01*
X7684886Y-16031952D01*
X7675362Y-15984333D01*
X7675362Y-15946238D01*
X7684886Y-15898619D01*
X7694409Y-15870048D01*
X7703933Y-15851000D01*
X7722981Y-15822428D01*
X7732505Y-15812905D01*
X7913457Y-16041476D02*
X7799171Y-16041476D01*
X7856314Y-16041476D02*
X7856314Y-15841476D01*
X7837267Y-15870048D01*
X7818219Y-15889095D01*
X7799171Y-15898619D01*
X8151552Y-16041476D02*
X8151552Y-15841476D01*
X8237267Y-16041476D02*
X8237267Y-15936714D01*
X8227743Y-15917667D01*
X8208695Y-15908143D01*
X8180124Y-15908143D01*
X8161076Y-15917667D01*
X8151552Y-15927190D01*
X8361076Y-16041476D02*
X8342028Y-16031952D01*
X8332505Y-16022428D01*
X8322981Y-16003381D01*
X8322981Y-15946238D01*
X8332505Y-15927190D01*
X8342028Y-15917667D01*
X8361076Y-15908143D01*
X8389648Y-15908143D01*
X8408695Y-15917667D01*
X8418219Y-15927190D01*
X8427743Y-15946238D01*
X8427743Y-16003381D01*
X8418219Y-16022428D01*
X8408695Y-16031952D01*
X8389648Y-16041476D01*
X8361076Y-16041476D01*
X8542029Y-16041476D02*
X8522981Y-16031952D01*
X8513457Y-16012905D01*
X8513457Y-15841476D01*
X8694410Y-16031952D02*
X8675362Y-16041476D01*
X8637267Y-16041476D01*
X8618219Y-16031952D01*
X8608695Y-16012905D01*
X8608695Y-15936714D01*
X8618219Y-15917667D01*
X8637267Y-15908143D01*
X8675362Y-15908143D01*
X8694410Y-15917667D01*
X8703933Y-15936714D01*
X8703933Y-15955762D01*
X8608695Y-15974809D01*
X8770600Y-16117667D02*
X8780124Y-16108143D01*
X8799171Y-16079571D01*
X8808695Y-16060524D01*
X8818219Y-16031952D01*
X8827743Y-15984333D01*
X8827743Y-15946238D01*
X8818219Y-15898619D01*
X8808695Y-15870048D01*
X8799171Y-15851000D01*
X8780124Y-15822428D01*
X8770600Y-15812905D01*
X9132505Y-16117667D02*
X9122981Y-16108143D01*
X9103933Y-16079571D01*
X9094410Y-16060524D01*
X9084886Y-16031952D01*
X9075362Y-15984333D01*
X9075362Y-15946238D01*
X9084886Y-15898619D01*
X9094410Y-15870048D01*
X9103933Y-15851000D01*
X9122981Y-15822428D01*
X9132505Y-15812905D01*
X9208695Y-15908143D02*
X9208695Y-16041476D01*
X9208695Y-15927190D02*
X9218219Y-15917667D01*
X9237267Y-15908143D01*
X9265838Y-15908143D01*
X9284886Y-15917667D01*
X9294410Y-15936714D01*
X9294410Y-16041476D01*
X9418219Y-16041476D02*
X9399171Y-16031952D01*
X9389648Y-16022428D01*
X9380124Y-16003381D01*
X9380124Y-15946238D01*
X9389648Y-15927190D01*
X9399171Y-15917667D01*
X9418219Y-15908143D01*
X9446790Y-15908143D01*
X9465838Y-15917667D01*
X9475362Y-15927190D01*
X9484886Y-15946238D01*
X9484886Y-16003381D01*
X9475362Y-16022428D01*
X9465838Y-16031952D01*
X9446790Y-16041476D01*
X9418219Y-16041476D01*
X9542029Y-15908143D02*
X9618219Y-15908143D01*
X9570600Y-15841476D02*
X9570600Y-16012905D01*
X9580124Y-16031952D01*
X9599171Y-16041476D01*
X9618219Y-16041476D01*
X9837267Y-15908143D02*
X9837267Y-16108143D01*
X9837267Y-15917667D02*
X9856314Y-15908143D01*
X9894410Y-15908143D01*
X9913457Y-15917667D01*
X9922981Y-15927190D01*
X9932505Y-15946238D01*
X9932505Y-16003381D01*
X9922981Y-16022428D01*
X9913457Y-16031952D01*
X9894410Y-16041476D01*
X9856314Y-16041476D01*
X9837267Y-16031952D01*
X10046790Y-16041476D02*
X10027743Y-16031952D01*
X10018219Y-16012905D01*
X10018219Y-15841476D01*
X10208695Y-16041476D02*
X10208695Y-15936714D01*
X10199171Y-15917667D01*
X10180124Y-15908143D01*
X10142029Y-15908143D01*
X10122981Y-15917667D01*
X10208695Y-16031952D02*
X10189648Y-16041476D01*
X10142029Y-16041476D01*
X10122981Y-16031952D01*
X10113457Y-16012905D01*
X10113457Y-15993857D01*
X10122981Y-15974809D01*
X10142029Y-15965286D01*
X10189648Y-15965286D01*
X10208695Y-15955762D01*
X10275362Y-15908143D02*
X10351552Y-15908143D01*
X10303933Y-15841476D02*
X10303933Y-16012905D01*
X10313457Y-16031952D01*
X10332505Y-16041476D01*
X10351552Y-16041476D01*
X10494410Y-16031952D02*
X10475362Y-16041476D01*
X10437267Y-16041476D01*
X10418219Y-16031952D01*
X10408695Y-16012905D01*
X10408695Y-15936714D01*
X10418219Y-15917667D01*
X10437267Y-15908143D01*
X10475362Y-15908143D01*
X10494410Y-15917667D01*
X10503933Y-15936714D01*
X10503933Y-15955762D01*
X10408695Y-15974809D01*
X10675362Y-16041476D02*
X10675362Y-15841476D01*
X10675362Y-16031952D02*
X10656314Y-16041476D01*
X10618219Y-16041476D01*
X10599171Y-16031952D01*
X10589648Y-16022428D01*
X10580124Y-16003381D01*
X10580124Y-15946238D01*
X10589648Y-15927190D01*
X10599171Y-15917667D01*
X10618219Y-15908143D01*
X10656314Y-15908143D01*
X10675362Y-15917667D01*
X10751552Y-16117667D02*
X10761076Y-16108143D01*
X10780124Y-16079571D01*
X10789648Y-16060524D01*
X10799171Y-16031952D01*
X10808695Y-15984333D01*
X10808695Y-15946238D01*
X10799171Y-15898619D01*
X10789648Y-15870048D01*
X10780124Y-15851000D01*
X10761076Y-15822428D01*
X10751552Y-15812905D01*
X4060600Y-16171000D02*
X4060600Y-16371000D01*
X3960600Y-16271000D02*
X4160600Y-16271000D01*
X4399171Y-16161476D02*
X4522981Y-16161476D01*
X4456314Y-16237667D01*
X4484886Y-16237667D01*
X4503933Y-16247190D01*
X4513457Y-16256714D01*
X4522981Y-16275762D01*
X4522981Y-16323381D01*
X4513457Y-16342428D01*
X4503933Y-16351952D01*
X4484886Y-16361476D01*
X4427743Y-16361476D01*
X4408695Y-16351952D01*
X4399171Y-16342428D01*
X4608695Y-16342428D02*
X4618219Y-16351952D01*
X4608695Y-16361476D01*
X4599171Y-16351952D01*
X4608695Y-16342428D01*
X4608695Y-16361476D01*
X4694410Y-16180524D02*
X4703933Y-16171000D01*
X4722981Y-16161476D01*
X4770600Y-16161476D01*
X4789648Y-16171000D01*
X4799171Y-16180524D01*
X4808695Y-16199571D01*
X4808695Y-16218619D01*
X4799171Y-16247190D01*
X4684886Y-16361476D01*
X4808695Y-16361476D01*
X4989648Y-16161476D02*
X4894410Y-16161476D01*
X4884886Y-16256714D01*
X4894410Y-16247190D01*
X4913457Y-16237667D01*
X4961076Y-16237667D01*
X4980124Y-16247190D01*
X4989648Y-16256714D01*
X4999171Y-16275762D01*
X4999171Y-16323381D01*
X4989648Y-16342428D01*
X4980124Y-16351952D01*
X4961076Y-16361476D01*
X4913457Y-16361476D01*
X4894410Y-16351952D01*
X4884886Y-16342428D01*
X5122981Y-16161476D02*
X5142029Y-16161476D01*
X5161076Y-16171000D01*
X5170600Y-16180524D01*
X5180124Y-16199571D01*
X5189648Y-16237667D01*
X5189648Y-16285286D01*
X5180124Y-16323381D01*
X5170600Y-16342428D01*
X5161076Y-16351952D01*
X5142029Y-16361476D01*
X5122981Y-16361476D01*
X5103933Y-16351952D01*
X5094410Y-16342428D01*
X5084886Y-16323381D01*
X5075362Y-16285286D01*
X5075362Y-16237667D01*
X5084886Y-16199571D01*
X5094410Y-16180524D01*
X5103933Y-16171000D01*
X5122981Y-16161476D01*
X5275362Y-16361476D02*
X5275362Y-16228143D01*
X5275362Y-16247190D02*
X5284886Y-16237667D01*
X5303933Y-16228143D01*
X5332505Y-16228143D01*
X5351552Y-16237667D01*
X5361076Y-16256714D01*
X5361076Y-16361476D01*
X5361076Y-16256714D02*
X5370600Y-16237667D01*
X5389648Y-16228143D01*
X5418219Y-16228143D01*
X5437267Y-16237667D01*
X5446790Y-16256714D01*
X5446790Y-16361476D01*
X5542029Y-16361476D02*
X5542029Y-16228143D01*
X5542029Y-16247190D02*
X5551552Y-16237667D01*
X5570600Y-16228143D01*
X5599171Y-16228143D01*
X5618219Y-16237667D01*
X5627743Y-16256714D01*
X5627743Y-16361476D01*
X5627743Y-16256714D02*
X5637267Y-16237667D01*
X5656314Y-16228143D01*
X5684886Y-16228143D01*
X5703933Y-16237667D01*
X5713457Y-16256714D01*
X5713457Y-16361476D01*
X6103933Y-16151952D02*
X5932505Y-16409095D01*
X6361076Y-16161476D02*
X6380124Y-16161476D01*
X6399171Y-16171000D01*
X6408695Y-16180524D01*
X6418219Y-16199571D01*
X6427743Y-16237667D01*
X6427743Y-16285286D01*
X6418219Y-16323381D01*
X6408695Y-16342428D01*
X6399171Y-16351952D01*
X6380124Y-16361476D01*
X6361076Y-16361476D01*
X6342028Y-16351952D01*
X6332505Y-16342428D01*
X6322981Y-16323381D01*
X6313457Y-16285286D01*
X6313457Y-16237667D01*
X6322981Y-16199571D01*
X6332505Y-16180524D01*
X6342028Y-16171000D01*
X6361076Y-16161476D01*
X6513457Y-16342428D02*
X6522981Y-16351952D01*
X6513457Y-16361476D01*
X6503933Y-16351952D01*
X6513457Y-16342428D01*
X6513457Y-16361476D01*
X6713457Y-16361476D02*
X6599171Y-16361476D01*
X6656314Y-16361476D02*
X6656314Y-16161476D01*
X6637267Y-16190048D01*
X6618219Y-16209095D01*
X6599171Y-16218619D01*
X6789648Y-16180524D02*
X6799171Y-16171000D01*
X6818219Y-16161476D01*
X6865838Y-16161476D01*
X6884886Y-16171000D01*
X6894409Y-16180524D01*
X6903933Y-16199571D01*
X6903933Y-16218619D01*
X6894409Y-16247190D01*
X6780124Y-16361476D01*
X6903933Y-16361476D01*
X7018219Y-16247190D02*
X6999171Y-16237667D01*
X6989648Y-16228143D01*
X6980124Y-16209095D01*
X6980124Y-16199571D01*
X6989648Y-16180524D01*
X6999171Y-16171000D01*
X7018219Y-16161476D01*
X7056314Y-16161476D01*
X7075362Y-16171000D01*
X7084886Y-16180524D01*
X7094409Y-16199571D01*
X7094409Y-16209095D01*
X7084886Y-16228143D01*
X7075362Y-16237667D01*
X7056314Y-16247190D01*
X7018219Y-16247190D01*
X6999171Y-16256714D01*
X6989648Y-16266238D01*
X6980124Y-16285286D01*
X6980124Y-16323381D01*
X6989648Y-16342428D01*
X6999171Y-16351952D01*
X7018219Y-16361476D01*
X7056314Y-16361476D01*
X7075362Y-16351952D01*
X7084886Y-16342428D01*
X7094409Y-16323381D01*
X7094409Y-16285286D01*
X7084886Y-16266238D01*
X7075362Y-16256714D01*
X7056314Y-16247190D01*
X7218219Y-16161476D02*
X7237267Y-16161476D01*
X7256314Y-16171000D01*
X7265838Y-16180524D01*
X7275362Y-16199571D01*
X7284886Y-16237667D01*
X7284886Y-16285286D01*
X7275362Y-16323381D01*
X7265838Y-16342428D01*
X7256314Y-16351952D01*
X7237267Y-16361476D01*
X7218219Y-16361476D01*
X7199171Y-16351952D01*
X7189648Y-16342428D01*
X7180124Y-16323381D01*
X7170600Y-16285286D01*
X7170600Y-16237667D01*
X7180124Y-16199571D01*
X7189648Y-16180524D01*
X7199171Y-16171000D01*
X7218219Y-16161476D01*
X7361076Y-16161476D02*
X7361076Y-16199571D01*
X7437267Y-16161476D02*
X7437267Y-16199571D01*
X7732505Y-16437667D02*
X7722981Y-16428143D01*
X7703933Y-16399571D01*
X7694409Y-16380524D01*
X7684886Y-16351952D01*
X7675362Y-16304333D01*
X7675362Y-16266238D01*
X7684886Y-16218619D01*
X7694409Y-16190048D01*
X7703933Y-16171000D01*
X7722981Y-16142428D01*
X7732505Y-16132905D01*
X7799171Y-16180524D02*
X7808695Y-16171000D01*
X7827743Y-16161476D01*
X7875362Y-16161476D01*
X7894409Y-16171000D01*
X7903933Y-16180524D01*
X7913457Y-16199571D01*
X7913457Y-16218619D01*
X7903933Y-16247190D01*
X7789648Y-16361476D01*
X7913457Y-16361476D01*
X8151552Y-16361476D02*
X8151552Y-16161476D01*
X8237267Y-16361476D02*
X8237267Y-16256714D01*
X8227743Y-16237667D01*
X8208695Y-16228143D01*
X8180124Y-16228143D01*
X8161076Y-16237667D01*
X8151552Y-16247190D01*
X8361076Y-16361476D02*
X8342028Y-16351952D01*
X8332505Y-16342428D01*
X8322981Y-16323381D01*
X8322981Y-16266238D01*
X8332505Y-16247190D01*
X8342028Y-16237667D01*
X8361076Y-16228143D01*
X8389648Y-16228143D01*
X8408695Y-16237667D01*
X8418219Y-16247190D01*
X8427743Y-16266238D01*
X8427743Y-16323381D01*
X8418219Y-16342428D01*
X8408695Y-16351952D01*
X8389648Y-16361476D01*
X8361076Y-16361476D01*
X8542029Y-16361476D02*
X8522981Y-16351952D01*
X8513457Y-16332905D01*
X8513457Y-16161476D01*
X8694410Y-16351952D02*
X8675362Y-16361476D01*
X8637267Y-16361476D01*
X8618219Y-16351952D01*
X8608695Y-16332905D01*
X8608695Y-16256714D01*
X8618219Y-16237667D01*
X8637267Y-16228143D01*
X8675362Y-16228143D01*
X8694410Y-16237667D01*
X8703933Y-16256714D01*
X8703933Y-16275762D01*
X8608695Y-16294809D01*
X8780124Y-16351952D02*
X8799171Y-16361476D01*
X8837267Y-16361476D01*
X8856314Y-16351952D01*
X8865838Y-16332905D01*
X8865838Y-16323381D01*
X8856314Y-16304333D01*
X8837267Y-16294809D01*
X8808695Y-16294809D01*
X8789648Y-16285286D01*
X8780124Y-16266238D01*
X8780124Y-16256714D01*
X8789648Y-16237667D01*
X8808695Y-16228143D01*
X8837267Y-16228143D01*
X8856314Y-16237667D01*
X8932505Y-16437667D02*
X8942029Y-16428143D01*
X8961076Y-16399571D01*
X8970600Y-16380524D01*
X8980124Y-16351952D01*
X8989648Y-16304333D01*
X8989648Y-16266238D01*
X8980124Y-16218619D01*
X8970600Y-16190048D01*
X8961076Y-16171000D01*
X8942029Y-16142428D01*
X8932505Y-16132905D01*
X9294410Y-16437667D02*
X9284886Y-16428143D01*
X9265838Y-16399571D01*
X9256314Y-16380524D01*
X9246790Y-16351952D01*
X9237267Y-16304333D01*
X9237267Y-16266238D01*
X9246790Y-16218619D01*
X9256314Y-16190048D01*
X9265838Y-16171000D01*
X9284886Y-16142428D01*
X9294410Y-16132905D01*
X9370600Y-16228143D02*
X9370600Y-16361476D01*
X9370600Y-16247190D02*
X9380124Y-16237667D01*
X9399171Y-16228143D01*
X9427743Y-16228143D01*
X9446790Y-16237667D01*
X9456314Y-16256714D01*
X9456314Y-16361476D01*
X9580124Y-16361476D02*
X9561076Y-16351952D01*
X9551552Y-16342428D01*
X9542029Y-16323381D01*
X9542029Y-16266238D01*
X9551552Y-16247190D01*
X9561076Y-16237667D01*
X9580124Y-16228143D01*
X9608695Y-16228143D01*
X9627743Y-16237667D01*
X9637267Y-16247190D01*
X9646790Y-16266238D01*
X9646790Y-16323381D01*
X9637267Y-16342428D01*
X9627743Y-16351952D01*
X9608695Y-16361476D01*
X9580124Y-16361476D01*
X9703933Y-16228143D02*
X9780124Y-16228143D01*
X9732505Y-16161476D02*
X9732505Y-16332905D01*
X9742029Y-16351952D01*
X9761076Y-16361476D01*
X9780124Y-16361476D01*
X9999171Y-16228143D02*
X9999171Y-16428143D01*
X9999171Y-16237667D02*
X10018219Y-16228143D01*
X10056314Y-16228143D01*
X10075362Y-16237667D01*
X10084886Y-16247190D01*
X10094410Y-16266238D01*
X10094410Y-16323381D01*
X10084886Y-16342428D01*
X10075362Y-16351952D01*
X10056314Y-16361476D01*
X10018219Y-16361476D01*
X9999171Y-16351952D01*
X10208695Y-16361476D02*
X10189648Y-16351952D01*
X10180124Y-16332905D01*
X10180124Y-16161476D01*
X10370600Y-16361476D02*
X10370600Y-16256714D01*
X10361076Y-16237667D01*
X10342029Y-16228143D01*
X10303933Y-16228143D01*
X10284886Y-16237667D01*
X10370600Y-16351952D02*
X10351552Y-16361476D01*
X10303933Y-16361476D01*
X10284886Y-16351952D01*
X10275362Y-16332905D01*
X10275362Y-16313857D01*
X10284886Y-16294809D01*
X10303933Y-16285286D01*
X10351552Y-16285286D01*
X10370600Y-16275762D01*
X10437267Y-16228143D02*
X10513457Y-16228143D01*
X10465838Y-16161476D02*
X10465838Y-16332905D01*
X10475362Y-16351952D01*
X10494410Y-16361476D01*
X10513457Y-16361476D01*
X10656314Y-16351952D02*
X10637267Y-16361476D01*
X10599171Y-16361476D01*
X10580124Y-16351952D01*
X10570600Y-16332905D01*
X10570600Y-16256714D01*
X10580124Y-16237667D01*
X10599171Y-16228143D01*
X10637267Y-16228143D01*
X10656314Y-16237667D01*
X10665838Y-16256714D01*
X10665838Y-16275762D01*
X10570600Y-16294809D01*
X10837267Y-16361476D02*
X10837267Y-16161476D01*
X10837267Y-16351952D02*
X10818219Y-16361476D01*
X10780124Y-16361476D01*
X10761076Y-16351952D01*
X10751552Y-16342428D01*
X10742029Y-16323381D01*
X10742029Y-16266238D01*
X10751552Y-16247190D01*
X10761076Y-16237667D01*
X10780124Y-16228143D01*
X10818219Y-16228143D01*
X10837267Y-16237667D01*
X10913457Y-16437667D02*
X10922981Y-16428143D01*
X10942029Y-16399571D01*
X10951552Y-16380524D01*
X10961076Y-16351952D01*
X10970600Y-16304333D01*
X10970600Y-16266238D01*
X10961076Y-16218619D01*
X10951552Y-16190048D01*
X10942029Y-16171000D01*
X10922981Y-16142428D01*
X10913457Y-16132905D01*
M02*
