M48
; DRILL file {KiCad (5.1.9-0-10_14)} date Sunday, May 15, 2022 at 06:46:07 PM
; FORMAT={-:-/ absolute / inch / decimal}
; #@! TF.CreationDate,2022-05-15T18:46:07-07:00
; #@! TF.GenerationSoftware,Kicad,Pcbnew,(5.1.9-0-10_14)
FMAT,2
INCH
T1C0.0157
T2C0.0402
T3C0.0433
T4C0.0701
T5C0.0709
T6C0.1260
T7C0.1181
T8C0.1220
%
G90
G05
T1
X2.165Y-5.05
X2.165Y-5.125
X2.1903Y-4.9753
X2.2403Y-4.9253
X2.2903Y-4.8753
X2.3403Y-4.8253
X4.7797Y-4.9653
X4.78Y-5.015
X4.78Y-5.065
T2
X2.3559Y-4.3101
X2.4741Y-4.3101
X2.6469Y-5.52
X2.765Y-5.52
X2.8059Y-4.3101
X2.9241Y-4.3101
X3.1059Y-5.52
X3.2241Y-5.52
X3.2559Y-4.3101
X3.3741Y-4.3101
X3.5569Y-5.52
X3.675Y-5.52
X3.7059Y-4.3101
X3.8241Y-4.3101
X4.1019Y-5.52
X4.1559Y-4.3101
X4.22Y-5.52
X4.2741Y-4.3101
X4.5719Y-5.52
X4.6059Y-4.3101
X4.69Y-5.52
X4.7241Y-4.3101
T3
X2.2Y-4.29
X2.26Y-4.1
T4
X2.7411Y-4.675
X2.7411Y-5.0656
X2.875Y-4.675
X2.875Y-5.0656
X3.0911Y-4.675
X3.0911Y-5.0656
X3.225Y-4.675
X3.225Y-5.0656
X3.4411Y-4.68
X3.4411Y-5.0706
X3.575Y-4.68
X3.575Y-5.0706
X3.7911Y-4.675
X3.7911Y-5.0656
X3.925Y-4.675
X3.925Y-5.0656
X4.1411Y-4.675
X4.1411Y-5.0656
X4.275Y-4.675
X4.275Y-5.0656
T5
X2.415Y-4.7506
X2.415Y-4.975
T6
X1.815Y-4.1
X1.815Y-5.725
X5.04Y-4.1
X5.04Y-5.725
T7
X2.415Y-4.14
X2.7059Y-5.6901
X2.865Y-4.14
X3.165Y-5.6901
X3.315Y-4.14
X3.6159Y-5.6901
X3.765Y-4.14
X4.1609Y-5.6901
X4.215Y-4.14
X4.6309Y-5.6901
X4.665Y-4.14
T8
X2.1276Y-4.8628
T0
M30
