%TF.GenerationSoftware,KiCad,Pcbnew,(6.0.4)*%
%TF.CreationDate,2023-05-16T23:09:25-04:00*%
%TF.ProjectId,PROTO_PCB,50524f54-4f5f-4504-9342-2e6b69636164,rev?*%
%TF.SameCoordinates,Original*%
%TF.FileFunction,Legend,Bot*%
%TF.FilePolarity,Positive*%
%FSLAX46Y46*%
G04 Gerber Fmt 4.6, Leading zero omitted, Abs format (unit mm)*
G04 Created by KiCad (PCBNEW (6.0.4)) date 2023-05-16 23:09:25*
%MOMM*%
%LPD*%
G01*
G04 APERTURE LIST*
G04 Aperture macros list*
%AMRoundRect*
0 Rectangle with rounded corners*
0 $1 Rounding radius*
0 $2 $3 $4 $5 $6 $7 $8 $9 X,Y pos of 4 corners*
0 Add a 4 corners polygon primitive as box body*
4,1,4,$2,$3,$4,$5,$6,$7,$8,$9,$2,$3,0*
0 Add four circle primitives for the rounded corners*
1,1,$1+$1,$2,$3*
1,1,$1+$1,$4,$5*
1,1,$1+$1,$6,$7*
1,1,$1+$1,$8,$9*
0 Add four rect primitives between the rounded corners*
20,1,$1+$1,$2,$3,$4,$5,0*
20,1,$1+$1,$4,$5,$6,$7,0*
20,1,$1+$1,$6,$7,$8,$9,0*
20,1,$1+$1,$8,$9,$2,$3,0*%
G04 Aperture macros list end*
%ADD10C,0.300000*%
%ADD11C,1.226200*%
%ADD12C,1.626200*%
%ADD13C,0.010000*%
%ADD14C,4.000000*%
%ADD15C,2.780000*%
%ADD16C,3.000000*%
%ADD17RoundRect,0.250000X0.500000X0.760000X-0.500000X0.760000X-0.500000X-0.760000X0.500000X-0.760000X0*%
%ADD18O,1.500000X2.020000*%
%ADD19RoundRect,0.250000X-0.500000X-0.760000X0.500000X-0.760000X0.500000X0.760000X-0.500000X0.760000X0*%
%ADD20C,3.100000*%
%ADD21C,3.250000*%
%ADD22R,1.500000X1.500000*%
%ADD23C,1.500000*%
%ADD24C,2.300000*%
%ADD25R,1.700000X1.700000*%
%ADD26O,1.700000X1.700000*%
G04 APERTURE END LIST*
D10*
X88718571Y-146267852D02*
X88863714Y-146195280D01*
X89081428Y-146195280D01*
X89299142Y-146267852D01*
X89444285Y-146412994D01*
X89516857Y-146558137D01*
X89589428Y-146848423D01*
X89589428Y-147066137D01*
X89516857Y-147356423D01*
X89444285Y-147501566D01*
X89299142Y-147646709D01*
X89081428Y-147719280D01*
X88936285Y-147719280D01*
X88718571Y-147646709D01*
X88646000Y-147574137D01*
X88646000Y-147066137D01*
X88936285Y-147066137D01*
X87775142Y-146195280D02*
X87775142Y-146558137D01*
X88138000Y-146412994D02*
X87775142Y-146558137D01*
X87412285Y-146412994D01*
X87992857Y-146848423D02*
X87775142Y-146558137D01*
X87557428Y-146848423D01*
X86614000Y-146195280D02*
X86614000Y-146558137D01*
X86976857Y-146412994D02*
X86614000Y-146558137D01*
X86251142Y-146412994D01*
X86831714Y-146848423D02*
X86614000Y-146558137D01*
X86396285Y-146848423D01*
X85452857Y-146195280D02*
X85452857Y-146558137D01*
X85815714Y-146412994D02*
X85452857Y-146558137D01*
X85090000Y-146412994D01*
X85670571Y-146848423D02*
X85452857Y-146558137D01*
X85235142Y-146848423D01*
X89202158Y-129491708D02*
X89347301Y-129419136D01*
X89565015Y-129419136D01*
X89782729Y-129491708D01*
X89927872Y-129636850D01*
X90000444Y-129781993D01*
X90073015Y-130072279D01*
X90073015Y-130289993D01*
X90000444Y-130580279D01*
X89927872Y-130725422D01*
X89782729Y-130870565D01*
X89565015Y-130943136D01*
X89419872Y-130943136D01*
X89202158Y-130870565D01*
X89129587Y-130797993D01*
X89129587Y-130289993D01*
X89419872Y-130289993D01*
X88258729Y-129419136D02*
X88258729Y-129781993D01*
X88621587Y-129636850D02*
X88258729Y-129781993D01*
X87895872Y-129636850D01*
X88476444Y-130072279D02*
X88258729Y-129781993D01*
X88041015Y-130072279D01*
X87097587Y-129419136D02*
X87097587Y-129781993D01*
X87460444Y-129636850D02*
X87097587Y-129781993D01*
X86734729Y-129636850D01*
X87315301Y-130072279D02*
X87097587Y-129781993D01*
X86879872Y-130072279D01*
X85936444Y-129419136D02*
X85936444Y-129781993D01*
X86299301Y-129636850D02*
X85936444Y-129781993D01*
X85573587Y-129636850D01*
X86154158Y-130072279D02*
X85936444Y-129781993D01*
X85718729Y-130072279D01*
G36*
X91469286Y-147329225D02*
G01*
X91460443Y-147475397D01*
X91445474Y-147598429D01*
X91422352Y-147708632D01*
X91389051Y-147816315D01*
X91343544Y-147931788D01*
X91325323Y-147976529D01*
X91299727Y-148054412D01*
X91286058Y-148129482D01*
X91283684Y-148211244D01*
X91291975Y-148309203D01*
X91310301Y-148432864D01*
X91325151Y-148532593D01*
X91342506Y-148717600D01*
X91344746Y-148900738D01*
X91331449Y-149090558D01*
X91302194Y-149295612D01*
X91256560Y-149524453D01*
X91250485Y-149551788D01*
X91230436Y-149640776D01*
X91213139Y-149715751D01*
X91200270Y-149769518D01*
X91193508Y-149794880D01*
X91190949Y-149796405D01*
X91175945Y-149798965D01*
X91146521Y-149801325D01*
X91101453Y-149803492D01*
X91039518Y-149805472D01*
X90959492Y-149807274D01*
X90860151Y-149808903D01*
X90740274Y-149810368D01*
X90598635Y-149811675D01*
X90434012Y-149812831D01*
X90245181Y-149813843D01*
X90030919Y-149814719D01*
X89790002Y-149815465D01*
X89521207Y-149816089D01*
X89223311Y-149816597D01*
X88895091Y-149816998D01*
X88535322Y-149817296D01*
X88142781Y-149817501D01*
X87716246Y-149817619D01*
X87254492Y-149817656D01*
X86919825Y-149817603D01*
X86542949Y-149817410D01*
X86179266Y-149817084D01*
X85830327Y-149816630D01*
X85497681Y-149816054D01*
X85182879Y-149815363D01*
X84887469Y-149814563D01*
X84613003Y-149813660D01*
X84361029Y-149812660D01*
X84133099Y-149811570D01*
X83930760Y-149810396D01*
X83755565Y-149809144D01*
X83609062Y-149807820D01*
X83492801Y-149806430D01*
X83408332Y-149804982D01*
X83357206Y-149803480D01*
X83340971Y-149801931D01*
X83359994Y-149787159D01*
X83406828Y-149753598D01*
X83475487Y-149705710D01*
X83561309Y-149646651D01*
X83648897Y-149586902D01*
X84090200Y-149586902D01*
X84107753Y-149588084D01*
X84160063Y-149589287D01*
X84245327Y-149590449D01*
X84361761Y-149591565D01*
X84507581Y-149592627D01*
X84681002Y-149593630D01*
X84880241Y-149594566D01*
X85103513Y-149595431D01*
X85349034Y-149596218D01*
X85615021Y-149596920D01*
X85899688Y-149597531D01*
X86201252Y-149598045D01*
X86517929Y-149598456D01*
X86847934Y-149598757D01*
X87189484Y-149598942D01*
X87540794Y-149599005D01*
X87636727Y-149599003D01*
X88060466Y-149598940D01*
X88449351Y-149598781D01*
X88804690Y-149598518D01*
X89127789Y-149598142D01*
X89419954Y-149597645D01*
X89682494Y-149597019D01*
X89916714Y-149596253D01*
X90123921Y-149595341D01*
X90305423Y-149594272D01*
X90462526Y-149593040D01*
X90596536Y-149591634D01*
X90708762Y-149590047D01*
X90800509Y-149588270D01*
X90873084Y-149586294D01*
X90927795Y-149584110D01*
X90965947Y-149581710D01*
X90988849Y-149579086D01*
X90997806Y-149576229D01*
X91001951Y-149569959D01*
X91018774Y-149525953D01*
X91036962Y-149454634D01*
X91055312Y-149363101D01*
X91072620Y-149258454D01*
X91087681Y-149147794D01*
X91099291Y-149038219D01*
X91106247Y-148936829D01*
X91107035Y-148916705D01*
X91108242Y-148817770D01*
X91105776Y-148716177D01*
X91100211Y-148618443D01*
X91092124Y-148531084D01*
X91082091Y-148460616D01*
X91070687Y-148413557D01*
X91058488Y-148396423D01*
X91045008Y-148406502D01*
X91015451Y-148438822D01*
X90977836Y-148485673D01*
X90920980Y-148553210D01*
X90841542Y-148637467D01*
X90748187Y-148729910D01*
X90648490Y-148823434D01*
X90550029Y-148910938D01*
X90460379Y-148985319D01*
X90387116Y-149039474D01*
X90356151Y-149059785D01*
X90100477Y-149203958D01*
X89833469Y-149313584D01*
X89554392Y-149388971D01*
X89500259Y-149399796D01*
X89447055Y-149408387D01*
X89412925Y-149408787D01*
X89388165Y-149400743D01*
X89363072Y-149384002D01*
X89329281Y-149346862D01*
X89310872Y-149302216D01*
X89310428Y-149280715D01*
X89331967Y-149230268D01*
X89385803Y-149193860D01*
X89470506Y-149172652D01*
X89503183Y-149167719D01*
X89661848Y-149129935D01*
X89833007Y-149069634D01*
X90007352Y-148990919D01*
X90175572Y-148897892D01*
X90328359Y-148794654D01*
X90445897Y-148698576D01*
X90581344Y-148570967D01*
X90713881Y-148429689D01*
X90838998Y-148280475D01*
X90952184Y-148129056D01*
X91048926Y-147981164D01*
X91124715Y-147842531D01*
X91175039Y-147718889D01*
X91200606Y-147628516D01*
X91241704Y-147391833D01*
X91250022Y-147140130D01*
X91225556Y-146873112D01*
X91168305Y-146590482D01*
X91099070Y-146349851D01*
X90988479Y-146050078D01*
X90856421Y-145767930D01*
X90705115Y-145507550D01*
X90536779Y-145273080D01*
X90353630Y-145068664D01*
X90344538Y-145059696D01*
X90133609Y-144871794D01*
X89920113Y-144720202D01*
X89703742Y-144604858D01*
X89484187Y-144525704D01*
X89261142Y-144482677D01*
X89034298Y-144475718D01*
X88803349Y-144504766D01*
X88567985Y-144569761D01*
X88327900Y-144670643D01*
X88311422Y-144678743D01*
X88223479Y-144723875D01*
X88154693Y-144764659D01*
X88094160Y-144808936D01*
X88030976Y-144864546D01*
X87954238Y-144939330D01*
X87845706Y-145055653D01*
X87738160Y-145197569D01*
X87655799Y-145345813D01*
X87593471Y-145509982D01*
X87546025Y-145699674D01*
X87531377Y-145763273D01*
X87507614Y-145840085D01*
X87475337Y-145917757D01*
X87431644Y-146001765D01*
X87373630Y-146097585D01*
X87298392Y-146210693D01*
X87203027Y-146346566D01*
X87103951Y-146488942D01*
X86997917Y-146654173D01*
X86915500Y-146802603D01*
X86855298Y-146939100D01*
X86815911Y-147068529D01*
X86795936Y-147195759D01*
X86793974Y-147325657D01*
X86808623Y-147463089D01*
X86838482Y-147612922D01*
X86865677Y-147737885D01*
X86882235Y-147846215D01*
X86884563Y-147937081D01*
X86870105Y-148014066D01*
X86836306Y-148080755D01*
X86780610Y-148140730D01*
X86700460Y-148197575D01*
X86593301Y-148254874D01*
X86456578Y-148316212D01*
X86287733Y-148385170D01*
X85911381Y-148544366D01*
X85497687Y-148739318D01*
X85088729Y-148952039D01*
X84697521Y-149176059D01*
X84602362Y-149233981D01*
X84484293Y-149307644D01*
X84374931Y-149377793D01*
X84278034Y-149441887D01*
X84197356Y-149497386D01*
X84136654Y-149541748D01*
X84099684Y-149572434D01*
X84090200Y-149586902D01*
X83648897Y-149586902D01*
X83659634Y-149579578D01*
X83765799Y-149507648D01*
X83875145Y-149434017D01*
X83983010Y-149361840D01*
X84084733Y-149294275D01*
X84175652Y-149234478D01*
X84251108Y-149185606D01*
X84529473Y-149011402D01*
X84866837Y-148812496D01*
X85197100Y-148632618D01*
X85529554Y-148466967D01*
X85873497Y-148310741D01*
X86238222Y-148159139D01*
X86246538Y-148155815D01*
X86340951Y-148117296D01*
X86430843Y-148079347D01*
X86506397Y-148046182D01*
X86557801Y-148022010D01*
X86604124Y-147997300D01*
X86633473Y-147973837D01*
X86645100Y-147944932D01*
X86647162Y-147899389D01*
X86643428Y-147851528D01*
X86633224Y-147778034D01*
X86618112Y-147689015D01*
X86599655Y-147594496D01*
X86581355Y-147496232D01*
X86563545Y-147340087D01*
X86563369Y-147192223D01*
X86582210Y-147048009D01*
X86621451Y-146902817D01*
X86682473Y-146752015D01*
X86766658Y-146590974D01*
X86875389Y-146415064D01*
X87010047Y-146219656D01*
X87088223Y-146109861D01*
X87157117Y-146010526D01*
X87209746Y-145929993D01*
X87249031Y-145862786D01*
X87277892Y-145803431D01*
X87299250Y-145746453D01*
X87316027Y-145686377D01*
X87331141Y-145617728D01*
X87366077Y-145476498D01*
X87450717Y-145249291D01*
X87565755Y-145040820D01*
X87709888Y-144852464D01*
X87881808Y-144685603D01*
X88080213Y-144541617D01*
X88303795Y-144421886D01*
X88551251Y-144327789D01*
X88617652Y-144308519D01*
X88848709Y-144262011D01*
X89084454Y-144244117D01*
X89316180Y-144255124D01*
X89535182Y-144295321D01*
X89735182Y-144363530D01*
X89941243Y-144464341D01*
X90145841Y-144593333D01*
X90344192Y-144746799D01*
X90531511Y-144921034D01*
X90703015Y-145112330D01*
X90853918Y-145316980D01*
X90993396Y-145543629D01*
X91152671Y-145852051D01*
X91283105Y-146168145D01*
X91382516Y-146486460D01*
X91448718Y-146801545D01*
X91448945Y-146802999D01*
X91463197Y-146911221D01*
X91471237Y-147019391D01*
X91473622Y-147139579D01*
X91473612Y-147140130D01*
X91470906Y-147283854D01*
X91469286Y-147329225D01*
G37*
G36*
X89555752Y-146087016D02*
G01*
X89552698Y-146182578D01*
X89538279Y-146356140D01*
X89499357Y-146613773D01*
X89438703Y-146853261D01*
X89353850Y-147080823D01*
X89242332Y-147302676D01*
X89101682Y-147525041D01*
X88929434Y-147754134D01*
X88876356Y-147819344D01*
X88831556Y-147873051D01*
X88800031Y-147909346D01*
X88786490Y-147922678D01*
X88784112Y-147920919D01*
X88767935Y-147895644D01*
X88740475Y-147844893D01*
X88704544Y-147774483D01*
X88662955Y-147690229D01*
X88618517Y-147597947D01*
X88574044Y-147503455D01*
X88532345Y-147412568D01*
X88496234Y-147331102D01*
X88468520Y-147264874D01*
X88388249Y-147043837D01*
X88306488Y-146758684D01*
X88248424Y-146474576D01*
X88214599Y-146196327D01*
X88208282Y-146009479D01*
X88443475Y-146009479D01*
X88443645Y-146036212D01*
X88445757Y-146159491D01*
X88450699Y-146260048D01*
X88459551Y-146349399D01*
X88473392Y-146439061D01*
X88493305Y-146540548D01*
X88532857Y-146710536D01*
X88624452Y-147019195D01*
X88736552Y-147310894D01*
X88755775Y-147353734D01*
X88786721Y-147416867D01*
X88812128Y-147461650D01*
X88827854Y-147480398D01*
X88844681Y-147471716D01*
X88876338Y-147436592D01*
X88917876Y-147380194D01*
X88965495Y-147308289D01*
X89015394Y-147226641D01*
X89063772Y-147141018D01*
X89106828Y-147057183D01*
X89169765Y-146915584D01*
X89231701Y-146738147D01*
X89275894Y-146553904D01*
X89304466Y-146353584D01*
X89319540Y-146127915D01*
X89320492Y-146100260D01*
X89322700Y-145941990D01*
X89319369Y-145795900D01*
X89310916Y-145666809D01*
X89297759Y-145559538D01*
X89280316Y-145478907D01*
X89259005Y-145429733D01*
X89235549Y-145402517D01*
X89158878Y-145347526D01*
X89060156Y-145308617D01*
X88947734Y-145287673D01*
X88829962Y-145286574D01*
X88715192Y-145307202D01*
X88709629Y-145308841D01*
X88634252Y-145337102D01*
X88573877Y-145374631D01*
X88527020Y-145425267D01*
X88492193Y-145492851D01*
X88467911Y-145581224D01*
X88452688Y-145694226D01*
X88445038Y-145835697D01*
X88443475Y-146009479D01*
X88208282Y-146009479D01*
X88205553Y-145928751D01*
X88221828Y-145676664D01*
X88263964Y-145444880D01*
X88301183Y-145342718D01*
X88372238Y-145239317D01*
X88471964Y-145158038D01*
X88600591Y-145098702D01*
X88758350Y-145061130D01*
X88871654Y-145051165D01*
X89017235Y-145060332D01*
X89153611Y-145092734D01*
X89275706Y-145146018D01*
X89378442Y-145217828D01*
X89456741Y-145305811D01*
X89505525Y-145407610D01*
X89512612Y-145437027D01*
X89524625Y-145513514D01*
X89535375Y-145613663D01*
X89544361Y-145729281D01*
X89551085Y-145852174D01*
X89554003Y-145941990D01*
X89555048Y-145974151D01*
X89555752Y-146087016D01*
G37*
G36*
X90185521Y-145307268D02*
G01*
X90236715Y-145329107D01*
X90280544Y-145364083D01*
X90329148Y-145436145D01*
X90357380Y-145524309D01*
X90364871Y-145619887D01*
X90351258Y-145714188D01*
X90316173Y-145798524D01*
X90259252Y-145864207D01*
X90242365Y-145875411D01*
X90175501Y-145896892D01*
X90102418Y-145895818D01*
X90040069Y-145871617D01*
X89988015Y-145815986D01*
X89950002Y-145735592D01*
X89929809Y-145641967D01*
X89929661Y-145545570D01*
X89951786Y-145456859D01*
X89981321Y-145406442D01*
X90031419Y-145352755D01*
X90087798Y-145313855D01*
X90139615Y-145298862D01*
X90185521Y-145307268D01*
G37*
G36*
X88060744Y-145332281D02*
G01*
X88096069Y-145360060D01*
X88147450Y-145431332D01*
X88177221Y-145519073D01*
X88185141Y-145614653D01*
X88170973Y-145709439D01*
X88134477Y-145794799D01*
X88075413Y-145862102D01*
X88029018Y-145889967D01*
X87961698Y-145902963D01*
X87897711Y-145887407D01*
X87840465Y-145847928D01*
X87793370Y-145789157D01*
X87759835Y-145715722D01*
X87743270Y-145632255D01*
X87747085Y-145543384D01*
X87774688Y-145453740D01*
X87792139Y-145420061D01*
X87848278Y-145349891D01*
X87914586Y-145310670D01*
X87986822Y-145304200D01*
X88060744Y-145332281D01*
G37*
G36*
X114257123Y-127729018D02*
G01*
X114303514Y-128005615D01*
X114332789Y-128186539D01*
X114342985Y-128260363D01*
X114341210Y-128269607D01*
X114311576Y-128292481D01*
X114235855Y-128309105D01*
X114101674Y-128319878D01*
X113896663Y-128325201D01*
X113608449Y-128325474D01*
X113224662Y-128321098D01*
X112732928Y-128312474D01*
X112391106Y-128305117D01*
X111883825Y-128289339D01*
X111470809Y-128267218D01*
X111135502Y-128235826D01*
X110861347Y-128192237D01*
X110631789Y-128133526D01*
X110430272Y-128056765D01*
X110240241Y-127959028D01*
X110045138Y-127837390D01*
X109980055Y-127792070D01*
X109667744Y-127502188D01*
X109423107Y-127150320D01*
X109254073Y-126759768D01*
X109174439Y-126381690D01*
X110526847Y-126381690D01*
X110571461Y-126520115D01*
X110714665Y-126754746D01*
X110914280Y-126962888D01*
X111135031Y-127102721D01*
X111193243Y-127121074D01*
X111370209Y-127151207D01*
X111606494Y-127172475D01*
X111876482Y-127184787D01*
X112154555Y-127188052D01*
X112415095Y-127182178D01*
X112632484Y-127167072D01*
X112781106Y-127142645D01*
X112835341Y-127108803D01*
X112835131Y-127105371D01*
X112821988Y-127010078D01*
X112791823Y-126824086D01*
X112748854Y-126572692D01*
X112697302Y-126281196D01*
X112562182Y-125528827D01*
X111812425Y-125533124D01*
X111659558Y-125534586D01*
X111355076Y-125543694D01*
X111136842Y-125562851D01*
X110980654Y-125594842D01*
X110862309Y-125642453D01*
X110809767Y-125673638D01*
X110628282Y-125860214D01*
X110528851Y-126107523D01*
X110526847Y-126381690D01*
X109174439Y-126381690D01*
X109168572Y-126353833D01*
X109174537Y-125955815D01*
X109279896Y-125589016D01*
X109313230Y-125519871D01*
X109437559Y-125326596D01*
X109604331Y-125176876D01*
X109850771Y-125034556D01*
X110083425Y-124917192D01*
X109904452Y-124843059D01*
X109841232Y-124810830D01*
X109673860Y-124694155D01*
X109509247Y-124546981D01*
X109355981Y-124366197D01*
X109157600Y-124017364D01*
X109082085Y-123761057D01*
X110378625Y-123761057D01*
X110461896Y-124005366D01*
X110623411Y-124227131D01*
X110852763Y-124398772D01*
X110921720Y-124433326D01*
X111059869Y-124485795D01*
X111219360Y-124516933D01*
X111433156Y-124531861D01*
X111734219Y-124535699D01*
X111762095Y-124535737D01*
X112016786Y-124537418D01*
X112191184Y-124528736D01*
X112296296Y-124491495D01*
X112343132Y-124407501D01*
X112342701Y-124258558D01*
X112306011Y-124026471D01*
X112244073Y-123693045D01*
X112140175Y-123121244D01*
X111513964Y-123103956D01*
X111251033Y-123100861D01*
X110945530Y-123116532D01*
X110725002Y-123160705D01*
X110569324Y-123238140D01*
X110458374Y-123353595D01*
X110384005Y-123521782D01*
X110378625Y-123761057D01*
X109082085Y-123761057D01*
X109047822Y-123644766D01*
X109026765Y-123269327D01*
X109094541Y-122911973D01*
X109251268Y-122593628D01*
X109497060Y-122335216D01*
X109587437Y-122268618D01*
X109712275Y-122189710D01*
X109845143Y-122128837D01*
X110002090Y-122083642D01*
X110199165Y-122051769D01*
X110452415Y-122030863D01*
X110777890Y-122018566D01*
X111191637Y-122012523D01*
X111709705Y-122010379D01*
X112085687Y-122010188D01*
X112465946Y-122011015D01*
X112789347Y-122012815D01*
X113040009Y-122015461D01*
X113202054Y-122018827D01*
X113259600Y-122022784D01*
X113260921Y-122031316D01*
X113278074Y-122131343D01*
X113313523Y-122334853D01*
X113365319Y-122630746D01*
X113431513Y-123007923D01*
X113510157Y-123455286D01*
X113599301Y-123961736D01*
X113677847Y-124407501D01*
X113696996Y-124516173D01*
X113801293Y-125107500D01*
X113837142Y-125310836D01*
X113939665Y-125894412D01*
X114034887Y-126439443D01*
X114120846Y-126934506D01*
X114150882Y-127108803D01*
X114195579Y-127368173D01*
X114257123Y-127729018D01*
G37*
G36*
X104854221Y-121899726D02*
G01*
X104873523Y-121900472D01*
X105424096Y-121950706D01*
X105904757Y-122061704D01*
X106354709Y-122245783D01*
X106813153Y-122515260D01*
X106978642Y-122632446D01*
X107459905Y-123065557D01*
X107869782Y-123580580D01*
X108194091Y-124157538D01*
X108418648Y-124776457D01*
X108440351Y-124864473D01*
X108502073Y-125248589D01*
X108527646Y-125669049D01*
X108517569Y-126087908D01*
X108472339Y-126467223D01*
X108392456Y-126769050D01*
X108342796Y-126889854D01*
X108071697Y-127376619D01*
X107723855Y-127771005D01*
X107302033Y-128070938D01*
X106808994Y-128274344D01*
X106247501Y-128379150D01*
X106241118Y-128379734D01*
X105535399Y-128389335D01*
X104867351Y-128288480D01*
X104243811Y-128079455D01*
X103671612Y-127764545D01*
X103157590Y-127346035D01*
X102970132Y-127151827D01*
X102785918Y-126938886D01*
X102631435Y-126738966D01*
X102525181Y-126576065D01*
X102485653Y-126474184D01*
X102509257Y-126451586D01*
X102625912Y-126397719D01*
X102818043Y-126328962D01*
X103060853Y-126254773D01*
X103636052Y-126091540D01*
X103959770Y-126428452D01*
X104236139Y-126677390D01*
X104693694Y-126959654D01*
X104733630Y-126978441D01*
X104949995Y-127071065D01*
X105135902Y-127124150D01*
X105341545Y-127148257D01*
X105617117Y-127153945D01*
X105868797Y-127149242D01*
X106079713Y-127127657D01*
X106252208Y-127080950D01*
X106429677Y-127000950D01*
X106728079Y-126792347D01*
X106973735Y-126488593D01*
X107135300Y-126117068D01*
X107206444Y-125692690D01*
X107180839Y-125230377D01*
X107076863Y-124797086D01*
X106869338Y-124312680D01*
X106583907Y-123889282D01*
X106232676Y-123544213D01*
X105827753Y-123294793D01*
X105799182Y-123282109D01*
X105470946Y-123176497D01*
X105102541Y-123114714D01*
X104742224Y-123102007D01*
X104438253Y-123143628D01*
X104267949Y-123202681D01*
X103965200Y-123365624D01*
X103702567Y-123576515D01*
X103519986Y-123806523D01*
X103385562Y-124045700D01*
X102980749Y-123934729D01*
X102768615Y-123876846D01*
X102516461Y-123808611D01*
X102320132Y-123756082D01*
X102262154Y-123739705D01*
X102126756Y-123679163D01*
X102072760Y-123589788D01*
X102093798Y-123446856D01*
X102183502Y-123225642D01*
X102215575Y-123160885D01*
X102404439Y-122879694D01*
X102660482Y-122596858D01*
X102948340Y-122348003D01*
X103232648Y-122168754D01*
X103346932Y-122115361D01*
X103664515Y-121998211D01*
X103999518Y-121926884D01*
X104385050Y-121895886D01*
X104854221Y-121899726D01*
G37*
G36*
X115901897Y-123853974D02*
G01*
X115930195Y-124014982D01*
X116015509Y-124486134D01*
X116099391Y-124929851D01*
X116178165Y-125327874D01*
X116248156Y-125661940D01*
X116305685Y-125913790D01*
X116347077Y-126065163D01*
X116376273Y-126144088D01*
X116553819Y-126474154D01*
X116794629Y-126763118D01*
X117073276Y-126984790D01*
X117364334Y-127112979D01*
X117489593Y-127141365D01*
X117915718Y-127183977D01*
X118279517Y-127132006D01*
X118574281Y-126989808D01*
X118793299Y-126761741D01*
X118929862Y-126452164D01*
X118977260Y-126065434D01*
X118975153Y-126025268D01*
X118956084Y-125857943D01*
X118919288Y-125596304D01*
X118867350Y-125256983D01*
X118802857Y-124856611D01*
X118728396Y-124411819D01*
X118646553Y-123939236D01*
X118602615Y-123689438D01*
X118525271Y-123248557D01*
X118456402Y-122854493D01*
X118398500Y-122521591D01*
X118354056Y-122264198D01*
X118325562Y-122096657D01*
X118315511Y-122033317D01*
X118355542Y-122024547D01*
X118493911Y-122015841D01*
X118707796Y-122009921D01*
X118972814Y-122007737D01*
X119630117Y-122007737D01*
X119664670Y-122173258D01*
X119666838Y-122184005D01*
X119689540Y-122305661D01*
X119729362Y-122525998D01*
X119783337Y-122828336D01*
X119848496Y-123195993D01*
X119921872Y-123612291D01*
X120000495Y-124060548D01*
X120055298Y-124378498D01*
X120159552Y-125025576D01*
X120234656Y-125573598D01*
X120280337Y-126034966D01*
X120296325Y-126422082D01*
X120282348Y-126747347D01*
X120238136Y-127023164D01*
X120163416Y-127261936D01*
X120057918Y-127476063D01*
X119921370Y-127677948D01*
X119685832Y-127914763D01*
X119344514Y-128132725D01*
X118946830Y-128292005D01*
X118524473Y-128376748D01*
X118185711Y-128394966D01*
X117730887Y-128380012D01*
X117296497Y-128326006D01*
X116930530Y-128237151D01*
X116805319Y-128191479D01*
X116335651Y-127943910D01*
X115909403Y-127598819D01*
X115541096Y-127172290D01*
X115245251Y-126680407D01*
X115036390Y-126139252D01*
X115026234Y-126098388D01*
X114992363Y-125939439D01*
X114942980Y-125691645D01*
X114881254Y-125372264D01*
X114810358Y-124998553D01*
X114733461Y-124587770D01*
X114653736Y-124157174D01*
X114574353Y-123724023D01*
X114498482Y-123305574D01*
X114429296Y-122919085D01*
X114369965Y-122581815D01*
X114323659Y-122311021D01*
X114293550Y-122123961D01*
X114282809Y-122037894D01*
X114320496Y-122027787D01*
X114456466Y-122017409D01*
X114668278Y-122010345D01*
X114931386Y-122007737D01*
X115579963Y-122007737D01*
X115901897Y-123853974D01*
G37*
G36*
X58913175Y-130314481D02*
G01*
X59370389Y-130316310D01*
X59774764Y-130319230D01*
X60112791Y-130323086D01*
X60370963Y-130327720D01*
X60535772Y-130332977D01*
X60593710Y-130338701D01*
X60595078Y-130348235D01*
X60612331Y-130450909D01*
X60647842Y-130656950D01*
X60699665Y-130955224D01*
X60765856Y-131334598D01*
X60844471Y-131783939D01*
X60933566Y-132292114D01*
X61031196Y-132847990D01*
X61135416Y-133440433D01*
X61173869Y-133658920D01*
X61275934Y-134239553D01*
X61370702Y-134779681D01*
X61456226Y-135268155D01*
X61530562Y-135693824D01*
X61591764Y-136045542D01*
X61637889Y-136312157D01*
X61666990Y-136482522D01*
X61677122Y-136545488D01*
X61628330Y-136551465D01*
X61471986Y-136557488D01*
X61221205Y-136562817D01*
X60889523Y-136567273D01*
X60490478Y-136570676D01*
X60037607Y-136572849D01*
X59544448Y-136573613D01*
X59275976Y-136573805D01*
X58757851Y-136574759D01*
X58343019Y-136574429D01*
X58019689Y-136570352D01*
X57776074Y-136560062D01*
X57600384Y-136541097D01*
X57480829Y-136510992D01*
X57405622Y-136467285D01*
X57362973Y-136407510D01*
X57341093Y-136329204D01*
X57328193Y-136229903D01*
X57312484Y-136107144D01*
X57272702Y-135851339D01*
X59027546Y-135851339D01*
X59412581Y-135851142D01*
X59837361Y-135849867D01*
X60163558Y-135846731D01*
X60403702Y-135840970D01*
X60570320Y-135831819D01*
X60675940Y-135818513D01*
X60733091Y-135800285D01*
X60754301Y-135776372D01*
X60752097Y-135746007D01*
X60740854Y-135696621D01*
X60709835Y-135537700D01*
X60665612Y-135297399D01*
X60612298Y-134998203D01*
X60554002Y-134662594D01*
X60386200Y-133684514D01*
X57661026Y-133684514D01*
X57602867Y-133323376D01*
X57544707Y-132962239D01*
X58897971Y-132962239D01*
X59353659Y-132960642D01*
X59700703Y-132955526D01*
X59950598Y-132946247D01*
X60114836Y-132932163D01*
X60204911Y-132912629D01*
X60232316Y-132887002D01*
X60231122Y-132871151D01*
X60214564Y-132753199D01*
X60181573Y-132548298D01*
X60136036Y-132280090D01*
X60081843Y-131972218D01*
X60062393Y-131863109D01*
X60010944Y-131570225D01*
X59969439Y-131327680D01*
X59941718Y-131158178D01*
X59931624Y-131084421D01*
X59927908Y-131081264D01*
X59842487Y-131069215D01*
X59655412Y-131058427D01*
X59381663Y-131049313D01*
X59036221Y-131042290D01*
X58634068Y-131037771D01*
X58190183Y-131036173D01*
X58011776Y-131036297D01*
X57539720Y-131037250D01*
X57170614Y-131036490D01*
X56891336Y-131030690D01*
X56688767Y-131016527D01*
X56549784Y-130990675D01*
X56461268Y-130949808D01*
X56410097Y-130890603D01*
X56383151Y-130809734D01*
X56367309Y-130703876D01*
X56349451Y-130569703D01*
X56309669Y-130313898D01*
X58451689Y-130313898D01*
X58913175Y-130314481D01*
G37*
G36*
X74498459Y-134948314D02*
G01*
X74760796Y-135386599D01*
X74988564Y-135767268D01*
X75176301Y-136081193D01*
X75318545Y-136319244D01*
X75409834Y-136472294D01*
X75444707Y-136531214D01*
X75445371Y-136535177D01*
X75386643Y-136554550D01*
X75239650Y-136563927D01*
X75031799Y-136561309D01*
X74592569Y-136543519D01*
X74108661Y-135716884D01*
X73624752Y-134890250D01*
X72078672Y-134889278D01*
X70532592Y-134888305D01*
X70335937Y-135730959D01*
X70139281Y-136573613D01*
X69730240Y-136573613D01*
X69612973Y-136572531D01*
X69435932Y-136560983D01*
X69346145Y-136532762D01*
X69321198Y-136482895D01*
X69323041Y-136469197D01*
X69347081Y-136355938D01*
X69396795Y-136141217D01*
X69469448Y-135836299D01*
X69562306Y-135452450D01*
X69672633Y-135000935D01*
X69797695Y-134493018D01*
X69871771Y-134194114D01*
X70705558Y-134194114D01*
X70711411Y-134197211D01*
X70802854Y-134206456D01*
X70991520Y-134214429D01*
X71259791Y-134220680D01*
X71590048Y-134224760D01*
X71964674Y-134226220D01*
X73223789Y-134226220D01*
X72343048Y-132745268D01*
X72342024Y-132743547D01*
X72076329Y-132299531D01*
X71864353Y-131952056D01*
X71700548Y-131692929D01*
X71579367Y-131513951D01*
X71495260Y-131406927D01*
X71442679Y-131363660D01*
X71416075Y-131375955D01*
X71406520Y-131405111D01*
X71369279Y-131538248D01*
X71311547Y-131755734D01*
X71238389Y-132037479D01*
X71154870Y-132363395D01*
X71066054Y-132713392D01*
X70977006Y-133067382D01*
X70892791Y-133405276D01*
X70818474Y-133706985D01*
X70759119Y-133952421D01*
X70719793Y-134121493D01*
X70705558Y-134194114D01*
X69871771Y-134194114D01*
X69934756Y-133939964D01*
X70081081Y-133353038D01*
X70840965Y-130313898D01*
X71722359Y-130313898D01*
X73570372Y-133398613D01*
X73891924Y-133935409D01*
X74066085Y-134226220D01*
X74207014Y-134461542D01*
X74498459Y-134948314D01*
G37*
G36*
X77571943Y-130314481D02*
G01*
X78029157Y-130316310D01*
X78433531Y-130319230D01*
X78771559Y-130323086D01*
X79029731Y-130327720D01*
X79194540Y-130332977D01*
X79252478Y-130338701D01*
X79253845Y-130348235D01*
X79271099Y-130450909D01*
X79306610Y-130656950D01*
X79358433Y-130955224D01*
X79424624Y-131334598D01*
X79503239Y-131783939D01*
X79592334Y-132292114D01*
X79689963Y-132847990D01*
X79794184Y-133440433D01*
X79832637Y-133658920D01*
X79934702Y-134239553D01*
X80029469Y-134779681D01*
X80114994Y-135268155D01*
X80189329Y-135693824D01*
X80250532Y-136045542D01*
X80296656Y-136312157D01*
X80325757Y-136482522D01*
X80335890Y-136545488D01*
X80287098Y-136551465D01*
X80130754Y-136557488D01*
X79879973Y-136562817D01*
X79548291Y-136567273D01*
X79149246Y-136570676D01*
X78696375Y-136572849D01*
X78203216Y-136573613D01*
X77934744Y-136573805D01*
X77416619Y-136574759D01*
X77001786Y-136574429D01*
X76678457Y-136570352D01*
X76434842Y-136560062D01*
X76259151Y-136541097D01*
X76139597Y-136510992D01*
X76064390Y-136467285D01*
X76021741Y-136407510D01*
X75999861Y-136329204D01*
X75986961Y-136229903D01*
X75971252Y-136107144D01*
X75931470Y-135851339D01*
X77686314Y-135851339D01*
X78071349Y-135851142D01*
X78496129Y-135849867D01*
X78822326Y-135846731D01*
X79062470Y-135840970D01*
X79229088Y-135831819D01*
X79334708Y-135818513D01*
X79391859Y-135800285D01*
X79413068Y-135776372D01*
X79410865Y-135746007D01*
X79399622Y-135696621D01*
X79368602Y-135537700D01*
X79324380Y-135297399D01*
X79271065Y-134998203D01*
X79212770Y-134662594D01*
X79044968Y-133684514D01*
X76319794Y-133684514D01*
X76261634Y-133323376D01*
X76203475Y-132962239D01*
X77556738Y-132962239D01*
X78012426Y-132960642D01*
X78359471Y-132955526D01*
X78609366Y-132946247D01*
X78773604Y-132932163D01*
X78863679Y-132912629D01*
X78891084Y-132887002D01*
X78889889Y-132871151D01*
X78873332Y-132753199D01*
X78840341Y-132548298D01*
X78794804Y-132280090D01*
X78740610Y-131972218D01*
X78721160Y-131863109D01*
X78669712Y-131570225D01*
X78628206Y-131327680D01*
X78600486Y-131158178D01*
X78590392Y-131084421D01*
X78586676Y-131081264D01*
X78501255Y-131069215D01*
X78314179Y-131058427D01*
X78040430Y-131049313D01*
X77694989Y-131042290D01*
X77292835Y-131037771D01*
X76848951Y-131036173D01*
X76670544Y-131036297D01*
X76198488Y-131037250D01*
X75829382Y-131036490D01*
X75550104Y-131030690D01*
X75347534Y-131016527D01*
X75208552Y-130990675D01*
X75120035Y-130949808D01*
X75068865Y-130890603D01*
X75041919Y-130809734D01*
X75026077Y-130703876D01*
X75008219Y-130569703D01*
X74968437Y-130313898D01*
X77110457Y-130313898D01*
X77571943Y-130314481D01*
G37*
G36*
X84049614Y-130317134D02*
G01*
X84193296Y-130326068D01*
X84248212Y-130338701D01*
X84249580Y-130348235D01*
X84266834Y-130450909D01*
X84302344Y-130656950D01*
X84354167Y-130955224D01*
X84420359Y-131334598D01*
X84498974Y-131783939D01*
X84588068Y-132292114D01*
X84685698Y-132847990D01*
X84789918Y-133440433D01*
X84828371Y-133658920D01*
X84930437Y-134239553D01*
X85025204Y-134779681D01*
X85110728Y-135268155D01*
X85185064Y-135693824D01*
X85246267Y-136045542D01*
X85292391Y-136312157D01*
X85321492Y-136482522D01*
X85331624Y-136545488D01*
X85297326Y-136550620D01*
X85156572Y-136556852D01*
X84919878Y-136562377D01*
X84601084Y-136567007D01*
X84214026Y-136570550D01*
X83772542Y-136572816D01*
X83290470Y-136573613D01*
X81249315Y-136573613D01*
X81209532Y-136317808D01*
X81200690Y-136262801D01*
X81167882Y-136081535D01*
X81139996Y-135956670D01*
X81136764Y-135940475D01*
X81144829Y-135912796D01*
X81183211Y-135891505D01*
X81264776Y-135875769D01*
X81402391Y-135864758D01*
X81608921Y-135857640D01*
X81897232Y-135853585D01*
X82280189Y-135851762D01*
X82770658Y-135851339D01*
X84431074Y-135851339D01*
X84399697Y-135715912D01*
X84384467Y-135640056D01*
X84350305Y-135456515D01*
X84301099Y-135185299D01*
X84239425Y-134841137D01*
X84167864Y-134438757D01*
X84088994Y-133992888D01*
X84005396Y-133518257D01*
X83919647Y-133029594D01*
X83834327Y-132541626D01*
X83752016Y-132069082D01*
X83675291Y-131626690D01*
X83606733Y-131229178D01*
X83548921Y-130891276D01*
X83504433Y-130627711D01*
X83475849Y-130453211D01*
X83465748Y-130382505D01*
X83489901Y-130353828D01*
X83620382Y-130324112D01*
X83856980Y-130313898D01*
X84049614Y-130317134D01*
G37*
G36*
X86156249Y-130317134D02*
G01*
X86299931Y-130326068D01*
X86354847Y-130338701D01*
X86356215Y-130348235D01*
X86373469Y-130450909D01*
X86408979Y-130656950D01*
X86460802Y-130955224D01*
X86526994Y-131334598D01*
X86605609Y-131783939D01*
X86694703Y-132292114D01*
X86792333Y-132847990D01*
X86896553Y-133440433D01*
X86935007Y-133658920D01*
X87037072Y-134239553D01*
X87131839Y-134779681D01*
X87217363Y-135268155D01*
X87291699Y-135693824D01*
X87352902Y-136045542D01*
X87399026Y-136312157D01*
X87428127Y-136482522D01*
X87438260Y-136545488D01*
X87388860Y-136559196D01*
X87249338Y-136569624D01*
X87051295Y-136573613D01*
X86664330Y-136573613D01*
X86601357Y-136257618D01*
X86596502Y-136232891D01*
X86564229Y-136060899D01*
X86516307Y-135797892D01*
X86455185Y-135457841D01*
X86383307Y-135054715D01*
X86303121Y-134602482D01*
X86217072Y-134115112D01*
X86127608Y-133606575D01*
X86037174Y-133090840D01*
X85948218Y-132581875D01*
X85863185Y-132093650D01*
X85784522Y-131640135D01*
X85714676Y-131235298D01*
X85656092Y-130893108D01*
X85611218Y-130627536D01*
X85582499Y-130452550D01*
X85572383Y-130382119D01*
X85597356Y-130353368D01*
X85728376Y-130324029D01*
X85963615Y-130313898D01*
X86156249Y-130317134D01*
G37*
G36*
X89885451Y-132210618D02*
G01*
X90186489Y-132618003D01*
X90464336Y-132991726D01*
X90711007Y-133321208D01*
X90918514Y-133595871D01*
X91078873Y-133805135D01*
X91184096Y-133938424D01*
X91226198Y-133985157D01*
X91238958Y-133964933D01*
X91290990Y-133848966D01*
X91376985Y-133641667D01*
X91491638Y-133356298D01*
X91629643Y-133006125D01*
X91785695Y-132604412D01*
X91954487Y-132164422D01*
X92648677Y-130343993D01*
X93083042Y-130326308D01*
X93111193Y-130325220D01*
X93316914Y-130321133D01*
X93462295Y-130324972D01*
X93517406Y-130336064D01*
X93518769Y-130345750D01*
X93536011Y-130448855D01*
X93571514Y-130655317D01*
X93623334Y-130953991D01*
X93689526Y-131333731D01*
X93768145Y-131783390D01*
X93857245Y-132291824D01*
X93954883Y-132847887D01*
X94059113Y-133440433D01*
X94097566Y-133658920D01*
X94199631Y-134239553D01*
X94294398Y-134779681D01*
X94379922Y-135268155D01*
X94454258Y-135693824D01*
X94515461Y-136045542D01*
X94561585Y-136312157D01*
X94590686Y-136482522D01*
X94600819Y-136545488D01*
X94551419Y-136559196D01*
X94411898Y-136569624D01*
X94213854Y-136573613D01*
X93826889Y-136573613D01*
X93763338Y-136257618D01*
X93750167Y-136188914D01*
X93714040Y-135990965D01*
X93662715Y-135703387D01*
X93599332Y-135344258D01*
X93527031Y-134931658D01*
X93448953Y-134483664D01*
X93368239Y-134018357D01*
X93288028Y-133553816D01*
X93211461Y-133108118D01*
X93141679Y-132699344D01*
X93081822Y-132345571D01*
X93035030Y-132064879D01*
X92961598Y-131618942D01*
X92700530Y-132335732D01*
X92648861Y-132476414D01*
X92516954Y-132829365D01*
X92363052Y-133235066D01*
X92202287Y-133653750D01*
X92049794Y-134045651D01*
X91660124Y-135038779D01*
X91418133Y-135057138D01*
X91176142Y-135075496D01*
X90403831Y-134033915D01*
X90396989Y-134024686D01*
X90131537Y-133665907D01*
X89857212Y-133293851D01*
X89594198Y-132935982D01*
X89362679Y-132619762D01*
X89182840Y-132372654D01*
X89153691Y-132332580D01*
X88987752Y-132111885D01*
X88850065Y-131940988D01*
X88754257Y-131836137D01*
X88713957Y-131813584D01*
X88713761Y-131862410D01*
X88732026Y-132011809D01*
X88767947Y-132231353D01*
X88817329Y-132493454D01*
X88847104Y-132646490D01*
X88903977Y-132949214D01*
X88973644Y-133328464D01*
X89051599Y-133759467D01*
X89133341Y-134217451D01*
X89214365Y-134677642D01*
X89281790Y-135062716D01*
X89352191Y-135463061D01*
X89414538Y-135815808D01*
X89465682Y-136103207D01*
X89502477Y-136307510D01*
X89521774Y-136410966D01*
X89555722Y-136579360D01*
X89147401Y-136561439D01*
X88739080Y-136543519D01*
X88212614Y-133564135D01*
X88191817Y-133446353D01*
X88089597Y-132864764D01*
X87994354Y-132318555D01*
X87908109Y-131819601D01*
X87882207Y-131668163D01*
X88642051Y-131668163D01*
X88672146Y-131698258D01*
X88702241Y-131668163D01*
X88672146Y-131638068D01*
X88642051Y-131668163D01*
X87882207Y-131668163D01*
X87832883Y-131379779D01*
X87770696Y-131010964D01*
X87723570Y-130725033D01*
X87693525Y-130533861D01*
X87682583Y-130449324D01*
X87682326Y-130429304D01*
X87694669Y-130365599D01*
X87748401Y-130331242D01*
X87869838Y-130317495D01*
X88085297Y-130315621D01*
X88491577Y-130317344D01*
X89486070Y-131668163D01*
X89841838Y-132151403D01*
X89885451Y-132210618D01*
G37*
G36*
X99556503Y-134239553D02*
G01*
X99651270Y-134779681D01*
X99736795Y-135268155D01*
X99811130Y-135693824D01*
X99872333Y-136045542D01*
X99918457Y-136312157D01*
X99947558Y-136482522D01*
X99957691Y-136545488D01*
X99908291Y-136559196D01*
X99768770Y-136569624D01*
X99570726Y-136573613D01*
X99183761Y-136573613D01*
X99121050Y-136257618D01*
X99090971Y-136100901D01*
X99045422Y-135853858D01*
X98992656Y-135560775D01*
X98936770Y-135245151D01*
X98881860Y-134930484D01*
X98832021Y-134640274D01*
X98791351Y-134398019D01*
X98763945Y-134227218D01*
X98753899Y-134151369D01*
X98717196Y-134135880D01*
X98582341Y-134122307D01*
X98371576Y-134116217D01*
X98109492Y-134118852D01*
X97465086Y-134135936D01*
X96980938Y-135354135D01*
X96496790Y-136572335D01*
X96030321Y-136572974D01*
X95975251Y-136572822D01*
X95765989Y-136567552D01*
X95619210Y-136556275D01*
X95563852Y-136540976D01*
X95568774Y-136524551D01*
X95610110Y-136415560D01*
X95688024Y-136219365D01*
X95795938Y-135952291D01*
X95927277Y-135630667D01*
X96075463Y-135270818D01*
X96147065Y-135097433D01*
X96287986Y-134755004D01*
X96409003Y-134459346D01*
X96503561Y-134226564D01*
X96565104Y-134072763D01*
X96587075Y-134014047D01*
X96582054Y-134008389D01*
X96503972Y-133972276D01*
X96361364Y-133921795D01*
X96021220Y-133785593D01*
X95606392Y-133521325D01*
X95281744Y-133177321D01*
X95047470Y-132753806D01*
X94903769Y-132251006D01*
X94900706Y-132233802D01*
X94873697Y-131866805D01*
X95691685Y-131866805D01*
X95700479Y-132091261D01*
X95710206Y-132190367D01*
X95806137Y-132596871D01*
X95988322Y-132922364D01*
X96259911Y-133169927D01*
X96624055Y-133342639D01*
X97083906Y-133443581D01*
X97139685Y-133450322D01*
X97431271Y-133476032D01*
X97766619Y-133494495D01*
X98083787Y-133502087D01*
X98338405Y-133501406D01*
X98505053Y-133494195D01*
X98592934Y-133475867D01*
X98623238Y-133441877D01*
X98617156Y-133387679D01*
X98616399Y-133384682D01*
X98595708Y-133283257D01*
X98558753Y-133085113D01*
X98509234Y-132810738D01*
X98450852Y-132480620D01*
X98387309Y-132115248D01*
X98187866Y-130959083D01*
X97355754Y-130992023D01*
X97079743Y-131006352D01*
X96682649Y-131046539D01*
X96375969Y-131111475D01*
X96141251Y-131207452D01*
X95960043Y-131340760D01*
X95813894Y-131517689D01*
X95778215Y-131573283D01*
X95714303Y-131710807D01*
X95691685Y-131866805D01*
X94873697Y-131866805D01*
X94866202Y-131764961D01*
X94936603Y-131354847D01*
X95111637Y-131004013D01*
X95391032Y-130713010D01*
X95774515Y-130482389D01*
X95852155Y-130448228D01*
X95954186Y-130411558D01*
X96069819Y-130383987D01*
X96216850Y-130363867D01*
X96413075Y-130349550D01*
X96676290Y-130339389D01*
X97024290Y-130331736D01*
X97474871Y-130324943D01*
X97717868Y-130322073D01*
X98089622Y-130319521D01*
X98407847Y-130319625D01*
X98655837Y-130322266D01*
X98816884Y-130327330D01*
X98874279Y-130334699D01*
X98875638Y-130344463D01*
X98892874Y-130447791D01*
X98928373Y-130654472D01*
X98980192Y-130953353D01*
X99046384Y-131333281D01*
X99125005Y-131783106D01*
X99214108Y-132291674D01*
X99311750Y-132847834D01*
X99415985Y-133440433D01*
X99416239Y-133441877D01*
X99454438Y-133658920D01*
X99556503Y-134239553D01*
G37*
G36*
X102550616Y-130314481D02*
G01*
X103007830Y-130316310D01*
X103412204Y-130319230D01*
X103750232Y-130323086D01*
X104008404Y-130327720D01*
X104173212Y-130332977D01*
X104231151Y-130338701D01*
X104232518Y-130348235D01*
X104249772Y-130450909D01*
X104285282Y-130656950D01*
X104337106Y-130955224D01*
X104403297Y-131334598D01*
X104481912Y-131783939D01*
X104571007Y-132292114D01*
X104668636Y-132847990D01*
X104772857Y-133440433D01*
X104811310Y-133658920D01*
X104913375Y-134239553D01*
X105008142Y-134779681D01*
X105093667Y-135268155D01*
X105168002Y-135693824D01*
X105229205Y-136045542D01*
X105275329Y-136312157D01*
X105304430Y-136482522D01*
X105314563Y-136545488D01*
X105265771Y-136551465D01*
X105109427Y-136557488D01*
X104858646Y-136562817D01*
X104526964Y-136567273D01*
X104127919Y-136570676D01*
X103675048Y-136572849D01*
X103181889Y-136573613D01*
X102913417Y-136573805D01*
X102395292Y-136574759D01*
X101980459Y-136574429D01*
X101657130Y-136570352D01*
X101413515Y-136560062D01*
X101237824Y-136541097D01*
X101118270Y-136510992D01*
X101043063Y-136467285D01*
X101000414Y-136407510D01*
X100978534Y-136329204D01*
X100965634Y-136229903D01*
X100949925Y-136107144D01*
X100910143Y-135851339D01*
X102664987Y-135851339D01*
X103050022Y-135851142D01*
X103474802Y-135849867D01*
X103800999Y-135846731D01*
X104041143Y-135840970D01*
X104207761Y-135831819D01*
X104313381Y-135818513D01*
X104370532Y-135800285D01*
X104391741Y-135776372D01*
X104389538Y-135746007D01*
X104378295Y-135696621D01*
X104347275Y-135537700D01*
X104303053Y-135297399D01*
X104249738Y-134998203D01*
X104191443Y-134662594D01*
X104023641Y-133684514D01*
X101298467Y-133684514D01*
X101240307Y-133323376D01*
X101182148Y-132962239D01*
X102535411Y-132962239D01*
X102991099Y-132960642D01*
X103338144Y-132955526D01*
X103588039Y-132946247D01*
X103752277Y-132932163D01*
X103842352Y-132912629D01*
X103869757Y-132887002D01*
X103868562Y-132871151D01*
X103852005Y-132753199D01*
X103819014Y-132548298D01*
X103773477Y-132280090D01*
X103719283Y-131972218D01*
X103699833Y-131863109D01*
X103648385Y-131570225D01*
X103606879Y-131327680D01*
X103579159Y-131158178D01*
X103569065Y-131084421D01*
X103565349Y-131081264D01*
X103479928Y-131069215D01*
X103292852Y-131058427D01*
X103019103Y-131049313D01*
X102673662Y-131042290D01*
X102271508Y-131037771D01*
X101827624Y-131036173D01*
X101649217Y-131036297D01*
X101177161Y-131037250D01*
X100808055Y-131036490D01*
X100528777Y-131030690D01*
X100326207Y-131016527D01*
X100187225Y-130990675D01*
X100098708Y-130949808D01*
X100047538Y-130890603D01*
X100020592Y-130809734D01*
X100004750Y-130703876D01*
X99986892Y-130569703D01*
X99947110Y-130313898D01*
X102089130Y-130313898D01*
X102550616Y-130314481D01*
G37*
G36*
X110089679Y-134239553D02*
G01*
X110184446Y-134779681D01*
X110269970Y-135268155D01*
X110344306Y-135693824D01*
X110405508Y-136045542D01*
X110451633Y-136312157D01*
X110480734Y-136482522D01*
X110490866Y-136545488D01*
X110441467Y-136559196D01*
X110301945Y-136569624D01*
X110103901Y-136573613D01*
X109716936Y-136573613D01*
X109654645Y-136257618D01*
X109625370Y-136103294D01*
X109578134Y-135843958D01*
X109523529Y-135536586D01*
X109468403Y-135219348D01*
X109419101Y-134934953D01*
X109372771Y-134673208D01*
X109336220Y-134472497D01*
X109314617Y-134361647D01*
X109311885Y-134349604D01*
X109293239Y-134298661D01*
X109252579Y-134264107D01*
X109170230Y-134242764D01*
X109026521Y-134231454D01*
X108801779Y-134226999D01*
X108476331Y-134226220D01*
X108454072Y-134226195D01*
X108120368Y-134220454D01*
X107801491Y-134206075D01*
X107532618Y-134185134D01*
X107348924Y-134159706D01*
X106819326Y-133996828D01*
X106364076Y-133746579D01*
X105993256Y-133416443D01*
X105712726Y-133013030D01*
X105528341Y-132542948D01*
X105453049Y-132058428D01*
X106231289Y-132058428D01*
X106303939Y-132446630D01*
X106367516Y-132619374D01*
X106577067Y-132955490D01*
X106867447Y-133226502D01*
X107214597Y-133407038D01*
X107251699Y-133418885D01*
X107513138Y-133473850D01*
X107882037Y-133516799D01*
X108347946Y-133546445D01*
X109184410Y-133583389D01*
X109149892Y-133408241D01*
X109128916Y-133294813D01*
X109091362Y-133084805D01*
X109041122Y-132800269D01*
X108982090Y-132463254D01*
X108918160Y-132095811D01*
X108720946Y-130958531D01*
X107883487Y-130994347D01*
X107813107Y-130997428D01*
X107476697Y-131015560D01*
X107230155Y-131037682D01*
X107047535Y-131067854D01*
X106902890Y-131110138D01*
X106770272Y-131168595D01*
X106627383Y-131250629D01*
X106391071Y-131465743D01*
X106259686Y-131733238D01*
X106231289Y-132058428D01*
X105453049Y-132058428D01*
X105445959Y-132012804D01*
X105442275Y-131927743D01*
X105454665Y-131543167D01*
X105527034Y-131236053D01*
X105668987Y-130978969D01*
X105890132Y-130744482D01*
X106002855Y-130651316D01*
X106166946Y-130542251D01*
X106349472Y-130458903D01*
X106567397Y-130398014D01*
X106837686Y-130356326D01*
X107177301Y-130330583D01*
X107603210Y-130317526D01*
X108132374Y-130313898D01*
X108267470Y-130314037D01*
X108631177Y-130315886D01*
X108944537Y-130319617D01*
X109190041Y-130324890D01*
X109350183Y-130331365D01*
X109407454Y-130338701D01*
X109408822Y-130348235D01*
X109426075Y-130450909D01*
X109461586Y-130656950D01*
X109513409Y-130955224D01*
X109579600Y-131334598D01*
X109658215Y-131783939D01*
X109747310Y-132292114D01*
X109844940Y-132847990D01*
X109949160Y-133440433D01*
X109974320Y-133583389D01*
X109987613Y-133658920D01*
X110089679Y-134239553D01*
G37*
G36*
X65020940Y-130199398D02*
G01*
X65386404Y-130231451D01*
X65679729Y-130284725D01*
X66266944Y-130490722D01*
X66847115Y-130812175D01*
X67359734Y-131227607D01*
X67794170Y-131728288D01*
X68139793Y-132305484D01*
X68175378Y-132380358D01*
X68409171Y-132994936D01*
X68542593Y-133607818D01*
X68574703Y-134204333D01*
X68504560Y-134769806D01*
X68331222Y-135289563D01*
X68208826Y-135514430D01*
X67913719Y-135890157D01*
X67543043Y-136216420D01*
X67124965Y-136470268D01*
X66687655Y-136628749D01*
X66566749Y-136650892D01*
X66268735Y-136678169D01*
X65917283Y-136686561D01*
X65555176Y-136676675D01*
X65225198Y-136649113D01*
X64970133Y-136604482D01*
X64807063Y-136555217D01*
X64478938Y-136427631D01*
X64140528Y-136267269D01*
X63834149Y-136094948D01*
X63602118Y-135931486D01*
X63401954Y-135763059D01*
X63437348Y-135942625D01*
X63439038Y-135951213D01*
X63475822Y-136141994D01*
X63514569Y-136347903D01*
X63556396Y-136573613D01*
X63188560Y-136573613D01*
X63017990Y-136570075D01*
X62875472Y-136558913D01*
X62820724Y-136542778D01*
X62812875Y-136491266D01*
X62786480Y-136335193D01*
X62744182Y-136090800D01*
X62688781Y-135774158D01*
X62623077Y-135401333D01*
X62549871Y-134988395D01*
X62486992Y-134631938D01*
X62419701Y-134243697D01*
X62362415Y-133905739D01*
X62317978Y-133635109D01*
X62289232Y-133448853D01*
X62279018Y-133364017D01*
X62279344Y-133356373D01*
X62293709Y-133324738D01*
X62340100Y-133301131D01*
X62433241Y-133284399D01*
X62587857Y-133273391D01*
X62818673Y-133266954D01*
X63140414Y-133263937D01*
X63567803Y-133263187D01*
X64856588Y-133263187D01*
X64896371Y-133518993D01*
X64905213Y-133573999D01*
X64938021Y-133755265D01*
X64965907Y-133880130D01*
X64968966Y-133892800D01*
X64964441Y-133929227D01*
X64923402Y-133954664D01*
X64829076Y-133971059D01*
X64664693Y-133980359D01*
X64413480Y-133984511D01*
X64058666Y-133985462D01*
X63866840Y-133985781D01*
X63571473Y-133987671D01*
X63335220Y-133990974D01*
X63178503Y-133995363D01*
X63121743Y-134000509D01*
X63122187Y-134004342D01*
X63136392Y-134086158D01*
X63166549Y-134250349D01*
X63207178Y-134466978D01*
X63224365Y-134555965D01*
X63273523Y-134764755D01*
X63334244Y-134909215D01*
X63428270Y-135030665D01*
X63577345Y-135170424D01*
X63993974Y-135477424D01*
X64463667Y-135712922D01*
X64960317Y-135868828D01*
X65465552Y-135943920D01*
X65961000Y-135936976D01*
X66428287Y-135846773D01*
X66849041Y-135672091D01*
X67204890Y-135411705D01*
X67314305Y-135295690D01*
X67548385Y-134934683D01*
X67695454Y-134516237D01*
X67757183Y-134057329D01*
X67735245Y-133574936D01*
X67631311Y-133086036D01*
X67447054Y-132607606D01*
X67184147Y-132156623D01*
X66844260Y-131750064D01*
X66466844Y-131434841D01*
X66031618Y-131186936D01*
X65568605Y-131020017D01*
X65094397Y-130934195D01*
X64625586Y-130929579D01*
X64178762Y-131006281D01*
X63770519Y-131164410D01*
X63417447Y-131404078D01*
X63136139Y-131725394D01*
X63057974Y-131846240D01*
X62968920Y-131992702D01*
X62925252Y-132076855D01*
X62880952Y-132102016D01*
X62741180Y-132091007D01*
X62498970Y-132034065D01*
X62387601Y-132003519D01*
X62224292Y-131947812D01*
X62142844Y-131881498D01*
X62136965Y-131780681D01*
X62200364Y-131621464D01*
X62326748Y-131379951D01*
X62365850Y-131311071D01*
X62642119Y-130954720D01*
X63004885Y-130646480D01*
X63427821Y-130405437D01*
X63884599Y-130250674D01*
X63941351Y-130239097D01*
X64253449Y-130202368D01*
X64628300Y-130189419D01*
X65020940Y-130199398D01*
G37*
G36*
X111212424Y-130317768D02*
G01*
X111334448Y-130335452D01*
X111394807Y-130376216D01*
X111422651Y-130449324D01*
X111428891Y-130479673D01*
X111455822Y-130622747D01*
X111499382Y-130861386D01*
X111556788Y-131180095D01*
X111625256Y-131563376D01*
X111702000Y-131995735D01*
X111784236Y-132461674D01*
X111862110Y-132899526D01*
X111957981Y-133418767D01*
X112042269Y-133843289D01*
X112118772Y-134187244D01*
X112191290Y-134464789D01*
X112263620Y-134690078D01*
X112339562Y-134877265D01*
X112422914Y-135040507D01*
X112517474Y-135193957D01*
X112658039Y-135373237D01*
X112944646Y-135618169D01*
X113282189Y-135798446D01*
X113651761Y-135913834D01*
X114034453Y-135964102D01*
X114411356Y-135949016D01*
X114763562Y-135868343D01*
X115072162Y-135721851D01*
X115318247Y-135509307D01*
X115482909Y-135230477D01*
X115514340Y-135123092D01*
X115540197Y-134935856D01*
X115544805Y-134694031D01*
X115527211Y-134387164D01*
X115486461Y-134004797D01*
X115421603Y-133536477D01*
X115331683Y-132971747D01*
X115215748Y-132300154D01*
X115174631Y-132067952D01*
X115096607Y-131624617D01*
X115027083Y-131226028D01*
X114968596Y-130886935D01*
X114923680Y-130622090D01*
X114894871Y-130446245D01*
X114884705Y-130374150D01*
X114930144Y-130345241D01*
X115068788Y-130322494D01*
X115271881Y-130313898D01*
X115388821Y-130315089D01*
X115559684Y-130327883D01*
X115650765Y-130360303D01*
X115689337Y-130419230D01*
X115698108Y-130458947D01*
X115727097Y-130609391D01*
X115772269Y-130854222D01*
X115830948Y-131178606D01*
X115900457Y-131567707D01*
X115978120Y-132006691D01*
X116061260Y-132480722D01*
X116076854Y-132570109D01*
X116170301Y-133112039D01*
X116243736Y-133553198D01*
X116299091Y-133908869D01*
X116338300Y-134194337D01*
X116363296Y-134424884D01*
X116376013Y-134615793D01*
X116378384Y-134782349D01*
X116372342Y-134939834D01*
X116324668Y-135315135D01*
X116184231Y-135753237D01*
X115956012Y-136109426D01*
X115639330Y-136384681D01*
X115233506Y-136579980D01*
X115117763Y-136613648D01*
X114780835Y-136670250D01*
X114386143Y-136695182D01*
X113974645Y-136688443D01*
X113587299Y-136650036D01*
X113265061Y-136579960D01*
X112905779Y-136441236D01*
X112430398Y-136154077D01*
X112028323Y-135772334D01*
X111701497Y-135297988D01*
X111451868Y-134733022D01*
X111438549Y-134690231D01*
X111390719Y-134501779D01*
X111327867Y-134219399D01*
X111253657Y-133861102D01*
X111171757Y-133444899D01*
X111085831Y-132988800D01*
X110999547Y-132510817D01*
X110961621Y-132296137D01*
X110881240Y-131842408D01*
X110807512Y-131427899D01*
X110743278Y-131068478D01*
X110691378Y-130780012D01*
X110654651Y-130578370D01*
X110635939Y-130479419D01*
X110601681Y-130313898D01*
X110999582Y-130313898D01*
X111212424Y-130317768D01*
G37*
G36*
X119038190Y-130223647D02*
G01*
X119351123Y-130225602D01*
X119578175Y-130233618D01*
X119747178Y-130251899D01*
X119885967Y-130284648D01*
X120022376Y-130336067D01*
X120184239Y-130410360D01*
X120513242Y-130589999D01*
X120875019Y-130876115D01*
X121133958Y-131214637D01*
X121297238Y-131615714D01*
X121372040Y-132089496D01*
X121380545Y-132262680D01*
X121374426Y-132469925D01*
X121337913Y-132637485D01*
X121263743Y-132813948D01*
X121222329Y-132890814D01*
X121036841Y-133120204D01*
X120767812Y-133319291D01*
X120406176Y-133492703D01*
X119942870Y-133645064D01*
X119368828Y-133781001D01*
X119271449Y-133801726D01*
X118834746Y-133923016D01*
X118509439Y-134072204D01*
X118289359Y-134256172D01*
X118168332Y-134481801D01*
X118140186Y-134755972D01*
X118198751Y-135085567D01*
X118214280Y-135136058D01*
X118374109Y-135431792D01*
X118626253Y-135674855D01*
X118953650Y-135857763D01*
X119339239Y-135973034D01*
X119765957Y-136013182D01*
X120216744Y-135970725D01*
X120437291Y-135916795D01*
X120787064Y-135763830D01*
X121047023Y-135549785D01*
X121208993Y-135282469D01*
X121264800Y-134969689D01*
X121266193Y-134896919D01*
X121278730Y-134761466D01*
X121300063Y-134707737D01*
X121368177Y-134721248D01*
X121520253Y-134758328D01*
X121721779Y-134810712D01*
X122108233Y-134913687D01*
X122070716Y-135216992D01*
X122011706Y-135514883D01*
X121842883Y-135912686D01*
X121582397Y-136233265D01*
X121233455Y-136473058D01*
X120799266Y-136628503D01*
X120729033Y-136642279D01*
X120472745Y-136670058D01*
X120149913Y-136684082D01*
X119797805Y-136684722D01*
X119453687Y-136672347D01*
X119154824Y-136647327D01*
X118938484Y-136610033D01*
X118580530Y-136488216D01*
X118142407Y-136244333D01*
X117793535Y-135923330D01*
X117538591Y-135531174D01*
X117382250Y-135073830D01*
X117329190Y-134557263D01*
X117329241Y-134541171D01*
X117357677Y-134207195D01*
X117445295Y-133926725D01*
X117602295Y-133691061D01*
X117838874Y-133491500D01*
X118165231Y-133319342D01*
X118591564Y-133165885D01*
X119128070Y-133022429D01*
X119450659Y-132941768D01*
X119842862Y-132824894D01*
X120135650Y-132705495D01*
X120341269Y-132575096D01*
X120471962Y-132425223D01*
X120539976Y-132247403D01*
X120557555Y-132033161D01*
X120526800Y-131786631D01*
X120398100Y-131497561D01*
X120159530Y-131232048D01*
X120070278Y-131159624D01*
X119799048Y-131006337D01*
X119474380Y-130919258D01*
X119067880Y-130889479D01*
X118815115Y-130899282D01*
X118409746Y-130980871D01*
X118088595Y-131143077D01*
X117855144Y-131383813D01*
X117712878Y-131700995D01*
X117696617Y-131756013D01*
X117642801Y-131886746D01*
X117595508Y-131939016D01*
X117464765Y-131923926D01*
X117284351Y-131882025D01*
X117101532Y-131825709D01*
X116956494Y-131767457D01*
X116889425Y-131719748D01*
X116888670Y-131717710D01*
X116886438Y-131582460D01*
X116935882Y-131382961D01*
X117023312Y-131155036D01*
X117135032Y-130934506D01*
X117257352Y-130757195D01*
X117324415Y-130686610D01*
X117546217Y-130506952D01*
X117786234Y-130367578D01*
X117882499Y-130326109D01*
X118016210Y-130280317D01*
X118162663Y-130250507D01*
X118348762Y-130233343D01*
X118601407Y-130225490D01*
X118947501Y-130223613D01*
X119038190Y-130223647D01*
G37*
G36*
X119591899Y-117815482D02*
G01*
X119563233Y-117832483D01*
X119425309Y-117861039D01*
X119179486Y-117901112D01*
X118827122Y-117952667D01*
X118761112Y-117962001D01*
X118444010Y-118006863D01*
X118032542Y-118065104D01*
X117546312Y-118133948D01*
X117004923Y-118210618D01*
X116427979Y-118292338D01*
X115835085Y-118376331D01*
X115245842Y-118459823D01*
X114795093Y-118523919D01*
X113137417Y-118763642D01*
X111559598Y-118998262D01*
X110065629Y-119227102D01*
X108659505Y-119449487D01*
X107345217Y-119664739D01*
X106126761Y-119872184D01*
X105008129Y-120071144D01*
X103993316Y-120260943D01*
X103086315Y-120440906D01*
X102291119Y-120610355D01*
X101611723Y-120768614D01*
X101538517Y-120786767D01*
X101255650Y-120859251D01*
X100916285Y-120949487D01*
X100516505Y-121058614D01*
X100052397Y-121187770D01*
X99520043Y-121338094D01*
X98915529Y-121510723D01*
X98234939Y-121706796D01*
X97474358Y-121927452D01*
X96629869Y-122173828D01*
X95697559Y-122447064D01*
X94673510Y-122748297D01*
X93553808Y-123078667D01*
X92334537Y-123439310D01*
X91011782Y-123831366D01*
X89581626Y-124255973D01*
X88040155Y-124714269D01*
X87658797Y-124827568D01*
X87032298Y-125012448D01*
X86497235Y-125167662D01*
X86038205Y-125296747D01*
X85639809Y-125403240D01*
X85286646Y-125490678D01*
X84963313Y-125562599D01*
X84654411Y-125622540D01*
X84344538Y-125674037D01*
X84018294Y-125720628D01*
X83660276Y-125765850D01*
X83255084Y-125813240D01*
X83178385Y-125821058D01*
X82871468Y-125842083D01*
X82462552Y-125859172D01*
X81965402Y-125872326D01*
X81393780Y-125881544D01*
X80761453Y-125886824D01*
X80082183Y-125888168D01*
X79369736Y-125885574D01*
X78637874Y-125879041D01*
X77900364Y-125868570D01*
X77170968Y-125854159D01*
X76463451Y-125835809D01*
X75791577Y-125813518D01*
X75149367Y-125793088D01*
X73690055Y-125775219D01*
X72261854Y-125800230D01*
X70845052Y-125869908D01*
X69419934Y-125986039D01*
X67966789Y-126150409D01*
X66465902Y-126364806D01*
X64897560Y-126631015D01*
X63242051Y-126950823D01*
X62113576Y-127190184D01*
X60964022Y-127458408D01*
X59920303Y-127731035D01*
X58974755Y-128010875D01*
X58119718Y-128300740D01*
X57347529Y-128603440D01*
X56650526Y-128921788D01*
X56021046Y-129258593D01*
X55451428Y-129616668D01*
X54934009Y-129998822D01*
X54434658Y-130452280D01*
X54003520Y-130973415D01*
X53683873Y-131524311D01*
X53477474Y-132099955D01*
X53386085Y-132695337D01*
X53411464Y-133305447D01*
X53555370Y-133925272D01*
X53702212Y-134310443D01*
X53956437Y-134836982D01*
X54267998Y-135371940D01*
X54616530Y-135877844D01*
X54802991Y-136113352D01*
X55154713Y-136517115D01*
X55558486Y-136943789D01*
X55986222Y-137365081D01*
X56409831Y-137752700D01*
X56801224Y-138078353D01*
X56947490Y-138192856D01*
X57165411Y-138365200D01*
X57345362Y-138509565D01*
X57458724Y-138603109D01*
X57537560Y-138674358D01*
X57581609Y-138729931D01*
X57545803Y-138729346D01*
X57441805Y-138679811D01*
X57281274Y-138588534D01*
X57075871Y-138462721D01*
X56837256Y-138309581D01*
X56577092Y-138136321D01*
X56307037Y-137950148D01*
X56038753Y-137758270D01*
X55783901Y-137567894D01*
X55609970Y-137431818D01*
X55002762Y-136911433D01*
X54444096Y-136361867D01*
X53946518Y-135798137D01*
X53522580Y-135235256D01*
X53184830Y-134688241D01*
X52945817Y-134172106D01*
X52882017Y-133992591D01*
X52705184Y-133312109D01*
X52643768Y-132664156D01*
X52698000Y-132048111D01*
X52868112Y-131463356D01*
X53154332Y-130909269D01*
X53556893Y-130385231D01*
X54076025Y-129890622D01*
X54711958Y-129424822D01*
X54955948Y-129270395D01*
X55785974Y-128796823D01*
X56734847Y-128325801D01*
X57801426Y-127857569D01*
X58984571Y-127392368D01*
X60283140Y-126930437D01*
X61695992Y-126472017D01*
X63221988Y-126017348D01*
X64859985Y-125566670D01*
X66608843Y-125120224D01*
X68467422Y-124678249D01*
X70434580Y-124240987D01*
X72509177Y-123808676D01*
X74690072Y-123381557D01*
X76976123Y-122959871D01*
X79366191Y-122543857D01*
X81859135Y-122133756D01*
X84453812Y-121729808D01*
X87149084Y-121332253D01*
X89943809Y-120941331D01*
X92836846Y-120557283D01*
X95827054Y-120180348D01*
X98913292Y-119810768D01*
X102094421Y-119448781D01*
X103688416Y-119274143D01*
X108128131Y-118810866D01*
X112515069Y-118387200D01*
X116819866Y-118006021D01*
X117393375Y-117958122D01*
X118048794Y-117905043D01*
X118586802Y-117863734D01*
X119008758Y-117834160D01*
X119316020Y-117816284D01*
X119509947Y-117810070D01*
X119591899Y-117815482D01*
G37*
%LPC*%
D11*
X61954100Y-120665000D02*
G75*
G03*
X61954100Y-120665000I-613100J0D01*
G01*
D12*
X54854100Y-123515000D02*
G75*
G03*
X54854100Y-123515000I-813100J0D01*
G01*
G36*
X62567200Y-127591200D02*
G01*
X60114800Y-127591200D01*
X60114800Y-125138800D01*
X62567200Y-125138800D01*
X62567200Y-127591200D01*
G37*
D13*
X62567200Y-127591200D02*
X60114800Y-127591200D01*
X60114800Y-125138800D01*
X62567200Y-125138800D01*
X62567200Y-127591200D01*
D14*
X46101000Y-104140000D03*
X46101000Y-145415000D03*
D15*
X73025000Y-117475000D03*
X69625000Y-117475000D03*
X69625000Y-127395000D03*
X73025000Y-127395000D03*
X100711000Y-117475000D03*
X97311000Y-117475000D03*
X100711000Y-127395000D03*
X97311000Y-127395000D03*
D14*
X120396000Y-104775000D03*
X120396000Y-145415000D03*
D16*
X80391000Y-144528000D03*
D17*
X81891000Y-140208000D03*
D18*
X78891000Y-140208000D03*
D16*
X68731000Y-144528000D03*
D17*
X70231000Y-140208000D03*
D18*
X67231000Y-140208000D03*
D16*
X61341000Y-105156000D03*
D19*
X59841000Y-109476000D03*
D18*
X62841000Y-109476000D03*
D16*
X99187000Y-105156000D03*
D19*
X97687000Y-109476000D03*
D18*
X100687000Y-109476000D03*
D16*
X87376000Y-105060000D03*
D19*
X85876000Y-109380000D03*
D18*
X88876000Y-109380000D03*
D16*
X110871000Y-105060000D03*
D19*
X109371000Y-109380000D03*
D18*
X112371000Y-109380000D03*
D15*
X91456769Y-117475000D03*
X88056769Y-117475000D03*
X88056769Y-127395000D03*
X91456769Y-127395000D03*
X81915000Y-117475000D03*
X78515000Y-117475000D03*
X78515000Y-127395000D03*
X81915000Y-127395000D03*
D20*
X54041000Y-123515000D03*
D16*
X72771000Y-105156000D03*
D19*
X71271000Y-109476000D03*
D18*
X74271000Y-109476000D03*
D21*
X108581000Y-143510000D03*
X95881000Y-143510000D03*
D22*
X105791000Y-140970000D03*
D23*
X104775000Y-139190000D03*
X103759000Y-140970000D03*
X102743000Y-139190000D03*
X101727000Y-140970000D03*
X100711000Y-139190000D03*
X99695000Y-140970000D03*
X98679000Y-139190000D03*
D24*
X110361000Y-140080000D03*
X94101000Y-140080000D03*
D25*
X118491000Y-119380000D03*
D26*
X118491000Y-116840000D03*
M02*
