%TF.GenerationSoftware,KiCad,Pcbnew,(5.1.9-0-10_14)*%
%TF.CreationDate,2022-04-24T23:49:05-07:00*%
%TF.ProjectId,PROTO_PCB_2022,50524f54-4f5f-4504-9342-5f323032322e,rev?*%
%TF.SameCoordinates,Original*%
%TF.FileFunction,Copper,L2,Bot*%
%TF.FilePolarity,Positive*%
%FSLAX46Y46*%
G04 Gerber Fmt 4.6, Leading zero omitted, Abs format (unit mm)*
G04 Created by KiCad (PCBNEW (5.1.9-0-10_14)) date 2022-04-24 23:49:05*
%MOMM*%
%LPD*%
G01*
G04 APERTURE LIST*
%TA.AperFunction,ComponentPad*%
%ADD10C,3.500000*%
%TD*%
%TA.AperFunction,ComponentPad*%
%ADD11C,2.600000*%
%TD*%
%TA.AperFunction,ComponentPad*%
%ADD12R,2.600000X2.600000*%
%TD*%
%TA.AperFunction,ComponentPad*%
%ADD13C,1.520000*%
%TD*%
%TA.AperFunction,ComponentPad*%
%ADD14R,1.520000X1.520000*%
%TD*%
%TA.AperFunction,ViaPad*%
%ADD15C,0.800000*%
%TD*%
%TA.AperFunction,Conductor*%
%ADD16C,1.570000*%
%TD*%
%TA.AperFunction,Conductor*%
%ADD17C,1.000000*%
%TD*%
%TA.AperFunction,Conductor*%
%ADD18C,0.254000*%
%TD*%
%TA.AperFunction,Conductor*%
%ADD19C,0.100000*%
%TD*%
G04 APERTURE END LIST*
D10*
%TO.P,F1,2*%
%TO.N,12V_FOR_BRAKELIGHTS*%
X145344000Y-100838000D03*
%TO.P,F1,1*%
%TO.N,BATT_12V*%
X136144000Y-100838000D03*
%TD*%
D11*
%TO.P,J10,2*%
%TO.N,ECU_KILL_EN_TOGGLESWITCH_2B*%
X123600200Y-85090000D03*
D12*
%TO.P,J10,1*%
%TO.N,ECU_KILL_EN_TOGGLESWITCH_3B*%
X128600200Y-85090000D03*
%TD*%
D11*
%TO.P,J9,2*%
%TO.N,ECU_KILL_EN_TOGGLESWITCH_1B*%
X111484400Y-85090000D03*
D12*
%TO.P,J9,1*%
%TO.N,ECU_KILL_EN_TOGGLESWITCH_2B*%
X116484400Y-85090000D03*
%TD*%
D11*
%TO.P,J8,2*%
%TO.N,12V_FOR_BRAKELIGHTS*%
X99368600Y-85090000D03*
D12*
%TO.P,J8,1*%
%TO.N,ECU_KILL_EN_TOGGLESWITCH_1B*%
X104368600Y-85090000D03*
%TD*%
D13*
%TO.P,J6,2*%
%TO.N,+5V*%
X82296000Y-109395001D03*
D14*
%TO.P,J6,1*%
%TO.N,BRAKELIGHTS_EN_5V*%
X82296000Y-112395000D03*
%TD*%
D13*
%TO.P,J4,2*%
%TO.N,VESC_EN_5V*%
X121920000Y-109268001D03*
D14*
%TO.P,J4,1*%
%TO.N,GND*%
X121920000Y-112268000D03*
%TD*%
D13*
%TO.P,J3,2*%
%TO.N,+5V*%
X108712000Y-109268001D03*
D14*
%TO.P,J3,1*%
%TO.N,VESC_EN_5V*%
X108712000Y-112268000D03*
%TD*%
D13*
%TO.P,J1,2*%
%TO.N,+5V*%
X95504000Y-109395001D03*
D14*
%TO.P,J1,1*%
%TO.N,HORN_EN_5V*%
X95504000Y-112395000D03*
%TD*%
D11*
%TO.P,J2,2*%
%TO.N,12V_FOR_BRAKELIGHTS*%
X87252800Y-85090000D03*
D12*
%TO.P,J2,1*%
%TO.N,HORN_GND*%
X92252800Y-85090000D03*
%TD*%
D11*
%TO.P,J7,2*%
%TO.N,12V_FOR_BRAKELIGHTS*%
X75137000Y-85090000D03*
D12*
%TO.P,J7,1*%
%TO.N,BRAKELIGHTS_GND*%
X80137000Y-85090000D03*
%TD*%
D11*
%TO.P,J5,2*%
%TO.N,ECU_KILL_EN_TOGGLESWITCH_3B*%
X135716000Y-85090000D03*
D12*
%TO.P,J5,1*%
%TO.N,GND*%
X140716000Y-85090000D03*
%TD*%
D11*
%TO.P,J12,2*%
%TO.N,12V_FOR_BRAKELIGHTS*%
X144700000Y-111506000D03*
D12*
%TO.P,J12,1*%
%TO.N,GND*%
X139700000Y-111506000D03*
%TD*%
D11*
%TO.P,J11,2*%
%TO.N,BATT_12V*%
X133016000Y-111506000D03*
D12*
%TO.P,J11,1*%
%TO.N,GND*%
X128016000Y-111506000D03*
%TD*%
D15*
%TO.N,GND*%
X123190000Y-103632000D03*
X126238000Y-102616000D03*
X127762000Y-102616000D03*
X124714000Y-103632000D03*
X126238000Y-103632000D03*
X127762000Y-103632000D03*
X129286000Y-103632000D03*
X101600000Y-97790000D03*
X103124000Y-97790000D03*
X104648000Y-97790000D03*
X106172000Y-97790000D03*
X107696000Y-97790000D03*
X109220000Y-97790000D03*
X107696000Y-99314000D03*
X107696000Y-100838000D03*
X101600000Y-99314000D03*
X101600000Y-100838000D03*
X101600000Y-96266000D03*
X101600000Y-94742000D03*
X107696000Y-96266000D03*
X107696000Y-94742000D03*
X109220000Y-99314000D03*
X109220000Y-100838000D03*
X129286000Y-102616000D03*
X92964000Y-98298000D03*
X80943990Y-98126010D03*
X80943990Y-99142010D03*
%TO.N,BRAKELIGHTS_EN_5V*%
X91440000Y-102870000D03*
X90932000Y-101854000D03*
X86360000Y-103378000D03*
X85350429Y-103384429D03*
%TO.N,VESC_EN_5V*%
X112268000Y-106934000D03*
X106680000Y-107950000D03*
X111252000Y-106934000D03*
X106680000Y-106934000D03*
%TD*%
D16*
%TO.N,BRAKELIGHTS_EN_5V*%
X85350429Y-103384429D02*
X90925571Y-103384429D01*
X91440000Y-102870000D02*
X91440000Y-102362000D01*
X90925571Y-103384429D02*
X91440000Y-102870000D01*
D17*
%TO.N,VESC_EN_5V*%
X106680000Y-106934000D02*
X111252000Y-106934000D01*
X106680000Y-106934000D02*
X106680000Y-107950000D01*
%TD*%
D18*
%TO.N,GND*%
X151207001Y-118060000D02*
X71170000Y-118060000D01*
X71170000Y-110684721D01*
X75841002Y-110684721D01*
X75841002Y-111105279D01*
X75923049Y-111517756D01*
X76083990Y-111906301D01*
X76317639Y-112255982D01*
X76615019Y-112553362D01*
X76964700Y-112787011D01*
X77353245Y-112947952D01*
X77765722Y-113029999D01*
X78186280Y-113029999D01*
X78598757Y-112947952D01*
X78987302Y-112787011D01*
X79336983Y-112553362D01*
X79634363Y-112255982D01*
X79868012Y-111906301D01*
X79980388Y-111635000D01*
X80897928Y-111635000D01*
X80897928Y-113155000D01*
X80910188Y-113279482D01*
X80946498Y-113399180D01*
X81005463Y-113509494D01*
X81084815Y-113606185D01*
X81181506Y-113685537D01*
X81291820Y-113744502D01*
X81411518Y-113780812D01*
X81536000Y-113793072D01*
X83056000Y-113793072D01*
X83180482Y-113780812D01*
X83300180Y-113744502D01*
X83410494Y-113685537D01*
X83507185Y-113606185D01*
X83586537Y-113509494D01*
X83645502Y-113399180D01*
X83681812Y-113279482D01*
X83694072Y-113155000D01*
X83694072Y-111635000D01*
X83681812Y-111510518D01*
X83645502Y-111390820D01*
X83586537Y-111280506D01*
X83507185Y-111183815D01*
X83410494Y-111104463D01*
X83300180Y-111045498D01*
X83180482Y-111009188D01*
X83056000Y-110996928D01*
X81536000Y-110996928D01*
X81411518Y-111009188D01*
X81291820Y-111045498D01*
X81181506Y-111104463D01*
X81084815Y-111183815D01*
X81005463Y-111280506D01*
X80946498Y-111390820D01*
X80910188Y-111510518D01*
X80897928Y-111635000D01*
X79980388Y-111635000D01*
X80028953Y-111517756D01*
X80111000Y-111105279D01*
X80111000Y-110684721D01*
X80028953Y-110272244D01*
X79868012Y-109883699D01*
X79634363Y-109534018D01*
X79357950Y-109257605D01*
X80901000Y-109257605D01*
X80901000Y-109532397D01*
X80954609Y-109801908D01*
X81059767Y-110055781D01*
X81212433Y-110284262D01*
X81406739Y-110478568D01*
X81635220Y-110631234D01*
X81889093Y-110736392D01*
X82158604Y-110790001D01*
X82433396Y-110790001D01*
X82702907Y-110736392D01*
X82827651Y-110684721D01*
X89049002Y-110684721D01*
X89049002Y-111105279D01*
X89131049Y-111517756D01*
X89291990Y-111906301D01*
X89525639Y-112255982D01*
X89823019Y-112553362D01*
X90172700Y-112787011D01*
X90561245Y-112947952D01*
X90973722Y-113029999D01*
X91394280Y-113029999D01*
X91806757Y-112947952D01*
X92195302Y-112787011D01*
X92544983Y-112553362D01*
X92842363Y-112255982D01*
X93076012Y-111906301D01*
X93188388Y-111635000D01*
X94105928Y-111635000D01*
X94105928Y-113155000D01*
X94118188Y-113279482D01*
X94154498Y-113399180D01*
X94213463Y-113509494D01*
X94292815Y-113606185D01*
X94389506Y-113685537D01*
X94499820Y-113744502D01*
X94619518Y-113780812D01*
X94744000Y-113793072D01*
X96264000Y-113793072D01*
X96388482Y-113780812D01*
X96508180Y-113744502D01*
X96618494Y-113685537D01*
X96715185Y-113606185D01*
X96794537Y-113509494D01*
X96853502Y-113399180D01*
X96889812Y-113279482D01*
X96902072Y-113155000D01*
X96902072Y-111635000D01*
X96889812Y-111510518D01*
X96853502Y-111390820D01*
X96794537Y-111280506D01*
X96715185Y-111183815D01*
X96618494Y-111104463D01*
X96508180Y-111045498D01*
X96388482Y-111009188D01*
X96264000Y-110996928D01*
X94744000Y-110996928D01*
X94619518Y-111009188D01*
X94499820Y-111045498D01*
X94389506Y-111104463D01*
X94292815Y-111183815D01*
X94213463Y-111280506D01*
X94154498Y-111390820D01*
X94118188Y-111510518D01*
X94105928Y-111635000D01*
X93188388Y-111635000D01*
X93236953Y-111517756D01*
X93319000Y-111105279D01*
X93319000Y-110684721D01*
X93236953Y-110272244D01*
X93076012Y-109883699D01*
X92842363Y-109534018D01*
X92565950Y-109257605D01*
X94109000Y-109257605D01*
X94109000Y-109532397D01*
X94162609Y-109801908D01*
X94267767Y-110055781D01*
X94420433Y-110284262D01*
X94614739Y-110478568D01*
X94843220Y-110631234D01*
X95097093Y-110736392D01*
X95366604Y-110790001D01*
X95641396Y-110790001D01*
X95910907Y-110736392D01*
X96164780Y-110631234D01*
X96274800Y-110557721D01*
X102257002Y-110557721D01*
X102257002Y-110978279D01*
X102339049Y-111390756D01*
X102499990Y-111779301D01*
X102733639Y-112128982D01*
X103031019Y-112426362D01*
X103380700Y-112660011D01*
X103769245Y-112820952D01*
X104181722Y-112902999D01*
X104602280Y-112902999D01*
X105014757Y-112820952D01*
X105403302Y-112660011D01*
X105752983Y-112426362D01*
X106050363Y-112128982D01*
X106284012Y-111779301D01*
X106396388Y-111508000D01*
X107313928Y-111508000D01*
X107313928Y-113028000D01*
X107326188Y-113152482D01*
X107362498Y-113272180D01*
X107421463Y-113382494D01*
X107500815Y-113479185D01*
X107597506Y-113558537D01*
X107707820Y-113617502D01*
X107827518Y-113653812D01*
X107952000Y-113666072D01*
X109472000Y-113666072D01*
X109596482Y-113653812D01*
X109716180Y-113617502D01*
X109826494Y-113558537D01*
X109923185Y-113479185D01*
X110002537Y-113382494D01*
X110061502Y-113272180D01*
X110097812Y-113152482D01*
X110110072Y-113028000D01*
X110110072Y-111508000D01*
X110097812Y-111383518D01*
X110061502Y-111263820D01*
X110002537Y-111153506D01*
X109923185Y-111056815D01*
X109826494Y-110977463D01*
X109716180Y-110918498D01*
X109596482Y-110882188D01*
X109472000Y-110869928D01*
X107952000Y-110869928D01*
X107827518Y-110882188D01*
X107707820Y-110918498D01*
X107597506Y-110977463D01*
X107500815Y-111056815D01*
X107421463Y-111153506D01*
X107362498Y-111263820D01*
X107326188Y-111383518D01*
X107313928Y-111508000D01*
X106396388Y-111508000D01*
X106444953Y-111390756D01*
X106527000Y-110978279D01*
X106527000Y-110557721D01*
X106444953Y-110145244D01*
X106284012Y-109756699D01*
X106050363Y-109407018D01*
X105752983Y-109109638D01*
X105403302Y-108875989D01*
X105014757Y-108715048D01*
X104602280Y-108633001D01*
X104181722Y-108633001D01*
X103769245Y-108715048D01*
X103380700Y-108875989D01*
X103031019Y-109109638D01*
X102733639Y-109407018D01*
X102499990Y-109756699D01*
X102339049Y-110145244D01*
X102257002Y-110557721D01*
X96274800Y-110557721D01*
X96393261Y-110478568D01*
X96587567Y-110284262D01*
X96740233Y-110055781D01*
X96845391Y-109801908D01*
X96899000Y-109532397D01*
X96899000Y-109257605D01*
X96845391Y-108988094D01*
X96740233Y-108734221D01*
X96587567Y-108505740D01*
X96393261Y-108311434D01*
X96164780Y-108158768D01*
X95910907Y-108053610D01*
X95641396Y-108000001D01*
X95366604Y-108000001D01*
X95097093Y-108053610D01*
X94843220Y-108158768D01*
X94614739Y-108311434D01*
X94420433Y-108505740D01*
X94267767Y-108734221D01*
X94162609Y-108988094D01*
X94109000Y-109257605D01*
X92565950Y-109257605D01*
X92544983Y-109236638D01*
X92195302Y-109002989D01*
X91806757Y-108842048D01*
X91394280Y-108760001D01*
X90973722Y-108760001D01*
X90561245Y-108842048D01*
X90172700Y-109002989D01*
X89823019Y-109236638D01*
X89525639Y-109534018D01*
X89291990Y-109883699D01*
X89131049Y-110272244D01*
X89049002Y-110684721D01*
X82827651Y-110684721D01*
X82956780Y-110631234D01*
X83185261Y-110478568D01*
X83379567Y-110284262D01*
X83532233Y-110055781D01*
X83637391Y-109801908D01*
X83691000Y-109532397D01*
X83691000Y-109257605D01*
X83637391Y-108988094D01*
X83532233Y-108734221D01*
X83379567Y-108505740D01*
X83185261Y-108311434D01*
X82956780Y-108158768D01*
X82702907Y-108053610D01*
X82433396Y-108000001D01*
X82158604Y-108000001D01*
X81889093Y-108053610D01*
X81635220Y-108158768D01*
X81406739Y-108311434D01*
X81212433Y-108505740D01*
X81059767Y-108734221D01*
X80954609Y-108988094D01*
X80901000Y-109257605D01*
X79357950Y-109257605D01*
X79336983Y-109236638D01*
X78987302Y-109002989D01*
X78598757Y-108842048D01*
X78186280Y-108760001D01*
X77765722Y-108760001D01*
X77353245Y-108842048D01*
X76964700Y-109002989D01*
X76615019Y-109236638D01*
X76317639Y-109534018D01*
X76083990Y-109883699D01*
X75923049Y-110272244D01*
X75841002Y-110684721D01*
X71170000Y-110684721D01*
X71170000Y-106934000D01*
X105539509Y-106934000D01*
X105545000Y-106989752D01*
X105545000Y-108005752D01*
X105561423Y-108172499D01*
X105626324Y-108386447D01*
X105731717Y-108583623D01*
X105873552Y-108756449D01*
X106046378Y-108898284D01*
X106243554Y-109003676D01*
X106457502Y-109068577D01*
X106680000Y-109090491D01*
X106902499Y-109068577D01*
X107116447Y-109003676D01*
X107313623Y-108898284D01*
X107376619Y-108846584D01*
X107370609Y-108861094D01*
X107317000Y-109130605D01*
X107317000Y-109405397D01*
X107370609Y-109674908D01*
X107475767Y-109928781D01*
X107628433Y-110157262D01*
X107822739Y-110351568D01*
X108051220Y-110504234D01*
X108305093Y-110609392D01*
X108574604Y-110663001D01*
X108849396Y-110663001D01*
X109118907Y-110609392D01*
X109243651Y-110557721D01*
X115465002Y-110557721D01*
X115465002Y-110978279D01*
X115547049Y-111390756D01*
X115707990Y-111779301D01*
X115941639Y-112128982D01*
X116239019Y-112426362D01*
X116588700Y-112660011D01*
X116977245Y-112820952D01*
X117389722Y-112902999D01*
X117810280Y-112902999D01*
X118222757Y-112820952D01*
X118611302Y-112660011D01*
X118960983Y-112426362D01*
X119258363Y-112128982D01*
X119492012Y-111779301D01*
X119652953Y-111390756D01*
X119667938Y-111315419D01*
X131081000Y-111315419D01*
X131081000Y-111696581D01*
X131155361Y-112070419D01*
X131301225Y-112422566D01*
X131512987Y-112739491D01*
X131782509Y-113009013D01*
X132099434Y-113220775D01*
X132451581Y-113366639D01*
X132825419Y-113441000D01*
X133206581Y-113441000D01*
X133580419Y-113366639D01*
X133932566Y-113220775D01*
X134249491Y-113009013D01*
X134519013Y-112739491D01*
X134730775Y-112422566D01*
X134876639Y-112070419D01*
X134951000Y-111696581D01*
X134951000Y-111315419D01*
X142765000Y-111315419D01*
X142765000Y-111696581D01*
X142839361Y-112070419D01*
X142985225Y-112422566D01*
X143196987Y-112739491D01*
X143466509Y-113009013D01*
X143783434Y-113220775D01*
X144135581Y-113366639D01*
X144509419Y-113441000D01*
X144890581Y-113441000D01*
X145264419Y-113366639D01*
X145616566Y-113220775D01*
X145933491Y-113009013D01*
X146203013Y-112739491D01*
X146414775Y-112422566D01*
X146560639Y-112070419D01*
X146635000Y-111696581D01*
X146635000Y-111315419D01*
X146560639Y-110941581D01*
X146414775Y-110589434D01*
X146203013Y-110272509D01*
X145933491Y-110002987D01*
X145616566Y-109791225D01*
X145264419Y-109645361D01*
X144890581Y-109571000D01*
X144509419Y-109571000D01*
X144135581Y-109645361D01*
X143783434Y-109791225D01*
X143466509Y-110002987D01*
X143196987Y-110272509D01*
X142985225Y-110589434D01*
X142839361Y-110941581D01*
X142765000Y-111315419D01*
X134951000Y-111315419D01*
X134876639Y-110941581D01*
X134730775Y-110589434D01*
X134519013Y-110272509D01*
X134249491Y-110002987D01*
X133932566Y-109791225D01*
X133580419Y-109645361D01*
X133206581Y-109571000D01*
X132825419Y-109571000D01*
X132451581Y-109645361D01*
X132099434Y-109791225D01*
X131782509Y-110002987D01*
X131512987Y-110272509D01*
X131301225Y-110589434D01*
X131155361Y-110941581D01*
X131081000Y-111315419D01*
X119667938Y-111315419D01*
X119735000Y-110978279D01*
X119735000Y-110557721D01*
X119652953Y-110145244D01*
X119492012Y-109756699D01*
X119258363Y-109407018D01*
X118981950Y-109130605D01*
X120525000Y-109130605D01*
X120525000Y-109405397D01*
X120578609Y-109674908D01*
X120683767Y-109928781D01*
X120836433Y-110157262D01*
X121030739Y-110351568D01*
X121259220Y-110504234D01*
X121513093Y-110609392D01*
X121782604Y-110663001D01*
X122057396Y-110663001D01*
X122326907Y-110609392D01*
X122580780Y-110504234D01*
X122809261Y-110351568D01*
X123003567Y-110157262D01*
X123156233Y-109928781D01*
X123261391Y-109674908D01*
X123315000Y-109405397D01*
X123315000Y-109130605D01*
X123261391Y-108861094D01*
X123156233Y-108607221D01*
X123003567Y-108378740D01*
X122809261Y-108184434D01*
X122580780Y-108031768D01*
X122326907Y-107926610D01*
X122057396Y-107873001D01*
X121782604Y-107873001D01*
X121513093Y-107926610D01*
X121259220Y-108031768D01*
X121030739Y-108184434D01*
X120836433Y-108378740D01*
X120683767Y-108607221D01*
X120578609Y-108861094D01*
X120525000Y-109130605D01*
X118981950Y-109130605D01*
X118960983Y-109109638D01*
X118611302Y-108875989D01*
X118222757Y-108715048D01*
X117810280Y-108633001D01*
X117389722Y-108633001D01*
X116977245Y-108715048D01*
X116588700Y-108875989D01*
X116239019Y-109109638D01*
X115941639Y-109407018D01*
X115707990Y-109756699D01*
X115547049Y-110145244D01*
X115465002Y-110557721D01*
X109243651Y-110557721D01*
X109372780Y-110504234D01*
X109601261Y-110351568D01*
X109795567Y-110157262D01*
X109948233Y-109928781D01*
X110053391Y-109674908D01*
X110107000Y-109405397D01*
X110107000Y-109130605D01*
X110053391Y-108861094D01*
X109948233Y-108607221D01*
X109795567Y-108378740D01*
X109601261Y-108184434D01*
X109428502Y-108069000D01*
X111307752Y-108069000D01*
X111474499Y-108052577D01*
X111688447Y-107987676D01*
X111871281Y-107889950D01*
X111966102Y-107929226D01*
X112166061Y-107969000D01*
X112369939Y-107969000D01*
X112569898Y-107929226D01*
X112758256Y-107851205D01*
X112927774Y-107737937D01*
X113071937Y-107593774D01*
X113185205Y-107424256D01*
X113263226Y-107235898D01*
X113303000Y-107035939D01*
X113303000Y-106832061D01*
X113263226Y-106632102D01*
X113185205Y-106443744D01*
X113071937Y-106274226D01*
X112927774Y-106130063D01*
X112758256Y-106016795D01*
X112569898Y-105938774D01*
X112369939Y-105899000D01*
X112166061Y-105899000D01*
X111966102Y-105938774D01*
X111871281Y-105978050D01*
X111688447Y-105880324D01*
X111474499Y-105815423D01*
X111307752Y-105799000D01*
X106735751Y-105799000D01*
X106680000Y-105793509D01*
X106624248Y-105799000D01*
X106457501Y-105815423D01*
X106243553Y-105880324D01*
X106046377Y-105985716D01*
X105873551Y-106127551D01*
X105731716Y-106300377D01*
X105626324Y-106497553D01*
X105561423Y-106711501D01*
X105539509Y-106934000D01*
X71170000Y-106934000D01*
X71170000Y-103384429D01*
X83923559Y-103384429D01*
X83950976Y-103662798D01*
X84032173Y-103930469D01*
X84164030Y-104177155D01*
X84341480Y-104393378D01*
X84557703Y-104570828D01*
X84804389Y-104702685D01*
X85072060Y-104783882D01*
X85280677Y-104804429D01*
X90855829Y-104804429D01*
X90925571Y-104811298D01*
X90995313Y-104804429D01*
X90995323Y-104804429D01*
X91203940Y-104783882D01*
X91471611Y-104702685D01*
X91718297Y-104570828D01*
X91934520Y-104393378D01*
X91978987Y-104339195D01*
X92394771Y-103923411D01*
X92448948Y-103878949D01*
X92626399Y-103662726D01*
X92758256Y-103416040D01*
X92839453Y-103148369D01*
X92860000Y-102939752D01*
X92860000Y-102939743D01*
X92866869Y-102870001D01*
X92860000Y-102800259D01*
X92860000Y-102292249D01*
X92839453Y-102083632D01*
X92758256Y-101815960D01*
X92626399Y-101569274D01*
X92448949Y-101353051D01*
X92232726Y-101175601D01*
X91986040Y-101043744D01*
X91718369Y-100962547D01*
X91440000Y-100935130D01*
X91422364Y-100936867D01*
X91422256Y-100936795D01*
X91233898Y-100858774D01*
X91033939Y-100819000D01*
X90830061Y-100819000D01*
X90630102Y-100858774D01*
X90441744Y-100936795D01*
X90272226Y-101050063D01*
X90128063Y-101194226D01*
X90014795Y-101363744D01*
X89936774Y-101552102D01*
X89897000Y-101752061D01*
X89897000Y-101955939D01*
X89898689Y-101964429D01*
X85280677Y-101964429D01*
X85072060Y-101984976D01*
X84804389Y-102066173D01*
X84557703Y-102198030D01*
X84341480Y-102375480D01*
X84164030Y-102591703D01*
X84032173Y-102838389D01*
X83950976Y-103106060D01*
X83923559Y-103384429D01*
X71170000Y-103384429D01*
X71170000Y-99118495D01*
X73199000Y-99118495D01*
X73199000Y-99509505D01*
X73275282Y-99893003D01*
X73424915Y-100254250D01*
X73642149Y-100579364D01*
X73918636Y-100855851D01*
X74243750Y-101073085D01*
X74604997Y-101222718D01*
X74988495Y-101299000D01*
X75379505Y-101299000D01*
X75763003Y-101222718D01*
X76124250Y-101073085D01*
X76449364Y-100855851D01*
X76702117Y-100603098D01*
X133759000Y-100603098D01*
X133759000Y-101072902D01*
X133850654Y-101533679D01*
X134030440Y-101967721D01*
X134291450Y-102358349D01*
X134623651Y-102690550D01*
X135014279Y-102951560D01*
X135448321Y-103131346D01*
X135909098Y-103223000D01*
X136378902Y-103223000D01*
X136839679Y-103131346D01*
X137273721Y-102951560D01*
X137664349Y-102690550D01*
X137996550Y-102358349D01*
X138257560Y-101967721D01*
X138303311Y-101857268D01*
X138909000Y-101857268D01*
X138909000Y-102218732D01*
X138979518Y-102573250D01*
X139117844Y-102907199D01*
X139318662Y-103207744D01*
X139574256Y-103463338D01*
X139874801Y-103664156D01*
X140208750Y-103802482D01*
X140563268Y-103873000D01*
X140924732Y-103873000D01*
X141279250Y-103802482D01*
X141613199Y-103664156D01*
X141913744Y-103463338D01*
X142169338Y-103207744D01*
X142370156Y-102907199D01*
X142508482Y-102573250D01*
X142579000Y-102218732D01*
X142579000Y-101857268D01*
X142508482Y-101502750D01*
X142370156Y-101168801D01*
X142169338Y-100868256D01*
X141913744Y-100612662D01*
X141899431Y-100603098D01*
X142959000Y-100603098D01*
X142959000Y-101072902D01*
X143050654Y-101533679D01*
X143230440Y-101967721D01*
X143491450Y-102358349D01*
X143823651Y-102690550D01*
X144214279Y-102951560D01*
X144648321Y-103131346D01*
X145109098Y-103223000D01*
X145578902Y-103223000D01*
X146039679Y-103131346D01*
X146473721Y-102951560D01*
X146864349Y-102690550D01*
X147196550Y-102358349D01*
X147457560Y-101967721D01*
X147637346Y-101533679D01*
X147729000Y-101072902D01*
X147729000Y-100603098D01*
X147637346Y-100142321D01*
X147457560Y-99708279D01*
X147196550Y-99317651D01*
X146864349Y-98985450D01*
X146473721Y-98724440D01*
X146039679Y-98544654D01*
X145578902Y-98453000D01*
X145109098Y-98453000D01*
X144648321Y-98544654D01*
X144214279Y-98724440D01*
X143823651Y-98985450D01*
X143491450Y-99317651D01*
X143230440Y-99708279D01*
X143050654Y-100142321D01*
X142959000Y-100603098D01*
X141899431Y-100603098D01*
X141613199Y-100411844D01*
X141279250Y-100273518D01*
X140924732Y-100203000D01*
X140563268Y-100203000D01*
X140208750Y-100273518D01*
X139874801Y-100411844D01*
X139574256Y-100612662D01*
X139318662Y-100868256D01*
X139117844Y-101168801D01*
X138979518Y-101502750D01*
X138909000Y-101857268D01*
X138303311Y-101857268D01*
X138437346Y-101533679D01*
X138529000Y-101072902D01*
X138529000Y-100603098D01*
X138437346Y-100142321D01*
X138257560Y-99708279D01*
X137996550Y-99317651D01*
X137664349Y-98985450D01*
X137273721Y-98724440D01*
X136839679Y-98544654D01*
X136378902Y-98453000D01*
X135909098Y-98453000D01*
X135448321Y-98544654D01*
X135014279Y-98724440D01*
X134623651Y-98985450D01*
X134291450Y-99317651D01*
X134030440Y-99708279D01*
X133850654Y-100142321D01*
X133759000Y-100603098D01*
X76702117Y-100603098D01*
X76725851Y-100579364D01*
X76943085Y-100254250D01*
X77092718Y-99893003D01*
X77169000Y-99509505D01*
X77169000Y-99118495D01*
X77092718Y-98734997D01*
X76943085Y-98373750D01*
X76725851Y-98048636D01*
X76449364Y-97772149D01*
X76124250Y-97554915D01*
X75763003Y-97405282D01*
X75379505Y-97329000D01*
X74988495Y-97329000D01*
X74604997Y-97405282D01*
X74243750Y-97554915D01*
X73918636Y-97772149D01*
X73642149Y-98048636D01*
X73424915Y-98373750D01*
X73275282Y-98734997D01*
X73199000Y-99118495D01*
X71170000Y-99118495D01*
X71170000Y-94546495D01*
X145843000Y-94546495D01*
X145843000Y-94937505D01*
X145919282Y-95321003D01*
X146068915Y-95682250D01*
X146286149Y-96007364D01*
X146562636Y-96283851D01*
X146887750Y-96501085D01*
X147248997Y-96650718D01*
X147632495Y-96727000D01*
X148023505Y-96727000D01*
X148407003Y-96650718D01*
X148768250Y-96501085D01*
X149093364Y-96283851D01*
X149369851Y-96007364D01*
X149587085Y-95682250D01*
X149736718Y-95321003D01*
X149813000Y-94937505D01*
X149813000Y-94546495D01*
X149736718Y-94162997D01*
X149587085Y-93801750D01*
X149369851Y-93476636D01*
X149093364Y-93200149D01*
X148768250Y-92982915D01*
X148407003Y-92833282D01*
X148023505Y-92757000D01*
X147632495Y-92757000D01*
X147248997Y-92833282D01*
X146887750Y-92982915D01*
X146562636Y-93200149D01*
X146286149Y-93476636D01*
X146068915Y-93801750D01*
X145919282Y-94162997D01*
X145843000Y-94546495D01*
X71170000Y-94546495D01*
X71170000Y-84899419D01*
X73202000Y-84899419D01*
X73202000Y-85280581D01*
X73276361Y-85654419D01*
X73422225Y-86006566D01*
X73633987Y-86323491D01*
X73903509Y-86593013D01*
X74220434Y-86804775D01*
X74572581Y-86950639D01*
X74946419Y-87025000D01*
X75327581Y-87025000D01*
X75701419Y-86950639D01*
X76053566Y-86804775D01*
X76370491Y-86593013D01*
X76640013Y-86323491D01*
X76851775Y-86006566D01*
X76997639Y-85654419D01*
X77072000Y-85280581D01*
X77072000Y-84899419D01*
X76997639Y-84525581D01*
X76851775Y-84173434D01*
X76640013Y-83856509D01*
X76573504Y-83790000D01*
X78198928Y-83790000D01*
X78198928Y-86390000D01*
X78211188Y-86514482D01*
X78247498Y-86634180D01*
X78306463Y-86744494D01*
X78385815Y-86841185D01*
X78482506Y-86920537D01*
X78592820Y-86979502D01*
X78712518Y-87015812D01*
X78837000Y-87028072D01*
X81437000Y-87028072D01*
X81561482Y-87015812D01*
X81681180Y-86979502D01*
X81791494Y-86920537D01*
X81888185Y-86841185D01*
X81967537Y-86744494D01*
X82026502Y-86634180D01*
X82062812Y-86514482D01*
X82075072Y-86390000D01*
X82075072Y-84899419D01*
X85317800Y-84899419D01*
X85317800Y-85280581D01*
X85392161Y-85654419D01*
X85538025Y-86006566D01*
X85749787Y-86323491D01*
X86019309Y-86593013D01*
X86336234Y-86804775D01*
X86688381Y-86950639D01*
X87062219Y-87025000D01*
X87443381Y-87025000D01*
X87817219Y-86950639D01*
X88169366Y-86804775D01*
X88486291Y-86593013D01*
X88755813Y-86323491D01*
X88967575Y-86006566D01*
X89113439Y-85654419D01*
X89187800Y-85280581D01*
X89187800Y-84899419D01*
X89113439Y-84525581D01*
X88967575Y-84173434D01*
X88755813Y-83856509D01*
X88689304Y-83790000D01*
X90314728Y-83790000D01*
X90314728Y-86390000D01*
X90326988Y-86514482D01*
X90363298Y-86634180D01*
X90422263Y-86744494D01*
X90501615Y-86841185D01*
X90598306Y-86920537D01*
X90708620Y-86979502D01*
X90828318Y-87015812D01*
X90952800Y-87028072D01*
X93552800Y-87028072D01*
X93677282Y-87015812D01*
X93796980Y-86979502D01*
X93907294Y-86920537D01*
X94003985Y-86841185D01*
X94083337Y-86744494D01*
X94142302Y-86634180D01*
X94178612Y-86514482D01*
X94190872Y-86390000D01*
X94190872Y-84899419D01*
X97433600Y-84899419D01*
X97433600Y-85280581D01*
X97507961Y-85654419D01*
X97653825Y-86006566D01*
X97865587Y-86323491D01*
X98135109Y-86593013D01*
X98452034Y-86804775D01*
X98804181Y-86950639D01*
X99178019Y-87025000D01*
X99559181Y-87025000D01*
X99933019Y-86950639D01*
X100285166Y-86804775D01*
X100602091Y-86593013D01*
X100871613Y-86323491D01*
X101083375Y-86006566D01*
X101229239Y-85654419D01*
X101303600Y-85280581D01*
X101303600Y-84899419D01*
X101229239Y-84525581D01*
X101083375Y-84173434D01*
X100871613Y-83856509D01*
X100805104Y-83790000D01*
X102430528Y-83790000D01*
X102430528Y-86390000D01*
X102442788Y-86514482D01*
X102479098Y-86634180D01*
X102538063Y-86744494D01*
X102617415Y-86841185D01*
X102714106Y-86920537D01*
X102824420Y-86979502D01*
X102944118Y-87015812D01*
X103068600Y-87028072D01*
X105668600Y-87028072D01*
X105793082Y-87015812D01*
X105912780Y-86979502D01*
X106023094Y-86920537D01*
X106119785Y-86841185D01*
X106199137Y-86744494D01*
X106258102Y-86634180D01*
X106294412Y-86514482D01*
X106306672Y-86390000D01*
X106306672Y-84899419D01*
X109549400Y-84899419D01*
X109549400Y-85280581D01*
X109623761Y-85654419D01*
X109769625Y-86006566D01*
X109981387Y-86323491D01*
X110250909Y-86593013D01*
X110567834Y-86804775D01*
X110919981Y-86950639D01*
X111293819Y-87025000D01*
X111674981Y-87025000D01*
X112048819Y-86950639D01*
X112400966Y-86804775D01*
X112717891Y-86593013D01*
X112987413Y-86323491D01*
X113199175Y-86006566D01*
X113345039Y-85654419D01*
X113419400Y-85280581D01*
X113419400Y-84899419D01*
X113345039Y-84525581D01*
X113199175Y-84173434D01*
X112987413Y-83856509D01*
X112920904Y-83790000D01*
X114546328Y-83790000D01*
X114546328Y-86390000D01*
X114558588Y-86514482D01*
X114594898Y-86634180D01*
X114653863Y-86744494D01*
X114733215Y-86841185D01*
X114829906Y-86920537D01*
X114940220Y-86979502D01*
X115059918Y-87015812D01*
X115184400Y-87028072D01*
X117784400Y-87028072D01*
X117908882Y-87015812D01*
X118028580Y-86979502D01*
X118138894Y-86920537D01*
X118235585Y-86841185D01*
X118314937Y-86744494D01*
X118373902Y-86634180D01*
X118410212Y-86514482D01*
X118422472Y-86390000D01*
X118422472Y-84899419D01*
X121665200Y-84899419D01*
X121665200Y-85280581D01*
X121739561Y-85654419D01*
X121885425Y-86006566D01*
X122097187Y-86323491D01*
X122366709Y-86593013D01*
X122683634Y-86804775D01*
X123035781Y-86950639D01*
X123409619Y-87025000D01*
X123790781Y-87025000D01*
X124164619Y-86950639D01*
X124516766Y-86804775D01*
X124833691Y-86593013D01*
X125103213Y-86323491D01*
X125314975Y-86006566D01*
X125460839Y-85654419D01*
X125535200Y-85280581D01*
X125535200Y-84899419D01*
X125460839Y-84525581D01*
X125314975Y-84173434D01*
X125103213Y-83856509D01*
X125036704Y-83790000D01*
X126662128Y-83790000D01*
X126662128Y-86390000D01*
X126674388Y-86514482D01*
X126710698Y-86634180D01*
X126769663Y-86744494D01*
X126849015Y-86841185D01*
X126945706Y-86920537D01*
X127056020Y-86979502D01*
X127175718Y-87015812D01*
X127300200Y-87028072D01*
X129900200Y-87028072D01*
X130024682Y-87015812D01*
X130144380Y-86979502D01*
X130254694Y-86920537D01*
X130351385Y-86841185D01*
X130430737Y-86744494D01*
X130489702Y-86634180D01*
X130526012Y-86514482D01*
X130538272Y-86390000D01*
X130538272Y-84899419D01*
X133781000Y-84899419D01*
X133781000Y-85280581D01*
X133855361Y-85654419D01*
X134001225Y-86006566D01*
X134212987Y-86323491D01*
X134482509Y-86593013D01*
X134799434Y-86804775D01*
X135151581Y-86950639D01*
X135525419Y-87025000D01*
X135906581Y-87025000D01*
X136280419Y-86950639D01*
X136632566Y-86804775D01*
X136949491Y-86593013D01*
X137219013Y-86323491D01*
X137430775Y-86006566D01*
X137576639Y-85654419D01*
X137651000Y-85280581D01*
X137651000Y-84899419D01*
X137576639Y-84525581D01*
X137430775Y-84173434D01*
X137219013Y-83856509D01*
X136949491Y-83586987D01*
X136632566Y-83375225D01*
X136280419Y-83229361D01*
X135906581Y-83155000D01*
X135525419Y-83155000D01*
X135151581Y-83229361D01*
X134799434Y-83375225D01*
X134482509Y-83586987D01*
X134212987Y-83856509D01*
X134001225Y-84173434D01*
X133855361Y-84525581D01*
X133781000Y-84899419D01*
X130538272Y-84899419D01*
X130538272Y-83790000D01*
X130526012Y-83665518D01*
X130489702Y-83545820D01*
X130430737Y-83435506D01*
X130351385Y-83338815D01*
X130254694Y-83259463D01*
X130144380Y-83200498D01*
X130024682Y-83164188D01*
X129900200Y-83151928D01*
X127300200Y-83151928D01*
X127175718Y-83164188D01*
X127056020Y-83200498D01*
X126945706Y-83259463D01*
X126849015Y-83338815D01*
X126769663Y-83435506D01*
X126710698Y-83545820D01*
X126674388Y-83665518D01*
X126662128Y-83790000D01*
X125036704Y-83790000D01*
X124833691Y-83586987D01*
X124516766Y-83375225D01*
X124164619Y-83229361D01*
X123790781Y-83155000D01*
X123409619Y-83155000D01*
X123035781Y-83229361D01*
X122683634Y-83375225D01*
X122366709Y-83586987D01*
X122097187Y-83856509D01*
X121885425Y-84173434D01*
X121739561Y-84525581D01*
X121665200Y-84899419D01*
X118422472Y-84899419D01*
X118422472Y-83790000D01*
X118410212Y-83665518D01*
X118373902Y-83545820D01*
X118314937Y-83435506D01*
X118235585Y-83338815D01*
X118138894Y-83259463D01*
X118028580Y-83200498D01*
X117908882Y-83164188D01*
X117784400Y-83151928D01*
X115184400Y-83151928D01*
X115059918Y-83164188D01*
X114940220Y-83200498D01*
X114829906Y-83259463D01*
X114733215Y-83338815D01*
X114653863Y-83435506D01*
X114594898Y-83545820D01*
X114558588Y-83665518D01*
X114546328Y-83790000D01*
X112920904Y-83790000D01*
X112717891Y-83586987D01*
X112400966Y-83375225D01*
X112048819Y-83229361D01*
X111674981Y-83155000D01*
X111293819Y-83155000D01*
X110919981Y-83229361D01*
X110567834Y-83375225D01*
X110250909Y-83586987D01*
X109981387Y-83856509D01*
X109769625Y-84173434D01*
X109623761Y-84525581D01*
X109549400Y-84899419D01*
X106306672Y-84899419D01*
X106306672Y-83790000D01*
X106294412Y-83665518D01*
X106258102Y-83545820D01*
X106199137Y-83435506D01*
X106119785Y-83338815D01*
X106023094Y-83259463D01*
X105912780Y-83200498D01*
X105793082Y-83164188D01*
X105668600Y-83151928D01*
X103068600Y-83151928D01*
X102944118Y-83164188D01*
X102824420Y-83200498D01*
X102714106Y-83259463D01*
X102617415Y-83338815D01*
X102538063Y-83435506D01*
X102479098Y-83545820D01*
X102442788Y-83665518D01*
X102430528Y-83790000D01*
X100805104Y-83790000D01*
X100602091Y-83586987D01*
X100285166Y-83375225D01*
X99933019Y-83229361D01*
X99559181Y-83155000D01*
X99178019Y-83155000D01*
X98804181Y-83229361D01*
X98452034Y-83375225D01*
X98135109Y-83586987D01*
X97865587Y-83856509D01*
X97653825Y-84173434D01*
X97507961Y-84525581D01*
X97433600Y-84899419D01*
X94190872Y-84899419D01*
X94190872Y-83790000D01*
X94178612Y-83665518D01*
X94142302Y-83545820D01*
X94083337Y-83435506D01*
X94003985Y-83338815D01*
X93907294Y-83259463D01*
X93796980Y-83200498D01*
X93677282Y-83164188D01*
X93552800Y-83151928D01*
X90952800Y-83151928D01*
X90828318Y-83164188D01*
X90708620Y-83200498D01*
X90598306Y-83259463D01*
X90501615Y-83338815D01*
X90422263Y-83435506D01*
X90363298Y-83545820D01*
X90326988Y-83665518D01*
X90314728Y-83790000D01*
X88689304Y-83790000D01*
X88486291Y-83586987D01*
X88169366Y-83375225D01*
X87817219Y-83229361D01*
X87443381Y-83155000D01*
X87062219Y-83155000D01*
X86688381Y-83229361D01*
X86336234Y-83375225D01*
X86019309Y-83586987D01*
X85749787Y-83856509D01*
X85538025Y-84173434D01*
X85392161Y-84525581D01*
X85317800Y-84899419D01*
X82075072Y-84899419D01*
X82075072Y-83790000D01*
X82062812Y-83665518D01*
X82026502Y-83545820D01*
X81967537Y-83435506D01*
X81888185Y-83338815D01*
X81791494Y-83259463D01*
X81681180Y-83200498D01*
X81561482Y-83164188D01*
X81437000Y-83151928D01*
X78837000Y-83151928D01*
X78712518Y-83164188D01*
X78592820Y-83200498D01*
X78482506Y-83259463D01*
X78385815Y-83338815D01*
X78306463Y-83435506D01*
X78247498Y-83545820D01*
X78211188Y-83665518D01*
X78198928Y-83790000D01*
X76573504Y-83790000D01*
X76370491Y-83586987D01*
X76053566Y-83375225D01*
X75701419Y-83229361D01*
X75327581Y-83155000D01*
X74946419Y-83155000D01*
X74572581Y-83229361D01*
X74220434Y-83375225D01*
X73903509Y-83586987D01*
X73633987Y-83856509D01*
X73422225Y-84173434D01*
X73276361Y-84525581D01*
X73202000Y-84899419D01*
X71170000Y-84899419D01*
X71170000Y-78790000D01*
X151207000Y-78790000D01*
X151207001Y-118060000D01*
%TA.AperFunction,Conductor*%
D19*
G36*
X151207001Y-118060000D02*
G01*
X71170000Y-118060000D01*
X71170000Y-110684721D01*
X75841002Y-110684721D01*
X75841002Y-111105279D01*
X75923049Y-111517756D01*
X76083990Y-111906301D01*
X76317639Y-112255982D01*
X76615019Y-112553362D01*
X76964700Y-112787011D01*
X77353245Y-112947952D01*
X77765722Y-113029999D01*
X78186280Y-113029999D01*
X78598757Y-112947952D01*
X78987302Y-112787011D01*
X79336983Y-112553362D01*
X79634363Y-112255982D01*
X79868012Y-111906301D01*
X79980388Y-111635000D01*
X80897928Y-111635000D01*
X80897928Y-113155000D01*
X80910188Y-113279482D01*
X80946498Y-113399180D01*
X81005463Y-113509494D01*
X81084815Y-113606185D01*
X81181506Y-113685537D01*
X81291820Y-113744502D01*
X81411518Y-113780812D01*
X81536000Y-113793072D01*
X83056000Y-113793072D01*
X83180482Y-113780812D01*
X83300180Y-113744502D01*
X83410494Y-113685537D01*
X83507185Y-113606185D01*
X83586537Y-113509494D01*
X83645502Y-113399180D01*
X83681812Y-113279482D01*
X83694072Y-113155000D01*
X83694072Y-111635000D01*
X83681812Y-111510518D01*
X83645502Y-111390820D01*
X83586537Y-111280506D01*
X83507185Y-111183815D01*
X83410494Y-111104463D01*
X83300180Y-111045498D01*
X83180482Y-111009188D01*
X83056000Y-110996928D01*
X81536000Y-110996928D01*
X81411518Y-111009188D01*
X81291820Y-111045498D01*
X81181506Y-111104463D01*
X81084815Y-111183815D01*
X81005463Y-111280506D01*
X80946498Y-111390820D01*
X80910188Y-111510518D01*
X80897928Y-111635000D01*
X79980388Y-111635000D01*
X80028953Y-111517756D01*
X80111000Y-111105279D01*
X80111000Y-110684721D01*
X80028953Y-110272244D01*
X79868012Y-109883699D01*
X79634363Y-109534018D01*
X79357950Y-109257605D01*
X80901000Y-109257605D01*
X80901000Y-109532397D01*
X80954609Y-109801908D01*
X81059767Y-110055781D01*
X81212433Y-110284262D01*
X81406739Y-110478568D01*
X81635220Y-110631234D01*
X81889093Y-110736392D01*
X82158604Y-110790001D01*
X82433396Y-110790001D01*
X82702907Y-110736392D01*
X82827651Y-110684721D01*
X89049002Y-110684721D01*
X89049002Y-111105279D01*
X89131049Y-111517756D01*
X89291990Y-111906301D01*
X89525639Y-112255982D01*
X89823019Y-112553362D01*
X90172700Y-112787011D01*
X90561245Y-112947952D01*
X90973722Y-113029999D01*
X91394280Y-113029999D01*
X91806757Y-112947952D01*
X92195302Y-112787011D01*
X92544983Y-112553362D01*
X92842363Y-112255982D01*
X93076012Y-111906301D01*
X93188388Y-111635000D01*
X94105928Y-111635000D01*
X94105928Y-113155000D01*
X94118188Y-113279482D01*
X94154498Y-113399180D01*
X94213463Y-113509494D01*
X94292815Y-113606185D01*
X94389506Y-113685537D01*
X94499820Y-113744502D01*
X94619518Y-113780812D01*
X94744000Y-113793072D01*
X96264000Y-113793072D01*
X96388482Y-113780812D01*
X96508180Y-113744502D01*
X96618494Y-113685537D01*
X96715185Y-113606185D01*
X96794537Y-113509494D01*
X96853502Y-113399180D01*
X96889812Y-113279482D01*
X96902072Y-113155000D01*
X96902072Y-111635000D01*
X96889812Y-111510518D01*
X96853502Y-111390820D01*
X96794537Y-111280506D01*
X96715185Y-111183815D01*
X96618494Y-111104463D01*
X96508180Y-111045498D01*
X96388482Y-111009188D01*
X96264000Y-110996928D01*
X94744000Y-110996928D01*
X94619518Y-111009188D01*
X94499820Y-111045498D01*
X94389506Y-111104463D01*
X94292815Y-111183815D01*
X94213463Y-111280506D01*
X94154498Y-111390820D01*
X94118188Y-111510518D01*
X94105928Y-111635000D01*
X93188388Y-111635000D01*
X93236953Y-111517756D01*
X93319000Y-111105279D01*
X93319000Y-110684721D01*
X93236953Y-110272244D01*
X93076012Y-109883699D01*
X92842363Y-109534018D01*
X92565950Y-109257605D01*
X94109000Y-109257605D01*
X94109000Y-109532397D01*
X94162609Y-109801908D01*
X94267767Y-110055781D01*
X94420433Y-110284262D01*
X94614739Y-110478568D01*
X94843220Y-110631234D01*
X95097093Y-110736392D01*
X95366604Y-110790001D01*
X95641396Y-110790001D01*
X95910907Y-110736392D01*
X96164780Y-110631234D01*
X96274800Y-110557721D01*
X102257002Y-110557721D01*
X102257002Y-110978279D01*
X102339049Y-111390756D01*
X102499990Y-111779301D01*
X102733639Y-112128982D01*
X103031019Y-112426362D01*
X103380700Y-112660011D01*
X103769245Y-112820952D01*
X104181722Y-112902999D01*
X104602280Y-112902999D01*
X105014757Y-112820952D01*
X105403302Y-112660011D01*
X105752983Y-112426362D01*
X106050363Y-112128982D01*
X106284012Y-111779301D01*
X106396388Y-111508000D01*
X107313928Y-111508000D01*
X107313928Y-113028000D01*
X107326188Y-113152482D01*
X107362498Y-113272180D01*
X107421463Y-113382494D01*
X107500815Y-113479185D01*
X107597506Y-113558537D01*
X107707820Y-113617502D01*
X107827518Y-113653812D01*
X107952000Y-113666072D01*
X109472000Y-113666072D01*
X109596482Y-113653812D01*
X109716180Y-113617502D01*
X109826494Y-113558537D01*
X109923185Y-113479185D01*
X110002537Y-113382494D01*
X110061502Y-113272180D01*
X110097812Y-113152482D01*
X110110072Y-113028000D01*
X110110072Y-111508000D01*
X110097812Y-111383518D01*
X110061502Y-111263820D01*
X110002537Y-111153506D01*
X109923185Y-111056815D01*
X109826494Y-110977463D01*
X109716180Y-110918498D01*
X109596482Y-110882188D01*
X109472000Y-110869928D01*
X107952000Y-110869928D01*
X107827518Y-110882188D01*
X107707820Y-110918498D01*
X107597506Y-110977463D01*
X107500815Y-111056815D01*
X107421463Y-111153506D01*
X107362498Y-111263820D01*
X107326188Y-111383518D01*
X107313928Y-111508000D01*
X106396388Y-111508000D01*
X106444953Y-111390756D01*
X106527000Y-110978279D01*
X106527000Y-110557721D01*
X106444953Y-110145244D01*
X106284012Y-109756699D01*
X106050363Y-109407018D01*
X105752983Y-109109638D01*
X105403302Y-108875989D01*
X105014757Y-108715048D01*
X104602280Y-108633001D01*
X104181722Y-108633001D01*
X103769245Y-108715048D01*
X103380700Y-108875989D01*
X103031019Y-109109638D01*
X102733639Y-109407018D01*
X102499990Y-109756699D01*
X102339049Y-110145244D01*
X102257002Y-110557721D01*
X96274800Y-110557721D01*
X96393261Y-110478568D01*
X96587567Y-110284262D01*
X96740233Y-110055781D01*
X96845391Y-109801908D01*
X96899000Y-109532397D01*
X96899000Y-109257605D01*
X96845391Y-108988094D01*
X96740233Y-108734221D01*
X96587567Y-108505740D01*
X96393261Y-108311434D01*
X96164780Y-108158768D01*
X95910907Y-108053610D01*
X95641396Y-108000001D01*
X95366604Y-108000001D01*
X95097093Y-108053610D01*
X94843220Y-108158768D01*
X94614739Y-108311434D01*
X94420433Y-108505740D01*
X94267767Y-108734221D01*
X94162609Y-108988094D01*
X94109000Y-109257605D01*
X92565950Y-109257605D01*
X92544983Y-109236638D01*
X92195302Y-109002989D01*
X91806757Y-108842048D01*
X91394280Y-108760001D01*
X90973722Y-108760001D01*
X90561245Y-108842048D01*
X90172700Y-109002989D01*
X89823019Y-109236638D01*
X89525639Y-109534018D01*
X89291990Y-109883699D01*
X89131049Y-110272244D01*
X89049002Y-110684721D01*
X82827651Y-110684721D01*
X82956780Y-110631234D01*
X83185261Y-110478568D01*
X83379567Y-110284262D01*
X83532233Y-110055781D01*
X83637391Y-109801908D01*
X83691000Y-109532397D01*
X83691000Y-109257605D01*
X83637391Y-108988094D01*
X83532233Y-108734221D01*
X83379567Y-108505740D01*
X83185261Y-108311434D01*
X82956780Y-108158768D01*
X82702907Y-108053610D01*
X82433396Y-108000001D01*
X82158604Y-108000001D01*
X81889093Y-108053610D01*
X81635220Y-108158768D01*
X81406739Y-108311434D01*
X81212433Y-108505740D01*
X81059767Y-108734221D01*
X80954609Y-108988094D01*
X80901000Y-109257605D01*
X79357950Y-109257605D01*
X79336983Y-109236638D01*
X78987302Y-109002989D01*
X78598757Y-108842048D01*
X78186280Y-108760001D01*
X77765722Y-108760001D01*
X77353245Y-108842048D01*
X76964700Y-109002989D01*
X76615019Y-109236638D01*
X76317639Y-109534018D01*
X76083990Y-109883699D01*
X75923049Y-110272244D01*
X75841002Y-110684721D01*
X71170000Y-110684721D01*
X71170000Y-106934000D01*
X105539509Y-106934000D01*
X105545000Y-106989752D01*
X105545000Y-108005752D01*
X105561423Y-108172499D01*
X105626324Y-108386447D01*
X105731717Y-108583623D01*
X105873552Y-108756449D01*
X106046378Y-108898284D01*
X106243554Y-109003676D01*
X106457502Y-109068577D01*
X106680000Y-109090491D01*
X106902499Y-109068577D01*
X107116447Y-109003676D01*
X107313623Y-108898284D01*
X107376619Y-108846584D01*
X107370609Y-108861094D01*
X107317000Y-109130605D01*
X107317000Y-109405397D01*
X107370609Y-109674908D01*
X107475767Y-109928781D01*
X107628433Y-110157262D01*
X107822739Y-110351568D01*
X108051220Y-110504234D01*
X108305093Y-110609392D01*
X108574604Y-110663001D01*
X108849396Y-110663001D01*
X109118907Y-110609392D01*
X109243651Y-110557721D01*
X115465002Y-110557721D01*
X115465002Y-110978279D01*
X115547049Y-111390756D01*
X115707990Y-111779301D01*
X115941639Y-112128982D01*
X116239019Y-112426362D01*
X116588700Y-112660011D01*
X116977245Y-112820952D01*
X117389722Y-112902999D01*
X117810280Y-112902999D01*
X118222757Y-112820952D01*
X118611302Y-112660011D01*
X118960983Y-112426362D01*
X119258363Y-112128982D01*
X119492012Y-111779301D01*
X119652953Y-111390756D01*
X119667938Y-111315419D01*
X131081000Y-111315419D01*
X131081000Y-111696581D01*
X131155361Y-112070419D01*
X131301225Y-112422566D01*
X131512987Y-112739491D01*
X131782509Y-113009013D01*
X132099434Y-113220775D01*
X132451581Y-113366639D01*
X132825419Y-113441000D01*
X133206581Y-113441000D01*
X133580419Y-113366639D01*
X133932566Y-113220775D01*
X134249491Y-113009013D01*
X134519013Y-112739491D01*
X134730775Y-112422566D01*
X134876639Y-112070419D01*
X134951000Y-111696581D01*
X134951000Y-111315419D01*
X142765000Y-111315419D01*
X142765000Y-111696581D01*
X142839361Y-112070419D01*
X142985225Y-112422566D01*
X143196987Y-112739491D01*
X143466509Y-113009013D01*
X143783434Y-113220775D01*
X144135581Y-113366639D01*
X144509419Y-113441000D01*
X144890581Y-113441000D01*
X145264419Y-113366639D01*
X145616566Y-113220775D01*
X145933491Y-113009013D01*
X146203013Y-112739491D01*
X146414775Y-112422566D01*
X146560639Y-112070419D01*
X146635000Y-111696581D01*
X146635000Y-111315419D01*
X146560639Y-110941581D01*
X146414775Y-110589434D01*
X146203013Y-110272509D01*
X145933491Y-110002987D01*
X145616566Y-109791225D01*
X145264419Y-109645361D01*
X144890581Y-109571000D01*
X144509419Y-109571000D01*
X144135581Y-109645361D01*
X143783434Y-109791225D01*
X143466509Y-110002987D01*
X143196987Y-110272509D01*
X142985225Y-110589434D01*
X142839361Y-110941581D01*
X142765000Y-111315419D01*
X134951000Y-111315419D01*
X134876639Y-110941581D01*
X134730775Y-110589434D01*
X134519013Y-110272509D01*
X134249491Y-110002987D01*
X133932566Y-109791225D01*
X133580419Y-109645361D01*
X133206581Y-109571000D01*
X132825419Y-109571000D01*
X132451581Y-109645361D01*
X132099434Y-109791225D01*
X131782509Y-110002987D01*
X131512987Y-110272509D01*
X131301225Y-110589434D01*
X131155361Y-110941581D01*
X131081000Y-111315419D01*
X119667938Y-111315419D01*
X119735000Y-110978279D01*
X119735000Y-110557721D01*
X119652953Y-110145244D01*
X119492012Y-109756699D01*
X119258363Y-109407018D01*
X118981950Y-109130605D01*
X120525000Y-109130605D01*
X120525000Y-109405397D01*
X120578609Y-109674908D01*
X120683767Y-109928781D01*
X120836433Y-110157262D01*
X121030739Y-110351568D01*
X121259220Y-110504234D01*
X121513093Y-110609392D01*
X121782604Y-110663001D01*
X122057396Y-110663001D01*
X122326907Y-110609392D01*
X122580780Y-110504234D01*
X122809261Y-110351568D01*
X123003567Y-110157262D01*
X123156233Y-109928781D01*
X123261391Y-109674908D01*
X123315000Y-109405397D01*
X123315000Y-109130605D01*
X123261391Y-108861094D01*
X123156233Y-108607221D01*
X123003567Y-108378740D01*
X122809261Y-108184434D01*
X122580780Y-108031768D01*
X122326907Y-107926610D01*
X122057396Y-107873001D01*
X121782604Y-107873001D01*
X121513093Y-107926610D01*
X121259220Y-108031768D01*
X121030739Y-108184434D01*
X120836433Y-108378740D01*
X120683767Y-108607221D01*
X120578609Y-108861094D01*
X120525000Y-109130605D01*
X118981950Y-109130605D01*
X118960983Y-109109638D01*
X118611302Y-108875989D01*
X118222757Y-108715048D01*
X117810280Y-108633001D01*
X117389722Y-108633001D01*
X116977245Y-108715048D01*
X116588700Y-108875989D01*
X116239019Y-109109638D01*
X115941639Y-109407018D01*
X115707990Y-109756699D01*
X115547049Y-110145244D01*
X115465002Y-110557721D01*
X109243651Y-110557721D01*
X109372780Y-110504234D01*
X109601261Y-110351568D01*
X109795567Y-110157262D01*
X109948233Y-109928781D01*
X110053391Y-109674908D01*
X110107000Y-109405397D01*
X110107000Y-109130605D01*
X110053391Y-108861094D01*
X109948233Y-108607221D01*
X109795567Y-108378740D01*
X109601261Y-108184434D01*
X109428502Y-108069000D01*
X111307752Y-108069000D01*
X111474499Y-108052577D01*
X111688447Y-107987676D01*
X111871281Y-107889950D01*
X111966102Y-107929226D01*
X112166061Y-107969000D01*
X112369939Y-107969000D01*
X112569898Y-107929226D01*
X112758256Y-107851205D01*
X112927774Y-107737937D01*
X113071937Y-107593774D01*
X113185205Y-107424256D01*
X113263226Y-107235898D01*
X113303000Y-107035939D01*
X113303000Y-106832061D01*
X113263226Y-106632102D01*
X113185205Y-106443744D01*
X113071937Y-106274226D01*
X112927774Y-106130063D01*
X112758256Y-106016795D01*
X112569898Y-105938774D01*
X112369939Y-105899000D01*
X112166061Y-105899000D01*
X111966102Y-105938774D01*
X111871281Y-105978050D01*
X111688447Y-105880324D01*
X111474499Y-105815423D01*
X111307752Y-105799000D01*
X106735751Y-105799000D01*
X106680000Y-105793509D01*
X106624248Y-105799000D01*
X106457501Y-105815423D01*
X106243553Y-105880324D01*
X106046377Y-105985716D01*
X105873551Y-106127551D01*
X105731716Y-106300377D01*
X105626324Y-106497553D01*
X105561423Y-106711501D01*
X105539509Y-106934000D01*
X71170000Y-106934000D01*
X71170000Y-103384429D01*
X83923559Y-103384429D01*
X83950976Y-103662798D01*
X84032173Y-103930469D01*
X84164030Y-104177155D01*
X84341480Y-104393378D01*
X84557703Y-104570828D01*
X84804389Y-104702685D01*
X85072060Y-104783882D01*
X85280677Y-104804429D01*
X90855829Y-104804429D01*
X90925571Y-104811298D01*
X90995313Y-104804429D01*
X90995323Y-104804429D01*
X91203940Y-104783882D01*
X91471611Y-104702685D01*
X91718297Y-104570828D01*
X91934520Y-104393378D01*
X91978987Y-104339195D01*
X92394771Y-103923411D01*
X92448948Y-103878949D01*
X92626399Y-103662726D01*
X92758256Y-103416040D01*
X92839453Y-103148369D01*
X92860000Y-102939752D01*
X92860000Y-102939743D01*
X92866869Y-102870001D01*
X92860000Y-102800259D01*
X92860000Y-102292249D01*
X92839453Y-102083632D01*
X92758256Y-101815960D01*
X92626399Y-101569274D01*
X92448949Y-101353051D01*
X92232726Y-101175601D01*
X91986040Y-101043744D01*
X91718369Y-100962547D01*
X91440000Y-100935130D01*
X91422364Y-100936867D01*
X91422256Y-100936795D01*
X91233898Y-100858774D01*
X91033939Y-100819000D01*
X90830061Y-100819000D01*
X90630102Y-100858774D01*
X90441744Y-100936795D01*
X90272226Y-101050063D01*
X90128063Y-101194226D01*
X90014795Y-101363744D01*
X89936774Y-101552102D01*
X89897000Y-101752061D01*
X89897000Y-101955939D01*
X89898689Y-101964429D01*
X85280677Y-101964429D01*
X85072060Y-101984976D01*
X84804389Y-102066173D01*
X84557703Y-102198030D01*
X84341480Y-102375480D01*
X84164030Y-102591703D01*
X84032173Y-102838389D01*
X83950976Y-103106060D01*
X83923559Y-103384429D01*
X71170000Y-103384429D01*
X71170000Y-99118495D01*
X73199000Y-99118495D01*
X73199000Y-99509505D01*
X73275282Y-99893003D01*
X73424915Y-100254250D01*
X73642149Y-100579364D01*
X73918636Y-100855851D01*
X74243750Y-101073085D01*
X74604997Y-101222718D01*
X74988495Y-101299000D01*
X75379505Y-101299000D01*
X75763003Y-101222718D01*
X76124250Y-101073085D01*
X76449364Y-100855851D01*
X76702117Y-100603098D01*
X133759000Y-100603098D01*
X133759000Y-101072902D01*
X133850654Y-101533679D01*
X134030440Y-101967721D01*
X134291450Y-102358349D01*
X134623651Y-102690550D01*
X135014279Y-102951560D01*
X135448321Y-103131346D01*
X135909098Y-103223000D01*
X136378902Y-103223000D01*
X136839679Y-103131346D01*
X137273721Y-102951560D01*
X137664349Y-102690550D01*
X137996550Y-102358349D01*
X138257560Y-101967721D01*
X138303311Y-101857268D01*
X138909000Y-101857268D01*
X138909000Y-102218732D01*
X138979518Y-102573250D01*
X139117844Y-102907199D01*
X139318662Y-103207744D01*
X139574256Y-103463338D01*
X139874801Y-103664156D01*
X140208750Y-103802482D01*
X140563268Y-103873000D01*
X140924732Y-103873000D01*
X141279250Y-103802482D01*
X141613199Y-103664156D01*
X141913744Y-103463338D01*
X142169338Y-103207744D01*
X142370156Y-102907199D01*
X142508482Y-102573250D01*
X142579000Y-102218732D01*
X142579000Y-101857268D01*
X142508482Y-101502750D01*
X142370156Y-101168801D01*
X142169338Y-100868256D01*
X141913744Y-100612662D01*
X141899431Y-100603098D01*
X142959000Y-100603098D01*
X142959000Y-101072902D01*
X143050654Y-101533679D01*
X143230440Y-101967721D01*
X143491450Y-102358349D01*
X143823651Y-102690550D01*
X144214279Y-102951560D01*
X144648321Y-103131346D01*
X145109098Y-103223000D01*
X145578902Y-103223000D01*
X146039679Y-103131346D01*
X146473721Y-102951560D01*
X146864349Y-102690550D01*
X147196550Y-102358349D01*
X147457560Y-101967721D01*
X147637346Y-101533679D01*
X147729000Y-101072902D01*
X147729000Y-100603098D01*
X147637346Y-100142321D01*
X147457560Y-99708279D01*
X147196550Y-99317651D01*
X146864349Y-98985450D01*
X146473721Y-98724440D01*
X146039679Y-98544654D01*
X145578902Y-98453000D01*
X145109098Y-98453000D01*
X144648321Y-98544654D01*
X144214279Y-98724440D01*
X143823651Y-98985450D01*
X143491450Y-99317651D01*
X143230440Y-99708279D01*
X143050654Y-100142321D01*
X142959000Y-100603098D01*
X141899431Y-100603098D01*
X141613199Y-100411844D01*
X141279250Y-100273518D01*
X140924732Y-100203000D01*
X140563268Y-100203000D01*
X140208750Y-100273518D01*
X139874801Y-100411844D01*
X139574256Y-100612662D01*
X139318662Y-100868256D01*
X139117844Y-101168801D01*
X138979518Y-101502750D01*
X138909000Y-101857268D01*
X138303311Y-101857268D01*
X138437346Y-101533679D01*
X138529000Y-101072902D01*
X138529000Y-100603098D01*
X138437346Y-100142321D01*
X138257560Y-99708279D01*
X137996550Y-99317651D01*
X137664349Y-98985450D01*
X137273721Y-98724440D01*
X136839679Y-98544654D01*
X136378902Y-98453000D01*
X135909098Y-98453000D01*
X135448321Y-98544654D01*
X135014279Y-98724440D01*
X134623651Y-98985450D01*
X134291450Y-99317651D01*
X134030440Y-99708279D01*
X133850654Y-100142321D01*
X133759000Y-100603098D01*
X76702117Y-100603098D01*
X76725851Y-100579364D01*
X76943085Y-100254250D01*
X77092718Y-99893003D01*
X77169000Y-99509505D01*
X77169000Y-99118495D01*
X77092718Y-98734997D01*
X76943085Y-98373750D01*
X76725851Y-98048636D01*
X76449364Y-97772149D01*
X76124250Y-97554915D01*
X75763003Y-97405282D01*
X75379505Y-97329000D01*
X74988495Y-97329000D01*
X74604997Y-97405282D01*
X74243750Y-97554915D01*
X73918636Y-97772149D01*
X73642149Y-98048636D01*
X73424915Y-98373750D01*
X73275282Y-98734997D01*
X73199000Y-99118495D01*
X71170000Y-99118495D01*
X71170000Y-94546495D01*
X145843000Y-94546495D01*
X145843000Y-94937505D01*
X145919282Y-95321003D01*
X146068915Y-95682250D01*
X146286149Y-96007364D01*
X146562636Y-96283851D01*
X146887750Y-96501085D01*
X147248997Y-96650718D01*
X147632495Y-96727000D01*
X148023505Y-96727000D01*
X148407003Y-96650718D01*
X148768250Y-96501085D01*
X149093364Y-96283851D01*
X149369851Y-96007364D01*
X149587085Y-95682250D01*
X149736718Y-95321003D01*
X149813000Y-94937505D01*
X149813000Y-94546495D01*
X149736718Y-94162997D01*
X149587085Y-93801750D01*
X149369851Y-93476636D01*
X149093364Y-93200149D01*
X148768250Y-92982915D01*
X148407003Y-92833282D01*
X148023505Y-92757000D01*
X147632495Y-92757000D01*
X147248997Y-92833282D01*
X146887750Y-92982915D01*
X146562636Y-93200149D01*
X146286149Y-93476636D01*
X146068915Y-93801750D01*
X145919282Y-94162997D01*
X145843000Y-94546495D01*
X71170000Y-94546495D01*
X71170000Y-84899419D01*
X73202000Y-84899419D01*
X73202000Y-85280581D01*
X73276361Y-85654419D01*
X73422225Y-86006566D01*
X73633987Y-86323491D01*
X73903509Y-86593013D01*
X74220434Y-86804775D01*
X74572581Y-86950639D01*
X74946419Y-87025000D01*
X75327581Y-87025000D01*
X75701419Y-86950639D01*
X76053566Y-86804775D01*
X76370491Y-86593013D01*
X76640013Y-86323491D01*
X76851775Y-86006566D01*
X76997639Y-85654419D01*
X77072000Y-85280581D01*
X77072000Y-84899419D01*
X76997639Y-84525581D01*
X76851775Y-84173434D01*
X76640013Y-83856509D01*
X76573504Y-83790000D01*
X78198928Y-83790000D01*
X78198928Y-86390000D01*
X78211188Y-86514482D01*
X78247498Y-86634180D01*
X78306463Y-86744494D01*
X78385815Y-86841185D01*
X78482506Y-86920537D01*
X78592820Y-86979502D01*
X78712518Y-87015812D01*
X78837000Y-87028072D01*
X81437000Y-87028072D01*
X81561482Y-87015812D01*
X81681180Y-86979502D01*
X81791494Y-86920537D01*
X81888185Y-86841185D01*
X81967537Y-86744494D01*
X82026502Y-86634180D01*
X82062812Y-86514482D01*
X82075072Y-86390000D01*
X82075072Y-84899419D01*
X85317800Y-84899419D01*
X85317800Y-85280581D01*
X85392161Y-85654419D01*
X85538025Y-86006566D01*
X85749787Y-86323491D01*
X86019309Y-86593013D01*
X86336234Y-86804775D01*
X86688381Y-86950639D01*
X87062219Y-87025000D01*
X87443381Y-87025000D01*
X87817219Y-86950639D01*
X88169366Y-86804775D01*
X88486291Y-86593013D01*
X88755813Y-86323491D01*
X88967575Y-86006566D01*
X89113439Y-85654419D01*
X89187800Y-85280581D01*
X89187800Y-84899419D01*
X89113439Y-84525581D01*
X88967575Y-84173434D01*
X88755813Y-83856509D01*
X88689304Y-83790000D01*
X90314728Y-83790000D01*
X90314728Y-86390000D01*
X90326988Y-86514482D01*
X90363298Y-86634180D01*
X90422263Y-86744494D01*
X90501615Y-86841185D01*
X90598306Y-86920537D01*
X90708620Y-86979502D01*
X90828318Y-87015812D01*
X90952800Y-87028072D01*
X93552800Y-87028072D01*
X93677282Y-87015812D01*
X93796980Y-86979502D01*
X93907294Y-86920537D01*
X94003985Y-86841185D01*
X94083337Y-86744494D01*
X94142302Y-86634180D01*
X94178612Y-86514482D01*
X94190872Y-86390000D01*
X94190872Y-84899419D01*
X97433600Y-84899419D01*
X97433600Y-85280581D01*
X97507961Y-85654419D01*
X97653825Y-86006566D01*
X97865587Y-86323491D01*
X98135109Y-86593013D01*
X98452034Y-86804775D01*
X98804181Y-86950639D01*
X99178019Y-87025000D01*
X99559181Y-87025000D01*
X99933019Y-86950639D01*
X100285166Y-86804775D01*
X100602091Y-86593013D01*
X100871613Y-86323491D01*
X101083375Y-86006566D01*
X101229239Y-85654419D01*
X101303600Y-85280581D01*
X101303600Y-84899419D01*
X101229239Y-84525581D01*
X101083375Y-84173434D01*
X100871613Y-83856509D01*
X100805104Y-83790000D01*
X102430528Y-83790000D01*
X102430528Y-86390000D01*
X102442788Y-86514482D01*
X102479098Y-86634180D01*
X102538063Y-86744494D01*
X102617415Y-86841185D01*
X102714106Y-86920537D01*
X102824420Y-86979502D01*
X102944118Y-87015812D01*
X103068600Y-87028072D01*
X105668600Y-87028072D01*
X105793082Y-87015812D01*
X105912780Y-86979502D01*
X106023094Y-86920537D01*
X106119785Y-86841185D01*
X106199137Y-86744494D01*
X106258102Y-86634180D01*
X106294412Y-86514482D01*
X106306672Y-86390000D01*
X106306672Y-84899419D01*
X109549400Y-84899419D01*
X109549400Y-85280581D01*
X109623761Y-85654419D01*
X109769625Y-86006566D01*
X109981387Y-86323491D01*
X110250909Y-86593013D01*
X110567834Y-86804775D01*
X110919981Y-86950639D01*
X111293819Y-87025000D01*
X111674981Y-87025000D01*
X112048819Y-86950639D01*
X112400966Y-86804775D01*
X112717891Y-86593013D01*
X112987413Y-86323491D01*
X113199175Y-86006566D01*
X113345039Y-85654419D01*
X113419400Y-85280581D01*
X113419400Y-84899419D01*
X113345039Y-84525581D01*
X113199175Y-84173434D01*
X112987413Y-83856509D01*
X112920904Y-83790000D01*
X114546328Y-83790000D01*
X114546328Y-86390000D01*
X114558588Y-86514482D01*
X114594898Y-86634180D01*
X114653863Y-86744494D01*
X114733215Y-86841185D01*
X114829906Y-86920537D01*
X114940220Y-86979502D01*
X115059918Y-87015812D01*
X115184400Y-87028072D01*
X117784400Y-87028072D01*
X117908882Y-87015812D01*
X118028580Y-86979502D01*
X118138894Y-86920537D01*
X118235585Y-86841185D01*
X118314937Y-86744494D01*
X118373902Y-86634180D01*
X118410212Y-86514482D01*
X118422472Y-86390000D01*
X118422472Y-84899419D01*
X121665200Y-84899419D01*
X121665200Y-85280581D01*
X121739561Y-85654419D01*
X121885425Y-86006566D01*
X122097187Y-86323491D01*
X122366709Y-86593013D01*
X122683634Y-86804775D01*
X123035781Y-86950639D01*
X123409619Y-87025000D01*
X123790781Y-87025000D01*
X124164619Y-86950639D01*
X124516766Y-86804775D01*
X124833691Y-86593013D01*
X125103213Y-86323491D01*
X125314975Y-86006566D01*
X125460839Y-85654419D01*
X125535200Y-85280581D01*
X125535200Y-84899419D01*
X125460839Y-84525581D01*
X125314975Y-84173434D01*
X125103213Y-83856509D01*
X125036704Y-83790000D01*
X126662128Y-83790000D01*
X126662128Y-86390000D01*
X126674388Y-86514482D01*
X126710698Y-86634180D01*
X126769663Y-86744494D01*
X126849015Y-86841185D01*
X126945706Y-86920537D01*
X127056020Y-86979502D01*
X127175718Y-87015812D01*
X127300200Y-87028072D01*
X129900200Y-87028072D01*
X130024682Y-87015812D01*
X130144380Y-86979502D01*
X130254694Y-86920537D01*
X130351385Y-86841185D01*
X130430737Y-86744494D01*
X130489702Y-86634180D01*
X130526012Y-86514482D01*
X130538272Y-86390000D01*
X130538272Y-84899419D01*
X133781000Y-84899419D01*
X133781000Y-85280581D01*
X133855361Y-85654419D01*
X134001225Y-86006566D01*
X134212987Y-86323491D01*
X134482509Y-86593013D01*
X134799434Y-86804775D01*
X135151581Y-86950639D01*
X135525419Y-87025000D01*
X135906581Y-87025000D01*
X136280419Y-86950639D01*
X136632566Y-86804775D01*
X136949491Y-86593013D01*
X137219013Y-86323491D01*
X137430775Y-86006566D01*
X137576639Y-85654419D01*
X137651000Y-85280581D01*
X137651000Y-84899419D01*
X137576639Y-84525581D01*
X137430775Y-84173434D01*
X137219013Y-83856509D01*
X136949491Y-83586987D01*
X136632566Y-83375225D01*
X136280419Y-83229361D01*
X135906581Y-83155000D01*
X135525419Y-83155000D01*
X135151581Y-83229361D01*
X134799434Y-83375225D01*
X134482509Y-83586987D01*
X134212987Y-83856509D01*
X134001225Y-84173434D01*
X133855361Y-84525581D01*
X133781000Y-84899419D01*
X130538272Y-84899419D01*
X130538272Y-83790000D01*
X130526012Y-83665518D01*
X130489702Y-83545820D01*
X130430737Y-83435506D01*
X130351385Y-83338815D01*
X130254694Y-83259463D01*
X130144380Y-83200498D01*
X130024682Y-83164188D01*
X129900200Y-83151928D01*
X127300200Y-83151928D01*
X127175718Y-83164188D01*
X127056020Y-83200498D01*
X126945706Y-83259463D01*
X126849015Y-83338815D01*
X126769663Y-83435506D01*
X126710698Y-83545820D01*
X126674388Y-83665518D01*
X126662128Y-83790000D01*
X125036704Y-83790000D01*
X124833691Y-83586987D01*
X124516766Y-83375225D01*
X124164619Y-83229361D01*
X123790781Y-83155000D01*
X123409619Y-83155000D01*
X123035781Y-83229361D01*
X122683634Y-83375225D01*
X122366709Y-83586987D01*
X122097187Y-83856509D01*
X121885425Y-84173434D01*
X121739561Y-84525581D01*
X121665200Y-84899419D01*
X118422472Y-84899419D01*
X118422472Y-83790000D01*
X118410212Y-83665518D01*
X118373902Y-83545820D01*
X118314937Y-83435506D01*
X118235585Y-83338815D01*
X118138894Y-83259463D01*
X118028580Y-83200498D01*
X117908882Y-83164188D01*
X117784400Y-83151928D01*
X115184400Y-83151928D01*
X115059918Y-83164188D01*
X114940220Y-83200498D01*
X114829906Y-83259463D01*
X114733215Y-83338815D01*
X114653863Y-83435506D01*
X114594898Y-83545820D01*
X114558588Y-83665518D01*
X114546328Y-83790000D01*
X112920904Y-83790000D01*
X112717891Y-83586987D01*
X112400966Y-83375225D01*
X112048819Y-83229361D01*
X111674981Y-83155000D01*
X111293819Y-83155000D01*
X110919981Y-83229361D01*
X110567834Y-83375225D01*
X110250909Y-83586987D01*
X109981387Y-83856509D01*
X109769625Y-84173434D01*
X109623761Y-84525581D01*
X109549400Y-84899419D01*
X106306672Y-84899419D01*
X106306672Y-83790000D01*
X106294412Y-83665518D01*
X106258102Y-83545820D01*
X106199137Y-83435506D01*
X106119785Y-83338815D01*
X106023094Y-83259463D01*
X105912780Y-83200498D01*
X105793082Y-83164188D01*
X105668600Y-83151928D01*
X103068600Y-83151928D01*
X102944118Y-83164188D01*
X102824420Y-83200498D01*
X102714106Y-83259463D01*
X102617415Y-83338815D01*
X102538063Y-83435506D01*
X102479098Y-83545820D01*
X102442788Y-83665518D01*
X102430528Y-83790000D01*
X100805104Y-83790000D01*
X100602091Y-83586987D01*
X100285166Y-83375225D01*
X99933019Y-83229361D01*
X99559181Y-83155000D01*
X99178019Y-83155000D01*
X98804181Y-83229361D01*
X98452034Y-83375225D01*
X98135109Y-83586987D01*
X97865587Y-83856509D01*
X97653825Y-84173434D01*
X97507961Y-84525581D01*
X97433600Y-84899419D01*
X94190872Y-84899419D01*
X94190872Y-83790000D01*
X94178612Y-83665518D01*
X94142302Y-83545820D01*
X94083337Y-83435506D01*
X94003985Y-83338815D01*
X93907294Y-83259463D01*
X93796980Y-83200498D01*
X93677282Y-83164188D01*
X93552800Y-83151928D01*
X90952800Y-83151928D01*
X90828318Y-83164188D01*
X90708620Y-83200498D01*
X90598306Y-83259463D01*
X90501615Y-83338815D01*
X90422263Y-83435506D01*
X90363298Y-83545820D01*
X90326988Y-83665518D01*
X90314728Y-83790000D01*
X88689304Y-83790000D01*
X88486291Y-83586987D01*
X88169366Y-83375225D01*
X87817219Y-83229361D01*
X87443381Y-83155000D01*
X87062219Y-83155000D01*
X86688381Y-83229361D01*
X86336234Y-83375225D01*
X86019309Y-83586987D01*
X85749787Y-83856509D01*
X85538025Y-84173434D01*
X85392161Y-84525581D01*
X85317800Y-84899419D01*
X82075072Y-84899419D01*
X82075072Y-83790000D01*
X82062812Y-83665518D01*
X82026502Y-83545820D01*
X81967537Y-83435506D01*
X81888185Y-83338815D01*
X81791494Y-83259463D01*
X81681180Y-83200498D01*
X81561482Y-83164188D01*
X81437000Y-83151928D01*
X78837000Y-83151928D01*
X78712518Y-83164188D01*
X78592820Y-83200498D01*
X78482506Y-83259463D01*
X78385815Y-83338815D01*
X78306463Y-83435506D01*
X78247498Y-83545820D01*
X78211188Y-83665518D01*
X78198928Y-83790000D01*
X76573504Y-83790000D01*
X76370491Y-83586987D01*
X76053566Y-83375225D01*
X75701419Y-83229361D01*
X75327581Y-83155000D01*
X74946419Y-83155000D01*
X74572581Y-83229361D01*
X74220434Y-83375225D01*
X73903509Y-83586987D01*
X73633987Y-83856509D01*
X73422225Y-84173434D01*
X73276361Y-84525581D01*
X73202000Y-84899419D01*
X71170000Y-84899419D01*
X71170000Y-78790000D01*
X151207000Y-78790000D01*
X151207001Y-118060000D01*
G37*
%TD.AperFunction*%
%TD*%
M02*
