%TF.GenerationSoftware,KiCad,Pcbnew,(5.1.9-0-10_14)*%
%TF.CreationDate,2022-04-24T23:49:05-07:00*%
%TF.ProjectId,PROTO_PCB_2022,50524f54-4f5f-4504-9342-5f323032322e,rev?*%
%TF.SameCoordinates,Original*%
%TF.FileFunction,Legend,Top*%
%TF.FilePolarity,Positive*%
%FSLAX46Y46*%
G04 Gerber Fmt 4.6, Leading zero omitted, Abs format (unit mm)*
G04 Created by KiCad (PCBNEW (5.1.9-0-10_14)) date 2022-04-24 23:49:05*
%MOMM*%
%LPD*%
G01*
G04 APERTURE LIST*
%ADD10C,0.150000*%
%ADD11C,0.050000*%
%ADD12C,0.100000*%
%ADD13C,0.120000*%
G04 APERTURE END LIST*
D10*
X103886095Y-92210000D02*
X103790857Y-92162380D01*
X103648000Y-92162380D01*
X103505142Y-92210000D01*
X103409904Y-92305238D01*
X103362285Y-92400476D01*
X103314666Y-92590952D01*
X103314666Y-92733809D01*
X103362285Y-92924285D01*
X103409904Y-93019523D01*
X103505142Y-93114761D01*
X103648000Y-93162380D01*
X103743238Y-93162380D01*
X103886095Y-93114761D01*
X103933714Y-93067142D01*
X103933714Y-92733809D01*
X103743238Y-92733809D01*
X104362285Y-93162380D02*
X104362285Y-92162380D01*
X104933714Y-93162380D01*
X104933714Y-92162380D01*
X105409904Y-93162380D02*
X105409904Y-92162380D01*
X105648000Y-92162380D01*
X105790857Y-92210000D01*
X105886095Y-92305238D01*
X105933714Y-92400476D01*
X105981333Y-92590952D01*
X105981333Y-92733809D01*
X105933714Y-92924285D01*
X105886095Y-93019523D01*
X105790857Y-93114761D01*
X105648000Y-93162380D01*
X105409904Y-93162380D01*
X112585523Y-92162380D02*
X112109333Y-92162380D01*
X112061714Y-92638571D01*
X112109333Y-92590952D01*
X112204571Y-92543333D01*
X112442666Y-92543333D01*
X112537904Y-92590952D01*
X112585523Y-92638571D01*
X112633142Y-92733809D01*
X112633142Y-92971904D01*
X112585523Y-93067142D01*
X112537904Y-93114761D01*
X112442666Y-93162380D01*
X112204571Y-93162380D01*
X112109333Y-93114761D01*
X112061714Y-93067142D01*
X112918857Y-92162380D02*
X113252190Y-93162380D01*
X113585523Y-92162380D01*
X133492952Y-92654380D02*
X132921523Y-92654380D01*
X133207238Y-92654380D02*
X133207238Y-91654380D01*
X133112000Y-91797238D01*
X133016761Y-91892476D01*
X132921523Y-91940095D01*
X133873904Y-91749619D02*
X133921523Y-91702000D01*
X134016761Y-91654380D01*
X134254857Y-91654380D01*
X134350095Y-91702000D01*
X134397714Y-91749619D01*
X134445333Y-91844857D01*
X134445333Y-91940095D01*
X134397714Y-92082952D01*
X133826285Y-92654380D01*
X134445333Y-92654380D01*
X134731047Y-91654380D02*
X135064380Y-92654380D01*
X135397714Y-91654380D01*
D11*
X148702000Y-87141523D02*
X148678190Y-87141523D01*
X148630571Y-87117714D01*
X148606761Y-87093904D01*
X148702000Y-87332000D02*
X148678190Y-87332000D01*
X148630571Y-87308190D01*
X148606761Y-87284380D01*
X149154380Y-86927238D02*
X149178190Y-86855809D01*
X149178190Y-86736761D01*
X149154380Y-86689142D01*
X149130571Y-86665333D01*
X149082952Y-86641523D01*
X149035333Y-86641523D01*
X148987714Y-86665333D01*
X148963904Y-86689142D01*
X148940095Y-86736761D01*
X148916285Y-86832000D01*
X148892476Y-86879619D01*
X148868666Y-86903428D01*
X148821047Y-86927238D01*
X148773428Y-86927238D01*
X148725809Y-86903428D01*
X148702000Y-86879619D01*
X148678190Y-86832000D01*
X148678190Y-86712952D01*
X148702000Y-86641523D01*
X148844857Y-86498666D02*
X148844857Y-86308190D01*
X148678190Y-86427238D02*
X149106761Y-86427238D01*
X149154380Y-86403428D01*
X149178190Y-86355809D01*
X149178190Y-86308190D01*
X149154380Y-85951047D02*
X149178190Y-85998666D01*
X149178190Y-86093904D01*
X149154380Y-86141523D01*
X149106761Y-86165333D01*
X148916285Y-86165333D01*
X148868666Y-86141523D01*
X148844857Y-86093904D01*
X148844857Y-85998666D01*
X148868666Y-85951047D01*
X148916285Y-85927238D01*
X148963904Y-85927238D01*
X149011523Y-86165333D01*
X149178190Y-85498666D02*
X148916285Y-85498666D01*
X148868666Y-85522476D01*
X148844857Y-85570095D01*
X148844857Y-85665333D01*
X148868666Y-85712952D01*
X149154380Y-85498666D02*
X149178190Y-85546285D01*
X149178190Y-85665333D01*
X149154380Y-85712952D01*
X149106761Y-85736761D01*
X149059142Y-85736761D01*
X149011523Y-85712952D01*
X148987714Y-85665333D01*
X148987714Y-85546285D01*
X148963904Y-85498666D01*
X149178190Y-85260571D02*
X148678190Y-85260571D01*
X148987714Y-85212952D02*
X149178190Y-85070095D01*
X148844857Y-85070095D02*
X149035333Y-85260571D01*
X149178190Y-84451047D02*
X149178190Y-84474857D01*
X149154380Y-84522476D01*
X149082952Y-84593904D01*
X148940095Y-84712952D01*
X148868666Y-84760571D01*
X148797238Y-84784380D01*
X148749619Y-84784380D01*
X148702000Y-84760571D01*
X148678190Y-84712952D01*
X148678190Y-84689142D01*
X148702000Y-84641523D01*
X148749619Y-84617714D01*
X148773428Y-84617714D01*
X148821047Y-84641523D01*
X148844857Y-84665333D01*
X148940095Y-84808190D01*
X148963904Y-84832000D01*
X149011523Y-84855809D01*
X149082952Y-84855809D01*
X149130571Y-84832000D01*
X149154380Y-84808190D01*
X149178190Y-84760571D01*
X149178190Y-84689142D01*
X149154380Y-84641523D01*
X149130571Y-84617714D01*
X149035333Y-84546285D01*
X148963904Y-84522476D01*
X148916285Y-84522476D01*
X149154380Y-84260571D02*
X149178190Y-84189142D01*
X149178190Y-84070095D01*
X149154380Y-84022476D01*
X149130571Y-83998666D01*
X149082952Y-83974857D01*
X149035333Y-83974857D01*
X148987714Y-83998666D01*
X148963904Y-84022476D01*
X148940095Y-84070095D01*
X148916285Y-84165333D01*
X148892476Y-84212952D01*
X148868666Y-84236761D01*
X148821047Y-84260571D01*
X148773428Y-84260571D01*
X148725809Y-84236761D01*
X148702000Y-84212952D01*
X148678190Y-84165333D01*
X148678190Y-84046285D01*
X148702000Y-83974857D01*
X149178190Y-83760571D02*
X148678190Y-83760571D01*
X149178190Y-83546285D02*
X148916285Y-83546285D01*
X148868666Y-83570095D01*
X148844857Y-83617714D01*
X148844857Y-83689142D01*
X148868666Y-83736761D01*
X148892476Y-83760571D01*
X149178190Y-83093904D02*
X148916285Y-83093904D01*
X148868666Y-83117714D01*
X148844857Y-83165333D01*
X148844857Y-83260571D01*
X148868666Y-83308190D01*
X149154380Y-83093904D02*
X149178190Y-83141523D01*
X149178190Y-83260571D01*
X149154380Y-83308190D01*
X149106761Y-83332000D01*
X149059142Y-83332000D01*
X149011523Y-83308190D01*
X148987714Y-83260571D01*
X148987714Y-83141523D01*
X148963904Y-83093904D01*
X149178190Y-82855809D02*
X148678190Y-82855809D01*
X148987714Y-82808190D02*
X149178190Y-82665333D01*
X148844857Y-82665333D02*
X149035333Y-82855809D01*
X149154380Y-82260571D02*
X149178190Y-82308190D01*
X149178190Y-82403428D01*
X149154380Y-82451047D01*
X149106761Y-82474857D01*
X148916285Y-82474857D01*
X148868666Y-82451047D01*
X148844857Y-82403428D01*
X148844857Y-82308190D01*
X148868666Y-82260571D01*
X148916285Y-82236761D01*
X148963904Y-82236761D01*
X149011523Y-82474857D01*
X148678190Y-82022476D02*
X148702000Y-82022476D01*
X148749619Y-82046285D01*
X148773428Y-82070095D01*
X148678190Y-81832000D02*
X148702000Y-81832000D01*
X148749619Y-81855809D01*
X148773428Y-81879619D01*
X149978190Y-86260571D02*
X149478190Y-86260571D01*
X149835333Y-86093904D01*
X149478190Y-85927238D01*
X149978190Y-85927238D01*
X149978190Y-85474857D02*
X149716285Y-85474857D01*
X149668666Y-85498666D01*
X149644857Y-85546285D01*
X149644857Y-85641523D01*
X149668666Y-85689142D01*
X149954380Y-85474857D02*
X149978190Y-85522476D01*
X149978190Y-85641523D01*
X149954380Y-85689142D01*
X149906761Y-85712952D01*
X149859142Y-85712952D01*
X149811523Y-85689142D01*
X149787714Y-85641523D01*
X149787714Y-85522476D01*
X149763904Y-85474857D01*
X149978190Y-85236761D02*
X149644857Y-85236761D01*
X149478190Y-85236761D02*
X149502000Y-85260571D01*
X149525809Y-85236761D01*
X149502000Y-85212952D01*
X149478190Y-85236761D01*
X149525809Y-85236761D01*
X149644857Y-84998666D02*
X149978190Y-84998666D01*
X149692476Y-84998666D02*
X149668666Y-84974857D01*
X149644857Y-84927238D01*
X149644857Y-84855809D01*
X149668666Y-84808190D01*
X149716285Y-84784380D01*
X149978190Y-84784380D01*
X149978190Y-84165333D02*
X149478190Y-84165333D01*
X149478190Y-83974857D01*
X149502000Y-83927238D01*
X149525809Y-83903428D01*
X149573428Y-83879619D01*
X149644857Y-83879619D01*
X149692476Y-83903428D01*
X149716285Y-83927238D01*
X149740095Y-83974857D01*
X149740095Y-84165333D01*
X149930571Y-83379619D02*
X149954380Y-83403428D01*
X149978190Y-83474857D01*
X149978190Y-83522476D01*
X149954380Y-83593904D01*
X149906761Y-83641523D01*
X149859142Y-83665333D01*
X149763904Y-83689142D01*
X149692476Y-83689142D01*
X149597238Y-83665333D01*
X149549619Y-83641523D01*
X149502000Y-83593904D01*
X149478190Y-83522476D01*
X149478190Y-83474857D01*
X149502000Y-83403428D01*
X149525809Y-83379619D01*
X149716285Y-82998666D02*
X149740095Y-82927238D01*
X149763904Y-82903428D01*
X149811523Y-82879619D01*
X149882952Y-82879619D01*
X149930571Y-82903428D01*
X149954380Y-82927238D01*
X149978190Y-82974857D01*
X149978190Y-83165333D01*
X149478190Y-83165333D01*
X149478190Y-82998666D01*
X149502000Y-82951047D01*
X149525809Y-82927238D01*
X149573428Y-82903428D01*
X149621047Y-82903428D01*
X149668666Y-82927238D01*
X149692476Y-82951047D01*
X149716285Y-82998666D01*
X149716285Y-83165333D01*
D10*
X85058476Y-93162380D02*
X84582285Y-93162380D01*
X84582285Y-92162380D01*
X85391809Y-93162380D02*
X85391809Y-92162380D01*
X86391809Y-92210000D02*
X86296571Y-92162380D01*
X86153714Y-92162380D01*
X86010857Y-92210000D01*
X85915619Y-92305238D01*
X85868000Y-92400476D01*
X85820380Y-92590952D01*
X85820380Y-92733809D01*
X85868000Y-92924285D01*
X85915619Y-93019523D01*
X86010857Y-93114761D01*
X86153714Y-93162380D01*
X86248952Y-93162380D01*
X86391809Y-93114761D01*
X86439428Y-93067142D01*
X86439428Y-92733809D01*
X86248952Y-92733809D01*
X86868000Y-93162380D02*
X86868000Y-92162380D01*
X86868000Y-92638571D02*
X87439428Y-92638571D01*
X87439428Y-93162380D02*
X87439428Y-92162380D01*
X87772761Y-92162380D02*
X88344190Y-92162380D01*
X88058476Y-93162380D02*
X88058476Y-92162380D01*
X88629904Y-93114761D02*
X88772761Y-93162380D01*
X89010857Y-93162380D01*
X89106095Y-93114761D01*
X89153714Y-93067142D01*
X89201333Y-92971904D01*
X89201333Y-92876666D01*
X89153714Y-92781428D01*
X89106095Y-92733809D01*
X89010857Y-92686190D01*
X88820380Y-92638571D01*
X88725142Y-92590952D01*
X88677523Y-92543333D01*
X88629904Y-92448095D01*
X88629904Y-92352857D01*
X88677523Y-92257619D01*
X88725142Y-92210000D01*
X88820380Y-92162380D01*
X89058476Y-92162380D01*
X89201333Y-92210000D01*
X85034666Y-102814380D02*
X85034666Y-101814380D01*
X85034666Y-102290571D02*
X85606095Y-102290571D01*
X85606095Y-102814380D02*
X85606095Y-101814380D01*
X86272761Y-101814380D02*
X86463238Y-101814380D01*
X86558476Y-101862000D01*
X86653714Y-101957238D01*
X86701333Y-102147714D01*
X86701333Y-102481047D01*
X86653714Y-102671523D01*
X86558476Y-102766761D01*
X86463238Y-102814380D01*
X86272761Y-102814380D01*
X86177523Y-102766761D01*
X86082285Y-102671523D01*
X86034666Y-102481047D01*
X86034666Y-102147714D01*
X86082285Y-101957238D01*
X86177523Y-101862000D01*
X86272761Y-101814380D01*
X87701333Y-102814380D02*
X87368000Y-102338190D01*
X87129904Y-102814380D02*
X87129904Y-101814380D01*
X87510857Y-101814380D01*
X87606095Y-101862000D01*
X87653714Y-101909619D01*
X87701333Y-102004857D01*
X87701333Y-102147714D01*
X87653714Y-102242952D01*
X87606095Y-102290571D01*
X87510857Y-102338190D01*
X87129904Y-102338190D01*
X88129904Y-102814380D02*
X88129904Y-101814380D01*
X88701333Y-102814380D01*
X88701333Y-101814380D01*
D12*
X145723904Y-90461428D02*
X146371523Y-90461428D01*
X146447714Y-90423333D01*
X146485809Y-90385238D01*
X146523904Y-90309047D01*
X146523904Y-90156666D01*
X146485809Y-90080476D01*
X146447714Y-90042380D01*
X146371523Y-90004285D01*
X145723904Y-90004285D01*
X146104857Y-89356666D02*
X146142952Y-89242380D01*
X146181047Y-89204285D01*
X146257238Y-89166190D01*
X146371523Y-89166190D01*
X146447714Y-89204285D01*
X146485809Y-89242380D01*
X146523904Y-89318571D01*
X146523904Y-89623333D01*
X145723904Y-89623333D01*
X145723904Y-89356666D01*
X145762000Y-89280476D01*
X145800095Y-89242380D01*
X145876285Y-89204285D01*
X145952476Y-89204285D01*
X146028666Y-89242380D01*
X146066761Y-89280476D01*
X146104857Y-89356666D01*
X146104857Y-89623333D01*
X146447714Y-88366190D02*
X146485809Y-88404285D01*
X146523904Y-88518571D01*
X146523904Y-88594761D01*
X146485809Y-88709047D01*
X146409619Y-88785238D01*
X146333428Y-88823333D01*
X146181047Y-88861428D01*
X146066761Y-88861428D01*
X145914380Y-88823333D01*
X145838190Y-88785238D01*
X145762000Y-88709047D01*
X145723904Y-88594761D01*
X145723904Y-88518571D01*
X145762000Y-88404285D01*
X145800095Y-88366190D01*
X146485809Y-87451904D02*
X146523904Y-87337619D01*
X146523904Y-87147142D01*
X146485809Y-87070952D01*
X146447714Y-87032857D01*
X146371523Y-86994761D01*
X146295333Y-86994761D01*
X146219142Y-87032857D01*
X146181047Y-87070952D01*
X146142952Y-87147142D01*
X146104857Y-87299523D01*
X146066761Y-87375714D01*
X146028666Y-87413809D01*
X145952476Y-87451904D01*
X145876285Y-87451904D01*
X145800095Y-87413809D01*
X145762000Y-87375714D01*
X145723904Y-87299523D01*
X145723904Y-87109047D01*
X145762000Y-86994761D01*
X145990571Y-86309047D02*
X146523904Y-86309047D01*
X145990571Y-86651904D02*
X146409619Y-86651904D01*
X146485809Y-86613809D01*
X146523904Y-86537619D01*
X146523904Y-86423333D01*
X146485809Y-86347142D01*
X146447714Y-86309047D01*
X145990571Y-85928095D02*
X146790571Y-85928095D01*
X146028666Y-85928095D02*
X145990571Y-85851904D01*
X145990571Y-85699523D01*
X146028666Y-85623333D01*
X146066761Y-85585238D01*
X146142952Y-85547142D01*
X146371523Y-85547142D01*
X146447714Y-85585238D01*
X146485809Y-85623333D01*
X146523904Y-85699523D01*
X146523904Y-85851904D01*
X146485809Y-85928095D01*
X146485809Y-84899523D02*
X146523904Y-84975714D01*
X146523904Y-85128095D01*
X146485809Y-85204285D01*
X146409619Y-85242380D01*
X146104857Y-85242380D01*
X146028666Y-85204285D01*
X145990571Y-85128095D01*
X145990571Y-84975714D01*
X146028666Y-84899523D01*
X146104857Y-84861428D01*
X146181047Y-84861428D01*
X146257238Y-85242380D01*
X146523904Y-84518571D02*
X145990571Y-84518571D01*
X146142952Y-84518571D02*
X146066761Y-84480476D01*
X146028666Y-84442380D01*
X145990571Y-84366190D01*
X145990571Y-84290000D01*
X146523904Y-84023333D02*
X145990571Y-84023333D01*
X146066761Y-84023333D02*
X146028666Y-83985238D01*
X145990571Y-83909047D01*
X145990571Y-83794761D01*
X146028666Y-83718571D01*
X146104857Y-83680476D01*
X146523904Y-83680476D01*
X146104857Y-83680476D02*
X146028666Y-83642380D01*
X145990571Y-83566190D01*
X145990571Y-83451904D01*
X146028666Y-83375714D01*
X146104857Y-83337619D01*
X146523904Y-83337619D01*
X146523904Y-82956666D02*
X145990571Y-82956666D01*
X145723904Y-82956666D02*
X145762000Y-82994761D01*
X145800095Y-82956666D01*
X145762000Y-82918571D01*
X145723904Y-82956666D01*
X145800095Y-82956666D01*
X146523904Y-82461428D02*
X146485809Y-82537619D01*
X146409619Y-82575714D01*
X145723904Y-82575714D01*
X146485809Y-81851904D02*
X146523904Y-81928095D01*
X146523904Y-82080476D01*
X146485809Y-82156666D01*
X146409619Y-82194761D01*
X146104857Y-82194761D01*
X146028666Y-82156666D01*
X145990571Y-82080476D01*
X145990571Y-81928095D01*
X146028666Y-81851904D01*
X146104857Y-81813809D01*
X146181047Y-81813809D01*
X146257238Y-82194761D01*
X146523904Y-81128095D02*
X146104857Y-81128095D01*
X146028666Y-81166190D01*
X145990571Y-81242380D01*
X145990571Y-81394761D01*
X146028666Y-81470952D01*
X146485809Y-81128095D02*
X146523904Y-81204285D01*
X146523904Y-81394761D01*
X146485809Y-81470952D01*
X146409619Y-81509047D01*
X146333428Y-81509047D01*
X146257238Y-81470952D01*
X146219142Y-81394761D01*
X146219142Y-81204285D01*
X146181047Y-81128095D01*
X145990571Y-80404285D02*
X146638190Y-80404285D01*
X146714380Y-80442380D01*
X146752476Y-80480476D01*
X146790571Y-80556666D01*
X146790571Y-80670952D01*
X146752476Y-80747142D01*
X146485809Y-80404285D02*
X146523904Y-80480476D01*
X146523904Y-80632857D01*
X146485809Y-80709047D01*
X146447714Y-80747142D01*
X146371523Y-80785238D01*
X146142952Y-80785238D01*
X146066761Y-80747142D01*
X146028666Y-80709047D01*
X145990571Y-80632857D01*
X145990571Y-80480476D01*
X146028666Y-80404285D01*
X146485809Y-79718571D02*
X146523904Y-79794761D01*
X146523904Y-79947142D01*
X146485809Y-80023333D01*
X146409619Y-80061428D01*
X146104857Y-80061428D01*
X146028666Y-80023333D01*
X145990571Y-79947142D01*
X145990571Y-79794761D01*
X146028666Y-79718571D01*
X146104857Y-79680476D01*
X146181047Y-79680476D01*
X146257238Y-80061428D01*
X147823904Y-89718571D02*
X147023904Y-89718571D01*
X147023904Y-89413809D01*
X147062000Y-89337619D01*
X147100095Y-89299523D01*
X147176285Y-89261428D01*
X147290571Y-89261428D01*
X147366761Y-89299523D01*
X147404857Y-89337619D01*
X147442952Y-89413809D01*
X147442952Y-89718571D01*
X147823904Y-88918571D02*
X147290571Y-88918571D01*
X147442952Y-88918571D02*
X147366761Y-88880476D01*
X147328666Y-88842380D01*
X147290571Y-88766190D01*
X147290571Y-88690000D01*
X147823904Y-88309047D02*
X147785809Y-88385238D01*
X147747714Y-88423333D01*
X147671523Y-88461428D01*
X147442952Y-88461428D01*
X147366761Y-88423333D01*
X147328666Y-88385238D01*
X147290571Y-88309047D01*
X147290571Y-88194761D01*
X147328666Y-88118571D01*
X147366761Y-88080476D01*
X147442952Y-88042380D01*
X147671523Y-88042380D01*
X147747714Y-88080476D01*
X147785809Y-88118571D01*
X147823904Y-88194761D01*
X147823904Y-88309047D01*
X147290571Y-87813809D02*
X147290571Y-87509047D01*
X147023904Y-87699523D02*
X147709619Y-87699523D01*
X147785809Y-87661428D01*
X147823904Y-87585238D01*
X147823904Y-87509047D01*
X147823904Y-87128095D02*
X147785809Y-87204285D01*
X147747714Y-87242380D01*
X147671523Y-87280476D01*
X147442952Y-87280476D01*
X147366761Y-87242380D01*
X147328666Y-87204285D01*
X147290571Y-87128095D01*
X147290571Y-87013809D01*
X147328666Y-86937619D01*
X147366761Y-86899523D01*
X147442952Y-86861428D01*
X147671523Y-86861428D01*
X147747714Y-86899523D01*
X147785809Y-86937619D01*
X147823904Y-87013809D01*
X147823904Y-87128095D01*
X147785809Y-85947142D02*
X147823904Y-85832857D01*
X147823904Y-85642380D01*
X147785809Y-85566190D01*
X147747714Y-85528095D01*
X147671523Y-85490000D01*
X147595333Y-85490000D01*
X147519142Y-85528095D01*
X147481047Y-85566190D01*
X147442952Y-85642380D01*
X147404857Y-85794761D01*
X147366761Y-85870952D01*
X147328666Y-85909047D01*
X147252476Y-85947142D01*
X147176285Y-85947142D01*
X147100095Y-85909047D01*
X147062000Y-85870952D01*
X147023904Y-85794761D01*
X147023904Y-85604285D01*
X147062000Y-85490000D01*
X147595333Y-85185238D02*
X147595333Y-84804285D01*
X147823904Y-85261428D02*
X147023904Y-84994761D01*
X147823904Y-84728095D01*
X147404857Y-84461428D02*
X147404857Y-84194761D01*
X147823904Y-84080476D02*
X147823904Y-84461428D01*
X147023904Y-84461428D01*
X147023904Y-84080476D01*
X147100095Y-83166190D02*
X147062000Y-83128095D01*
X147023904Y-83051904D01*
X147023904Y-82861428D01*
X147062000Y-82785238D01*
X147100095Y-82747142D01*
X147176285Y-82709047D01*
X147252476Y-82709047D01*
X147366761Y-82747142D01*
X147823904Y-83204285D01*
X147823904Y-82709047D01*
X147023904Y-82213809D02*
X147023904Y-82137619D01*
X147062000Y-82061428D01*
X147100095Y-82023333D01*
X147176285Y-81985238D01*
X147328666Y-81947142D01*
X147519142Y-81947142D01*
X147671523Y-81985238D01*
X147747714Y-82023333D01*
X147785809Y-82061428D01*
X147823904Y-82137619D01*
X147823904Y-82213809D01*
X147785809Y-82290000D01*
X147747714Y-82328095D01*
X147671523Y-82366190D01*
X147519142Y-82404285D01*
X147328666Y-82404285D01*
X147176285Y-82366190D01*
X147100095Y-82328095D01*
X147062000Y-82290000D01*
X147023904Y-82213809D01*
X147100095Y-81642380D02*
X147062000Y-81604285D01*
X147023904Y-81528095D01*
X147023904Y-81337619D01*
X147062000Y-81261428D01*
X147100095Y-81223333D01*
X147176285Y-81185238D01*
X147252476Y-81185238D01*
X147366761Y-81223333D01*
X147823904Y-81680476D01*
X147823904Y-81185238D01*
X147100095Y-80880476D02*
X147062000Y-80842380D01*
X147023904Y-80766190D01*
X147023904Y-80575714D01*
X147062000Y-80499523D01*
X147100095Y-80461428D01*
X147176285Y-80423333D01*
X147252476Y-80423333D01*
X147366761Y-80461428D01*
X147823904Y-80918571D01*
X147823904Y-80423333D01*
D13*
%TO.C,F1*%
X146164000Y-99038000D02*
X150744000Y-99038000D01*
X136954000Y-99038000D02*
X144524000Y-99038000D01*
X130744000Y-105038000D02*
X130744000Y-99038000D01*
X150744000Y-105038000D02*
X130744000Y-105038000D01*
X150744000Y-99038000D02*
X150744000Y-105038000D01*
X130744000Y-99038000D02*
X135334000Y-99038000D01*
%TO.C,D2*%
X87390500Y-94758742D02*
X87390500Y-95233258D01*
X86345500Y-94758742D02*
X86345500Y-95233258D01*
D10*
%TO.C,TP3*%
X102748000Y-93896000D02*
X106548000Y-93896000D01*
X106548000Y-93896000D02*
X106548000Y-96096000D01*
X106548000Y-96096000D02*
X102748000Y-96096000D01*
X102748000Y-96096000D02*
X102748000Y-93896000D01*
%TO.C,TP2*%
X110876000Y-93896000D02*
X114676000Y-93896000D01*
X114676000Y-93896000D02*
X114676000Y-96096000D01*
X114676000Y-96096000D02*
X110876000Y-96096000D01*
X110876000Y-96096000D02*
X110876000Y-93896000D01*
%TO.C,TP1*%
X132212000Y-93134000D02*
X136012000Y-93134000D01*
X136012000Y-93134000D02*
X136012000Y-95334000D01*
X136012000Y-95334000D02*
X132212000Y-95334000D01*
X132212000Y-95334000D02*
X132212000Y-93134000D01*
D13*
%TO.C,R5*%
X91244436Y-99166000D02*
X92698564Y-99166000D01*
X91244436Y-100986000D02*
X92698564Y-100986000D01*
%TO.C,R4*%
X83714000Y-94268936D02*
X83714000Y-95723064D01*
X81894000Y-94268936D02*
X81894000Y-95723064D01*
%TO.C,R3*%
X103700400Y-102073064D02*
X103700400Y-100618936D01*
X105520400Y-102073064D02*
X105520400Y-100618936D01*
%TO.C,R2*%
X96959436Y-99144999D02*
X98413564Y-99144999D01*
X96959436Y-100964999D02*
X98413564Y-100964999D01*
%TO.C,R1*%
X83714000Y-99348936D02*
X83714000Y-100803064D01*
X81894000Y-99348936D02*
X81894000Y-100803064D01*
%TO.C,Q2*%
X92708000Y-97084000D02*
X92708000Y-96154000D01*
X92708000Y-93924000D02*
X92708000Y-94854000D01*
X92708000Y-93924000D02*
X90548000Y-93924000D01*
X92708000Y-97084000D02*
X91248000Y-97084000D01*
%TO.C,J10*%
X130780200Y-85090000D02*
G75*
G03*
X130780200Y-85090000I-2180000J0D01*
G01*
X125780200Y-85090000D02*
G75*
G03*
X125780200Y-85090000I-2180000J0D01*
G01*
X131160200Y-80490000D02*
X121040200Y-80490000D01*
X131160200Y-81590000D02*
X121040200Y-81590000D01*
X131160200Y-89150000D02*
X121040200Y-89150000D01*
X131160200Y-80030000D02*
X121040200Y-80030000D01*
X131160200Y-89150000D02*
X131160200Y-80030000D01*
X121040200Y-89150000D02*
X121040200Y-80030000D01*
X126946200Y-86478000D02*
X127053200Y-86371000D01*
X129882200Y-83543000D02*
X129988200Y-83436000D01*
X127212200Y-86744000D02*
X127319200Y-86637000D01*
X130148200Y-83809000D02*
X130254200Y-83702000D01*
X121946200Y-86478000D02*
X122341200Y-86082000D01*
X124607200Y-83816000D02*
X124987200Y-83436000D01*
X122212200Y-86744000D02*
X122592200Y-86364000D01*
X124858200Y-84098000D02*
X125253200Y-83702000D01*
X131400200Y-80430000D02*
X131400200Y-79790000D01*
X131400200Y-79790000D02*
X131000200Y-79790000D01*
%TO.C,J9*%
X118664400Y-85090000D02*
G75*
G03*
X118664400Y-85090000I-2180000J0D01*
G01*
X113664400Y-85090000D02*
G75*
G03*
X113664400Y-85090000I-2180000J0D01*
G01*
X119044400Y-80490000D02*
X108924400Y-80490000D01*
X119044400Y-81590000D02*
X108924400Y-81590000D01*
X119044400Y-89150000D02*
X108924400Y-89150000D01*
X119044400Y-80030000D02*
X108924400Y-80030000D01*
X119044400Y-89150000D02*
X119044400Y-80030000D01*
X108924400Y-89150000D02*
X108924400Y-80030000D01*
X114830400Y-86478000D02*
X114937400Y-86371000D01*
X117766400Y-83543000D02*
X117872400Y-83436000D01*
X115096400Y-86744000D02*
X115203400Y-86637000D01*
X118032400Y-83809000D02*
X118138400Y-83702000D01*
X109830400Y-86478000D02*
X110225400Y-86082000D01*
X112491400Y-83816000D02*
X112871400Y-83436000D01*
X110096400Y-86744000D02*
X110476400Y-86364000D01*
X112742400Y-84098000D02*
X113137400Y-83702000D01*
X119284400Y-80430000D02*
X119284400Y-79790000D01*
X119284400Y-79790000D02*
X118884400Y-79790000D01*
%TO.C,J8*%
X106548600Y-85090000D02*
G75*
G03*
X106548600Y-85090000I-2180000J0D01*
G01*
X101548600Y-85090000D02*
G75*
G03*
X101548600Y-85090000I-2180000J0D01*
G01*
X106928600Y-80490000D02*
X96808600Y-80490000D01*
X106928600Y-81590000D02*
X96808600Y-81590000D01*
X106928600Y-89150000D02*
X96808600Y-89150000D01*
X106928600Y-80030000D02*
X96808600Y-80030000D01*
X106928600Y-89150000D02*
X106928600Y-80030000D01*
X96808600Y-89150000D02*
X96808600Y-80030000D01*
X102714600Y-86478000D02*
X102821600Y-86371000D01*
X105650600Y-83543000D02*
X105756600Y-83436000D01*
X102980600Y-86744000D02*
X103087600Y-86637000D01*
X105916600Y-83809000D02*
X106022600Y-83702000D01*
X97714600Y-86478000D02*
X98109600Y-86082000D01*
X100375600Y-83816000D02*
X100755600Y-83436000D01*
X97980600Y-86744000D02*
X98360600Y-86364000D01*
X100626600Y-84098000D02*
X101021600Y-83702000D01*
X107168600Y-80430000D02*
X107168600Y-79790000D01*
X107168600Y-79790000D02*
X106768600Y-79790000D01*
%TO.C,J6*%
X83276001Y-108947111D02*
X83276001Y-106070011D01*
X83276001Y-111406076D02*
X83276001Y-109842891D01*
X83276001Y-115719992D02*
X83276001Y-113383924D01*
X73376000Y-115719992D02*
X83276001Y-115719992D01*
X73376000Y-106070011D02*
X73376000Y-115719992D01*
X83276001Y-106070011D02*
X73376000Y-106070011D01*
X81661000Y-117497992D02*
X82296000Y-115973992D01*
X82931000Y-117497992D02*
X81661000Y-117497992D01*
X82296000Y-115973992D02*
X82931000Y-117497992D01*
%TO.C,J4*%
X122900001Y-108820111D02*
X122900001Y-105943011D01*
X122900001Y-111279076D02*
X122900001Y-109715891D01*
X122900001Y-115592992D02*
X122900001Y-113256924D01*
X113000000Y-115592992D02*
X122900001Y-115592992D01*
X113000000Y-105943011D02*
X113000000Y-115592992D01*
X122900001Y-105943011D02*
X113000000Y-105943011D01*
X121285000Y-117370992D02*
X121920000Y-115846992D01*
X122555000Y-117370992D02*
X121285000Y-117370992D01*
X121920000Y-115846992D02*
X122555000Y-117370992D01*
%TO.C,J3*%
X109692001Y-108820111D02*
X109692001Y-105943011D01*
X109692001Y-111279076D02*
X109692001Y-109715891D01*
X109692001Y-115592992D02*
X109692001Y-113256924D01*
X99792000Y-115592992D02*
X109692001Y-115592992D01*
X99792000Y-105943011D02*
X99792000Y-115592992D01*
X109692001Y-105943011D02*
X99792000Y-105943011D01*
X108077000Y-117370992D02*
X108712000Y-115846992D01*
X109347000Y-117370992D02*
X108077000Y-117370992D01*
X108712000Y-115846992D02*
X109347000Y-117370992D01*
%TO.C,J1*%
X96484001Y-108947111D02*
X96484001Y-106070011D01*
X96484001Y-111406076D02*
X96484001Y-109842891D01*
X96484001Y-115719992D02*
X96484001Y-113383924D01*
X86584000Y-115719992D02*
X96484001Y-115719992D01*
X86584000Y-106070011D02*
X86584000Y-115719992D01*
X96484001Y-106070011D02*
X86584000Y-106070011D01*
X94869000Y-117497992D02*
X95504000Y-115973992D01*
X96139000Y-117497992D02*
X94869000Y-117497992D01*
X95504000Y-115973992D02*
X96139000Y-117497992D01*
%TO.C,D1*%
X87390500Y-99647742D02*
X87390500Y-100122258D01*
X86345500Y-99647742D02*
X86345500Y-100122258D01*
%TO.C,C2*%
X113487252Y-99462000D02*
X112064748Y-99462000D01*
X113487252Y-97642000D02*
X112064748Y-97642000D01*
%TO.C,C1*%
X127910000Y-97840748D02*
X127910000Y-99263252D01*
X126090000Y-97840748D02*
X126090000Y-99263252D01*
%TO.C,U1*%
X124496000Y-101962000D02*
X118486000Y-101962000D01*
X122246000Y-95142000D02*
X118486000Y-95142000D01*
X118486000Y-101962000D02*
X118486000Y-100702000D01*
X118486000Y-95142000D02*
X118486000Y-96402000D01*
%TO.C,J2*%
X95052800Y-79790000D02*
X94652800Y-79790000D01*
X95052800Y-80430000D02*
X95052800Y-79790000D01*
X88510800Y-84098000D02*
X88905800Y-83702000D01*
X85864800Y-86744000D02*
X86244800Y-86364000D01*
X88259800Y-83816000D02*
X88639800Y-83436000D01*
X85598800Y-86478000D02*
X85993800Y-86082000D01*
X93800800Y-83809000D02*
X93906800Y-83702000D01*
X90864800Y-86744000D02*
X90971800Y-86637000D01*
X93534800Y-83543000D02*
X93640800Y-83436000D01*
X90598800Y-86478000D02*
X90705800Y-86371000D01*
X84692800Y-89150000D02*
X84692800Y-80030000D01*
X94812800Y-89150000D02*
X94812800Y-80030000D01*
X94812800Y-80030000D02*
X84692800Y-80030000D01*
X94812800Y-89150000D02*
X84692800Y-89150000D01*
X94812800Y-81590000D02*
X84692800Y-81590000D01*
X94812800Y-80490000D02*
X84692800Y-80490000D01*
X89432800Y-85090000D02*
G75*
G03*
X89432800Y-85090000I-2180000J0D01*
G01*
X94432800Y-85090000D02*
G75*
G03*
X94432800Y-85090000I-2180000J0D01*
G01*
%TO.C,J7*%
X82937000Y-79790000D02*
X82537000Y-79790000D01*
X82937000Y-80430000D02*
X82937000Y-79790000D01*
X76395000Y-84098000D02*
X76790000Y-83702000D01*
X73749000Y-86744000D02*
X74129000Y-86364000D01*
X76144000Y-83816000D02*
X76524000Y-83436000D01*
X73483000Y-86478000D02*
X73878000Y-86082000D01*
X81685000Y-83809000D02*
X81791000Y-83702000D01*
X78749000Y-86744000D02*
X78856000Y-86637000D01*
X81419000Y-83543000D02*
X81525000Y-83436000D01*
X78483000Y-86478000D02*
X78590000Y-86371000D01*
X72577000Y-89150000D02*
X72577000Y-80030000D01*
X82697000Y-89150000D02*
X82697000Y-80030000D01*
X82697000Y-80030000D02*
X72577000Y-80030000D01*
X82697000Y-89150000D02*
X72577000Y-89150000D01*
X82697000Y-81590000D02*
X72577000Y-81590000D01*
X82697000Y-80490000D02*
X72577000Y-80490000D01*
X77317000Y-85090000D02*
G75*
G03*
X77317000Y-85090000I-2180000J0D01*
G01*
X82317000Y-85090000D02*
G75*
G03*
X82317000Y-85090000I-2180000J0D01*
G01*
%TO.C,J5*%
X142896000Y-85090000D02*
G75*
G03*
X142896000Y-85090000I-2180000J0D01*
G01*
X137896000Y-85090000D02*
G75*
G03*
X137896000Y-85090000I-2180000J0D01*
G01*
X143276000Y-80490000D02*
X133156000Y-80490000D01*
X143276000Y-81590000D02*
X133156000Y-81590000D01*
X143276000Y-89150000D02*
X133156000Y-89150000D01*
X143276000Y-80030000D02*
X133156000Y-80030000D01*
X143276000Y-89150000D02*
X143276000Y-80030000D01*
X133156000Y-89150000D02*
X133156000Y-80030000D01*
X139062000Y-86478000D02*
X139169000Y-86371000D01*
X141998000Y-83543000D02*
X142104000Y-83436000D01*
X139328000Y-86744000D02*
X139435000Y-86637000D01*
X142264000Y-83809000D02*
X142370000Y-83702000D01*
X134062000Y-86478000D02*
X134457000Y-86082000D01*
X136723000Y-83816000D02*
X137103000Y-83436000D01*
X134328000Y-86744000D02*
X134708000Y-86364000D01*
X136974000Y-84098000D02*
X137369000Y-83702000D01*
X143516000Y-80430000D02*
X143516000Y-79790000D01*
X143516000Y-79790000D02*
X143116000Y-79790000D01*
%TO.C,J12*%
X141880000Y-111506000D02*
G75*
G03*
X141880000Y-111506000I-2180000J0D01*
G01*
X146880000Y-111506000D02*
G75*
G03*
X146880000Y-111506000I-2180000J0D01*
G01*
X137140000Y-116106000D02*
X147260000Y-116106000D01*
X137140000Y-115006000D02*
X147260000Y-115006000D01*
X137140000Y-107446000D02*
X147260000Y-107446000D01*
X137140000Y-116566000D02*
X147260000Y-116566000D01*
X137140000Y-107446000D02*
X137140000Y-116566000D01*
X147260000Y-107446000D02*
X147260000Y-116566000D01*
X141354000Y-110118000D02*
X141247000Y-110225000D01*
X138418000Y-113053000D02*
X138312000Y-113160000D01*
X141088000Y-109852000D02*
X140981000Y-109959000D01*
X138152000Y-112787000D02*
X138046000Y-112894000D01*
X146354000Y-110118000D02*
X145959000Y-110514000D01*
X143693000Y-112780000D02*
X143313000Y-113160000D01*
X146088000Y-109852000D02*
X145708000Y-110232000D01*
X143442000Y-112498000D02*
X143047000Y-112894000D01*
X136900000Y-116166000D02*
X136900000Y-116806000D01*
X136900000Y-116806000D02*
X137300000Y-116806000D01*
%TO.C,J11*%
X130196000Y-111506000D02*
G75*
G03*
X130196000Y-111506000I-2180000J0D01*
G01*
X135196000Y-111506000D02*
G75*
G03*
X135196000Y-111506000I-2180000J0D01*
G01*
X125456000Y-116106000D02*
X135576000Y-116106000D01*
X125456000Y-115006000D02*
X135576000Y-115006000D01*
X125456000Y-107446000D02*
X135576000Y-107446000D01*
X125456000Y-116566000D02*
X135576000Y-116566000D01*
X125456000Y-107446000D02*
X125456000Y-116566000D01*
X135576000Y-107446000D02*
X135576000Y-116566000D01*
X129670000Y-110118000D02*
X129563000Y-110225000D01*
X126734000Y-113053000D02*
X126628000Y-113160000D01*
X129404000Y-109852000D02*
X129297000Y-109959000D01*
X126468000Y-112787000D02*
X126362000Y-112894000D01*
X134670000Y-110118000D02*
X134275000Y-110514000D01*
X132009000Y-112780000D02*
X131629000Y-113160000D01*
X134404000Y-109852000D02*
X134024000Y-110232000D01*
X131758000Y-112498000D02*
X131363000Y-112894000D01*
X125216000Y-116166000D02*
X125216000Y-116806000D01*
X125216000Y-116806000D02*
X125616000Y-116806000D01*
%TO.C,Q1*%
X98446500Y-96957000D02*
X98446500Y-96027000D01*
X98446500Y-93797000D02*
X98446500Y-94727000D01*
X98446500Y-93797000D02*
X96286500Y-93797000D01*
X98446500Y-96957000D02*
X96986500Y-96957000D01*
%TO.C,F1*%
D10*
X140380666Y-97986571D02*
X140047333Y-97986571D01*
X140047333Y-98510380D02*
X140047333Y-97510380D01*
X140523523Y-97510380D01*
X141428285Y-98510380D02*
X140856857Y-98510380D01*
X141142571Y-98510380D02*
X141142571Y-97510380D01*
X141047333Y-97653238D01*
X140952095Y-97748476D01*
X140856857Y-97796095D01*
%TO.C,D2*%
X88750380Y-95734095D02*
X87750380Y-95734095D01*
X87750380Y-95496000D01*
X87798000Y-95353142D01*
X87893238Y-95257904D01*
X87988476Y-95210285D01*
X88178952Y-95162666D01*
X88321809Y-95162666D01*
X88512285Y-95210285D01*
X88607523Y-95257904D01*
X88702761Y-95353142D01*
X88750380Y-95496000D01*
X88750380Y-95734095D01*
X87845619Y-94781714D02*
X87798000Y-94734095D01*
X87750380Y-94638857D01*
X87750380Y-94400761D01*
X87798000Y-94305523D01*
X87845619Y-94257904D01*
X87940857Y-94210285D01*
X88036095Y-94210285D01*
X88178952Y-94257904D01*
X88750380Y-94829333D01*
X88750380Y-94210285D01*
%TO.C,TP3*%
X103386095Y-96734380D02*
X103957523Y-96734380D01*
X103671809Y-97734380D02*
X103671809Y-96734380D01*
X104290857Y-97734380D02*
X104290857Y-96734380D01*
X104671809Y-96734380D01*
X104767047Y-96782000D01*
X104814666Y-96829619D01*
X104862285Y-96924857D01*
X104862285Y-97067714D01*
X104814666Y-97162952D01*
X104767047Y-97210571D01*
X104671809Y-97258190D01*
X104290857Y-97258190D01*
X105195619Y-96734380D02*
X105814666Y-96734380D01*
X105481333Y-97115333D01*
X105624190Y-97115333D01*
X105719428Y-97162952D01*
X105767047Y-97210571D01*
X105814666Y-97305809D01*
X105814666Y-97543904D01*
X105767047Y-97639142D01*
X105719428Y-97686761D01*
X105624190Y-97734380D01*
X105338476Y-97734380D01*
X105243238Y-97686761D01*
X105195619Y-97639142D01*
%TO.C,TP2*%
X115070095Y-93178380D02*
X115641523Y-93178380D01*
X115355809Y-94178380D02*
X115355809Y-93178380D01*
X115974857Y-94178380D02*
X115974857Y-93178380D01*
X116355809Y-93178380D01*
X116451047Y-93226000D01*
X116498666Y-93273619D01*
X116546285Y-93368857D01*
X116546285Y-93511714D01*
X116498666Y-93606952D01*
X116451047Y-93654571D01*
X116355809Y-93702190D01*
X115974857Y-93702190D01*
X116927238Y-93273619D02*
X116974857Y-93226000D01*
X117070095Y-93178380D01*
X117308190Y-93178380D01*
X117403428Y-93226000D01*
X117451047Y-93273619D01*
X117498666Y-93368857D01*
X117498666Y-93464095D01*
X117451047Y-93606952D01*
X116879619Y-94178380D01*
X117498666Y-94178380D01*
%TO.C,TP1*%
X132850095Y-96005379D02*
X133421523Y-96005379D01*
X133135809Y-97005379D02*
X133135809Y-96005379D01*
X133754857Y-97005379D02*
X133754857Y-96005379D01*
X134135809Y-96005379D01*
X134231047Y-96052999D01*
X134278666Y-96100618D01*
X134326285Y-96195856D01*
X134326285Y-96338713D01*
X134278666Y-96433951D01*
X134231047Y-96481570D01*
X134135809Y-96529189D01*
X133754857Y-96529189D01*
X135278666Y-97005379D02*
X134707238Y-97005379D01*
X134992952Y-97005379D02*
X134992952Y-96005379D01*
X134897714Y-96148237D01*
X134802476Y-96243475D01*
X134707238Y-96291094D01*
%TO.C,R5*%
X91804833Y-98708380D02*
X91471500Y-98232190D01*
X91233404Y-98708380D02*
X91233404Y-97708380D01*
X91614357Y-97708380D01*
X91709595Y-97756000D01*
X91757214Y-97803619D01*
X91804833Y-97898857D01*
X91804833Y-98041714D01*
X91757214Y-98136952D01*
X91709595Y-98184571D01*
X91614357Y-98232190D01*
X91233404Y-98232190D01*
X92709595Y-97708380D02*
X92233404Y-97708380D01*
X92185785Y-98184571D01*
X92233404Y-98136952D01*
X92328642Y-98089333D01*
X92566738Y-98089333D01*
X92661976Y-98136952D01*
X92709595Y-98184571D01*
X92757214Y-98279809D01*
X92757214Y-98517904D01*
X92709595Y-98613142D01*
X92661976Y-98660761D01*
X92566738Y-98708380D01*
X92328642Y-98708380D01*
X92233404Y-98660761D01*
X92185785Y-98613142D01*
%TO.C,R4*%
X81224380Y-95162666D02*
X80748190Y-95496000D01*
X81224380Y-95734095D02*
X80224380Y-95734095D01*
X80224380Y-95353142D01*
X80272000Y-95257904D01*
X80319619Y-95210285D01*
X80414857Y-95162666D01*
X80557714Y-95162666D01*
X80652952Y-95210285D01*
X80700571Y-95257904D01*
X80748190Y-95353142D01*
X80748190Y-95734095D01*
X80557714Y-94305523D02*
X81224380Y-94305523D01*
X80176761Y-94543619D02*
X80891047Y-94781714D01*
X80891047Y-94162666D01*
%TO.C,R3*%
X106513333Y-101798380D02*
X106180000Y-101322190D01*
X105941904Y-101798380D02*
X105941904Y-100798380D01*
X106322857Y-100798380D01*
X106418095Y-100846000D01*
X106465714Y-100893619D01*
X106513333Y-100988857D01*
X106513333Y-101131714D01*
X106465714Y-101226952D01*
X106418095Y-101274571D01*
X106322857Y-101322190D01*
X105941904Y-101322190D01*
X106846666Y-100798380D02*
X107465714Y-100798380D01*
X107132380Y-101179333D01*
X107275238Y-101179333D01*
X107370476Y-101226952D01*
X107418095Y-101274571D01*
X107465714Y-101369809D01*
X107465714Y-101607904D01*
X107418095Y-101703142D01*
X107370476Y-101750761D01*
X107275238Y-101798380D01*
X106989523Y-101798380D01*
X106894285Y-101750761D01*
X106846666Y-101703142D01*
%TO.C,R2*%
X97519833Y-98687379D02*
X97186500Y-98211189D01*
X96948404Y-98687379D02*
X96948404Y-97687379D01*
X97329357Y-97687379D01*
X97424595Y-97734999D01*
X97472214Y-97782618D01*
X97519833Y-97877856D01*
X97519833Y-98020713D01*
X97472214Y-98115951D01*
X97424595Y-98163570D01*
X97329357Y-98211189D01*
X96948404Y-98211189D01*
X97900785Y-97782618D02*
X97948404Y-97734999D01*
X98043642Y-97687379D01*
X98281738Y-97687379D01*
X98376976Y-97734999D01*
X98424595Y-97782618D01*
X98472214Y-97877856D01*
X98472214Y-97973094D01*
X98424595Y-98115951D01*
X97853166Y-98687379D01*
X98472214Y-98687379D01*
%TO.C,R1*%
X81224380Y-100242666D02*
X80748190Y-100576000D01*
X81224380Y-100814095D02*
X80224380Y-100814095D01*
X80224380Y-100433142D01*
X80272000Y-100337904D01*
X80319619Y-100290285D01*
X80414857Y-100242666D01*
X80557714Y-100242666D01*
X80652952Y-100290285D01*
X80700571Y-100337904D01*
X80748190Y-100433142D01*
X80748190Y-100814095D01*
X81224380Y-99290285D02*
X81224380Y-99861714D01*
X81224380Y-99576000D02*
X80224380Y-99576000D01*
X80367238Y-99671238D01*
X80462476Y-99766476D01*
X80510095Y-99861714D01*
%TO.C,Q2*%
X91852761Y-93551619D02*
X91757523Y-93504000D01*
X91662285Y-93408761D01*
X91519428Y-93265904D01*
X91424190Y-93218285D01*
X91328952Y-93218285D01*
X91376571Y-93456380D02*
X91281333Y-93408761D01*
X91186095Y-93313523D01*
X91138476Y-93123047D01*
X91138476Y-92789714D01*
X91186095Y-92599238D01*
X91281333Y-92504000D01*
X91376571Y-92456380D01*
X91567047Y-92456380D01*
X91662285Y-92504000D01*
X91757523Y-92599238D01*
X91805142Y-92789714D01*
X91805142Y-93123047D01*
X91757523Y-93313523D01*
X91662285Y-93408761D01*
X91567047Y-93456380D01*
X91376571Y-93456380D01*
X92186095Y-92551619D02*
X92233714Y-92504000D01*
X92328952Y-92456380D01*
X92567047Y-92456380D01*
X92662285Y-92504000D01*
X92709904Y-92551619D01*
X92757523Y-92646857D01*
X92757523Y-92742095D01*
X92709904Y-92884952D01*
X92138476Y-93456380D01*
X92757523Y-93456380D01*
%TO.C,J10*%
X129746476Y-78446380D02*
X129746476Y-79160666D01*
X129698857Y-79303523D01*
X129603619Y-79398761D01*
X129460761Y-79446380D01*
X129365523Y-79446380D01*
X130746476Y-79446380D02*
X130175047Y-79446380D01*
X130460761Y-79446380D02*
X130460761Y-78446380D01*
X130365523Y-78589238D01*
X130270285Y-78684476D01*
X130175047Y-78732095D01*
X131365523Y-78446380D02*
X131460761Y-78446380D01*
X131556000Y-78494000D01*
X131603619Y-78541619D01*
X131651238Y-78636857D01*
X131698857Y-78827333D01*
X131698857Y-79065428D01*
X131651238Y-79255904D01*
X131603619Y-79351142D01*
X131556000Y-79398761D01*
X131460761Y-79446380D01*
X131365523Y-79446380D01*
X131270285Y-79398761D01*
X131222666Y-79351142D01*
X131175047Y-79255904D01*
X131127428Y-79065428D01*
X131127428Y-78827333D01*
X131175047Y-78636857D01*
X131222666Y-78541619D01*
X131270285Y-78494000D01*
X131365523Y-78446380D01*
X124004961Y-89844571D02*
X124338295Y-89844571D01*
X124481152Y-90368380D02*
X124004961Y-90368380D01*
X124004961Y-89368380D01*
X124481152Y-89368380D01*
X125481152Y-90273142D02*
X125433533Y-90320761D01*
X125290676Y-90368380D01*
X125195438Y-90368380D01*
X125052580Y-90320761D01*
X124957342Y-90225523D01*
X124909723Y-90130285D01*
X124862104Y-89939809D01*
X124862104Y-89796952D01*
X124909723Y-89606476D01*
X124957342Y-89511238D01*
X125052580Y-89416000D01*
X125195438Y-89368380D01*
X125290676Y-89368380D01*
X125433533Y-89416000D01*
X125481152Y-89463619D01*
X125909723Y-89368380D02*
X125909723Y-90177904D01*
X125957342Y-90273142D01*
X126004961Y-90320761D01*
X126100200Y-90368380D01*
X126290676Y-90368380D01*
X126385914Y-90320761D01*
X126433533Y-90273142D01*
X126481152Y-90177904D01*
X126481152Y-89368380D01*
X126719247Y-90463619D02*
X127481152Y-90463619D01*
X127624009Y-89368380D02*
X128243057Y-89368380D01*
X127909723Y-89749333D01*
X128052580Y-89749333D01*
X128147819Y-89796952D01*
X128195438Y-89844571D01*
X128243057Y-89939809D01*
X128243057Y-90177904D01*
X128195438Y-90273142D01*
X128147819Y-90320761D01*
X128052580Y-90368380D01*
X127766866Y-90368380D01*
X127671628Y-90320761D01*
X127624009Y-90273142D01*
%TO.C,J9*%
X118538666Y-78446380D02*
X118538666Y-79160666D01*
X118491047Y-79303523D01*
X118395809Y-79398761D01*
X118252952Y-79446380D01*
X118157714Y-79446380D01*
X119062476Y-79446380D02*
X119252952Y-79446380D01*
X119348190Y-79398761D01*
X119395809Y-79351142D01*
X119491047Y-79208285D01*
X119538666Y-79017809D01*
X119538666Y-78636857D01*
X119491047Y-78541619D01*
X119443428Y-78494000D01*
X119348190Y-78446380D01*
X119157714Y-78446380D01*
X119062476Y-78494000D01*
X119014857Y-78541619D01*
X118967238Y-78636857D01*
X118967238Y-78874952D01*
X119014857Y-78970190D01*
X119062476Y-79017809D01*
X119157714Y-79065428D01*
X119348190Y-79065428D01*
X119443428Y-79017809D01*
X119491047Y-78970190D01*
X119538666Y-78874952D01*
X111889161Y-89844571D02*
X112222495Y-89844571D01*
X112365352Y-90368380D02*
X111889161Y-90368380D01*
X111889161Y-89368380D01*
X112365352Y-89368380D01*
X113365352Y-90273142D02*
X113317733Y-90320761D01*
X113174876Y-90368380D01*
X113079638Y-90368380D01*
X112936780Y-90320761D01*
X112841542Y-90225523D01*
X112793923Y-90130285D01*
X112746304Y-89939809D01*
X112746304Y-89796952D01*
X112793923Y-89606476D01*
X112841542Y-89511238D01*
X112936780Y-89416000D01*
X113079638Y-89368380D01*
X113174876Y-89368380D01*
X113317733Y-89416000D01*
X113365352Y-89463619D01*
X113793923Y-89368380D02*
X113793923Y-90177904D01*
X113841542Y-90273142D01*
X113889161Y-90320761D01*
X113984400Y-90368380D01*
X114174876Y-90368380D01*
X114270114Y-90320761D01*
X114317733Y-90273142D01*
X114365352Y-90177904D01*
X114365352Y-89368380D01*
X114603447Y-90463619D02*
X115365352Y-90463619D01*
X115555828Y-89463619D02*
X115603447Y-89416000D01*
X115698685Y-89368380D01*
X115936780Y-89368380D01*
X116032019Y-89416000D01*
X116079638Y-89463619D01*
X116127257Y-89558857D01*
X116127257Y-89654095D01*
X116079638Y-89796952D01*
X115508209Y-90368380D01*
X116127257Y-90368380D01*
%TO.C,J8*%
X106346666Y-78446380D02*
X106346666Y-79160666D01*
X106299047Y-79303523D01*
X106203809Y-79398761D01*
X106060952Y-79446380D01*
X105965714Y-79446380D01*
X106965714Y-78874952D02*
X106870476Y-78827333D01*
X106822857Y-78779714D01*
X106775238Y-78684476D01*
X106775238Y-78636857D01*
X106822857Y-78541619D01*
X106870476Y-78494000D01*
X106965714Y-78446380D01*
X107156190Y-78446380D01*
X107251428Y-78494000D01*
X107299047Y-78541619D01*
X107346666Y-78636857D01*
X107346666Y-78684476D01*
X107299047Y-78779714D01*
X107251428Y-78827333D01*
X107156190Y-78874952D01*
X106965714Y-78874952D01*
X106870476Y-78922571D01*
X106822857Y-78970190D01*
X106775238Y-79065428D01*
X106775238Y-79255904D01*
X106822857Y-79351142D01*
X106870476Y-79398761D01*
X106965714Y-79446380D01*
X107156190Y-79446380D01*
X107251428Y-79398761D01*
X107299047Y-79351142D01*
X107346666Y-79255904D01*
X107346666Y-79065428D01*
X107299047Y-78970190D01*
X107251428Y-78922571D01*
X107156190Y-78874952D01*
X100012761Y-89844571D02*
X100346095Y-89844571D01*
X100488952Y-90368380D02*
X100012761Y-90368380D01*
X100012761Y-89368380D01*
X100488952Y-89368380D01*
X101488952Y-90273142D02*
X101441333Y-90320761D01*
X101298476Y-90368380D01*
X101203238Y-90368380D01*
X101060380Y-90320761D01*
X100965142Y-90225523D01*
X100917523Y-90130285D01*
X100869904Y-89939809D01*
X100869904Y-89796952D01*
X100917523Y-89606476D01*
X100965142Y-89511238D01*
X101060380Y-89416000D01*
X101203238Y-89368380D01*
X101298476Y-89368380D01*
X101441333Y-89416000D01*
X101488952Y-89463619D01*
X101917523Y-89368380D02*
X101917523Y-90177904D01*
X101965142Y-90273142D01*
X102012761Y-90320761D01*
X102108000Y-90368380D01*
X102298476Y-90368380D01*
X102393714Y-90320761D01*
X102441333Y-90273142D01*
X102488952Y-90177904D01*
X102488952Y-89368380D01*
X102727047Y-90463619D02*
X103488952Y-90463619D01*
X104250857Y-90368380D02*
X103679428Y-90368380D01*
X103965142Y-90368380D02*
X103965142Y-89368380D01*
X103869904Y-89511238D01*
X103774666Y-89606476D01*
X103679428Y-89654095D01*
%TO.C,J6*%
X72818666Y-103338380D02*
X72818666Y-104052666D01*
X72771047Y-104195523D01*
X72675809Y-104290761D01*
X72532952Y-104338380D01*
X72437714Y-104338380D01*
X73723428Y-103338380D02*
X73532952Y-103338380D01*
X73437714Y-103386000D01*
X73390095Y-103433619D01*
X73294857Y-103576476D01*
X73247238Y-103766952D01*
X73247238Y-104147904D01*
X73294857Y-104243142D01*
X73342476Y-104290761D01*
X73437714Y-104338380D01*
X73628190Y-104338380D01*
X73723428Y-104290761D01*
X73771047Y-104243142D01*
X73818666Y-104147904D01*
X73818666Y-103909809D01*
X73771047Y-103814571D01*
X73723428Y-103766952D01*
X73628190Y-103719333D01*
X73437714Y-103719333D01*
X73342476Y-103766952D01*
X73294857Y-103814571D01*
X73247238Y-103909809D01*
X72065333Y-117530571D02*
X72208190Y-117578190D01*
X72255809Y-117625809D01*
X72303428Y-117721047D01*
X72303428Y-117863904D01*
X72255809Y-117959142D01*
X72208190Y-118006761D01*
X72112952Y-118054380D01*
X71732000Y-118054380D01*
X71732000Y-117054380D01*
X72065333Y-117054380D01*
X72160571Y-117102000D01*
X72208190Y-117149619D01*
X72255809Y-117244857D01*
X72255809Y-117340095D01*
X72208190Y-117435333D01*
X72160571Y-117482952D01*
X72065333Y-117530571D01*
X71732000Y-117530571D01*
X73303428Y-118054380D02*
X72970095Y-117578190D01*
X72732000Y-118054380D02*
X72732000Y-117054380D01*
X73112952Y-117054380D01*
X73208190Y-117102000D01*
X73255809Y-117149619D01*
X73303428Y-117244857D01*
X73303428Y-117387714D01*
X73255809Y-117482952D01*
X73208190Y-117530571D01*
X73112952Y-117578190D01*
X72732000Y-117578190D01*
X73684380Y-117768666D02*
X74160571Y-117768666D01*
X73589142Y-118054380D02*
X73922476Y-117054380D01*
X74255809Y-118054380D01*
X74589142Y-118054380D02*
X74589142Y-117054380D01*
X75160571Y-118054380D02*
X74732000Y-117482952D01*
X75160571Y-117054380D02*
X74589142Y-117625809D01*
X75589142Y-117530571D02*
X75922476Y-117530571D01*
X76065333Y-118054380D02*
X75589142Y-118054380D01*
X75589142Y-117054380D01*
X76065333Y-117054380D01*
X76970095Y-118054380D02*
X76493904Y-118054380D01*
X76493904Y-117054380D01*
X77303428Y-118054380D02*
X77303428Y-117054380D01*
X78303428Y-117102000D02*
X78208190Y-117054380D01*
X78065333Y-117054380D01*
X77922476Y-117102000D01*
X77827238Y-117197238D01*
X77779619Y-117292476D01*
X77732000Y-117482952D01*
X77732000Y-117625809D01*
X77779619Y-117816285D01*
X77827238Y-117911523D01*
X77922476Y-118006761D01*
X78065333Y-118054380D01*
X78160571Y-118054380D01*
X78303428Y-118006761D01*
X78351047Y-117959142D01*
X78351047Y-117625809D01*
X78160571Y-117625809D01*
X78779619Y-118054380D02*
X78779619Y-117054380D01*
X78779619Y-117530571D02*
X79351047Y-117530571D01*
X79351047Y-118054380D02*
X79351047Y-117054380D01*
X79684380Y-117054380D02*
X80255809Y-117054380D01*
X79970095Y-118054380D02*
X79970095Y-117054380D01*
X80541523Y-118006761D02*
X80684380Y-118054380D01*
X80922476Y-118054380D01*
X81017714Y-118006761D01*
X81065333Y-117959142D01*
X81112952Y-117863904D01*
X81112952Y-117768666D01*
X81065333Y-117673428D01*
X81017714Y-117625809D01*
X80922476Y-117578190D01*
X80732000Y-117530571D01*
X80636761Y-117482952D01*
X80589142Y-117435333D01*
X80541523Y-117340095D01*
X80541523Y-117244857D01*
X80589142Y-117149619D01*
X80636761Y-117102000D01*
X80732000Y-117054380D01*
X80970095Y-117054380D01*
X81112952Y-117102000D01*
X81303428Y-118149619D02*
X82065333Y-118149619D01*
X82303428Y-117530571D02*
X82636761Y-117530571D01*
X82779619Y-118054380D02*
X82303428Y-118054380D01*
X82303428Y-117054380D01*
X82779619Y-117054380D01*
X83208190Y-118054380D02*
X83208190Y-117054380D01*
X83779619Y-118054380D01*
X83779619Y-117054380D01*
X84779619Y-118054380D02*
X84208190Y-118054380D01*
X84493904Y-118054380D02*
X84493904Y-117054380D01*
X84398666Y-117197238D01*
X84303428Y-117292476D01*
X84208190Y-117340095D01*
X81748380Y-112395000D02*
X81986476Y-112395000D01*
X81891238Y-112633095D02*
X81986476Y-112395000D01*
X81891238Y-112156904D01*
X82176952Y-112537857D02*
X81986476Y-112395000D01*
X82176952Y-112252142D01*
%TO.C,J4*%
X123110666Y-103338380D02*
X123110666Y-104052666D01*
X123063047Y-104195523D01*
X122967809Y-104290761D01*
X122824952Y-104338380D01*
X122729714Y-104338380D01*
X124015428Y-103671714D02*
X124015428Y-104338380D01*
X123777333Y-103290761D02*
X123539238Y-104005047D01*
X124158285Y-104005047D01*
X113816571Y-117054380D02*
X114149904Y-118054380D01*
X114483238Y-117054380D01*
X114816571Y-117530571D02*
X115149904Y-117530571D01*
X115292761Y-118054380D02*
X114816571Y-118054380D01*
X114816571Y-117054380D01*
X115292761Y-117054380D01*
X115673714Y-118006761D02*
X115816571Y-118054380D01*
X116054666Y-118054380D01*
X116149904Y-118006761D01*
X116197523Y-117959142D01*
X116245142Y-117863904D01*
X116245142Y-117768666D01*
X116197523Y-117673428D01*
X116149904Y-117625809D01*
X116054666Y-117578190D01*
X115864190Y-117530571D01*
X115768952Y-117482952D01*
X115721333Y-117435333D01*
X115673714Y-117340095D01*
X115673714Y-117244857D01*
X115721333Y-117149619D01*
X115768952Y-117102000D01*
X115864190Y-117054380D01*
X116102285Y-117054380D01*
X116245142Y-117102000D01*
X117245142Y-117959142D02*
X117197523Y-118006761D01*
X117054666Y-118054380D01*
X116959428Y-118054380D01*
X116816571Y-118006761D01*
X116721333Y-117911523D01*
X116673714Y-117816285D01*
X116626095Y-117625809D01*
X116626095Y-117482952D01*
X116673714Y-117292476D01*
X116721333Y-117197238D01*
X116816571Y-117102000D01*
X116959428Y-117054380D01*
X117054666Y-117054380D01*
X117197523Y-117102000D01*
X117245142Y-117149619D01*
X117435619Y-118149619D02*
X118197523Y-118149619D01*
X118435619Y-117530571D02*
X118768952Y-117530571D01*
X118911809Y-118054380D02*
X118435619Y-118054380D01*
X118435619Y-117054380D01*
X118911809Y-117054380D01*
X119340380Y-118054380D02*
X119340380Y-117054380D01*
X119911809Y-118054380D01*
X119911809Y-117054380D01*
X120149904Y-118149619D02*
X120911809Y-118149619D01*
X121102285Y-118006761D02*
X121245142Y-118054380D01*
X121483238Y-118054380D01*
X121578476Y-118006761D01*
X121626095Y-117959142D01*
X121673714Y-117863904D01*
X121673714Y-117768666D01*
X121626095Y-117673428D01*
X121578476Y-117625809D01*
X121483238Y-117578190D01*
X121292761Y-117530571D01*
X121197523Y-117482952D01*
X121149904Y-117435333D01*
X121102285Y-117340095D01*
X121102285Y-117244857D01*
X121149904Y-117149619D01*
X121197523Y-117102000D01*
X121292761Y-117054380D01*
X121530857Y-117054380D01*
X121673714Y-117102000D01*
X122102285Y-118054380D02*
X122102285Y-117054380D01*
X123102285Y-117102000D02*
X123007047Y-117054380D01*
X122864190Y-117054380D01*
X122721333Y-117102000D01*
X122626095Y-117197238D01*
X122578476Y-117292476D01*
X122530857Y-117482952D01*
X122530857Y-117625809D01*
X122578476Y-117816285D01*
X122626095Y-117911523D01*
X122721333Y-118006761D01*
X122864190Y-118054380D01*
X122959428Y-118054380D01*
X123102285Y-118006761D01*
X123149904Y-117959142D01*
X123149904Y-117625809D01*
X122959428Y-117625809D01*
X123578476Y-118054380D02*
X123578476Y-117054380D01*
X124149904Y-118054380D01*
X124149904Y-117054380D01*
X124578476Y-117768666D02*
X125054666Y-117768666D01*
X124483238Y-118054380D02*
X124816571Y-117054380D01*
X125149904Y-118054380D01*
X125959428Y-118054380D02*
X125483238Y-118054380D01*
X125483238Y-117054380D01*
X121372380Y-112268000D02*
X121610476Y-112268000D01*
X121515238Y-112506095D02*
X121610476Y-112268000D01*
X121515238Y-112029904D01*
X121800952Y-112410857D02*
X121610476Y-112268000D01*
X121800952Y-112125142D01*
%TO.C,J3*%
X109902666Y-103338380D02*
X109902666Y-104052666D01*
X109855047Y-104195523D01*
X109759809Y-104290761D01*
X109616952Y-104338380D01*
X109521714Y-104338380D01*
X110283619Y-103338380D02*
X110902666Y-103338380D01*
X110569333Y-103719333D01*
X110712190Y-103719333D01*
X110807428Y-103766952D01*
X110855047Y-103814571D01*
X110902666Y-103909809D01*
X110902666Y-104147904D01*
X110855047Y-104243142D01*
X110807428Y-104290761D01*
X110712190Y-104338380D01*
X110426476Y-104338380D01*
X110331238Y-104290761D01*
X110283619Y-104243142D01*
X97481333Y-118006761D02*
X97624190Y-118054380D01*
X97862285Y-118054380D01*
X97957523Y-118006761D01*
X98005142Y-117959142D01*
X98052761Y-117863904D01*
X98052761Y-117768666D01*
X98005142Y-117673428D01*
X97957523Y-117625809D01*
X97862285Y-117578190D01*
X97671809Y-117530571D01*
X97576571Y-117482952D01*
X97528952Y-117435333D01*
X97481333Y-117340095D01*
X97481333Y-117244857D01*
X97528952Y-117149619D01*
X97576571Y-117102000D01*
X97671809Y-117054380D01*
X97909904Y-117054380D01*
X98052761Y-117102000D01*
X98338476Y-117054380D02*
X98909904Y-117054380D01*
X98624190Y-118054380D02*
X98624190Y-117054380D01*
X99195619Y-117768666D02*
X99671809Y-117768666D01*
X99100380Y-118054380D02*
X99433714Y-117054380D01*
X99767047Y-118054380D01*
X100671809Y-118054380D02*
X100338476Y-117578190D01*
X100100380Y-118054380D02*
X100100380Y-117054380D01*
X100481333Y-117054380D01*
X100576571Y-117102000D01*
X100624190Y-117149619D01*
X100671809Y-117244857D01*
X100671809Y-117387714D01*
X100624190Y-117482952D01*
X100576571Y-117530571D01*
X100481333Y-117578190D01*
X100100380Y-117578190D01*
X100957523Y-117054380D02*
X101528952Y-117054380D01*
X101243238Y-118054380D02*
X101243238Y-117054380D01*
X101862285Y-117530571D02*
X102195619Y-117530571D01*
X102338476Y-118054380D02*
X101862285Y-118054380D01*
X101862285Y-117054380D01*
X102338476Y-117054380D01*
X103338476Y-118054380D02*
X103005142Y-117578190D01*
X102767047Y-118054380D02*
X102767047Y-117054380D01*
X103148000Y-117054380D01*
X103243238Y-117102000D01*
X103290857Y-117149619D01*
X103338476Y-117244857D01*
X103338476Y-117387714D01*
X103290857Y-117482952D01*
X103243238Y-117530571D01*
X103148000Y-117578190D01*
X102767047Y-117578190D01*
X103528952Y-118149619D02*
X104290857Y-118149619D01*
X104528952Y-118054380D02*
X104528952Y-117054380D01*
X104862285Y-117768666D01*
X105195619Y-117054380D01*
X105195619Y-118054380D01*
X105862285Y-117054380D02*
X106052761Y-117054380D01*
X106148000Y-117102000D01*
X106243238Y-117197238D01*
X106290857Y-117387714D01*
X106290857Y-117721047D01*
X106243238Y-117911523D01*
X106148000Y-118006761D01*
X106052761Y-118054380D01*
X105862285Y-118054380D01*
X105767047Y-118006761D01*
X105671809Y-117911523D01*
X105624190Y-117721047D01*
X105624190Y-117387714D01*
X105671809Y-117197238D01*
X105767047Y-117102000D01*
X105862285Y-117054380D01*
X106576571Y-117054380D02*
X107148000Y-117054380D01*
X106862285Y-118054380D02*
X106862285Y-117054380D01*
X107671809Y-117054380D02*
X107862285Y-117054380D01*
X107957523Y-117102000D01*
X108052761Y-117197238D01*
X108100380Y-117387714D01*
X108100380Y-117721047D01*
X108052761Y-117911523D01*
X107957523Y-118006761D01*
X107862285Y-118054380D01*
X107671809Y-118054380D01*
X107576571Y-118006761D01*
X107481333Y-117911523D01*
X107433714Y-117721047D01*
X107433714Y-117387714D01*
X107481333Y-117197238D01*
X107576571Y-117102000D01*
X107671809Y-117054380D01*
X109100380Y-118054380D02*
X108767047Y-117578190D01*
X108528952Y-118054380D02*
X108528952Y-117054380D01*
X108909904Y-117054380D01*
X109005142Y-117102000D01*
X109052761Y-117149619D01*
X109100380Y-117244857D01*
X109100380Y-117387714D01*
X109052761Y-117482952D01*
X109005142Y-117530571D01*
X108909904Y-117578190D01*
X108528952Y-117578190D01*
X109290857Y-118149619D02*
X110052761Y-118149619D01*
X110290857Y-117530571D02*
X110624190Y-117530571D01*
X110767047Y-118054380D02*
X110290857Y-118054380D01*
X110290857Y-117054380D01*
X110767047Y-117054380D01*
X111195619Y-118054380D02*
X111195619Y-117054380D01*
X111767047Y-118054380D01*
X111767047Y-117054380D01*
X108164380Y-112268000D02*
X108402476Y-112268000D01*
X108307238Y-112506095D02*
X108402476Y-112268000D01*
X108307238Y-112029904D01*
X108592952Y-112410857D02*
X108402476Y-112268000D01*
X108592952Y-112125142D01*
%TO.C,J1*%
X96694666Y-103338380D02*
X96694666Y-104052666D01*
X96647047Y-104195523D01*
X96551809Y-104290761D01*
X96408952Y-104338380D01*
X96313714Y-104338380D01*
X97694666Y-104338380D02*
X97123238Y-104338380D01*
X97408952Y-104338380D02*
X97408952Y-103338380D01*
X97313714Y-103481238D01*
X97218476Y-103576476D01*
X97123238Y-103624095D01*
X87773333Y-118054380D02*
X87773333Y-117054380D01*
X87773333Y-117530571D02*
X88344761Y-117530571D01*
X88344761Y-118054380D02*
X88344761Y-117054380D01*
X89011428Y-117054380D02*
X89201904Y-117054380D01*
X89297142Y-117102000D01*
X89392380Y-117197238D01*
X89440000Y-117387714D01*
X89440000Y-117721047D01*
X89392380Y-117911523D01*
X89297142Y-118006761D01*
X89201904Y-118054380D01*
X89011428Y-118054380D01*
X88916190Y-118006761D01*
X88820952Y-117911523D01*
X88773333Y-117721047D01*
X88773333Y-117387714D01*
X88820952Y-117197238D01*
X88916190Y-117102000D01*
X89011428Y-117054380D01*
X90440000Y-118054380D02*
X90106666Y-117578190D01*
X89868571Y-118054380D02*
X89868571Y-117054380D01*
X90249523Y-117054380D01*
X90344761Y-117102000D01*
X90392380Y-117149619D01*
X90440000Y-117244857D01*
X90440000Y-117387714D01*
X90392380Y-117482952D01*
X90344761Y-117530571D01*
X90249523Y-117578190D01*
X89868571Y-117578190D01*
X90868571Y-118054380D02*
X90868571Y-117054380D01*
X91440000Y-118054380D01*
X91440000Y-117054380D01*
X91678095Y-118149619D02*
X92440000Y-118149619D01*
X92678095Y-117530571D02*
X93011428Y-117530571D01*
X93154285Y-118054380D02*
X92678095Y-118054380D01*
X92678095Y-117054380D01*
X93154285Y-117054380D01*
X93582857Y-118054380D02*
X93582857Y-117054380D01*
X94154285Y-118054380D01*
X94154285Y-117054380D01*
X95154285Y-118054380D02*
X94582857Y-118054380D01*
X94868571Y-118054380D02*
X94868571Y-117054380D01*
X94773333Y-117197238D01*
X94678095Y-117292476D01*
X94582857Y-117340095D01*
X94956380Y-112395000D02*
X95194476Y-112395000D01*
X95099238Y-112633095D02*
X95194476Y-112395000D01*
X95099238Y-112156904D01*
X95384952Y-112537857D02*
X95194476Y-112395000D01*
X95384952Y-112252142D01*
%TO.C,D1*%
X88750380Y-100623095D02*
X87750380Y-100623095D01*
X87750380Y-100385000D01*
X87798000Y-100242142D01*
X87893238Y-100146904D01*
X87988476Y-100099285D01*
X88178952Y-100051666D01*
X88321809Y-100051666D01*
X88512285Y-100099285D01*
X88607523Y-100146904D01*
X88702761Y-100242142D01*
X88750380Y-100385000D01*
X88750380Y-100623095D01*
X88750380Y-99099285D02*
X88750380Y-99670714D01*
X88750380Y-99385000D02*
X87750380Y-99385000D01*
X87893238Y-99480238D01*
X87988476Y-99575476D01*
X88036095Y-99670714D01*
%TO.C,C2*%
X112609333Y-100759142D02*
X112561714Y-100806761D01*
X112418857Y-100854380D01*
X112323619Y-100854380D01*
X112180761Y-100806761D01*
X112085523Y-100711523D01*
X112037904Y-100616285D01*
X111990285Y-100425809D01*
X111990285Y-100282952D01*
X112037904Y-100092476D01*
X112085523Y-99997238D01*
X112180761Y-99902000D01*
X112323619Y-99854380D01*
X112418857Y-99854380D01*
X112561714Y-99902000D01*
X112609333Y-99949619D01*
X112990285Y-99949619D02*
X113037904Y-99902000D01*
X113133142Y-99854380D01*
X113371238Y-99854380D01*
X113466476Y-99902000D01*
X113514095Y-99949619D01*
X113561714Y-100044857D01*
X113561714Y-100140095D01*
X113514095Y-100282952D01*
X112942666Y-100854380D01*
X113561714Y-100854380D01*
%TO.C,C1*%
X126833333Y-95607142D02*
X126785714Y-95654761D01*
X126642857Y-95702380D01*
X126547619Y-95702380D01*
X126404761Y-95654761D01*
X126309523Y-95559523D01*
X126261904Y-95464285D01*
X126214285Y-95273809D01*
X126214285Y-95130952D01*
X126261904Y-94940476D01*
X126309523Y-94845238D01*
X126404761Y-94750000D01*
X126547619Y-94702380D01*
X126642857Y-94702380D01*
X126785714Y-94750000D01*
X126833333Y-94797619D01*
X127785714Y-95702380D02*
X127214285Y-95702380D01*
X127500000Y-95702380D02*
X127500000Y-94702380D01*
X127404761Y-94845238D01*
X127309523Y-94940476D01*
X127214285Y-94988095D01*
%TO.C,U1*%
X123190095Y-93178380D02*
X123190095Y-93987904D01*
X123237714Y-94083142D01*
X123285333Y-94130761D01*
X123380571Y-94178380D01*
X123571047Y-94178380D01*
X123666285Y-94130761D01*
X123713904Y-94083142D01*
X123761523Y-93987904D01*
X123761523Y-93178380D01*
X124761523Y-94178380D02*
X124190095Y-94178380D01*
X124475809Y-94178380D02*
X124475809Y-93178380D01*
X124380571Y-93321238D01*
X124285333Y-93416476D01*
X124190095Y-93464095D01*
%TO.C,H2*%
X74422095Y-96066380D02*
X74422095Y-95066380D01*
X74422095Y-95542571D02*
X74993523Y-95542571D01*
X74993523Y-96066380D02*
X74993523Y-95066380D01*
X75422095Y-95161619D02*
X75469714Y-95114000D01*
X75564952Y-95066380D01*
X75803047Y-95066380D01*
X75898285Y-95114000D01*
X75945904Y-95161619D01*
X75993523Y-95256857D01*
X75993523Y-95352095D01*
X75945904Y-95494952D01*
X75374476Y-96066380D01*
X75993523Y-96066380D01*
%TO.C,H1*%
X142494095Y-95194380D02*
X142494095Y-94194380D01*
X142494095Y-94670571D02*
X143065523Y-94670571D01*
X143065523Y-95194380D02*
X143065523Y-94194380D01*
X144065523Y-95194380D02*
X143494095Y-95194380D01*
X143779809Y-95194380D02*
X143779809Y-94194380D01*
X143684571Y-94337238D01*
X143589333Y-94432476D01*
X143494095Y-94480095D01*
%TO.C,J2*%
X94154666Y-78446380D02*
X94154666Y-79160666D01*
X94107047Y-79303523D01*
X94011809Y-79398761D01*
X93868952Y-79446380D01*
X93773714Y-79446380D01*
X94583238Y-78541619D02*
X94630857Y-78494000D01*
X94726095Y-78446380D01*
X94964190Y-78446380D01*
X95059428Y-78494000D01*
X95107047Y-78541619D01*
X95154666Y-78636857D01*
X95154666Y-78732095D01*
X95107047Y-78874952D01*
X94535619Y-79446380D01*
X95154666Y-79446380D01*
X86646285Y-90368380D02*
X86646285Y-89368380D01*
X86646285Y-89844571D02*
X87217714Y-89844571D01*
X87217714Y-90368380D02*
X87217714Y-89368380D01*
X87884380Y-89368380D02*
X88074857Y-89368380D01*
X88170095Y-89416000D01*
X88265333Y-89511238D01*
X88312952Y-89701714D01*
X88312952Y-90035047D01*
X88265333Y-90225523D01*
X88170095Y-90320761D01*
X88074857Y-90368380D01*
X87884380Y-90368380D01*
X87789142Y-90320761D01*
X87693904Y-90225523D01*
X87646285Y-90035047D01*
X87646285Y-89701714D01*
X87693904Y-89511238D01*
X87789142Y-89416000D01*
X87884380Y-89368380D01*
X89312952Y-90368380D02*
X88979619Y-89892190D01*
X88741523Y-90368380D02*
X88741523Y-89368380D01*
X89122476Y-89368380D01*
X89217714Y-89416000D01*
X89265333Y-89463619D01*
X89312952Y-89558857D01*
X89312952Y-89701714D01*
X89265333Y-89796952D01*
X89217714Y-89844571D01*
X89122476Y-89892190D01*
X88741523Y-89892190D01*
X89741523Y-90368380D02*
X89741523Y-89368380D01*
X90312952Y-90368380D01*
X90312952Y-89368380D01*
X90551047Y-90463619D02*
X91312952Y-90463619D01*
X92122476Y-90273142D02*
X92074857Y-90320761D01*
X91932000Y-90368380D01*
X91836761Y-90368380D01*
X91693904Y-90320761D01*
X91598666Y-90225523D01*
X91551047Y-90130285D01*
X91503428Y-89939809D01*
X91503428Y-89796952D01*
X91551047Y-89606476D01*
X91598666Y-89511238D01*
X91693904Y-89416000D01*
X91836761Y-89368380D01*
X91932000Y-89368380D01*
X92074857Y-89416000D01*
X92122476Y-89463619D01*
X92741523Y-89368380D02*
X92932000Y-89368380D01*
X93027238Y-89416000D01*
X93122476Y-89511238D01*
X93170095Y-89701714D01*
X93170095Y-90035047D01*
X93122476Y-90225523D01*
X93027238Y-90320761D01*
X92932000Y-90368380D01*
X92741523Y-90368380D01*
X92646285Y-90320761D01*
X92551047Y-90225523D01*
X92503428Y-90035047D01*
X92503428Y-89701714D01*
X92551047Y-89511238D01*
X92646285Y-89416000D01*
X92741523Y-89368380D01*
X93598666Y-90368380D02*
X93598666Y-89368380D01*
X94170095Y-90368380D01*
X94170095Y-89368380D01*
X94646285Y-90368380D02*
X94646285Y-89368380D01*
X95217714Y-90368380D01*
X95217714Y-89368380D01*
%TO.C,J7*%
X81962666Y-78446380D02*
X81962666Y-79160666D01*
X81915047Y-79303523D01*
X81819809Y-79398761D01*
X81676952Y-79446380D01*
X81581714Y-79446380D01*
X82343619Y-78446380D02*
X83010285Y-78446380D01*
X82581714Y-79446380D01*
X71446285Y-89844571D02*
X71589142Y-89892190D01*
X71636761Y-89939809D01*
X71684380Y-90035047D01*
X71684380Y-90177904D01*
X71636761Y-90273142D01*
X71589142Y-90320761D01*
X71493904Y-90368380D01*
X71112952Y-90368380D01*
X71112952Y-89368380D01*
X71446285Y-89368380D01*
X71541523Y-89416000D01*
X71589142Y-89463619D01*
X71636761Y-89558857D01*
X71636761Y-89654095D01*
X71589142Y-89749333D01*
X71541523Y-89796952D01*
X71446285Y-89844571D01*
X71112952Y-89844571D01*
X72684380Y-90368380D02*
X72351047Y-89892190D01*
X72112952Y-90368380D02*
X72112952Y-89368380D01*
X72493904Y-89368380D01*
X72589142Y-89416000D01*
X72636761Y-89463619D01*
X72684380Y-89558857D01*
X72684380Y-89701714D01*
X72636761Y-89796952D01*
X72589142Y-89844571D01*
X72493904Y-89892190D01*
X72112952Y-89892190D01*
X73065333Y-90082666D02*
X73541523Y-90082666D01*
X72970095Y-90368380D02*
X73303428Y-89368380D01*
X73636761Y-90368380D01*
X73970095Y-90368380D02*
X73970095Y-89368380D01*
X74541523Y-90368380D02*
X74112952Y-89796952D01*
X74541523Y-89368380D02*
X73970095Y-89939809D01*
X74970095Y-89844571D02*
X75303428Y-89844571D01*
X75446285Y-90368380D02*
X74970095Y-90368380D01*
X74970095Y-89368380D01*
X75446285Y-89368380D01*
X76351047Y-90368380D02*
X75874857Y-90368380D01*
X75874857Y-89368380D01*
X76684380Y-90368380D02*
X76684380Y-89368380D01*
X77684380Y-89416000D02*
X77589142Y-89368380D01*
X77446285Y-89368380D01*
X77303428Y-89416000D01*
X77208190Y-89511238D01*
X77160571Y-89606476D01*
X77112952Y-89796952D01*
X77112952Y-89939809D01*
X77160571Y-90130285D01*
X77208190Y-90225523D01*
X77303428Y-90320761D01*
X77446285Y-90368380D01*
X77541523Y-90368380D01*
X77684380Y-90320761D01*
X77732000Y-90273142D01*
X77732000Y-89939809D01*
X77541523Y-89939809D01*
X78160571Y-90368380D02*
X78160571Y-89368380D01*
X78160571Y-89844571D02*
X78732000Y-89844571D01*
X78732000Y-90368380D02*
X78732000Y-89368380D01*
X79065333Y-89368380D02*
X79636761Y-89368380D01*
X79351047Y-90368380D02*
X79351047Y-89368380D01*
X79922476Y-90320761D02*
X80065333Y-90368380D01*
X80303428Y-90368380D01*
X80398666Y-90320761D01*
X80446285Y-90273142D01*
X80493904Y-90177904D01*
X80493904Y-90082666D01*
X80446285Y-89987428D01*
X80398666Y-89939809D01*
X80303428Y-89892190D01*
X80112952Y-89844571D01*
X80017714Y-89796952D01*
X79970095Y-89749333D01*
X79922476Y-89654095D01*
X79922476Y-89558857D01*
X79970095Y-89463619D01*
X80017714Y-89416000D01*
X80112952Y-89368380D01*
X80351047Y-89368380D01*
X80493904Y-89416000D01*
X80684380Y-90463619D02*
X81446285Y-90463619D01*
X82255809Y-90273142D02*
X82208190Y-90320761D01*
X82065333Y-90368380D01*
X81970095Y-90368380D01*
X81827238Y-90320761D01*
X81732000Y-90225523D01*
X81684380Y-90130285D01*
X81636761Y-89939809D01*
X81636761Y-89796952D01*
X81684380Y-89606476D01*
X81732000Y-89511238D01*
X81827238Y-89416000D01*
X81970095Y-89368380D01*
X82065333Y-89368380D01*
X82208190Y-89416000D01*
X82255809Y-89463619D01*
X82874857Y-89368380D02*
X83065333Y-89368380D01*
X83160571Y-89416000D01*
X83255809Y-89511238D01*
X83303428Y-89701714D01*
X83303428Y-90035047D01*
X83255809Y-90225523D01*
X83160571Y-90320761D01*
X83065333Y-90368380D01*
X82874857Y-90368380D01*
X82779619Y-90320761D01*
X82684380Y-90225523D01*
X82636761Y-90035047D01*
X82636761Y-89701714D01*
X82684380Y-89511238D01*
X82779619Y-89416000D01*
X82874857Y-89368380D01*
X83732000Y-90368380D02*
X83732000Y-89368380D01*
X84303428Y-90368380D01*
X84303428Y-89368380D01*
X84779619Y-90368380D02*
X84779619Y-89368380D01*
X85351047Y-90368380D01*
X85351047Y-89368380D01*
%TO.C,J5*%
X142922666Y-78446380D02*
X142922666Y-79160666D01*
X142875047Y-79303523D01*
X142779809Y-79398761D01*
X142636952Y-79446380D01*
X142541714Y-79446380D01*
X143875047Y-78446380D02*
X143398857Y-78446380D01*
X143351238Y-78922571D01*
X143398857Y-78874952D01*
X143494095Y-78827333D01*
X143732190Y-78827333D01*
X143827428Y-78874952D01*
X143875047Y-78922571D01*
X143922666Y-79017809D01*
X143922666Y-79255904D01*
X143875047Y-79351142D01*
X143827428Y-79398761D01*
X143732190Y-79446380D01*
X143494095Y-79446380D01*
X143398857Y-79398761D01*
X143351238Y-79351142D01*
X132033142Y-90098571D02*
X132366476Y-90098571D01*
X132509333Y-90622380D02*
X132033142Y-90622380D01*
X132033142Y-89622380D01*
X132509333Y-89622380D01*
X133509333Y-90527142D02*
X133461714Y-90574761D01*
X133318857Y-90622380D01*
X133223619Y-90622380D01*
X133080761Y-90574761D01*
X132985523Y-90479523D01*
X132937904Y-90384285D01*
X132890285Y-90193809D01*
X132890285Y-90050952D01*
X132937904Y-89860476D01*
X132985523Y-89765238D01*
X133080761Y-89670000D01*
X133223619Y-89622380D01*
X133318857Y-89622380D01*
X133461714Y-89670000D01*
X133509333Y-89717619D01*
X133937904Y-89622380D02*
X133937904Y-90431904D01*
X133985523Y-90527142D01*
X134033142Y-90574761D01*
X134128380Y-90622380D01*
X134318857Y-90622380D01*
X134414095Y-90574761D01*
X134461714Y-90527142D01*
X134509333Y-90431904D01*
X134509333Y-89622380D01*
X134747428Y-90717619D02*
X135509333Y-90717619D01*
X135747428Y-90622380D02*
X135747428Y-89622380D01*
X136128380Y-89622380D01*
X136223619Y-89670000D01*
X136271238Y-89717619D01*
X136318857Y-89812857D01*
X136318857Y-89955714D01*
X136271238Y-90050952D01*
X136223619Y-90098571D01*
X136128380Y-90146190D01*
X135747428Y-90146190D01*
X136937904Y-89622380D02*
X137128380Y-89622380D01*
X137223619Y-89670000D01*
X137318857Y-89765238D01*
X137366476Y-89955714D01*
X137366476Y-90289047D01*
X137318857Y-90479523D01*
X137223619Y-90574761D01*
X137128380Y-90622380D01*
X136937904Y-90622380D01*
X136842666Y-90574761D01*
X136747428Y-90479523D01*
X136699809Y-90289047D01*
X136699809Y-89955714D01*
X136747428Y-89765238D01*
X136842666Y-89670000D01*
X136937904Y-89622380D01*
X137699809Y-89622380D02*
X137937904Y-90622380D01*
X138128380Y-89908095D01*
X138318857Y-90622380D01*
X138556952Y-89622380D01*
X138937904Y-90098571D02*
X139271238Y-90098571D01*
X139414095Y-90622380D02*
X138937904Y-90622380D01*
X138937904Y-89622380D01*
X139414095Y-89622380D01*
X140414095Y-90622380D02*
X140080761Y-90146190D01*
X139842666Y-90622380D02*
X139842666Y-89622380D01*
X140223619Y-89622380D01*
X140318857Y-89670000D01*
X140366476Y-89717619D01*
X140414095Y-89812857D01*
X140414095Y-89955714D01*
X140366476Y-90050952D01*
X140318857Y-90098571D01*
X140223619Y-90146190D01*
X139842666Y-90146190D01*
X140604571Y-90717619D02*
X141366476Y-90717619D01*
X141604571Y-90622380D02*
X141604571Y-89622380D01*
X141842666Y-89622380D01*
X141985523Y-89670000D01*
X142080761Y-89765238D01*
X142128380Y-89860476D01*
X142176000Y-90050952D01*
X142176000Y-90193809D01*
X142128380Y-90384285D01*
X142080761Y-90479523D01*
X141985523Y-90574761D01*
X141842666Y-90622380D01*
X141604571Y-90622380D01*
X142604571Y-90622380D02*
X142604571Y-89622380D01*
X143033142Y-90574761D02*
X143176000Y-90622380D01*
X143414095Y-90622380D01*
X143509333Y-90574761D01*
X143556952Y-90527142D01*
X143604571Y-90431904D01*
X143604571Y-90336666D01*
X143556952Y-90241428D01*
X143509333Y-90193809D01*
X143414095Y-90146190D01*
X143223619Y-90098571D01*
X143128380Y-90050952D01*
X143080761Y-90003333D01*
X143033142Y-89908095D01*
X143033142Y-89812857D01*
X143080761Y-89717619D01*
X143128380Y-89670000D01*
X143223619Y-89622380D01*
X143461714Y-89622380D01*
X143604571Y-89670000D01*
X143890285Y-89622380D02*
X144461714Y-89622380D01*
X144176000Y-90622380D02*
X144176000Y-89622380D01*
%TO.C,J12*%
X145494476Y-105878380D02*
X145494476Y-106592666D01*
X145446857Y-106735523D01*
X145351619Y-106830761D01*
X145208761Y-106878380D01*
X145113523Y-106878380D01*
X146494476Y-106878380D02*
X145923047Y-106878380D01*
X146208761Y-106878380D02*
X146208761Y-105878380D01*
X146113523Y-106021238D01*
X146018285Y-106116476D01*
X145923047Y-106164095D01*
X146875428Y-105973619D02*
X146923047Y-105926000D01*
X147018285Y-105878380D01*
X147256380Y-105878380D01*
X147351619Y-105926000D01*
X147399238Y-105973619D01*
X147446857Y-106068857D01*
X147446857Y-106164095D01*
X147399238Y-106306952D01*
X146827809Y-106878380D01*
X147446857Y-106878380D01*
X138716380Y-118054380D02*
X138144952Y-118054380D01*
X138430666Y-118054380D02*
X138430666Y-117054380D01*
X138335428Y-117197238D01*
X138240190Y-117292476D01*
X138144952Y-117340095D01*
X139097333Y-117149619D02*
X139144952Y-117102000D01*
X139240190Y-117054380D01*
X139478285Y-117054380D01*
X139573523Y-117102000D01*
X139621142Y-117149619D01*
X139668761Y-117244857D01*
X139668761Y-117340095D01*
X139621142Y-117482952D01*
X139049714Y-118054380D01*
X139668761Y-118054380D01*
X139954476Y-117054380D02*
X140287809Y-118054380D01*
X140621142Y-117054380D01*
X140716380Y-118149619D02*
X141478285Y-118149619D01*
X141906857Y-117054380D02*
X142097333Y-117054380D01*
X142192571Y-117102000D01*
X142287809Y-117197238D01*
X142335428Y-117387714D01*
X142335428Y-117721047D01*
X142287809Y-117911523D01*
X142192571Y-118006761D01*
X142097333Y-118054380D01*
X141906857Y-118054380D01*
X141811619Y-118006761D01*
X141716380Y-117911523D01*
X141668761Y-117721047D01*
X141668761Y-117387714D01*
X141716380Y-117197238D01*
X141811619Y-117102000D01*
X141906857Y-117054380D01*
X142764000Y-117054380D02*
X142764000Y-117863904D01*
X142811619Y-117959142D01*
X142859238Y-118006761D01*
X142954476Y-118054380D01*
X143144952Y-118054380D01*
X143240190Y-118006761D01*
X143287809Y-117959142D01*
X143335428Y-117863904D01*
X143335428Y-117054380D01*
X143668761Y-117054380D02*
X144240190Y-117054380D01*
X143954476Y-118054380D02*
X143954476Y-117054380D01*
X144335428Y-118149619D02*
X145097333Y-118149619D01*
X145335428Y-117530571D02*
X145668761Y-117530571D01*
X145811619Y-118054380D02*
X145335428Y-118054380D01*
X145335428Y-117054380D01*
X145811619Y-117054380D01*
X146144952Y-117054380D02*
X146811619Y-118054380D01*
X146811619Y-117054380D02*
X146144952Y-118054380D01*
X147049714Y-117054380D02*
X147621142Y-117054380D01*
X147335428Y-118054380D02*
X147335428Y-117054380D01*
X148525904Y-118054380D02*
X148192571Y-117578190D01*
X147954476Y-118054380D02*
X147954476Y-117054380D01*
X148335428Y-117054380D01*
X148430666Y-117102000D01*
X148478285Y-117149619D01*
X148525904Y-117244857D01*
X148525904Y-117387714D01*
X148478285Y-117482952D01*
X148430666Y-117530571D01*
X148335428Y-117578190D01*
X147954476Y-117578190D01*
X148906857Y-117768666D02*
X149383047Y-117768666D01*
X148811619Y-118054380D02*
X149144952Y-117054380D01*
X149478285Y-118054380D01*
%TO.C,J11*%
X134318476Y-105878380D02*
X134318476Y-106592666D01*
X134270857Y-106735523D01*
X134175619Y-106830761D01*
X134032761Y-106878380D01*
X133937523Y-106878380D01*
X135318476Y-106878380D02*
X134747047Y-106878380D01*
X135032761Y-106878380D02*
X135032761Y-105878380D01*
X134937523Y-106021238D01*
X134842285Y-106116476D01*
X134747047Y-106164095D01*
X136270857Y-106878380D02*
X135699428Y-106878380D01*
X135985142Y-106878380D02*
X135985142Y-105878380D01*
X135889904Y-106021238D01*
X135794666Y-106116476D01*
X135699428Y-106164095D01*
X128794095Y-118054380D02*
X128222666Y-118054380D01*
X128508380Y-118054380D02*
X128508380Y-117054380D01*
X128413142Y-117197238D01*
X128317904Y-117292476D01*
X128222666Y-117340095D01*
X129175047Y-117149619D02*
X129222666Y-117102000D01*
X129317904Y-117054380D01*
X129556000Y-117054380D01*
X129651238Y-117102000D01*
X129698857Y-117149619D01*
X129746476Y-117244857D01*
X129746476Y-117340095D01*
X129698857Y-117482952D01*
X129127428Y-118054380D01*
X129746476Y-118054380D01*
X130032190Y-117054380D02*
X130365523Y-118054380D01*
X130698857Y-117054380D01*
X130794095Y-118149619D02*
X131556000Y-118149619D01*
X131794095Y-118054380D02*
X131794095Y-117054380D01*
X132270285Y-118054380D02*
X132270285Y-117054380D01*
X132841714Y-118054380D01*
X132841714Y-117054380D01*
%TO.C,Q1*%
X97591261Y-93424619D02*
X97496023Y-93377000D01*
X97400785Y-93281761D01*
X97257928Y-93138904D01*
X97162690Y-93091285D01*
X97067452Y-93091285D01*
X97115071Y-93329380D02*
X97019833Y-93281761D01*
X96924595Y-93186523D01*
X96876976Y-92996047D01*
X96876976Y-92662714D01*
X96924595Y-92472238D01*
X97019833Y-92377000D01*
X97115071Y-92329380D01*
X97305547Y-92329380D01*
X97400785Y-92377000D01*
X97496023Y-92472238D01*
X97543642Y-92662714D01*
X97543642Y-92996047D01*
X97496023Y-93186523D01*
X97400785Y-93281761D01*
X97305547Y-93329380D01*
X97115071Y-93329380D01*
X98496023Y-93329380D02*
X97924595Y-93329380D01*
X98210309Y-93329380D02*
X98210309Y-92329380D01*
X98115071Y-92472238D01*
X98019833Y-92567476D01*
X97924595Y-92615095D01*
%TD*%
M02*
