M48
; DRILL file {KiCad (5.1.9-0-10_14)} date Monday, April 25, 2022 at 12:05:05 AM
; FORMAT={-:-/ absolute / inch / decimal}
; #@! TF.CreationDate,2022-04-25T00:05:05-07:00
; #@! TF.GenerationSoftware,Kicad,Pcbnew,(5.1.9-0-10_14)
; #@! TF.FileFunction,Plated,1,2,PTH
FMAT,2
INCH
T1C0.0157
T2C0.0402
T3C0.0512
T4C0.0787
%
G90
G05
T1
X3.1868Y-3.8632
X3.1868Y-3.9032
X3.3603Y-4.0703
X3.4Y-4.07
X3.58Y-4.01
X3.6Y-4.05
X3.66Y-3.87
X4.0Y-3.73
X4.0Y-3.79
X4.0Y-3.85
X4.0Y-3.91
X4.0Y-3.97
X4.06Y-3.85
X4.12Y-3.85
X4.18Y-3.85
X4.2Y-4.21
X4.2Y-4.25
X4.24Y-3.73
X4.24Y-3.79
X4.24Y-3.85
X4.24Y-3.91
X4.24Y-3.97
X4.3Y-3.85
X4.3Y-3.91
X4.3Y-3.97
X4.38Y-4.21
X4.42Y-4.21
X4.85Y-4.08
X4.91Y-4.08
X4.97Y-4.04
X4.97Y-4.08
X5.03Y-4.04
X5.03Y-4.08
X5.09Y-4.04
X5.09Y-4.08
T2
X3.24Y-4.3069
X3.24Y-4.425
X3.76Y-4.3069
X3.76Y-4.425
X4.28Y-4.3019
X4.28Y-4.42
X4.8Y-4.3019
X4.8Y-4.42
T3
X2.9581Y-3.35
X3.155Y-3.35
X3.4351Y-3.35
X3.632Y-3.35
X3.9121Y-3.35
X4.109Y-3.35
X4.3891Y-3.35
X4.586Y-3.35
X4.8661Y-3.35
X5.04Y-4.39
X5.063Y-3.35
X5.2369Y-4.39
X5.3431Y-3.35
X5.5Y-4.39
X5.54Y-3.35
X5.6969Y-4.39
T4
X5.36Y-3.97
X5.7222Y-3.97
T0
M30
