%TF.GenerationSoftware,KiCad,Pcbnew,(5.1.9-0-10_14)*%
%TF.CreationDate,2022-04-24T23:49:05-07:00*%
%TF.ProjectId,PROTO_PCB_2022,50524f54-4f5f-4504-9342-5f323032322e,rev?*%
%TF.SameCoordinates,Original*%
%TF.FileFunction,Soldermask,Top*%
%TF.FilePolarity,Negative*%
%FSLAX46Y46*%
G04 Gerber Fmt 4.6, Leading zero omitted, Abs format (unit mm)*
G04 Created by KiCad (PCBNEW (5.1.9-0-10_14)) date 2022-04-24 23:49:05*
%MOMM*%
%LPD*%
G01*
G04 APERTURE LIST*
%ADD10C,3.500000*%
%ADD11C,2.400000*%
%ADD12R,3.400000X1.800000*%
%ADD13R,0.900000X0.800000*%
%ADD14C,2.600000*%
%ADD15R,2.600000X2.600000*%
%ADD16C,2.999999*%
%ADD17C,1.520000*%
%ADD18R,1.520000X1.520000*%
%ADD19R,2.000000X1.500000*%
%ADD20R,2.000000X3.800000*%
%ADD21C,2.700000*%
G04 APERTURE END LIST*
D10*
%TO.C,F1*%
X145344000Y-100838000D03*
D11*
X140744000Y-102038000D03*
D10*
X136144000Y-100838000D03*
%TD*%
%TO.C,D2*%
G36*
G01*
X86593000Y-95421000D02*
X87143000Y-95421000D01*
G75*
G02*
X87343000Y-95621000I0J-200000D01*
G01*
X87343000Y-96021000D01*
G75*
G02*
X87143000Y-96221000I-200000J0D01*
G01*
X86593000Y-96221000D01*
G75*
G02*
X86393000Y-96021000I0J200000D01*
G01*
X86393000Y-95621000D01*
G75*
G02*
X86593000Y-95421000I200000J0D01*
G01*
G37*
G36*
G01*
X86593000Y-93771000D02*
X87143000Y-93771000D01*
G75*
G02*
X87343000Y-93971000I0J-200000D01*
G01*
X87343000Y-94371000D01*
G75*
G02*
X87143000Y-94571000I-200000J0D01*
G01*
X86593000Y-94571000D01*
G75*
G02*
X86393000Y-94371000I0J200000D01*
G01*
X86393000Y-93971000D01*
G75*
G02*
X86593000Y-93771000I200000J0D01*
G01*
G37*
%TD*%
D12*
%TO.C,TP3*%
X104648000Y-94996000D03*
%TD*%
%TO.C,TP2*%
X112776000Y-94996000D03*
%TD*%
%TO.C,TP1*%
X134112000Y-94234000D03*
%TD*%
%TO.C,R5*%
G36*
G01*
X92871500Y-100701001D02*
X92871500Y-99450999D01*
G75*
G02*
X93121499Y-99201000I249999J0D01*
G01*
X93746501Y-99201000D01*
G75*
G02*
X93996500Y-99450999I0J-249999D01*
G01*
X93996500Y-100701001D01*
G75*
G02*
X93746501Y-100951000I-249999J0D01*
G01*
X93121499Y-100951000D01*
G75*
G02*
X92871500Y-100701001I0J249999D01*
G01*
G37*
G36*
G01*
X89946500Y-100701001D02*
X89946500Y-99450999D01*
G75*
G02*
X90196499Y-99201000I249999J0D01*
G01*
X90821501Y-99201000D01*
G75*
G02*
X91071500Y-99450999I0J-249999D01*
G01*
X91071500Y-100701001D01*
G75*
G02*
X90821501Y-100951000I-249999J0D01*
G01*
X90196499Y-100951000D01*
G75*
G02*
X89946500Y-100701001I0J249999D01*
G01*
G37*
%TD*%
%TO.C,R4*%
G36*
G01*
X82178999Y-95896000D02*
X83429001Y-95896000D01*
G75*
G02*
X83679000Y-96145999I0J-249999D01*
G01*
X83679000Y-96771001D01*
G75*
G02*
X83429001Y-97021000I-249999J0D01*
G01*
X82178999Y-97021000D01*
G75*
G02*
X81929000Y-96771001I0J249999D01*
G01*
X81929000Y-96145999D01*
G75*
G02*
X82178999Y-95896000I249999J0D01*
G01*
G37*
G36*
G01*
X82178999Y-92971000D02*
X83429001Y-92971000D01*
G75*
G02*
X83679000Y-93220999I0J-249999D01*
G01*
X83679000Y-93846001D01*
G75*
G02*
X83429001Y-94096000I-249999J0D01*
G01*
X82178999Y-94096000D01*
G75*
G02*
X81929000Y-93846001I0J249999D01*
G01*
X81929000Y-93220999D01*
G75*
G02*
X82178999Y-92971000I249999J0D01*
G01*
G37*
%TD*%
%TO.C,R3*%
G36*
G01*
X105235401Y-100446000D02*
X103985399Y-100446000D01*
G75*
G02*
X103735400Y-100196001I0J249999D01*
G01*
X103735400Y-99570999D01*
G75*
G02*
X103985399Y-99321000I249999J0D01*
G01*
X105235401Y-99321000D01*
G75*
G02*
X105485400Y-99570999I0J-249999D01*
G01*
X105485400Y-100196001D01*
G75*
G02*
X105235401Y-100446000I-249999J0D01*
G01*
G37*
G36*
G01*
X105235401Y-103371000D02*
X103985399Y-103371000D01*
G75*
G02*
X103735400Y-103121001I0J249999D01*
G01*
X103735400Y-102495999D01*
G75*
G02*
X103985399Y-102246000I249999J0D01*
G01*
X105235401Y-102246000D01*
G75*
G02*
X105485400Y-102495999I0J-249999D01*
G01*
X105485400Y-103121001D01*
G75*
G02*
X105235401Y-103371000I-249999J0D01*
G01*
G37*
%TD*%
%TO.C,R2*%
G36*
G01*
X98586500Y-100680000D02*
X98586500Y-99429998D01*
G75*
G02*
X98836499Y-99179999I249999J0D01*
G01*
X99461501Y-99179999D01*
G75*
G02*
X99711500Y-99429998I0J-249999D01*
G01*
X99711500Y-100680000D01*
G75*
G02*
X99461501Y-100929999I-249999J0D01*
G01*
X98836499Y-100929999D01*
G75*
G02*
X98586500Y-100680000I0J249999D01*
G01*
G37*
G36*
G01*
X95661500Y-100680000D02*
X95661500Y-99429998D01*
G75*
G02*
X95911499Y-99179999I249999J0D01*
G01*
X96536501Y-99179999D01*
G75*
G02*
X96786500Y-99429998I0J-249999D01*
G01*
X96786500Y-100680000D01*
G75*
G02*
X96536501Y-100929999I-249999J0D01*
G01*
X95911499Y-100929999D01*
G75*
G02*
X95661500Y-100680000I0J249999D01*
G01*
G37*
%TD*%
%TO.C,R1*%
G36*
G01*
X82178999Y-100976000D02*
X83429001Y-100976000D01*
G75*
G02*
X83679000Y-101225999I0J-249999D01*
G01*
X83679000Y-101851001D01*
G75*
G02*
X83429001Y-102101000I-249999J0D01*
G01*
X82178999Y-102101000D01*
G75*
G02*
X81929000Y-101851001I0J249999D01*
G01*
X81929000Y-101225999D01*
G75*
G02*
X82178999Y-100976000I249999J0D01*
G01*
G37*
G36*
G01*
X82178999Y-98051000D02*
X83429001Y-98051000D01*
G75*
G02*
X83679000Y-98300999I0J-249999D01*
G01*
X83679000Y-98926001D01*
G75*
G02*
X83429001Y-99176000I-249999J0D01*
G01*
X82178999Y-99176000D01*
G75*
G02*
X81929000Y-98926001I0J249999D01*
G01*
X81929000Y-98300999D01*
G75*
G02*
X82178999Y-98051000I249999J0D01*
G01*
G37*
%TD*%
D13*
%TO.C,Q2*%
X92948000Y-95504000D03*
X90948000Y-96454000D03*
X90948000Y-94554000D03*
%TD*%
D14*
%TO.C,J10*%
X123600200Y-85090000D03*
D15*
X128600200Y-85090000D03*
%TD*%
D14*
%TO.C,J9*%
X111484400Y-85090000D03*
D15*
X116484400Y-85090000D03*
%TD*%
D14*
%TO.C,J8*%
X99368600Y-85090000D03*
D15*
X104368600Y-85090000D03*
%TD*%
D16*
%TO.C,J6*%
X77976001Y-110895000D03*
D17*
X82296000Y-109395001D03*
D18*
X82296000Y-112395000D03*
%TD*%
D16*
%TO.C,J4*%
X117600001Y-110768000D03*
D17*
X121920000Y-109268001D03*
D18*
X121920000Y-112268000D03*
%TD*%
D16*
%TO.C,J3*%
X104392001Y-110768000D03*
D17*
X108712000Y-109268001D03*
D18*
X108712000Y-112268000D03*
%TD*%
D16*
%TO.C,J1*%
X91184001Y-110895000D03*
D17*
X95504000Y-109395001D03*
D18*
X95504000Y-112395000D03*
%TD*%
%TO.C,D1*%
G36*
G01*
X86593000Y-100310000D02*
X87143000Y-100310000D01*
G75*
G02*
X87343000Y-100510000I0J-200000D01*
G01*
X87343000Y-100910000D01*
G75*
G02*
X87143000Y-101110000I-200000J0D01*
G01*
X86593000Y-101110000D01*
G75*
G02*
X86393000Y-100910000I0J200000D01*
G01*
X86393000Y-100510000D01*
G75*
G02*
X86593000Y-100310000I200000J0D01*
G01*
G37*
G36*
G01*
X86593000Y-98660000D02*
X87143000Y-98660000D01*
G75*
G02*
X87343000Y-98860000I0J-200000D01*
G01*
X87343000Y-99260000D01*
G75*
G02*
X87143000Y-99460000I-200000J0D01*
G01*
X86593000Y-99460000D01*
G75*
G02*
X86393000Y-99260000I0J200000D01*
G01*
X86393000Y-98860000D01*
G75*
G02*
X86593000Y-98660000I200000J0D01*
G01*
G37*
%TD*%
%TO.C,C2*%
G36*
G01*
X111876000Y-97901999D02*
X111876000Y-99202001D01*
G75*
G02*
X111626001Y-99452000I-249999J0D01*
G01*
X110975999Y-99452000D01*
G75*
G02*
X110726000Y-99202001I0J249999D01*
G01*
X110726000Y-97901999D01*
G75*
G02*
X110975999Y-97652000I249999J0D01*
G01*
X111626001Y-97652000D01*
G75*
G02*
X111876000Y-97901999I0J-249999D01*
G01*
G37*
G36*
G01*
X114826000Y-97901999D02*
X114826000Y-99202001D01*
G75*
G02*
X114576001Y-99452000I-249999J0D01*
G01*
X113925999Y-99452000D01*
G75*
G02*
X113676000Y-99202001I0J249999D01*
G01*
X113676000Y-97901999D01*
G75*
G02*
X113925999Y-97652000I249999J0D01*
G01*
X114576001Y-97652000D01*
G75*
G02*
X114826000Y-97901999I0J-249999D01*
G01*
G37*
%TD*%
%TO.C,C1*%
G36*
G01*
X126349999Y-99452000D02*
X127650001Y-99452000D01*
G75*
G02*
X127900000Y-99701999I0J-249999D01*
G01*
X127900000Y-100352001D01*
G75*
G02*
X127650001Y-100602000I-249999J0D01*
G01*
X126349999Y-100602000D01*
G75*
G02*
X126100000Y-100352001I0J249999D01*
G01*
X126100000Y-99701999D01*
G75*
G02*
X126349999Y-99452000I249999J0D01*
G01*
G37*
G36*
G01*
X126349999Y-96502000D02*
X127650001Y-96502000D01*
G75*
G02*
X127900000Y-96751999I0J-249999D01*
G01*
X127900000Y-97402001D01*
G75*
G02*
X127650001Y-97652000I-249999J0D01*
G01*
X126349999Y-97652000D01*
G75*
G02*
X126100000Y-97402001I0J249999D01*
G01*
X126100000Y-96751999D01*
G75*
G02*
X126349999Y-96502000I249999J0D01*
G01*
G37*
%TD*%
D19*
%TO.C,U1*%
X123546000Y-100852000D03*
X123546000Y-96252000D03*
X123546000Y-98552000D03*
D20*
X117246000Y-98552000D03*
%TD*%
D21*
%TO.C,H2*%
X75184000Y-99314000D03*
%TD*%
%TO.C,H1*%
X147828000Y-94742000D03*
%TD*%
D14*
%TO.C,J2*%
X87252800Y-85090000D03*
D15*
X92252800Y-85090000D03*
%TD*%
D14*
%TO.C,J7*%
X75137000Y-85090000D03*
D15*
X80137000Y-85090000D03*
%TD*%
D14*
%TO.C,J5*%
X135716000Y-85090000D03*
D15*
X140716000Y-85090000D03*
%TD*%
D14*
%TO.C,J12*%
X144700000Y-111506000D03*
D15*
X139700000Y-111506000D03*
%TD*%
D14*
%TO.C,J11*%
X133016000Y-111506000D03*
D15*
X128016000Y-111506000D03*
%TD*%
D13*
%TO.C,Q1*%
X98686500Y-95377000D03*
X96686500Y-96327000D03*
X96686500Y-94427000D03*
%TD*%
M02*
